<svg width="1440" height="820" viewBox="0 0 1440 820" fill="none" xmlns="http://www.w3.org/2000/svg">
<rect width="1440" height="820" fill="url(#paint0_linear_126_8756)"/>
<g clip-path="url(#clip0_126_8756)">
<path d="M591.332 668.185C589.408 665.244 589.128 658.585 589.229 655.623C590.431 654.09 593.315 651.15 595.239 651.639C597.163 652.129 599.045 654.498 599.746 655.623C597.744 661.036 593.255 671.125 591.332 668.185Z" fill="#C86229" stroke="black"/>
<path d="M592.231 642.447C592.466 643.168 592.337 644.339 592.238 644.867C592.328 644.501 593.271 643.107 595.837 643.979C598.543 644.898 598.242 648.881 597.941 650.414C597.642 651.946 596.139 652.251 595.837 653.783C595.536 655.316 592.831 657.46 591.629 657.155C590.427 656.848 588.924 657.155 586.821 652.865C585.139 649.432 586.922 647.759 588.023 647.349C587.221 646.838 585.619 645.449 585.619 643.979C585.619 642.14 585.619 640.303 588.023 639.689C590.427 639.077 591.93 641.528 592.231 642.447Z" fill="white" stroke="black"/>
<path d="M634.83 685.571C629.14 691.416 622.301 694.996 615.851 696.064C609.4 697.132 603.344 695.686 599.198 691.488C595.052 687.292 593.588 681.129 594.588 674.545C595.586 667.959 599.047 660.964 604.738 655.118C610.429 649.272 617.268 645.692 623.717 644.624C630.169 643.559 636.224 645.005 640.37 649.201C644.517 653.396 645.981 659.56 644.981 666.145C643.983 672.729 640.521 679.727 634.83 685.571Z" fill="#FEDA03" stroke="black" stroke-width="0.0932121"/>
<path d="M656.898 659.115C654.047 644.632 638.344 644.614 638.344 644.614C635.709 644.81 629.35 644.428 629.35 644.428L618.284 645.399C618.284 645.399 615.531 641.025 612.895 641.245C610.937 644.171 613.264 646.842 613.264 646.842C613.264 646.842 598.686 649.15 592.603 664.337C590.893 668.608 588.465 682.152 587.88 688.611C586.883 699.621 592.977 705.854 604.904 705.36L611.057 704.963C612.942 704.814 631.712 703.333 633.647 703.18L639.771 702.603L639.891 702.597C651.899 701.202 656.263 693.996 657.261 682.987C657.845 676.528 657.707 663.224 656.898 659.115Z" fill="url(#paint1_linear_126_8756)"/>
<path d="M654.024 657.709C651.37 644.047 637.431 644.057 637.431 644.057C637.431 644.057 637.307 641.514 635.952 639.006C633.49 639.19 630.131 643.785 630.131 643.785L617.947 644.747C617.947 644.747 615.378 640.62 612.913 640.826C611.082 643.585 610.492 646.185 610.492 646.185C610.492 646.185 596.868 648.352 591.171 662.672C589.569 666.699 587.291 679.472 586.739 685.563C585.799 695.947 591.49 701.83 602.636 701.371L608.388 701.002C610.149 700.862 627.692 699.477 629.5 699.335L635.224 698.795L635.336 698.789C646.56 697.481 653.405 690.608 654.345 680.225C654.897 674.134 654.777 661.585 654.024 657.709Z" fill="url(#paint2_radial_126_8756)"/>
<path d="M629.434 700.065C627.446 700.222 609.985 701.601 608.32 701.732L608.309 701.733L602.556 702.102L602.537 702.104C599.697 702.221 597.15 701.936 594.966 701.256C592.794 700.58 590.971 699.512 589.547 698.08C588.13 696.657 587.107 694.872 586.505 692.777C585.906 690.688 585.724 688.282 585.965 685.625C586.5 679.716 588.77 666.743 590.449 662.521C591.789 659.153 593.674 656.158 596.051 653.623C597.957 651.59 600.179 649.848 602.656 648.445C605.898 646.61 608.699 645.847 609.888 645.581C610.17 644.633 610.874 642.625 612.276 640.515C612.353 640.399 612.459 640.299 612.582 640.225C612.705 640.151 612.841 640.106 612.977 640.095L612.989 640.094C614.236 639.996 615.576 640.695 616.971 642.172C617.502 642.74 617.987 643.345 618.425 643.984L629.787 643.087C630.348 642.369 630.951 641.678 631.593 641.018C633.278 639.297 634.765 638.374 636.011 638.276L636.024 638.275C636.159 638.265 636.29 638.289 636.401 638.344C636.512 638.399 636.601 638.484 636.658 638.59C637.694 640.507 638.042 642.429 638.155 643.347C639.341 643.421 642.14 643.739 645.157 645.087C647.455 646.114 649.402 647.529 650.945 649.292C652.871 651.494 654.164 654.243 654.79 657.463C655.15 659.312 655.391 663.155 655.451 668.005C655.51 672.678 655.385 677.224 655.119 680.165C654.878 682.821 654.255 685.291 653.266 687.505C652.273 689.727 650.91 691.7 649.213 693.369C647.508 695.047 645.464 696.421 643.137 697.452C640.798 698.489 638.162 699.184 635.302 699.517C635.265 699.521 635.229 699.523 635.193 699.522L635.17 699.524L629.446 700.064L629.434 700.065ZM616.986 699.6L629.559 698.607L635.276 698.068C635.307 698.065 635.337 698.064 635.366 698.065L635.37 698.064C638.052 697.752 640.513 697.106 642.681 696.144C644.793 695.209 646.644 693.967 648.182 692.454C649.713 690.947 650.947 689.159 651.849 687.14C652.767 685.085 653.347 682.779 653.573 680.286C653.835 677.389 653.957 672.895 653.899 668.267C653.84 663.561 653.602 659.706 653.261 657.953C652.678 654.954 651.481 652.398 649.704 650.356C648.282 648.723 646.485 647.409 644.362 646.452C642.832 645.767 641.184 645.278 639.457 644.998C638.163 644.79 637.31 644.786 637.301 644.786C637.127 644.786 636.968 644.729 636.85 644.624C636.733 644.519 636.665 644.373 636.657 644.21C636.656 644.188 636.534 642.037 635.457 639.822C634.719 640.068 633.747 640.784 632.661 641.891C631.972 642.598 631.332 643.345 630.746 644.124C630.666 644.232 630.562 644.324 630.444 644.392C630.325 644.459 630.194 644.5 630.065 644.511L617.882 645.473C617.752 645.483 617.628 645.462 617.519 645.412C617.411 645.363 617.322 645.286 617.262 645.189C616.809 644.492 616.296 643.837 615.726 643.23C614.827 642.28 613.971 641.708 613.267 641.577C611.771 643.994 611.255 646.196 611.25 646.218C611.212 646.384 611.116 646.543 610.978 646.668C610.841 646.792 610.67 646.876 610.493 646.904C610.486 646.905 609.652 647.042 608.341 647.456C606.576 648.017 604.856 648.771 603.218 649.702C600.924 651.009 598.867 652.629 597.104 654.516C594.898 656.877 593.144 659.672 591.89 662.823C591.182 664.602 590.246 668.44 589.322 673.352C588.475 677.854 587.78 682.51 587.509 685.505C587.283 687.998 587.451 690.245 588.007 692.183C588.554 694.088 589.479 695.705 590.758 696.99C592.042 698.28 593.693 699.245 595.664 699.859C597.687 700.488 600.061 700.752 602.721 700.644L608.457 700.275L616.986 699.6Z" fill="#47131A"/>
<path d="M633.376 694.181C633.369 696.757 633.14 698.842 633.14 698.842L603.021 701.211C601.694 699.039 603.061 698.599 603.446 696.534C604.77 681.984 634.127 679.257 633.376 694.181Z" fill="#FE7825"/>
<path d="M633.376 694.181C633.369 696.757 633.14 698.842 633.14 698.842L603.021 701.211C601.694 699.039 603.061 698.599 603.446 696.534C604.77 681.984 634.127 679.257 633.376 694.181Z" fill="url(#paint3_linear_126_8756)"/>
<path d="M652.456 658.435C652.456 658.435 650.301 659.015 646.418 663.239C642.846 667.124 643.092 673.526 652.874 672.102C653.417 666.192 652.456 658.435 652.456 658.435Z" fill="#FE7825"/>
<path d="M652.456 658.435C652.456 658.435 650.301 659.015 646.418 663.239C642.846 667.124 643.092 673.526 652.874 672.102C653.417 666.192 652.456 658.435 652.456 658.435Z" fill="url(#paint4_linear_126_8756)"/>
<path d="M588.704 681.481C588.704 681.481 593.735 681.55 594.216 676.85C594.553 673.563 590.048 673.63 590.048 673.63L588.704 681.481Z" fill="#FE7825"/>
<path d="M588.704 681.481C588.704 681.481 593.735 681.55 594.216 676.85C594.553 673.563 590.048 673.63 590.048 673.63L588.704 681.481Z" fill="url(#paint5_linear_126_8756)"/>
<path d="M638.071 698.371C648.258 695.374 651.899 687.602 652.022 678.578C651.131 686.182 641.924 693.318 638.062 694.06C632.18 683.626 621.217 684.491 621.217 684.491C629.88 684.907 632.999 689.806 632.948 694.224C632.948 694.224 632.986 697.329 632.772 699.206C635.648 698.979 638.071 698.371 638.071 698.371Z" fill="#F6A505"/>
<path d="M598.36 700.652C588.573 699.23 586.297 691.926 587.818 682.791C587.335 690.363 595.373 696.139 599.155 696.277C607.026 684.759 617.989 683.894 617.989 683.894C609.125 685.692 605.067 691.158 604.314 695.631C604.314 695.631 603.708 698.787 603.584 700.656C600.707 700.883 598.36 700.652 598.36 700.652Z" fill="#F6A505"/>
<path d="M618.833 644.203C618.833 644.203 621.921 653.774 613.241 655.645C603.709 657.699 601.834 650.559 601.834 650.559C602.966 649.606 607.283 646.677 612.52 645.606C613.731 641.853 614.769 640.497 614.769 640.497C614.769 640.497 616.337 640.497 618.833 644.203Z" fill="#FE7825"/>
<path d="M618.833 644.203C618.833 644.203 621.921 653.774 613.241 655.645C603.709 657.699 601.834 650.559 601.834 650.559C602.966 649.606 607.283 646.677 612.52 645.606C613.731 641.853 614.769 640.497 614.769 640.497C614.769 640.497 616.337 640.497 618.833 644.203Z" fill="url(#paint6_linear_126_8756)"/>
<g opacity="0.8" filter="url(#filter0_f_126_8756)">
<path fill-rule="evenodd" clip-rule="evenodd" d="M625.708 647.944C625.906 647.788 626.057 647.59 626.142 647.375C626.256 647.087 626.243 646.79 626.107 646.549C625.971 646.308 625.722 646.142 625.415 646.089C625.186 646.05 624.938 646.076 624.701 646.162C624.464 646.249 624.248 646.393 624.083 646.576C623.917 646.759 623.808 646.973 623.769 647.192C623.73 647.41 623.764 647.622 623.865 647.802C623.967 647.981 624.132 648.12 624.339 648.2C624.547 648.281 624.787 648.3 625.031 648.254C625.275 648.208 625.51 648.101 625.708 647.944ZM629.523 649.159C637.501 649.442 644.032 652.192 646.585 653.679C649.137 655.165 651.443 652.232 644.63 649.294C640.035 647.5 634.702 646.784 630.101 647.109C627.878 647.267 625.875 649.029 629.523 649.159Z" fill="white"/>
</g>
<path d="M650.175 670.514C650.121 670.521 650.067 670.52 650.017 670.513L646.324 669.975C646.202 669.955 646.105 669.895 646.052 669.807C646 669.719 645.996 669.611 646.042 669.506C646.089 669.4 646.181 669.306 646.3 669.243C646.418 669.181 646.554 669.154 646.677 669.17L650.37 669.708C650.481 669.724 650.573 669.774 650.63 669.848C650.687 669.922 650.706 670.016 650.682 670.113C650.659 670.21 650.595 670.303 650.502 670.376C650.409 670.45 650.293 670.498 650.175 670.514V670.514Z" fill="#47131A"/>
<path d="M650.87 666.942L646.929 667.387C646.802 667.399 646.684 667.376 646.599 667.323C646.514 667.27 646.47 667.192 646.475 667.104C646.48 667.016 646.535 666.927 646.627 666.854C646.719 666.781 646.842 666.731 646.969 666.715L650.91 666.27C651.037 666.258 651.155 666.281 651.24 666.334C651.324 666.386 651.369 666.465 651.364 666.553C651.358 666.64 651.304 666.73 651.212 666.803C651.119 666.875 650.997 666.925 650.87 666.942V666.942Z" fill="#47131A"/>
<path d="M594.371 673.787C594.254 673.799 594.143 673.775 594.058 673.718C593.973 673.661 593.92 673.575 593.908 673.477C593.895 673.378 593.925 673.272 593.991 673.179C594.057 673.085 594.156 673.01 594.269 672.966L598.047 671.5C598.11 671.474 598.177 671.459 598.242 671.456C598.307 671.452 598.37 671.46 598.428 671.479C598.485 671.498 598.536 671.527 598.576 671.566C598.617 671.604 598.647 671.651 598.664 671.703C598.681 671.755 598.686 671.811 598.677 671.869C598.669 671.926 598.647 671.983 598.614 672.037C598.581 672.091 598.537 672.141 598.484 672.183C598.432 672.225 598.372 672.259 598.308 672.283L594.53 673.749C594.478 673.769 594.425 673.782 594.371 673.787V673.787Z" fill="#47131A"/>
<path d="M598.436 669.825L594.509 670.197C594.444 670.205 594.381 670.202 594.322 670.189C594.263 670.176 594.21 670.153 594.167 670.122C594.123 670.091 594.09 670.052 594.068 670.008C594.046 669.963 594.037 669.914 594.041 669.863C594.045 669.812 594.061 669.761 594.09 669.712C594.119 669.662 594.159 669.617 594.208 669.577C594.256 669.537 594.313 669.504 594.375 669.48C594.437 669.455 594.502 669.44 594.566 669.436L598.493 669.064C598.619 669.054 598.736 669.084 598.819 669.147C598.902 669.21 598.944 669.3 598.937 669.4C598.929 669.499 598.873 669.599 598.779 669.679C598.686 669.758 598.563 669.811 598.436 669.825V669.825Z" fill="#47131A"/>
<path opacity="0.5" fill-rule="evenodd" clip-rule="evenodd" d="M639.607 656.435C636.155 656.997 633.592 660.933 633.376 665.972C633.161 671.013 635.335 674.131 638.663 673.59C641.991 673.049 644.552 669.162 644.892 664.1C645.232 659.042 643.06 655.874 639.607 656.435" fill="white"/>
<path fill-rule="evenodd" clip-rule="evenodd" d="M639.648 656.082C636.23 656.64 633.707 660.196 633.516 664.695C633.324 669.197 635.5 671.939 638.807 671.401C642.115 670.862 644.634 667.355 644.937 662.835C645.24 658.318 643.066 655.526 639.648 656.082" fill="#47131A"/>
<path fill-rule="evenodd" clip-rule="evenodd" d="M640.427 660.11C640.37 661.089 639.4 662.029 638.259 662.212C637.119 662.395 636.233 661.754 636.281 660.776C636.327 659.798 637.299 658.852 638.448 658.668C639.597 658.482 640.483 659.131 640.427 660.11" fill="white"/>
<path fill-rule="evenodd" clip-rule="evenodd" d="M634.924 677.698C634.987 676.765 636.721 676.133 638.83 675.811C640.938 675.49 643.097 675.54 643.054 676.47C643.01 677.4 640.804 678.112 638.681 678.435C636.558 678.76 634.862 678.631 634.924 677.698" fill="#FFB43C"/>
<path opacity="0.5" fill-rule="evenodd" clip-rule="evenodd" d="M606.515 659.034C602.96 659.545 600.412 663.468 600.319 668.537C600.227 673.607 602.557 676.78 605.985 676.287C609.412 675.795 611.959 671.92 612.179 666.832C612.4 661.745 610.071 658.523 606.515 659.034" fill="white"/>
<path fill-rule="evenodd" clip-rule="evenodd" d="M606.589 659.026C603.078 659.533 600.567 663.077 600.487 667.608C600.408 672.14 602.725 674.939 606.123 674.449C609.521 673.958 612.029 670.463 612.223 665.914C612.417 661.367 610.101 658.519 606.589 659.026" fill="#47131A"/>
<path fill-rule="evenodd" clip-rule="evenodd" d="M609.492 662.107C609.458 663.099 608.488 664.037 607.325 664.206C606.162 664.376 605.239 663.714 605.264 662.724C605.288 661.734 606.259 660.789 607.431 660.618C608.604 660.448 609.526 661.116 609.492 662.107" fill="white"/>
<path fill-rule="evenodd" clip-rule="evenodd" d="M600.739 680.096C600.866 679.051 603.106 678.45 605.225 678.283C607.346 678.115 609.022 678.394 608.913 679.438C608.807 680.481 607.031 681.054 604.896 681.223C602.761 681.391 600.612 681.141 600.739 680.096" fill="#FFB43C"/>
<path opacity="0.5" d="M628.895 670.347L627.69 670.685L627.69 670.682C627.69 670.689 627.819 671.352 627.232 671.946C626.7 672.483 625.736 672.84 624.366 673.005C623.936 673.056 623.563 673.032 623.315 672.934C623.141 672.866 622.917 672.729 622.899 672.332C622.904 672.293 622.907 672.253 622.91 672.214L622.959 671.257C622.962 671.195 622.95 671.135 622.922 671.081C622.894 671.027 622.852 670.981 622.797 670.944C622.743 670.906 622.677 670.88 622.604 670.865C622.532 670.85 622.453 670.847 622.373 670.857L622.363 670.858C622.283 670.868 622.203 670.889 622.127 670.922C622.052 670.955 621.983 670.998 621.924 671.049C621.865 671.099 621.817 671.157 621.784 671.218C621.75 671.279 621.731 671.343 621.728 671.405L621.678 672.362C621.676 672.401 621.674 672.441 621.676 672.479C621.617 672.885 621.376 673.078 621.193 673.189C620.932 673.348 620.551 673.463 620.121 673.515C618.75 673.68 617.812 673.552 617.33 673.136C616.797 672.676 616.995 671.974 616.997 671.967L616.997 671.97L615.812 671.92C615.797 671.966 615.467 673.069 616.345 673.839C617.056 674.464 618.31 674.673 620.073 674.461C620.993 674.35 621.733 674.044 622.227 673.598C622.681 673.93 623.399 674.061 624.318 673.951C626.082 673.739 627.374 673.224 628.159 672.42C629.124 671.427 628.905 670.39 628.895 670.347Z" fill="#F7F7F7"/>
<path d="M629.063 669.071L627.857 669.409L627.857 669.405C627.857 669.412 627.985 670.075 627.398 670.669C626.866 671.207 625.902 671.564 624.532 671.729C624.102 671.781 623.729 671.756 623.481 671.659C623.307 671.59 623.083 671.454 623.066 671.056C623.07 671.017 623.074 670.978 623.076 670.938L623.126 669.981C623.129 669.919 623.116 669.859 623.089 669.805C623.061 669.752 623.019 669.705 622.964 669.668C622.91 669.631 622.844 669.604 622.772 669.589C622.699 669.574 622.62 669.571 622.54 669.581L622.53 669.582C622.45 669.592 622.37 669.614 622.294 669.646C622.219 669.679 622.15 669.722 622.091 669.773C622.032 669.824 621.984 669.881 621.951 669.942C621.917 670.003 621.898 670.067 621.895 670.129L621.845 671.086C621.843 671.126 621.841 671.165 621.842 671.203C621.783 671.609 621.542 671.802 621.359 671.914C621.098 672.072 620.717 672.188 620.287 672.24C618.916 672.404 617.978 672.277 617.496 671.861C616.963 671.401 617.162 670.699 617.164 670.692L617.164 670.695L615.979 670.645C615.964 670.691 615.633 671.794 616.511 672.565C617.221 673.189 618.476 673.398 620.239 673.186C621.158 673.075 621.899 672.768 622.393 672.322C622.847 672.655 623.565 672.785 624.484 672.675C626.248 672.463 627.54 671.947 628.325 671.143C629.291 670.151 629.072 669.113 629.063 669.071Z" fill="#47131A"/>
<path d="M585.366 691.526C584.385 691.239 579.658 684.59 577.417 681.305L577.155 681.452L575.431 682.074L575.654 687.551L575.495 693.593L577.179 698.596C578.274 700.195 581.354 704.014 584.898 706.494C587.479 700.488 585.566 693.163 585.366 691.526Z" fill="#C86229" stroke="black"/>
<path d="M572.932 680.285C571.061 681.902 570.354 685.242 570.233 686.71C570.559 689.209 571.786 695.147 574.091 698.889C576.395 702.632 582.61 705.52 585.43 706.497C584.366 703.48 581.976 696.961 580.929 695.031C579.62 692.618 581.461 691.58 580.852 689.824C580.243 688.066 578.178 683.629 577.542 681.187C576.903 678.746 575.27 678.267 572.932 680.285Z" fill="url(#paint7_linear_126_8756)" stroke="black"/>
<path d="M646.779 682.52C647.429 679.644 649.783 676.8 650.985 676.085C652.989 676.289 657.117 676.882 657.597 677.618C658.197 678.536 658.197 684.971 656.094 688.036C653.991 691.098 650.985 690.487 649.482 689.873C647.981 689.261 645.876 686.503 646.779 682.52Z" fill="#C86229" stroke="black"/>
<path d="M632.621 696.703L630.189 692.42L628.451 695.154L626.387 701.963L628.78 708.11C630.066 706.473 631.797 703.698 632.848 702.551C633.899 701.405 633.26 697.64 632.621 696.703Z" fill="#C86229" stroke="#47131A"/>
<path d="M619.393 691.232L622.903 700.931L623.46 702.705C623.465 704.871 623.698 709.482 624.585 710.588C625.693 711.973 627.726 709.194 628.233 708.499C628.641 707.943 629.922 703.295 630.511 701.04C630.575 698.656 630.645 693.465 630.403 691.767C630.161 690.068 628.367 687.424 627.501 686.314C626.122 685.178 622.809 683.233 620.568 684.556C618.327 685.88 618.852 689.558 619.393 691.232Z" fill="url(#paint8_linear_126_8756)" stroke="#47131A"/>
<path d="M649.476 663.524C649.956 658.866 652.28 658.723 653.381 659.233C653.482 658.62 653.864 657.087 654.585 655.862C658.791 654.943 659.993 658.008 660.294 658.927C660.595 659.845 662.397 662.296 662.397 664.135C662.397 665.973 662.397 668.119 660.896 670.263C659.393 672.407 660.595 673.021 659.993 675.165C659.393 677.311 655.787 678.841 653.381 677.923C650.977 677.004 651.579 675.472 652.179 673.021C652.781 670.57 652.179 671.182 650.377 670.263C648.573 669.344 648.874 669.344 649.476 663.524Z" fill="white" stroke="black"/>
<path d="M747.309 586.106C747.32 586.03 747.328 585.954 747.338 585.879C755.544 592.078 762.754 593.188 768.315 592.378C773.95 591.561 777.861 588.777 779.377 587.392C780.154 586.68 781.942 584.365 783.985 580.588C786.032 576.8 788.346 571.524 790.164 564.873C793.801 551.569 795.451 532.77 789.022 509.399L789.014 509.378C781.572 488.9 775.486 477.738 770.707 471.344C768.317 468.144 766.253 466.139 764.513 464.758C763.21 463.724 762.084 463.038 761.158 462.473C760.876 462.303 760.612 462.141 760.369 461.985C751.423 443.817 737.074 438.867 730.192 437.723C722.864 428.079 713.654 428.605 711.405 429.002C705.106 423.248 697.347 420.818 690.217 420.116C683.104 419.414 676.593 420.43 672.723 421.598C665.931 419 656.915 418.969 647.037 420.953C637.109 422.946 626.287 426.982 615.928 432.537C595.223 443.643 576.308 460.859 570.162 480.063C566.956 490.086 569.199 497.531 573.564 502.849C577.826 508.041 584.092 511.184 589.199 512.754C589.028 513.07 588.797 513.389 588.524 513.728C588.37 513.921 588.205 514.119 588.034 514.322L587.957 514.413C587.76 514.648 587.555 514.894 587.353 515.151C586.547 516.183 585.772 517.425 585.617 519.09C585.463 520.755 585.931 522.796 587.516 525.428C589.098 528.057 591.803 531.294 596.149 535.36C607.415 546.49 623.648 549.269 628.788 550.15C628.918 550.171 629.039 550.192 629.155 550.211C629.559 552.193 630.093 553.932 631.01 555.598C631.957 557.318 633.303 558.949 635.313 560.688C639.328 564.16 646.016 568.093 657.525 574.069C675.766 583.539 689.921 581.868 694.984 579.739C698.667 584.376 709.772 593.627 726.07 595.086C731.211 595.546 735.066 595.533 737.969 595.166C740.872 594.796 742.841 594.068 744.194 593.085C746.682 591.27 747.002 588.634 747.309 586.106Z" fill="#C4C4C4" stroke="black" stroke-width="0.268914"/>
<mask id="mask0_126_8756" style="mask-type:alpha" maskUnits="userSpaceOnUse" x="568" y="419" width="226" height="177">
<path d="M570.248 480.146C563.894 500.009 579.149 509.521 589.415 512.575C587.908 516.142 578.807 518.915 596.161 535.151C607.798 546.651 624.785 549.191 629.21 549.962C630.835 558.135 634.445 561.858 657.473 573.814C675.896 583.379 690.095 581.518 694.891 579.391C698.396 583.917 709.505 593.332 725.917 594.801C746.433 596.636 746.226 590.91 746.946 585.359C763.564 598.181 776.044 589.895 779.013 587.177C781.982 584.459 801.407 556.106 788.576 509.472C773.704 468.543 764.269 464.936 759.977 462.18C751.037 443.961 736.649 439.08 729.862 437.981C722.452 428.148 713.072 428.917 711.145 429.302C698.621 417.763 680.186 419.554 672.535 421.892C645.61 411.472 582.475 441.939 570.248 480.146Z" fill="#C4C4C4" stroke="black" stroke-width="0.268914"/>
</mask>
<g mask="url(#mask0_126_8756)">
<path d="M782.793 618.098C793.537 587.257 791.956 555.732 789.822 543.824L789.861 536.42L761.692 509.543L736.819 556.865L723.31 598.963C738.66 618.193 772.047 648.94 782.793 618.098Z" fill="url(#paint9_linear_126_8756)" stroke="black" stroke-width="0.268914"/>
<path d="M742.65 599.489C753.397 568.647 751.813 537.123 749.679 525.215L749.718 517.811L721.55 490.934L696.676 538.256L683.169 580.354C698.519 599.583 731.904 630.33 742.65 599.489Z" fill="url(#paint10_linear_126_8756)" stroke="black" stroke-width="0.268914"/>
<path d="M625.213 555.536C631.617 529.027 660.679 493.849 674.408 479.574C688.501 483.804 715.673 493.381 718.294 494.287C722.962 495.903 707.051 553.813 693.866 582.247C668.314 584.389 618.811 582.045 625.213 555.536Z" fill="url(#paint11_linear_126_8756)" stroke="black" stroke-width="0.268914"/>
<path d="M682.333 475.309C663.938 486.841 636.988 529.515 627.901 550.635L613.019 557.552L572.255 544.282L584.929 515.871L622.056 465.274C629.594 464.505 652.202 465.434 682.333 475.309Z" fill="url(#paint12_linear_126_8756)" stroke="black" stroke-width="0.268914"/>
<path d="M583.596 518.32C595.806 498.598 618.451 477.504 628.247 469.421L590.621 466.561L559.894 473.552L542.758 491.71C551.283 508.797 571.384 538.041 583.596 518.32Z" fill="url(#paint13_linear_126_8756)" stroke="black" stroke-width="0.268914"/>
<path d="M777.931 588.467C786.104 567.897 768.944 555.728 758.16 553.458L761.602 549.678L762.039 544.763L752.505 462.043L769.542 455.356L807.588 543.366C794.298 566.97 769.76 609.038 777.931 588.467Z" fill="url(#paint14_linear_126_8756)" stroke="black" stroke-width="0.268914"/>
<path d="M771.123 490.633C779.255 523.268 765.667 546.191 757.857 553.571C763.061 548.638 754.193 530.762 739.579 523.091C732.398 519.322 724.427 515.98 721.107 515.549L717.61 503.694L725.338 437.42L737.571 433.625C745.367 439.03 762.991 457.999 771.123 490.633Z" fill="url(#paint15_linear_126_8756)" stroke="black" stroke-width="0.268914"/>
<path d="M721.247 516.377C713.726 497.795 676.933 478.433 657.815 486.968L679.248 443.423L713.627 421.492C713.627 421.492 713.911 412.414 727.239 433.178C740.564 453.944 736.323 477.912 721.247 516.377Z" fill="url(#paint16_linear_126_8756)" stroke="black" stroke-width="0.268914"/>
<path d="M658.619 486.835C642.248 472.335 613.677 468.301 605.185 485.09L594.144 476.644L624.537 434.952L652.751 420.653L672.303 421.276L654.345 396.829L696.111 403.911L711.327 428.879C686.066 438.63 674.765 451.97 658.619 486.835Z" fill="url(#paint17_linear_126_8756)" stroke="black" stroke-width="0.268914"/>
<path d="M605.406 485.185C583.293 473.09 571.623 481.208 568.553 486.778L567.514 486.295L554.906 468.423L616.938 391.25L672.523 421.37C645.818 422.794 602.072 461.509 605.406 485.185Z" fill="url(#paint18_linear_126_8756)" stroke="black" stroke-width="0.268914"/>
</g>
<path d="M587.778 512.166L591.042 635.09" stroke="black" stroke-width="0.268914"/>
<path d="M605.399 485.026L591.637 634.783" stroke="black" stroke-width="0.268914"/>
<path d="M627.999 550.095L592.229 634.785" stroke="black" stroke-width="0.268914"/>
<path d="M658.928 486.56L592.836 635.09" stroke="black" stroke-width="0.268914"/>
<path d="M721.829 515.47L667.368 643.669" stroke="black" stroke-width="0.268914"/>
<path d="M704.338 588.517L668.272 647.959" stroke="black" stroke-width="0.268914"/>
<path d="M758.566 552.971L669.178 647.04" stroke="black" stroke-width="0.268914"/>
<path d="M744.998 592.421L667.069 651.023" stroke="black" stroke-width="0.268914"/>
<path d="M667.673 643.366L658.958 656.848L659.56 658.074L670.378 650.721L667.673 643.366Z" fill="black" stroke="black" stroke-width="0.353735"/>
<path d="M593.746 635.4C592.993 634.978 590.439 634.175 589.839 634.175L592.845 643.979L593.746 635.4Z" fill="black" stroke="black" stroke-width="0.353735"/>
</g>
<defs>
<filter id="filter0_f_126_8756" x="613.753" y="636.071" width="45.3672" height="28.0063" filterUnits="userSpaceOnUse" color-interpolation-filters="sRGB">
<feFlood flood-opacity="0" result="BackgroundImageFix"/>
<feBlend mode="normal" in="SourceGraphic" in2="BackgroundImageFix" result="shape"/>
<feGaussianBlur stdDeviation="5" result="effect1_foregroundBlur_126_8756"/>
</filter>
<linearGradient id="paint0_linear_126_8756" x1="1211" y1="0" x2="1211" y2="804.155" gradientUnits="userSpaceOnUse">
<stop stop-color="#A7E7C9"/>
<stop offset="1" stop-color="#EEFBF4"/>
</linearGradient>
<linearGradient id="paint1_linear_126_8756" x1="626.704" y1="640.155" x2="631.691" y2="703.334" gradientUnits="userSpaceOnUse">
<stop stop-color="#FCD10A"/>
<stop offset="1" stop-color="#B56400"/>
</linearGradient>
<radialGradient id="paint2_radial_126_8756" cx="0" cy="0" r="1" gradientUnits="userSpaceOnUse" gradientTransform="translate(622.428 661.682) rotate(95.1215) scale(38.638 42.7089)">
<stop stop-color="#FFEF9E"/>
<stop offset="0.452438" stop-color="#FFD921"/>
<stop offset="1" stop-color="#FAD001"/>
</radialGradient>
<linearGradient id="paint3_linear_126_8756" x1="707.386" y1="688.193" x2="609.066" y2="645.368" gradientUnits="userSpaceOnUse">
<stop offset="0.369792" stop-color="#E64500" stop-opacity="0.81"/>
<stop offset="0.572917" stop-color="#FF5C00" stop-opacity="0.79"/>
<stop offset="0.927083" stop-color="#FF9921"/>
</linearGradient>
<linearGradient id="paint4_linear_126_8756" x1="674.849" y1="666.202" x2="641.453" y2="659.232" gradientUnits="userSpaceOnUse">
<stop offset="0.369792" stop-color="#E64500" stop-opacity="0.81"/>
<stop offset="0.572917" stop-color="#FF5C00" stop-opacity="0.79"/>
<stop offset="0.927083" stop-color="#FF9921"/>
</linearGradient>
<linearGradient id="paint5_linear_126_8756" x1="606.305" y1="677.73" x2="587.349" y2="673.761" gradientUnits="userSpaceOnUse">
<stop offset="0.369792" stop-color="#E64500" stop-opacity="0.81"/>
<stop offset="0.572917" stop-color="#FF5C00" stop-opacity="0.79"/>
<stop offset="0.927083" stop-color="#FF9921"/>
</linearGradient>
<linearGradient id="paint6_linear_126_8756" x1="660.95" y1="647.361" x2="599.289" y2="629.247" gradientUnits="userSpaceOnUse">
<stop offset="0.369792" stop-color="#E64500" stop-opacity="0.81"/>
<stop offset="0.572917" stop-color="#FF5C00" stop-opacity="0.79"/>
<stop offset="0.927083" stop-color="#FF9921"/>
</linearGradient>
<linearGradient id="paint7_linear_126_8756" x1="576.144" y1="678.295" x2="570.046" y2="695.145" gradientUnits="userSpaceOnUse">
<stop offset="0.05711" stop-color="#AD5B0E"/>
<stop offset="1" stop-color="#28070C"/>
</linearGradient>
<linearGradient id="paint8_linear_126_8756" x1="629.16" y1="683.05" x2="618.403" y2="695.796" gradientUnits="userSpaceOnUse">
<stop offset="0.05711" stop-color="#AD5B0E"/>
<stop offset="1" stop-color="#28070C"/>
</linearGradient>
<linearGradient id="paint9_linear_126_8756" x1="753.486" y1="576.168" x2="778.684" y2="588.297" gradientUnits="userSpaceOnUse">
<stop offset="0.145216" stop-color="#466B00"/>
<stop offset="0.919699" stop-color="#598900"/>
</linearGradient>
<linearGradient id="paint10_linear_126_8756" x1="713.344" y1="557.559" x2="738.541" y2="569.687" gradientUnits="userSpaceOnUse">
<stop offset="0.145216" stop-color="#466B00"/>
<stop offset="0.919699" stop-color="#598900"/>
</linearGradient>
<linearGradient id="paint11_linear_126_8756" x1="660.427" y1="536.937" x2="688.461" y2="550.561" gradientUnits="userSpaceOnUse">
<stop offset="0.145216" stop-color="#466B00"/>
<stop offset="0.919699" stop-color="#598900"/>
</linearGradient>
<linearGradient id="paint12_linear_126_8756" x1="613.431" y1="513.184" x2="640.615" y2="526.355" gradientUnits="userSpaceOnUse">
<stop offset="0.145216" stop-color="#466B00"/>
<stop offset="0.919699" stop-color="#598900"/>
</linearGradient>
<linearGradient id="paint13_linear_126_8756" x1="569.601" y1="489.841" x2="595.325" y2="502.707" gradientUnits="userSpaceOnUse">
<stop offset="0.145216" stop-color="#466B00"/>
<stop offset="0.919699" stop-color="#598900"/>
</linearGradient>
<linearGradient id="paint14_linear_126_8756" x1="754.839" y1="527.316" x2="786.142" y2="542.508" gradientUnits="userSpaceOnUse">
<stop offset="0.145216" stop-color="#AAE738"/>
<stop offset="0.919699" stop-color="#89C31E"/>
</linearGradient>
<linearGradient id="paint15_linear_126_8756" x1="730.06" y1="494.453" x2="759.993" y2="509.191" gradientUnits="userSpaceOnUse">
<stop offset="0.145216" stop-color="#AAE738"/>
<stop offset="0.919699" stop-color="#89C31E"/>
</linearGradient>
<linearGradient id="paint16_linear_126_8756" x1="694.219" y1="464.44" x2="720.357" y2="477.342" gradientUnits="userSpaceOnUse">
<stop offset="0.145216" stop-color="#AAE738"/>
<stop offset="0.919699" stop-color="#89C31E"/>
</linearGradient>
<linearGradient id="paint17_linear_126_8756" x1="639.33" y1="449.34" x2="672.099" y2="465.443" gradientUnits="userSpaceOnUse">
<stop offset="0.145216" stop-color="#AAE738"/>
<stop offset="0.919699" stop-color="#89C31E"/>
</linearGradient>
<linearGradient id="paint18_linear_126_8756" x1="596.26" y1="450.291" x2="629.251" y2="466.584" gradientUnits="userSpaceOnUse">
<stop offset="0.145216" stop-color="#AAE738"/>
<stop offset="0.919699" stop-color="#89C31E"/>
</linearGradient>
<clipPath id="clip0_126_8756">
<rect width="227.37" height="291.905" fill="white" transform="translate(566 419.548)"/>
</clipPath>
</defs>
</svg>
