<svg width="34" height="35" viewBox="0 0 34 35" fill="none" xmlns="http://www.w3.org/2000/svg">
<rect y="0.681885" width="34" height="34" rx="6" fill="black"/>
<path d="M11.728 26.6819L10.912 24.6899L15.832 19.1939C16.12 18.9059 16.416 18.5699 16.72 18.1859C17.04 17.8019 17.344 17.4099 17.632 17.0099C17.92 16.5939 18.152 16.1939 18.328 15.8099C18.504 15.4259 18.592 15.0739 18.592 14.7539C18.592 14.3699 18.512 14.0419 18.352 13.7699C18.208 13.4819 17.984 13.2659 17.68 13.1219C17.376 12.9619 17 12.8819 16.552 12.8819C16.152 12.8819 15.768 12.9939 15.4 13.2179C15.032 13.4259 14.688 13.7379 14.368 14.1539C14.048 14.5699 13.768 15.0819 13.528 15.6899L10.84 14.1539C11.16 13.2259 11.616 12.4179 12.208 11.7299C12.8 11.0259 13.504 10.4819 14.32 10.0979C15.136 9.71388 16.008 9.52988 16.936 9.54588C17.912 9.54588 18.784 9.75388 19.552 10.1699C20.336 10.5699 20.952 11.1299 21.4 11.8499C21.848 12.5699 22.072 13.4019 22.072 14.3459C22.072 14.7939 22.008 15.2579 21.88 15.7379C21.768 16.2019 21.576 16.6979 21.304 17.2259C21.032 17.7379 20.68 18.2899 20.248 18.8819C19.816 19.4739 19.296 20.1059 18.688 20.7779L14.92 24.8819L14.44 23.4419H22.744V26.6819H11.728Z" fill="white"/>
</svg>
