<svg width="34" height="35" viewBox="0 0 34 35" fill="none" xmlns="http://www.w3.org/2000/svg">
<rect y="0.53418" width="34" height="34" rx="6" fill="black"/>
<path d="M16.576 26.7742C15.28 26.7742 14.152 26.4942 13.192 25.9342C12.232 25.3742 11.336 24.4142 10.504 23.0542L13.168 21.3982C13.52 21.9582 13.888 22.4142 14.272 22.7662C14.656 23.1022 15.048 23.3502 15.448 23.5102C15.864 23.6702 16.296 23.7502 16.744 23.7502C17.224 23.7502 17.664 23.6382 18.064 23.4142C18.48 23.1902 18.808 22.8782 19.048 22.4782C19.304 22.0622 19.432 21.5902 19.432 21.0622C19.432 20.5342 19.328 20.0862 19.12 19.7182C18.912 19.3502 18.616 19.0702 18.232 18.8782C17.848 18.6862 17.376 18.5902 16.816 18.5902C16.576 18.5902 16.312 18.6222 16.024 18.6862C15.752 18.7342 15.456 18.8062 15.136 18.9022C14.816 18.9982 14.488 19.1182 14.152 19.2622L13.312 17.0302L17.728 12.1822L18.64 12.8302L11.608 12.7582V9.63818H21.688L22.36 10.9582L16.84 16.9342L16.024 15.9742C16.152 15.9262 16.36 15.8782 16.648 15.8302C16.936 15.7662 17.2 15.7342 17.44 15.7342C18.16 15.7342 18.84 15.8702 19.48 16.1422C20.12 16.3982 20.688 16.7662 21.184 17.2462C21.68 17.7262 22.064 18.2862 22.336 18.9262C22.624 19.5662 22.768 20.2542 22.768 20.9902C22.768 22.0942 22.488 23.0862 21.928 23.9662C21.384 24.8302 20.64 25.5182 19.696 26.0302C18.768 26.5262 17.728 26.7742 16.576 26.7742Z" fill="white"/>
</svg>
