<svg width="22" height="24" viewBox="0 0 22 24" fill="none" xmlns="http://www.w3.org/2000/svg">
<path fill-rule="evenodd" clip-rule="evenodd" d="M0.139983 0.845582C0.0494752 1.08051 0 1.36069 0 1.68148V22.3179C0 22.6394 0.0495858 22.9196 0.140202 23.1545L11.2938 11.9993L0.139983 0.845582ZM0.895551 23.9302C1.30089 24.0713 1.81427 24.0025 2.37095 23.6867L15.5132 16.2188L12.0593 12.7649L0.895551 23.9302ZM16.4901 15.6646L20.5673 13.3481C21.8709 12.6063 21.8709 11.3942 20.5673 10.6532L16.4882 8.3353L12.8248 11.9992L16.4901 15.6646ZM15.5119 7.78057L2.37095 0.313579C1.81416 -0.00287266 1.30088 -0.0712951 0.89544 0.0699877L12.0593 11.2337L15.5119 7.78057Z" fill="black"/>
</svg>
