<svg width="87" height="36" viewBox="0 0 87 36" fill="none" xmlns="http://www.w3.org/2000/svg">
<rect x="38.1421" width="47.9246" height="20" rx="10" fill="#CDF202"/>
<path d="M47.9486 8.87109C47.9486 8.24609 48.0502 7.67578 48.2533 7.16016C48.4616 6.64453 48.7559 6.20443 49.1361 5.83984C49.4955 5.49609 49.9122 5.23568 50.3861 5.05859C50.8601 4.8763 51.3627 4.78516 51.8939 4.78516C52.6387 4.78516 53.2585 4.92318 53.7533 5.19922C54.2481 5.47526 54.709 5.88411 55.1361 6.42578C55.334 6.71745 55.433 7.02474 55.433 7.34766C55.433 7.52995 55.3965 7.70443 55.3236 7.87109C55.2507 8.03255 55.1491 8.17578 55.0189 8.30078C54.8887 8.42578 54.7325 8.52474 54.5502 8.59766C54.3731 8.67057 54.1856 8.70703 53.9877 8.70703C53.7793 8.70703 53.5944 8.66536 53.433 8.58203C53.2871 8.51432 53.1621 8.41536 53.058 8.28516C52.959 8.15495 52.8913 8.04297 52.8549 7.94922C52.8132 7.87109 52.7559 7.80339 52.683 7.74609C52.5267 7.64193 52.2637 7.58984 51.8939 7.58984C51.7064 7.58984 51.558 7.60026 51.4486 7.62109C51.3392 7.64193 51.2377 7.68359 51.1439 7.74609C50.8783 7.9388 50.7455 8.30599 50.7455 8.84766V11.1445C50.7455 11.6966 50.8783 12.0612 51.1439 12.2383C51.2377 12.3008 51.3392 12.3424 51.4486 12.3633C51.558 12.3841 51.7064 12.3945 51.8939 12.3945C52.0866 12.3945 52.2533 12.3815 52.3939 12.3555C52.5085 12.3294 52.5996 12.2904 52.6674 12.2383C52.7403 12.1862 52.8028 12.1185 52.8549 12.0352C52.933 11.9049 53.0163 11.7826 53.1049 11.668C53.1934 11.5586 53.3158 11.4701 53.472 11.4023C53.6283 11.3294 53.7976 11.293 53.9799 11.293C54.183 11.293 54.3731 11.3294 54.5502 11.4023C54.7273 11.4701 54.8809 11.5664 55.0111 11.6914C55.1413 11.8216 55.2429 11.9701 55.3158 12.1367C55.3939 12.3034 55.433 12.4753 55.433 12.6523C55.433 12.9857 55.334 13.2904 55.1361 13.5664C54.7142 14.1081 54.2559 14.5169 53.7611 14.793C53.2663 15.0638 52.6439 15.1992 51.8939 15.1992C51.3627 15.1992 50.8601 15.1081 50.3861 14.9258C49.9122 14.7435 49.4955 14.4805 49.1361 14.1367C48.7559 13.7773 48.4616 13.3424 48.2533 12.832C48.0502 12.3164 47.9486 11.7461 47.9486 11.1211V8.87109Z" fill="black"/>
<path d="M59.3002 13.8711C59.3002 14.0534 59.2637 14.2305 59.1908 14.4023C59.1179 14.569 59.0189 14.7148 58.8939 14.8398C58.7689 14.9648 58.6205 15.0612 58.4486 15.1289C58.2767 15.2018 58.097 15.2383 57.9095 15.2383C57.722 15.2383 57.5424 15.2018 57.3705 15.1289C57.2038 15.0612 57.058 14.9648 56.933 14.8398C56.8028 14.7096 56.7012 14.5612 56.6283 14.3945C56.5606 14.2279 56.5267 14.0534 56.5267 13.8711V6.12109C56.5267 5.93359 56.5606 5.75651 56.6283 5.58984C56.7012 5.42318 56.8028 5.27474 56.933 5.14453C57.058 5.01953 57.2038 4.92318 57.3705 4.85547C57.5424 4.78776 57.722 4.75391 57.9095 4.75391C58.097 4.75391 58.2767 4.78776 58.4486 4.85547C58.6205 4.92318 58.7689 5.01953 58.8939 5.14453C59.0241 5.27474 59.1231 5.42318 59.1908 5.58984C59.2637 5.75651 59.3002 5.93359 59.3002 6.12109V13.8711Z" fill="black"/>
<path d="M65.5424 13.8867C65.5424 14.069 65.5059 14.2461 65.433 14.418C65.3601 14.5846 65.2585 14.7305 65.1283 14.8555C64.9981 14.9805 64.847 15.0768 64.6752 15.1445C64.5033 15.2122 64.3262 15.2461 64.1439 15.2461C63.9616 15.2461 63.7898 15.2122 63.6283 15.1445C63.4668 15.0768 63.3262 14.9805 63.2064 14.8555C63.0866 14.7305 62.9929 14.5846 62.9252 14.418C62.8575 14.2513 62.8236 14.0742 62.8236 13.8867V7.63672H61.2924C61.1049 7.63672 60.9252 7.60286 60.7533 7.53516C60.5866 7.46224 60.4408 7.36328 60.3158 7.23828C60.1908 7.11328 60.0918 6.96484 60.0189 6.79297C59.9512 6.62109 59.9174 6.44141 59.9174 6.25391C59.9174 6.06641 59.9512 5.88932 60.0189 5.72266C60.0918 5.55599 60.1908 5.41016 60.3158 5.28516C60.446 5.15495 60.5944 5.05599 60.7611 4.98828C60.9278 4.91536 61.1049 4.87891 61.2924 4.87891H66.9642C67.1465 4.87891 67.3236 4.91536 67.4955 4.98828C67.6674 5.0612 67.8158 5.16016 67.9408 5.28516C68.071 5.41536 68.17 5.56641 68.2377 5.73828C68.3106 5.91016 68.347 6.08984 68.347 6.27734C68.347 6.46484 68.3106 6.64193 68.2377 6.80859C68.17 6.97005 68.071 7.11328 67.9408 7.23828C67.8158 7.36328 67.6674 7.46224 67.4955 7.53516C67.3288 7.60286 67.1517 7.63672 66.9642 7.63672H65.5424V13.8867Z" fill="black"/>
<path d="M71.5726 8.44922C71.5778 8.56901 71.6091 8.68359 71.6664 8.79297C71.7237 8.89714 71.8018 8.98828 71.9008 9.06641C71.9945 9.13932 72.0987 9.19661 72.2133 9.23828C72.3278 9.27995 72.4424 9.30078 72.557 9.30078C72.807 9.30078 73.0232 9.22005 73.2054 9.05859C73.3877 8.89193 73.4815 8.69141 73.4867 8.45703V6.23828C73.4867 6.05599 73.5232 5.88151 73.5961 5.71484C73.669 5.54297 73.7705 5.39453 73.9008 5.26953C74.0258 5.14453 74.1742 5.04818 74.3461 4.98047C74.5232 4.91276 74.7054 4.87891 74.8929 4.87891C75.0804 4.87891 75.2575 4.91276 75.4242 4.98047C75.5961 5.04818 75.7445 5.14453 75.8695 5.26953C75.9945 5.39453 76.0909 5.54297 76.1586 5.71484C76.2263 5.88151 76.2601 6.05599 76.2601 6.23828V8.23828C76.2601 8.96745 76.0752 9.63151 75.7054 10.2305C75.3357 10.8294 74.8357 11.2852 74.2054 11.5977V13.7148C74.2054 13.9076 74.169 14.0898 74.0961 14.2617C74.0284 14.4336 73.9294 14.5846 73.7992 14.7148C73.6742 14.8398 73.5258 14.9388 73.3539 15.0117C73.182 15.0846 73.0049 15.1211 72.8226 15.1211C72.6351 15.1211 72.4528 15.0846 72.2758 15.0117C72.1039 14.9388 71.9554 14.8398 71.8304 14.7148C71.7002 14.5898 71.5987 14.4414 71.5258 14.2695C71.4528 14.0977 71.4164 13.9128 71.4164 13.7148V11.7773C70.7341 11.5586 70.1508 11.1628 69.6664 10.5898C69.4372 10.319 69.2497 10.0195 69.1039 9.69141C68.958 9.35807 68.8643 9.00911 68.8226 8.64453C68.807 8.57161 68.7992 8.49609 68.7992 8.41797V6.23828C68.7992 6.0612 68.8357 5.88932 68.9086 5.72266C68.9867 5.55078 69.0909 5.39974 69.2211 5.26953C69.3461 5.14453 69.4945 5.04818 69.6664 4.98047C69.8435 4.91276 70.0258 4.87891 70.2133 4.87891C70.5883 4.87891 70.9112 5.00911 71.182 5.26953C71.307 5.39453 71.4034 5.54297 71.4711 5.71484C71.5388 5.88151 71.5726 6.05599 71.5726 6.23828V8.44922Z" fill="black"/>
<circle cx="18" cy="18" r="18" fill="#FFD527"/>
<path fill-rule="evenodd" clip-rule="evenodd" d="M18.5679 29.4545C24.304 29.4545 28.954 24.8027 28.954 19.0643C28.954 13.326 24.304 8.67414 18.5679 8.67414C16.6023 8.67414 14.7643 9.22036 13.1972 10.1693L11.1677 7.25196C10.2506 5.93349 8.18176 6.58275 8.18176 8.18905V19.0643C8.18176 24.8027 12.8318 29.4545 18.5679 29.4545ZM18.4384 14.2105C15.9287 14.263 13.9367 16.3402 13.9892 18.8501C14.0417 21.3599 16.1188 23.3519 18.6285 23.2994C19.4885 23.2814 20.2877 23.0256 20.9647 22.5962L21.2776 23.0264C21.8759 23.8489 23.1771 23.4103 23.1558 22.3933L23.0777 18.6598C23.0252 16.1499 20.9481 14.1579 18.4384 14.2105Z" fill="black"/>
</svg>
