<svg width="302" height="61" viewBox="0 0 302 61" fill="none" xmlns="http://www.w3.org/2000/svg">
<path d="M120.161 51.9971C118.017 51.9971 115.982 51.5956 114.054 50.7927C112.149 49.968 110.46 48.8179 108.987 47.3422C107.515 45.8882 106.367 44.1955 105.544 42.264C104.721 40.3326 104.31 38.2927 104.31 36.1443C104.31 33.9958 104.721 31.9559 105.544 30.0245C106.367 28.0713 107.515 26.3569 108.987 24.8812C110.46 23.4055 112.149 22.2662 114.054 21.4633C115.982 20.6386 118.017 20.2263 120.161 20.2263C122.283 20.2263 124.297 20.6278 126.203 21.4307C128.13 22.2337 129.819 23.3621 131.27 24.8161C132.721 26.2484 133.858 27.9194 134.681 29.8292C135.525 31.7389 135.969 33.7571 136.013 35.8838V47.57C136.013 48.807 135.59 49.8487 134.746 50.695C134.334 51.1074 133.858 51.422 133.316 51.639C132.775 51.8778 132.201 51.9971 131.595 51.9971C130.794 51.9971 130.079 51.8235 129.451 51.4763C128.845 51.1074 128.347 50.5974 127.957 49.9463C125.51 51.3135 122.911 51.9971 120.161 51.9971ZM120.161 43.3057C121.136 43.3057 122.067 43.1213 122.955 42.7523C123.842 42.3834 124.611 41.8734 125.261 41.2224C125.932 40.5496 126.452 39.7792 126.82 38.9112C127.188 38.0431 127.372 37.1208 127.372 36.1443C127.372 35.1677 127.188 34.2454 126.82 33.3773C126.452 32.5093 125.932 31.7389 125.261 31.0661C124.611 30.4151 123.842 29.9051 122.955 29.5362C122.067 29.1673 121.136 28.9828 120.161 28.9828C119.208 28.9828 118.288 29.1673 117.4 29.5362C116.534 29.9051 115.776 30.4151 115.126 31.0661C114.455 31.7389 113.924 32.5093 113.535 33.3773C113.166 34.2454 112.982 35.1677 112.982 36.1443C112.982 37.1208 113.166 38.0431 113.535 38.9112C113.924 39.7792 114.455 40.5496 115.126 41.2224C115.776 41.8734 116.534 42.3834 117.4 42.7523C118.288 43.1213 119.208 43.3057 120.161 43.3057Z" fill="black"/>
<path d="M154.653 51.9971C152.51 51.9971 150.474 51.5957 148.547 50.7927C146.619 49.9681 144.92 48.8179 143.447 47.3422C141.974 45.8882 140.827 44.1955 140.004 42.2641C139.181 40.3326 138.77 38.2927 138.77 36.1443V13.1299C138.77 12.5006 138.878 11.9147 139.094 11.3721C139.333 10.8079 139.647 10.3196 140.036 9.90729C140.426 9.51666 140.892 9.21284 141.433 8.99583C141.974 8.75711 142.538 8.63776 143.122 8.63776C143.707 8.63776 144.27 8.75711 144.811 8.99583C145.353 9.21284 145.818 9.51666 146.208 9.90729C146.598 10.3196 146.89 10.8079 147.085 11.3721C147.302 11.9147 147.41 12.5006 147.41 13.1299V23.1234C148.081 22.3205 149.142 21.6369 150.593 21.0727C152.001 20.5084 153.354 20.2263 154.653 20.2263C156.776 20.2263 158.8 20.6386 160.728 21.4633C162.677 22.2879 164.377 23.4273 165.827 24.8812C167.278 26.3569 168.415 28.0714 169.238 30.0245C170.061 31.9559 170.472 33.9958 170.472 36.1443C170.472 38.2927 170.061 40.3326 169.238 42.2641C168.437 44.1738 167.3 45.8665 165.827 47.3422C164.377 48.7962 162.677 49.9355 160.728 50.7602C158.8 51.5848 156.776 51.9971 154.653 51.9971ZM154.653 43.3057C155.628 43.3057 156.548 43.1213 157.414 42.7523C158.302 42.3834 159.071 41.8734 159.721 41.2224C160.392 40.5497 160.912 39.7793 161.28 38.9112C161.648 38.0431 161.832 37.1208 161.832 36.1443C161.832 35.1677 161.648 34.2454 161.28 33.3773C160.912 32.5093 160.392 31.7389 159.721 31.0661C159.071 30.4151 158.302 29.9051 157.414 29.5362C156.548 29.1673 155.628 28.9828 154.653 28.9828C153.679 28.9828 152.748 29.1673 151.86 29.5362C150.994 29.9051 150.236 30.4151 149.586 31.0661C148.915 31.7389 148.384 32.5093 147.995 33.3773C147.626 34.2454 147.442 35.1677 147.442 36.1443C147.442 37.1208 147.626 38.0431 147.995 38.9112C148.384 39.7793 148.915 40.5497 149.586 41.2224C150.236 41.8734 150.994 42.3834 151.86 42.7523C152.748 43.1213 153.679 43.3057 154.653 43.3057Z" fill="black"/>
<path d="M85.8673 51.9971C83.7235 51.9971 81.6879 51.5957 79.7606 50.7927C77.8333 49.9681 76.1334 48.8179 74.6609 47.3422C73.1883 45.8882 72.0406 44.1955 71.2177 42.2641C70.3948 40.3326 69.9834 38.2927 69.9834 36.1443V13.1299C69.9834 12.5006 70.0917 11.9147 70.3082 11.3721C70.5464 10.8079 70.8604 10.3196 71.2502 9.90729C71.64 9.51666 72.1056 9.21284 72.647 8.99583C73.1883 8.75711 73.7514 8.63776 74.3361 8.63776C74.9207 8.63776 75.4838 8.75711 76.0251 8.99583C76.5665 9.21284 77.0321 9.51666 77.4219 9.90729C77.8117 10.3196 78.104 10.8079 78.2989 11.3721C78.5155 11.9147 78.6237 12.5006 78.6237 13.1299V23.1234C79.2951 22.3205 80.3561 21.6369 81.807 21.0727C83.2146 20.5084 84.568 20.2263 85.8673 20.2263C87.9895 20.2263 90.0143 20.6386 91.9416 21.4633C93.8905 22.2879 95.5904 23.4273 97.0413 24.8812C98.4922 26.3569 99.6291 28.0714 100.452 30.0245C101.275 31.9559 101.686 33.9958 101.686 36.1443C101.686 38.2927 101.275 40.3326 100.452 42.2641C99.6508 44.1738 98.5139 45.8665 97.0413 47.3422C95.5904 48.7962 93.8905 49.9355 91.9416 50.7602C90.0143 51.5848 87.9895 51.9971 85.8673 51.9971ZM85.8673 43.3057C86.8418 43.3057 87.7622 43.1213 88.6284 42.7523C89.5162 42.3834 90.285 41.8734 90.9346 41.2224C91.6059 40.5497 92.1256 39.7793 92.4938 38.9112C92.8619 38.0431 93.046 37.1208 93.046 36.1443C93.046 35.1677 92.8619 34.2454 92.4938 33.3773C92.1256 32.5093 91.6059 31.7389 90.9346 31.0661C90.285 30.4151 89.5162 29.9051 88.6284 29.5362C87.7622 29.1673 86.8418 28.9828 85.8673 28.9828C84.8929 28.9828 83.9617 29.1673 83.0739 29.5362C82.2077 29.9051 81.4497 30.4151 80.8001 31.0661C80.1288 31.7389 79.5982 32.5093 79.2084 33.3773C78.8403 34.2454 78.6562 35.1677 78.6562 36.1443C78.6562 37.1208 78.8403 38.0431 79.2084 38.9112C79.5982 39.7793 80.1288 40.5497 80.8001 41.2224C81.4497 41.8734 82.2077 42.3834 83.0739 42.7523C83.9617 43.1213 84.8929 43.3057 85.8673 43.3057Z" fill="black"/>
<path d="M223.15 51.9971C221.071 51.9971 219.09 51.5956 217.206 50.7927C215.322 49.9897 213.665 48.8721 212.236 47.4398C210.807 46.0075 209.692 44.3582 208.89 42.4919C208.089 40.6256 207.688 38.6508 207.688 36.5674V24.5232C207.688 23.9372 207.797 23.3838 208.013 22.863C208.252 22.3422 208.566 21.8864 208.955 21.4958C209.345 21.1052 209.8 20.8014 210.32 20.5844C210.861 20.3456 211.413 20.2263 211.976 20.2263C212.561 20.2263 213.113 20.3456 213.633 20.5844C214.174 20.8014 214.651 21.1052 215.062 21.4958C215.452 21.8864 215.755 22.3422 215.972 22.863C216.21 23.3838 216.329 23.9372 216.329 24.5232V36.6651C216.329 37.62 216.502 38.5097 216.849 39.3344C217.195 40.1373 217.682 40.8318 218.31 41.4177C218.938 42.0253 219.664 42.5028 220.487 42.85C221.309 43.1755 222.197 43.3383 223.15 43.3383C224.081 43.3383 224.926 43.1755 225.684 42.85C226.442 42.5028 227.091 42.0145 227.633 41.3851C228.152 40.7775 228.553 40.0614 228.835 39.2367C229.116 38.4121 229.257 37.5223 229.257 36.5674V24.5232C229.257 23.9589 229.376 23.4164 229.614 22.8956C229.852 22.353 230.177 21.8864 230.589 21.4958C230.978 21.1052 231.444 20.8014 231.985 20.5844C232.527 20.3456 233.09 20.2263 233.674 20.2263C234.259 20.2263 234.811 20.3456 235.331 20.5844C235.851 20.8014 236.306 21.1052 236.695 21.4958C237.085 21.8864 237.377 22.3422 237.572 22.863C237.789 23.3838 237.897 23.9372 237.897 24.5232V36.5674C237.897 38.6725 237.529 40.6581 236.793 42.5245C236.078 44.3908 235.05 46.0292 233.707 47.4398C232.364 48.8721 230.784 49.9897 228.965 50.7927C227.167 51.5956 225.229 51.9971 223.15 51.9971Z" fill="black"/>
<path d="M189.112 51.9971C186.969 51.9971 184.933 51.5957 183.006 50.7927C181.078 49.9681 179.379 48.8179 177.906 47.3422C176.433 45.8882 175.286 44.1955 174.463 42.2641C173.64 40.3326 173.229 38.2927 173.229 36.1443V13.1299C173.229 12.5006 173.337 11.9147 173.553 11.3721C173.792 10.8079 174.106 10.3196 174.495 9.90729C174.885 9.51666 175.351 9.21284 175.892 8.99583C176.433 8.75711 176.996 8.63776 177.581 8.63776C178.166 8.63776 178.729 8.75711 179.27 8.99583C179.812 9.21284 180.277 9.51666 180.667 9.90729C181.057 10.3196 181.349 10.8079 181.544 11.3721C181.761 11.9147 181.869 12.5006 181.869 13.1299V23.1234C182.54 22.3205 183.601 21.6369 185.052 21.0727C186.46 20.5084 187.813 20.2263 189.112 20.2263C191.235 20.2263 193.259 20.6386 195.187 21.4633C197.136 22.2879 198.836 23.4273 200.286 24.8812C201.737 26.3569 202.874 28.0714 203.697 30.0245C204.52 31.9559 204.931 33.9958 204.931 36.1443C204.931 38.2927 204.52 40.3326 203.697 42.2641C202.896 44.1738 201.759 45.8665 200.286 47.3422C198.836 48.7962 197.136 49.9355 195.187 50.7602C193.259 51.5848 191.235 51.9971 189.112 51.9971ZM189.112 43.3057C190.087 43.3057 191.007 43.1213 191.873 42.7523C192.761 42.3834 193.53 41.8734 194.18 41.2224C194.851 40.5497 195.371 39.7793 195.739 38.9112C196.107 38.0431 196.291 37.1208 196.291 36.1443C196.291 35.1677 196.107 34.2454 195.739 33.3773C195.371 32.5093 194.851 31.7389 194.18 31.0661C193.53 30.4151 192.761 29.9051 191.873 29.5362C191.007 29.1673 190.087 28.9828 189.112 28.9828C188.138 28.9828 187.207 29.1673 186.319 29.5362C185.453 29.9051 184.695 30.4151 184.045 31.0661C183.374 31.7389 182.843 32.5093 182.454 33.3773C182.085 34.2454 181.901 35.1677 181.901 36.1443C181.901 37.1208 182.085 38.0431 182.454 38.9112C182.843 39.7793 183.374 40.5497 184.045 41.2224C184.695 41.8734 185.453 42.3834 186.319 42.7523C187.207 43.1213 188.138 43.3057 189.112 43.3057Z" fill="black"/>
<rect x="243.079" y="8.5401" width="58.4082" height="24.5333" rx="12.2667" fill="#CAFF04"/>
<path d="M258.563 28.2631C257.865 28.2631 257.204 28.1384 256.581 27.8891C255.965 27.6329 255.426 27.2728 254.962 26.8089C254.485 26.3311 254.114 25.7667 253.851 25.1158C253.588 24.4649 253.457 23.7551 253.457 22.9864V19.6834C253.457 18.9147 253.588 18.205 253.851 17.554C254.114 16.9031 254.485 16.3388 254.962 15.861C255.426 15.397 255.965 15.0404 256.581 14.7911C257.204 14.5349 257.865 14.4068 258.563 14.4068C259.574 14.4068 260.473 14.6457 261.262 15.1235C261.857 15.4836 262.4 16.0168 262.891 16.7231C263.085 17.007 263.182 17.3117 263.182 17.6371C263.182 18.0041 263.044 18.3192 262.767 18.5823C262.483 18.8524 262.141 18.9874 261.739 18.9874C261.303 18.9874 260.985 18.8247 260.785 18.4993C260.618 18.243 260.48 18.0457 260.369 17.9072C260.266 17.7687 260.141 17.651 259.996 17.554C259.65 17.3186 259.172 17.2009 258.563 17.2009C257.878 17.2009 257.339 17.3948 256.944 17.7825C256.474 18.2327 256.239 18.8593 256.239 19.6626V23.0072C256.239 23.8105 256.474 24.4372 256.944 24.8873C257.339 25.2751 257.878 25.4689 258.563 25.4689C259.165 25.4689 259.646 25.3512 260.006 25.1158C260.151 25.0188 260.279 24.9011 260.39 24.7626C260.501 24.6172 260.632 24.4199 260.785 24.1706C260.888 24.0113 261.023 23.8936 261.189 23.8174C261.362 23.7343 261.549 23.6928 261.75 23.6928C262.151 23.6928 262.494 23.8243 262.777 24.0875C263.047 24.3575 263.182 24.6726 263.182 25.0327C263.182 25.3235 263.092 25.6144 262.912 25.9052C262.739 26.1891 262.497 26.4938 262.186 26.8193C261.598 27.4217 260.895 27.8372 260.079 28.0657C259.643 28.1973 259.138 28.2631 258.563 28.2631Z" fill="black"/>
<path d="M266.804 28.2631C266.617 28.2631 266.438 28.2284 266.265 28.1592C266.098 28.0899 265.953 27.993 265.829 27.8683C265.704 27.7437 265.604 27.5983 265.528 27.4321C265.458 27.2659 265.424 27.0893 265.424 26.9024V15.7675C265.424 15.3866 265.559 15.0612 265.829 14.7911C265.953 14.6734 266.098 14.5799 266.265 14.5106C266.438 14.4414 266.617 14.4068 266.804 14.4068C267.185 14.4068 267.51 14.5349 267.78 14.7911C268.05 15.0612 268.185 15.3866 268.185 15.7675V26.9024C268.185 27.0893 268.147 27.2659 268.07 27.4321C268.001 27.5983 267.904 27.7437 267.78 27.8683C267.517 28.1315 267.192 28.2631 266.804 28.2631Z" fill="black"/>
<path d="M275.138 28.2734C274.758 28.2734 274.443 28.1419 274.194 27.8787C273.945 27.6294 273.82 27.3074 273.82 26.9127V17.1801H271.184C270.804 17.1801 270.478 17.0451 270.209 16.775C269.946 16.5119 269.814 16.1864 269.814 15.7986C269.814 15.6117 269.849 15.4351 269.918 15.2689C269.987 15.1027 270.084 14.9573 270.209 14.8326C270.478 14.5626 270.804 14.4275 271.184 14.4275H279.114C279.3 14.4275 279.477 14.4656 279.643 14.5418C279.816 14.611 279.965 14.708 280.089 14.8326C280.214 14.9642 280.311 15.1165 280.38 15.2897C280.456 15.4559 280.494 15.6324 280.494 15.8194C280.494 16.0064 280.456 16.1829 280.38 16.3491C280.311 16.5153 280.214 16.6608 280.089 16.7854C279.965 16.91 279.816 17.007 279.643 17.0762C279.477 17.1455 279.3 17.1801 279.114 17.1801H276.529V26.9127C276.529 27.0997 276.491 27.2763 276.415 27.4425C276.346 27.6087 276.249 27.7541 276.124 27.8787C275.993 28.0034 275.841 28.1003 275.668 28.1696C275.502 28.2388 275.325 28.2734 275.138 28.2734Z" fill="black"/>
<path d="M286.099 28.128C285.912 28.128 285.732 28.0934 285.559 28.0241C285.386 27.948 285.237 27.8476 285.113 27.7229C284.836 27.4598 284.697 27.1274 284.697 26.7258V23.2461C283.95 23.0038 283.296 22.6125 282.736 22.0724C282.182 21.5253 281.774 20.8779 281.511 20.13C281.38 19.7561 281.297 19.2887 281.262 18.7278V15.7675C281.262 15.5874 281.3 15.4143 281.376 15.2481C281.452 15.075 281.556 14.9261 281.688 14.8015C281.812 14.6768 281.957 14.5799 282.123 14.5106C282.296 14.4414 282.476 14.4068 282.663 14.4068C283.051 14.4068 283.376 14.5383 283.639 14.8015C283.763 14.9261 283.857 15.0715 283.919 15.2377C283.988 15.4039 284.023 15.5805 284.023 15.7675V18.7797C284.023 19.2506 284.185 19.6764 284.511 20.0573C284.774 20.3689 285.092 20.587 285.465 20.7117C285.638 20.7671 285.836 20.8017 286.057 20.8156H286.15C286.42 20.8156 286.68 20.7671 286.929 20.6701C287.185 20.5663 287.406 20.4209 287.593 20.2339C287.787 20.0469 287.936 19.8288 288.039 19.5795C288.15 19.3302 288.209 19.0671 288.216 18.7901V15.7675C288.216 15.5805 288.25 15.4039 288.32 15.2377C288.396 15.0715 288.5 14.9261 288.631 14.8015C288.756 14.6768 288.901 14.5799 289.067 14.5106C289.24 14.4414 289.423 14.4068 289.617 14.4068C290.005 14.4068 290.33 14.5383 290.593 14.8015C290.717 14.9261 290.811 15.0715 290.873 15.2377C290.942 15.4039 290.977 15.5805 290.977 15.7675V18.5616C290.977 19.1294 290.89 19.6695 290.717 20.182C290.551 20.6875 290.312 21.1514 290.001 21.5738C289.69 21.9893 289.319 22.3459 288.89 22.6437C288.462 22.9414 287.991 23.163 287.479 23.3084V26.7258C287.479 27.1205 287.344 27.4529 287.074 27.7229C286.95 27.8476 286.801 27.948 286.628 28.0241C286.462 28.0934 286.285 28.128 286.099 28.128Z" fill="black"/>
<ellipse cx="29.9359" cy="30.2734" rx="29.9359" ry="30" fill="#FFD527"/>
<path d="M35.2818 49.3643C33.3956 49.3643 31.6047 49.0108 29.909 48.3037C28.2133 47.5776 26.7176 46.5647 25.422 45.2652C24.1264 43.9849 23.1167 42.4943 22.3926 40.7935C21.6686 39.0927 21.3066 37.2964 21.3066 35.4045V15.1383C21.3066 14.5841 21.4019 14.0681 21.5924 13.5904C21.802 13.0935 22.0783 12.6636 22.4212 12.3005C22.7642 11.9565 23.1738 11.6889 23.6501 11.4978C24.1264 11.2876 24.6218 11.1825 25.1362 11.1825C25.6507 11.1825 26.146 11.2876 26.6224 11.4978C27.0987 11.6889 27.5083 11.9565 27.8513 12.3005C28.1942 12.6636 28.4514 13.0935 28.6229 13.5904C28.8134 14.0681 28.9087 14.5841 28.9087 15.1383V23.9385C29.4993 23.2314 30.4329 22.6294 31.7094 22.1326C32.9479 21.6357 34.1387 21.3873 35.2818 21.3873C37.149 21.3873 38.9304 21.7504 40.6261 22.4765C42.3409 23.2027 43.8365 24.206 45.1131 25.4864C46.3896 26.7859 47.3899 28.2955 48.1139 30.0154C48.8379 31.7162 49.1999 33.5126 49.1999 35.4045C49.1999 37.2964 48.8379 39.0927 48.1139 40.7935C47.4089 42.4752 46.4086 43.9658 45.1131 45.2652C43.8365 46.5456 42.3409 47.5489 40.6261 48.2751C38.9304 49.0013 37.149 49.3643 35.2818 49.3643ZM35.2818 41.7108C36.1392 41.7108 36.949 41.5483 37.7111 41.2235C38.4922 40.8986 39.1686 40.4495 39.7402 39.8762C40.3308 39.2838 40.7881 38.6054 41.112 37.841C41.4359 37.0766 41.5978 36.2644 41.5978 35.4045C41.5978 34.5445 41.4359 33.7323 41.112 32.9679C40.7881 32.2035 40.3308 31.5251 39.7402 30.9327C39.1686 30.3594 38.4922 29.9103 37.7111 29.5855C36.949 29.2606 36.1392 29.0982 35.2818 29.0982C34.4245 29.0982 33.6052 29.2606 32.824 29.5855C32.0619 29.9103 31.3951 30.3594 30.8235 30.9327C30.2329 31.5251 29.7661 32.2035 29.4231 32.9679C29.0992 33.7323 28.9373 34.5445 28.9373 35.4045C28.9373 36.2644 29.0992 37.0766 29.4231 37.841C29.7661 38.6054 30.2329 39.2838 30.8235 39.8762C31.3951 40.4495 32.0619 40.8986 32.824 41.2235C33.6052 41.5483 34.4245 41.7108 35.2818 41.7108Z" fill="black"/>
<path fill-rule="evenodd" clip-rule="evenodd" d="M19.8907 12.0637C19.6065 11.8312 19.2839 11.6426 18.9231 11.4978C18.4468 11.2876 17.9515 11.1825 17.437 11.1825C16.9226 11.1825 16.4272 11.2876 15.9509 11.4978C15.4746 11.6889 15.065 11.9565 14.722 12.3005C14.3791 12.6636 14.1028 13.0935 13.8932 13.5904C13.7027 14.0681 13.6074 14.5841 13.6074 15.1383V35.4045C13.6074 37.2964 13.9694 39.0927 14.6934 40.7935C15.4174 42.4943 16.4272 43.9849 17.7228 45.2652C19.0184 46.5647 20.514 47.5776 22.2097 48.3037C23.7672 48.9532 25.405 49.3043 27.1231 49.3573C25.9402 48.6577 24.855 47.8142 23.8717 46.8288C22.3721 45.3454 21.2029 43.6165 20.3692 41.6581C19.5261 39.6774 19.1068 37.5862 19.1068 35.4041V15.1379C19.1068 14.3253 19.2476 13.5293 19.5497 12.7719L19.5577 12.7517L19.5662 12.7316C19.6629 12.5023 19.771 12.2794 19.8907 12.0637ZM31.8622 22.072C31.8113 22.0917 31.7604 22.1117 31.7094 22.1322C31.4998 22.2137 31.2995 22.2981 31.1084 22.3854C30.1356 22.8295 29.4023 23.3471 28.9086 23.9381V21.4497C28.4715 21.4081 28.0295 21.3873 27.5826 21.3873C26.4395 21.3873 25.2487 21.6357 24.0102 22.1326C22.8016 22.603 21.9003 23.1677 21.3066 23.8266V34.4557C21.3825 33.9412 21.5217 33.4452 21.7239 32.9679C22.0668 32.2035 22.5336 31.5251 23.1243 30.9327C23.6959 30.3594 24.3627 29.9103 25.1248 29.5855C25.906 29.2606 26.7252 29.0982 27.5826 29.0982C28.44 29.0982 29.2497 29.2606 30.0118 29.5855C30.5309 29.8014 31.0038 30.0721 31.4303 30.3977C31.8528 30.0719 32.3173 29.801 32.824 29.5851C33.6051 29.2602 34.4244 29.0978 35.2818 29.0978C36.1392 29.0978 36.9489 29.2602 37.711 29.5851C38.4922 29.9099 39.1685 30.359 39.7401 30.9323C40.3308 31.5247 40.788 32.2031 41.1119 32.9675C41.2417 33.2737 41.3454 33.5876 41.4232 33.9091C41.2815 32.5599 40.9453 31.262 40.4146 30.0154C39.6906 28.2955 38.6904 26.7859 37.4138 25.4864C36.1373 24.206 34.6417 23.2027 32.9269 22.4765C32.5757 22.3261 32.2208 22.1913 31.8622 22.072ZM31.3951 48.8255C30.8918 48.6807 30.3964 48.5066 29.9089 48.3033C28.2132 47.5772 26.7176 46.5643 25.422 45.2648C24.1264 43.9845 23.1166 42.4939 22.3926 40.7931C21.832 39.4762 21.4885 38.102 21.3619 36.6706C21.4429 37.0724 21.5635 37.4626 21.7239 37.841C22.0668 38.6054 22.5336 39.2838 23.1243 39.8762C23.6959 40.4495 24.3627 40.8986 25.1248 41.2235C25.906 41.5483 26.7252 41.7108 27.5826 41.7108C28.44 41.7108 29.2497 41.5483 30.0118 41.2235C30.5312 41.0075 31.0042 40.7366 31.4309 40.4109C31.8532 40.7365 32.3175 41.0072 32.824 41.2231C33.6051 41.5479 34.4244 41.7104 35.2818 41.7104C36.1392 41.7104 36.9489 41.5479 37.711 41.2231C38.4922 40.8982 39.1685 40.4491 39.7401 39.8758C40.3308 39.2834 40.788 38.605 41.1119 37.8406C41.2418 37.5342 41.3456 37.2201 41.4233 36.8984C41.2817 38.2481 40.9455 39.5465 40.4146 40.7935C39.7097 42.4752 38.7094 43.9658 37.4138 45.2652C36.1373 46.5456 34.6417 47.5489 32.9269 48.2751C32.4238 48.4905 31.9132 48.674 31.3951 48.8255Z" fill="black"/>
</svg>
