<svg width="82" height="34" viewBox="0 0 82 34" fill="none" xmlns="http://www.w3.org/2000/svg">
<rect x="36.7378" width="45.2621" height="18.8889" rx="9.44444" fill="#CDF202"/>
<path d="M45.2129 8.31543C45.2129 7.69043 45.3145 7.12012 45.5176 6.60449C45.7259 6.08887 46.0202 5.64876 46.4004 5.28418C46.7598 4.94043 47.1764 4.68001 47.6504 4.50293C48.1243 4.32064 48.627 4.22949 49.1582 4.22949C49.903 4.22949 50.5228 4.36751 51.0176 4.64355C51.5124 4.9196 51.9733 5.32845 52.4004 5.87012C52.5983 6.16178 52.6973 6.46908 52.6973 6.79199C52.6973 6.97428 52.6608 7.14876 52.5879 7.31543C52.515 7.47689 52.4134 7.62012 52.2832 7.74512C52.153 7.87012 51.9967 7.96908 51.8145 8.04199C51.6374 8.11491 51.4499 8.15137 51.252 8.15137C51.0436 8.15137 50.8587 8.1097 50.6973 8.02637C50.5514 7.95866 50.4264 7.8597 50.3223 7.72949C50.2233 7.59928 50.1556 7.4873 50.1191 7.39355C50.0775 7.31543 50.0202 7.24772 49.9473 7.19043C49.791 7.08626 49.528 7.03418 49.1582 7.03418C48.9707 7.03418 48.8223 7.0446 48.7129 7.06543C48.6035 7.08626 48.502 7.12793 48.4082 7.19043C48.1426 7.38314 48.0098 7.75033 48.0098 8.29199V10.5889C48.0098 11.141 48.1426 11.5055 48.4082 11.6826C48.502 11.7451 48.6035 11.7868 48.7129 11.8076C48.8223 11.8285 48.9707 11.8389 49.1582 11.8389C49.3509 11.8389 49.5176 11.8258 49.6582 11.7998C49.7728 11.7738 49.8639 11.7347 49.9316 11.6826C50.0046 11.6305 50.0671 11.5628 50.1191 11.4795C50.1973 11.3493 50.2806 11.2269 50.3691 11.1123C50.4577 11.0029 50.5801 10.9144 50.7363 10.8467C50.8926 10.7738 51.0618 10.7373 51.2441 10.7373C51.4473 10.7373 51.6374 10.7738 51.8145 10.8467C51.9915 10.9144 52.1452 11.0107 52.2754 11.1357C52.4056 11.266 52.5072 11.4144 52.5801 11.5811C52.6582 11.7477 52.6973 11.9196 52.6973 12.0967C52.6973 12.43 52.5983 12.7347 52.4004 13.0107C51.9785 13.5524 51.5202 13.9613 51.0254 14.2373C50.5306 14.5081 49.9082 14.6436 49.1582 14.6436C48.627 14.6436 48.1243 14.5524 47.6504 14.3701C47.1764 14.1878 46.7598 13.9248 46.4004 13.5811C46.0202 13.2217 45.7259 12.7868 45.5176 12.2764C45.3145 11.7607 45.2129 11.1904 45.2129 10.5654V8.31543Z" fill="black"/>
<path d="M56.5645 13.3154C56.5645 13.4977 56.528 13.6748 56.4551 13.8467C56.3822 14.0133 56.2832 14.1592 56.1582 14.2842C56.0332 14.4092 55.8848 14.5055 55.7129 14.5732C55.541 14.6462 55.3613 14.6826 55.1738 14.6826C54.9863 14.6826 54.8066 14.6462 54.6348 14.5732C54.4681 14.5055 54.3223 14.4092 54.1973 14.2842C54.0671 14.154 53.9655 14.0055 53.8926 13.8389C53.8249 13.6722 53.791 13.4977 53.791 13.3154V5.56543C53.791 5.37793 53.8249 5.20085 53.8926 5.03418C53.9655 4.86751 54.0671 4.71908 54.1973 4.58887C54.3223 4.46387 54.4681 4.36751 54.6348 4.2998C54.8066 4.2321 54.9863 4.19824 55.1738 4.19824C55.3613 4.19824 55.541 4.2321 55.7129 4.2998C55.8848 4.36751 56.0332 4.46387 56.1582 4.58887C56.2884 4.71908 56.3874 4.86751 56.4551 5.03418C56.528 5.20085 56.5645 5.37793 56.5645 5.56543V13.3154Z" fill="black"/>
<path d="M62.8066 13.3311C62.8066 13.5133 62.7702 13.6904 62.6973 13.8623C62.6243 14.029 62.5228 14.1748 62.3926 14.2998C62.2624 14.4248 62.1113 14.5212 61.9395 14.5889C61.7676 14.6566 61.5905 14.6904 61.4082 14.6904C61.2259 14.6904 61.054 14.6566 60.8926 14.5889C60.7311 14.5212 60.5905 14.4248 60.4707 14.2998C60.3509 14.1748 60.2572 14.029 60.1895 13.8623C60.1217 13.6956 60.0879 13.5186 60.0879 13.3311V7.08105H58.5566C58.3691 7.08105 58.1895 7.0472 58.0176 6.97949C57.8509 6.90658 57.7051 6.80762 57.5801 6.68262C57.4551 6.55762 57.3561 6.40918 57.2832 6.2373C57.2155 6.06543 57.1816 5.88574 57.1816 5.69824C57.1816 5.51074 57.2155 5.33366 57.2832 5.16699C57.3561 5.00033 57.4551 4.85449 57.5801 4.72949C57.7103 4.59928 57.8587 4.50033 58.0254 4.43262C58.1921 4.3597 58.3691 4.32324 58.5566 4.32324H64.2285C64.4108 4.32324 64.5879 4.3597 64.7598 4.43262C64.9316 4.50553 65.0801 4.60449 65.2051 4.72949C65.3353 4.8597 65.4342 5.01074 65.502 5.18262C65.5749 5.35449 65.6113 5.53418 65.6113 5.72168C65.6113 5.90918 65.5749 6.08626 65.502 6.25293C65.4342 6.41439 65.3353 6.55762 65.2051 6.68262C65.0801 6.80762 64.9316 6.90658 64.7598 6.97949C64.5931 7.0472 64.416 7.08105 64.2285 7.08105H62.8066V13.3311Z" fill="black"/>
<path d="M68.8369 7.89355C68.8421 8.01335 68.8734 8.12793 68.9307 8.2373C68.988 8.34147 69.0661 8.43262 69.165 8.51074C69.2588 8.58366 69.363 8.64095 69.4775 8.68262C69.5921 8.72428 69.7067 8.74512 69.8213 8.74512C70.0713 8.74512 70.2874 8.66439 70.4697 8.50293C70.652 8.33626 70.7458 8.13574 70.751 7.90137V5.68262C70.751 5.50033 70.7874 5.32585 70.8604 5.15918C70.9333 4.9873 71.0348 4.83887 71.165 4.71387C71.29 4.58887 71.4385 4.49251 71.6104 4.4248C71.7874 4.3571 71.9697 4.32324 72.1572 4.32324C72.3447 4.32324 72.5218 4.3571 72.6885 4.4248C72.8604 4.49251 73.0088 4.58887 73.1338 4.71387C73.2588 4.83887 73.3551 4.9873 73.4229 5.15918C73.4906 5.32585 73.5244 5.50033 73.5244 5.68262V7.68262C73.5244 8.41178 73.3395 9.07585 72.9697 9.6748C72.5999 10.2738 72.0999 10.7295 71.4697 11.042V13.1592C71.4697 13.3519 71.4333 13.5342 71.3604 13.7061C71.2926 13.8779 71.1937 14.029 71.0635 14.1592C70.9385 14.2842 70.79 14.3831 70.6182 14.4561C70.4463 14.529 70.2692 14.5654 70.0869 14.5654C69.8994 14.5654 69.7171 14.529 69.54 14.4561C69.3682 14.3831 69.2197 14.2842 69.0947 14.1592C68.9645 14.0342 68.863 13.8857 68.79 13.7139C68.7171 13.542 68.6807 13.3571 68.6807 13.1592V11.2217C67.9984 11.0029 67.415 10.6071 66.9307 10.0342C66.7015 9.76335 66.514 9.46387 66.3682 9.13574C66.2223 8.80241 66.1286 8.45345 66.0869 8.08887C66.0713 8.01595 66.0635 7.94043 66.0635 7.8623V5.68262C66.0635 5.50553 66.0999 5.33366 66.1729 5.16699C66.251 4.99512 66.3551 4.84408 66.4854 4.71387C66.6104 4.58887 66.7588 4.49251 66.9307 4.4248C67.1077 4.3571 67.29 4.32324 67.4775 4.32324C67.8525 4.32324 68.1755 4.45345 68.4463 4.71387C68.5713 4.83887 68.6676 4.9873 68.7354 5.15918C68.8031 5.32585 68.8369 5.50033 68.8369 5.68262V7.89355Z" fill="black"/>
<circle cx="17.7148" cy="17" r="17" fill="#FFD527"/>
<path fill-rule="evenodd" clip-rule="evenodd" d="M18.251 27.818C23.6684 27.818 28.0601 23.4246 28.0601 18.0051C28.0601 12.5855 23.6684 8.1921 18.251 8.1921C16.3946 8.1921 14.6587 8.70798 13.1787 9.60424L11.262 6.84894C10.3958 5.60372 8.44189 6.2169 8.44189 7.73397V18.0051C8.44189 23.4246 12.8336 27.818 18.251 27.818ZM18.1287 13.4209C15.7584 13.4705 13.8771 15.4323 13.9267 17.8027C13.9763 20.1731 15.938 22.0544 18.3083 22.0048C19.1205 21.9878 19.8753 21.7463 20.5147 21.3407L20.8102 21.747C21.3753 22.5238 22.6041 22.1096 22.584 21.1491L22.5103 17.623C22.4607 15.2526 20.499 13.3712 18.1287 13.4209Z" fill="black"/>
</svg>
