<svg width="173" height="35" viewBox="0 0 173 35" fill="none" xmlns="http://www.w3.org/2000/svg">
<path d="M69.1658 29.8101C67.9484 29.8101 66.7924 29.5826 65.6979 29.1276C64.6157 28.6603 63.6565 28.0085 62.8203 27.1723C61.9841 26.3484 61.3323 25.3892 60.865 24.2947C60.3977 23.2002 60.1641 22.0443 60.1641 20.8268C60.1641 19.6094 60.3977 18.4534 60.865 17.3589C61.3323 16.2522 61.9841 15.2807 62.8203 14.4444C63.6565 13.6082 64.6157 12.9626 65.6979 12.5076C66.7924 12.0403 67.9484 11.8066 69.1658 11.8066C70.3709 11.8066 71.5146 12.0341 72.5968 12.4891C73.6913 12.9442 74.6505 13.5836 75.4744 14.4076C76.2983 15.2192 76.9439 16.1661 77.4112 17.2483C77.8908 18.3304 78.1429 19.4741 78.1675 20.6793V27.3014C78.1675 28.0024 77.9277 28.5927 77.4481 29.0723C77.2145 29.3059 76.9439 29.4842 76.6365 29.6072C76.3291 29.7425 76.0032 29.8101 75.6589 29.8101C75.2038 29.8101 74.798 29.7117 74.4414 29.515C74.0971 29.3059 73.8142 29.0169 73.5929 28.648C72.2033 29.4227 70.7276 29.8101 69.1658 29.8101ZM69.1658 24.885C69.7192 24.885 70.248 24.7805 70.7522 24.5714C71.2564 24.3623 71.6929 24.0734 72.0618 23.7044C72.4431 23.3232 72.7382 22.8866 72.9473 22.3947C73.1563 21.9029 73.2609 21.3802 73.2609 20.8268C73.2609 20.2734 73.1563 19.7508 72.9473 19.2589C72.7382 18.767 72.4431 18.3304 72.0618 17.9492C71.6929 17.5803 71.2564 17.2913 70.7522 17.0822C70.248 16.8732 69.7192 16.7687 69.1658 16.7687C68.6247 16.7687 68.1021 16.8732 67.5979 17.0822C67.106 17.2913 66.6756 17.5803 66.3066 17.9492C65.9254 18.3304 65.6241 18.767 65.4028 19.2589C65.1937 19.7508 65.0892 20.2734 65.0892 20.8268C65.0892 21.3802 65.1937 21.9029 65.4028 22.3947C65.6241 22.8866 65.9254 23.3232 66.3066 23.7044C66.6756 24.0734 67.106 24.3623 67.5979 24.5714C68.1021 24.7805 68.6247 24.885 69.1658 24.885Z" fill="black"/>
<path d="M88.7536 29.8101C87.5361 29.8101 86.3802 29.5826 85.2857 29.1276C84.1912 28.6602 83.2259 28.0085 82.3896 27.1723C81.5534 26.3483 80.9017 25.3891 80.4344 24.2947C79.9671 23.2002 79.7334 22.0442 79.7334 20.8268V7.78532C79.7334 7.42869 79.7949 7.09666 79.9179 6.78923C80.0531 6.46949 80.2314 6.1928 80.4528 5.95915C80.6742 5.73779 80.9385 5.56563 81.246 5.44265C81.5534 5.30738 81.8732 5.23975 82.2052 5.23975C82.5372 5.23975 82.857 5.30738 83.1644 5.44265C83.4718 5.56563 83.7362 5.73779 83.9576 5.95915C84.1789 6.1928 84.3449 6.46949 84.4556 6.78923C84.5786 7.09666 84.6401 7.42869 84.6401 7.78532V13.4483C85.0213 12.9933 85.6239 12.6059 86.4478 12.2862C87.2471 11.9665 88.0157 11.8066 88.7536 11.8066C89.9587 11.8066 91.1085 12.0402 92.203 12.5075C93.3098 12.9748 94.2751 13.6205 95.0991 14.4444C95.923 15.2806 96.5686 16.2521 97.0359 17.3589C97.5032 18.4534 97.7369 19.6093 97.7369 20.8268C97.7369 22.0442 97.5032 23.2002 97.0359 24.2947C96.5809 25.3768 95.9353 26.336 95.0991 27.1723C94.2751 27.9962 93.3098 28.6418 92.203 29.1091C91.1085 29.5764 89.9587 29.8101 88.7536 29.8101ZM88.7536 24.8849C89.307 24.8849 89.8296 24.7804 90.3215 24.5713C90.8257 24.3623 91.2623 24.0733 91.6312 23.7044C92.0124 23.3232 92.3075 22.8866 92.5166 22.3947C92.7257 21.9028 92.8302 21.3802 92.8302 20.8268C92.8302 20.2734 92.7257 19.7507 92.5166 19.2588C92.3075 18.7669 92.0124 18.3304 91.6312 17.9492C91.2623 17.5802 90.8257 17.2913 90.3215 17.0822C89.8296 16.8731 89.307 16.7686 88.7536 16.7686C88.2002 16.7686 87.6714 16.8731 87.1672 17.0822C86.6753 17.2913 86.2449 17.5802 85.876 17.9492C85.4948 18.3304 85.1935 18.7669 84.9721 19.2588C84.7631 19.7507 84.6585 20.2734 84.6585 20.8268C84.6585 21.3802 84.7631 21.9028 84.9721 22.3947C85.1935 22.8866 85.4948 23.3232 85.876 23.7044C86.2449 24.0733 86.6753 24.3623 87.1672 24.5713C87.6714 24.7804 88.2002 24.8849 88.7536 24.8849Z" fill="black"/>
<path d="M49.6911 29.8101C48.4736 29.8101 47.3177 29.5826 46.2232 29.1276C45.1287 28.6602 44.1634 28.0085 43.3271 27.1723C42.4909 26.3483 41.8392 25.3891 41.3719 24.2947C40.9046 23.2002 40.6709 22.0442 40.6709 20.8268V7.78532C40.6709 7.42869 40.7324 7.09666 40.8554 6.78923C40.9906 6.46949 41.1689 6.1928 41.3903 5.95915C41.6117 5.73779 41.876 5.56563 42.1835 5.44265C42.4909 5.30738 42.8107 5.23975 43.1427 5.23975C43.4747 5.23975 43.7945 5.30738 44.1019 5.44265C44.4093 5.56563 44.6737 5.73779 44.8951 5.95915C45.1164 6.1928 45.2824 6.46949 45.3931 6.78923C45.5161 7.09666 45.5776 7.42869 45.5776 7.78532V13.4483C45.9588 12.9933 46.5614 12.6059 47.3853 12.2862C48.1846 11.9665 48.9532 11.8066 49.6911 11.8066C50.8962 11.8066 52.046 12.0402 53.1405 12.5075C54.2473 12.9748 55.2126 13.6205 56.0366 14.4444C56.8605 15.2806 57.5061 16.2521 57.9734 17.3589C58.4407 18.4534 58.6744 19.6093 58.6744 20.8268C58.6744 22.0442 58.4407 23.2002 57.9734 24.2947C57.5184 25.3768 56.8728 26.336 56.0366 27.1723C55.2126 27.9962 54.2473 28.6418 53.1405 29.1091C52.046 29.5764 50.8962 29.8101 49.6911 29.8101ZM49.6911 24.8849C50.2445 24.8849 50.7671 24.7804 51.259 24.5713C51.7632 24.3623 52.1998 24.0733 52.5687 23.7044C52.9499 23.3232 53.245 22.8866 53.4541 22.3947C53.6632 21.9028 53.7677 21.3802 53.7677 20.8268C53.7677 20.2734 53.6632 19.7507 53.4541 19.2588C53.245 18.7669 52.9499 18.3304 52.5687 17.9492C52.1998 17.5802 51.7632 17.2913 51.259 17.0822C50.7671 16.8731 50.2445 16.7686 49.6911 16.7686C49.1377 16.7686 48.6089 16.8731 48.1047 17.0822C47.6128 17.2913 47.1824 17.5802 46.8135 17.9492C46.4323 18.3304 46.131 18.7669 45.9096 19.2588C45.7006 19.7507 45.596 20.2734 45.596 20.8268C45.596 21.3802 45.7006 21.9028 45.9096 22.3947C46.131 22.8866 46.4323 23.3232 46.8135 23.7044C47.1824 24.0733 47.6128 24.3623 48.1047 24.5713C48.6089 24.7804 49.1377 24.8849 49.6911 24.8849Z" fill="black"/>
<path d="M127.651 29.8101C126.471 29.8101 125.346 29.5826 124.276 29.1276C123.206 28.6726 122.265 28.0393 121.454 27.2276C120.642 26.416 120.009 25.4814 119.554 24.4238C119.099 23.3662 118.871 22.2472 118.871 21.0666V14.2415C118.871 13.9095 118.933 13.5959 119.056 13.3008C119.191 13.0056 119.369 12.7474 119.59 12.526C119.812 12.3047 120.07 12.1325 120.365 12.0095C120.673 11.8743 120.986 11.8066 121.306 11.8066C121.638 11.8066 121.952 11.8743 122.247 12.0095C122.554 12.1325 122.825 12.3047 123.058 12.526C123.28 12.7474 123.452 13.0056 123.575 13.3008C123.71 13.5959 123.778 13.9095 123.778 14.2415V21.122C123.778 21.663 123.876 22.1672 124.073 22.6345C124.27 23.0896 124.546 23.4831 124.903 23.8151C125.26 24.1594 125.672 24.43 126.139 24.6267C126.606 24.8112 127.11 24.9034 127.651 24.9034C128.18 24.9034 128.66 24.8112 129.09 24.6267C129.521 24.43 129.89 24.1533 130.197 23.7967C130.492 23.4523 130.72 23.0465 130.88 22.5792C131.039 22.1119 131.119 21.6077 131.119 21.0666V14.2415C131.119 13.9218 131.187 13.6144 131.322 13.3192C131.458 13.0118 131.642 12.7474 131.876 12.526C132.097 12.3047 132.361 12.1325 132.669 12.0095C132.976 11.8743 133.296 11.8066 133.628 11.8066C133.96 11.8066 134.274 11.8743 134.569 12.0095C134.864 12.1325 135.122 12.3047 135.344 12.526C135.565 12.7474 135.731 13.0056 135.842 13.3008C135.965 13.5959 136.026 13.9095 136.026 14.2415V21.0666C136.026 22.2595 135.817 23.3847 135.399 24.4423C134.993 25.4999 134.409 26.4283 133.646 27.2276C132.884 28.0393 131.986 28.6726 130.953 29.1276C129.933 29.5826 128.832 29.8101 127.651 29.8101Z" fill="black"/>
<path d="M108.322 29.8101C107.104 29.8101 105.949 29.5826 104.854 29.1276C103.76 28.6602 102.794 28.0085 101.958 27.1723C101.122 26.3483 100.47 25.3891 100.003 24.2947C99.5354 23.2002 99.3018 22.0442 99.3018 20.8268V7.78532C99.3018 7.42869 99.3632 7.09666 99.4862 6.78923C99.6215 6.46949 99.7998 6.1928 100.021 5.95915C100.243 5.73779 100.507 5.56563 100.814 5.44265C101.122 5.30738 101.442 5.23975 101.774 5.23975C102.106 5.23975 102.425 5.30738 102.733 5.44265C103.04 5.56563 103.305 5.73779 103.526 5.95915C103.747 6.1928 103.913 6.46949 104.024 6.78923C104.147 7.09666 104.208 7.42869 104.208 7.78532V13.4483C104.59 12.9933 105.192 12.6059 106.016 12.2862C106.816 11.9665 107.584 11.8066 108.322 11.8066C109.527 11.8066 110.677 12.0402 111.771 12.5075C112.878 12.9748 113.843 13.6205 114.667 14.4444C115.491 15.2806 116.137 16.2521 116.604 17.3589C117.072 18.4534 117.305 19.6093 117.305 20.8268C117.305 22.0442 117.072 23.2002 116.604 24.2947C116.149 25.3768 115.504 26.336 114.667 27.1723C113.843 27.9962 112.878 28.6418 111.771 29.1091C110.677 29.5764 109.527 29.8101 108.322 29.8101ZM108.322 24.8849C108.875 24.8849 109.398 24.7804 109.89 24.5713C110.394 24.3623 110.831 24.0733 111.2 23.7044C111.581 23.3232 111.876 22.8866 112.085 22.3947C112.294 21.9028 112.399 21.3802 112.399 20.8268C112.399 20.2734 112.294 19.7507 112.085 19.2588C111.876 18.7669 111.581 18.3304 111.2 17.9492C110.831 17.5802 110.394 17.2913 109.89 17.0822C109.398 16.8731 108.875 16.7686 108.322 16.7686C107.769 16.7686 107.24 16.8731 106.736 17.0822C106.244 17.2913 105.813 17.5802 105.444 17.9492C105.063 18.3304 104.762 18.7669 104.54 19.2588C104.331 19.7507 104.227 20.2734 104.227 20.8268C104.227 21.3802 104.331 21.9028 104.54 22.3947C104.762 22.8866 105.063 23.3232 105.444 23.7044C105.813 24.0733 106.244 24.3623 106.736 24.5713C107.24 24.7804 107.769 24.8849 108.322 24.8849Z" fill="black"/>
<rect x="138.969" y="5.18457" width="33.1689" height="13.9022" rx="6.95111" fill="#CAFF04"/>
<path d="M147.762 16.3607C147.365 16.3607 146.99 16.29 146.636 16.1488C146.287 16.0036 145.98 15.7996 145.717 15.5366C145.446 15.2659 145.236 14.9461 145.086 14.5772C144.937 14.2084 144.862 13.8062 144.862 13.3706V11.4989C144.862 11.0633 144.937 10.6611 145.086 10.2922C145.236 9.92339 145.446 9.60358 145.717 9.33283C145.98 9.06992 146.287 8.86783 146.636 8.72657C146.99 8.58138 147.365 8.50879 147.762 8.50879C148.336 8.50879 148.847 8.64417 149.295 8.91492C149.632 9.11897 149.941 9.42112 150.22 9.82136C150.33 9.98225 150.385 10.1549 150.385 10.3393C150.385 10.5473 150.306 10.7258 150.149 10.875C149.988 11.028 149.794 11.1045 149.566 11.1045C149.318 11.1045 149.137 11.0123 149.023 10.8279C148.929 10.6827 148.851 10.5708 148.788 10.4924C148.729 10.4139 148.658 10.3472 148.576 10.2922C148.379 10.1588 148.108 10.0921 147.762 10.0921C147.373 10.0921 147.067 10.202 146.843 10.4217C146.575 10.6768 146.442 11.0319 146.442 11.4871V13.3824C146.442 13.8376 146.575 14.1927 146.843 14.4477C147.067 14.6675 147.373 14.7774 147.762 14.7774C148.104 14.7774 148.377 14.7106 148.581 14.5772C148.664 14.5223 148.737 14.4556 148.799 14.3771C148.862 14.2947 148.937 14.1829 149.023 14.0416C149.082 13.9514 149.159 13.8846 149.253 13.8415C149.352 13.7944 149.458 13.7709 149.572 13.7709C149.799 13.7709 149.994 13.8454 150.155 13.9945C150.308 14.1476 150.385 14.3261 150.385 14.5301C150.385 14.6949 150.334 14.8598 150.232 15.0246C150.133 15.1854 149.996 15.3581 149.819 15.5425C149.485 15.8839 149.086 16.1194 148.623 16.2488C148.375 16.3234 148.088 16.3607 147.762 16.3607Z" fill="black"/>
<path d="M152.442 16.3607C152.336 16.3607 152.234 16.3411 152.135 16.3018C152.041 16.2626 151.959 16.2076 151.888 16.137C151.817 16.0664 151.76 15.984 151.717 15.8898C151.678 15.7956 151.658 15.6956 151.658 15.5896V9.27985C151.658 9.06403 151.735 8.87961 151.888 8.72657C151.959 8.65986 152.041 8.60689 152.135 8.56765C152.234 8.52841 152.336 8.50879 152.442 8.50879C152.658 8.50879 152.843 8.58138 152.996 8.72657C153.149 8.87961 153.226 9.06403 153.226 9.27985V15.5896C153.226 15.6956 153.204 15.7956 153.161 15.8898C153.122 15.984 153.067 16.0664 152.996 16.137C152.847 16.2861 152.662 16.3607 152.442 16.3607Z" fill="black"/>
<path d="M157.175 16.3666C156.959 16.3666 156.78 16.292 156.638 16.1429C156.497 16.0016 156.426 15.8192 156.426 15.5955V10.0803H154.929C154.713 10.0803 154.528 10.0038 154.375 9.85079C154.226 9.70168 154.151 9.51725 154.151 9.29751C154.151 9.19156 154.171 9.0915 154.21 8.99733C154.249 8.90315 154.304 8.82075 154.375 8.75011C154.528 8.59708 154.713 8.52056 154.929 8.52056H159.432C159.538 8.52056 159.638 8.54214 159.733 8.58531C159.831 8.62455 159.915 8.67948 159.986 8.75011C160.057 8.82467 160.112 8.911 160.151 9.0091C160.194 9.10327 160.216 9.20333 160.216 9.30928C160.216 9.41523 160.194 9.51529 160.151 9.60947C160.112 9.70364 160.057 9.78605 159.986 9.85668C159.915 9.92731 159.831 9.98225 159.733 10.0215C159.638 10.0607 159.538 10.0803 159.432 10.0803H157.965V15.5955C157.965 15.7015 157.943 15.8015 157.9 15.8957C157.86 15.9899 157.805 16.0723 157.735 16.1429C157.66 16.2135 157.574 16.2685 157.475 16.3077C157.381 16.3469 157.281 16.3666 157.175 16.3666Z" fill="black"/>
<path d="M163.399 16.2842C163.293 16.2842 163.191 16.2645 163.092 16.2253C162.994 16.1821 162.91 16.1252 162.839 16.0546C162.682 15.9055 162.603 15.7171 162.603 15.4896V13.5178C162.179 13.3804 161.807 13.1587 161.489 12.8526C161.175 12.5426 160.943 12.1758 160.794 11.752C160.719 11.5401 160.672 11.2752 160.652 10.9574V9.27985C160.652 9.17783 160.674 9.07973 160.717 8.98555C160.76 8.88745 160.819 8.80309 160.894 8.73246C160.965 8.66182 161.047 8.60689 161.141 8.56765C161.24 8.52841 161.342 8.50879 161.448 8.50879C161.668 8.50879 161.853 8.58334 162.002 8.73246C162.073 8.80309 162.126 8.88549 162.161 8.97967C162.2 9.07384 162.22 9.1739 162.22 9.27985V10.9868C162.22 11.2536 162.312 11.4949 162.497 11.7108C162.646 11.8873 162.827 12.0109 163.039 12.0816C163.138 12.113 163.25 12.1326 163.375 12.1404H163.428C163.582 12.1404 163.729 12.113 163.87 12.058C164.016 11.9992 164.141 11.9168 164.248 11.8108C164.358 11.7049 164.442 11.5813 164.501 11.44C164.564 11.2987 164.597 11.1496 164.601 10.9927V9.27985C164.601 9.1739 164.621 9.07384 164.66 8.97967C164.703 8.88549 164.762 8.80309 164.837 8.73246C164.908 8.66182 164.99 8.60689 165.084 8.56765C165.183 8.52841 165.287 8.50879 165.397 8.50879C165.617 8.50879 165.802 8.58334 165.951 8.73246C166.022 8.80309 166.075 8.88549 166.11 8.97967C166.149 9.07384 166.169 9.1739 166.169 9.27985V10.8632C166.169 11.1849 166.12 11.491 166.022 11.7814C165.927 12.0678 165.792 12.3307 165.615 12.5701C165.438 12.8056 165.228 13.0076 164.984 13.1764C164.741 13.3451 164.473 13.4707 164.183 13.5531V15.4896C164.183 15.7132 164.106 15.9016 163.953 16.0546C163.882 16.1252 163.798 16.1821 163.699 16.2253C163.605 16.2645 163.505 16.2842 163.399 16.2842Z" fill="black"/>
<circle cx="17.9287" cy="17.5" r="17" fill="#FFE001"/>
<path fill-rule="evenodd" clip-rule="evenodd" d="M18.4654 28.318C23.8828 28.318 28.2745 23.9246 28.2745 18.5051C28.2745 13.0855 23.8828 8.6921 18.4654 8.6921C16.609 8.6921 14.8731 9.20798 13.393 10.1042L11.4763 7.34894C10.6101 6.10372 8.65625 6.7169 8.65625 8.23397V18.5051C8.65625 23.9246 13.0479 28.318 18.4654 28.318ZM18.343 13.9209C15.9728 13.9705 14.0915 15.9323 14.1411 18.3027C14.1906 20.6731 16.1523 22.5544 18.5226 22.5048C19.3349 22.4878 20.0897 22.2463 20.729 21.8407L21.0246 22.247C21.5896 23.0238 22.8185 22.6096 22.7984 21.6491L22.7246 18.123C22.675 15.7526 20.7133 13.8712 18.343 13.9209Z" fill="black"/>
</svg>
