<svg width="46" height="47" viewBox="0 0 46 47" fill="none" xmlns="http://www.w3.org/2000/svg">
<path fill-rule="evenodd" clip-rule="evenodd" d="M13.7996 14.5046V12.2046C13.7996 8.3938 16.8888 5.30457 20.6996 5.30457H25.2996C29.1104 5.30457 32.1996 8.3938 32.1996 12.2046V14.5046H36.7996C39.3401 14.5046 41.3996 16.5641 41.3996 19.1046V27.3173C35.6718 29.4424 29.4739 30.6044 22.9997 30.6044C16.5254 30.6044 10.3275 29.4424 4.59961 27.3173V19.1046C4.59961 16.5641 6.6591 14.5046 9.19961 14.5046H13.7996ZM18.3996 12.2046C18.3996 10.9343 19.4294 9.90457 20.6996 9.90457H25.2996C26.5699 9.90457 27.5996 10.9343 27.5996 12.2046V14.5046H18.3996V12.2046ZM20.6996 23.7046C20.6996 22.4343 21.7294 21.4046 22.9996 21.4046H23.0226C24.2929 21.4046 25.3226 22.4343 25.3226 23.7046C25.3226 24.9748 24.2929 26.0046 23.0226 26.0046H22.9996C21.7294 26.0046 20.6996 24.9748 20.6996 23.7046Z" fill="#6741FF"/>
<path d="M4.59961 32.1968V37.5046C4.59961 40.0451 6.6591 42.1046 9.19961 42.1046H36.7996C39.3401 42.1046 41.3996 40.0451 41.3996 37.5046V32.1968C35.6202 34.1476 29.4313 35.2044 22.9997 35.2044C16.568 35.2044 10.379 34.1476 4.59961 32.1968Z" fill="#6741FF"/>
</svg>
