<svg width="1440" height="820" viewBox="0 0 1440 820" fill="none" xmlns="http://www.w3.org/2000/svg">
<rect width="1440" height="820" fill="url(#paint0_linear_1_9615)"/>
<path d="M581.333 627.737C579.409 624.796 579.129 618.137 579.23 615.175C580.432 613.643 583.316 610.702 585.24 611.192C587.164 611.681 589.046 614.05 589.747 615.175C587.745 620.588 583.257 630.678 581.333 627.737Z" fill="#C86229" stroke="black"/>
<path d="M582.231 601.999C582.467 602.72 582.337 603.891 582.238 604.419C582.328 604.053 583.271 602.659 585.838 603.532C588.543 604.45 588.242 608.434 587.941 609.966C587.642 611.498 586.139 611.803 585.838 613.336C585.537 614.868 582.831 617.012 581.629 616.707C580.427 616.401 578.924 616.707 576.821 612.417C575.139 608.984 576.922 607.311 578.023 606.901C577.221 606.39 575.619 605.001 575.619 603.532C575.619 601.692 575.619 599.855 578.023 599.241C580.427 598.63 581.93 601.081 582.231 601.999Z" fill="white" stroke="black"/>
<path d="M624.831 645.123C619.14 650.969 612.301 654.548 605.851 655.616C599.4 656.684 593.344 655.238 589.198 651.04C585.052 646.844 583.588 640.681 584.588 634.098C585.586 627.512 589.047 620.516 594.738 614.67C600.429 608.824 607.268 605.245 613.717 604.177C620.169 603.111 626.225 604.557 630.371 608.753C634.517 612.949 635.981 619.112 634.981 625.698C633.983 632.281 630.521 639.279 624.831 645.123Z" fill="#FEDA03" stroke="black" stroke-width="0.0932121"/>
<path d="M646.367 619.085C644.035 604.194 628.773 603.83 628.773 603.83C626.206 603.973 620.036 603.441 620.036 603.441L609.251 604.192C609.251 604.192 606.707 599.653 604.138 599.82C602.146 602.773 604.327 605.559 604.327 605.559C604.327 605.559 590.088 607.6 583.715 623.015C581.923 627.35 579.153 641.164 578.389 647.764C577.086 659.014 582.82 665.53 594.428 665.286L600.421 665.016C602.258 664.905 620.547 663.802 622.432 663.688L628.402 663.233L628.519 663.229C640.233 662.066 644.693 654.784 645.996 643.534C646.76 636.935 647.029 623.31 646.367 619.085Z" fill="url(#paint1_linear_1_9615)"/>
<path d="M643.519 617.671C641.352 603.615 627.792 603.318 627.792 603.318C627.792 603.318 627.749 600.71 626.507 598.11C624.106 598.244 620.699 602.878 620.699 602.878L608.818 603.595C608.818 603.595 606.443 599.31 604.04 599.466C602.174 602.253 601.522 604.903 601.522 604.903C601.522 604.903 588.203 606.823 582.227 621.37C580.546 625.46 577.942 638.497 577.221 644.726C575.992 655.343 581.349 661.497 592.206 661.273L597.812 661.021C599.53 660.917 616.637 659.885 618.401 659.778L623.985 659.351L624.095 659.348C635.052 658.256 641.92 651.364 643.149 640.747C643.87 634.518 644.135 621.659 643.519 617.671Z" fill="url(#paint2_radial_1_9615)"/>
<path d="M618.312 660.524C616.374 660.641 599.346 661.669 597.723 661.767L597.712 661.768L592.105 662.019L592.087 662.02C589.32 662.077 586.851 661.729 584.747 660.984C582.655 660.244 580.914 659.109 579.573 657.611C578.238 656.122 577.296 654.271 576.775 652.11C576.255 649.957 576.151 647.488 576.466 644.772C577.165 638.729 579.767 625.488 581.528 621.199C582.934 617.778 584.858 614.752 587.248 612.207C589.163 610.166 591.378 608.43 593.83 607.048C597.039 605.238 599.787 604.519 600.952 604.273C601.255 603.307 602 601.266 603.428 599.135C603.507 599.017 603.612 598.917 603.734 598.844C603.856 598.771 603.99 598.728 604.122 598.72L604.135 598.719C605.35 598.646 606.633 599.391 607.945 600.936C608.444 601.529 608.898 602.16 609.304 602.825L620.384 602.156C620.951 601.432 621.559 600.738 622.203 600.076C623.895 598.35 625.369 597.438 626.585 597.364L626.597 597.363C626.729 597.356 626.855 597.383 626.962 597.442C627.068 597.501 627.152 597.59 627.204 597.7C628.154 599.687 628.434 601.663 628.517 602.607C629.668 602.709 632.381 603.096 635.275 604.544C637.478 605.647 639.33 607.139 640.777 608.98C642.584 611.278 643.759 614.123 644.27 617.436C644.563 619.339 644.681 623.281 644.593 628.251C644.509 633.04 644.25 637.695 643.901 640.702C643.587 643.419 642.905 645.935 641.876 648.182C640.843 650.436 639.457 652.427 637.756 654.1C636.046 655.782 634.016 657.144 631.721 658.15C629.414 659.16 626.829 659.814 624.037 660.092C624.002 660.095 623.966 660.097 623.931 660.095L623.909 660.097L618.324 660.524L618.312 660.524ZM606.218 659.774L618.478 659.034L624.056 658.607C624.086 658.605 624.115 658.604 624.144 658.606L624.148 658.605C626.766 658.344 629.179 657.737 631.318 656.8C633.4 655.888 635.238 654.656 636.78 653.14C638.315 651.63 639.57 649.825 640.508 647.777C641.464 645.692 642.098 643.342 642.393 640.792C642.736 637.83 642.991 633.229 643.075 628.485C643.161 623.663 643.047 619.708 642.767 617.905C642.292 614.819 641.204 612.174 639.538 610.043C638.205 608.338 636.496 606.953 634.46 605.925C632.992 605.189 631.404 604.652 629.733 604.327C628.48 604.085 627.65 604.063 627.642 604.063C627.472 604.058 627.319 603.996 627.208 603.886C627.098 603.776 627.035 603.625 627.032 603.458C627.032 603.435 626.979 601.229 625.999 598.936C625.274 599.171 624.306 599.884 623.216 600.994C622.524 601.703 621.879 602.454 621.285 603.24C621.205 603.349 621.101 603.441 620.983 603.507C620.865 603.574 620.738 603.613 620.611 603.621L608.731 604.338C608.605 604.345 608.484 604.321 608.38 604.268C608.276 604.215 608.192 604.134 608.136 604.033C607.717 603.309 607.238 602.627 606.702 601.992C605.856 601 605.041 600.395 604.36 600.244C602.831 602.688 602.263 604.932 602.257 604.955C602.215 605.125 602.117 605.285 601.979 605.41C601.842 605.534 601.673 605.616 601.5 605.641C601.493 605.642 600.677 605.764 599.39 606.159C597.656 606.695 595.96 607.43 594.339 608.348C592.067 609.636 590.017 611.25 588.245 613.145C586.027 615.515 584.237 618.34 582.921 621.54C582.179 623.348 581.151 627.259 580.103 632.271C579.143 636.865 578.326 641.62 577.971 644.682C577.676 647.231 577.771 649.537 578.253 651.536C578.728 653.499 579.579 655.176 580.783 656.521C581.993 657.871 583.57 658.896 585.469 659.568C587.417 660.258 589.719 660.581 592.31 660.528L597.9 660.277L606.218 659.774Z" fill="#47131A"/>
<path d="M623.056 654.145C622.97 656.823 622.681 658.986 622.681 658.986L593.011 660.777C591.774 658.489 593.13 658.062 593.572 655.925C595.32 640.827 624.253 638.648 623.056 654.145Z" fill="#FE7825"/>
<path d="M623.056 654.145C622.97 656.823 622.681 658.986 622.681 658.986L593.011 660.777C591.774 658.489 593.13 658.062 593.572 655.925C595.32 640.827 624.253 638.648 623.056 654.145Z" fill="url(#paint3_linear_1_9615)"/>
<path d="M642.525 617.952C642.525 617.952 640.444 618.494 636.598 622.698C633.061 626.566 633.105 633.072 642.514 631.839C643.212 625.85 642.525 617.952 642.525 617.952Z" fill="#FE7825"/>
<path d="M642.525 617.952C642.525 617.952 640.444 618.494 636.598 622.698C633.061 626.566 633.105 633.072 642.514 631.839C643.212 625.85 642.525 617.952 642.525 617.952Z" fill="url(#paint4_linear_1_9615)"/>
<path d="M578.705 641.032C578.705 641.032 583.522 641.213 584.124 636.45C584.545 633.12 580.228 633.09 580.228 633.09L578.705 641.032Z" fill="#FE7825"/>
<path d="M578.705 641.032C578.705 641.032 583.522 641.213 584.124 636.45C584.545 633.12 580.228 633.09 580.228 633.09L578.705 641.032Z" fill="url(#paint5_linear_1_9615)"/>
<path d="M627.754 658.267C637.825 655.397 641.629 647.449 642.025 638.127C640.92 645.964 631.683 653.133 627.877 653.813C622.435 642.903 611.669 643.553 611.669 643.553C620.143 644.175 623.048 649.306 622.863 653.869C622.863 653.869 622.806 657.078 622.538 659.012C625.362 658.841 627.754 658.267 627.754 658.267Z" fill="#F6A505"/>
<path d="M588.15 660.433C578.606 658.747 576.6 651.15 578.37 641.746C577.665 649.558 585.362 655.704 589.063 655.931C597.124 644.205 607.889 643.555 607.889 643.555C599.152 645.216 595.01 650.773 594.135 655.378C594.135 655.378 593.445 658.625 593.266 660.554C590.442 660.724 588.15 660.433 588.15 660.433Z" fill="#F6A505"/>
<path d="M608.743 603.83C608.743 603.83 611.457 613.707 602.953 615.433C593.615 617.329 592.007 609.969 592.007 609.969C593.137 609.018 597.427 606.11 602.556 605.128C603.849 601.308 604.899 599.942 604.899 599.942C604.899 599.942 606.426 599.976 608.743 603.83Z" fill="#FE7825"/>
<path d="M608.743 603.83C608.743 603.83 611.457 613.707 602.953 615.433C593.615 617.329 592.007 609.969 592.007 609.969C593.137 609.018 597.427 606.11 602.556 605.128C603.849 601.308 604.899 599.942 604.899 599.942C604.899 599.942 606.426 599.976 608.743 603.83Z" fill="url(#paint6_linear_1_9615)"/>
<g opacity="0.8" filter="url(#filter0_f_1_9615)">
<path fill-rule="evenodd" clip-rule="evenodd" d="M615.638 607.568C615.834 607.413 615.988 607.212 616.08 606.991C616.202 606.694 616.205 606.381 616.086 606.122C615.968 605.863 615.738 605.678 615.448 605.608C615.232 605.556 614.993 605.571 614.763 605.651C614.532 605.731 614.32 605.872 614.153 606.057C613.986 606.241 613.871 606.461 613.824 606.688C613.776 606.915 613.798 607.14 613.886 607.333C613.974 607.526 614.125 607.679 614.319 607.773C614.513 607.867 614.742 607.898 614.977 607.861C615.212 607.825 615.442 607.723 615.638 607.568ZM619.816 608.147C627.582 608.837 633.814 612.163 636.228 613.914C638.642 615.665 641.039 612.559 634.542 609.014C630.151 606.828 624.987 605.789 620.483 605.927C618.307 605.995 616.265 607.832 619.816 608.147Z" fill="white"/>
</g>
<path d="M640.278 630.309C640.226 630.312 640.174 630.308 640.126 630.296L636.586 629.393C636.47 629.361 636.379 629.284 636.334 629.179C636.289 629.074 636.292 628.949 636.344 628.831C636.395 628.713 636.491 628.612 636.61 628.549C636.728 628.486 636.861 628.466 636.979 628.493L640.519 629.396C640.625 629.423 640.711 629.487 640.762 629.577C640.812 629.666 640.824 629.776 640.795 629.886C640.766 629.995 640.698 630.098 640.604 630.176C640.509 630.253 640.394 630.3 640.278 630.309Z" fill="#47131A"/>
<path d="M641.032 626.687L637.129 626.961C637.004 626.966 636.89 626.927 636.81 626.85C636.731 626.774 636.693 626.667 636.704 626.551C636.716 626.436 636.776 626.322 636.871 626.233C636.967 626.144 637.091 626.088 637.217 626.076L641.12 625.803C641.245 625.797 641.36 625.837 641.439 625.913C641.519 625.989 641.557 626.097 641.545 626.212C641.534 626.327 641.474 626.441 641.378 626.53C641.282 626.619 641.158 626.675 641.032 626.687Z" fill="#47131A"/>
<path d="M584.566 633.36C584.451 633.367 584.344 633.335 584.264 633.269C584.184 633.203 584.136 633.106 584.129 632.998C584.122 632.889 584.156 632.775 584.226 632.676C584.295 632.576 584.395 632.498 584.507 632.456L588.264 631.031C588.326 631.006 588.392 630.993 588.456 630.992C588.519 630.991 588.581 631.003 588.636 631.026C588.691 631.049 588.738 631.084 588.776 631.128C588.814 631.172 588.84 631.225 588.855 631.282C588.869 631.34 588.87 631.402 588.859 631.465C588.848 631.527 588.824 631.589 588.789 631.646C588.754 631.704 588.709 631.756 588.655 631.8C588.602 631.843 588.542 631.877 588.479 631.9L584.722 633.325C584.671 633.345 584.618 633.356 584.566 633.36Z" fill="#47131A"/>
<path d="M588.603 629.512L584.709 629.765C584.644 629.771 584.582 629.764 584.524 629.746C584.467 629.728 584.416 629.698 584.375 629.659C584.334 629.619 584.302 629.571 584.284 629.517C584.265 629.462 584.258 629.403 584.265 629.342C584.271 629.282 584.291 629.221 584.321 629.163C584.352 629.106 584.394 629.053 584.445 629.007C584.495 628.962 584.553 628.925 584.615 628.899C584.677 628.873 584.742 628.858 584.806 628.856L588.701 628.602C588.826 628.597 588.939 628.639 589.018 628.718C589.096 628.797 589.133 628.908 589.12 629.026C589.107 629.145 589.046 629.262 588.95 629.353C588.853 629.443 588.729 629.5 588.603 629.512Z" fill="#47131A"/>
<path opacity="0.5" fill-rule="evenodd" clip-rule="evenodd" d="M630.189 615.551C626.917 615.817 624.321 619.731 623.881 625.032C623.44 630.335 625.338 633.834 628.492 633.578C631.647 633.322 634.238 629.459 634.796 624.146C635.354 618.836 633.462 615.286 630.189 615.551Z" fill="white"/>
<path fill-rule="evenodd" clip-rule="evenodd" d="M630.193 615.201C626.937 615.468 624.386 619.004 623.992 623.762C623.597 628.523 625.522 631.641 628.673 631.384C631.823 631.127 634.37 627.642 634.87 622.873C635.37 618.106 633.449 614.936 630.193 615.201Z" fill="#47131A"/>
<path fill-rule="evenodd" clip-rule="evenodd" d="M630.567 619.833C630.465 620.896 629.487 621.827 628.382 621.917C627.277 622.006 626.456 621.221 626.55 620.159C626.642 619.097 627.622 618.158 628.736 618.068C629.849 617.976 630.67 618.77 630.567 619.833Z" fill="white"/>
<path fill-rule="evenodd" clip-rule="evenodd" d="M625.197 636.981C625.309 635.85 627.035 635.252 629.109 635.068C631.183 634.885 633.287 635.16 633.194 636.289C633.102 637.418 630.91 638.068 628.822 638.252C626.733 638.437 625.086 638.112 625.197 636.981Z" fill="#FFB43C"/>
<path opacity="0.5" fill-rule="evenodd" clip-rule="evenodd" d="M597.195 618.243C593.914 618.53 591.357 622.46 590.979 627.761C590.602 633.063 592.549 636.547 595.713 636.27C598.875 635.993 601.428 632.114 601.923 626.802C602.419 621.49 600.475 617.955 597.195 618.243Z" fill="white"/>
<path fill-rule="evenodd" clip-rule="evenodd" d="M597.223 618.241C593.959 618.528 591.441 622.079 591.104 626.838C590.768 631.598 592.739 634.703 595.898 634.426C599.056 634.148 601.568 630.648 602.011 625.878C602.454 621.111 600.487 617.954 597.223 618.241Z" fill="#47131A"/>
<path fill-rule="evenodd" clip-rule="evenodd" d="M599.594 621.767C599.502 622.831 598.531 623.771 597.423 623.87C596.316 623.969 595.484 623.191 595.567 622.128C595.648 621.064 596.621 620.118 597.738 620.018C598.854 619.918 599.685 620.703 599.594 621.767Z" fill="white"/>
<path fill-rule="evenodd" clip-rule="evenodd" d="M591.046 639.374C591.236 638.176 593.446 637.648 595.512 637.611C597.579 637.573 599.187 638.02 599.015 639.218C598.845 640.415 597.087 640.946 595.005 640.984C592.924 641.02 590.857 640.572 591.046 639.374Z" fill="#FFB43C"/>
<path opacity="0.5" d="M619.083 629.953L617.885 630.269L617.885 630.265C617.884 630.273 617.967 631.078 617.355 631.748C616.801 632.354 615.837 632.711 614.489 632.807C614.066 632.837 613.704 632.78 613.468 632.645C613.303 632.55 613.093 632.369 613.102 631.891C613.109 631.845 613.115 631.798 613.12 631.75L613.23 630.605C613.238 630.531 613.229 630.458 613.206 630.392C613.182 630.325 613.144 630.266 613.093 630.217C613.042 630.169 612.98 630.132 612.91 630.109C612.84 630.085 612.763 630.076 612.684 630.082L612.675 630.083C612.596 630.088 612.516 630.108 612.441 630.142C612.365 630.176 612.295 630.222 612.234 630.279C612.173 630.335 612.123 630.401 612.086 630.472C612.049 630.543 612.026 630.617 612.019 630.692L611.908 631.837C611.904 631.884 611.899 631.931 611.898 631.977C611.814 632.46 611.567 632.673 611.381 632.794C611.116 632.965 610.737 633.075 610.313 633.105C608.965 633.202 608.058 632.98 607.615 632.444C607.124 631.853 607.364 631.025 607.366 631.016L607.365 631.021L606.212 630.872C606.195 630.927 605.8 632.226 606.607 633.216C607.26 634.017 608.47 634.361 610.205 634.237C611.109 634.173 611.852 633.859 612.364 633.361C612.785 633.794 613.477 634.003 614.381 633.939C616.116 633.815 617.41 633.292 618.229 632.385C619.236 631.266 619.09 630.004 619.083 629.953Z" fill="#F7F7F7"/>
<path d="M619.249 628.676L618.051 628.992L618.051 628.988C618.05 628.996 618.132 629.802 617.52 630.471C616.967 631.077 616.002 631.434 614.654 631.531C614.232 631.561 613.869 631.504 613.633 631.369C613.468 631.274 613.258 631.093 613.267 630.615C613.274 630.569 613.281 630.522 613.285 630.474L613.396 629.329C613.404 629.255 613.395 629.182 613.372 629.116C613.348 629.049 613.31 628.99 613.259 628.941C613.209 628.893 613.146 628.856 613.076 628.833C613.006 628.809 612.929 628.8 612.85 628.806L612.841 628.807C612.762 628.812 612.683 628.832 612.607 628.866C612.531 628.9 612.461 628.946 612.4 629.003C612.339 629.059 612.289 629.125 612.252 629.196C612.215 629.267 612.192 629.342 612.185 629.416L612.074 630.561C612.069 630.608 612.065 630.655 612.064 630.701C611.979 631.184 611.732 631.398 611.546 631.518C611.281 631.689 610.902 631.8 610.478 631.83C609.13 631.926 608.223 631.705 607.78 631.169C607.29 630.578 607.529 629.75 607.532 629.741L607.531 629.746L606.378 629.597C606.361 629.652 605.966 630.951 606.772 631.941C607.425 632.742 608.635 633.086 610.37 632.962C611.274 632.897 612.017 632.584 612.528 632.085C612.95 632.518 613.641 632.727 614.546 632.663C616.281 632.538 617.575 632.016 618.394 631.109C619.401 629.989 619.256 628.727 619.249 628.676Z" fill="#47131A"/>
<path d="M575.366 651.078C574.386 650.791 569.658 644.142 567.417 640.857L567.155 641.004L565.431 641.627L565.654 647.103L565.495 653.145L567.179 658.148C568.275 659.747 571.354 663.566 574.898 666.047C577.479 660.041 575.566 652.715 575.366 651.078Z" fill="#C86229" stroke="black"/>
<path d="M562.932 639.837C561.061 641.454 560.354 644.794 560.234 646.262C560.559 648.762 561.786 654.7 564.092 658.441C566.395 662.184 572.61 665.073 575.43 666.05C574.366 663.032 571.976 656.513 570.929 654.584C569.621 652.17 571.461 651.132 570.852 649.376C570.243 647.618 568.178 643.181 567.542 640.739C566.904 638.298 565.27 637.819 562.932 639.837Z" fill="url(#paint7_linear_1_9615)" stroke="black"/>
<path d="M636.78 642.072C637.43 639.197 639.784 636.352 640.986 635.638C642.99 635.842 647.118 636.434 647.599 637.17C648.199 638.089 648.199 644.523 646.095 647.588C643.992 650.651 640.986 650.039 639.483 649.425C637.982 648.813 635.877 646.056 636.78 642.072Z" fill="#C86229" stroke="black"/>
<path d="M622.621 656.255L620.189 651.972L618.452 654.707L616.387 661.515L618.78 667.662C620.066 666.025 621.797 663.251 622.848 662.103C623.9 660.957 623.261 657.192 622.621 656.255Z" fill="#C86229" stroke="#47131A"/>
<path d="M609.393 650.784L612.903 660.483L613.46 662.257C613.465 664.423 613.698 669.034 614.585 670.141C615.693 671.525 617.726 668.746 618.233 668.051C618.641 667.495 619.922 662.847 620.511 660.593C620.575 658.208 620.646 653.017 620.404 651.32C620.161 649.62 618.367 646.976 617.501 645.866C616.122 644.73 612.809 642.785 610.568 644.108C608.327 645.432 608.852 649.11 609.393 650.784Z" fill="url(#paint8_linear_1_9615)" stroke="#47131A"/>
<path d="M639.477 623.076C639.957 618.418 642.281 618.275 643.382 618.786C643.483 618.172 643.865 616.639 644.586 615.414C648.792 614.495 649.995 617.56 650.296 618.479C650.597 619.397 652.399 621.848 652.399 623.688C652.399 625.525 652.399 627.671 650.898 629.815C649.394 631.959 650.597 632.573 649.995 634.717C649.395 636.863 645.788 638.394 643.382 637.475C640.978 636.556 641.58 635.024 642.18 632.573C642.782 630.122 642.18 630.734 640.378 629.815C638.574 628.897 638.875 628.897 639.477 623.076Z" fill="white" stroke="black"/>
<path d="M737.311 545.658C737.322 545.582 737.33 545.507 737.34 545.431C745.546 551.63 752.757 552.74 758.317 551.931C763.952 551.113 767.864 548.33 769.379 546.944C770.156 546.232 771.944 543.917 773.987 540.14C776.035 536.352 778.348 531.076 780.167 524.425C783.804 511.121 785.453 492.322 779.024 468.952L779.016 468.931C771.575 448.452 765.488 437.29 760.709 430.896C758.319 427.697 756.255 425.691 754.515 424.31C753.212 423.276 752.086 422.591 751.161 422.025C750.878 421.855 750.614 421.693 750.371 421.537C741.425 403.369 727.076 398.419 720.194 397.276C712.866 387.631 703.656 388.157 701.406 388.554C695.107 382.801 687.349 380.371 680.219 379.669C673.106 378.967 666.594 379.982 662.724 381.151C655.932 378.552 646.916 378.521 637.038 380.505C627.11 382.498 616.287 386.534 605.929 392.09C585.224 403.195 566.308 420.411 560.162 439.615C556.956 449.638 559.199 457.083 563.564 462.402C567.826 467.594 574.092 470.736 579.199 472.307C579.028 472.622 578.797 472.941 578.525 473.28C578.37 473.473 578.205 473.671 578.034 473.875L577.958 473.965C577.76 474.2 577.556 474.446 577.354 474.703C576.547 475.735 575.772 476.977 575.618 478.642C575.463 480.307 575.931 482.348 577.516 484.98C579.098 487.61 581.803 490.847 586.149 494.912C597.415 506.043 613.648 508.821 618.788 509.702C618.918 509.723 619.04 509.744 619.155 509.763C619.559 511.745 620.093 513.484 621.011 515.151C621.957 516.87 623.304 518.501 625.314 520.24C629.329 523.712 636.017 527.645 647.526 533.622C665.767 543.091 679.922 541.42 684.986 539.291C688.668 543.928 699.773 553.179 716.072 554.638C721.212 555.098 725.068 555.086 727.971 554.718C730.874 554.348 732.843 553.621 734.196 552.637C736.684 550.823 737.004 548.187 737.311 545.658Z" fill="#C4C4C4" stroke="black" stroke-width="0.268914"/>
<mask id="mask0_1_9615" style="mask-type:alpha" maskUnits="userSpaceOnUse" x="558" y="379" width="226" height="176">
<path d="M560.248 439.699C553.894 459.561 569.149 469.073 579.415 472.127C577.908 475.694 568.807 478.467 586.161 494.703C597.798 506.204 614.786 508.743 619.211 509.514C620.835 517.687 624.446 521.41 647.474 533.366C665.897 542.931 680.097 541.07 684.893 538.943C688.398 543.469 699.507 552.884 715.919 554.353C736.435 556.189 736.228 550.463 736.948 544.911C753.567 557.734 766.047 549.447 769.016 546.729C771.985 544.011 791.41 515.659 778.579 469.024C763.707 428.095 754.272 424.488 749.979 421.732C741.039 403.514 726.651 398.633 719.864 397.533C712.453 387.7 703.074 388.469 701.146 388.854C688.623 377.316 670.188 379.107 662.536 381.444C635.611 371.024 572.475 401.491 560.248 439.699Z" fill="#C4C4C4" stroke="black" stroke-width="0.268914"/>
</mask>
<g mask="url(#mask0_1_9615)">
<path d="M772.794 577.65C783.538 546.809 781.957 515.284 779.823 503.376L779.862 495.973L751.693 469.096L726.819 516.417L713.31 558.515C728.66 577.745 762.047 608.492 772.794 577.65Z" fill="url(#paint9_linear_1_9615)" stroke="black" stroke-width="0.268914"/>
<path d="M732.651 559.041C743.397 528.2 741.814 496.675 739.68 484.767L739.719 477.363L711.55 450.486L686.676 497.808L673.169 539.906C688.519 559.136 721.905 589.882 732.651 559.041Z" fill="url(#paint10_linear_1_9615)" stroke="black" stroke-width="0.268914"/>
<path d="M615.212 515.089C621.616 488.58 650.678 453.402 664.408 439.126C678.501 443.356 705.674 452.933 708.294 453.839C712.962 455.455 697.051 513.365 683.865 541.8C658.313 543.942 608.81 541.598 615.212 515.089Z" fill="url(#paint11_linear_1_9615)" stroke="black" stroke-width="0.268914"/>
<path d="M672.333 434.862C653.937 446.393 626.987 489.067 617.9 510.187L603.018 517.105L562.253 503.834L574.927 475.423L612.055 424.826C619.593 424.057 642.201 424.986 672.333 434.862Z" fill="url(#paint12_linear_1_9615)" stroke="black" stroke-width="0.268914"/>
<path d="M573.595 477.872C585.805 458.15 608.45 437.056 618.246 428.974L580.619 426.113L549.892 433.104L532.756 451.262C541.282 468.35 561.382 497.593 573.595 477.872Z" fill="url(#paint13_linear_1_9615)" stroke="black" stroke-width="0.268914"/>
<path d="M767.932 548.02C776.106 527.449 758.945 515.28 748.161 513.01L751.603 509.23L752.04 504.316L742.506 421.595L759.543 414.909L797.59 502.918C784.299 526.522 759.761 568.59 767.932 548.02Z" fill="url(#paint14_linear_1_9615)" stroke="black" stroke-width="0.268914"/>
<path d="M761.123 450.186C769.255 482.82 755.668 505.743 747.858 513.124C753.062 508.19 744.194 490.314 729.579 482.644C722.398 478.875 714.427 475.532 711.107 475.101L707.61 463.246L715.338 396.972L727.571 393.178C735.367 398.582 752.992 417.551 761.123 450.186Z" fill="url(#paint15_linear_1_9615)" stroke="black" stroke-width="0.268914"/>
<path d="M711.247 475.93C703.725 457.347 666.932 437.985 647.814 446.52L669.247 402.976L703.626 381.045C703.626 381.045 703.911 371.966 717.239 392.73C730.564 413.496 726.323 437.464 711.247 475.93Z" fill="url(#paint16_linear_1_9615)" stroke="black" stroke-width="0.268914"/>
<path d="M648.618 446.387C632.247 431.887 603.676 427.853 595.184 444.642L584.143 436.196L614.536 394.504L642.75 380.206L662.303 380.828L644.344 356.381L686.111 363.463L701.327 388.431C676.066 398.182 664.765 411.522 648.618 446.387Z" fill="url(#paint17_linear_1_9615)" stroke="black" stroke-width="0.268914"/>
<path d="M595.405 444.737C573.292 432.642 561.622 440.76 558.552 446.33L557.512 445.847L544.904 427.975L606.937 350.802L662.522 380.923C635.817 382.346 592.071 421.062 595.405 444.737Z" fill="url(#paint18_linear_1_9615)" stroke="black" stroke-width="0.268914"/>
</g>
<path d="M577.778 471.718L581.042 594.642" stroke="black" stroke-width="0.268914"/>
<path d="M595.401 444.578L581.639 594.335" stroke="black" stroke-width="0.268914"/>
<path d="M618 509.647L582.23 594.337" stroke="black" stroke-width="0.268914"/>
<path d="M648.928 446.112L582.836 594.642" stroke="black" stroke-width="0.268914"/>
<path d="M711.831 475.022L657.369 603.221" stroke="black" stroke-width="0.268914"/>
<path d="M694.341 548.069L658.275 607.511" stroke="black" stroke-width="0.268914"/>
<path d="M748.569 512.523L659.18 606.592" stroke="black" stroke-width="0.268914"/>
<path d="M735 551.973L657.07 610.576" stroke="black" stroke-width="0.268914"/>
<path d="M657.674 602.918L648.959 616.401L649.561 617.626L660.38 610.273L657.674 602.918Z" fill="black" stroke="black" stroke-width="0.353735"/>
<path d="M583.747 594.953C582.994 594.53 580.44 593.727 579.84 593.727L582.846 603.531L583.747 594.953Z" fill="black" stroke="black" stroke-width="0.353735"/>
<defs>
<filter id="filter0_f_1_9615" x="603.799" y="595.578" width="44.9336" height="28.8394" filterUnits="userSpaceOnUse" color-interpolation-filters="sRGB">
<feFlood flood-opacity="0" result="BackgroundImageFix"/>
<feBlend mode="normal" in="SourceGraphic" in2="BackgroundImageFix" result="shape"/>
<feGaussianBlur stdDeviation="5" result="effect1_foregroundBlur_1_9615"/>
</filter>
<linearGradient id="paint0_linear_1_9615" x1="1211" y1="0" x2="1211" y2="804.155" gradientUnits="userSpaceOnUse">
<stop stop-color="#A7E7C9"/>
<stop offset="1" stop-color="#EEFBF4"/>
</linearGradient>
<linearGradient id="paint1_linear_1_9615" x1="617.594" y1="599.008" x2="621.499" y2="663.745" gradientUnits="userSpaceOnUse">
<stop stop-color="#FCD10A"/>
<stop offset="1" stop-color="#B56400"/>
</linearGradient>
<radialGradient id="paint2_radial_1_9615" cx="0" cy="0" r="1" gradientUnits="userSpaceOnUse" gradientTransform="translate(612.663 621.044) rotate(96.5558) scale(39.6121 41.5482)">
<stop stop-color="#FFEF9E"/>
<stop offset="0.452438" stop-color="#FFD921"/>
<stop offset="1" stop-color="#FAD001"/>
</radialGradient>
<linearGradient id="paint3_linear_1_9615" x1="695.969" y1="649.569" x2="599.086" y2="606.41" gradientUnits="userSpaceOnUse">
<stop offset="0.369792" stop-color="#E64500" stop-opacity="0.81"/>
<stop offset="0.572917" stop-color="#FF5C00" stop-opacity="0.79"/>
<stop offset="0.927083" stop-color="#FF9921"/>
</linearGradient>
<linearGradient id="paint4_linear_1_9615" x1="663.735" y1="626.326" x2="631.838" y2="619.072" gradientUnits="userSpaceOnUse">
<stop offset="0.369792" stop-color="#E64500" stop-opacity="0.81"/>
<stop offset="0.572917" stop-color="#FF5C00" stop-opacity="0.79"/>
<stop offset="0.927083" stop-color="#FF9921"/>
</linearGradient>
<linearGradient id="paint5_linear_1_9615" x1="595.676" y1="637.607" x2="577.568" y2="633.477" gradientUnits="userSpaceOnUse">
<stop offset="0.369792" stop-color="#E64500" stop-opacity="0.81"/>
<stop offset="0.572917" stop-color="#FF5C00" stop-opacity="0.79"/>
<stop offset="0.927083" stop-color="#FF9921"/>
</linearGradient>
<linearGradient id="paint6_linear_1_9615" x1="649.633" y1="607.996" x2="589.761" y2="589.406" gradientUnits="userSpaceOnUse">
<stop offset="0.369792" stop-color="#E64500" stop-opacity="0.81"/>
<stop offset="0.572917" stop-color="#FF5C00" stop-opacity="0.79"/>
<stop offset="0.927083" stop-color="#FF9921"/>
</linearGradient>
<linearGradient id="paint7_linear_1_9615" x1="566.145" y1="637.847" x2="560.046" y2="654.697" gradientUnits="userSpaceOnUse">
<stop offset="0.05711" stop-color="#AD5B0E"/>
<stop offset="1" stop-color="#28070C"/>
</linearGradient>
<linearGradient id="paint8_linear_1_9615" x1="619.16" y1="642.603" x2="608.403" y2="655.349" gradientUnits="userSpaceOnUse">
<stop offset="0.05711" stop-color="#AD5B0E"/>
<stop offset="1" stop-color="#28070C"/>
</linearGradient>
<linearGradient id="paint9_linear_1_9615" x1="743.487" y1="535.721" x2="768.684" y2="547.849" gradientUnits="userSpaceOnUse">
<stop offset="0.145216" stop-color="#466B00"/>
<stop offset="0.919699" stop-color="#598900"/>
</linearGradient>
<linearGradient id="paint10_linear_1_9615" x1="703.344" y1="517.111" x2="728.542" y2="529.24" gradientUnits="userSpaceOnUse">
<stop offset="0.145216" stop-color="#466B00"/>
<stop offset="0.919699" stop-color="#598900"/>
</linearGradient>
<linearGradient id="paint11_linear_1_9615" x1="650.427" y1="496.49" x2="678.46" y2="510.113" gradientUnits="userSpaceOnUse">
<stop offset="0.145216" stop-color="#466B00"/>
<stop offset="0.919699" stop-color="#598900"/>
</linearGradient>
<linearGradient id="paint12_linear_1_9615" x1="603.43" y1="472.736" x2="630.613" y2="485.907" gradientUnits="userSpaceOnUse">
<stop offset="0.145216" stop-color="#466B00"/>
<stop offset="0.919699" stop-color="#598900"/>
</linearGradient>
<linearGradient id="paint13_linear_1_9615" x1="559.599" y1="449.393" x2="585.324" y2="462.259" gradientUnits="userSpaceOnUse">
<stop offset="0.145216" stop-color="#466B00"/>
<stop offset="0.919699" stop-color="#598900"/>
</linearGradient>
<linearGradient id="paint14_linear_1_9615" x1="744.84" y1="486.869" x2="776.143" y2="502.061" gradientUnits="userSpaceOnUse">
<stop offset="0.145216" stop-color="#AAE738"/>
<stop offset="0.919699" stop-color="#89C31E"/>
</linearGradient>
<linearGradient id="paint15_linear_1_9615" x1="720.06" y1="454.005" x2="749.993" y2="468.743" gradientUnits="userSpaceOnUse">
<stop offset="0.145216" stop-color="#AAE738"/>
<stop offset="0.919699" stop-color="#89C31E"/>
</linearGradient>
<linearGradient id="paint16_linear_1_9615" x1="684.218" y1="423.992" x2="710.357" y2="436.895" gradientUnits="userSpaceOnUse">
<stop offset="0.145216" stop-color="#AAE738"/>
<stop offset="0.919699" stop-color="#89C31E"/>
</linearGradient>
<linearGradient id="paint17_linear_1_9615" x1="629.33" y1="408.893" x2="662.098" y2="424.996" gradientUnits="userSpaceOnUse">
<stop offset="0.145216" stop-color="#AAE738"/>
<stop offset="0.919699" stop-color="#89C31E"/>
</linearGradient>
<linearGradient id="paint18_linear_1_9615" x1="586.259" y1="409.843" x2="619.249" y2="426.137" gradientUnits="userSpaceOnUse">
<stop offset="0.145216" stop-color="#AAE738"/>
<stop offset="0.919699" stop-color="#89C31E"/>
</linearGradient>
</defs>
</svg>
