<svg width="23" height="23" viewBox="0 0 23 23" fill="none" xmlns="http://www.w3.org/2000/svg">
<g clip-path="url(#clip0_1_9683)">
<mask id="mask0_1_9683" style="mask-type:luminance" maskUnits="userSpaceOnUse" x="0" y="0" width="23" height="23">
<path d="M22.5 0.5H0.5V22.5H22.5V0.5Z" fill="white"/>
</mask>
<g mask="url(#mask0_1_9683)">
<path d="M11.5 22.5C17.5752 22.5 22.5 17.5752 22.5 11.5C22.5 5.42486 17.5752 0.5 11.5 0.5C5.42486 0.5 0.5 5.42486 0.5 11.5C0.5 17.5752 5.42486 22.5 11.5 22.5Z" fill="#F3BA2F"/>
<path d="M8.82975 10.4028L11.5 7.7325L14.1716 10.4041L15.7254 8.85038L11.5 4.625L7.276 8.849L8.82975 10.4028ZM4.625 11.5L6.17875 9.94625L7.7325 11.5L6.17875 13.0538L4.625 11.5ZM8.82975 12.5973L11.5 15.2675L14.1716 12.5959L15.7254 14.1489L11.5 18.375L7.276 14.151L7.27394 14.1489L8.82975 12.5973ZM15.2675 11.5L16.8212 9.94625L18.375 11.5L16.8212 13.0538L15.2675 11.5ZM13.0758 11.4986H13.0771V11.5L11.5 13.0771L9.92494 11.5027L9.92219 11.5L9.92494 11.4979L10.2006 11.2216L10.3347 11.0875L11.5 9.92288L13.0764 11.4993L13.0758 11.4986Z" fill="white"/>
</g>
</g>
<defs>
<clipPath id="clip0_1_9683">
<rect width="22" height="22" fill="white" transform="translate(0.5 0.5)"/>
</clipPath>
</defs>
</svg>
