<svg width="21" height="20" viewBox="0 0 21 20" fill="none" xmlns="http://www.w3.org/2000/svg">
<g clip-path="url(#clip0_107_1907)">
<mask id="mask0_107_1907" style="mask-type:luminance" maskUnits="userSpaceOnUse" x="0" y="0" width="21" height="20">
<path d="M20.0667 0H0.0666504V20H20.0667V0Z" fill="white"/>
</mask>
<g mask="url(#mask0_107_1907)">
<path d="M10.0667 20C15.5895 20 20.0667 15.5229 20.0667 10C20.0667 4.47715 15.5895 0 10.0667 0C4.5438 0 0.0666504 4.47715 0.0666504 10C0.0666504 15.5229 4.5438 20 10.0667 20Z" fill="black"/>
<path d="M7.63915 9.0025L10.0667 6.575L12.4954 9.00375L13.9079 7.59125L10.0667 3.75L6.22665 7.59L7.63915 9.0025ZM3.81665 10L5.22915 8.5875L6.64165 10L5.22915 11.4125L3.81665 10ZM7.63915 10.9975L10.0667 13.425L12.4954 10.9963L13.9079 12.4081L10.0667 16.25L6.22665 12.41L6.22478 12.4081L7.63915 10.9975ZM13.4916 10L14.9042 8.5875L16.3167 10L14.9042 11.4125L13.4916 10ZM11.4992 9.99875H11.5004V10L10.0667 11.4338L8.63478 10.0025L8.63228 10L8.63478 9.99813L8.8854 9.74688L9.00728 9.625L10.0667 8.56625L11.4998 9.99937L11.4992 9.99875Z" fill="white"/>
</g>
</g>
<defs>
<clipPath id="clip0_107_1907">
<rect width="20" height="20" fill="white" transform="translate(0.0666504)"/>
</clipPath>
</defs>
</svg>
