<svg width="27" height="27" viewBox="0 0 27 27" fill="none" xmlns="http://www.w3.org/2000/svg">
<circle cx="13.5" cy="13.5" r="13" fill="#FFD102"/>
<path d="M15.8218 21.7725C15.0027 21.7725 14.225 21.6193 13.4886 21.3129C12.7522 20.9982 12.1027 20.5593 11.5401 19.9962C10.9775 19.4414 10.5389 18.7955 10.2245 18.0585C9.91013 17.3215 9.75293 16.543 9.75293 15.7232V6.94122C9.75293 6.70107 9.7943 6.47748 9.87704 6.27046C9.96805 6.05515 10.088 5.86883 10.237 5.71149C10.3859 5.56243 10.5638 5.4465 10.7706 5.36369C10.9775 5.2726 11.1926 5.22705 11.416 5.22705C11.6394 5.22705 11.8545 5.2726 12.0613 5.36369C12.2682 5.4465 12.4461 5.56243 12.595 5.71149C12.7439 5.86883 12.8556 6.05515 12.9301 6.27046C13.0128 6.47748 13.0542 6.70107 13.0542 6.94122V10.7546C13.3107 10.4482 13.7161 10.1874 14.2705 9.97207C14.8083 9.75676 15.3254 9.64911 15.8218 9.64911C16.6327 9.64911 17.4063 9.80645 18.1426 10.1211C18.8873 10.4358 19.5368 10.8706 20.0911 11.4254C20.6455 11.9885 21.0799 12.6427 21.3943 13.388C21.7087 14.125 21.8659 14.9034 21.8659 15.7232C21.8659 16.543 21.7087 17.3215 21.3943 18.0585C21.0881 18.7872 20.6538 19.4331 20.0911 19.9962C19.5368 20.5511 18.8873 20.9858 18.1426 21.3005C17.4063 21.6152 16.6327 21.7725 15.8218 21.7725ZM15.8218 18.456C16.1941 18.456 16.5458 18.3856 16.8767 18.2448C17.216 18.104 17.5097 17.9094 17.7579 17.661C18.0144 17.4043 18.213 17.1103 18.3536 16.7791C18.4943 16.4478 18.5646 16.0959 18.5646 15.7232C18.5646 15.3506 18.4943 14.9986 18.3536 14.6674C18.213 14.3362 18.0144 14.0422 17.7579 13.7855C17.5097 13.537 17.216 13.3424 16.8767 13.2017C16.5458 13.0609 16.1941 12.9905 15.8218 12.9905C15.4495 12.9905 15.0937 13.0609 14.7545 13.2017C14.4235 13.3424 14.1339 13.537 13.8857 13.7855C13.6292 14.0422 13.4265 14.3362 13.2776 14.6674C13.1369 14.9986 13.0666 15.3506 13.0666 15.7232C13.0666 16.0959 13.1369 16.4478 13.2776 16.7791C13.4265 17.1103 13.6292 17.4043 13.8857 17.661C14.1339 17.9094 14.4235 18.104 14.7545 18.2448C15.0937 18.3856 15.4495 18.456 15.8218 18.456Z" fill="black"/>
<path fill-rule="evenodd" clip-rule="evenodd" d="M9.13778 5.60887C9.01433 5.50814 8.87427 5.42641 8.71759 5.36369C8.51074 5.2726 8.29562 5.22705 8.07223 5.22705C7.84883 5.22705 7.63371 5.2726 7.42687 5.36369C7.22002 5.4465 7.04213 5.56243 6.8932 5.71149C6.74427 5.86883 6.6243 6.05515 6.53329 6.27046C6.45055 6.47748 6.40918 6.70107 6.40918 6.94122V15.7232C6.40918 16.543 6.56638 17.3215 6.88079 18.0585C7.1952 18.7955 7.63371 19.4414 8.19634 19.9962C8.75896 20.5593 9.40846 20.9982 10.1448 21.3129C10.8212 21.5943 11.5324 21.7465 12.2785 21.7694C11.7648 21.4663 11.2936 21.1008 10.8665 20.6738C10.2153 20.031 9.7076 19.2818 9.34557 18.4331C8.97943 17.5748 8.79735 16.6686 8.79735 15.7231V6.94104C8.79735 6.5889 8.8585 6.244 8.98968 5.91576L8.99317 5.90702L8.99684 5.89834C9.03885 5.79895 9.08578 5.70235 9.13778 5.60887ZM14.3365 9.94584C14.3144 9.95434 14.2923 9.96302 14.2702 9.97189C14.1792 10.0072 14.0922 10.0438 14.0092 10.0816C13.5867 10.2741 13.2683 10.4984 13.0539 10.7544V9.67615C12.8641 9.65812 12.6721 9.64911 12.4781 9.64911C11.9816 9.64911 11.4645 9.75676 10.9267 9.97207C10.4018 10.1759 10.0105 10.4206 9.75263 10.7061V15.3121C9.78562 15.0891 9.84602 14.8742 9.93385 14.6674C10.0828 14.3362 10.2855 14.0422 10.542 13.7855C10.7902 13.537 11.0798 13.3424 11.4107 13.2017C11.75 13.0609 12.1057 12.9905 12.4781 12.9905C12.8504 12.9905 13.202 13.0609 13.533 13.2017C13.7584 13.2952 13.9637 13.4125 14.149 13.5536C14.3324 13.4125 14.5342 13.2951 14.7542 13.2015C15.0934 13.0607 15.4492 12.9903 15.8215 12.9903C16.1938 12.9903 16.5455 13.0607 16.8764 13.2015C17.2157 13.3423 17.5094 13.5369 17.7576 13.7853C18.0141 14.042 18.2127 14.336 18.3533 14.6672C18.4097 14.7999 18.4547 14.9359 18.4885 15.0752C18.4269 14.4906 18.281 13.9282 18.0505 13.388C17.7361 12.6427 17.3017 11.9885 16.7474 11.4254C16.193 10.8706 15.5435 10.4358 14.7989 10.1211C14.6464 10.0559 14.4922 9.99752 14.3365 9.94584ZM14.1337 21.539C13.9151 21.4763 13.7 21.4008 13.4883 21.3127C12.7519 20.9981 12.1024 20.5592 11.5398 19.9961C10.9772 19.4412 10.5386 18.7953 10.2242 18.0583C9.9808 17.4876 9.83161 16.8922 9.77666 16.2719C9.81182 16.446 9.86422 16.6151 9.93385 16.7791C10.0828 17.1103 10.2855 17.4043 10.542 17.661C10.7902 17.9094 11.0798 18.104 11.4107 18.2448C11.75 18.3856 12.1057 18.456 12.4781 18.456C12.8504 18.456 13.202 18.3856 13.533 18.2448C13.7585 18.1512 13.9639 18.0338 14.1492 17.8927C14.3326 18.0338 14.5343 18.1511 14.7542 18.2446C15.0934 18.3854 15.4492 18.4558 15.8215 18.4558C16.1938 18.4558 16.5455 18.3854 16.8764 18.2446C17.2157 18.1038 17.5094 17.9092 17.7576 17.6608C18.0141 17.4041 18.2127 17.1101 18.3533 16.7789C18.4097 16.6461 18.4548 16.51 18.4886 16.3706C18.4271 16.9555 18.281 17.5181 18.0505 18.0585C17.7444 18.7872 17.31 19.4331 16.7474 19.9962C16.193 20.5511 15.5435 20.9858 14.7989 21.3005C14.5804 21.3938 14.3587 21.4734 14.1337 21.539Z" fill="black"/>
</svg>
