<svg width="450" height="450" viewBox="0 0 450 450" fill="none" xmlns="http://www.w3.org/2000/svg">
<ellipse cx="224.519" cy="225" rx="224.519" ry="225" fill="#FFD527"/>
<path fill-rule="evenodd" clip-rule="evenodd" d="M231.604 368.182C303.152 368.182 361.153 310.034 361.153 238.305C361.153 166.575 303.152 108.427 231.604 108.427C207.087 108.427 184.16 115.255 164.613 127.117L139.299 90.6502C127.859 74.1694 102.055 82.2851 102.055 102.364V238.305C102.055 310.034 160.056 368.182 231.604 368.182ZM229.988 177.631C198.684 178.288 173.838 204.254 174.493 235.626C175.148 266.999 201.056 291.9 232.36 291.243C243.087 291.018 253.056 287.821 261.5 282.453L265.403 287.83C272.866 298.112 289.095 292.63 288.83 279.917L287.856 233.248C287.201 201.875 261.293 176.975 229.988 177.631Z" fill="black"/>
</svg>
