<svg width="25" height="25" viewBox="0 0 25 25" fill="none" xmlns="http://www.w3.org/2000/svg">
<circle cx="12.5" cy="12.5" r="11" fill="#FFD102" stroke="black" stroke-width="2"/>
<path d="M14.2865 18.8635C13.6565 18.8635 13.0582 18.7457 12.4917 18.51C11.9253 18.2679 11.4257 17.9303 10.9929 17.4971C10.5601 17.0703 10.2228 16.5735 9.98094 16.0066C9.73909 15.4396 9.61816 14.8408 9.61816 14.2102V7.45482C9.61816 7.27009 9.64999 7.0981 9.71363 6.93885C9.78364 6.77323 9.87593 6.62991 9.99049 6.50888C10.105 6.39422 10.2419 6.30504 10.401 6.24134C10.5601 6.17127 10.7256 6.13623 10.8974 6.13623C11.0693 6.13623 11.2348 6.17127 11.3939 6.24134C11.553 6.30504 11.6898 6.39422 11.8044 6.50888C11.9189 6.62991 12.0049 6.77323 12.0621 6.93885C12.1258 7.0981 12.1576 7.27009 12.1576 7.45482V10.3882C12.3549 10.1525 12.6668 9.95186 13.0932 9.78624C13.5069 9.62062 13.9047 9.53781 14.2865 9.53781C14.9103 9.53781 15.5053 9.65884 16.0718 9.9009C16.6446 10.143 17.1442 10.4774 17.5706 10.9042C17.9971 11.3373 18.3312 11.8406 18.573 12.4139C18.8149 12.9808 18.9358 13.5796 18.9358 14.2102C18.9358 14.8408 18.8149 15.4396 18.573 16.0066C18.3376 16.5671 18.0034 17.064 17.5706 17.4971C17.1442 17.9239 16.6446 18.2584 16.0718 18.5004C15.5053 18.7425 14.9103 18.8635 14.2865 18.8635ZM14.2865 16.3123C14.5729 16.3123 14.8434 16.2582 15.098 16.1499C15.359 16.0416 15.5849 15.8919 15.7758 15.7008C15.9731 15.5033 16.1259 15.2772 16.2341 15.0224C16.3423 14.7676 16.3964 14.4969 16.3964 14.2102C16.3964 13.9236 16.3423 13.6528 16.2341 13.398C16.1259 13.1432 15.9731 12.9171 15.7758 12.7196C15.5849 12.5285 15.359 12.3788 15.098 12.2705C14.8434 12.1623 14.5729 12.1081 14.2865 12.1081C14.0001 12.1081 13.7265 12.1623 13.4655 12.2705C13.2109 12.3788 12.9882 12.5285 12.7972 12.7196C12.5999 12.9171 12.444 13.1432 12.3294 13.398C12.2213 13.6528 12.1672 13.9236 12.1672 14.2102C12.1672 14.4969 12.2213 14.7676 12.3294 15.0224C12.444 15.2772 12.5999 15.5033 12.7972 15.7008C12.9882 15.8919 13.2109 16.0416 13.4655 16.1499C13.7265 16.2582 14.0001 16.3123 14.2865 16.3123Z" fill="black"/>
<path fill-rule="evenodd" clip-rule="evenodd" d="M9.14482 6.42994C9.04986 6.35245 8.94212 6.28959 8.8216 6.24134C8.66249 6.17127 8.49701 6.13623 8.32517 6.13623C8.15332 6.13623 7.98785 6.17127 7.82873 6.24134C7.66962 6.30504 7.53278 6.39422 7.41822 6.50888C7.30366 6.62991 7.21138 6.77323 7.14137 6.93885C7.07772 7.0981 7.0459 7.27009 7.0459 7.45482V14.2102C7.0459 14.8408 7.16682 15.4396 7.40868 16.0066C7.65053 16.5735 7.98785 17.0703 8.42063 17.4971C8.85342 17.9303 9.35304 18.2679 9.91948 18.51C10.4397 18.7264 10.9868 18.8435 11.5608 18.8612C11.1656 18.6279 10.8031 18.3468 10.4746 18.0183C9.97371 17.5239 9.58314 16.9475 9.30466 16.2948C9.02301 15.6345 8.88295 14.9375 8.88295 14.2101V7.45469C8.88295 7.18381 8.92999 6.9185 9.0309 6.66601L9.03359 6.65928L9.03641 6.65261C9.06872 6.57616 9.10482 6.50185 9.14482 6.42994ZM13.1438 9.76607C13.1269 9.77261 13.1099 9.77929 13.0928 9.78611C13.0228 9.8133 12.9559 9.84143 12.8921 9.87051C12.5671 10.0186 12.3221 10.1911 12.1572 10.3881V9.55862C12.0112 9.54475 11.8636 9.53781 11.7143 9.53781C11.3324 9.53781 10.9346 9.62062 10.5209 9.78624C10.1172 9.94306 9.81613 10.1313 9.61778 10.3509V13.894C9.64316 13.7224 9.68963 13.5571 9.75718 13.398C9.87175 13.1432 10.0277 12.9171 10.225 12.7196C10.4159 12.5285 10.6387 12.3788 10.8933 12.2705C11.1542 12.1623 11.4279 12.1081 11.7143 12.1081C12.0007 12.1081 12.2712 12.1623 12.5258 12.2705C12.6992 12.3425 12.8571 12.4328 12.9996 12.5413C13.1407 12.4327 13.2959 12.3424 13.4651 12.2704C13.7261 12.1621 13.9998 12.108 14.2862 12.108C14.5726 12.108 14.8431 12.1621 15.0976 12.2704C15.3586 12.3787 15.5845 12.5284 15.7755 12.7195C15.9728 12.917 16.1255 13.1431 16.2337 13.3979C16.277 13.5 16.3117 13.6046 16.3377 13.7117C16.2903 13.262 16.178 12.8294 16.0008 12.4139C15.7589 11.8406 15.4248 11.3373 14.9984 10.9042C14.5719 10.4774 14.0723 10.143 13.4995 9.9009C13.3822 9.85076 13.2636 9.80582 13.1438 9.76607ZM12.9878 18.6839C12.8197 18.6356 12.6542 18.5776 12.4914 18.5098C11.9249 18.2678 11.4253 17.9302 10.9925 17.497C10.5597 17.0702 10.2224 16.5734 9.98056 16.0064C9.7933 15.5675 9.67854 15.1094 9.63627 14.6323C9.66331 14.7662 9.70362 14.8962 9.75718 15.0224C9.87175 15.2772 10.0277 15.5033 10.225 15.7008C10.4159 15.8919 10.6387 16.0416 10.8933 16.1499C11.1542 16.2582 11.4279 16.3123 11.7143 16.3123C12.0007 16.3123 12.2712 16.2582 12.5258 16.1499C12.6992 16.0779 12.8572 15.9876 12.9998 15.879C13.1408 15.9875 13.296 16.0778 13.4651 16.1497C13.7261 16.258 13.9998 16.3122 14.2862 16.3122C14.5726 16.3122 14.8431 16.258 15.0976 16.1497C15.3586 16.0415 15.5845 15.8918 15.7755 15.7007C15.9728 15.5032 16.1255 15.2771 16.2337 15.0223C16.2771 14.9201 16.3117 14.8154 16.3377 14.7082C16.2904 15.1581 16.1781 15.5909 16.0008 16.0066C15.7653 16.5671 15.4312 17.064 14.9984 17.4971C14.5719 17.9239 14.0723 18.2584 13.4995 18.5004C13.3315 18.5722 13.1609 18.6334 12.9878 18.6839Z" fill="black"/>
</svg>
