<svg width="27" height="27" viewBox="0 0 27 27" fill="none" xmlns="http://www.w3.org/2000/svg">
<circle cx="13.5" cy="13.7046" r="13" fill="black"/>
<path d="M19.9164 18.2673C19.2841 20.7165 16.2825 19.1502 14.8186 19.4521C13.4004 19.7483 11.6688 22.1348 9.89175 20.3577C8.34819 18.8198 10.8202 14.1151 13.5883 13.5398C16.3565 12.9588 20.4689 16.1314 19.9164 18.2673Z" fill="#CAFF04"/>
<path d="M19.8249 18.2331C19.2098 20.4431 16.6467 19.2014 15.0689 19.321C14.2259 19.3837 13.5254 19.9874 12.8191 20.3975C11.8508 20.9557 10.7572 21.1836 9.9199 20.2494C9.3845 19.6514 9.46424 18.7458 9.6522 18.0224C9.89142 17.0997 10.3699 16.2396 10.9565 15.4934C11.5489 14.7473 12.3121 14.0581 13.2292 13.7391C14.1291 13.4259 15.1145 13.574 15.9973 13.8929C17.0625 14.2802 18.0535 14.9296 18.8282 15.7554C19.4205 16.3934 20.0471 17.3104 19.8249 18.2331C19.7964 18.3527 19.9787 18.4154 20.0072 18.2958C20.1952 17.4984 19.8249 16.718 19.3579 16.0915C18.7256 15.2485 17.8428 14.5707 16.9087 14.0866C16.0144 13.6252 14.9949 13.3006 13.981 13.386C13.0013 13.4657 12.1356 14.0011 11.4464 14.6675C10.6945 15.3909 10.0965 16.2909 9.70346 17.2591C9.39019 18.0338 9.16236 18.9736 9.44145 19.7938C9.72624 20.6311 10.6661 21.1893 11.5375 21.0867C12.6026 20.9614 13.4171 20.1526 14.3569 19.714C15.3765 19.2413 16.5669 19.697 17.632 19.7539C18.7541 19.8166 19.6882 19.4463 20.0072 18.2958C20.0414 18.1762 19.8591 18.1192 19.8249 18.2331Z" fill="#CAFF04"/>
<path d="M11.5249 12.0659C12.3978 11.5519 12.5826 10.2475 11.9378 9.15243C11.2929 8.05733 10.0626 7.58621 9.18978 8.10016C8.31695 8.61412 8.13212 9.91852 8.77696 11.0136C9.4218 12.1087 10.6521 12.5798 11.5249 12.0659Z" fill="#CAFF04"/>
<path d="M11.6682 8.92082C12.2833 9.75241 12.5567 11.1593 11.6226 11.8883C10.7739 12.5491 9.62337 11.9966 9.04809 11.2504C8.43294 10.4473 8.18802 9.09739 9.02531 8.34555C9.86829 7.57661 11.0587 8.16898 11.6682 8.92082C11.7422 9.01765 11.8846 8.88665 11.8106 8.79552C11.2695 8.11771 10.3695 7.5994 9.48097 7.87279C8.6266 8.1348 8.23359 9.02904 8.30764 9.87203C8.38738 10.8175 8.98544 11.7289 9.83981 12.1504C10.586 12.5149 11.503 12.4237 12.027 11.7459C12.7048 10.8688 12.4143 9.62141 11.8049 8.79552C11.7365 8.69299 11.5941 8.824 11.6682 8.92082Z" fill="#CAFF04"/>
<path d="M17.1525 9.10535C17.192 7.82883 16.4084 6.76877 15.4023 6.73763C14.3962 6.7065 13.5485 7.71609 13.509 8.99261C13.4695 10.2691 14.2531 11.3292 15.2592 11.3603C16.2654 11.3915 17.113 10.3819 17.1525 9.10535Z" fill="#CAFF04"/>
<path d="M17.0399 9.36517C16.8975 10.3449 16.1343 11.5068 14.9894 11.2277C13.93 10.9714 13.5028 9.69553 13.6281 8.72724C13.7478 7.79313 14.4483 6.70523 15.5192 6.83623C16.6982 6.97863 17.1425 8.35132 17.0399 9.36517C17.0285 9.48479 17.2165 9.49618 17.2279 9.37657C17.3247 8.45384 17.0285 7.38303 16.1856 6.8761C15.4451 6.43183 14.5679 6.66536 14.0268 7.30329C13.3946 8.04944 13.2522 9.17152 13.5826 10.0828C13.8674 10.8518 14.5509 11.5239 15.4223 11.4555C16.476 11.3758 17.0855 10.3278 17.2222 9.38226C17.245 9.25695 17.057 9.24556 17.0399 9.36517Z" fill="#CAFF04"/>
<path d="M21.4675 12.4392C21.6465 11.5158 21.1882 10.6504 20.444 10.5061C19.6998 10.3618 18.9513 10.9934 18.7723 11.9167C18.5933 12.8401 19.0516 13.7056 19.7958 13.8498C20.5401 13.9941 21.2885 13.3625 21.4675 12.4392Z" fill="#CAFF04"/>
<path d="M21.2999 12.7086C21.0322 13.3978 20.2975 14.0642 19.5228 13.6541C18.8279 13.2839 18.7026 12.3213 18.9475 11.6435C19.1868 10.9714 19.8987 10.3392 20.6449 10.6695C21.4195 11.0056 21.5277 11.9966 21.2999 12.7086C21.26 12.8282 21.4423 12.8852 21.4822 12.7713C21.7442 11.9682 21.5847 10.8632 20.7189 10.4873C19.8703 10.117 19.0387 10.8062 18.7653 11.5809C18.4805 12.3783 18.6741 13.4946 19.5285 13.8649C20.3943 14.2408 21.186 13.5402 21.4822 12.7713C21.5221 12.6574 21.3455 12.5947 21.2999 12.7086Z" fill="#CAFF04"/>
<path d="M7.86706 16.3372C8.4916 15.9075 8.56571 14.9311 8.0326 14.1562C7.49948 13.3814 6.56102 13.1016 5.93649 13.5313C5.31195 13.961 5.23784 14.9375 5.77095 15.7123C6.30407 16.4871 7.24253 16.7669 7.86706 16.3372Z" fill="#CAFF04"/>
<path d="M5.89367 16.0179C6.47464 16.6046 7.4828 16.9292 8.12073 16.24C8.75297 15.5622 8.48526 14.463 7.90429 13.8421C7.34041 13.2384 6.30377 12.9422 5.67723 13.62C5.0393 14.3206 5.32978 15.3857 5.89367 16.0179C5.97341 16.109 6.11581 15.9837 6.03606 15.8926C5.55762 15.3515 5.26713 14.4516 5.76267 13.8193C6.29807 13.1415 7.26066 13.432 7.76759 13.9731C8.25743 14.4914 8.51374 15.38 8.06947 16.0065C7.54545 16.7413 6.56577 16.428 6.03606 15.8926C5.95063 15.8072 5.80823 15.9325 5.89367 16.0179Z" fill="#CAFF04"/>
</svg>
