<svg width="277" height="40" viewBox="0 0 277 40" fill="none" xmlns="http://www.w3.org/2000/svg">
<mask id="mask0_1_10596" style="mask-type:luminance" maskUnits="userSpaceOnUse" x="0" y="0" width="40" height="40">
<path d="M39.3443 0H0V40H39.3443V0Z" fill="white"/>
</mask>
<g mask="url(#mask0_1_10596)">
<path fill-rule="evenodd" clip-rule="evenodd" d="M1.27726 9.43344L0 10.9185V34.4262C0 37.3235 2.34867 39.6721 5.2459 39.6721H34.0984C36.9956 39.6721 39.3443 37.3235 39.3443 34.4262V14.3193C39.3443 11.4221 36.9956 9.0734 34.0984 9.0734H27.921V8.84746L28.5773 8.46117C28.9777 8.22549 29.2235 7.79556 29.2235 7.33094V1.56674L27.949 0.327881L1.27726 9.43344Z" fill="black"/>
<path d="M28.7255 31.2049C27.7981 34.8103 23.3947 32.5046 21.2473 32.9489C19.1667 33.3849 16.6266 36.8981 14.0197 34.2821C11.7553 32.0182 15.3816 25.0925 19.4425 24.2456C23.5033 23.3904 29.536 28.0607 28.7255 31.2049Z" fill="white"/>
<path fill-rule="evenodd" clip-rule="evenodd" d="M25.7126 26.4862C23.8341 25.0598 21.4077 24.1665 19.5102 24.5661L19.5095 24.5662C17.6162 24.9611 15.7589 26.8051 14.6485 28.8864C14.0977 29.9189 13.7476 30.9803 13.6674 31.9059C13.5869 32.8358 13.7808 33.5792 14.2516 34.0499L14.2521 34.0503C14.8548 34.6551 15.4282 34.8838 15.9727 34.9109C16.5292 34.9386 17.0968 34.7579 17.6853 34.466C18.1302 34.2452 18.5619 33.9746 18.9979 33.7013C19.1432 33.6103 19.2889 33.519 19.4358 33.4291C20.0056 33.0803 20.5982 32.7496 21.1802 32.6277L21.181 32.6275C21.7797 32.5036 22.5103 32.5739 23.2348 32.6706C23.4156 32.6947 23.5969 32.7207 23.778 32.7466C24.3449 32.8276 24.9109 32.9085 25.4595 32.9344C26.1819 32.9686 26.8171 32.9026 27.3175 32.6443C27.8002 32.3951 28.1963 31.9465 28.4082 31.1229L28.4082 31.1227C28.5807 30.4535 28.3973 29.664 27.9063 28.8379C27.4178 28.0158 26.6448 27.1941 25.7126 26.4862ZM29.0432 31.2864C29.2759 30.3835 29.0092 29.4101 28.47 28.5029C27.9285 27.5917 27.0914 26.7098 26.1092 25.964C24.1589 24.4831 21.5388 23.469 19.3757 23.9243C17.2082 24.3763 15.2219 26.4185 14.07 28.5778C13.4896 29.6656 13.1039 30.813 13.0142 31.8493C12.9248 32.8808 13.1265 33.8519 13.7876 34.5132C14.4883 35.2163 15.2101 35.5295 15.9401 35.5658C16.6581 35.6016 17.3442 35.3672 17.9767 35.0534C18.4537 34.8167 18.9251 34.5212 19.3675 34.2438C19.5075 34.156 19.6447 34.07 19.7782 33.9883C20.351 33.6377 20.856 33.3657 21.3141 33.2696C21.789 33.1714 22.4141 33.2226 23.148 33.3206C23.315 33.3429 23.4871 33.3675 23.6627 33.3926C24.2361 33.4747 24.8458 33.5619 25.4285 33.5894C26.1914 33.6255 26.9651 33.5642 27.6183 33.2269C28.2892 32.8806 28.7913 32.2654 29.0432 31.2864Z" fill="white"/>
<path fill-rule="evenodd" clip-rule="evenodd" d="M19.9922 23.6922C21.5647 23.5593 23.1242 24.065 24.4649 24.7591L24.4654 24.7593C25.8691 25.4894 27.2064 26.5165 28.1696 27.8053L28.1702 27.8061C28.8683 28.7458 29.4808 29.9879 29.1844 31.2971C29.1822 31.3078 29.1797 31.3186 29.1768 31.3294C29.175 31.3367 29.173 31.3439 29.1708 31.3511C28.9137 32.2667 28.4036 32.8962 27.7182 33.2762C27.0388 33.6529 26.2165 33.7685 25.3569 33.7203C24.9485 33.6984 24.5323 33.6384 24.1249 33.5745C24.0484 33.5625 23.9723 33.5504 23.8966 33.5383C23.5637 33.4853 23.2375 33.4334 22.9117 33.3971C22.1127 33.3081 21.3752 33.3218 20.7096 33.6313C20.2495 33.8468 19.8209 34.1192 19.3715 34.4048C19.1673 34.5347 18.9587 34.6672 18.7409 34.7984C18.0638 35.2063 17.3255 35.58 16.4732 35.6806C15.049 35.8487 13.5194 34.9436 13.0494 33.557M19.9922 23.6922C18.4517 23.8181 17.1144 24.6595 16.0731 25.6699C14.9358 26.768 14.0332 28.1317 13.4403 29.5976L13.4402 29.5979C12.9736 30.7556 12.6007 32.2335 13.0494 33.5569M28.2747 31.0723C28.4124 30.4912 28.2898 29.8949 28.0132 29.3144C27.7354 28.7315 27.3125 28.187 26.8898 27.7302C25.7893 26.5529 24.3795 25.6259 22.8652 25.0733C21.6051 24.6165 20.2441 24.4223 19.0245 24.8483L19.0244 24.8483C17.7616 25.2891 16.6894 26.2508 15.8401 27.324C15.0005 28.3957 14.3236 29.6215 13.9865 30.9261L13.9865 30.9262C13.8532 31.4407 13.7631 32.0034 13.7948 32.5328C13.8263 33.0603 13.9771 33.535 14.3064 33.9042C14.8558 34.5191 15.4716 34.7402 16.1097 34.7274C16.764 34.7143 17.4642 34.4537 18.1502 34.0569C18.3892 33.9176 18.6286 33.7622 18.8785 33.5999L18.9152 33.5761C19.1759 33.4069 19.4475 33.2315 19.7271 33.0716C20.2856 32.7525 20.9014 32.4803 21.5904 32.4288C22.2093 32.3817 22.9122 32.4688 23.5999 32.5639C23.6776 32.5747 23.7552 32.5856 23.8326 32.5964C24.4542 32.6835 25.0648 32.769 25.6402 32.7812C26.2868 32.7948 26.8452 32.7135 27.2865 32.4662C27.7135 32.2269 28.0685 31.8111 28.2747 31.0723Z" fill="white"/>
<path d="M16.4169 22.0754C17.6973 21.3188 17.9684 19.3986 17.0225 17.7865C16.0765 16.1744 14.2717 15.4809 12.9913 16.2375C11.7108 16.9941 11.4397 18.9143 12.3857 20.5264C13.3316 22.1384 15.1365 22.832 16.4169 22.0754Z" fill="white"/>
<path fill-rule="evenodd" clip-rule="evenodd" d="M13.1572 16.5206C12.0894 17.1515 11.7762 18.8402 12.6679 20.3598C13.5596 21.8794 15.1831 22.4238 16.2509 21.7929C17.3187 21.1619 17.6319 19.4732 16.7402 17.9536C15.8485 16.434 14.2249 15.8896 13.1572 16.5206ZM12.1034 20.6934C11.1031 18.9889 11.3322 16.8372 12.8253 15.955C14.3184 15.0728 16.3045 15.9154 17.3047 17.62C18.3049 19.3246 18.0759 21.4762 16.5828 22.3584C15.0897 23.2407 13.1036 22.398 12.1034 20.6934Z" fill="white"/>
<path fill-rule="evenodd" clip-rule="evenodd" d="M13.3216 15.5897C14.8099 15.1302 16.2579 16.0084 17.0923 17.0572L17.0873 17.0611C17.0899 17.0646 17.0924 17.0682 17.0949 17.0717C17.1143 17.0981 17.1334 17.1248 17.1524 17.1518C17.2297 17.3123 17.1925 17.4765 17.1195 17.5949C17.4839 18.2016 17.7351 18.9388 17.7731 19.6696C17.8091 20.3628 17.6521 21.0688 17.199 21.6398C17.199 21.6398 17.199 21.6398 17.1989 21.6398C17.0759 21.7949 16.931 21.9401 16.7621 22.0723L16.7618 22.0725C16.0345 22.6407 15.1818 22.6774 14.4211 22.4335C14.253 22.3796 14.0883 22.3118 13.9287 22.2324C13.9287 22.2323 13.9286 22.2323 13.9286 22.2323C13.3728 21.9557 12.8791 21.538 12.5232 21.0748L12.5226 21.074C12.0574 20.4645 11.7262 19.6608 11.6498 18.8501L11.3704 18.8746C11.3704 18.8744 11.3703 18.8742 11.3703 18.874C11.3703 18.8738 11.3703 18.8736 11.3703 18.8734L11.6498 18.85C11.646 18.8097 11.6428 18.7695 11.6403 18.7292C11.5867 17.8743 11.8234 16.9929 12.5294 16.3562C12.8025 16.1064 13.0972 15.9416 13.4007 15.8461L13.3215 15.5897C13.3216 15.5897 13.3216 15.5897 13.3216 15.5897ZM13.4007 15.8461L13.3218 15.5896C13.3218 15.5896 13.3217 15.5896 13.3216 15.5897M13.4007 15.8461C13.9001 15.6889 14.4232 15.7197 14.9126 15.8693C15.5401 16.0611 16.1263 16.4498 16.5819 16.9064C16.6316 16.8878 16.6873 16.8769 16.7478 16.8787C16.8893 16.8827 17.0081 16.9545 17.0857 17.0589L17.0905 17.055C17.1163 17.0868 17.1367 17.1192 17.1524 17.1518C18.0473 18.4253 18.5119 20.3775 17.413 21.8046L17.4129 21.8046C16.5259 22.956 14.9977 23.0813 13.8003 22.4943L13.7992 22.4937C12.4386 21.8201 11.4967 20.3749 11.3703 18.874C11.2535 17.5372 11.8716 16.036 13.3216 15.5897M16.3125 17.1619C15.5619 16.387 14.5094 15.9092 13.515 16.2162L13.5147 16.2163C13.2326 16.3031 12.9876 16.4475 12.7821 16.6342C12.782 16.6342 12.7819 16.6343 12.7818 16.6344C12.2178 17.1468 11.9502 17.9784 12.0236 18.8174L12.0237 18.8185C12.0849 19.547 12.3735 20.2609 12.8214 20.8458L13.0432 20.6753C13.0433 20.6755 13.0434 20.6756 13.0436 20.6758C13.0437 20.6759 13.0437 20.676 13.0438 20.6761L12.8215 20.8459C13.1621 21.2906 13.5947 21.6607 14.0895 21.9057C14.9147 22.3101 15.8578 22.2788 16.5259 21.7707L16.3578 21.556C16.3578 21.556 16.3579 21.556 16.3579 21.5559C16.358 21.5559 16.358 21.5558 16.3581 21.5558L16.5259 21.7706C16.6607 21.6681 16.7843 21.5462 16.8934 21.4045M16.3672 17.6461C15.9541 17.137 15.3486 16.6882 14.7209 16.4964C14.1024 16.3073 13.4852 16.3703 12.9712 16.8407L12.9693 16.8425L12.9693 16.8425C12.4477 17.3124 12.2502 17.9777 12.2947 18.6882C12.3395 19.4026 12.6297 20.1334 13.0436 20.6758C13.4294 21.1778 14.0086 21.6126 14.6213 21.809C15.2266 22.0032 15.8403 21.9603 16.3579 21.5559C16.9377 21.1017 17.156 20.4318 17.1182 19.7035C17.0802 18.9715 16.7819 18.2112 16.3672 17.6461ZM16.3125 17.1619C16.2495 17.2998 16.2408 17.4781 16.364 17.6419L16.3125 17.1619ZM16.364 17.6419C16.3651 17.6433 16.3661 17.6447 16.3672 17.6461C16.368 17.6472 16.3688 17.6482 16.3697 17.6492C16.455 17.7583 16.5813 17.8243 16.7218 17.8238C16.7497 17.8237 16.7765 17.821 16.8022 17.8162" fill="white"/>
<path d="M24.6709 17.7173C24.7291 15.8381 23.5797 14.2778 22.1037 14.2321C20.6278 14.1864 19.3841 15.6727 19.326 17.5519C19.2678 19.431 20.4172 20.9914 21.8932 21.037C23.3691 21.0827 24.6128 19.5964 24.6709 17.7173Z" fill="white"/>
<path fill-rule="evenodd" clip-rule="evenodd" d="M19.6541 17.5623C19.5992 19.3386 20.6781 20.6717 21.9038 20.7096C23.1294 20.7476 24.2887 19.4837 24.3437 17.7074C24.3986 15.9311 23.3197 14.598 22.094 14.5601C20.8684 14.5222 19.7091 15.786 19.6541 17.5623ZM21.8835 21.365C20.1572 21.3116 18.9374 19.524 18.9987 17.542C19.06 15.5601 20.3881 13.8513 22.1143 13.9047C23.8406 13.9581 25.0604 15.7457 24.9991 17.7277C24.9377 19.7097 23.6097 21.4185 21.8835 21.365Z" fill="white"/>
<path fill-rule="evenodd" clip-rule="evenodd" d="M19.8355 14.8533C20.7135 13.8146 22.1732 13.4034 23.4218 14.1552L23.4221 14.1554C24.81 14.9929 25.257 16.7244 25.1079 18.1511L25.1009 18.1504C25.0999 18.1591 25.0987 18.1679 25.0973 18.1766C25.0931 18.2052 25.0887 18.2339 25.084 18.2626C25.0272 18.4294 24.8882 18.5226 24.7505 18.5553C24.5885 19.2113 24.2637 19.8822 23.7939 20.3889C23.3644 20.8522 22.8021 21.1869 22.137 21.2279L22.1588 21.5043C22.1585 21.5043 22.1582 21.5043 22.1579 21.5043L22.1369 21.228C21.9096 21.242 21.6704 21.2217 21.4204 21.1606C20.5217 20.9423 19.9089 20.2922 19.5513 19.5346C19.4952 19.4157 19.445 19.2936 19.4006 19.1691C19.4006 19.169 19.4006 19.1689 19.4005 19.1688C19.1631 18.5025 19.0921 17.7689 19.1758 17.1192L19.501 17.1611L19.1758 17.1196C19.2669 16.4053 19.5692 15.6332 20.0556 15.0394C20.0556 15.0394 20.0557 15.0394 20.0557 15.0394C20.0758 15.0148 20.0963 14.9905 20.1171 14.9665C20.6443 14.3584 21.3946 13.9391 22.3148 14.052C22.6819 14.0965 23.0053 14.2119 23.2871 14.3789C23.2871 14.379 23.2871 14.379 23.2872 14.379C23.7751 14.6682 24.1384 15.1121 24.3886 15.6107C24.7108 16.2527 24.8577 17.004 24.8548 17.6957C24.9056 17.7201 24.9546 17.7553 24.9966 17.8037C25.0828 17.9027 25.114 18.0271 25.1013 18.1473L25.1082 18.148C25.1042 18.1895 25.0959 18.2276 25.084 18.2626C24.967 18.9779 24.6797 19.7285 24.2176 20.3292C23.733 20.9592 23.0443 21.437 22.1579 21.5043C20.6764 21.6204 19.572 20.477 19.1266 19.2702L19.1258 19.2681L19.1258 19.2681C18.6064 17.8302 18.8232 16.0521 19.8354 14.8534L19.8355 14.8533ZM24.4795 17.6813C24.4967 16.5085 24.057 15.3045 23.0835 14.7169C22.8222 14.5597 22.5458 14.469 22.2676 14.4388C22.2676 14.4388 22.2676 14.4388 22.2676 14.4388C21.5621 14.3622 20.8453 14.6746 20.3364 15.2765M24.4795 17.6813C24.3377 17.7344 24.2101 17.8551 24.1815 18.0532C24.1812 18.0556 24.1809 18.0579 24.1805 18.0603C24.2488 17.3693 24.1304 16.558 23.8025 15.9048C23.4767 15.2556 22.9622 14.791 22.2356 14.7029L22.2351 14.7029C21.5845 14.623 21.0357 14.908 20.6125 15.3961C20.1845 15.8898 19.9068 16.5715 19.8263 17.2026L19.8262 17.2031C19.7418 17.8573 19.8446 18.6197 20.1443 19.2547C20.4426 19.8867 20.9201 20.3643 21.5754 20.5234L21.5759 20.5235C22.2734 20.6942 22.8575 20.4345 23.3131 19.9431C23.7754 19.4444 24.0829 18.7243 24.1805 18.0603M24.4466 18.0946L24.1796 18.0693C24.1666 18.2068 24.2123 18.3389 24.3088 18.4346C24.3281 18.4538 24.3486 18.4707 24.3698 18.4854C24.2429 19.0034 24.0163 19.5153 23.6978 19.9294C23.2988 20.4482 22.7676 20.8004 22.1082 20.8505L22.1073 20.8505C21.9002 20.8668 21.6996 20.849 21.5078 20.802C21.5078 20.802 21.5078 20.802 21.5077 20.802C20.7046 20.6051 20.0572 19.8969 19.7422 19.0442C19.5286 18.4526 19.462 17.7978 19.5412 17.1663C19.5412 17.1663 19.5412 17.1663 19.5412 17.1663M24.8305 18.1472C24.8306 18.147 24.8306 18.1467 24.8306 18.1464L24.5061 18.1002L24.8305 18.1472ZM24.4484 18.0948C24.4484 18.0946 24.4484 18.0945 24.4484 18.0944L24.506 18.1002L24.4484 18.0948ZM24.4466 18.0942C24.4466 18.0944 24.4466 18.0945 24.4466 18.0946L24.4466 18.0942Z" fill="white"/>
<path d="M31.0014 22.6248C31.264 21.2656 30.5918 19.9915 29.5 19.7792C28.4082 19.5668 27.3103 20.4965 27.0477 21.8558C26.7851 23.215 27.4573 24.4891 28.5491 24.7014C29.6409 24.9138 30.7388 23.9841 31.0014 22.6248Z" fill="white"/>
<path fill-rule="evenodd" clip-rule="evenodd" d="M27.3693 21.9183C27.1276 23.1691 27.7592 24.2138 28.611 24.3795C29.4629 24.5452 30.4377 23.813 30.6793 22.5622C30.9209 21.3114 30.2894 20.2667 29.4375 20.101C28.5857 19.9353 27.6109 20.6675 27.3693 21.9183ZM28.4867 25.0233C27.155 24.7643 26.4421 23.2608 26.7256 21.7931C27.0091 20.3254 28.2302 19.1982 29.5619 19.4572C30.8936 19.7163 31.6065 21.2197 31.323 22.6874C31.0394 24.1551 29.8184 25.2824 28.4867 25.0233Z" fill="white"/>
<path fill-rule="evenodd" clip-rule="evenodd" d="M27.9755 19.6489C28.5599 19.2736 29.2918 19.1268 30.0334 19.4514C30.78 19.7768 31.2101 20.4157 31.3988 21.1113C31.5852 21.7982 31.5441 22.5612 31.337 23.2051C31.3352 23.2107 31.3334 23.2164 31.3314 23.2221C31.3285 23.2303 31.3255 23.2383 31.3222 23.2463C31.0831 23.8607 30.6471 24.4546 30.082 24.8252C29.5027 25.205 28.7784 25.3528 28.0249 25.0245C27.2872 24.7036 26.8489 24.0635 26.6537 23.3672C26.4595 22.6746 26.4963 21.9013 26.7271 21.2523C26.9499 20.6192 27.3987 20.0194 27.9755 19.6489ZM30.4451 22.9127C30.5937 22.4408 30.6298 21.8808 30.5075 21.3933C30.3857 20.9082 30.1154 20.5178 29.6627 20.3207L29.6604 20.3198C29.2364 20.1314 28.8205 20.2096 28.452 20.4561C28.0751 20.7083 27.7671 21.1279 27.6126 21.5635L27.6121 21.565L27.612 21.565C27.4533 22.006 27.4142 22.5451 27.5277 23.0286C27.6407 23.5097 27.8961 23.9074 28.3017 24.1243C28.7461 24.3603 29.1723 24.2937 29.5523 24.049C29.9423 23.7978 30.2684 23.3637 30.4451 22.9127Z" fill="white"/>
<path d="M11.0491 28.3634C11.9653 27.7308 12.074 26.2934 11.2919 25.1528C10.5099 24.0122 9.13317 23.6003 8.21699 24.2328C7.30081 24.8654 7.19209 26.3028 7.97416 27.4435C8.75622 28.5841 10.1329 28.996 11.0491 28.3634Z" fill="white"/>
<path fill-rule="evenodd" clip-rule="evenodd" d="M8.40299 24.5031C7.68752 24.9971 7.52532 26.2081 8.24456 27.2571C8.9638 28.3061 10.1488 28.5869 10.8643 28.0929C11.5798 27.5989 11.742 26.3879 11.0227 25.339C10.3035 24.29 9.11848 24.0091 8.40299 24.5031ZM7.70496 27.6296C6.86008 26.3974 6.91532 24.7335 8.0322 23.9623C9.14908 23.1912 10.7174 23.7342 11.5623 24.9664C12.4072 26.1987 12.352 27.8626 11.2351 28.6337C10.1182 29.4048 8.54985 28.8619 7.70496 27.6296Z" fill="white"/>
<path fill-rule="evenodd" clip-rule="evenodd" d="M9.55564 23.4958C10.2322 23.6036 10.8837 23.9737 11.343 24.467C11.343 24.4671 11.3431 24.4671 11.3431 24.4672L11.1395 24.6567C11.1404 24.6577 11.1413 24.6587 11.1422 24.6596L10.9026 24.8834L11.1412 24.6586C11.5418 25.084 11.8455 25.6579 11.9599 26.259C12.0748 26.8624 12.0019 27.5159 11.6132 28.0659L11.6127 28.0667C11.564 28.1351 11.5131 28.1984 11.4601 28.2569L11.6616 28.4428C11.6615 28.443 11.6613 28.4431 11.6612 28.4433C11.661 28.4434 11.6609 28.4436 11.6608 28.4437L11.4599 28.257C11.003 28.7608 10.3941 28.9016 9.81089 28.8186C9.32077 28.7489 8.84128 28.5228 8.45 28.2223C8.39303 28.2495 8.32787 28.2669 8.25703 28.268C8.14049 28.2698 8.02908 28.2266 7.94204 28.1457C7.93472 28.1384 7.92744 28.1311 7.9202 28.1238L8.15357 27.8935L7.92133 28.1249C7.92095 28.1246 7.92058 28.1242 7.9202 28.1238C7.918 28.1216 7.91583 28.1193 7.91368 28.1171C7.91167 28.1149 7.90968 28.1127 7.90771 28.1104M7.88996 28.0903C7.44709 27.584 7.11088 26.9103 7.00924 26.2136C6.90541 25.5018 7.0457 24.7466 7.59325 24.1432L7.5949 24.1414L7.59491 24.1414C8.14253 23.5469 8.87027 23.3866 9.55564 23.4958M8.36246 27.709L8.37479 27.6969L8.37357 27.698L8.36246 27.709ZM8.39892 27.6769L8.36246 27.709L8.39908 27.6771C8.39903 27.677 8.39897 27.677 8.39892 27.6769ZM8.60237 27.4853C8.94849 27.8336 9.4357 28.1029 9.90325 28.1694C10.3572 28.234 10.7771 28.1101 11.0779 27.6871C11.3407 27.315 11.4056 26.8534 11.3158 26.3816C11.2255 25.9074 10.9819 25.4458 10.6639 25.1082L10.6629 25.1071L10.6629 25.1071C10.3362 24.7572 9.86247 24.4912 9.39893 24.4216C8.94799 24.3538 8.52562 24.4707 8.2194 24.8593C7.9279 25.2329 7.85787 25.694 7.94829 26.1724C8.03892 26.652 8.28853 27.1267 8.60237 27.4853ZM7.94204 28.1457C8.40677 28.6082 9.04011 28.9725 9.70093 29.0846C10.3832 29.2003 11.1053 29.0456 11.6612 28.4433C12.2071 27.8557 12.3528 27.0952 12.254 26.3793C12.1558 25.6669 11.8138 24.972 11.343 24.467C11.3429 24.467 11.3429 24.467 11.3429 24.4669" fill="white"/>
<path d="M27.921 8.84752L2.14794 10.7592C0.988277 10.8452 0.0341082 9.69943 1.07233 9.17568C1.15742 9.13275 1.24642 9.09568 1.3389 9.06508L27.5 0.406528C28.3487 0.12563 29.2235 0.757596 29.2235 1.65158V7.331C29.2235 7.79562 28.9777 8.22555 28.5773 8.46123L27.921 8.84752Z" fill="#494949"/>
</g>
<path d="M48.2562 32V9.6H57.9842C59.4989 9.6 60.7682 9.824 61.7922 10.272C62.8162 10.6987 63.5949 11.328 64.1282 12.16C64.6829 12.9707 64.9602 13.9733 64.9602 15.168C64.9602 16.4053 64.6296 17.4507 63.9682 18.304C63.3282 19.1573 62.4216 19.7547 61.2482 20.096L61.2162 19.424C62.1976 19.6587 63.0509 20.0533 63.7762 20.608C64.5229 21.1413 65.0989 21.8027 65.5042 22.592C65.9309 23.3813 66.1442 24.2773 66.1442 25.28C66.1442 26.3893 65.9522 27.3707 65.5682 28.224C65.2056 29.056 64.6722 29.76 63.9682 30.336C63.2856 30.8907 62.4642 31.3067 61.5042 31.584C60.5442 31.8613 59.4776 32 58.3042 32H48.2562ZM52.8642 27.84H58.1122C59.1362 27.84 59.9362 27.6053 60.5122 27.136C61.0882 26.6453 61.3762 25.9627 61.3762 25.088C61.3762 24.5333 61.2376 24.064 60.9602 23.68C60.6829 23.296 60.2882 23.008 59.7762 22.816C59.2642 22.624 58.6562 22.528 57.9522 22.528H52.8642V27.84ZM52.8642 18.656H57.4082C58.0056 18.656 58.5069 18.56 58.9122 18.368C59.3389 18.1547 59.6696 17.8667 59.9042 17.504C60.1389 17.12 60.2562 16.6827 60.2562 16.192C60.2562 15.424 59.9896 14.8267 59.4562 14.4C58.9442 13.9733 58.1762 13.76 57.1522 13.76H52.8642V18.656ZM72.707 32L67.075 15.072H71.779L75.235 26.56L74.531 26.464L78.371 17.504H81.027L85.027 26.496L84.227 26.56L87.683 15.072H92.387L86.659 32H83.363L79.331 22.368L79.875 22.464L75.971 32H72.707ZM103.086 32V21.408C103.086 20.512 102.809 19.8293 102.254 19.36C101.721 18.8693 100.995 18.624 100.078 18.624C99.2033 18.624 98.4247 18.7947 97.742 19.136C97.0593 19.4773 96.4193 20.0107 95.822 20.736L93.038 18.048C94.062 16.9813 95.2033 16.16 96.462 15.584C97.742 15.008 99.1287 14.72 100.622 14.72C101.987 14.72 103.171 14.9333 104.174 15.36C105.198 15.7867 105.987 16.4267 106.542 17.28C107.097 18.1333 107.374 19.2107 107.374 20.512V32H103.086ZM98.446 32.32C97.3793 32.32 96.4087 32.1067 95.534 31.68C94.6807 31.2533 93.998 30.6667 93.486 29.92C92.9953 29.152 92.75 28.256 92.75 27.232C92.75 26.3573 92.91 25.5893 93.23 24.928C93.55 24.2453 94.0193 23.6907 94.638 23.264C95.278 22.816 96.0673 22.4747 97.006 22.24C97.966 22.0053 99.0753 21.888 100.334 21.888H105.326L105.038 24.928H100.27C99.758 24.928 99.2993 24.9707 98.894 25.056C98.51 25.1413 98.1793 25.28 97.902 25.472C97.646 25.664 97.4433 25.888 97.294 26.144C97.166 26.4 97.102 26.6987 97.102 27.04C97.102 27.4027 97.198 27.7227 97.39 28C97.582 28.2773 97.838 28.4907 98.158 28.64C98.4993 28.7893 98.8833 28.864 99.31 28.864C99.9287 28.864 100.515 28.7573 101.07 28.544C101.646 28.3307 102.158 28.032 102.606 27.648C103.054 27.264 103.406 26.8267 103.662 26.336L104.526 28.608C104.078 29.3333 103.534 29.9733 102.894 30.528C102.254 31.0827 101.561 31.52 100.814 31.84C100.067 32.16 99.278 32.32 98.446 32.32ZM110.492 32V8.32H115.036V32H110.492ZM118.648 32V8.32H123.192V32H118.648ZM134.492 32.32C132.657 32.32 131.047 31.9467 129.66 31.2C128.295 30.4533 127.228 29.4293 126.46 28.128C125.713 26.8267 125.34 25.344 125.34 23.68C125.34 22.3573 125.553 21.152 125.98 20.064C126.407 18.9547 127.004 18.0053 127.772 17.216C128.54 16.4267 129.447 15.8187 130.492 15.392C131.559 14.944 132.721 14.72 133.98 14.72C135.132 14.72 136.188 14.9333 137.148 15.36C138.129 15.7653 138.972 16.352 139.676 17.12C140.401 17.8667 140.956 18.752 141.34 19.776C141.724 20.8 141.905 21.92 141.884 23.136L141.852 24.544H128.252L127.516 21.728H138.108L137.564 22.304V21.632C137.521 21.0347 137.329 20.512 136.988 20.064C136.668 19.616 136.252 19.264 135.74 19.008C135.228 18.7307 134.663 18.592 134.044 18.592C133.084 18.592 132.273 18.784 131.612 19.168C130.972 19.5307 130.481 20.064 130.14 20.768C129.82 21.4507 129.66 22.304 129.66 23.328C129.66 24.3307 129.873 25.216 130.3 25.984C130.727 26.7307 131.335 27.3067 132.124 27.712C132.935 28.1173 133.884 28.32 134.972 28.32C135.719 28.32 136.401 28.2027 137.02 27.968C137.639 27.7333 138.311 27.328 139.036 26.752L141.18 29.792C140.583 30.3253 139.911 30.784 139.164 31.168C138.417 31.552 137.649 31.84 136.86 32.032C136.071 32.224 135.281 32.32 134.492 32.32ZM145.873 32V10.784H150.417V32H145.873ZM142.705 19.136V15.072H153.905V19.136H142.705Z" fill="black"/>
<path d="M177.52 32.32C175.43 32.32 173.638 31.9467 172.144 31.2C170.672 30.432 169.403 29.3227 168.336 27.872L171.344 24.48C172.39 25.9307 173.424 26.9227 174.448 27.456C175.494 27.968 176.614 28.224 177.808 28.224C178.47 28.224 179.056 28.128 179.568 27.936C180.102 27.744 180.518 27.4773 180.816 27.136C181.136 26.7947 181.296 26.4 181.296 25.952C181.296 25.6107 181.222 25.3013 181.072 25.024C180.923 24.7253 180.71 24.4693 180.432 24.256C180.155 24.0213 179.824 23.8187 179.44 23.648C179.056 23.456 178.63 23.296 178.16 23.168C177.691 23.04 177.179 22.9227 176.624 22.816C175.43 22.56 174.384 22.2293 173.488 21.824C172.592 21.4187 171.846 20.928 171.248 20.352C170.651 19.776 170.203 19.1147 169.904 18.368C169.627 17.6 169.488 16.7467 169.488 15.808C169.488 14.4853 169.862 13.3333 170.608 12.352C171.355 11.3493 172.347 10.5707 173.584 10.016C174.822 9.44 176.187 9.152 177.68 9.152C179.707 9.152 181.371 9.49333 182.672 10.176C183.995 10.8587 185.051 11.8187 185.84 13.056L182.768 16.064C182.107 15.1467 181.35 14.4533 180.496 13.984C179.643 13.5147 178.726 13.28 177.744 13.28C177.062 13.28 176.454 13.376 175.92 13.568C175.408 13.7387 175.014 14.0053 174.736 14.368C174.459 14.7093 174.32 15.1147 174.32 15.584C174.32 15.968 174.416 16.3093 174.608 16.608C174.8 16.9067 175.067 17.1733 175.408 17.408C175.771 17.6213 176.208 17.8133 176.72 17.984C177.232 18.1547 177.798 18.2933 178.416 18.4C179.59 18.6347 180.646 18.9547 181.584 19.36C182.523 19.744 183.323 20.2133 183.984 20.768C184.667 21.3227 185.19 21.9627 185.552 22.688C185.915 23.4133 186.096 24.224 186.096 25.12C186.096 26.6347 185.734 27.9253 185.008 28.992C184.283 30.0587 183.28 30.88 182 31.456C180.72 32.032 179.227 32.32 177.52 32.32ZM189.188 32V15.072H193.732V32H189.188ZM191.46 11.584C190.564 11.584 189.87 11.3707 189.38 10.944C188.889 10.5173 188.644 9.90933 188.644 9.12C188.644 8.39467 188.889 7.808 189.38 7.36C189.892 6.89067 190.585 6.656 191.46 6.656C192.313 6.656 192.985 6.86933 193.476 7.296C193.966 7.72267 194.212 8.33067 194.212 9.12C194.212 9.86667 193.966 10.464 193.476 10.912C192.985 11.36 192.313 11.584 191.46 11.584ZM205.328 39.36C204.006 39.36 202.683 39.168 201.36 38.784C200.059 38.4 199.003 37.888 198.192 37.248L199.792 33.984C200.475 34.4533 201.254 34.8267 202.128 35.104C203.024 35.3813 203.942 35.52 204.88 35.52C206.011 35.52 206.928 35.3493 207.632 35.008C208.358 34.6667 208.891 34.1547 209.232 33.472C209.595 32.8107 209.776 31.968 209.776 30.944V28L210.544 28.192C210.416 28.8533 210.054 29.4827 209.456 30.08C208.88 30.656 208.166 31.1253 207.312 31.488C206.459 31.8507 205.563 32.032 204.624 32.032C203.067 32.032 201.67 31.6693 200.432 30.944C199.216 30.1973 198.256 29.184 197.552 27.904C196.848 26.624 196.496 25.152 196.496 23.488C196.496 21.7813 196.848 20.2667 197.552 18.944C198.256 17.6213 199.206 16.5867 200.4 15.84C201.616 15.0933 202.982 14.72 204.496 14.72C205.136 14.72 205.744 14.7947 206.32 14.944C206.918 15.0933 207.462 15.3067 207.952 15.584C208.464 15.84 208.923 16.128 209.328 16.448C209.734 16.768 210.064 17.12 210.32 17.504C210.576 17.888 210.736 18.272 210.8 18.656L209.84 18.944L209.968 15.072H214.352V30.72C214.352 32.0853 214.139 33.3013 213.712 34.368C213.307 35.456 212.71 36.3627 211.92 37.088C211.152 37.8347 210.214 38.4 209.104 38.784C207.995 39.168 206.736 39.36 205.328 39.36ZM205.456 28.352C206.352 28.352 207.131 28.1493 207.792 27.744C208.475 27.3387 208.998 26.7733 209.36 26.048C209.744 25.3227 209.936 24.48 209.936 23.52C209.936 22.5387 209.744 21.6853 209.36 20.96C208.998 20.2347 208.475 19.6693 207.792 19.264C207.131 18.8373 206.352 18.624 205.456 18.624C204.582 18.624 203.814 18.8373 203.152 19.264C202.491 19.6693 201.968 20.2347 201.584 20.96C201.222 21.6853 201.04 22.528 201.04 23.488C201.04 24.448 201.222 25.3013 201.584 26.048C201.968 26.7733 202.491 27.3387 203.152 27.744C203.814 28.1493 204.582 28.352 205.456 28.352ZM217.835 32V15.072H222.219L222.347 18.528L221.451 18.912C221.664 18.144 222.08 17.4507 222.699 16.832C223.318 16.192 224.054 15.68 224.907 15.296C225.76 14.912 226.646 14.72 227.563 14.72C228.843 14.72 229.91 14.976 230.763 15.488C231.638 16 232.288 16.7787 232.715 17.824C233.163 18.848 233.387 20.128 233.387 21.664V32H228.843V21.984C228.843 21.216 228.736 20.576 228.523 20.064C228.31 19.552 227.99 19.1787 227.563 18.944C227.136 18.7093 226.592 18.6027 225.931 18.624C225.419 18.624 224.95 18.7093 224.523 18.88C224.096 19.0293 223.712 19.2533 223.371 19.552C223.051 19.8507 222.806 20.192 222.635 20.576C222.464 20.96 222.379 21.3867 222.379 21.856V32H220.107C219.638 32 219.211 32 218.827 32C218.443 32 218.112 32 217.835 32ZM236.133 24.928V20.704H246.565V24.928H236.133ZM249.844 32V15.072H254.388V32H249.844ZM252.116 11.584C251.22 11.584 250.527 11.3707 250.036 10.944C249.545 10.5173 249.3 9.90933 249.3 9.12C249.3 8.39467 249.545 7.808 250.036 7.36C250.548 6.89067 251.241 6.656 252.116 6.656C252.969 6.656 253.641 6.86933 254.132 7.296C254.623 7.72267 254.868 8.33067 254.868 9.12C254.868 9.86667 254.623 10.464 254.132 10.912C253.641 11.36 252.969 11.584 252.116 11.584ZM258.272 32V15.072H262.656L262.784 18.528L261.888 18.912C262.102 18.144 262.518 17.4507 263.136 16.832C263.755 16.192 264.491 15.68 265.344 15.296C266.198 14.912 267.083 14.72 268 14.72C269.28 14.72 270.347 14.976 271.2 15.488C272.075 16 272.726 16.7787 273.152 17.824C273.6 18.848 273.824 20.128 273.824 21.664V32H269.28V21.984C269.28 21.216 269.174 20.576 268.96 20.064C268.747 19.552 268.427 19.1787 268 18.944C267.574 18.7093 267.03 18.6027 266.368 18.624C265.856 18.624 265.387 18.7093 264.96 18.88C264.534 19.0293 264.15 19.2533 263.808 19.552C263.488 19.8507 263.243 20.192 263.072 20.576C262.902 20.96 262.816 21.3867 262.816 21.856V32H260.544C260.075 32 259.648 32 259.264 32C258.88 32 258.55 32 258.272 32Z" fill="#101010"/>
</svg>
