<svg width="47" height="47" viewBox="0 0 47 47" fill="none" xmlns="http://www.w3.org/2000/svg">
<circle cx="23.7998" cy="23.7046" r="23" fill="black"/>
<path d="M35.1518 31.7776C34.0332 36.1108 28.7225 33.3395 26.1327 33.8736C23.6235 34.3976 20.56 38.62 17.4159 35.4759C14.685 32.7551 19.0585 24.4313 23.956 23.4135C28.8535 22.3856 36.1293 27.9986 35.1518 31.7776Z" fill="#CAFF04"/>
<path d="M34.9902 31.717C33.9019 35.6269 29.3671 33.4301 26.5757 33.6417C25.0843 33.7526 23.8448 34.8207 22.5952 35.5463C20.8821 36.5339 18.9473 36.937 17.4659 35.2843C16.5187 34.2262 16.6598 32.6239 16.9923 31.3441C17.4155 29.7116 18.262 28.1899 19.3 26.8698C20.348 25.5497 21.6984 24.3304 23.3208 23.766C24.913 23.2118 26.6564 23.4738 28.2183 24.0381C30.1028 24.7234 31.8562 25.8722 33.2267 27.3334C34.2747 28.462 35.3832 30.0845 34.9902 31.717C34.9398 31.9286 35.2623 32.0394 35.3127 31.8278C35.6452 30.417 34.9902 29.0364 34.1639 27.9279C33.0453 26.4365 31.4833 25.2373 29.8307 24.3808C28.2486 23.5645 26.4447 22.9901 24.651 23.1413C22.9177 23.2823 21.386 24.2296 20.1666 25.4086C18.8364 26.6884 17.7783 28.2806 17.083 29.9938C16.5288 31.3643 16.1257 33.027 16.6194 34.4781C17.1233 35.9595 18.786 36.947 20.3279 36.7656C22.2123 36.544 23.6533 35.113 25.3161 34.337C27.1199 33.5006 29.226 34.3068 31.1105 34.4076C33.0957 34.5184 34.7484 33.8634 35.3127 31.8278C35.3731 31.6162 35.0507 31.5154 34.9902 31.717Z" fill="#CAFF04"/>
<path d="M20.3055 20.8055C21.8497 19.8962 22.1767 17.5884 21.0358 15.6509C19.895 13.7134 17.7183 12.8799 16.174 13.7892C14.6298 14.6985 14.3028 17.0063 15.4437 18.9438C16.5845 20.8813 18.7612 21.7148 20.3055 20.8055Z" fill="#CAFF04"/>
<path d="M20.5598 15.2411C21.6481 16.7124 22.1318 19.2015 20.4791 20.4913C18.9776 21.6603 16.942 20.6828 15.9243 19.3627C14.8359 17.9418 14.4026 15.5535 15.8839 14.2233C17.3754 12.8629 19.4815 13.9109 20.5598 15.2411C20.6908 15.4124 20.9427 15.1807 20.8117 15.0194C19.8544 13.8202 18.2622 12.9032 16.6901 13.3869C15.1785 13.8505 14.4832 15.4326 14.6142 16.924C14.7553 18.5968 15.8134 20.2092 17.325 20.9549C18.6451 21.5998 20.2675 21.4386 21.1946 20.2394C22.3938 18.6875 21.8799 16.4806 20.8016 15.0194C20.6807 14.838 20.4288 15.0698 20.5598 15.2411Z" fill="#CAFF04"/>
<path d="M30.2622 15.5675C30.3321 13.309 28.9457 11.4335 27.1656 11.3785C25.3855 11.3234 23.8859 13.1096 23.816 15.368C23.7461 17.6265 25.1325 19.502 26.9125 19.5571C28.6926 19.6121 30.1923 17.826 30.2622 15.5675Z" fill="#CAFF04"/>
<path d="M30.0625 16.0273C29.8106 17.7606 28.4603 19.8164 26.4347 19.3226C24.5604 18.8691 23.8046 16.6118 24.0263 14.8987C24.2379 13.246 25.4774 11.3213 27.3719 11.553C29.4579 11.805 30.2439 14.2336 30.0625 16.0273C30.0424 16.2389 30.3749 16.2591 30.3951 16.0475C30.5664 14.415 30.0424 12.5205 28.551 11.6236C27.2409 10.8376 25.689 11.2507 24.7317 12.3794C23.6131 13.6995 23.3612 15.6847 23.9457 17.2971C24.4495 18.6575 25.6588 19.8466 27.2006 19.7257C29.0649 19.5846 30.1432 17.7304 30.385 16.0576C30.4253 15.8359 30.0928 15.8157 30.0625 16.0273Z" fill="#CAFF04"/>
<path d="M37.8964 21.4659C38.2131 19.8323 37.4024 18.301 36.0856 18.0458C34.7689 17.7905 33.4448 18.9079 33.1281 20.5416C32.8114 22.1752 33.6221 23.7064 34.9389 23.9617C36.2556 24.2169 37.5797 23.0995 37.8964 21.4659Z" fill="#CAFF04"/>
<path d="M37.5999 21.9427C37.1263 23.162 35.8263 24.3411 34.4558 23.6155C33.2264 22.9605 33.0047 21.2574 33.438 20.0583C33.8612 18.8691 35.1209 17.7506 36.441 18.3351C37.8115 18.9296 38.003 20.683 37.5999 21.9427C37.5293 22.1543 37.8518 22.2551 37.9224 22.0535C38.3859 20.6327 38.1037 18.6777 36.572 18.0126C35.0705 17.3576 33.5992 18.5769 33.1155 19.9474C32.6117 21.3582 32.9543 23.3333 34.4659 23.9884C35.9976 24.6535 37.3983 23.414 37.9224 22.0535C37.9929 21.852 37.6805 21.7411 37.5999 21.9427Z" fill="#CAFF04"/>
<path d="M13.8333 28.3628C14.9383 27.6026 15.0694 25.8749 14.1262 24.5041C13.183 23.1332 11.5226 22.6382 10.4177 23.3984C9.31273 24.1587 9.18161 25.8863 10.1248 27.2571C11.068 28.628 12.7284 29.123 13.8333 28.3628Z" fill="#CAFF04"/>
<path d="M10.3414 27.7976C11.3693 28.8356 13.1529 29.41 14.2816 28.1907C15.4002 26.9915 14.9265 25.0466 13.8987 23.9481C12.901 22.88 11.067 22.3559 9.95846 23.5551C8.82982 24.7946 9.34375 26.6791 10.3414 27.7976C10.4825 27.9589 10.7344 27.7372 10.5933 27.5759C9.74684 26.6186 9.2329 25.0264 10.1096 23.9078C11.0569 22.7086 12.7599 23.2226 13.6568 24.1799C14.5234 25.0969 14.9769 26.669 14.1909 27.7775C13.2638 29.0774 11.5305 28.5232 10.5933 27.5759C10.4422 27.4248 10.1902 27.6465 10.3414 27.7976Z" fill="#CAFF04"/>
</svg>
