<svg width="47" height="47" viewBox="0 0 47 47" fill="none" xmlns="http://www.w3.org/2000/svg">
<mask id="mask0_1_10447" style="mask-type:luminance" maskUnits="userSpaceOnUse" x="0" y="0" width="47" height="47">
<path d="M46.4004 0.70459H0.400391V46.7046H46.4004V0.70459Z" fill="white"/>
</mask>
<g mask="url(#mask0_1_10447)">
<path fill-rule="evenodd" clip-rule="evenodd" d="M1.89372 11.5529L0.400391 13.2607V40.2947C0.400391 43.6265 3.14638 46.3274 6.53372 46.3274H40.2671C43.6544 46.3274 46.4004 43.6265 46.4004 40.2947V17.1717C46.4004 13.8399 43.6544 11.1389 40.2671 11.1389H33.0447V10.8791L33.812 10.4348C34.2801 10.1638 34.5675 9.66937 34.5675 9.13506V2.50624L33.0774 1.08154L1.89372 11.5529Z" fill="#AAE738"/>
<path d="M34.1054 36.2403C33.1165 40.0215 28.4215 37.6033 26.1319 38.0693C23.9136 38.5266 21.2053 42.211 18.4257 39.4675C16.0114 37.0933 19.8779 29.83 24.2076 28.9419C28.5373 28.045 34.9695 32.9428 34.1054 36.2403Z" fill="black"/>
<path fill-rule="evenodd" clip-rule="evenodd" d="M30.8927 31.2908C28.8897 29.7949 26.3027 28.858 24.2795 29.2771L24.2788 29.2772C22.2601 29.6913 20.2798 31.6253 19.096 33.808C18.5087 34.8908 18.1354 36.0039 18.0499 36.9746C17.964 37.9499 18.1708 38.7295 18.6728 39.2231L18.6732 39.2235C19.3159 39.8579 19.9272 40.0977 20.5078 40.1261C21.1011 40.1551 21.7064 39.9656 22.3338 39.6594C22.8081 39.428 23.2685 39.1442 23.7334 38.8576C23.8882 38.7621 24.0436 38.6663 24.2002 38.572C24.8077 38.2062 25.4396 37.8595 26.0601 37.7316L26.061 37.7314C26.6994 37.6014 27.4783 37.6752 28.2507 37.7766C28.4435 37.8019 28.6368 37.8291 28.83 37.8562C29.4344 37.9412 30.0379 38.0261 30.6228 38.0533C31.393 38.0891 32.0703 38.0199 32.6038 37.749C33.1185 37.4876 33.5408 37.0172 33.7667 36.1534L33.7667 36.1533C33.9507 35.4514 33.7551 34.6235 33.2316 33.7571C32.7107 32.895 31.8866 32.0332 30.8927 31.2908ZM34.4437 36.3249C34.6919 35.378 34.4075 34.3571 33.8327 33.4058C33.2553 32.4502 32.3627 31.5253 31.3155 30.7431C29.2361 29.1901 26.4425 28.1266 24.1361 28.604C21.8251 29.0781 19.7073 31.2198 18.4791 33.4843C17.8603 34.6252 17.4491 35.8285 17.3534 36.9152C17.2581 37.997 17.4732 39.0155 18.178 39.709C18.9251 40.4464 19.6947 40.7748 20.473 40.8129C21.2386 40.8504 21.9702 40.6046 22.6446 40.2755C23.153 40.0273 23.6557 39.7174 24.1274 39.4265C24.2767 39.3344 24.4229 39.2442 24.5652 39.1585C25.1761 38.7908 25.7144 38.5056 26.2029 38.4048C26.7093 38.3018 27.3757 38.3555 28.1582 38.4583C28.3362 38.4816 28.5198 38.5075 28.707 38.5338C29.3183 38.6198 29.9684 38.7113 30.5898 38.7402C31.4031 38.778 32.2281 38.7137 32.9245 38.36C33.6398 37.9968 34.1752 37.3516 34.4437 36.3249Z" fill="black"/>
<path fill-rule="evenodd" clip-rule="evenodd" d="M24.7919 28.3608C26.4686 28.2215 28.1313 28.7518 29.5608 29.4797L29.5614 29.48C31.058 30.2456 32.4838 31.3228 33.5109 32.6744L33.5115 32.6752C34.2558 33.6608 34.9088 34.9633 34.5928 36.3363C34.5905 36.3476 34.5878 36.3589 34.5847 36.3702C34.5828 36.3779 34.5806 36.3854 34.5783 36.393C34.3042 37.3532 33.7604 38.0134 33.0295 38.4119C32.3051 38.807 31.4284 38.9282 30.5119 38.8777C30.0764 38.8547 29.6327 38.7918 29.1983 38.7247C29.1168 38.7122 29.0357 38.6995 28.9549 38.6868C28.6 38.6312 28.2521 38.5767 27.9048 38.5387C27.0529 38.4454 26.2666 38.4597 25.5569 38.7844C25.0663 39.0104 24.6093 39.296 24.1302 39.5956C23.9124 39.7317 23.69 39.8707 23.4578 40.0083C22.7359 40.4361 21.9487 40.828 21.04 40.9335C19.5215 41.1098 17.8906 40.1606 17.3895 38.7064M24.7919 28.3608C23.1495 28.4929 21.7236 29.3753 20.6133 30.4349C19.4007 31.5865 18.4384 33.0167 17.8063 34.554L17.8061 34.5544C17.3086 35.7685 16.911 37.3184 17.3895 38.7063M33.6229 36.1006C33.7697 35.4912 33.639 34.8658 33.344 34.2571C33.0478 33.6457 32.597 33.0747 32.1463 32.5956C30.9729 31.361 29.4698 30.3888 27.8552 29.8092C26.5117 29.3302 25.0605 29.1265 23.7602 29.5733L23.7601 29.5733C22.4136 30.0356 21.2704 31.0441 20.365 32.1697C19.4698 33.2936 18.748 34.5791 18.3886 35.9472L18.3886 35.9474C18.2465 36.487 18.1504 37.0771 18.1842 37.6323C18.2178 38.1855 18.3786 38.6833 18.7297 39.0705C19.3154 39.7154 19.972 39.9473 20.6523 39.9339C21.35 39.9201 22.0965 39.6468 22.828 39.2306C23.0828 39.0846 23.3381 38.9216 23.6045 38.7514L23.6436 38.7265C23.9216 38.549 24.2112 38.365 24.5094 38.1974C25.1047 37.8627 25.7614 37.5772 26.496 37.5232C27.1559 37.4739 27.9054 37.5652 28.6385 37.665C28.7214 37.6762 28.8041 37.6876 28.8867 37.699C29.5494 37.7903 30.2004 37.88 30.8139 37.8928C31.5034 37.9071 32.0987 37.8218 32.5693 37.5624C33.0245 37.3115 33.4031 36.8754 33.6229 36.1006Z" fill="black"/>
<path d="M20.9798 26.6645C22.345 25.871 22.6341 23.8572 21.6255 22.1666C20.6169 20.4759 18.6926 19.7486 17.3274 20.5421C15.9622 21.3355 15.6731 23.3493 16.6817 25.0399C17.6903 26.7306 19.6146 27.4579 20.9798 26.6645Z" fill="black"/>
<path fill-rule="evenodd" clip-rule="evenodd" d="M17.5046 20.8383C16.3662 21.4999 16.0323 23.271 16.983 24.8647C17.9337 26.4583 19.6648 27.0292 20.8033 26.3675C21.9417 25.7059 22.2757 23.9348 21.3249 22.3411C20.3742 20.7475 18.6431 20.1766 17.5046 20.8383ZM16.3811 25.2145C15.3146 23.4269 15.5589 21.1704 17.1508 20.2452C18.7427 19.3199 20.8604 20.2037 21.9268 21.9913C22.9933 23.7789 22.749 26.0354 21.1571 26.9606C19.5652 27.8859 17.4475 27.0021 16.3811 25.2145Z" fill="black"/>
<path fill-rule="evenodd" clip-rule="evenodd" d="M17.6793 19.8623C19.2661 19.3805 20.81 20.3015 21.6996 21.4014L21.6943 21.4055C21.6971 21.4092 21.6998 21.4129 21.7024 21.4167C21.7231 21.4443 21.7435 21.4723 21.7637 21.5006C21.8462 21.669 21.8065 21.8412 21.7286 21.9653C22.1172 22.6016 22.385 23.3748 22.4255 24.1411C22.4638 24.8681 22.2965 25.6085 21.8134 26.2073C21.8134 26.2073 21.8134 26.2073 21.8133 26.2073C21.6821 26.37 21.5276 26.5222 21.3476 26.6609L21.3473 26.6612C20.5718 27.257 19.6627 27.2956 18.8515 27.0397C18.6724 26.9832 18.4967 26.9121 18.3266 26.8288C18.3265 26.8288 18.3265 26.8288 18.3264 26.8287C17.7339 26.5387 17.2074 26.1006 16.828 25.6149L16.8274 25.614C16.3313 24.9748 15.9783 24.1319 15.8967 23.2817L15.5988 23.3074C15.5988 23.3072 15.5988 23.307 15.5988 23.3068C15.5988 23.3066 15.5987 23.3064 15.5987 23.3062L15.8967 23.2815C15.8927 23.2393 15.8893 23.1971 15.8866 23.1549C15.8295 22.2583 16.0818 21.334 16.8346 20.6662C17.1257 20.4043 17.44 20.2314 17.7636 20.1313L17.6792 19.8624C17.6792 19.8624 17.6793 19.8624 17.6793 19.8623ZM17.7636 20.1312L17.6795 19.8623C17.6794 19.8623 17.6794 19.8623 17.6793 19.8623M17.7636 20.1312C18.2961 19.9665 18.8538 19.9987 19.3756 20.1556C20.0447 20.3567 20.6697 20.7644 21.1555 21.2433C21.2084 21.2238 21.2678 21.2124 21.3323 21.2142C21.4832 21.2184 21.6099 21.2938 21.6926 21.4032L21.6977 21.3991C21.7252 21.4325 21.747 21.4665 21.7637 21.5006C22.7178 22.8362 23.2132 24.8836 22.0415 26.3802L22.0415 26.3802C21.0957 27.5877 19.4663 27.7191 18.1897 27.1035L18.1885 27.1029C16.7377 26.3965 15.7335 24.8808 15.5988 23.3068C15.4742 21.9049 16.1333 20.3304 17.6793 19.8623M20.8682 21.5112C20.0679 20.6985 18.9457 20.1975 17.8854 20.5195L17.8851 20.5196C17.5843 20.6106 17.3232 20.762 17.104 20.9578C17.1039 20.9578 17.1038 20.9579 17.1037 20.958C16.5024 21.4954 16.217 22.3675 16.2953 23.2474L16.2954 23.2486C16.3607 24.0125 16.6684 24.7613 17.1459 25.3746L17.3824 25.1959C17.3826 25.196 17.3827 25.1962 17.3828 25.1964C17.3829 25.1965 17.383 25.1966 17.3831 25.1967L17.146 25.3747C17.5092 25.8411 17.9705 26.2292 18.4981 26.4863C19.3779 26.9103 20.3834 26.8775 21.0957 26.3446L20.9165 26.1195C20.9165 26.1195 20.9166 26.1194 20.9166 26.1194C20.9167 26.1193 20.9168 26.1193 20.9168 26.1193L21.0958 26.3445C21.2395 26.237 21.3712 26.1092 21.4876 25.9606M20.9265 22.0191C20.4861 21.4851 19.8405 21.0145 19.1712 20.8132C18.5117 20.6149 17.8537 20.681 17.3056 21.1744L17.3036 21.1762L17.3036 21.1762C16.7475 21.6691 16.5369 22.3667 16.5844 23.1119C16.6322 23.8612 16.9415 24.6275 17.3828 25.1964C17.7942 25.7228 18.4117 26.1788 19.065 26.3848C19.7104 26.5884 20.3647 26.5434 20.9166 26.1194C21.5348 25.6431 21.7676 24.9405 21.7273 24.1767C21.6868 23.409 21.3687 22.6116 20.9265 22.0191ZM20.8682 21.5112C20.801 21.6558 20.7918 21.8429 20.9232 22.0146L20.8682 21.5112ZM20.9232 22.0146C20.9243 22.0161 20.9254 22.0176 20.9265 22.0191C20.9274 22.0201 20.9283 22.0212 20.9292 22.0223C21.0201 22.1367 21.1548 22.206 21.3046 22.2054C21.3343 22.2053 21.363 22.2024 21.3904 22.1974" fill="black"/>
<path d="M29.7818 22.0935C29.8438 20.1228 28.6183 18.4864 27.0446 18.4385C25.4709 18.3906 24.1449 19.9493 24.083 21.9201C24.021 23.8908 25.2464 25.5272 26.8201 25.5751C28.3938 25.623 29.7198 24.0642 29.7818 22.0935Z" fill="black"/>
<path fill-rule="evenodd" clip-rule="evenodd" d="M24.4312 21.931C24.3726 23.7938 25.523 25.1919 26.8298 25.2317C28.1366 25.2714 29.3727 23.946 29.4313 22.0831C29.4899 20.2203 28.3395 18.8222 27.0327 18.7824C25.7259 18.7427 24.4898 20.0681 24.4312 21.931ZM26.8082 25.919C24.9676 25.863 23.667 23.9883 23.7324 21.9097C23.7978 19.8311 25.2138 18.0391 27.0543 18.0951C28.8949 18.1511 30.1955 20.0258 30.1301 22.1044C30.0647 24.183 28.6488 25.975 26.8082 25.919Z" fill="black"/>
<path fill-rule="evenodd" clip-rule="evenodd" d="M24.6261 19.0902C25.5623 18.0009 27.1186 17.5697 28.4499 18.3581L28.4502 18.3583C29.93 19.2366 30.4066 21.0525 30.2476 22.5487L30.2402 22.548C30.2391 22.5572 30.2378 22.5664 30.2363 22.5755C30.2319 22.6055 30.2272 22.6355 30.2222 22.6656C30.1615 22.8406 30.0134 22.9384 29.8665 22.9726C29.6938 23.6606 29.3475 24.3643 28.8466 24.8956C28.3887 25.3815 27.7891 25.7325 27.08 25.7755L27.1032 26.0653C27.1029 26.0654 27.1026 26.0654 27.1022 26.0654L27.0799 25.7756C26.8376 25.7902 26.5825 25.769 26.3159 25.7049C25.3577 25.4759 24.7043 24.7942 24.3231 23.9996C24.2633 23.875 24.2098 23.7469 24.1624 23.6163C24.1624 23.6163 24.1624 23.6162 24.1624 23.6161C23.9092 22.9173 23.8334 22.1479 23.9228 21.4666L24.2695 21.5105L23.9227 21.467C24.0199 20.7178 24.3422 19.9081 24.8608 19.2854C24.8608 19.2854 24.8608 19.2854 24.8608 19.2854C24.8823 19.2596 24.9041 19.2341 24.9263 19.209C25.4884 18.5712 26.2885 18.1315 27.2695 18.2498C27.661 18.2965 28.0058 18.4176 28.3063 18.5928C28.3063 18.5928 28.3063 18.5928 28.3063 18.5928C28.8265 18.8961 29.2139 19.3616 29.4807 19.8845C29.8242 20.5578 29.9808 21.3457 29.9777 22.0711C30.032 22.0968 30.0841 22.1337 30.129 22.1844C30.2209 22.2883 30.2541 22.4187 30.2405 22.5448L30.2479 22.5455C30.2437 22.589 30.2348 22.629 30.2222 22.6656C30.0974 23.4158 29.791 24.203 29.2983 24.833C28.7817 25.4937 28.0473 25.9948 27.1022 26.0654C25.5227 26.1872 24.3452 24.9881 23.8703 23.7224L23.8694 23.7202L23.8694 23.7202C23.3156 22.2122 23.5468 20.3475 24.626 19.0904L24.6261 19.0902ZM29.5776 22.056C29.5959 20.8261 29.1271 19.5634 28.0891 18.9472C27.8106 18.7823 27.5159 18.6872 27.2193 18.6555C27.2193 18.6555 27.2192 18.6555 27.2192 18.6555C26.467 18.5752 25.7027 18.9028 25.1602 19.5341M29.5776 22.056C29.4265 22.1117 29.2903 22.2383 29.2599 22.4461C29.2596 22.4486 29.2592 22.451 29.2588 22.4535C29.3316 21.7288 29.2053 20.878 28.8558 20.193C28.5084 19.5121 27.9598 19.0249 27.1852 18.9325L27.1846 18.9324C26.491 18.8487 25.9058 19.1475 25.4546 19.6595C24.9982 20.1773 24.7021 20.8922 24.6162 21.5541L24.6162 21.5545C24.5262 22.2406 24.6358 23.0401 24.9553 23.7061C25.2734 24.3689 25.7825 24.8698 26.4812 25.0367L26.4818 25.0368C27.2255 25.2158 27.8482 24.9434 28.3339 24.4281C28.8268 23.9051 29.1548 23.1499 29.2588 22.4535M29.5425 22.4895L29.2579 22.4629C29.244 22.6071 29.2927 22.7457 29.3956 22.8461C29.4162 22.8662 29.438 22.8839 29.4606 22.8993C29.3253 23.4426 29.0838 23.9794 28.7442 24.4137C28.3187 24.9578 27.7523 25.3272 27.0493 25.3797L27.0483 25.3798C26.8275 25.3968 26.6136 25.3781 26.4091 25.3288C26.4091 25.3288 26.4091 25.3288 26.4091 25.3288C25.5528 25.1224 24.8625 24.3796 24.5266 23.4854C24.2989 22.8649 24.2279 22.1782 24.3124 21.516C24.3124 21.516 24.3124 21.5159 24.3124 21.5159M29.9519 22.5447C29.9519 22.5444 29.9519 22.5441 29.952 22.5439L29.606 22.4954L29.9519 22.5447ZM29.5445 22.4897C29.5445 22.4895 29.5445 22.4894 29.5445 22.4893L29.6059 22.4954L29.5445 22.4897ZM29.5425 22.4891C29.5425 22.4892 29.5425 22.4894 29.5425 22.4895L29.5425 22.4891Z" fill="black"/>
<path d="M36.531 27.2403C36.811 25.8148 36.0942 24.4787 34.9302 24.2559C33.7661 24.0332 32.5955 25.0083 32.3155 26.4337C32.0355 27.8592 32.7523 29.1954 33.9163 29.4181C35.0804 29.6408 36.251 28.6658 36.531 27.2403Z" fill="black"/>
<path fill-rule="evenodd" clip-rule="evenodd" d="M32.6579 26.4997C32.4003 27.8115 33.0737 28.9071 33.9819 29.0808C34.8902 29.2546 35.9295 28.4868 36.1871 27.175C36.4448 25.8632 35.7714 24.7677 34.8631 24.5939C33.9549 24.4201 32.9156 25.188 32.6579 26.4997ZM33.8493 29.756C32.4294 29.4844 31.6694 27.9076 31.9717 26.3684C32.2739 24.8292 33.5759 23.647 34.9958 23.9187C36.4156 24.1903 37.1757 25.7671 36.8734 27.3063C36.5711 28.8455 35.2692 30.0277 33.8493 29.756Z" fill="black"/>
<path fill-rule="evenodd" clip-rule="evenodd" d="M33.3057 24.1193C33.9288 23.7256 34.7091 23.5717 35.4999 23.9121C36.2959 24.2534 36.7545 24.9235 36.9557 25.6529C37.1544 26.3734 37.1106 27.1735 36.8898 27.8488C36.8879 27.8547 36.8859 27.8607 36.8838 27.8666C36.8807 27.8752 36.8775 27.8837 36.874 27.892C36.6191 28.5364 36.1542 29.1592 35.5516 29.5478C34.9341 29.9462 34.1617 30.1012 33.3583 29.7569C32.5718 29.4204 32.1045 28.7491 31.8963 28.0188C31.6893 27.2925 31.7285 26.4814 31.9746 25.8008C32.2122 25.1368 32.6907 24.5078 33.3057 24.1193ZM35.9388 27.5422C36.0972 27.0473 36.1358 26.46 36.0053 25.9487C35.8755 25.4399 35.5873 25.0306 35.1046 24.8239L35.1022 24.8228C34.6501 24.6253 34.2067 24.7073 33.8137 24.9659C33.4119 25.2303 33.0835 25.6704 32.9187 26.1272L32.9182 26.1288L32.9182 26.1288C32.7489 26.5912 32.7072 27.1566 32.8283 27.6637C32.9487 28.1682 33.2211 28.5853 33.6535 28.8128C34.1273 29.0603 34.5817 28.9904 34.9869 28.7338C35.4027 28.4704 35.7504 28.0151 35.9388 27.5422Z" fill="black"/>
<path d="M15.2581 33.2596C16.2349 32.5962 16.3508 31.0887 15.517 29.8925C14.6832 28.6963 13.2153 28.2643 12.2385 28.9277C11.2616 29.5911 11.1457 31.0986 11.9795 32.2948C12.8134 33.491 14.2812 33.9229 15.2581 33.2596Z" fill="black"/>
<path fill-rule="evenodd" clip-rule="evenodd" d="M12.4351 29.2112C11.6723 29.7292 11.4993 30.9992 12.2662 32.0993C13.0331 33.1995 14.2966 33.494 15.0594 32.9759C15.8223 32.4578 15.9952 31.1878 15.2283 30.0877C14.4615 28.9876 13.198 28.6931 12.4351 29.2112ZM11.6909 32.49C10.7901 31.1977 10.849 29.4527 12.0398 28.644C13.2306 27.8353 14.9028 28.4047 15.8037 29.697C16.7045 30.9893 16.6456 32.7343 15.4548 33.543C14.2639 34.3517 12.5917 33.7824 11.6909 32.49Z" fill="black"/>
<path fill-rule="evenodd" clip-rule="evenodd" d="M13.6639 28.155C14.3852 28.2681 15.0799 28.6562 15.5695 29.1736C15.5696 29.1736 15.5696 29.1737 15.5697 29.1737L15.3525 29.3725C15.3535 29.3735 15.3545 29.3745 15.3555 29.3756L15.1 29.6102L15.3544 29.3745C15.7816 29.8206 16.1053 30.4225 16.2273 31.0529C16.3498 31.6857 16.2721 32.371 15.8576 32.9479L15.8571 32.9486C15.8052 33.0204 15.7509 33.0868 15.6944 33.1481L15.9093 33.3431C15.9091 33.3433 15.909 33.3434 15.9088 33.3436C15.9087 33.3437 15.9085 33.3439 15.9084 33.3441L15.6942 33.1483C15.207 33.6766 14.5579 33.8243 13.936 33.7373C13.4134 33.6641 12.9022 33.427 12.485 33.1118C12.4243 33.1404 12.3548 33.1586 12.2793 33.1597C12.155 33.1616 12.0362 33.1163 11.9434 33.0315C11.9356 33.0239 11.9278 33.0162 11.9201 33.0086L12.1689 32.767L11.9213 33.0097C11.9209 33.0093 11.9205 33.009 11.9201 33.0086C11.9178 33.0062 11.9155 33.0039 11.9132 33.0015C11.911 32.9992 11.9089 32.9969 11.9068 32.9945M11.8879 32.9734C11.4157 32.4424 11.0572 31.736 10.9488 31.0052C10.8381 30.2587 10.9877 29.4668 11.5715 28.834L11.5733 28.8321L11.5733 28.8321C12.1572 28.2086 12.9331 28.0405 13.6639 28.155M12.3917 32.5736L12.4048 32.5608L12.4035 32.562L12.3917 32.5736ZM12.4305 32.5399L12.3917 32.5736L12.4307 32.5401C12.4307 32.54 12.4306 32.5399 12.4305 32.5399ZM12.6475 32.339C13.0165 32.7043 13.536 32.9867 14.0345 33.0564C14.5185 33.1242 14.9662 32.9942 15.2869 32.5506C15.5671 32.1603 15.6363 31.6763 15.5405 31.1815C15.4443 30.6841 15.1845 30.2001 14.8455 29.846L14.8444 29.8449L14.8444 29.8449C14.4961 29.4779 13.991 29.1989 13.4968 29.1259C13.016 29.0548 12.5656 29.1774 12.2391 29.585C11.9283 29.9767 11.8537 30.4604 11.9501 30.9621C12.0467 31.465 12.3128 31.9629 12.6475 32.339ZM11.9434 33.0315C12.4389 33.5165 13.1142 33.8986 13.8188 34.0161C14.5462 34.1375 15.3161 33.9753 15.9088 33.3436C16.4908 32.7274 16.6462 31.9298 16.5409 31.179C16.4362 30.432 16.0715 29.7031 15.5695 29.1736C15.5695 29.1735 15.5695 29.1735 15.5694 29.1735" fill="black"/>
<path d="M33.0447 10.8799L2.54592 13.105C1.38711 13.1896 0.409806 12.0944 1.36282 11.4298C1.54432 11.3032 1.74671 11.2014 1.96579 11.1301L32.5524 1.17274C33.5447 0.849711 34.5676 1.57647 34.5676 2.60455V9.13589C34.5676 9.6702 34.2801 10.1646 33.812 10.4357L33.0447 10.8799Z" fill="#80AE29"/>
</g>
</svg>
