<svg width="206" height="205" viewBox="0 0 206 205" fill="none" xmlns="http://www.w3.org/2000/svg">
<path d="M102.963 193.72C153.379 193.72 194.249 152.971 194.249 102.705C194.249 52.4382 153.379 11.6892 102.963 11.6892C52.5469 11.6892 11.6768 52.4382 11.6768 102.705C11.6768 152.971 52.5469 193.72 102.963 193.72Z" fill="#F6F7F2"/>
<path d="M196.211 192.081H16.249C16.1876 192.081 16.1287 192.057 16.0853 192.014C16.042 191.97 16.0176 191.912 16.0176 191.851C16.0176 191.789 16.042 191.731 16.0853 191.687C16.1287 191.644 16.1876 191.62 16.249 191.62H196.211C196.273 191.62 196.331 191.644 196.375 191.687C196.418 191.731 196.443 191.789 196.443 191.851C196.443 191.912 196.418 191.97 196.375 192.014C196.331 192.057 196.273 192.081 196.211 192.081Z" fill="black"/>
<path d="M101.584 191.703C101.523 191.703 101.464 191.678 101.421 191.635C101.377 191.592 101.353 191.533 101.353 191.472V171.373C101.353 171.312 101.377 171.253 101.421 171.21C101.464 171.167 101.523 171.142 101.584 171.142C101.646 171.142 101.704 171.167 101.748 171.21C101.791 171.253 101.816 171.312 101.816 171.373V191.458C101.817 191.49 101.813 191.522 101.802 191.551C101.791 191.58 101.775 191.608 101.753 191.631C101.731 191.653 101.705 191.672 101.676 191.684C101.647 191.697 101.616 191.703 101.584 191.703Z" fill="black"/>
<path d="M101.584 169.352C101.523 169.352 101.464 169.328 101.421 169.285C101.377 169.241 101.353 169.183 101.353 169.122V164.816C101.353 164.755 101.377 164.697 101.421 164.654C101.464 164.61 101.523 164.586 101.584 164.586C101.646 164.586 101.704 164.61 101.748 164.654C101.791 164.697 101.816 164.755 101.816 164.816V169.122C101.816 169.183 101.791 169.241 101.748 169.285C101.704 169.328 101.646 169.352 101.584 169.352Z" fill="black"/>
<path d="M186.366 191.819C186.304 191.819 186.246 191.794 186.202 191.751C186.159 191.708 186.134 191.649 186.134 191.587V154.398H101.816V162.385C101.816 162.446 101.791 162.505 101.748 162.548C101.704 162.591 101.646 162.616 101.584 162.616C101.523 162.616 101.464 162.591 101.421 162.548C101.377 162.505 101.353 162.446 101.353 162.385V154.167C101.353 154.106 101.377 154.048 101.421 154.004C101.464 153.961 101.523 153.937 101.584 153.937H186.366C186.427 153.937 186.486 153.961 186.529 154.004C186.573 154.048 186.597 154.106 186.597 154.167V191.587C186.597 191.649 186.573 191.708 186.529 191.751C186.486 191.794 186.427 191.819 186.366 191.819Z" fill="black"/>
<path d="M181.369 188.39C181.308 188.39 181.249 188.366 181.205 188.323C181.162 188.279 181.138 188.221 181.138 188.159V158.491H174.011C173.949 158.491 173.89 158.466 173.847 158.423C173.804 158.38 173.779 158.321 173.779 158.26C173.779 158.199 173.804 158.14 173.847 158.097C173.89 158.053 173.949 158.029 174.011 158.029H181.369C181.43 158.029 181.489 158.053 181.532 158.097C181.576 158.14 181.6 158.199 181.6 158.26V188.159C181.6 188.221 181.576 188.279 181.532 188.323C181.489 188.366 181.43 188.39 181.369 188.39Z" fill="black"/>
<path d="M106.576 191.703C106.515 191.702 106.457 191.677 106.414 191.634C106.371 191.591 106.346 191.533 106.345 191.472V158.251C106.345 158.19 106.369 158.131 106.412 158.087C106.456 158.044 106.515 158.02 106.576 158.02H169.741C169.803 158.02 169.862 158.044 169.905 158.087C169.948 158.131 169.973 158.19 169.973 158.251C169.973 158.312 169.948 158.371 169.905 158.414C169.862 158.457 169.803 158.481 169.741 158.481H106.803V191.463C106.804 191.494 106.799 191.524 106.789 191.553C106.778 191.582 106.761 191.608 106.74 191.631C106.719 191.653 106.694 191.671 106.665 191.683C106.637 191.696 106.607 191.702 106.576 191.703Z" fill="black"/>
<path d="M112.439 150.527H110.101C110.04 150.527 109.981 150.502 109.938 150.459C109.895 150.416 109.87 150.357 109.87 150.296C109.87 150.235 109.895 150.176 109.938 150.133C109.981 150.09 110.04 150.065 110.101 150.065H112.439C112.5 150.065 112.559 150.09 112.602 150.133C112.646 150.176 112.67 150.235 112.67 150.296C112.67 150.357 112.646 150.416 112.602 150.459C112.559 150.502 112.5 150.527 112.439 150.527Z" fill="black"/>
<path d="M188.465 154.375H99.4716C99.4106 154.374 99.3528 154.349 99.3095 154.306C99.2662 154.263 99.2414 154.205 99.2402 154.144V150.296C99.2402 150.235 99.2646 150.176 99.3083 150.133C99.3516 150.09 99.4102 150.065 99.4716 150.065H108.612C108.673 150.065 108.732 150.09 108.775 150.133C108.819 150.176 108.843 150.235 108.843 150.296C108.843 150.357 108.819 150.416 108.775 150.459C108.732 150.502 108.673 150.527 108.612 150.527H99.703V153.913H188.238V150.527H115.808C115.746 150.527 115.688 150.502 115.644 150.459C115.601 150.416 115.576 150.357 115.576 150.296C115.576 150.235 115.601 150.176 115.644 150.133C115.688 150.09 115.746 150.065 115.808 150.065H188.465C188.526 150.065 188.585 150.09 188.629 150.133C188.672 150.176 188.696 150.235 188.696 150.296V154.144C188.696 154.205 188.672 154.264 188.629 154.307C188.585 154.35 188.526 154.375 188.465 154.375Z" fill="black"/>
<path d="M92.4805 136.048H26.2056C26.1443 136.048 26.0854 136.023 26.042 135.98C25.9986 135.937 25.9742 135.878 25.9742 135.817C25.9754 135.756 26.0002 135.698 26.0433 135.655C26.0865 135.612 26.1446 135.587 26.2056 135.586H92.2492V63.6891H20.1385V70.6887C20.1385 70.7499 20.1142 70.8087 20.0708 70.8519C20.0274 70.895 19.9685 70.9194 19.9071 70.9194C19.8458 70.9194 19.7869 70.895 19.7435 70.8519C19.7001 70.8087 19.6758 70.7499 19.6758 70.6887V63.4585C19.6758 63.3973 19.7001 63.3384 19.7435 63.2953C19.7869 63.2521 19.8458 63.2278 19.9071 63.2278H92.4805C92.5415 63.229 92.5997 63.2537 92.643 63.2964C92.6863 63.3396 92.7107 63.3977 92.7119 63.4585V135.817C92.7119 135.878 92.6879 135.937 92.6442 135.98C92.6009 136.023 92.5419 136.048 92.4805 136.048Z" fill="black"/>
<path d="M19.9071 136.048C19.8458 136.048 19.7869 136.023 19.7435 135.98C19.7001 135.937 19.6758 135.878 19.6758 135.817V74.3615C19.6758 74.3003 19.7001 74.2419 19.7435 74.1983C19.7869 74.1552 19.8458 74.1309 19.9071 74.1309C19.9685 74.1309 20.0274 74.1552 20.0708 74.1983C20.1142 74.2419 20.1385 74.3003 20.1385 74.3615V135.817C20.1385 135.878 20.1142 135.937 20.0708 135.98C20.0274 136.023 19.9685 136.048 19.9071 136.048Z" fill="black"/>
<path d="M55.1341 98.858H23.3779C23.3165 98.858 23.2576 98.8336 23.2142 98.7901C23.1708 98.7469 23.1465 98.6885 23.1465 98.6273V91.7615C23.1465 91.7003 23.1708 91.6415 23.2142 91.5983C23.2576 91.5548 23.3165 91.5308 23.3779 91.5308C23.4389 91.532 23.497 91.5563 23.5402 91.5995C23.5833 91.6426 23.6081 91.7007 23.6092 91.7615V98.3966H54.9027V67.196H23.6092V89.8741C23.6081 89.9349 23.5833 89.993 23.5402 90.0361C23.497 90.0789 23.4389 90.1036 23.3779 90.1048C23.3165 90.1048 23.2576 90.0805 23.2142 90.0373C23.1708 89.9942 23.1465 89.9353 23.1465 89.8741V66.9653C23.1465 66.9041 23.1708 66.8452 23.2142 66.8021C23.2576 66.7585 23.3165 66.7346 23.3779 66.7346H55.1341C55.1951 66.7358 55.2533 66.7601 55.2962 66.8033C55.3395 66.8464 55.3643 66.9045 55.3654 66.9653V98.6273C55.3654 98.6885 55.341 98.7469 55.2978 98.7901C55.2541 98.8336 55.1955 98.858 55.1341 98.858Z" fill="black"/>
<path d="M89.0094 98.858H57.2532C57.1919 98.858 57.1328 98.8336 57.0896 98.7901C57.0459 98.7469 57.0215 98.6885 57.0215 98.6273V66.9653C57.0215 66.9041 57.0459 66.8452 57.0896 66.8021C57.1328 66.7585 57.1919 66.7346 57.2532 66.7346H89.0094C89.0703 66.7346 89.1294 66.7585 89.1726 66.8021C89.2163 66.8452 89.2407 66.9041 89.2407 66.9653V83.8251C89.2407 83.8863 89.2163 83.9448 89.1726 83.9883C89.1294 84.0315 89.0703 84.0558 89.0094 84.0558C88.948 84.0558 88.889 84.0315 88.8457 83.9883C88.802 83.9448 88.7776 83.8863 88.7776 83.8251V67.2144H57.4984V98.415H88.7918V87.175C88.7918 87.1138 88.8162 87.055 88.8594 87.0118C88.9027 86.9687 88.9617 86.9443 89.0231 86.9443C89.0845 86.9443 89.1431 86.9687 89.1868 87.0118C89.2301 87.055 89.2545 87.1138 89.2545 87.175V98.6273C89.2545 98.6587 89.2482 98.6896 89.2356 98.7187C89.223 98.7477 89.2049 98.7736 89.1817 98.7952C89.1589 98.8172 89.1317 98.8336 89.1018 98.8442C89.0723 98.8552 89.0408 98.8599 89.0094 98.858Z" fill="black"/>
<path d="M55.1341 132.541H23.3779C23.3165 132.541 23.2576 132.516 23.2142 132.473C23.1708 132.43 23.1465 132.371 23.1465 132.31V100.648C23.1465 100.587 23.1708 100.528 23.2142 100.485C23.2576 100.442 23.3165 100.417 23.3779 100.417H52.7878C52.8488 100.419 52.907 100.443 52.9499 100.486C52.9932 100.529 53.018 100.587 53.0192 100.648C53.0192 100.709 52.9948 100.768 52.9515 100.811C52.9078 100.855 52.8492 100.879 52.7878 100.879H23.6324V132.079H54.9259V100.648C54.9259 100.587 54.9499 100.528 54.9936 100.485C55.0369 100.442 55.0959 100.417 55.1573 100.417C55.2183 100.419 55.2761 100.443 55.3194 100.486C55.3627 100.529 55.3875 100.587 55.3887 100.648V132.31C55.3887 132.342 55.382 132.374 55.369 132.404C55.356 132.434 55.3367 132.46 55.3127 132.482C55.2887 132.504 55.2604 132.52 55.2297 132.53C55.199 132.54 55.1663 132.544 55.1341 132.541Z" fill="black"/>
<path d="M89.0094 132.541H70.4008C70.3394 132.541 70.2804 132.516 70.2371 132.473C70.1938 132.43 70.1694 132.371 70.1694 132.31C70.1706 132.249 70.1954 132.191 70.2383 132.149C70.2816 132.105 70.3398 132.081 70.4008 132.079H88.7776V100.879H57.4984V132.079H65.8841C65.9451 132.081 66.0029 132.105 66.0462 132.149C66.0895 132.191 66.1143 132.249 66.1155 132.31C66.1155 132.371 66.0911 132.43 66.0474 132.473C66.0041 132.516 65.9455 132.541 65.8841 132.541H57.2532C57.1919 132.541 57.1328 132.516 57.0896 132.473C57.0459 132.43 57.0215 132.371 57.0215 132.31V100.648C57.0215 100.587 57.0459 100.528 57.0896 100.485C57.1328 100.442 57.1919 100.417 57.2532 100.417H89.0094C89.0703 100.417 89.1294 100.442 89.1726 100.485C89.2163 100.528 89.2407 100.587 89.2407 100.648V132.31C89.2407 132.371 89.2163 132.43 89.1726 132.473C89.1294 132.516 89.0703 132.541 89.0094 132.541Z" fill="black"/>
<path d="M171.771 78.1729H119.754C118.236 78.1729 117.005 79.4 117.005 80.9135V149.276C117.005 150.79 118.236 152.017 119.754 152.017H171.771C173.289 152.017 174.519 150.79 174.519 149.276V80.9135C174.519 79.4 173.289 78.1729 171.771 78.1729Z" fill="white"/>
<path opacity="0.3" d="M123.674 120.521V130.077C123.674 130.077 120.176 129.509 116.987 128.665V108.326C118.551 103.61 119.944 99.8823 119.944 99.8823C119.944 99.8823 118.792 97.889 116.987 95.0879V87.8577L119.232 91.0875L121.291 91.7753L123.073 99.5037L120.208 118.422L123.674 120.521Z" fill="black" fill-opacity="0.7"/>
<path d="M171.771 78.1729H119.754C118.236 78.1729 117.005 79.4 117.005 80.9135V149.276C117.005 150.79 118.236 152.017 119.754 152.017H171.771C173.289 152.017 174.519 150.79 174.519 149.276V80.9135C174.519 79.4 173.289 78.1729 171.771 78.1729Z" stroke="black" stroke-linecap="round" stroke-linejoin="round"/>
<path d="M119.753 78.1681H171.77C172.499 78.1681 173.198 78.4568 173.714 78.9711C174.229 79.4851 174.519 80.1822 174.519 80.9091V85.8601H117.009V80.9366C117.005 80.5749 117.073 80.2159 117.21 79.8805C117.346 79.5451 117.547 79.2399 117.803 78.9825C118.058 78.7252 118.361 78.5204 118.696 78.3807C119.031 78.2411 119.39 78.1689 119.753 78.1681Z" fill="#CAFF04" stroke="black" stroke-linecap="round" stroke-linejoin="round"/>
<path d="M132.388 82.021H159.141" stroke="white" stroke-width="3" stroke-linecap="round" stroke-linejoin="round"/>
<path d="M171.089 89.8741H121.201V132.31H171.089V89.8741Z" fill="white"/>
<path opacity="0.4" d="M171.089 89.8741H121.201V132.31H171.089V89.8741Z" fill="#CAFF04"/>
<path d="M171.089 89.8741H121.201V132.31H171.089V89.8741Z" stroke="black" stroke-linecap="round" stroke-linejoin="round"/>
<path d="M120.013 94.2668C119.543 98.1393 118.611 101.942 117.237 105.594C115.071 111.09 112.433 118.209 112.438 122.602C112.438 125.892 129.348 127.987 129.348 127.987L130.616 117.504L121.823 117.199C121.823 117.199 122.748 113.937 123.114 107.33C123.322 103.606 126.127 95.8404 126.127 95.8404" fill="white"/>
<path d="M120.013 94.2668C119.543 98.1393 118.611 101.942 117.237 105.594C115.071 111.09 112.433 118.209 112.438 122.602C112.438 125.892 129.348 127.987 129.348 127.987L130.616 117.504L121.823 117.199C121.823 117.199 122.748 113.937 123.114 107.33C123.322 103.606 126.127 95.8404 126.127 95.8404" stroke="black" stroke-linecap="round" stroke-linejoin="round"/>
<path d="M138.321 114.956H146.882C146.882 114.956 148.206 112.46 154.796 112.963C161.386 113.466 163.033 114.956 163.033 114.956C163.033 114.956 168.892 116.253 171.09 117.504V132.31H136.09L134.66 130.437L123.123 128.656C123.123 128.656 123.123 117.545 124.974 114.956C124.974 114.956 126.987 114.924 127.172 116.202C127.154 116.202 135.391 114.956 138.321 114.956Z" fill="black"/>
<path d="M147.234 108.695C147.407 109.007 147.624 109.293 147.878 109.544C149.752 111.39 149.918 112.903 149.613 113.96C149.418 114.612 149.035 115.193 148.512 115.63C148.512 115.63 148.405 118.565 152.057 118.92C156.448 119.344 158.915 114.767 158.915 114.767C153.445 107.279 157.559 104.113 157.559 104.113C152.251 101.16 145.221 105.142 147.234 108.695Z" fill="white" stroke="black" stroke-linecap="round" stroke-linejoin="round"/>
<path opacity="0.2" d="M147.878 109.544C149.752 111.39 149.918 112.903 149.613 113.96C154.792 112.225 153.732 108.271 153.732 108.271C152.825 109.167 151.762 109.893 150.594 110.411C149.859 110.67 147.878 109.544 147.878 109.544Z" fill="black" fill-opacity="0.7"/>
<path d="M158.38 100.703C160.37 92.1997 156.251 88.5175 153.549 87.401C149.222 85.6152 143.599 88.4206 142.321 93.1456C141.044 97.8705 142.197 98.9454 142.137 100.874C142.095 102.231 141.257 102.9 142.178 106.3C142.789 108.543 143.802 112.142 147.653 111.496C148.832 111.291 149.976 110.919 151.05 110.393" fill="white"/>
<path d="M158.38 100.703C160.37 92.1997 156.251 88.5175 153.549 87.401C149.222 85.6152 143.599 88.4206 142.321 93.1456C141.044 97.8705 142.197 98.9454 142.137 100.874C142.095 102.231 141.257 102.9 142.178 106.3C142.789 108.543 143.802 112.142 147.653 111.496C148.832 111.291 149.976 110.919 151.05 110.393" stroke="black" stroke-linecap="round" stroke-linejoin="round"/>
<path d="M147.158 97.9396C147.158 97.9396 148.759 97.3444 149.611 99.2177" stroke="black" stroke-linecap="round" stroke-linejoin="round"/>
<path d="M141.724 96.9474C141.724 96.9474 143.394 96.5877 144.107 97.7964" stroke="black" stroke-linecap="round" stroke-linejoin="round"/>
<path d="M144.532 100.205C144.532 100.205 144.675 101.696 144.106 101.977C143.537 102.259 142.648 101.663 142.912 102.844C143.176 104.025 144.546 104.104 144.546 104.104" stroke="black" stroke-linecap="round" stroke-linejoin="round"/>
<path d="M147.478 100.598C147.478 100.994 147.653 101.313 147.871 101.313C148.089 101.313 148.269 100.994 148.269 100.598C148.269 100.2 148.093 99.8823 147.871 99.8823C147.649 99.8823 147.478 100.2 147.478 100.598Z" fill="black" stroke="black" stroke-linecap="round" stroke-linejoin="round"/>
<path d="M142.91 100.205C142.91 100.602 143.09 100.92 143.308 100.92C143.526 100.92 143.706 100.602 143.706 100.205C143.706 99.8082 143.526 99.49 143.308 99.49C143.09 99.49 142.91 99.8129 142.91 100.205Z" fill="black" stroke="black" stroke-linecap="round" stroke-linejoin="round"/>
<path d="M147.479 105.267C147.479 105.267 145.734 106.231 144.105 105.811" stroke="black" stroke-linecap="round" stroke-linejoin="round"/>
<path d="M147.16 105.594C147.111 105.944 146.949 106.268 146.698 106.518C146.448 106.767 146.123 106.929 145.772 106.979C145.62 107 145.464 106.989 145.316 106.947C145.168 106.904 145.031 106.831 144.913 106.731C144.795 106.632 144.7 106.509 144.634 106.37C144.567 106.231 144.531 106.08 144.527 105.927" stroke="black" stroke-linecap="round" stroke-linejoin="round"/>
<path d="M140.744 96.0895C140.744 96.0895 138.629 94.1146 140.42 89.9342C142.211 85.7537 157.219 85.0201 160.426 89.9063C163.633 94.7929 161.079 104.159 156.095 107.329C156.095 107.329 157.071 103.283 153.818 102.152C153.818 102.152 150.921 98.9223 152.082 95.0836C152.082 95.0836 150.481 95.3559 150.051 96.583C150.051 96.583 147.843 96.1216 147.7 94.1605C147.403 94.9969 147.265 95.8808 147.293 96.7678C147.293 96.7678 144.053 95.9879 143.822 94.5438C143.679 94.8404 143.629 95.173 143.679 95.4987C143.73 95.8239 143.878 96.1264 144.104 96.3661C143.513 96.359 142.932 96.2193 142.403 95.9573C141.874 95.6952 141.412 95.3178 141.05 94.8529L140.744 96.0895Z" fill="black"/>
<path d="M153.555 102.189C153.555 102.189 155.119 99.2872 156.753 99.993C158.386 100.699 157.248 104.173 155.827 105.308C154.406 106.444 153.555 105.308 153.555 105.308" fill="white"/>
<path d="M153.555 102.189C153.555 102.189 155.119 99.2872 156.753 99.993C158.386 100.699 157.248 104.173 155.827 105.308C154.406 106.444 153.555 105.308 153.555 105.308" stroke="black" stroke-linecap="round" stroke-linejoin="round"/>
<path d="M124.941 97.7505C125.94 97.6905 126.764 96.6525 127.148 96.1401C127.508 95.6482 127.802 95.1115 128.023 94.5438C128.222 94.0319 128.465 93.5379 128.749 93.0672C128.934 92.749 129.133 92.4399 129.323 92.1445C129.719 91.5588 130.147 90.995 130.605 90.4556C130.605 90.4556 130.295 89.3438 129.406 89.8926C129.165 90.0527 128.948 90.2469 128.763 90.4693C128.43 90.8526 128.134 91.2998 127.874 91.6368C127.746 91.8471 127.562 92.0178 127.342 92.1307C127.251 92.15 127.158 92.1606 127.065 92.1629H127.037H126.935C126.736 92.1547 126.542 92.0923 126.375 91.9828C126.3 91.9354 126.234 91.8742 126.181 91.8028C126.162 91.7855 126.146 91.7655 126.134 91.7431C126.1 91.6851 126.069 91.6247 126.042 91.5631C125.902 91.2159 125.812 90.851 125.774 90.4787C125.707 89.9217 125.68 89.3603 125.695 88.7993C125.695 88.5913 125.695 88.3791 125.718 88.181C125.74 87.6667 125.788 87.1539 125.861 86.6443C125.912 86.2846 125.963 85.8923 126.005 85.5047C126.047 85.1171 126.069 84.7526 126.074 84.4066C126.074 83.396 125.931 82.6208 125.338 82.7962C124.746 82.9715 124.769 83.327 124.672 84.2081C124.635 84.5172 124.594 84.8817 124.524 85.3246C124.392 86.0959 124.21 86.8573 123.978 87.6043C123.95 87.6965 123.918 87.7934 123.885 87.895H123.52C123.497 87.964 123.45 87.8208 123.404 87.5301C123.292 86.7502 123.223 85.9648 123.2 85.1771C123.2 84.8173 123.2 84.4388 123.2 84.0559C123.2 83.673 123.2 83.3685 123.233 83.0268C123.321 81.3336 122.252 81.8319 121.974 82.3395C121.794 82.9072 121.727 83.5043 121.775 84.0975C121.775 84.4756 121.775 84.8679 121.775 85.2371C121.775 85.4262 121.775 85.6063 121.775 85.7769C121.733 86.4874 121.701 87.2257 121.673 87.7334C121.673 87.8071 121.673 87.8718 121.673 87.9319L121.21 88.1347C121.179 88.0609 121.151 87.9856 121.127 87.9087C120.883 87.2332 120.695 86.5388 120.567 85.8322C120.479 85.3477 120.438 84.9601 120.396 84.6604C120.317 84.088 120.239 83.8115 119.841 83.7373C119.443 83.6636 119.188 84.2587 119.133 85.0064C119.09 85.5921 119.132 86.181 119.258 86.7549C119.285 86.866 119.313 86.9629 119.345 87.0551C119.498 87.5666 119.587 88.0951 119.609 88.6286C119.609 88.7298 119.609 88.8408 119.632 88.9515L119.378 89.2838C119.299 89.15 119.234 89.0162 119.17 88.8915C118.959 88.4713 118.772 88.0401 118.61 87.5996C118.489 87.2375 118.35 86.8817 118.193 86.5337C118.059 86.2799 117.916 86.1508 117.684 86.1645C117.328 86.1645 117.221 86.6859 117.3 87.2857C117.337 87.6447 117.411 87.999 117.522 88.3422C117.598 88.5945 117.702 88.8377 117.832 89.0668C118.054 89.5082 118.226 89.9723 118.346 90.4509C118.397 90.6447 118.452 90.8479 118.503 91.0464C118.688 91.7616 118.836 92.4305 118.883 92.6706C118.883 92.7259 118.883 92.758 118.883 92.758C118.91 93.3163 118.943 93.7871 118.989 94.1978C119.059 95.1672 119.336 96.1107 119.799 96.9663C120.03 97.4277 120.669 97.6721 121.437 97.8153" fill="white"/>
<path d="M124.941 97.7505C125.94 97.6905 126.764 96.6525 127.148 96.1401C127.508 95.6482 127.802 95.1115 128.023 94.5438C128.222 94.0319 128.465 93.5379 128.749 93.0672C128.934 92.749 129.133 92.4399 129.323 92.1445C129.719 91.5588 130.147 90.995 130.605 90.4556C130.605 90.4556 130.295 89.3438 129.406 89.8926C129.165 90.0527 128.948 90.2469 128.763 90.4693C128.43 90.8526 128.134 91.2998 127.874 91.6368C127.746 91.8471 127.562 92.0178 127.342 92.1307C127.251 92.15 127.158 92.1606 127.065 92.1629H127.037H126.935C126.736 92.1547 126.542 92.0923 126.375 91.9828C126.3 91.9354 126.234 91.8742 126.181 91.8028C126.162 91.7855 126.146 91.7655 126.134 91.7431C126.1 91.6851 126.069 91.6247 126.042 91.5631C125.902 91.2159 125.812 90.851 125.774 90.4787C125.707 89.9217 125.68 89.3603 125.695 88.7993C125.695 88.5913 125.695 88.3791 125.718 88.181C125.74 87.6667 125.788 87.1539 125.861 86.6443C125.912 86.2846 125.963 85.8923 126.005 85.5047C126.047 85.1171 126.069 84.7526 126.074 84.4066C126.074 83.396 125.931 82.6208 125.338 82.7962C124.746 82.9715 124.769 83.327 124.672 84.2081C124.635 84.5172 124.594 84.8817 124.524 85.3246C124.392 86.0959 124.21 86.8573 123.978 87.6043C123.95 87.6965 123.918 87.7934 123.885 87.895H123.52C123.497 87.964 123.45 87.8208 123.404 87.5301C123.292 86.7502 123.223 85.9648 123.2 85.1771C123.2 84.8173 123.2 84.4388 123.2 84.0559C123.2 83.673 123.2 83.3685 123.233 83.0268C123.321 81.3336 122.252 81.8319 121.974 82.3395C121.794 82.9072 121.727 83.5043 121.775 84.0975C121.775 84.4756 121.775 84.8679 121.775 85.2371C121.775 85.4262 121.775 85.6063 121.775 85.7769C121.733 86.4874 121.701 87.2257 121.673 87.7334C121.673 87.8071 121.673 87.8718 121.673 87.9319L121.21 88.1347C121.179 88.0609 121.151 87.9856 121.127 87.9087C120.883 87.2332 120.695 86.5388 120.567 85.8322C120.479 85.3477 120.438 84.9601 120.396 84.6604C120.317 84.088 120.239 83.8115 119.841 83.7373C119.443 83.6636 119.188 84.2587 119.133 85.0064C119.09 85.5921 119.132 86.181 119.258 86.7549C119.285 86.866 119.313 86.9629 119.345 87.0551C119.498 87.5666 119.587 88.0951 119.609 88.6286C119.609 88.7298 119.609 88.8408 119.632 88.9515L119.378 89.2838C119.299 89.15 119.234 89.0162 119.17 88.8915C118.959 88.4713 118.772 88.0401 118.61 87.5996C118.489 87.2375 118.35 86.8817 118.193 86.5337C118.059 86.2799 117.916 86.1508 117.684 86.1645C117.328 86.1645 117.221 86.6859 117.3 87.2857C117.337 87.6447 117.411 87.999 117.522 88.3422C117.598 88.5945 117.702 88.8377 117.832 89.0668C118.054 89.5082 118.226 89.9723 118.346 90.4509C118.397 90.6447 118.452 90.8479 118.503 91.0464C118.688 91.7616 118.836 92.4305 118.883 92.6706C118.883 92.7259 118.883 92.758 118.883 92.758C118.91 93.3163 118.943 93.7871 118.989 94.1978C119.059 95.1672 119.336 96.1107 119.799 96.9663C120.03 97.4277 120.669 97.6721 121.437 97.8153" stroke="black" stroke-linecap="round" stroke-linejoin="round"/>
<path d="M126.136 91.7616C126.136 91.7616 123.951 91.6784 123.304 93.7686" stroke="black" stroke-linecap="round" stroke-linejoin="round"/>
<path d="M121.822 117.199C121.699 117.647 121.477 118.062 121.173 118.414C120.869 118.766 120.49 119.046 120.063 119.234" stroke="black" stroke-linecap="round" stroke-linejoin="round"/>
<path d="M85.3208 24.9676V93.2978C85.3208 93.9722 85.0525 94.6187 84.574 95.0958C84.0959 95.5724 83.4475 95.8404 82.7711 95.8404H42.9716C42.6367 95.8404 42.3054 95.7745 41.9958 95.6466C41.6865 95.5191 41.4056 95.3316 41.1687 95.0958C40.9318 94.8596 40.7441 94.5791 40.6159 94.2708C40.488 93.9624 40.4219 93.6317 40.4219 93.2978V24.9676C40.4219 24.6338 40.488 24.3032 40.6159 23.9947C40.7441 23.6862 40.9318 23.406 41.1687 23.1699C41.4056 22.9338 41.6865 22.7465 41.9958 22.6187C42.3054 22.491 42.6367 22.4252 42.9716 22.4252H51.4824C51.9652 22.4222 52.439 22.5558 52.8486 22.8107C53.2582 23.0655 53.5867 23.4311 53.7965 23.8648C54.0046 24.2998 54.3328 24.6666 54.7428 24.9224C55.1524 25.1782 55.6269 25.3123 56.1101 25.309H69.2391C69.7227 25.3123 70.1972 25.1782 70.6068 24.9224C71.0168 24.6666 71.345 24.2998 71.5532 23.8648C71.7625 23.4311 72.0914 23.0655 72.501 22.8107C72.9106 22.5558 73.3844 22.4222 73.8672 22.4252H82.8266C83.4931 22.4397 84.1278 22.714 84.5941 23.1892C85.0603 23.6644 85.3212 24.3028 85.3208 24.9676Z" fill="#CAFF04"/>
<path opacity="0.5" d="M85.3208 24.9676V93.2978C85.3208 93.9722 85.0525 94.6187 84.574 95.0958C84.0959 95.5724 83.4475 95.8404 82.7711 95.8404H42.9716C42.6367 95.8404 42.3054 95.7745 41.9958 95.6466C41.6865 95.5191 41.4056 95.3316 41.1687 95.0958C40.9318 94.8596 40.7441 94.5791 40.6159 94.2708C40.488 93.9624 40.4219 93.6317 40.4219 93.2978V24.9676C40.4219 24.6338 40.488 24.3032 40.6159 23.9947C40.7441 23.6862 40.9318 23.406 41.1687 23.1699C41.4056 22.9338 41.6865 22.7465 41.9958 22.6187C42.3054 22.491 42.6367 22.4252 42.9716 22.4252H51.4824C51.9652 22.4222 52.439 22.5558 52.8486 22.8107C53.2582 23.0655 53.5867 23.4311 53.7965 23.8648C54.0046 24.2998 54.3328 24.6666 54.7428 24.9224C55.1524 25.1782 55.6269 25.3123 56.1101 25.309H69.2391C69.7227 25.3123 70.1972 25.1782 70.6068 24.9224C71.0168 24.6666 71.345 24.2998 71.5532 23.8648C71.7625 23.4311 72.0914 23.0655 72.501 22.8107C72.9106 22.5558 73.3844 22.4222 73.8672 22.4252H82.8266C83.4931 22.4397 84.1278 22.714 84.5941 23.1892C85.0603 23.6644 85.3212 24.3028 85.3208 24.9676Z" fill="white"/>
<mask id="mask0_54_15570" style="mask-type:luminance" maskUnits="userSpaceOnUse" x="42" y="31" width="7" height="7">
<path d="M48.6741 31.4884H42.3018V37.8474H48.6741V31.4884Z" fill="white"/>
</mask>
<g mask="url(#mask0_54_15570)">
<path fill-rule="evenodd" clip-rule="evenodd" d="M42.5086 32.9881L42.3018 33.2242V36.9613C42.3018 37.4219 42.6822 37.7953 43.1514 37.7953H47.8245C48.2937 37.7953 48.6741 37.4219 48.6741 36.9613V33.7648C48.6741 33.3042 48.2937 32.9308 47.8245 32.9308H46.8239V32.8949L46.9302 32.8335C46.9951 32.7961 47.0349 32.7277 47.0349 32.6538V31.7375L46.8285 31.5405L42.5086 32.9881Z" fill="black"/>
<path d="M46.9705 36.4009C46.8335 36.9236 46.1831 36.5893 45.8659 36.6538C45.5586 36.717 45.1834 37.2263 44.7984 36.847C44.4639 36.5188 44.9996 35.5148 45.5993 35.392C46.1991 35.268 47.0902 35.9451 46.9705 36.4009Z" fill="white"/>
<path fill-rule="evenodd" clip-rule="evenodd" d="M46.525 35.7167C46.2476 35.5099 45.8892 35.3804 45.6089 35.4383L45.6088 35.4383C45.3292 35.4956 45.0548 35.7629 44.8908 36.0647C44.8095 36.2143 44.7578 36.3682 44.7459 36.5024C44.734 36.6372 44.7627 36.745 44.8322 36.8132L44.8323 36.8133C44.9213 36.901 45.006 36.9341 45.0864 36.9381C45.1686 36.9421 45.2525 36.9159 45.3394 36.8736C45.4051 36.8416 45.4689 36.8023 45.5333 36.7627C45.5547 36.7495 45.5762 36.7363 45.5979 36.7232C45.6821 36.6727 45.7696 36.6247 45.8556 36.6071L45.8557 36.607C45.9441 36.5891 46.052 36.5993 46.159 36.6133C46.1857 36.6168 46.2125 36.6205 46.2393 36.6243C46.323 36.636 46.4066 36.6478 46.4876 36.6515C46.5943 36.6565 46.6882 36.6469 46.7621 36.6095C46.8334 36.5733 46.8919 36.5083 46.9232 36.3889L46.9232 36.3889C46.9486 36.2918 46.9216 36.1774 46.849 36.0576C46.7769 35.9385 46.6627 35.8193 46.525 35.7167ZM47.017 36.4126C47.0513 36.2817 47.0119 36.1406 46.9323 36.0091C46.8523 35.877 46.7287 35.7491 46.5836 35.641C46.2955 35.4263 45.9085 35.2793 45.589 35.3453C45.2689 35.4108 44.9755 35.7069 44.8054 36.0199C44.7197 36.1776 44.6627 36.344 44.6494 36.4942C44.6362 36.6438 44.666 36.7845 44.7637 36.8804C44.8672 36.9824 44.9738 37.0278 45.0816 37.033C45.1877 37.0382 45.289 37.0042 45.3824 36.9587C45.4529 36.9244 45.5225 36.8816 45.5878 36.8414C45.6085 36.8286 45.6288 36.8162 45.6485 36.8043C45.7331 36.7535 45.8077 36.7141 45.8754 36.7001C45.9455 36.6859 46.0378 36.6933 46.1462 36.7075C46.1709 36.7107 46.1963 36.7143 46.2223 36.718C46.3069 36.7299 46.397 36.7425 46.4831 36.7465C46.5957 36.7517 46.71 36.7428 46.8065 36.6939C46.9056 36.6437 46.9798 36.5545 47.017 36.4126Z" fill="white"/>
<path fill-rule="evenodd" clip-rule="evenodd" d="M45.6803 35.3117C45.9126 35.2924 46.1429 35.3657 46.341 35.4664L46.341 35.4664C46.5484 35.5722 46.7459 35.7211 46.8882 35.908L46.8882 35.9081C46.9914 36.0443 47.0818 36.2244 47.038 36.4142C47.0377 36.4158 47.0373 36.4173 47.0369 36.4189C47.0366 36.4199 47.0363 36.421 47.036 36.422C46.998 36.5548 46.9227 36.646 46.8215 36.7011C46.7211 36.7558 46.5997 36.7725 46.4727 36.7655C46.4124 36.7623 46.3509 36.7536 46.2907 36.7444C46.2794 36.7426 46.2682 36.7409 46.257 36.7391C46.2079 36.7315 46.1597 36.7239 46.1115 36.7187C45.9935 36.7058 45.8846 36.7077 45.7863 36.7526C45.7183 36.7839 45.655 36.8234 45.5887 36.8648C45.5585 36.8836 45.5277 36.9028 45.4955 36.9218C45.3955 36.981 45.2865 37.0351 45.1606 37.0497C44.9502 37.0741 44.7243 36.9429 44.6549 36.7418M45.6803 35.3117C45.4528 35.3299 45.2553 35.4519 45.1015 35.5984C44.9335 35.7576 44.8002 35.9553 44.7126 36.1678L44.7126 36.1679C44.6437 36.3357 44.5886 36.55 44.6549 36.7418M46.9037 36.3816C46.924 36.2974 46.9059 36.2109 46.865 36.1268C46.824 36.0423 46.7616 35.9633 46.6991 35.8971C46.5366 35.7264 46.3283 35.592 46.1047 35.5119C45.9186 35.4457 45.7175 35.4175 45.5374 35.4793L45.5374 35.4793C45.3509 35.5432 45.1925 35.6826 45.0671 35.8382C44.9431 35.9936 44.8431 36.1713 44.7933 36.3604L44.7933 36.3604C44.7736 36.435 44.7603 36.5166 44.765 36.5934C44.7696 36.6698 44.7919 36.7387 44.8405 36.7922C44.9217 36.8813 45.0126 36.9134 45.1069 36.9115C45.2035 36.9096 45.3069 36.8718 45.4083 36.8143C45.4436 36.7941 45.4789 36.7716 45.5158 36.7481L45.5213 36.7446C45.5598 36.7201 45.5999 36.6947 45.6412 36.6715C45.7237 36.6252 45.8146 36.5858 45.9164 36.5783C46.0078 36.5715 46.1116 36.5841 46.2132 36.5979C46.2247 36.5994 46.2361 36.601 46.2476 36.6026C46.3394 36.6152 46.4296 36.6276 46.5145 36.6294C46.6101 36.6313 46.6925 36.6196 46.7577 36.5837C46.8208 36.549 46.8732 36.4887 46.9037 36.3816Z" fill="white"/>
<path d="M45.1521 35.0771C45.3412 34.9674 45.3813 34.689 45.2416 34.4553C45.1018 34.2216 44.8353 34.121 44.6461 34.2307C44.457 34.3404 44.417 34.6188 44.5567 34.8525C44.6964 35.0862 44.963 35.1868 45.1521 35.0771Z" fill="white"/>
<path fill-rule="evenodd" clip-rule="evenodd" d="M44.6704 34.2717C44.5127 34.3632 44.4665 34.608 44.5982 34.8283C44.7299 35.0486 44.9697 35.1275 45.1274 35.036C45.2851 34.9446 45.3314 34.6997 45.1997 34.4794C45.068 34.2591 44.8282 34.1802 44.6704 34.2717ZM44.5148 34.8766C44.3671 34.6295 44.4009 34.3176 44.6214 34.1897C44.842 34.0618 45.1353 34.184 45.283 34.4311C45.4308 34.6782 45.3969 34.9901 45.1764 35.118C44.9559 35.2459 44.6625 35.1238 44.5148 34.8766Z" fill="white"/>
<path fill-rule="evenodd" clip-rule="evenodd" d="M44.6946 34.1368C44.9144 34.0702 45.1282 34.1975 45.2515 34.3495L45.2508 34.3501C45.2511 34.3506 45.2515 34.3511 45.2519 34.3516C45.2547 34.3555 45.2576 34.3593 45.2604 34.3633C45.2718 34.3865 45.2663 34.4103 45.2555 34.4275C45.3093 34.5155 45.3464 34.6223 45.352 34.7283C45.3574 34.8288 45.3342 34.9311 45.2672 35.0139C45.2672 35.0139 45.2672 35.0139 45.2672 35.0139C45.2491 35.0364 45.2277 35.0574 45.2027 35.0766L45.2027 35.0766C45.0953 35.159 44.9693 35.1643 44.8569 35.129C44.8321 35.1212 44.8078 35.1113 44.7842 35.0998C44.7842 35.0998 44.7842 35.0998 44.7842 35.0998C44.7021 35.0597 44.6292 34.9992 44.5766 34.932L44.5765 34.9319C44.5078 34.8435 44.4589 34.727 44.4476 34.6095L44.4064 34.613C44.4064 34.613 44.4063 34.613 44.4063 34.6129C44.4063 34.6129 44.4063 34.6129 44.4063 34.6129L44.4476 34.6095C44.4471 34.6036 44.4466 34.5978 44.4462 34.5919C44.4383 34.468 44.4733 34.3402 44.5775 34.2479C44.6179 34.2117 44.6614 34.1878 44.7062 34.174L44.6945 34.1368C44.6945 34.1368 44.6946 34.1368 44.6946 34.1368ZM44.7062 34.174L44.6946 34.1368C44.6946 34.1368 44.6946 34.1368 44.6946 34.1368M44.7062 34.174C44.78 34.1512 44.8573 34.1556 44.9295 34.1773C45.0222 34.2051 45.1088 34.2615 45.1761 34.3277C45.1834 34.325 45.1917 34.3234 45.2006 34.3237C45.2215 34.3242 45.2391 34.3347 45.2505 34.3498L45.2512 34.3492C45.255 34.3538 45.2581 34.3585 45.2604 34.3633C45.3925 34.5479 45.4612 34.8309 45.2989 35.0378L45.2988 35.0378C45.1678 35.2047 44.9421 35.2229 44.7653 35.1378L44.7651 35.1377C44.5641 35.0401 44.425 34.8305 44.4063 34.6129C44.3891 34.4191 44.4804 34.2015 44.6946 34.1368M45.1363 34.3647C45.0254 34.2524 44.87 34.1831 44.7231 34.2276L44.7231 34.2276C44.6814 34.2402 44.6452 34.2611 44.6149 34.2882C44.6149 34.2882 44.6148 34.2882 44.6148 34.2882C44.5315 34.3625 44.492 34.4831 44.5028 34.6047L44.5029 34.6049C44.5119 34.7105 44.5545 34.814 44.6207 34.8988L44.6534 34.8741C44.6535 34.8741 44.6535 34.8741 44.6535 34.8742C44.6535 34.8742 44.6535 34.8742 44.6535 34.8742L44.6207 34.8988C44.671 34.9633 44.7349 35.0169 44.808 35.0525C44.9299 35.1111 45.0692 35.1066 45.1678 35.0329L45.143 35.0018C45.143 35.0018 45.143 35.0018 45.143 35.0018C45.143 35.0017 45.143 35.0017 45.1431 35.0017L45.1678 35.0329C45.1877 35.018 45.206 35.0003 45.2221 34.9798M45.1444 34.4349C45.0834 34.3611 44.994 34.296 44.9012 34.2682C44.8099 34.2408 44.7187 34.25 44.6428 34.3182L44.6425 34.3184L44.6425 34.3184C44.5655 34.3865 44.5363 34.483 44.5429 34.586C44.5495 34.6896 44.5924 34.7955 44.6535 34.8742C44.7105 34.9469 44.796 35.01 44.8865 35.0384C44.9759 35.0666 45.0666 35.0604 45.143 35.0018C45.2287 34.9359 45.2609 34.8388 45.2553 34.7332C45.2497 34.6271 45.2056 34.5168 45.1444 34.4349ZM45.1363 34.3647C45.127 34.3847 45.1257 34.4106 45.1439 34.4343L45.1363 34.3647ZM45.1439 34.4343C45.1441 34.4345 45.1442 34.4347 45.1444 34.4349C45.1445 34.4351 45.1446 34.4352 45.1448 34.4354C45.1574 34.4512 45.176 34.4608 45.1968 34.4607C45.2009 34.4607 45.2049 34.4603 45.2087 34.4596" fill="white"/>
<path d="M46.3724 34.4452C46.381 34.1728 46.2112 33.9466 45.9932 33.94C45.7752 33.9334 45.5915 34.1488 45.5829 34.4213C45.5743 34.6937 45.7441 34.9199 45.9621 34.9265C46.1801 34.9332 46.3638 34.7177 46.3724 34.4452Z" fill="white"/>
<path fill-rule="evenodd" clip-rule="evenodd" d="M45.6305 34.4227C45.6223 34.6802 45.7817 34.8735 45.9627 34.879C46.1438 34.8845 46.315 34.7013 46.3231 34.4438C46.3312 34.1862 46.1719 33.993 45.9908 33.9875C45.8098 33.982 45.6386 34.1652 45.6305 34.4227ZM45.9597 34.974C45.7048 34.9663 45.5246 34.7071 45.5336 34.4198C45.5427 34.1324 45.7389 33.8847 45.9938 33.8925C46.2488 33.9002 46.429 34.1594 46.4199 34.4467C46.4109 34.734 46.2147 34.9818 45.9597 34.974Z" fill="white"/>
<path fill-rule="evenodd" clip-rule="evenodd" d="M45.6577 34.0301C45.7874 33.8795 46.003 33.8199 46.1874 33.9289L46.1875 33.9289C46.3925 34.0503 46.4585 34.3013 46.4365 34.5082L46.4354 34.5081C46.4353 34.5093 46.4351 34.5106 46.4349 34.5119C46.4343 34.516 46.4336 34.5202 46.433 34.5243C46.4246 34.5485 46.404 34.562 46.3837 34.5668C46.3598 34.6619 46.3118 34.7591 46.2424 34.8326C46.179 34.8998 46.0959 34.9483 45.9977 34.9542L46.0009 34.9943C46.0008 34.9943 46.0008 34.9943 46.0008 34.9943L45.9977 34.9542C45.9641 34.9563 45.9288 34.9533 45.8918 34.9445C45.7591 34.9128 45.6686 34.8186 45.6158 34.7087C45.6075 34.6915 45.6001 34.6738 45.5935 34.6557C45.5935 34.6557 45.5935 34.6557 45.5935 34.6557C45.5584 34.5591 45.5479 34.4528 45.5603 34.3586L45.6083 34.3646L45.5603 34.3586C45.5738 34.2551 45.6184 34.1431 45.6903 34.057C45.6903 34.057 45.6903 34.057 45.6903 34.057C45.6932 34.0535 45.6963 34.05 45.6993 34.0465C45.7772 33.9583 45.888 33.8975 46.0239 33.9139C46.0782 33.9203 46.1259 33.9371 46.1675 33.9613C46.1675 33.9613 46.1676 33.9613 46.1676 33.9613C46.2396 34.0032 46.2933 34.0676 46.3302 34.1399C46.3778 34.2329 46.3995 34.3419 46.3991 34.4421C46.4066 34.4457 46.4138 34.4508 46.42 34.4578C46.4328 34.4722 46.4374 34.4902 46.4355 34.5076L46.4365 34.5077C46.4359 34.5137 46.4347 34.5193 46.433 34.5243C46.4157 34.628 46.3732 34.7368 46.305 34.8239C46.2334 34.9153 46.1317 34.9845 46.0008 34.9943C45.7819 35.0111 45.6188 34.8454 45.553 34.6704L45.5529 34.6701L45.5529 34.6701C45.4762 34.4616 45.5082 34.2039 45.6577 34.0301L45.6577 34.0301ZM46.3437 34.4401C46.3462 34.27 46.2813 34.0955 46.1375 34.0103C46.0989 33.9875 46.0581 33.9743 46.017 33.97C46.017 33.97 46.017 33.97 46.017 33.97C45.9128 33.9589 45.8069 34.0042 45.7317 34.0914M46.3437 34.4401C46.3227 34.4477 46.3039 34.4652 46.2997 34.494C46.2996 34.4943 46.2996 34.4947 46.2995 34.495C46.3096 34.3948 46.2921 34.2772 46.2437 34.1825C46.1955 34.0884 46.1196 34.021 46.0122 34.0083L46.0122 34.0083C45.9161 33.9967 45.835 34.038 45.7725 34.1088C45.7093 34.1803 45.6683 34.2792 45.6564 34.3707L45.6564 34.3707C45.6439 34.4656 45.6591 34.5761 45.7033 34.6682C45.7474 34.7598 45.8179 34.829 45.9147 34.8521L45.9148 34.8521C46.0178 34.8769 46.1041 34.8392 46.1714 34.768C46.2397 34.6957 46.2851 34.5913 46.2995 34.495M46.3388 34.5L46.2994 34.4963C46.2974 34.5162 46.3042 34.5354 46.3184 34.5493C46.3213 34.5521 46.3243 34.5545 46.3275 34.5566C46.3087 34.6317 46.2753 34.7059 46.2282 34.766C46.1693 34.8412 46.0908 34.8923 45.9934 34.8995L45.9933 34.8995C45.9627 34.9019 45.9331 34.8993 45.9047 34.8925C45.9047 34.8925 45.9047 34.8925 45.9047 34.8925C45.7861 34.8639 45.6905 34.7613 45.6439 34.6376C45.6124 34.5519 45.6026 34.4569 45.6143 34.3654C45.6143 34.3654 45.6143 34.3654 45.6143 34.3654M46.3955 34.5076C46.3955 34.5076 46.3955 34.5075 46.3955 34.5075L46.3476 34.5008L46.3955 34.5076ZM46.3391 34.5C46.3391 34.5 46.3391 34.5 46.3391 34.4999L46.3476 34.5008L46.3391 34.5ZM46.3388 34.4999C46.3388 34.4999 46.3388 34.5 46.3388 34.5L46.3388 34.4999Z" fill="white"/>
<path d="M47.3065 35.1567C47.3453 34.9596 47.246 34.7749 47.0848 34.7441C46.9235 34.7133 46.7613 34.8481 46.7226 35.0452C46.6838 35.2422 46.7831 35.4269 46.9443 35.4577C47.1056 35.4885 47.2678 35.3537 47.3065 35.1567Z" fill="white"/>
<path fill-rule="evenodd" clip-rule="evenodd" d="M46.7702 35.0542C46.7345 35.2356 46.8278 35.387 46.9536 35.4111C47.0794 35.4351 47.2234 35.3289 47.2591 35.1476C47.2948 34.9663 47.2015 34.8148 47.0757 34.7908C46.9498 34.7668 46.8059 34.8729 46.7702 35.0542ZM46.9352 35.5044C46.7385 35.4668 46.6332 35.2489 46.6751 35.0361C46.717 34.8233 46.8973 34.6599 47.094 34.6974C47.2907 34.735 47.396 34.953 47.3541 35.1657C47.3123 35.3785 47.1319 35.542 46.9352 35.5044Z" fill="white"/>
<path fill-rule="evenodd" clip-rule="evenodd" d="M46.8602 34.7253C46.9465 34.6708 47.0546 34.6496 47.1642 34.6966C47.2745 34.7438 47.338 34.8364 47.3659 34.9373C47.3934 35.0369 47.3873 35.1475 47.3567 35.2408C47.3565 35.2416 47.3562 35.2425 47.3559 35.2433C47.3555 35.2445 47.355 35.2457 47.3546 35.2468C47.3192 35.3359 47.2548 35.422 47.1714 35.4757C47.0858 35.5308 46.9788 35.5522 46.8675 35.5046C46.7586 35.4581 46.6938 35.3653 46.665 35.2643C46.6363 35.1639 46.6418 35.0518 46.6758 34.9577C46.7088 34.8659 46.775 34.779 46.8602 34.7253ZM47.225 35.1984C47.2469 35.13 47.2523 35.0488 47.2342 34.9782C47.2162 34.9078 47.1763 34.8512 47.1094 34.8227L47.1091 34.8225C47.0465 34.7952 46.985 34.8066 46.9306 34.8423C46.8749 34.8789 46.8295 34.9397 46.8066 35.0028L46.8066 35.0031L46.8066 35.0031C46.7831 35.067 46.7773 35.1451 46.7941 35.2152C46.8108 35.285 46.8485 35.3426 46.9084 35.3741C46.974 35.4083 47.037 35.3987 47.0931 35.3632C47.1507 35.3268 47.1989 35.2638 47.225 35.1984Z" fill="white"/>
<path d="M44.3596 35.9888C44.4949 35.8971 44.511 35.6887 44.3955 35.5234C44.28 35.358 44.0766 35.2983 43.9413 35.39C43.806 35.4817 43.7899 35.6901 43.9054 35.8554C44.021 36.0208 44.2243 36.0805 44.3596 35.9888Z" fill="white"/>
<path fill-rule="evenodd" clip-rule="evenodd" d="M43.9685 35.4292C43.8629 35.5008 43.8389 35.6764 43.9451 35.8284C44.0514 35.9805 44.2264 36.0212 44.3321 35.9496C44.4378 35.878 44.4617 35.7024 44.3555 35.5503C44.2493 35.3983 44.0742 35.3576 43.9685 35.4292ZM43.8654 35.8824C43.7407 35.7038 43.7488 35.4626 43.9138 35.3508C44.0787 35.239 44.3104 35.3177 44.4352 35.4963C44.56 35.675 44.5518 35.9162 44.3868 36.028C44.2219 36.1398 43.9902 36.0611 43.8654 35.8824Z" fill="white"/>
<path fill-rule="evenodd" clip-rule="evenodd" d="M44.1386 35.2832C44.2385 35.2988 44.3348 35.3525 44.4026 35.424C44.4026 35.424 44.4026 35.424 44.4026 35.424L44.3725 35.4515C44.3727 35.4516 44.3728 35.4518 44.3729 35.4519L44.3375 35.4844L44.3728 35.4518C44.432 35.5134 44.4768 35.5967 44.4937 35.6838C44.5107 35.7713 44.4999 35.866 44.4425 35.9458L44.4424 35.9459C44.4352 35.9558 44.4277 35.965 44.4199 35.9734L44.4497 36.0004C44.4496 36.0004 44.4496 36.0004 44.4496 36.0005C44.4496 36.0005 44.4496 36.0005 44.4495 36.0005L44.4199 35.9735C44.3524 36.0465 44.2624 36.0669 44.1763 36.0549C44.1039 36.0448 44.0331 36.012 43.9753 35.9684C43.9669 35.9724 43.9573 35.9749 43.9468 35.975C43.9296 35.9753 43.9131 35.969 43.9003 35.9573C43.8992 35.9563 43.8981 35.9552 43.897 35.9541L43.9315 35.9208L43.8972 35.9543C43.8972 35.9543 43.8971 35.9542 43.897 35.9541C43.8967 35.9538 43.8964 35.9535 43.8961 35.9532C43.8958 35.9529 43.8955 35.9525 43.8952 35.9522M43.8926 35.9493C43.8272 35.8759 43.7775 35.7782 43.7625 35.6772C43.7472 35.574 43.7679 35.4645 43.8488 35.3771L43.849 35.3768L43.849 35.3768C43.9299 35.2906 44.0374 35.2674 44.1386 35.2832M43.9624 35.894L43.9642 35.8923L43.964 35.8924L43.9624 35.894ZM43.9678 35.8894L43.9624 35.894L43.9678 35.8894C43.9678 35.8894 43.9678 35.8894 43.9678 35.8894ZM43.9978 35.8616C44.0489 35.9121 44.1209 35.9511 44.1899 35.9608C44.257 35.9701 44.319 35.9522 44.3634 35.8908C44.4023 35.8369 44.4118 35.77 44.3986 35.7016C44.3852 35.6328 44.3493 35.5659 44.3023 35.517L44.3021 35.5168L44.3021 35.5168C44.2539 35.4661 44.1839 35.4275 44.1155 35.4174C44.0489 35.4076 43.9865 35.4245 43.9412 35.4809C43.8982 35.535 43.8878 35.6019 43.9012 35.6712C43.9146 35.7408 43.9514 35.8096 43.9978 35.8616ZM43.9003 35.9573C43.9689 36.0244 44.0625 36.0772 44.1601 36.0934C44.2608 36.1102 44.3675 36.0878 44.4496 36.0005C44.5302 35.9153 44.5517 35.805 44.5372 35.7012C44.5226 35.598 44.4721 35.4972 44.4026 35.424C44.4026 35.424 44.4026 35.424 44.4026 35.424" fill="white"/>
<path d="M46.8239 32.895L42.6918 33.1958C42.4811 33.2112 42.3177 32.9948 42.5186 32.9296L46.7558 31.5531C46.8932 31.5084 47.0349 31.6089 47.0349 31.751V32.6539C47.0349 32.7278 46.9951 32.7961 46.9302 32.8336L46.8239 32.895Z" fill="#606060"/>
</g>
<path d="M49.7461 37.2225V33.4892H51.4886C51.7622 33.4892 51.9908 33.5265 52.1744 33.6012C52.3618 33.6723 52.5042 33.7772 52.6016 33.9159C52.699 34.051 52.7477 34.2163 52.7477 34.4119C52.7477 34.6217 52.6915 34.7977 52.5791 34.9399C52.4704 35.0821 52.313 35.1817 52.1069 35.2385L52.1013 35.1265C52.2699 35.1657 52.418 35.2314 52.5454 35.3239C52.6765 35.4128 52.7777 35.523 52.8489 35.6545C52.9201 35.7825 52.9557 35.9283 52.9557 36.0919C52.9557 36.2803 52.9201 36.4457 52.8489 36.5879C52.7815 36.7301 52.684 36.8492 52.5566 36.9452C52.433 37.0377 52.2849 37.107 52.1126 37.1532C51.9439 37.1994 51.7566 37.2225 51.5504 37.2225H49.7461ZM50.6567 36.4599H51.5111C51.6685 36.4599 51.7903 36.4243 51.8765 36.3532C51.9664 36.2821 52.0114 36.1808 52.0114 36.0492C52.0114 35.9674 51.9889 35.8981 51.9439 35.8412C51.9027 35.7843 51.8427 35.7417 51.764 35.7132C51.6854 35.6848 51.5917 35.6705 51.483 35.6705H50.6567V36.4599ZM50.6567 34.9825H51.3593C51.4568 34.9825 51.5392 34.9683 51.6067 34.9399C51.6741 34.9079 51.7247 34.8652 51.7584 34.8119C51.7959 34.755 51.8146 34.6892 51.8146 34.6145C51.8146 34.5008 51.7734 34.4119 51.691 34.3479C51.6085 34.2839 51.4849 34.2519 51.32 34.2519H50.6567V34.9825Z" fill="black"/>
<path d="M54.5587 37.2759C54.3413 37.2759 54.154 37.2314 53.9966 37.1425C53.8392 37.0501 53.7174 36.9203 53.6312 36.7532C53.5488 36.5825 53.5075 36.3781 53.5075 36.1399V34.3905H54.4125V36.0119C54.4125 36.1861 54.4556 36.323 54.5418 36.4225C54.6317 36.5185 54.7554 36.5665 54.9128 36.5665C54.9915 36.5665 55.0627 36.5559 55.1264 36.5345C55.1901 36.5097 55.2444 36.4759 55.2894 36.4332C55.3381 36.387 55.3756 36.3337 55.4018 36.2732C55.4281 36.2128 55.4412 36.147 55.4412 36.0759V34.3905H56.3462V37.2225H55.4974L55.4637 36.6412L55.6267 36.5772C55.5854 36.7088 55.5105 36.8279 55.4018 36.9345C55.2969 37.0412 55.1714 37.1248 55.0252 37.1852C54.8791 37.2457 54.7236 37.2759 54.5587 37.2759Z" fill="black"/>
<path d="M57.8572 37.2225L56.6711 33.4892H57.6492L58.245 35.4519C58.2787 35.5657 58.3069 35.683 58.3293 35.8039C58.3518 35.9212 58.3706 36.0314 58.3855 36.1345C58.4005 36.2341 58.4099 36.3123 58.4137 36.3692L58.2844 36.3745C58.3106 36.2394 58.3312 36.1203 58.3462 36.0172C58.3612 35.9141 58.3799 35.8181 58.4024 35.7292C58.4249 35.6368 58.453 35.5443 58.4867 35.4519L59.0769 33.9745H59.847L60.426 35.4519C60.471 35.5692 60.5066 35.6812 60.5328 35.7879C60.5628 35.891 60.5852 35.9888 60.6002 36.0812C60.619 36.1701 60.634 36.259 60.6452 36.3479L60.5272 36.3692C60.5347 36.3017 60.5403 36.2412 60.544 36.1879C60.5515 36.1345 60.5571 36.083 60.5609 36.0332C60.5646 35.9799 60.5703 35.9265 60.5778 35.8732C60.5852 35.8163 60.5965 35.7541 60.6115 35.6865C60.6265 35.6154 60.6471 35.5354 60.6733 35.4465L61.2579 33.4892H62.2191L61.0331 37.2225H60.3023L59.3636 35.0785L59.4704 35.0892L58.6104 37.2225H57.8572Z" fill="black"/>
<path d="M64.044 37.2225V35.4839C64.044 35.3381 64.0009 35.2314 63.9147 35.1639C63.8323 35.0928 63.7161 35.0572 63.5662 35.0572C63.4201 35.0572 63.2889 35.0839 63.1727 35.1372C63.0603 35.187 62.9516 35.2705 62.8467 35.3879L62.3071 34.8919C62.487 34.7177 62.6931 34.5808 62.9254 34.4812C63.1577 34.3817 63.4107 34.3319 63.6843 34.3319C63.9353 34.3319 64.1527 34.3674 64.3363 34.4385C64.5199 34.5097 64.6623 34.6181 64.7635 34.7639C64.8647 34.9097 64.9153 35.0945 64.9153 35.3185V37.2225H64.044ZM63.2683 37.2759C63.0809 37.2759 62.9104 37.2403 62.7568 37.1692C62.6069 37.0981 62.487 37.0003 62.397 36.8759C62.3108 36.7479 62.2678 36.5985 62.2678 36.4279C62.2678 36.2821 62.2959 36.1541 62.3521 36.0439C62.4083 35.9337 62.4907 35.843 62.5994 35.7719C62.7118 35.6972 62.8505 35.6421 63.0154 35.6065C63.184 35.5674 63.3788 35.5479 63.5999 35.5479H64.5049L64.4543 36.0865H63.6224C63.5437 36.0865 63.4744 36.0937 63.4144 36.1079C63.3545 36.1185 63.3039 36.1381 63.2627 36.1665C63.2215 36.1914 63.1896 36.2217 63.1671 36.2572C63.1484 36.2928 63.139 36.3354 63.139 36.3852C63.139 36.4385 63.154 36.4848 63.184 36.5239C63.214 36.563 63.2533 36.5932 63.302 36.6145C63.3545 36.6359 63.4144 36.6465 63.4819 36.6465C63.5793 36.6465 63.6711 36.6323 63.7573 36.6039C63.8473 36.5719 63.926 36.5274 63.9934 36.4705C64.0646 36.4137 64.1208 36.3479 64.162 36.2732L64.3194 36.6572C64.2407 36.7781 64.1452 36.8848 64.0328 36.9772C63.9241 37.0697 63.8042 37.1425 63.673 37.1959C63.5456 37.2492 63.4107 37.2759 63.2683 37.2759Z" fill="black"/>
<path d="M65.5808 37.2225V33.2759H66.4858V37.2225H65.5808Z" fill="black"/>
<path d="M67.2318 37.2225V33.2759H68.1368V37.2225H67.2318Z" fill="black"/>
<path d="M70.25 37.2759C69.9202 37.2759 69.6317 37.2137 69.3843 37.0892C69.1408 36.9648 68.9515 36.7941 68.8166 36.5772C68.6855 36.3568 68.6199 36.1061 68.6199 35.8252C68.6199 35.6048 68.6574 35.4039 68.7323 35.2225C68.8072 35.0377 68.9122 34.8794 69.0471 34.7479C69.1857 34.6163 69.3469 34.515 69.5305 34.4439C69.7179 34.3692 69.9221 34.3319 70.1432 34.3319C70.353 34.3319 70.5441 34.3674 70.7165 34.4385C70.8889 34.5097 71.0388 34.6092 71.1662 34.7372C71.2936 34.8652 71.3911 35.0163 71.4585 35.1905C71.526 35.3648 71.5578 35.555 71.5541 35.7612L71.5484 35.9959H69.1764L69.0415 35.5105H70.8121L70.7165 35.6065V35.4999C70.709 35.411 70.6791 35.3345 70.6266 35.2705C70.5779 35.203 70.5123 35.1497 70.4299 35.1105C70.3512 35.0714 70.2612 35.0519 70.16 35.0519C70.0102 35.0519 69.8827 35.0803 69.7778 35.1372C69.6766 35.1905 69.5998 35.2688 69.5474 35.3719C69.4949 35.475 69.4687 35.603 69.4687 35.7559C69.4687 35.9088 69.5024 36.0439 69.5698 36.1612C69.641 36.2785 69.7422 36.3692 69.8734 36.4332C70.0083 36.4972 70.1675 36.5292 70.3512 36.5292C70.4748 36.5292 70.5872 36.5114 70.6884 36.4759C70.7896 36.4403 70.8983 36.3799 71.0144 36.2945L71.436 36.8599C71.3199 36.9523 71.1962 37.0305 71.065 37.0945C70.9339 37.155 70.799 37.1994 70.6603 37.2279C70.5254 37.2599 70.3886 37.2759 70.25 37.2759Z" fill="black"/>
<path d="M72.318 37.2225V33.6759H73.223V37.2225H72.318ZM71.7897 35.1425V34.3905H73.7964V35.1425H71.7897Z" fill="black"/>
<path opacity="0.3" d="M85.3723 62.1387L85.0162 61.7927L81.7764 66.642L81.8043 79.691L83.1047 79.751L84.2757 75.6765C84.6794 75.183 85.0461 74.66 85.3723 74.1124V62.1387Z" fill="black" fill-opacity="0.7"/>
<path d="M85.3215 24.9676V29.1203H40.4316V24.9676C40.4316 24.6338 40.4977 24.3032 40.626 23.9947C40.7539 23.6862 40.942 23.406 41.1785 23.1699C41.4153 22.9338 41.6967 22.7465 42.0059 22.6187C42.3152 22.491 42.6469 22.4252 42.9817 22.4252H51.4831C51.9659 22.4222 52.4397 22.5558 52.8493 22.8107C53.2589 23.0655 53.5874 23.4311 53.7968 23.8648C54.0065 24.2986 54.335 24.6642 54.7447 24.919C55.1543 25.1738 55.628 25.3075 56.1108 25.3044H69.2398C69.7226 25.3075 70.1968 25.1738 70.6064 24.919C71.016 24.6642 71.3445 24.2986 71.5539 23.8648C71.7632 23.4311 72.0921 23.0655 72.5017 22.8107C72.9114 22.5558 73.3851 22.4222 73.8679 22.4252H82.8273C83.4938 22.4397 84.1281 22.714 84.5944 23.1892C85.0606 23.6644 85.3219 24.3028 85.3215 24.9676Z" fill="black"/>
<path d="M85.3208 24.9676V93.2978C85.3208 93.9722 85.0525 94.6187 84.574 95.0958C84.0959 95.5724 83.4475 95.8404 82.7711 95.8404H42.9716C42.6367 95.8404 42.3054 95.7745 41.9958 95.6466C41.6865 95.5191 41.4056 95.3316 41.1687 95.0958C40.9318 94.8596 40.7441 94.5791 40.6159 94.2708C40.488 93.9624 40.4219 93.6317 40.4219 93.2978V24.9676C40.4219 24.6338 40.488 24.3032 40.6159 23.9947C40.7441 23.6862 40.9318 23.406 41.1687 23.1699C41.4056 22.9338 41.6865 22.7465 41.9958 22.6187C42.3054 22.491 42.6367 22.4252 42.9716 22.4252H51.4824C51.9652 22.4222 52.439 22.5558 52.8486 22.8107C53.2582 23.0655 53.5867 23.4311 53.7965 23.8648C54.0046 24.2998 54.3328 24.6666 54.7428 24.9224C55.1524 25.1782 55.6269 25.3123 56.1101 25.309H69.2391C69.7227 25.3123 70.1972 25.1782 70.6068 24.9224C71.0168 24.6666 71.345 24.2998 71.5532 23.8648C71.7625 23.4311 72.0914 23.0655 72.501 22.8107C72.9106 22.5558 73.3844 22.4222 73.8672 22.4252H82.8266C83.4931 22.4397 84.1278 22.714 84.5941 23.1892C85.0603 23.6644 85.3212 24.3028 85.3208 24.9676Z" stroke="black" stroke-linecap="round" stroke-linejoin="round"/>
<path d="M42.4609 71.3302V40.079H83.1068V87.1751" fill="white"/>
<path d="M42.4609 71.3302V40.079H83.1068V87.1751" stroke="black" stroke-miterlimit="10"/>
<path d="M66.1437 58.6183C64.3251 63.6523 62.7098 67.2467 63.8297 70.269C64.9495 73.291 65.2969 74.9245 63.4594 76.8025C61.6223 78.6805 63.4594 81.7856 63.4594 81.7856C63.4594 81.7856 59.8776 81.8134 59.3547 78.4914C58.8318 75.1689 57.9661 71.4087 55.287 70.6751C52.6074 69.9414 46.3319 69.8857 43.3194 70.6751C43.3194 70.6751 42.4538 68.783 44.6289 66.8038C46.0171 65.5256 45.8644 61.7281 45.8369 58.6045C45.809 55.4806 47.3962 46.1464 54.9167 48.2272C62.4368 50.3084 66.1437 58.6183 66.1437 58.6183Z" fill="black"/>
<path d="M42.4609 71.3302C42.4609 71.3302 44.2611 68.797 53.0261 70.269C61.7911 71.7409 66.2339 73.6189 66.7568 74.2693C67.2797 74.9198 72.3567 80.4752 72.3567 80.4752C72.3567 80.4752 71.9447 85.7169 70.7183 87.1888H42.4609V71.3302Z" fill="#CAFF04" stroke="black" stroke-linecap="round" stroke-linejoin="round"/>
<path d="M65.5557 81.2136C65.5557 81.2136 67.8697 85.048 67.9299 87.1751" stroke="black" stroke-linecap="round" stroke-linejoin="round"/>
<path d="M50.6192 62.4294C50.6192 62.4294 51.7902 69.48 49.3467 69.8119C49.3467 69.8119 50.7856 73.6094 56.7511 72.8021C56.7511 72.8021 55.7052 68.5526 58.445 67.1681C61.1844 65.7841 50.6192 62.4294 50.6192 62.4294Z" fill="white" stroke="black" stroke-linecap="round" stroke-linejoin="round"/>
<path d="M50.8489 64.4829C46.9708 59.2365 50.7423 50.5069 54.8659 49.2103C62.5481 46.7968 64.8342 52.2232 64.9546 55.1393C65.0565 57.6124 63.2791 60.5747 63.3905 62.0604C63.6679 65.7885 59.7343 69.5028 57.573 69.4754C56.2265 69.4754 54.9166 68.728 53.5422 67.5468" fill="white"/>
<path d="M50.8489 64.4829C46.9708 59.2365 50.7423 50.5069 54.8659 49.2103C62.5481 46.7968 64.8342 52.2232 64.9546 55.1393C65.0565 57.6124 63.2791 60.5747 63.3905 62.0604C63.6679 65.7885 59.7343 69.5028 57.573 69.4754C56.2265 69.4754 54.9166 68.728 53.5422 67.5468" stroke="black" stroke-linecap="round" stroke-linejoin="round"/>
<path d="M53.7969 57.497C54.103 57.0015 54.5425 56.6013 55.065 56.3416C55.588 56.0823 56.1731 55.9744 56.7542 56.0297" stroke="black" stroke-linecap="round" stroke-linejoin="round"/>
<path d="M61.6084 56.7634C61.6084 56.7634 63.3389 56.5743 63.8343 58.1844" stroke="black" stroke-linecap="round" stroke-linejoin="round"/>
<path d="M56.7639 59.1075C56.7037 59.5688 56.4448 59.938 56.1855 59.9011C55.9262 59.8642 55.7597 59.4398 55.8199 58.978C55.8801 58.5167 56.1391 58.1522 56.4031 58.1848C56.6667 58.2169 56.8241 58.6367 56.7639 59.1075Z" fill="black"/>
<path d="M62.2577 59.6841C62.1928 60.1455 61.9335 60.5099 61.6746 60.4778C61.4153 60.4456 61.2531 60.0164 61.3133 59.5551C61.3735 59.0937 61.6328 58.7245 61.8921 58.7567C62.151 58.7889 62.3179 59.209 62.2577 59.6841Z" fill="black"/>
<path d="M59.3486 60.7732C59.5056 61.224 59.7862 61.6222 60.1588 61.9219C60.677 62.2357 59.3486 63.3569 59.3486 63.3569" stroke="black" stroke-linecap="round" stroke-linejoin="round"/>
<path d="M59.8138 64.7225C59.8138 64.7225 57.569 64.4875 56.2686 63.2878" stroke="black" stroke-linecap="round" stroke-linejoin="round"/>
<path d="M56.4775 63.4491C56.4775 63.4491 56.7644 65.1564 57.9444 65.5762C59.1244 65.9963 59.49 64.6535 59.49 64.6535" stroke="black" stroke-linecap="round" stroke-linejoin="round"/>
<path d="M50.558 58.1848C50.896 58.3001 51.2037 58.4892 51.4591 58.7383C51.7145 58.987 51.9112 59.2899 52.0344 59.6241C52.0344 59.6241 60.2812 58.6736 62.7152 53.4461C62.7152 53.4461 64.4276 54.59 64.284 60.007C64.284 60.007 66.9636 59.6795 66.7322 55.4253C66.5008 51.1711 60.3921 44.813 54.9126 48.2413C54.9126 48.2413 51.3171 46.751 48.4754 51.8631C45.6341 56.9757 47.1521 63.1263 50.5998 64.0215C50.6088 64.0215 49.4335 60.7732 50.558 58.1848Z" fill="black"/>
<path d="M51.4085 59.0611C51.4085 59.0611 49.9093 57.151 49.1594 57.783C48.4098 58.4154 48.1229 61.1423 49.1594 62.065C50.1962 62.9877 50.9457 63.8182 51.1173 62.9556" fill="white"/>
<path d="M51.4085 59.0611C51.4085 59.0611 49.9093 57.151 49.1594 57.783C48.4098 58.4154 48.1229 61.1423 49.1594 62.065C50.1962 62.9877 50.9457 63.8182 51.1173 62.9556" stroke="black" stroke-linecap="round" stroke-linejoin="round"/>
<path d="M55.728 56.3848C55.728 56.3848 49.5222 61.2945 48.9115 63.0246C47.2916 67.5879 48.4858 69.1014 48.4858 69.1014C48.4858 69.1014 44.9406 68.9539 46.0651 62.2262C46.3795 60.2749 47.1235 58.4169 48.2438 56.7861C49.364 55.1557 50.8328 53.7924 52.544 52.7952L55.728 56.3848Z" fill="black"/>
<path d="M70.9647 78.948L73.9079 81.7856C73.9079 81.7856 74.3706 79.9402 75.2961 80.0461C75.3327 79.3913 75.3327 78.7354 75.2961 78.0806C75.2961 78.0806 76.4856 77.3191 79.1883 78.0806C80.0862 78.347 80.9074 78.8233 81.5842 79.469C82.261 80.1147 82.7741 80.9123 83.0802 81.795C83.3072 82.4364 82.3259 83.4191 82.3259 83.4191C82.3259 83.4191 83.321 85.7953 83.0062 87.1751H68.6602" fill="#CAFF04"/>
<path d="M70.9647 78.948L73.9079 81.7856C73.9079 81.7856 74.3706 79.9402 75.2961 80.0461C75.3327 79.3913 75.3327 78.7354 75.2961 78.0806C75.2961 78.0806 76.4856 77.3191 79.1883 78.0806C80.0862 78.347 80.9074 78.8233 81.5842 79.469C82.261 80.1147 82.7741 80.9123 83.0802 81.795C83.3072 82.4364 82.3259 83.4191 82.3259 83.4191C82.3259 83.4191 83.321 85.7953 83.0062 87.1751H68.6602" stroke="black" stroke-linecap="round" stroke-linejoin="round"/>
<path d="M77.3535 79.52C77.784 77.5408 78.6496 74.8092 78.094 72.7511L83.0734 72.4973C81.3752 76.6271 81.1069 81.7997 81.1069 81.7997C81.1069 81.7997 79.0891 81.458 78.1495 80.3921" fill="white"/>
<path d="M77.3535 79.52C77.784 77.5408 78.6496 74.8092 78.094 72.7511L83.0734 72.4973C81.3752 76.6271 81.1069 81.7997 81.1069 81.7997C81.1069 81.7997 79.0891 81.458 78.1495 80.3921" stroke="black" stroke-linecap="round" stroke-linejoin="round"/>
<path d="M78.3893 73.471C77.6629 73.1435 77.3434 72.087 77.2045 71.5472C77.0747 71.045 77.0078 70.5287 77.0058 70.0105C77.0011 69.5468 76.961 69.0839 76.8854 68.6264C76.839 68.3173 76.7788 68.0125 76.7186 67.7312C76.595 67.1482 76.4404 66.5723 76.2559 66.0054C76.2559 66.0054 76.8067 65.1886 77.3112 65.8811C77.4477 66.0792 77.5539 66.2969 77.6259 66.5268C77.7644 66.9281 77.8616 67.3758 77.9588 67.7218C77.9903 67.9238 78.0788 68.1125 78.2134 68.2663C78.274 68.3114 78.3413 68.3471 78.4125 68.3726L78.4865 68.4001C78.6379 68.4421 78.7981 68.4421 78.9492 68.4001C79.0192 68.3793 79.0849 68.3463 79.1436 68.3032C79.1636 68.2977 79.1809 68.2863 79.1947 68.271C79.238 68.233 79.2785 68.1914 79.3151 68.1463C79.5217 67.903 79.6944 67.6331 79.8286 67.3436C80.0364 66.9097 80.2158 66.4625 80.3653 66.0054C80.4212 65.8348 80.481 65.6594 80.5274 65.4935C80.6754 64.9996 80.791 64.5429 80.8607 64.2106C80.9299 63.8783 80.9949 63.5692 81.0783 63.2416C81.1613 62.9141 81.2447 62.6139 81.3372 62.3189C81.615 61.4884 81.953 60.907 82.3508 61.2114C82.749 61.5159 82.6238 61.8019 82.4432 62.5449C82.383 62.8034 82.3091 63.1169 82.2351 63.4954C82.1115 64.1573 82.0297 64.8258 81.99 65.4978V65.761L82.2583 65.8717C82.2583 65.9364 82.3323 65.8301 82.4527 65.6041C82.7592 65.0035 83.0342 64.3876 83.2762 63.7583C83.3876 63.4723 83.5033 63.1679 83.6048 62.8356C83.7067 62.5033 83.7948 62.2726 83.8778 61.9913C84.2945 60.6069 84.9516 61.2946 85.0166 61.7791C84.9855 62.2911 84.8651 62.794 84.6601 63.2648C84.5538 63.5739 84.4425 63.8921 84.3453 64.1875C84.2961 64.3413 84.2497 64.495 84.2064 64.6488C84.0352 65.2349 83.8503 65.8438 83.7437 66.2683C83.7437 66.324 83.7067 66.3793 83.6929 66.4299L83.9707 66.7206L84.1002 66.559C84.4751 66.0749 84.8127 65.5629 85.109 65.0274C85.3125 64.6583 85.4561 64.3534 85.5718 64.1043C85.7941 63.643 85.9326 63.4586 86.2521 63.5092C86.5716 63.5598 86.5901 64.1137 86.4185 64.7367C86.2824 65.2224 86.0817 65.6881 85.8216 66.1208C85.7752 66.1961 85.724 66.2687 85.6689 66.3377C85.4104 66.7139 85.1944 67.118 85.0256 67.5421L84.9146 67.8002L85.0118 68.1419C85.1043 68.0541 85.1968 67.9666 85.2755 67.8834C85.595 67.5558 85.8495 67.2557 86.0624 66.9929C86.2548 66.7336 86.4602 66.484 86.6778 66.2455C86.849 66.0792 86.9926 66.0101 87.1405 66.0839C87.4046 66.2039 87.3259 66.6331 87.1083 67.1035C86.9792 67.3836 86.8242 67.6508 86.6455 67.9018C86.5173 68.0847 86.3697 68.253 86.2056 68.4048C85.9113 68.7092 85.6493 69.0431 85.4238 69.4012C85.3266 69.5444 85.2294 69.692 85.1366 69.8399C84.7942 70.3703 84.4889 70.8779 84.387 71.0533L84.3453 71.118C84.1694 71.5793 84.012 71.9391 83.8826 72.2623C83.5603 73.0246 83.0881 73.7147 82.4944 74.2925C82.1981 74.5876 81.6472 74.6244 81.0318 74.5275" fill="white"/>
<path d="M78.3893 73.471C77.6629 73.1435 77.3434 72.087 77.2045 71.5472C77.0747 71.045 77.0078 70.5287 77.0058 70.0105C77.0011 69.5468 76.961 69.0839 76.8854 68.6264C76.839 68.3173 76.7788 68.0125 76.7186 67.7312C76.595 67.1482 76.4404 66.5723 76.2559 66.0054C76.2559 66.0054 76.8067 65.1886 77.3112 65.8811C77.4477 66.0792 77.5539 66.2969 77.6259 66.5268C77.7644 66.9281 77.8616 67.3758 77.9588 67.7218C77.9903 67.9238 78.0788 68.1125 78.2134 68.2663C78.274 68.3114 78.3413 68.3471 78.4125 68.3726L78.4865 68.4001C78.6379 68.4421 78.7981 68.4421 78.9492 68.4001C79.0192 68.3793 79.0849 68.3463 79.1436 68.3032C79.1636 68.2977 79.1809 68.2863 79.1947 68.271C79.238 68.233 79.2785 68.1914 79.3151 68.1463C79.5217 67.903 79.6944 67.6331 79.8286 67.3436C80.0364 66.9097 80.2158 66.4625 80.3653 66.0054C80.4212 65.8348 80.481 65.6594 80.5274 65.4935C80.6754 64.9996 80.791 64.5429 80.8607 64.2106C80.9299 63.8783 80.9949 63.5692 81.0783 63.2416C81.1613 62.9141 81.2447 62.6139 81.3372 62.3189C81.615 61.4884 81.953 60.907 82.3508 61.2114C82.749 61.5159 82.6238 61.8019 82.4432 62.5449C82.383 62.8034 82.3091 63.1169 82.2351 63.4954C82.1115 64.1573 82.0297 64.8258 81.99 65.4978V65.761L82.2583 65.8717C82.2583 65.9364 82.3323 65.8301 82.4527 65.6041C82.7592 65.0035 83.0342 64.3876 83.2762 63.7583C83.3876 63.4723 83.5033 63.1679 83.6048 62.8356C83.7067 62.5033 83.7948 62.2726 83.8778 61.9913C84.2945 60.6069 84.9516 61.2946 85.0166 61.7791C84.9855 62.2911 84.8651 62.794 84.6601 63.2648C84.5538 63.5739 84.4425 63.8921 84.3453 64.1875C84.2961 64.3413 84.2497 64.495 84.2064 64.6488C84.0352 65.2349 83.8503 65.8438 83.7437 66.2683C83.7437 66.324 83.7067 66.3793 83.6929 66.4299L83.9707 66.7206L84.1002 66.559C84.4751 66.0749 84.8127 65.5629 85.109 65.0274C85.3125 64.6583 85.4561 64.3534 85.5718 64.1043C85.7941 63.643 85.9326 63.4586 86.2521 63.5092C86.5716 63.5598 86.5901 64.1137 86.4185 64.7367C86.2824 65.2224 86.0817 65.6881 85.8216 66.1208C85.7752 66.1961 85.724 66.2687 85.6689 66.3377C85.4104 66.7139 85.1944 67.118 85.0256 67.5421L84.9146 67.8002L85.0118 68.1419C85.1043 68.0541 85.1968 67.9666 85.2755 67.8834C85.595 67.5558 85.8495 67.2557 86.0624 66.9929C86.2548 66.7336 86.4602 66.484 86.6778 66.2455C86.849 66.0792 86.9926 66.0101 87.1405 66.0839C87.4046 66.2039 87.3259 66.6331 87.1083 67.1035C86.9792 67.3836 86.8242 67.6508 86.6455 67.9018C86.5173 68.0847 86.3697 68.253 86.2056 68.4048C85.9113 68.7092 85.6493 69.0431 85.4238 69.4012C85.3266 69.5444 85.2294 69.692 85.1366 69.8399C84.7942 70.3703 84.4889 70.8779 84.387 71.0533L84.3453 71.118C84.1694 71.5793 84.012 71.9391 83.8826 72.2623C83.5603 73.0246 83.0881 73.7147 82.4944 74.2925C82.1981 74.5876 81.6472 74.6244 81.0318 74.5275" stroke="black" stroke-linecap="round" stroke-linejoin="round"/>
<path d="M79.207 68.2756C79.6942 68.453 80.1093 68.7856 80.3878 69.2219C80.6664 69.6581 80.7931 70.1736 80.7483 70.6887" stroke="black" stroke-linecap="round" stroke-linejoin="round"/>
<path d="M76.7523 78.4913C76.6457 78.5788 78.5571 82.0488 81.7781 81.7855" stroke="black" stroke-linecap="round" stroke-linejoin="round"/>
<path d="M73.909 81.7855C73.909 81.7855 73.0898 84.3418 73.909 85.8643V81.7855Z" fill="#CAFF04"/>
<path d="M73.909 81.7855C73.909 81.7855 73.0898 84.3418 73.909 85.8643" stroke="black" stroke-linecap="round" stroke-linejoin="round"/>
<path d="M66.7536 76.7841C66.7536 76.7841 67.679 80.6044 66.3975 82.7409" stroke="black" stroke-linecap="round" stroke-linejoin="round"/>
<path d="M67.9292 80.1429C67.9292 80.1429 68.1098 82.2284 66.7539 83.4881" stroke="black" stroke-linecap="round" stroke-linejoin="round"/>
<path d="M75.2881 80.046C75.2881 80.046 77.3153 83.9405 80.212 83.8251" stroke="black" stroke-linecap="round" stroke-linejoin="round"/>
<path d="M49.2227 71.8468C49.2227 71.8468 53.7858 75.7134 57.4046 73.8538" stroke="black" stroke-linecap="round" stroke-linejoin="round"/>
<path d="M44.5896 77.1484C44.5896 77.1484 44.4787 82.044 42.4609 83.4881" stroke="black" stroke-linecap="round" stroke-linejoin="round"/>
<path d="M45.5662 81.8135C45.5662 81.8135 44.1777 84.2497 42.4609 84.1944" stroke="black" stroke-linecap="round" stroke-linejoin="round"/>
<path d="M92.9136 100.456C82.4924 99.4006 73.293 105.543 72.4128 114.176C71.9615 118.635 73.814 122.879 77.1432 126.092C76.1398 127.675 74.7441 128.974 73.0904 129.863C75.5992 130.164 78.1422 129.731 80.4082 128.618C83.2408 130.338 86.4276 131.397 89.7292 131.715C100.15 132.77 109.35 126.628 110.224 117.994C111.098 109.361 103.335 101.512 92.9136 100.456Z" fill="white" stroke="black" stroke-miterlimit="10"/>
<path d="M32.5087 166.298C32.7215 159.229 55.0091 167.382 62.0991 169.251C69.1887 171.119 69.2304 185.709 64.4686 186.807C64.4686 186.807 64.5563 188.362 58.2438 190.037C56.5594 190.499 52.6396 190.037 52.6396 190.037C50.6313 192.501 38.4785 192.552 34.1561 191.223C31.7775 190.494 26.2148 185.336 30.7686 173.883C31.7631 171.467 32.3509 168.905 32.5087 166.298Z" fill="#BFBFBF"/>
<path opacity="0.3" d="M64.4626 186.817C64.4626 186.817 64.5503 188.372 58.2382 190.046C56.5537 190.508 52.634 190.046 52.634 190.046C50.6253 192.51 38.4727 192.561 34.1503 191.232C32.947 190.863 30.9108 189.387 29.8232 186.494C30.8368 188.293 32.3963 189.76 34.7889 190.046C41.7308 190.868 44.7664 190.868 44.7664 190.868C44.7664 190.868 41.1614 188.496 41.865 187.49C42.5681 186.484 49.4358 189.119 51.9954 188.649C54.5545 188.178 57.0255 188.884 55.901 184.339C54.7764 179.794 42.249 172.988 39.1853 173.962C37.3071 174.529 35.2847 174.385 33.507 173.556C33.507 173.556 36.7141 165.79 55.7204 169.191C59.1117 169.757 62.4374 170.661 65.6473 171.89C68.9887 176.666 68.225 185.949 64.4626 186.817Z" fill="black" fill-opacity="0.7"/>
<path d="M32.5087 166.298C32.7215 159.229 55.0091 167.382 62.0991 169.251C69.1887 171.119 69.2304 185.709 64.4686 186.807C64.4686 186.807 64.5563 188.362 58.2438 190.037C56.5594 190.499 52.6396 190.037 52.6396 190.037C50.6313 192.501 38.4785 192.552 34.1561 191.223C31.7775 190.494 26.2148 185.336 30.7686 173.883C31.7631 171.467 32.3509 168.905 32.5087 166.298Z" stroke="black" stroke-miterlimit="10"/>
<path d="M55.9653 185.271C55.9653 185.271 56.6366 187.209 55.9653 187.481C55.2944 187.753 53.4341 189.327 49.2412 188.302" stroke="black" stroke-linecap="round" stroke-linejoin="round"/>
<path d="M53.3948 188.496C53.3948 188.496 53.3668 188.851 52.6357 190.037" stroke="black" stroke-linecap="round" stroke-linejoin="round"/>
<path d="M56.2285 186.346C56.2285 186.346 59.8843 187.329 61.6152 187.269" stroke="black" stroke-linecap="round" stroke-linejoin="round"/>
<path d="M41.0592 173.546C41.0592 173.546 38.1762 173.611 37.8198 175.434C37.4635 177.256 36.8943 181.653 37.8198 182.562" stroke="black" stroke-linecap="round" stroke-linejoin="round"/>
<path d="M40.0091 172.605C40.0091 172.605 34.8816 173.611 33.5303 180.089" stroke="black" stroke-linecap="round" stroke-linejoin="round"/>
<path d="M31.352 175.987C31.352 175.987 30.1951 181.912 31.9536 184.376C33.7122 186.84 37.3126 183.693 37.3126 183.693" stroke="black" stroke-linecap="round" stroke-linejoin="round"/>
<path d="M55.8994 110.984C55.8994 110.984 56.191 106.406 50.0315 106.674C43.8717 106.942 42.3584 111.819 42.9462 116.465C43.5337 121.112 45.8662 126.916 43.8717 129.574C41.8772 132.232 43.3393 134.612 45.9961 134.086C45.9961 134.086 44.0011 134.086 45.5979 132.296C47.1946 130.506 49.4527 131.046 50.3829 123.091C51.3131 115.136 54.7843 114.209 54.7843 114.209L55.8994 110.984Z" fill="black"/>
<path opacity="0.2" d="M54.7922 111.39C54.7922 111.39 51.5528 106.526 46.6934 108.354" stroke="white" stroke-linecap="round" stroke-linejoin="round"/>
<path opacity="0.2" d="M53.9495 113.042C53.9495 113.042 50.7793 110.869 47.7295 112.894C44.6801 114.92 47.5446 121.319 47.6233 125.352C47.702 129.385 44.4625 129.966 44.2217 131.918" stroke="white" stroke-linecap="round" stroke-linejoin="round"/>
<path d="M77.0586 150.923C77.5784 150.069 78.3248 149.375 79.2152 148.916C80.5204 148.358 81.0063 149.318 81.8114 149.922C81.8114 149.922 82.5472 149.802 83.2645 151.809C83.2645 151.809 84.0652 152.372 84.1439 152.695C84.2226 153.018 84.9352 155.63 84.5791 156.211C84.2226 156.792 80.8769 157.337 80.8769 157.337L77.0586 150.923Z" fill="white" stroke="black" stroke-linecap="round" stroke-linejoin="round"/>
<path d="M81.8135 150.683C82.0854 151.259 82.2034 151.895 82.1562 152.529" stroke="black" stroke-linecap="round" stroke-linejoin="round"/>
<path d="M79.8086 149.922C79.6874 150.09 79.6221 150.292 79.6221 150.499C79.6221 150.706 79.6874 150.908 79.8086 151.076" stroke="black" stroke-linecap="round" stroke-linejoin="round"/>
<path d="M83.416 152.695C83.4979 153.188 83.5179 153.688 83.4758 154.186" stroke="black" stroke-linecap="round" stroke-linejoin="round"/>
<path d="M73.7939 152.695C73.7939 151.311 77.0614 150.125 77.3022 148.478C77.5194 147.002 79.218 148.515 78.1025 150.924" fill="white"/>
<path d="M73.7939 152.695C73.7939 151.311 77.0614 150.125 77.3022 148.478C77.5194 147.002 79.218 148.515 78.1025 150.924" stroke="black" stroke-linecap="round" stroke-linejoin="round"/>
<path d="M61.6172 135.226C61.6172 135.226 65.9167 136.555 67.8372 138.835C69.7578 141.114 71.8448 149.226 71.8448 149.226C71.8448 149.226 72.6683 149.959 72.6683 150.411C72.6683 150.863 65.9257 155.524 64.2181 155.708C62.5104 155.893 61.867 149.318 61.867 149.318" fill="#CAFF04"/>
<path d="M61.6172 135.226C61.6172 135.226 65.9167 136.555 67.8372 138.835C69.7578 141.114 71.8448 149.226 71.8448 149.226C71.8448 149.226 72.6683 149.959 72.6683 150.411C72.6683 150.863 65.9257 155.524 64.2181 155.708C62.5104 155.893 61.867 149.318 61.867 149.318" stroke="black" stroke-linecap="round" stroke-linejoin="round"/>
<path d="M49.2412 174.054C49.2412 174.054 70.8669 150.984 78.5444 150.984C83.5333 150.984 85.1205 154.583 86.5878 157.443C88.0547 160.304 107.908 182.179 107.908 182.179L103.026 184.546C103.026 184.546 93.3768 179.42 86.0971 175.037C79.6182 171.142 78.9473 166.999 78.0356 166.311C77.124 165.624 70.9181 180.647 64.1846 185.331C64.1846 185.331 51.6383 189.829 49.2412 174.054Z" fill="white"/>
<path opacity="0.4" d="M107.538 181.764C107.415 182.034 107.277 182.298 107.126 182.553L103.026 184.542C103.026 184.542 93.3768 179.416 86.0971 175.032C79.6182 171.138 78.9473 166.994 78.0356 166.307H78.003C76.9851 165.97 70.83 180.717 64.1846 185.349C64.1846 185.349 51.6383 189.839 49.2412 174.072C49.2412 174.072 66.5863 155.565 75.7216 151.699C76.0596 152.852 76.7167 154.721 77.6654 155.745C79.0953 157.291 83.6816 159.483 84.681 160.304L82.7558 160.668C82.7558 160.668 93.6959 174.912 96.394 176.73C98.3468 177.959 100.446 178.94 102.642 179.651C102.642 179.651 103.104 178.728 105.044 179.019C106.187 180.274 107.07 181.247 107.538 181.764Z" fill="#CAFF04"/>
<path d="M49.2412 174.054C49.2412 174.054 70.8669 150.984 78.5444 150.984C83.5333 150.984 85.1205 154.583 86.5878 157.443C88.0547 160.304 107.908 182.179 107.908 182.179L103.026 184.546C103.026 184.546 93.3768 179.42 86.0971 175.037C79.6182 171.142 78.9473 166.999 78.0356 166.311C77.124 165.624 70.9181 180.647 64.1846 185.331C64.1846 185.331 51.6383 189.829 49.2412 174.054Z" stroke="black" stroke-linecap="round" stroke-linejoin="round"/>
<path d="M78.0364 166.298C78.0364 166.298 75.8428 165.116 74.8662 166.298" stroke="black" stroke-linecap="round" stroke-linejoin="round"/>
<path d="M101.06 185.331C101.06 185.331 97.5195 183.241 99.2087 181.672C100.898 180.103 103.665 181.27 103.665 181.27C103.665 181.27 103.536 178.797 106.548 178.534C109.561 178.271 109.695 179.19 109.695 179.19C109.695 179.19 110.621 182.636 111.926 184.113C113.231 185.589 117.692 187.55 118.479 188.598C119.266 189.645 119.405 191.472 119.405 191.472C119.405 191.472 114.874 192.773 106.692 191.472C105.202 191.237 103.179 192.049 100.676 191.472C100.667 191.472 100.139 187.523 101.06 185.331Z" fill="#CAFF04" stroke="black" stroke-linecap="round" stroke-linejoin="round"/>
<path d="M103.68 181.271C105.415 181.797 106.595 181.667 106.988 182.655C107.453 183.795 108.165 184.819 109.071 185.654C109.976 186.49 111.056 187.117 112.232 187.49" stroke="black" stroke-linecap="round" stroke-linejoin="round"/>
<path d="M106.265 183.693C107.72 182.959 109.326 182.572 110.957 182.562" stroke="black" stroke-width="2" stroke-linecap="round" stroke-linejoin="round"/>
<path d="M107.942 185.677C107.942 185.677 110.256 184.108 112.237 184.371" stroke="black" stroke-width="2" stroke-linecap="round" stroke-linejoin="round"/>
<path d="M109.794 187.024C111.044 186.226 112.477 185.759 113.959 185.668" stroke="black" stroke-width="2" stroke-linecap="round" stroke-linejoin="round"/>
<path d="M66.4298 143.864C65.9537 145.963 65.1242 147.966 63.9769 149.789C61.2178 154.48 58.1601 158.991 54.8231 163.294L56.3734 169.121C56.3734 169.121 34.6226 170.778 29.532 177.782C29.532 177.782 27.5652 177.782 30.3049 174.054L32.8733 161.651C32.8733 161.651 34.1136 132.218 51.2503 133.155C57.6553 133.505 61.714 134.793 64.0418 136.689" fill="#CAFF04"/>
<path opacity="0.3" d="M63.9784 149.789C61.219 154.48 58.1617 158.991 54.8247 163.294L56.375 169.122C56.375 169.122 46.2631 169.892 38.206 172.605C37.0907 169.809 39.997 170.658 39.997 170.658L38.7984 169.182L40.8068 169.122C39.0576 167.585 39.997 164.281 39.997 164.281L42.8154 166.814C38.9419 162.145 38.8123 151.071 38.8123 151.071C38.8123 151.071 46.9666 141.935 49.5997 144.242C52.2328 146.549 50.2615 151.791 53.3948 151.893C56.5276 151.994 65.8293 145.29 66.1304 145.073C65.6106 146.727 64.8878 148.311 63.9784 149.789Z" fill="black" fill-opacity="0.7"/>
<path d="M66.4298 143.864C65.9537 145.963 65.1242 147.966 63.9769 149.789C61.2178 154.48 58.1601 158.991 54.8231 163.294L56.3734 169.121C56.3734 169.121 34.6226 170.778 29.532 177.782C29.532 177.782 27.5652 177.782 30.3049 174.054L32.8733 161.651C32.8733 161.651 34.1136 132.218 51.2503 133.155C57.6553 133.505 61.714 134.793 64.0418 136.689" stroke="black" stroke-linecap="round" stroke-linejoin="round"/>
<path d="M63.6777 132.31C62.6244 132.491 61.6458 132.972 60.8596 133.695C60.1726 134.359 59.6678 135.188 59.3924 136.103C59.0713 137.162 58.9599 138.273 59.0638 139.374C51.8538 139.969 50.0352 134.17 50.0352 134.17C55.903 130.751 52.0434 125.329 52.0434 125.329C58.1431 124.799 63.6777 132.31 63.6777 132.31Z" fill="white" stroke="black" stroke-linecap="round" stroke-linejoin="round"/>
<path d="M39.334 175.401C39.334 175.401 61.6124 150.974 69.2898 150.974C74.2787 150.974 75.866 154.573 77.3332 157.434C78.8001 160.295 98.6536 182.17 98.6536 182.17L92.8456 185.46C92.8456 185.46 87.9216 178.239 80.082 175.489C72.955 172.993 69.6924 166.99 68.7807 166.302C67.869 165.615 60.997 181.986 54.2587 186.678C54.2587 186.678 41.7313 191.168 39.334 175.401Z" fill="white"/>
<path opacity="0.4" d="M69.3506 166.939C69.1833 166.709 68.9925 166.497 68.7816 166.307H68.7489C67.731 165.97 60.9278 182.059 54.2777 186.697C54.2777 186.697 48.3497 188.819 43.8652 185.022C44.0828 185.091 49.303 186.789 52.9171 185.022C52.9171 185.022 58.1743 181.294 62.0803 173.948C64.0056 170.335 65.8148 166.173 67.1294 165.804C68.3834 165.458 69.2581 166.792 69.3506 166.939Z" fill="#CAFF04"/>
<path d="M39.334 175.401C39.334 175.401 61.6124 150.974 69.2898 150.974C74.2787 150.974 75.866 154.573 77.3332 157.434C78.8001 160.295 98.6536 182.17 98.6536 182.17L92.8456 185.46C92.8456 185.46 87.9216 178.239 80.082 175.489C72.955 172.993 69.6924 166.99 68.7807 166.302C67.869 165.615 60.997 181.986 54.2587 186.678C54.2587 186.678 41.7313 191.168 39.334 175.401Z" stroke="black" stroke-linecap="round" stroke-linejoin="round"/>
<path d="M68.7812 166.298C68.7812 166.298 66.5875 165.116 65.6113 166.298" stroke="black" stroke-linecap="round" stroke-linejoin="round"/>
<path d="M91.8041 185.331C91.8041 185.331 88.2636 183.241 89.9528 181.672C91.642 180.103 94.4097 181.27 94.4097 181.27C94.4097 181.27 94.2798 178.797 97.2927 178.534C100.305 178.271 100.44 179.19 100.44 179.19C100.44 179.19 101.365 182.636 102.67 184.113C103.975 185.589 108.437 187.55 109.223 188.598C110.01 189.645 110.149 191.472 110.149 191.472C110.149 191.472 105.618 192.773 97.4363 191.472C95.9458 191.237 93.9237 192.049 91.42 191.472C91.4106 191.472 90.883 187.523 91.8041 185.331Z" fill="#CAFF04" stroke="black" stroke-linecap="round" stroke-linejoin="round"/>
<path d="M94.4238 181.271C96.1594 181.797 97.3395 181.667 97.7329 182.655C98.198 183.795 98.9086 184.819 99.8148 185.654C100.721 186.49 101.8 187.117 102.976 187.49" stroke="black" stroke-linecap="round" stroke-linejoin="round"/>
<path d="M97.0117 183.693C98.4672 182.959 100.074 182.572 101.704 182.562" stroke="black" stroke-width="2" stroke-linecap="round" stroke-linejoin="round"/>
<path d="M98.6875 185.677C98.6875 185.677 101.002 184.108 102.982 184.371" stroke="black" stroke-width="2" stroke-linecap="round" stroke-linejoin="round"/>
<path d="M100.538 187.024C101.788 186.226 103.222 185.759 104.703 185.668" stroke="black" stroke-width="2" stroke-linecap="round" stroke-linejoin="round"/>
<path d="M82.5899 134.866L76.9349 143.762L71.7607 145.876L71.1221 146.139V142.212L75.3614 135.157C75.4648 134.984 75.6073 134.836 75.7777 134.726C75.9476 134.617 76.1412 134.548 76.3423 134.525L81.618 133.92C81.6979 133.913 81.7773 133.933 81.845 133.976L82.488 134.437C82.5556 134.481 82.604 134.549 82.6225 134.627C82.6422 134.708 82.6308 134.793 82.5899 134.866Z" fill="#757575"/>
<path opacity="0.3" d="M82.589 134.866L76.9336 143.762L71.7598 145.876L71.1904 144.15L76.1144 136.121C76.2198 135.948 76.3619 135.8 76.5303 135.688C76.6991 135.576 76.8903 135.502 77.091 135.471L82.6445 134.631C82.6563 134.714 82.6362 134.798 82.589 134.866Z" fill="black" fill-opacity="0.7"/>
<path d="M82.5899 134.866L76.9349 143.762L71.7607 145.876L71.1221 146.139V142.212L75.3614 135.157C75.4648 134.984 75.6073 134.836 75.7777 134.726C75.9476 134.617 76.1412 134.548 76.3423 134.525L81.618 133.92C81.6979 133.913 81.7773 133.933 81.845 133.976L82.488 134.437C82.5556 134.481 82.604 134.549 82.6225 134.627C82.6422 134.708 82.6308 134.793 82.5899 134.866Z" stroke="black" stroke-linecap="round" stroke-linejoin="round"/>
<path d="M47.0886 143.398L49.4439 157.637C54.8078 152.871 60.7359 152.377 66.6085 146.918C67.201 146.143 67.6909 145.295 68.0663 144.394C68.6726 142.664 68.529 140.066 71.1299 138.461C71.5371 138.212 73.1106 136.043 73.2357 136.407C73.9668 138.507 71.2318 140.002 71.3014 140.509C71.4077 141.358 71.5836 142.194 71.8613 142.415C72.472 142.904 75.4014 139.864 77.5998 139.984C79.7981 140.103 80.4088 141.488 79.187 141.977C79.187 141.977 79.9783 142.738 79.187 143.324C78.3171 143.961 77.9747 144.247 77.9747 144.247C77.9814 144.67 77.8638 145.086 77.636 145.442C77.4081 145.799 77.08 146.081 76.6928 146.254C75.7024 148.856 70.1537 149.705 70.1537 149.705C70.1537 149.705 57.7372 162.002 50.2541 166.289C47.5143 167.862 47.0469 168.429 43.7752 163.34C40.8178 158.726 39.3184 150.421 39.3184 150.421" fill="white"/>
<path d="M47.0886 143.398L49.4439 157.637C54.8078 152.871 60.7359 152.377 66.6085 146.918C67.201 146.143 67.6909 145.295 68.0663 144.394C68.6726 142.664 68.529 140.066 71.1299 138.461C71.5371 138.212 73.1106 136.043 73.2357 136.407C73.9668 138.507 71.2318 140.002 71.3014 140.509C71.4077 141.358 71.5836 142.194 71.8613 142.415C72.472 142.904 75.4014 139.864 77.5998 139.984C79.7981 140.103 80.4088 141.488 79.187 141.977C79.187 141.977 79.9783 142.738 79.187 143.324C78.3171 143.961 77.9747 144.247 77.9747 144.247C77.9814 144.67 77.8638 145.086 77.636 145.442C77.4081 145.799 77.08 146.081 76.6928 146.254C75.7024 148.856 70.1537 149.705 70.1537 149.705C70.1537 149.705 57.7372 162.002 50.2541 166.289C47.5143 167.862 47.0469 168.429 43.7752 163.34C40.8178 158.726 39.3184 150.421 39.3184 150.421" stroke="black" stroke-linecap="round" stroke-linejoin="round"/>
<path d="M77.6603 140.846C77.7205 141.146 76.7349 141.769 76.943 142.23C77.1512 142.692 77.5076 142.9 76.943 143.749C76.3784 144.598 77.3085 145.091 76.2627 146.125" stroke="black" stroke-linecap="round" stroke-linejoin="round"/>
<path d="M79.1886 141.986C78.5933 141.946 77.9967 142.047 77.4482 142.281" stroke="black" stroke-linecap="round" stroke-linejoin="round"/>
<path d="M45.5027 136.098C45.5027 136.098 48.5431 136.56 49.4458 139.019C50.348 141.478 48.6313 150.596 49.4458 151.242C50.2602 151.888 48.8347 153.941 48.8347 153.941C48.8347 153.941 44.767 153.683 41.4303 158.26C41.4303 158.26 39.8291 158.186 39.7411 157.457C39.4359 155.695 38.912 153.978 38.1815 152.344C37.3578 150.702 38.1815 146.411 38.1815 146.411" fill="#CAFF04"/>
<path d="M45.5027 136.098C45.5027 136.098 48.5431 136.56 49.4458 139.019C50.348 141.478 48.6313 150.596 49.4458 151.242C50.2602 151.888 48.8347 153.941 48.8347 153.941C48.8347 153.941 44.767 153.683 41.4303 158.26C41.4303 158.26 39.8291 158.186 39.7411 157.457C39.4359 155.695 38.912 153.978 38.1815 152.344C37.3578 150.702 38.1815 146.411 38.1815 146.411" stroke="black" stroke-linecap="round" stroke-linejoin="round"/>
<path d="M60.8564 133.699C60.1698 134.364 59.6646 135.193 59.3895 136.108C57.6449 134.963 57.4922 131.899 57.4922 131.899L60.8564 133.699Z" fill="black"/>
<path d="M67.3609 113.042C67.3609 113.042 71.7804 115.086 71.0631 120.12C70.3458 125.154 67.4719 128.799 64.2186 128.997C60.965 129.196 67.3609 113.042 67.3609 113.042Z" fill="black"/>
<path d="M52.6767 128.665C48.1647 121.578 49.1779 111.477 57.6978 110.642C66.7685 109.752 70.3735 116.964 69.3135 122.131C68.5175 125.989 70.8823 127.415 65.8706 134.363C64.0705 136.855 57.0777 134.174 56.7676 131.48" fill="white"/>
<path d="M52.6767 128.665C48.1647 121.578 49.1779 111.477 57.6978 110.642C66.7685 109.752 70.3735 116.964 69.3135 122.131C68.5175 125.989 70.8823 127.415 65.8706 134.363C64.0705 136.855 57.0777 134.174 56.7676 131.48" stroke="black" stroke-linecap="round" stroke-linejoin="round"/>
<path d="M63.6756 121.181C63.0292 121.004 62.3492 120.987 61.6945 121.131C61.0398 121.275 60.4299 121.575 59.918 122.007" stroke="black" stroke-linecap="round" stroke-linejoin="round"/>
<path d="M67.1289 121.273C67.1289 121.273 68.5914 120.683 69.3642 121.827" stroke="black" stroke-linecap="round" stroke-linejoin="round"/>
<path d="M62.2241 124.669C62.1364 125.13 61.8771 125.5 61.641 125.458C61.4049 125.417 61.2845 124.997 61.3726 124.535C61.4604 124.074 61.7197 123.705 61.9558 123.746C62.1918 123.788 62.3075 124.194 62.2241 124.669Z" fill="black"/>
<path d="M68.0079 124.771C67.9245 125.232 67.6609 125.601 67.4295 125.555C67.1981 125.509 67.073 125.094 67.1612 124.632C67.2489 124.171 67.5035 123.802 67.7396 123.843C67.9757 123.885 68.0957 124.277 68.0079 124.771Z" fill="black"/>
<path d="M66.1338 125.232C66.2353 126.326 67.5727 127.018 67.5822 127.484C67.5916 127.95 66.7677 128.706 66.1338 129.006" stroke="black" stroke-linecap="round" stroke-linejoin="round"/>
<path d="M65.8682 130.552C64.3348 130.929 62.7184 130.777 61.2822 130.123" stroke="black" stroke-linecap="round" stroke-linejoin="round"/>
<path d="M61.6641 130.28C61.6641 130.28 61.9651 132.296 63.668 132.31C64.9637 132.31 65.5193 130.64 65.5193 130.64" stroke="black" stroke-linecap="round" stroke-linejoin="round"/>
<path d="M63.677 109.544C59.2898 108.16 57.1981 109.544 57.1981 109.544C47.6324 111.431 48.0302 117.591 49.0252 123.954C50.0203 130.317 53.2921 129.583 53.2921 129.583C53.2921 129.583 54.4446 129.02 53.6116 124.619C53.6116 124.568 53.6718 124.526 53.6993 124.48C53.8937 124.784 54.2455 124.905 54.8377 124.697C56.4993 124.125 57.4849 122.574 58.0079 121.444C65.5142 119.266 69.1145 116.585 69.4942 115.607C70.0635 114.158 68.0596 110.929 63.677 109.544Z" fill="black"/>
<path d="M55.9012 124.595C55.9012 124.595 54.9061 122.076 53.5872 122.007C52.2683 121.938 51.1253 125.122 52.805 127.11C54.4851 129.099 55.878 128.6 55.878 128.6" fill="white"/>
<path d="M55.9012 124.595C55.9012 124.595 54.9061 122.076 53.5872 122.007C52.2683 121.938 51.1253 125.122 52.805 127.11C54.4851 129.099 55.878 128.6 55.878 128.6" stroke="black" stroke-linecap="round" stroke-linejoin="round"/>
<path d="M67.3592 113.042C67.3592 113.042 69.4741 113.24 69.3627 116.346C69.2518 119.451 60.1488 122.538 54.79 121.121V120.346C54.79 120.346 57.4971 121.301 61.5696 120.346C65.6421 119.391 68.6269 117.993 68.021 115.16C67.4147 112.326 67.3592 113.042 67.3592 113.042Z" fill="black"/>
<path opacity="0.2" d="M67.7703 114.047C67.7703 114.047 61.4255 119.672 52.915 118.482" stroke="white" stroke-linecap="round" stroke-linejoin="round"/>
<path opacity="0.2" d="M64.9034 112.368C64.9034 112.368 59.6647 116.622 51.4824 114.048" stroke="white" stroke-linecap="round" stroke-linejoin="round"/>
<path opacity="0.2" d="M69.3643 116.345C69.3643 116.345 70.4656 117.781 70.4007 120.42" stroke="white" stroke-linecap="round" stroke-linejoin="round"/>
<path d="M49.4463 151.242C49.4463 151.242 45.9613 150.227 43.3975 152.017" stroke="black" stroke-linecap="round" stroke-linejoin="round"/>
<path d="M37.3115 160.373C37.3115 160.373 41.2082 167.936 46.4237 168.032" stroke="black" stroke-linecap="round" stroke-linejoin="round"/>
<path d="M34.791 168.448C34.791 168.448 40.0205 169.426 42.8295 169.121" stroke="black" stroke-linecap="round" stroke-linejoin="round"/>
<path d="M54.79 140.39C54.79 140.39 58.4643 141.285 59.76 139.421C61.0561 137.556 59.9174 136.375 59.9174 136.375" stroke="black" stroke-linecap="round" stroke-linejoin="round"/>
<path d="M75.6709 116.686H76.4264C76.4559 116.833 76.5169 116.965 76.6089 117.082C76.8104 117.341 77.1169 117.471 77.5281 117.471C77.8598 117.471 78.1053 117.413 78.2647 117.295C78.4244 117.174 78.5039 117.013 78.5039 116.812C78.5039 116.653 78.4307 116.525 78.2836 116.429C78.1411 116.333 77.9353 116.249 77.6666 116.178C77.1421 116.044 76.7895 115.933 76.6089 115.845C76.1096 115.615 75.8598 115.268 75.8598 114.803C75.8598 114.448 76.0109 114.14 76.313 113.881C76.6152 113.617 77.0099 113.485 77.4966 113.485C78.1431 113.485 78.6235 113.701 78.9383 114.132C79.0729 114.316 79.1693 114.529 79.2279 114.772H78.4724C78.4433 114.655 78.3906 114.55 78.315 114.458C78.1388 114.249 77.8661 114.144 77.4966 114.144C77.2113 114.144 76.993 114.203 76.8419 114.32C76.6908 114.437 76.6152 114.588 76.6152 114.772C76.6152 115.048 76.8946 115.262 77.4525 115.412C77.499 115.425 77.5871 115.45 77.717 115.488C77.8472 115.521 77.9397 115.548 77.994 115.569C78.053 115.586 78.1411 115.615 78.2584 115.657C78.3804 115.695 78.4705 115.73 78.5291 115.764C78.5881 115.797 78.6637 115.841 78.7557 115.896C78.8482 115.946 78.9175 116 78.9635 116.059C79.0139 116.113 79.0642 116.176 79.1146 116.247C79.1693 116.318 79.207 116.4 79.2279 116.492C79.2491 116.58 79.2594 116.676 79.2594 116.781C79.2594 117.157 79.102 117.477 78.7872 117.741C78.4768 118 78.0569 118.13 77.5281 118.13C76.823 118.13 76.3048 117.89 75.9731 117.408C75.822 117.203 75.7213 116.963 75.6709 116.686ZM79.8862 119.197V114.803H80.5472V115.211H80.5787C80.6542 115.124 80.7404 115.046 80.8368 114.979C81.0635 114.82 81.3133 114.741 81.586 114.741C82.0184 114.741 82.3773 114.896 82.6625 115.205C82.9521 115.511 83.0969 115.91 83.0969 116.404C83.0969 116.898 82.9521 117.3 82.6625 117.609C82.3773 117.915 82.0184 118.067 81.586 118.067C81.309 118.067 81.0591 117.99 80.8368 117.835C80.7361 117.764 80.6499 117.684 80.5787 117.597H80.5472V119.197H79.8862ZM80.7927 115.619C80.6291 115.803 80.5472 116.065 80.5472 116.404C80.5472 116.743 80.6291 117.007 80.7927 117.195C80.9608 117.379 81.1831 117.471 81.4601 117.471C81.754 117.471 81.9846 117.379 82.1526 117.195C82.3206 117.011 82.4044 116.747 82.4044 116.404C82.4044 116.061 82.3206 115.797 82.1526 115.613C81.9846 115.429 81.754 115.337 81.4601 115.337C81.1831 115.337 80.9608 115.431 80.7927 115.619ZM83.6612 118.005V113.611H84.3222V117.408H85.0462V118.005H83.6612ZM85.5373 114.22C85.4617 114.144 85.4239 114.052 85.4239 113.943C85.4239 113.835 85.4617 113.743 85.5373 113.667C85.6128 113.588 85.7053 113.548 85.8143 113.548C85.9236 113.548 86.0157 113.588 86.0913 113.667C86.1711 113.743 86.2109 113.835 86.2109 113.943C86.2109 114.052 86.1711 114.144 86.0913 114.22C86.0157 114.295 85.9236 114.333 85.8143 114.333C85.7053 114.333 85.6128 114.295 85.5373 114.22ZM85.4869 118.005V114.803H86.1479V118.005H85.4869ZM86.6492 115.4V114.803H87.027V114.113H87.688V114.803H88.6638V115.4H87.688V117.408H88.6953V118.005H87.027V115.4H86.6492ZM91.2655 117.609C90.9802 117.3 90.8374 116.898 90.8374 116.404C90.8374 115.91 90.9802 115.511 91.2655 115.205C91.5551 114.896 91.9163 114.741 92.3483 114.741C92.6214 114.741 92.8708 114.82 93.0975 114.979C93.1943 115.046 93.28 115.124 93.3556 115.211H93.3871V114.803H94.0481V118.005H93.3871V117.565H93.3556C93.2926 117.653 93.2069 117.737 93.0975 117.816C92.8708 117.984 92.6214 118.067 92.3483 118.067C91.9163 118.067 91.5551 117.915 91.2655 117.609ZM91.7817 115.613C91.6141 115.797 91.5299 116.061 91.5299 116.404C91.5299 116.747 91.6141 117.011 91.7817 117.195C91.9497 117.379 92.1807 117.471 92.4742 117.471C92.7512 117.471 92.9716 117.379 93.1352 117.195C93.3033 117.007 93.3871 116.743 93.3871 116.404C93.3871 116.065 93.3033 115.803 93.1352 115.619C92.9716 115.431 92.7512 115.337 92.4742 115.337C92.1807 115.337 91.9497 115.429 91.7817 115.613ZM96.5659 118.005V113.611H97.227V115.211H97.2585C97.334 115.124 97.4198 115.046 97.5166 114.979C97.7432 114.82 97.9927 114.741 98.2658 114.741C98.6978 114.741 99.0566 114.896 99.3423 115.205C99.6319 115.511 99.7767 115.91 99.7767 116.404C99.7767 116.898 99.6319 117.3 99.3423 117.609C99.0566 117.915 98.6978 118.067 98.2658 118.067C97.9887 118.067 97.7389 117.99 97.5166 117.835C97.4158 117.764 97.3297 117.684 97.2585 117.597H97.227V118.005H96.5659ZM97.4725 115.619C97.3088 115.803 97.227 116.065 97.227 116.404C97.227 116.743 97.3088 117.007 97.4725 117.195C97.6401 117.379 97.8628 117.471 98.1398 117.471C98.4334 117.471 98.6643 117.379 98.8324 117.195C99 117.011 99.0842 116.747 99.0842 116.404C99.0842 116.061 99 115.797 98.8324 115.613C98.6643 115.429 98.4334 115.337 98.1398 115.337C97.8628 115.337 97.6401 115.431 97.4725 115.619ZM100.391 114.22C100.315 114.144 100.278 114.052 100.278 113.943C100.278 113.835 100.315 113.743 100.391 113.667C100.466 113.588 100.559 113.548 100.668 113.548C100.777 113.548 100.869 113.588 100.945 113.667C101.025 113.743 101.065 113.835 101.065 113.943C101.065 114.052 101.025 114.144 100.945 114.22C100.869 114.295 100.777 114.333 100.668 114.333C100.559 114.333 100.466 114.295 100.391 114.22ZM100.341 118.005V114.803H101.002V118.005H100.341ZM101.755 118.005V113.611H102.416V117.408H103.14V118.005H101.755ZM103.581 118.005V113.611H104.242V117.408H104.966V118.005H103.581Z" fill="black"/>
<g filter="url(#filter0_d_54_15570)">
<path d="M188.765 23H84.5691C80.3888 23 77 26.3888 77 30.5691V45.5285C77 49.7088 80.3888 53.0976 84.5691 53.0976H188.765C192.946 53.0976 196.334 49.7088 196.334 45.5285V30.5691C196.334 26.3888 192.946 23 188.765 23Z" fill="url(#paint0_linear_54_15570)"/>
<path d="M188.956 23.4452H84.7596C80.8252 23.4452 77.6357 26.6346 77.6357 30.569V45.5285C77.6357 49.4629 80.8252 52.6523 84.7596 52.6523H188.956C192.89 52.6523 196.08 49.4629 196.08 45.5285V30.569C196.08 26.6346 192.89 23.4452 188.956 23.4452Z" stroke="#1B1C17" stroke-width="1.68642"/>
<path d="M100.541 44.6492C99.6516 44.6492 98.8293 44.5028 98.0745 44.2099C97.3311 43.9058 96.6834 43.4833 96.1314 42.9426C95.5907 42.3907 95.1683 41.743 94.8641 40.9995C94.5712 40.2448 94.4248 39.4225 94.4248 38.5326C94.4248 37.6539 94.5769 36.8429 94.881 36.0994C95.1964 35.3559 95.6357 34.7082 96.199 34.1563C96.7622 33.6043 97.4212 33.1762 98.1759 32.8721C98.9419 32.568 99.7699 32.4159 100.66 32.4159C101.223 32.4159 101.775 32.4891 102.316 32.6355C102.856 32.782 103.358 33.0016 103.819 33.2945C104.293 33.5761 104.698 33.9197 105.036 34.3252L103.262 36.336C102.913 35.953 102.518 35.6545 102.079 35.4404C101.651 35.2264 101.172 35.1194 100.643 35.1194C100.192 35.1194 99.7642 35.1982 99.3587 35.3559C98.9644 35.5136 98.6209 35.7446 98.328 36.0487C98.0351 36.3529 97.8042 36.7133 97.6352 37.1301C97.4662 37.5469 97.3818 38.02 97.3818 38.5495C97.3818 39.0676 97.4606 39.5407 97.6183 39.9688C97.7873 40.3856 98.0238 40.7461 98.328 41.0502C98.6434 41.3431 99.0151 41.5684 99.4432 41.7261C99.8825 41.8838 100.367 41.9626 100.896 41.9626C101.246 41.9626 101.578 41.9176 101.893 41.8275C102.22 41.7261 102.524 41.5853 102.806 41.405C103.087 41.2248 103.329 41.022 103.532 40.7967L104.935 43.0271C104.664 43.3313 104.293 43.6073 103.819 43.8551C103.358 44.1029 102.839 44.3 102.265 44.4465C101.702 44.5816 101.127 44.6492 100.541 44.6492Z" fill="black"/>
<path d="M111.395 44.4803V38.9719C111.395 38.51 111.266 38.1721 111.007 37.9581C110.759 37.7328 110.41 37.6201 109.959 37.6201C109.52 37.6201 109.126 37.7046 108.776 37.8736C108.438 38.0313 108.112 38.296 107.796 38.6677L106.174 37.0963C106.715 36.5444 107.334 36.1107 108.033 35.7953C108.731 35.4799 109.492 35.3221 110.314 35.3221C111.069 35.3221 111.722 35.4348 112.274 35.6601C112.826 35.8854 113.254 36.2289 113.558 36.6908C113.862 37.1526 114.014 37.7384 114.014 38.4481V44.4803H111.395ZM109.064 44.6492C108.5 44.6492 107.988 44.5366 107.526 44.3113C107.075 44.086 106.715 43.7762 106.445 43.382C106.185 42.9764 106.056 42.5033 106.056 41.9626C106.056 41.5008 106.14 41.0953 106.309 40.7461C106.478 40.3968 106.726 40.1096 107.053 39.8843C107.391 39.6478 107.808 39.4732 108.303 39.3605C108.81 39.2366 109.396 39.1746 110.061 39.1746H112.781L112.629 40.8812H110.128C109.892 40.8812 109.683 40.9038 109.503 40.9488C109.323 40.9826 109.171 41.0446 109.047 41.1347C108.923 41.2135 108.827 41.3093 108.759 41.4219C108.703 41.5346 108.675 41.6697 108.675 41.8275C108.675 41.9964 108.72 42.1429 108.81 42.2668C108.9 42.3907 109.019 42.4864 109.165 42.554C109.323 42.6216 109.503 42.6554 109.706 42.6554C109.999 42.6554 110.275 42.6103 110.534 42.5202C110.804 42.4188 111.041 42.278 111.243 42.0978C111.457 41.9176 111.626 41.7092 111.75 41.4726L112.223 42.6892C111.987 43.0722 111.7 43.4101 111.362 43.703C111.035 43.9959 110.674 44.2268 110.28 44.3958C109.897 44.5648 109.492 44.6492 109.064 44.6492Z" fill="black"/>
<path d="M116.184 44.4803V31.9766H118.904V44.4803H116.184Z" fill="black"/>
<path d="M125.088 44.6492C124.22 44.6492 123.438 44.4465 122.739 44.0409C122.052 43.6354 121.511 43.0835 121.117 42.3851C120.723 41.6754 120.526 40.8812 120.526 40.0026C120.526 39.1014 120.723 38.3016 121.117 37.6032C121.511 36.8936 122.052 36.336 122.739 35.9304C123.438 35.5249 124.22 35.3221 125.088 35.3221C125.888 35.3221 126.62 35.4686 127.284 35.7615C127.96 36.0431 128.49 36.4317 128.873 36.9274L127.403 38.7184C127.256 38.5269 127.076 38.3523 126.862 38.1946C126.648 38.0369 126.411 37.913 126.152 37.8229C125.893 37.7328 125.623 37.6877 125.341 37.6877C124.913 37.6877 124.536 37.7891 124.209 37.9919C123.882 38.1834 123.629 38.4537 123.449 38.8029C123.269 39.1521 123.178 39.5464 123.178 39.9857C123.178 40.4137 123.269 40.8024 123.449 41.1516C123.64 41.4895 123.899 41.7599 124.226 41.9626C124.553 42.1654 124.919 42.2668 125.324 42.2668C125.617 42.2668 125.888 42.2273 126.135 42.1485C126.383 42.0696 126.609 41.957 126.811 41.8106C127.025 41.6641 127.222 41.4895 127.403 41.2868L128.873 43.0778C128.49 43.5509 127.955 43.9339 127.267 44.2268C126.58 44.5084 125.854 44.6492 125.088 44.6492Z" fill="black"/>
<path d="M133.417 44.6492C132.763 44.6492 132.2 44.5084 131.727 44.2268C131.254 43.9339 130.888 43.5228 130.629 42.9933C130.381 42.4526 130.257 41.8049 130.257 41.0502V35.508H132.977V40.6447C132.977 41.1966 133.107 41.6303 133.366 41.9457C133.636 42.2499 134.008 42.4019 134.481 42.4019C134.718 42.4019 134.932 42.3682 135.123 42.3006C135.315 42.2217 135.478 42.1147 135.613 41.9795C135.76 41.8331 135.872 41.6641 135.951 41.4726C136.03 41.2811 136.069 41.0727 136.069 40.8474V35.508H138.79V44.4803H136.238L136.137 42.6385L136.627 42.4357C136.503 42.8525 136.278 43.2299 135.951 43.5678C135.636 43.9058 135.258 44.1705 134.819 44.362C134.38 44.5535 133.912 44.6492 133.417 44.6492Z" fill="black"/>
<path d="M141.216 44.4803V31.9766H143.936V44.4803H141.216Z" fill="black"/>
<path d="M150.964 44.4803V38.9719C150.964 38.51 150.835 38.1721 150.576 37.9581C150.328 37.7328 149.979 37.6201 149.528 37.6201C149.089 37.6201 148.695 37.7046 148.345 37.8736C148.008 38.0313 147.681 38.296 147.365 38.6677L145.743 37.0963C146.284 36.5444 146.904 36.1107 147.602 35.7953C148.3 35.4799 149.061 35.3221 149.883 35.3221C150.638 35.3221 151.291 35.4348 151.843 35.6601C152.395 35.8854 152.823 36.2289 153.127 36.6908C153.431 37.1526 153.583 37.7384 153.583 38.4481V44.4803H150.964ZM148.633 44.6492C148.069 44.6492 147.557 44.5366 147.095 44.3113C146.644 44.086 146.284 43.7762 146.014 43.382C145.755 42.9764 145.625 42.5033 145.625 41.9626C145.625 41.5008 145.71 41.0953 145.879 40.7461C146.047 40.3968 146.295 40.1096 146.622 39.8843C146.96 39.6478 147.377 39.4732 147.872 39.3605C148.379 39.2366 148.965 39.1746 149.63 39.1746H152.35L152.198 40.8812H149.697C149.461 40.8812 149.252 40.9038 149.072 40.9488C148.892 40.9826 148.74 41.0446 148.616 41.1347C148.492 41.2135 148.396 41.3093 148.329 41.4219C148.272 41.5346 148.244 41.6697 148.244 41.8275C148.244 41.9964 148.289 42.1429 148.379 42.2668C148.469 42.3907 148.588 42.4864 148.734 42.554C148.892 42.6216 149.072 42.6554 149.275 42.6554C149.568 42.6554 149.844 42.6103 150.103 42.5202C150.373 42.4188 150.61 42.278 150.812 42.0978C151.026 41.9176 151.195 41.7092 151.319 41.4726L151.792 42.6892C151.556 43.0722 151.269 43.4101 150.931 43.703C150.604 43.9959 150.244 44.2268 149.849 44.3958C149.466 44.5648 149.061 44.6492 148.633 44.6492Z" fill="black"/>
<path d="M156.497 44.4803V33.2438H159.217V44.4803H156.497ZM154.908 37.8905V35.508H160.94V37.8905H154.908Z" fill="black"/>
<path d="M166.627 44.6492C165.703 44.6492 164.875 44.4521 164.143 44.0578C163.411 43.6523 162.836 43.1004 162.42 42.4019C162.003 41.6923 161.794 40.8925 161.794 40.0026C161.794 39.0902 162.003 38.2847 162.42 37.5863C162.836 36.8767 163.411 36.3247 164.143 35.9304C164.875 35.5249 165.703 35.3221 166.627 35.3221C167.562 35.3221 168.39 35.5249 169.111 35.9304C169.843 36.3247 170.417 36.8767 170.834 37.5863C171.251 38.2847 171.459 39.0902 171.459 40.0026C171.459 40.8925 171.251 41.6923 170.834 42.4019C170.417 43.1004 169.843 43.6523 169.111 44.0578C168.39 44.4521 167.562 44.6492 166.627 44.6492ZM166.627 42.3175C167.032 42.3175 167.387 42.2161 167.691 42.0133C168.007 41.8106 168.255 41.5346 168.435 41.1854C168.615 40.8362 168.7 40.4419 168.688 40.0026C168.7 39.5407 168.615 39.1352 168.435 38.786C168.255 38.4255 168.007 38.1496 167.691 37.9581C167.387 37.7553 167.032 37.6539 166.627 37.6539C166.233 37.6539 165.878 37.7553 165.562 37.9581C165.247 38.1608 164.999 38.4368 164.819 38.786C164.639 39.1352 164.549 39.5407 164.549 40.0026C164.549 40.4419 164.639 40.8362 164.819 41.1854C164.999 41.5346 165.247 41.8106 165.562 42.0133C165.878 42.2161 166.233 42.3175 166.627 42.3175Z" fill="black"/>
<path d="M173.228 44.4803V35.508H175.813L175.931 38.4312L175.424 37.8567C175.571 37.3836 175.796 36.9555 176.1 36.5725C176.404 36.1895 176.765 35.8854 177.181 35.6601C177.61 35.4348 178.054 35.3221 178.516 35.3221C178.719 35.3221 178.905 35.339 179.074 35.3728C179.254 35.3954 179.412 35.4348 179.547 35.4911L178.82 38.4819C178.697 38.4143 178.528 38.358 178.314 38.3129C178.111 38.2566 177.897 38.2284 177.671 38.2284C177.424 38.2284 177.193 38.2735 176.979 38.3636C176.776 38.4424 176.596 38.5607 176.438 38.7184C176.292 38.8761 176.173 39.062 176.083 39.276C176.004 39.49 175.965 39.7322 175.965 40.0026V44.4803H173.228Z" fill="black"/>
</g>
<path d="M179.686 67.818C190.905 67.818 200 58.7308 200 47.5211C200 36.3115 190.905 27.2242 179.686 27.2242C168.467 27.2242 159.372 36.3115 159.372 47.5211C159.372 58.7308 168.467 67.818 179.686 67.818Z" fill="#FCCA3E" fill-opacity="0.3"/>
<path d="M179.685 64.1037C188.851 64.1037 196.281 56.6795 196.281 47.5212C196.281 38.363 188.851 30.9388 179.685 30.9388C170.519 30.9388 163.089 38.363 163.089 47.5212C163.089 56.6795 170.519 64.1037 179.685 64.1037Z" fill="#FCCA3E" fill-opacity="0.3"/>
<path d="M179.818 60.9194C187.151 60.9194 193.095 54.9801 193.095 47.6535C193.095 40.3269 187.151 34.3876 179.818 34.3876C172.485 34.3876 166.541 40.3269 166.541 47.6535C166.541 54.9801 172.485 60.9194 179.818 60.9194Z" fill="#FCCA3E" fill-opacity="0.3"/>
<path d="M188.063 65.4697L187.779 64.6831L187.249 65.2298L183.558 69.037C182.563 70.0628 181.069 69.2448 180.977 67.6249L179.903 48.4633C179.809 46.7893 181.285 45.7187 182.378 46.6677L197.617 59.8855C198.602 60.7403 198.514 62.6155 197.455 63.3158L196.819 63.7375C196.538 63.9233 196.218 63.9948 195.904 63.9413L191.813 63.249C191.496 63.1955 191.214 63.5076 191.214 63.9126C191.214 64.0195 191.234 64.1238 191.272 64.2187L195.075 73.5853C195.466 74.5509 195.18 75.7358 194.428 76.2584L193.949 76.5918C193.142 77.1532 192.128 76.7282 191.745 75.6683L188.063 65.4697Z" fill="white" stroke="black" stroke-width="2"/>
<path d="M185.979 66.3886L185.681 65.6608L185.177 66.1774L181.458 69.996C180.423 71.0592 178.876 70.1263 178.876 68.4389V48.5476C178.876 46.8662 180.413 45.9319 181.45 46.9825L194.835 60.5398C196.003 61.7234 195.343 64.1084 193.846 64.1098L189.864 64.1151C189.571 64.1151 189.335 64.4152 189.335 64.7847C189.335 64.8917 189.355 64.9973 189.394 65.0922L193.226 74.4902C193.671 75.5815 193.243 76.9187 192.323 77.3096L192.019 77.4393C191.278 77.754 190.467 77.3397 190.108 76.4622L185.979 66.3886Z" fill="white" stroke="black" stroke-width="2"/>
<defs>
<filter id="filter0_d_54_15570" x="76.793" y="22.6019" width="125.189" height="35.9528" filterUnits="userSpaceOnUse" color-interpolation-filters="sRGB">
<feFlood flood-opacity="0" result="BackgroundImageFix"/>
<feColorMatrix in="SourceAlpha" type="matrix" values="0 0 0 0 0 0 0 0 0 0 0 0 0 0 0 0 0 0 127 0" result="hardAlpha"/>
<feOffset dx="5.05926" dy="5.05926"/>
<feComposite in2="hardAlpha" operator="out"/>
<feColorMatrix type="matrix" values="0 0 0 0 0 0 0 0 0 0 0 0 0 0 0 0 0 0 1 0"/>
<feBlend mode="normal" in2="BackgroundImageFix" result="effect1_dropShadow_54_15570"/>
<feBlend mode="normal" in="SourceGraphic" in2="effect1_dropShadow_54_15570" result="shape"/>
</filter>
<linearGradient id="paint0_linear_54_15570" x1="93.5183" y1="27.1503" x2="100.063" y2="61.4616" gradientUnits="userSpaceOnUse">
<stop stop-color="#ABE839"/>
<stop offset="1" stop-color="#E0FD79"/>
</linearGradient>
</defs>
</svg>
