<svg width="250" height="200" viewBox="0 0 250 200" fill="none" xmlns="http://www.w3.org/2000/svg">
<path d="M123.582 194C175.266 194 217.164 152.139 217.164 100.5C217.164 48.8614 175.266 7 123.582 7C71.8981 7 30 48.8614 30 100.5C30 152.139 71.8981 194 123.582 194Z" fill="#EDF0F4"/>
<path d="M219.179 192.317H34.6903C34.6274 192.317 34.5671 192.292 34.5226 192.247C34.4781 192.203 34.4531 192.143 34.4531 192.08C34.4531 192.017 34.4781 191.956 34.5226 191.912C34.5671 191.868 34.6274 191.843 34.6903 191.843H219.179C219.242 191.843 219.302 191.868 219.347 191.912C219.391 191.956 219.416 192.017 219.416 192.08C219.416 192.143 219.391 192.203 219.347 192.247C219.302 192.292 219.242 192.317 219.179 192.317Z" fill="black"/>
<path d="M122.171 191.927C122.108 191.927 122.048 191.902 122.003 191.858C121.959 191.814 121.934 191.753 121.934 191.69V171.043C121.934 170.98 121.959 170.92 122.003 170.875C122.048 170.831 122.108 170.806 122.171 170.806C122.234 170.806 122.294 170.831 122.339 170.875C122.383 170.92 122.408 170.98 122.408 171.043V191.676C122.41 191.709 122.406 191.741 122.394 191.771C122.383 191.802 122.366 191.83 122.344 191.853C122.322 191.877 122.295 191.896 122.265 191.908C122.235 191.921 122.203 191.928 122.171 191.927Z" fill="black"/>
<path d="M122.171 168.967C122.108 168.967 122.048 168.942 122.003 168.898C121.959 168.853 121.934 168.793 121.934 168.73V164.307C121.934 164.244 121.959 164.184 122.003 164.14C122.048 164.095 122.108 164.07 122.171 164.07C122.234 164.07 122.294 164.095 122.339 164.14C122.383 164.184 122.408 164.244 122.408 164.307V168.73C122.408 168.793 122.383 168.853 122.339 168.898C122.294 168.942 122.234 168.967 122.171 168.967Z" fill="black"/>
<path d="M209.085 192.047C209.022 192.047 208.962 192.022 208.917 191.977C208.873 191.933 208.848 191.872 208.848 191.81V153.605H122.408V161.81C122.408 161.873 122.383 161.933 122.339 161.977C122.294 162.022 122.234 162.047 122.171 162.047C122.108 162.047 122.048 162.022 122.003 161.977C121.959 161.933 121.934 161.873 121.934 161.81V153.368C121.934 153.305 121.959 153.245 122.003 153.2C122.048 153.156 122.108 153.131 122.171 153.131H209.085C209.148 153.131 209.208 153.156 209.253 153.2C209.297 153.245 209.322 153.305 209.322 153.368V191.81C209.322 191.872 209.297 191.933 209.253 191.977C209.208 192.022 209.148 192.047 209.085 192.047Z" fill="black"/>
<path d="M203.96 188.525C203.897 188.525 203.837 188.5 203.793 188.456C203.748 188.411 203.723 188.351 203.723 188.288V157.809H196.417C196.354 157.809 196.293 157.784 196.249 157.74C196.205 157.695 196.18 157.635 196.18 157.572C196.18 157.509 196.205 157.449 196.249 157.405C196.293 157.36 196.354 157.335 196.417 157.335H203.96C204.023 157.335 204.083 157.36 204.128 157.405C204.172 157.449 204.197 157.509 204.197 157.572V188.288C204.197 188.351 204.172 188.411 204.128 188.456C204.083 188.5 204.023 188.525 203.96 188.525Z" fill="black"/>
<path d="M127.288 191.928C127.225 191.927 127.166 191.901 127.122 191.857C127.077 191.813 127.052 191.753 127.051 191.69V157.562C127.051 157.499 127.076 157.439 127.12 157.395C127.165 157.35 127.225 157.325 127.288 157.325H192.042C192.105 157.325 192.165 157.35 192.21 157.395C192.254 157.439 192.279 157.499 192.279 157.562C192.279 157.625 192.254 157.685 192.21 157.73C192.165 157.774 192.105 157.799 192.042 157.799H127.52V191.681C127.522 191.713 127.517 191.744 127.506 191.774C127.494 191.803 127.478 191.83 127.456 191.853C127.434 191.876 127.409 191.895 127.38 191.907C127.35 191.92 127.319 191.927 127.288 191.928Z" fill="black"/>
<path d="M133.297 149.627H130.901C130.838 149.627 130.778 149.602 130.733 149.558C130.689 149.514 130.664 149.453 130.664 149.39C130.664 149.327 130.689 149.267 130.733 149.223C130.778 149.178 130.838 149.153 130.901 149.153H133.297C133.36 149.153 133.42 149.178 133.465 149.223C133.509 149.267 133.534 149.327 133.534 149.39C133.534 149.453 133.509 149.514 133.465 149.558C133.42 149.602 133.36 149.627 133.297 149.627Z" fill="black"/>
<path d="M211.234 153.58H120.003C119.94 153.579 119.881 153.554 119.837 153.51C119.792 153.466 119.767 153.406 119.766 153.343V149.39C119.766 149.327 119.791 149.267 119.835 149.223C119.88 149.178 119.94 149.153 120.003 149.153H129.373C129.436 149.153 129.496 149.178 129.541 149.223C129.585 149.267 129.61 149.327 129.61 149.39C129.61 149.453 129.585 149.514 129.541 149.558C129.496 149.602 129.436 149.627 129.373 149.627H120.24V153.107H211.002V149.627H136.75C136.687 149.627 136.627 149.602 136.582 149.558C136.538 149.514 136.513 149.453 136.513 149.39C136.513 149.327 136.538 149.267 136.582 149.223C136.627 149.178 136.687 149.153 136.75 149.153H211.234C211.297 149.153 211.357 149.178 211.402 149.223C211.446 149.267 211.471 149.327 211.471 149.39V153.343C211.471 153.406 211.446 153.467 211.402 153.511C211.357 153.555 211.297 153.58 211.234 153.58Z" fill="black"/>
<path d="M112.839 134.753H44.8972C44.8343 134.753 44.7739 134.728 44.7295 134.684C44.685 134.639 44.66 134.579 44.66 134.516C44.6612 134.454 44.6866 134.394 44.7308 134.35C44.775 134.306 44.8347 134.28 44.8972 134.279H112.602V60.4193H38.6775V67.6099C38.6775 67.6728 38.6526 67.7332 38.6081 67.7776C38.5636 67.8219 38.5032 67.8469 38.4403 67.8469C38.3774 67.8469 38.3171 67.8219 38.2726 67.7776C38.2281 67.7332 38.2031 67.6728 38.2031 67.6099V60.1823C38.2031 60.1194 38.2281 60.059 38.2726 60.0146C38.3171 59.9703 38.3774 59.9453 38.4403 59.9453H112.839C112.902 59.9465 112.961 59.9719 113.006 60.0158C113.05 60.0602 113.075 60.1198 113.076 60.1823V134.516C113.076 134.579 113.052 134.639 113.007 134.684C112.962 134.728 112.902 134.753 112.839 134.753Z" fill="black"/>
<path d="M38.4403 134.753C38.3774 134.753 38.3171 134.729 38.2726 134.684C38.2281 134.639 38.2031 134.579 38.2031 134.517V71.3835C38.2031 71.3206 38.2281 71.2605 38.2726 71.2158C38.3171 71.1715 38.3774 71.1465 38.4403 71.1465C38.5032 71.1465 38.5636 71.1715 38.6081 71.2158C38.6526 71.2605 38.6775 71.3206 38.6775 71.3835V134.517C38.6775 134.579 38.6526 134.639 38.6081 134.684C38.5636 134.729 38.5032 134.753 38.4403 134.753Z" fill="black"/>
<path d="M74.5499 96.5491H41.995C41.9321 96.5491 41.8718 96.5241 41.8273 96.4794C41.7828 96.435 41.7578 96.375 41.7578 96.3121V89.2589C41.7578 89.196 41.7828 89.1356 41.8273 89.0913C41.8718 89.0465 41.9321 89.0219 41.995 89.0219C42.0576 89.0231 42.1172 89.0481 42.1614 89.0925C42.2056 89.1368 42.231 89.1964 42.2322 89.2589V96.0751H74.3127V64.0228H42.2322V87.32C42.231 87.3825 42.2056 87.4421 42.1614 87.4864C42.1172 87.5304 42.0576 87.5558 41.995 87.557C41.9321 87.557 41.8718 87.532 41.8273 87.4876C41.7828 87.4433 41.7578 87.3829 41.7578 87.32V63.7858C41.7578 63.7229 41.7828 63.6625 41.8273 63.6181C41.8718 63.5734 41.9321 63.5488 41.995 63.5488H74.5499C74.6125 63.55 74.6721 63.575 74.7161 63.6194C74.7605 63.6637 74.7859 63.7233 74.7871 63.7858V96.3121C74.7871 96.375 74.7621 96.435 74.7177 96.4794C74.673 96.5241 74.6129 96.5491 74.5499 96.5491Z" fill="black"/>
<path d="M109.281 96.5491H76.7259C76.6629 96.5491 76.6024 96.5241 76.5581 96.4794C76.5133 96.435 76.4883 96.375 76.4883 96.3121V63.7858C76.4883 63.7229 76.5133 63.6625 76.5581 63.6181C76.6024 63.5734 76.6629 63.5488 76.7259 63.5488H109.281C109.343 63.5488 109.404 63.5734 109.448 63.6181C109.493 63.6625 109.518 63.7229 109.518 63.7858V81.1059C109.518 81.1687 109.493 81.2288 109.448 81.2735C109.404 81.3179 109.343 81.3428 109.281 81.3428C109.218 81.3428 109.157 81.3179 109.113 81.2735C109.068 81.2288 109.043 81.1687 109.043 81.1059V64.0417H76.9772V96.0941H109.058V84.5472C109.058 84.4844 109.083 84.4239 109.127 84.3796C109.171 84.3352 109.232 84.3103 109.295 84.3103C109.358 84.3103 109.418 84.3352 109.463 84.3796C109.507 84.4239 109.532 84.4844 109.532 84.5472V96.3121C109.532 96.3444 109.526 96.3762 109.513 96.406C109.5 96.4358 109.481 96.4624 109.457 96.4846C109.434 96.5072 109.406 96.5241 109.375 96.535C109.345 96.5463 109.313 96.5511 109.281 96.5491Z" fill="black"/>
<path d="M74.5499 131.151H41.995C41.9321 131.151 41.8718 131.126 41.8273 131.081C41.7828 131.037 41.7578 130.977 41.7578 130.914V98.3874C41.7578 98.3245 41.7828 98.264 41.8273 98.2197C41.8718 98.1754 41.9321 98.1504 41.995 98.1504H72.1446C72.2072 98.1516 72.2669 98.177 72.3108 98.2209C72.3552 98.2653 72.3806 98.3249 72.3818 98.3874C72.3818 98.4502 72.3568 98.5107 72.3124 98.555C72.2677 98.5994 72.2076 98.6243 72.1446 98.6243H42.2559V130.677H74.3365V98.3874C74.3365 98.3245 74.3612 98.264 74.4059 98.2197C74.4503 98.1754 74.5108 98.1504 74.5737 98.1504C74.6362 98.1516 74.6955 98.177 74.7399 98.2209C74.7843 98.2653 74.8097 98.3249 74.8109 98.3874V130.914C74.8109 130.947 74.8041 130.98 74.7907 131.01C74.7774 131.041 74.7577 131.068 74.7331 131.09C74.7085 131.113 74.6794 131.13 74.6479 131.14C74.6165 131.15 74.583 131.154 74.5499 131.151Z" fill="black"/>
<path d="M109.281 131.151H90.2041C90.1412 131.151 90.0807 131.126 90.0363 131.081C89.9919 131.037 89.9669 130.977 89.9669 130.914C89.9681 130.851 89.9935 130.792 90.0375 130.748C90.0819 130.703 90.1416 130.678 90.2041 130.677H109.043V98.6243H76.9772V130.677H85.5738C85.6363 130.678 85.6956 130.703 85.74 130.748C85.7844 130.792 85.8098 130.851 85.811 130.914C85.811 130.977 85.786 131.037 85.7412 131.081C85.6968 131.126 85.6367 131.151 85.5738 131.151H76.7259C76.6629 131.151 76.6024 131.126 76.5581 131.081C76.5133 131.037 76.4883 130.977 76.4883 130.914V98.3874C76.4883 98.3245 76.5133 98.264 76.5581 98.2197C76.6024 98.1754 76.6629 98.1504 76.7259 98.1504H109.281C109.343 98.1504 109.404 98.1754 109.448 98.2197C109.493 98.264 109.518 98.3245 109.518 98.3874V130.914C109.518 130.977 109.493 131.037 109.448 131.081C109.404 131.126 109.343 131.151 109.281 131.151Z" fill="black"/>
<path d="M194.12 75.2979H140.795C139.238 75.2979 137.977 76.5585 137.977 78.1133V148.342C137.977 149.897 139.238 151.158 140.795 151.158H194.12C195.676 151.158 196.938 149.897 196.938 148.342V78.1133C196.938 76.5585 195.676 75.2979 194.12 75.2979Z" fill="white"/>
<path opacity="0.3" d="M144.816 118.803V128.62C144.816 128.62 141.23 128.037 137.961 127.169V106.275C139.564 101.431 140.992 97.6009 140.992 97.6009C140.992 97.6009 139.811 95.5532 137.961 92.6757V85.248L140.262 88.5661L142.373 89.2726L144.199 97.212L141.263 116.646L144.816 118.803Z" fill="black" fill-opacity="0.7"/>
<path d="M194.12 75.2979H140.795C139.238 75.2979 137.977 76.5585 137.977 78.1133V148.342C137.977 149.897 139.238 151.158 140.795 151.158H194.12C195.676 151.158 196.938 149.897 196.938 148.342V78.1133C196.938 76.5585 195.676 75.2979 194.12 75.2979Z" stroke="black" stroke-linecap="round" stroke-linejoin="round"/>
<path d="M140.794 75.2939H194.119C194.866 75.2939 195.583 75.5906 196.112 76.1189C196.64 76.6469 196.937 77.363 196.937 78.1098V83.1959H137.981V78.138C137.977 77.7665 138.047 77.3977 138.186 77.0531C138.326 76.7085 138.532 76.395 138.794 76.1306C139.056 75.8662 139.367 75.6559 139.71 75.5124C140.054 75.3689 140.422 75.2948 140.794 75.2939Z" fill="#AAE738" stroke="black" stroke-linecap="round" stroke-linejoin="round"/>
<path d="M153.75 79.252H181.176" stroke="white" stroke-width="3" stroke-linecap="round" stroke-linejoin="round"/>
<path d="M193.42 87.3193H142.277V130.914H193.42V87.3193Z" fill="white"/>
<path opacity="0.4" d="M193.42 87.3193H142.277V130.914H193.42V87.3193Z" fill="#AAE738"/>
<path d="M193.42 87.3193H142.277V130.914H193.42V87.3193Z" stroke="black" stroke-linecap="round" stroke-linejoin="round"/>
<path d="M141.063 91.832C140.581 95.8102 139.625 99.7167 138.217 103.469C135.997 109.114 133.292 116.428 133.297 120.941C133.297 124.32 150.633 126.473 150.633 126.473L151.932 115.703L142.918 115.39C142.918 115.39 143.867 112.039 144.242 105.251C144.455 101.426 147.331 93.4485 147.331 93.4485" fill="white"/>
<path d="M141.063 91.832C140.581 95.8102 139.625 99.7167 138.217 103.469C135.997 109.114 133.292 116.428 133.297 120.941C133.297 124.32 150.633 126.473 150.633 126.473L151.932 115.703L142.918 115.39C142.918 115.39 143.867 112.039 144.242 105.251C144.455 101.426 147.331 93.4485 147.331 93.4485" stroke="black" stroke-linecap="round" stroke-linejoin="round"/>
<path d="M159.83 113.086H168.607C168.607 113.086 169.964 110.522 176.719 111.038C183.475 111.555 185.164 113.086 185.164 113.086C185.164 113.086 191.17 114.418 193.424 115.703V130.914H157.543L156.077 128.989L144.25 127.16C144.25 127.16 144.25 115.746 146.147 113.086C146.147 113.086 148.211 113.053 148.401 114.366C148.382 114.366 156.827 113.086 159.83 113.086Z" fill="black"/>
<path d="M168.971 106.654C169.148 106.975 169.37 107.269 169.63 107.527C171.552 109.423 171.722 110.978 171.409 112.063C171.209 112.733 170.816 113.33 170.28 113.779C170.28 113.779 170.171 116.794 173.914 117.158C178.417 117.594 180.945 112.892 180.945 112.892C175.338 105.199 179.555 101.948 179.555 101.948C174.113 98.9141 166.907 103.005 168.971 106.654Z" fill="white" stroke="black" stroke-linecap="round" stroke-linejoin="round"/>
<path opacity="0.2" d="M169.629 107.526C171.55 109.422 171.721 110.977 171.408 112.062C176.717 110.28 175.63 106.218 175.63 106.218C174.7 107.139 173.61 107.884 172.414 108.417C171.659 108.683 169.629 107.526 169.629 107.526Z" fill="black" fill-opacity="0.7"/>
<path d="M180.395 98.4445C182.435 89.7087 178.212 85.926 175.442 84.779C171.006 82.9444 165.242 85.8264 163.932 90.6804C162.623 95.5343 163.805 96.6386 163.743 98.6198C163.7 100.013 162.841 100.701 163.786 104.194C164.412 106.498 165.451 110.195 169.398 109.531C170.607 109.321 171.779 108.939 172.88 108.399" fill="white"/>
<path d="M180.395 98.4445C182.435 89.7087 178.212 85.926 175.442 84.779C171.006 82.9444 165.242 85.8264 163.932 90.6804C162.623 95.5343 163.805 96.6386 163.743 98.6198C163.7 100.013 162.841 100.701 163.786 104.194C164.412 106.498 165.451 110.195 169.398 109.531C170.607 109.321 171.779 108.939 172.88 108.399" stroke="black" stroke-linecap="round" stroke-linejoin="round"/>
<path d="M168.891 95.605C168.891 95.605 170.532 94.9936 171.405 96.918" stroke="black" stroke-linecap="round" stroke-linejoin="round"/>
<path d="M163.316 94.5856C163.316 94.5856 165.029 94.2161 165.76 95.4578" stroke="black" stroke-linecap="round" stroke-linejoin="round"/>
<path d="M166.197 97.9326C166.197 97.9326 166.345 99.4637 165.761 99.7526C165.178 100.042 164.267 99.4306 164.537 100.644C164.807 101.857 166.212 101.938 166.212 101.938" stroke="black" stroke-linecap="round" stroke-linejoin="round"/>
<path d="M169.219 98.3353C169.219 98.7427 169.399 99.07 169.622 99.07C169.845 99.07 170.03 98.7427 170.03 98.3353C170.03 97.9274 169.85 97.6006 169.622 97.6006C169.394 97.6006 169.219 97.9274 169.219 98.3353Z" fill="black" stroke="black" stroke-linecap="round" stroke-linejoin="round"/>
<path d="M164.535 97.9329C164.535 98.3404 164.72 98.6676 164.943 98.6676C165.166 98.6676 165.351 98.3404 165.351 97.9329C165.351 97.5251 165.166 97.1982 164.943 97.1982C164.72 97.1982 164.535 97.5299 164.535 97.9329Z" fill="black" stroke="black" stroke-linecap="round" stroke-linejoin="round"/>
<path d="M169.22 103.133C169.22 103.133 167.432 104.123 165.762 103.692" stroke="black" stroke-linecap="round" stroke-linejoin="round"/>
<path d="M168.891 103.469C168.84 103.828 168.674 104.161 168.417 104.417C168.16 104.674 167.827 104.84 167.468 104.891C167.311 104.913 167.152 104.902 167 104.858C166.848 104.814 166.707 104.739 166.587 104.637C166.466 104.534 166.369 104.408 166.301 104.266C166.233 104.123 166.195 103.968 166.191 103.81" stroke="black" stroke-linecap="round" stroke-linejoin="round"/>
<path d="M162.316 93.7048C162.316 93.7048 160.148 91.676 161.984 87.3814C163.82 83.0869 179.206 82.3332 182.494 87.3528C185.781 92.3728 183.162 101.995 178.053 105.252C178.053 105.252 179.054 101.094 175.719 99.933C175.719 99.933 172.749 96.6149 173.94 92.6714C173.94 92.6714 172.298 92.9511 171.857 94.2117C171.857 94.2117 169.594 93.7378 169.447 91.7231C169.142 92.5823 169.001 93.4903 169.029 94.4016C169.029 94.4016 165.708 93.6004 165.471 92.1169C165.324 92.4215 165.273 92.7633 165.325 93.0978C165.377 93.4319 165.529 93.7426 165.761 93.9889C165.155 93.9816 164.559 93.8381 164.017 93.5689C163.475 93.2997 163.001 92.912 162.63 92.4344L162.316 93.7048Z" fill="black"/>
<path d="M175.449 99.9703C175.449 99.9703 177.053 96.9892 178.728 97.7142C180.402 98.4397 179.235 102.009 177.779 103.175C176.322 104.341 175.449 103.175 175.449 103.175" fill="white"/>
<path d="M175.449 99.9703C175.449 99.9703 177.053 96.9892 178.728 97.7142C180.402 98.4397 179.235 102.009 177.779 103.175C176.322 104.341 175.449 103.175 175.449 103.175" stroke="black" stroke-linecap="round" stroke-linejoin="round"/>
<path d="M146.116 95.4111C147.14 95.3495 147.985 94.2831 148.379 93.7567C148.748 93.2514 149.049 92.7 149.275 92.1169C149.48 91.5909 149.729 91.0835 150.02 90.5999C150.21 90.2731 150.414 89.9555 150.609 89.652C151.015 89.0503 151.453 88.4712 151.923 87.917C151.923 87.917 151.605 86.7749 150.694 87.3387C150.446 87.5031 150.224 87.7026 150.035 87.9311C149.693 88.3249 149.389 88.7843 149.123 89.1305C148.991 89.3465 148.803 89.5218 148.578 89.6379C148.484 89.6576 148.389 89.6685 148.293 89.6709H148.265H148.16C147.956 89.6625 147.758 89.5984 147.586 89.486C147.509 89.4372 147.442 89.3743 147.387 89.301C147.368 89.2832 147.352 89.2627 147.34 89.2397C147.304 89.1801 147.273 89.118 147.245 89.0547C147.101 88.6981 147.009 88.3233 146.97 87.9408C146.901 87.3685 146.874 86.7918 146.889 86.2155C146.889 86.0019 146.889 85.7838 146.913 85.5803C146.935 85.052 146.984 84.5252 147.06 84.0017C147.112 83.6321 147.164 83.2291 147.207 82.8309C147.25 82.4328 147.273 82.0584 147.278 81.7029C147.278 80.6647 147.131 79.8684 146.524 80.0485C145.917 80.2287 145.94 80.5938 145.84 81.499C145.802 81.8165 145.76 82.1909 145.689 82.646C145.554 83.4383 145.367 84.2205 145.129 84.9879C145.101 85.0826 145.067 85.1821 145.034 85.2865H144.659C144.635 85.3575 144.588 85.2104 144.541 84.9117C144.425 84.1105 144.355 83.3037 144.332 82.4944C144.332 82.1249 144.332 81.7359 144.332 81.3426C144.332 80.9493 144.332 80.6365 144.365 80.2855C144.455 78.5461 143.359 79.0579 143.075 79.5794C142.89 80.1626 142.821 80.776 142.871 81.3853C142.871 81.7738 142.871 82.1768 142.871 82.5561C142.871 82.7503 142.871 82.9353 142.871 83.1106C142.828 83.8405 142.795 84.599 142.766 85.1205C142.766 85.1962 142.766 85.2627 142.766 85.3244L142.292 85.5328C142.259 85.457 142.231 85.3796 142.206 85.3006C141.956 84.6066 141.764 83.8933 141.632 83.1675C141.542 82.6697 141.5 82.2716 141.457 81.9637C141.376 81.3756 141.296 81.0915 140.888 81.0153C140.48 80.9396 140.219 81.551 140.162 82.3191C140.118 82.9208 140.161 83.5257 140.29 84.1154C140.318 84.2294 140.347 84.329 140.38 84.4237C140.537 84.9492 140.628 85.4921 140.65 86.0402C140.65 86.1441 140.65 86.2582 140.674 86.3718L140.413 86.7132C140.332 86.5758 140.266 86.4383 140.2 86.3102C139.984 85.8786 139.792 85.4356 139.626 84.9831C139.502 84.6111 139.36 84.2455 139.198 83.8881C139.061 83.6273 138.914 83.4947 138.677 83.5088C138.311 83.5088 138.202 84.0444 138.283 84.6606C138.321 85.0294 138.397 85.3933 138.511 85.746C138.589 86.0051 138.695 86.255 138.829 86.4903C139.056 86.9437 139.232 87.4205 139.355 87.9122C139.407 88.1113 139.464 88.32 139.516 88.524C139.706 89.2587 139.858 89.9458 139.906 90.1925C139.906 90.2493 139.906 90.2823 139.906 90.2823C139.934 90.8558 139.967 91.3394 140.014 91.7614C140.087 92.7573 140.37 93.7265 140.845 94.6055C141.082 95.0794 141.737 95.3305 142.524 95.4776" fill="white"/>
<path d="M146.116 95.4111C147.14 95.3495 147.985 94.2831 148.379 93.7567C148.748 93.2514 149.049 92.7 149.275 92.1169C149.48 91.5909 149.729 91.0835 150.02 90.5999C150.21 90.2731 150.414 89.9555 150.609 89.652C151.015 89.0503 151.453 88.4712 151.923 87.917C151.923 87.917 151.605 86.7749 150.694 87.3387C150.446 87.5031 150.224 87.7026 150.035 87.9311C149.693 88.3249 149.389 88.7843 149.123 89.1305C148.991 89.3465 148.803 89.5218 148.578 89.6379C148.484 89.6576 148.389 89.6685 148.293 89.6709H148.265H148.16C147.956 89.6625 147.758 89.5984 147.586 89.486C147.509 89.4372 147.442 89.3743 147.387 89.301C147.368 89.2832 147.352 89.2627 147.34 89.2397C147.304 89.1801 147.273 89.118 147.245 89.0547C147.101 88.6981 147.009 88.3233 146.97 87.9408C146.901 87.3685 146.874 86.7918 146.889 86.2155C146.889 86.0019 146.889 85.7838 146.913 85.5803C146.935 85.052 146.984 84.5252 147.06 84.0017C147.112 83.6321 147.164 83.2291 147.207 82.8309C147.25 82.4328 147.273 82.0584 147.278 81.7029C147.278 80.6647 147.131 79.8684 146.524 80.0485C145.917 80.2287 145.94 80.5938 145.84 81.499C145.802 81.8165 145.76 82.1909 145.689 82.646C145.554 83.4383 145.367 84.2205 145.129 84.9879C145.101 85.0826 145.067 85.1821 145.034 85.2865H144.659C144.635 85.3575 144.588 85.2104 144.541 84.9117C144.425 84.1105 144.355 83.3037 144.332 82.4944C144.332 82.1249 144.332 81.7359 144.332 81.3426C144.332 80.9493 144.332 80.6365 144.365 80.2855C144.455 78.5461 143.359 79.0579 143.075 79.5794C142.89 80.1626 142.821 80.776 142.871 81.3853C142.871 81.7738 142.871 82.1768 142.871 82.5561C142.871 82.7503 142.871 82.9353 142.871 83.1106C142.828 83.8405 142.795 84.599 142.766 85.1205C142.766 85.1962 142.766 85.2627 142.766 85.3244L142.292 85.5328C142.259 85.457 142.231 85.3796 142.206 85.3006C141.956 84.6066 141.764 83.8933 141.632 83.1675C141.542 82.6697 141.5 82.2716 141.457 81.9637C141.376 81.3756 141.296 81.0915 140.888 81.0153C140.48 80.9396 140.219 81.551 140.162 82.3191C140.118 82.9208 140.161 83.5257 140.29 84.1154C140.318 84.2294 140.347 84.329 140.38 84.4237C140.537 84.9492 140.628 85.4921 140.65 86.0402C140.65 86.1441 140.65 86.2582 140.674 86.3718L140.413 86.7132C140.332 86.5758 140.266 86.4383 140.2 86.3102C139.984 85.8786 139.792 85.4356 139.626 84.9831C139.502 84.6111 139.36 84.2455 139.198 83.8881C139.061 83.6273 138.914 83.4947 138.677 83.5088C138.311 83.5088 138.202 84.0444 138.283 84.6606C138.321 85.0294 138.397 85.3933 138.511 85.746C138.589 86.0051 138.695 86.255 138.829 86.4903C139.056 86.9437 139.232 87.4205 139.355 87.9122C139.407 88.1113 139.464 88.32 139.516 88.524C139.706 89.2587 139.858 89.9458 139.906 90.1925C139.906 90.2493 139.906 90.2823 139.906 90.2823C139.934 90.8558 139.967 91.3394 140.014 91.7614C140.087 92.7573 140.37 93.7265 140.845 94.6055C141.082 95.0794 141.737 95.3305 142.524 95.4776" stroke="black" stroke-linecap="round" stroke-linejoin="round"/>
<path d="M147.341 89.2583C147.341 89.2583 145.101 89.1728 144.438 91.3201" stroke="black" stroke-linecap="round" stroke-linejoin="round"/>
<path d="M142.916 115.39C142.79 115.85 142.563 116.277 142.251 116.638C141.939 117 141.551 117.287 141.113 117.48" stroke="black" stroke-linecap="round" stroke-linejoin="round"/>
<path d="M105.501 20.6411V90.8367C105.501 91.5295 105.226 92.1937 104.735 92.6837C104.245 93.1734 103.58 93.4487 102.887 93.4487H62.0865C61.7432 93.4487 61.4036 93.381 61.0861 93.2496C60.7691 93.1186 60.4811 92.9259 60.2383 92.6837C59.9954 92.4411 59.803 92.153 59.6715 91.8362C59.5404 91.5194 59.4727 91.1797 59.4727 90.8367V20.6411C59.4727 20.2982 59.5404 19.9586 59.6715 19.6417C59.803 19.3248 59.9954 19.0369 60.2383 18.7944C60.4811 18.5518 60.7691 18.3594 61.0861 18.2282C61.4036 18.0969 61.7432 18.0293 62.0865 18.0293H70.8114C71.3063 18.0262 71.792 18.1635 72.2119 18.4253C72.6318 18.6871 72.9686 19.0626 73.1836 19.5083C73.397 19.9551 73.7334 20.3319 74.1537 20.5947C74.5736 20.8574 75.0601 20.9952 75.5554 20.9919H89.0147C89.5104 20.9952 89.9969 20.8574 90.4168 20.5947C90.8371 20.3319 91.1735 19.9551 91.3869 19.5083C91.6015 19.0626 91.9387 18.6871 92.3586 18.4253C92.7785 18.1635 93.2642 18.0262 93.7591 18.0293H102.944C103.627 18.0442 104.278 18.326 104.756 18.8141C105.234 19.3024 105.501 19.9582 105.501 20.6411Z" fill="#AAE738"/>
<path opacity="0.5" d="M105.501 20.6411V90.8367C105.501 91.5295 105.226 92.1937 104.735 92.6837C104.245 93.1734 103.58 93.4487 102.887 93.4487H62.0865C61.7432 93.4487 61.4036 93.381 61.0861 93.2496C60.7691 93.1186 60.4811 92.9259 60.2383 92.6837C59.9954 92.4411 59.803 92.153 59.6715 91.8362C59.5404 91.5194 59.4727 91.1797 59.4727 90.8367V20.6411C59.4727 20.2982 59.5404 19.9586 59.6715 19.6417C59.803 19.3248 59.9954 19.0369 60.2383 18.7944C60.4811 18.5518 60.7691 18.3594 61.0861 18.2282C61.4036 18.0969 61.7432 18.0293 62.0865 18.0293H70.8114C71.3063 18.0262 71.792 18.1635 72.2119 18.4253C72.6318 18.6871 72.9686 19.0626 73.1836 19.5083C73.397 19.9551 73.7334 20.3319 74.1537 20.5947C74.5736 20.8574 75.0601 20.9952 75.5554 20.9919H89.0147C89.5104 20.9952 89.9969 20.8574 90.4168 20.5947C90.8371 20.3319 91.1735 19.9551 91.3869 19.5083C91.6015 19.0626 91.9387 18.6871 92.3586 18.4253C92.7785 18.1635 93.2642 18.0262 93.7591 18.0293H102.944C103.627 18.0442 104.278 18.326 104.756 18.8141C105.234 19.3024 105.501 19.9582 105.501 20.6411Z" fill="white"/>
<mask id="mask0_2040_57871" style="mask-type:luminance" maskUnits="userSpaceOnUse" x="61" y="27" width="7" height="7">
<path d="M67.9271 27.3398H61.3945V33.8725H67.9271V27.3398Z" fill="white"/>
</mask>
<g mask="url(#mask0_2040_57871)">
<path fill-rule="evenodd" clip-rule="evenodd" d="M61.6066 28.8806L61.3945 29.1232V32.9623C61.3945 33.4355 61.7845 33.8191 62.2655 33.8191H67.0561C67.5372 33.8191 67.9271 33.4355 67.9271 32.9623V29.6786C67.9271 29.2054 67.5372 28.8218 67.0561 28.8218H66.0305V28.7849L66.1394 28.7218C66.2059 28.6834 66.2467 28.6131 66.2467 28.5373V27.5959L66.0351 27.3936L61.6066 28.8806Z" fill="black"/>
<path d="M66.1761 32.3868C66.0357 32.9237 65.369 32.5803 65.0438 32.6465C64.7288 32.7114 64.3442 33.2347 63.9494 32.845C63.6066 32.5079 64.1556 31.4764 64.7705 31.3503C65.3854 31.2229 66.2989 31.9185 66.1761 32.3868Z" fill="white"/>
<path fill-rule="evenodd" clip-rule="evenodd" d="M65.7227 31.6841C65.4382 31.4716 65.0708 31.3386 64.7835 31.3981L64.7834 31.3981C64.4967 31.4569 64.2155 31.7315 64.0474 32.0415C63.964 32.1953 63.911 32.3534 63.8988 32.4912C63.8866 32.6297 63.916 32.7404 63.9873 32.8105L63.9873 32.8106C64.0786 32.9007 64.1654 32.9347 64.2479 32.9388C64.3321 32.9429 64.4181 32.916 64.5072 32.8725C64.5746 32.8396 64.6399 32.7993 64.7059 32.7586C64.7279 32.7451 64.75 32.7315 64.7722 32.7181C64.8585 32.6661 64.9483 32.6169 65.0364 32.5987L65.0365 32.5987C65.1272 32.5802 65.2378 32.5907 65.3475 32.6051C65.3749 32.6087 65.4023 32.6126 65.4297 32.6164C65.5156 32.6285 65.6013 32.6405 65.6843 32.6444C65.7937 32.6495 65.8899 32.6397 65.9657 32.6012C66.0388 32.5641 66.0987 32.4973 66.1308 32.3746L66.1308 32.3746C66.1569 32.2749 66.1292 32.1573 66.0548 32.0343C65.9809 31.9119 65.8638 31.7895 65.7227 31.6841ZM66.227 32.399C66.2622 32.2645 66.2218 32.1195 66.1402 31.9844C66.0582 31.8487 65.9314 31.7174 65.7827 31.6063C65.4874 31.3857 65.0907 31.2347 64.7631 31.3025C64.435 31.3698 64.1342 31.674 63.9598 31.9956C63.8719 32.1576 63.8135 32.3285 63.7999 32.4828C63.7864 32.6364 63.8169 32.7811 63.917 32.8795C64.0231 32.9843 64.1324 33.0309 64.2429 33.0363C64.3517 33.0416 64.4556 33.0067 64.5513 32.96C64.6235 32.9248 64.6949 32.8807 64.7619 32.8394C64.7831 32.8263 64.8039 32.8135 64.8241 32.8014C64.9108 32.7491 64.9873 32.7086 65.0567 32.6943C65.1286 32.6797 65.2232 32.6873 65.3343 32.7019C65.3596 32.7052 65.3857 32.7089 65.4123 32.7127C65.4991 32.7249 65.5914 32.7379 65.6796 32.742C65.7952 32.7473 65.9123 32.7382 66.0112 32.688C66.1128 32.6364 66.1888 32.5448 66.227 32.399Z" fill="white"/>
<path fill-rule="evenodd" clip-rule="evenodd" d="M64.8553 31.2678C65.0934 31.248 65.3295 31.3233 65.5325 31.4267L65.5326 31.4268C65.7452 31.5355 65.9477 31.6885 66.0935 31.8804L66.0936 31.8805C66.1993 32.0205 66.292 32.2055 66.2472 32.4004C66.2468 32.402 66.2465 32.4037 66.246 32.4053C66.2457 32.4063 66.2454 32.4074 66.2451 32.4085C66.2062 32.5449 66.1289 32.6386 66.0252 32.6952C65.9223 32.7513 65.7978 32.7685 65.6676 32.7614C65.6058 32.7581 65.5428 32.7491 65.4811 32.7396C65.4695 32.7378 65.458 32.736 65.4465 32.7342C65.3961 32.7264 65.3467 32.7186 65.2974 32.7132C65.1764 32.7 65.0647 32.702 64.9639 32.7481C64.8943 32.7802 64.8294 32.8208 64.7613 32.8633C64.7304 32.8826 64.6988 32.9024 64.6658 32.9219C64.5633 32.9827 64.4515 33.0383 64.3225 33.0533C64.1068 33.0783 63.8752 32.9435 63.8041 32.737M64.8553 31.2678C64.6221 31.2866 64.4196 31.4119 64.2619 31.5624C64.0897 31.7259 63.953 31.929 63.8633 32.1473L63.8632 32.1474C63.7926 32.3198 63.7361 32.5399 63.8041 32.737M66.1094 32.367C66.1303 32.2804 66.1117 32.1916 66.0698 32.1052C66.0278 32.0183 65.9637 31.9373 65.8997 31.8692C65.7331 31.6939 65.5196 31.5558 65.2903 31.4735C65.0995 31.4055 64.8935 31.3766 64.7088 31.44L64.7088 31.44C64.5176 31.5057 64.3552 31.6489 64.2266 31.8087C64.0995 31.9683 63.997 32.1509 63.946 32.3452L63.9459 32.3452C63.9258 32.4218 63.9121 32.5057 63.9169 32.5845C63.9217 32.6631 63.9445 32.7338 63.9944 32.7887C64.0776 32.8803 64.1708 32.9133 64.2674 32.9113C64.3665 32.9094 64.4725 32.8706 64.5764 32.8115C64.6126 32.7907 64.6488 32.7676 64.6867 32.7434L64.6922 32.7399C64.7317 32.7147 64.7728 32.6885 64.8152 32.6647C64.8997 32.6172 64.993 32.5767 65.0973 32.569C65.191 32.562 65.2975 32.575 65.4016 32.5891C65.4133 32.5907 65.4251 32.5923 65.4368 32.594C65.5309 32.6069 65.6234 32.6197 65.7105 32.6215C65.8084 32.6235 65.893 32.6114 65.9598 32.5746C66.0244 32.5389 66.0782 32.477 66.1094 32.367Z" fill="white"/>
<path d="M64.3151 31.0268C64.5089 30.9141 64.55 30.6281 64.4068 30.388C64.2635 30.1479 63.9902 30.0446 63.7964 30.1573C63.6025 30.27 63.5614 30.556 63.7047 30.7961C63.8479 31.0362 64.1212 31.1394 64.3151 31.0268Z" fill="white"/>
<path fill-rule="evenodd" clip-rule="evenodd" d="M63.8229 30.2001C63.6613 30.2941 63.6138 30.5456 63.7489 30.7719C63.8839 30.9982 64.1297 31.0793 64.2914 30.9853C64.4531 30.8914 64.5005 30.6398 64.3655 30.4135C64.2305 30.1872 63.9846 30.1061 63.8229 30.2001ZM63.6634 30.8216C63.5119 30.5677 63.5466 30.2473 63.7727 30.1159C63.9988 29.9845 64.2995 30.11 64.451 30.3638C64.6024 30.6177 64.5677 30.9382 64.3416 31.0695C64.1156 31.2009 63.8148 31.0754 63.6634 30.8216Z" fill="white"/>
<path fill-rule="evenodd" clip-rule="evenodd" d="M63.8483 30.0616C64.0737 29.9932 64.2929 30.124 64.4193 30.2802L64.4185 30.2807C64.4189 30.2813 64.4193 30.2818 64.4197 30.2823C64.4226 30.2863 64.4255 30.2902 64.4284 30.2943C64.4401 30.3182 64.4345 30.3426 64.4234 30.3602C64.4786 30.4506 64.5166 30.5604 64.5224 30.6692C64.5278 30.7725 64.504 30.8776 64.4354 30.9627C64.4354 30.9627 64.4354 30.9627 64.4354 30.9627C64.4168 30.9858 64.3949 31.0074 64.3693 31.0271L64.3692 31.0271C64.2591 31.1117 64.13 31.1172 64.0148 31.0809C63.9894 31.0728 63.9644 31.0628 63.9403 31.0509C63.9403 31.0509 63.9403 31.0509 63.9402 31.0509C63.8561 31.0097 63.7813 30.9475 63.7275 30.8785L63.7274 30.8784C63.6569 30.7876 63.6068 30.6679 63.5952 30.5472L63.5529 30.5508C63.5529 30.5508 63.5529 30.5508 63.5529 30.5507C63.5529 30.5507 63.5529 30.5507 63.5529 30.5507L63.5952 30.5472C63.5946 30.5412 63.5941 30.5352 63.5938 30.5292C63.5856 30.4018 63.6215 30.2706 63.7284 30.1758C63.7697 30.1386 63.8144 30.114 63.8603 30.0998L63.8483 30.0616C63.8483 30.0616 63.8483 30.0616 63.8483 30.0616ZM63.8603 30.0998L63.8484 30.0616C63.8484 30.0616 63.8484 30.0616 63.8483 30.0616M63.8603 30.0998C63.9359 30.0764 64.0151 30.081 64.0892 30.1032C64.1843 30.1318 64.273 30.1897 64.342 30.2577C64.3495 30.2549 64.358 30.2533 64.3671 30.2536C64.3886 30.2542 64.4065 30.2649 64.4183 30.2804L64.419 30.2798C64.4229 30.2846 64.426 30.2894 64.4284 30.2943C64.5639 30.4839 64.6342 30.7747 64.4678 30.9872L64.4678 30.9872C64.3335 31.1587 64.1021 31.1774 63.9208 31.0899L63.9207 31.0898C63.7146 30.9895 63.572 30.7743 63.5529 30.5507C63.5352 30.3517 63.6288 30.1281 63.8483 30.0616M64.3012 30.2957C64.1876 30.1803 64.0282 30.1092 63.8776 30.1549L63.8776 30.1549C63.8349 30.1679 63.7978 30.1893 63.7666 30.2172C63.7666 30.2172 63.7666 30.2172 63.7666 30.2172C63.6812 30.2935 63.6407 30.4174 63.6518 30.5423L63.6518 30.5425C63.6611 30.651 63.7048 30.7573 63.7726 30.8444L63.8062 30.819C63.8062 30.819 63.8062 30.8191 63.8062 30.8191C63.8063 30.8191 63.8063 30.8191 63.8063 30.8191L63.7726 30.8444C63.8242 30.9107 63.8897 30.9658 63.9646 31.0023C64.0896 31.0625 64.2324 31.0578 64.3335 30.9822L64.3081 30.9502C64.3081 30.9502 64.3081 30.9502 64.3081 30.9502C64.3081 30.9502 64.3081 30.9502 64.3081 30.9502L64.3335 30.9822C64.3539 30.9669 64.3726 30.9487 64.3892 30.9276M64.3095 30.3679C64.2469 30.292 64.1553 30.2252 64.0602 30.1966C63.9666 30.1685 63.8731 30.1779 63.7953 30.2479L63.795 30.2482L63.795 30.2482C63.716 30.3182 63.6861 30.4173 63.6929 30.5231C63.6996 30.6295 63.7436 30.7383 63.8062 30.8191C63.8647 30.8939 63.9524 30.9586 64.0451 30.9879C64.1368 31.0168 64.2297 31.0104 64.3081 30.9502C64.3959 30.8825 64.4289 30.7828 64.4232 30.6743C64.4175 30.5653 64.3723 30.452 64.3095 30.3679ZM64.3012 30.2957C64.2917 30.3163 64.2904 30.3429 64.309 30.3672ZM64.309 30.3672C64.3092 30.3675 64.3093 30.3677 64.3095 30.3679C64.3096 30.368 64.3097 30.3682 64.3099 30.3683C64.3228 30.3846 64.3419 30.3944 64.3632 30.3943C64.3674 30.3943 64.3715 30.3939 64.3754 30.3932" fill="white"/>
<path d="M65.5635 30.3782C65.5723 30.0984 65.3983 29.866 65.1748 29.8592C64.9513 29.8524 64.763 30.0737 64.7542 30.3536C64.7454 30.6335 64.9195 30.8659 65.1429 30.8727C65.3664 30.8795 65.5547 30.6581 65.5635 30.3782Z" fill="white"/>
<path fill-rule="evenodd" clip-rule="evenodd" d="M64.8042 30.3547C64.7959 30.6192 64.9593 30.8178 65.1448 30.8234C65.3304 30.8291 65.506 30.6409 65.5143 30.3763C65.5226 30.1118 65.3592 29.9132 65.1737 29.9076C64.9881 29.9019 64.8125 30.0901 64.8042 30.3547ZM65.1418 30.9211C64.8804 30.9131 64.6957 30.6469 64.705 30.3517C64.7143 30.0565 64.9153 29.802 65.1767 29.81C65.4381 29.8179 65.6228 30.0841 65.6135 30.3793C65.6042 30.6745 65.4032 30.929 65.1418 30.9211Z" fill="white"/>
<path fill-rule="evenodd" clip-rule="evenodd" d="M64.8323 29.9513C64.9652 29.7966 65.1862 29.7354 65.3753 29.8474L65.3754 29.8474C65.5855 29.9721 65.6532 30.23 65.6306 30.4425L65.6296 30.4424C65.6294 30.4437 65.6292 30.445 65.629 30.4463C65.6284 30.4506 65.6277 30.4548 65.627 30.4591C65.6184 30.4839 65.5973 30.4978 65.5765 30.5027C65.552 30.6004 65.5028 30.7003 65.4317 30.7758C65.3666 30.8448 65.2815 30.8946 65.1808 30.9007L65.1841 30.9419C65.184 30.9419 65.184 30.9419 65.1839 30.9419L65.1807 30.9007C65.1463 30.9028 65.1101 30.8998 65.0723 30.8907C64.9362 30.8582 64.8434 30.7614 64.7892 30.6485C64.7808 30.6308 64.7732 30.6127 64.7664 30.5941C64.7664 30.5941 64.7664 30.5941 64.7664 30.5941C64.7305 30.4948 64.7197 30.3856 64.7324 30.2888L64.7816 30.2951L64.7324 30.2889C64.7462 30.1825 64.792 30.0675 64.8656 29.9791C64.8656 29.9791 64.8656 29.9791 64.8656 29.9791C64.8687 29.9754 64.8718 29.9718 64.8749 29.9682C64.9547 29.8776 65.0684 29.8152 65.2077 29.832C65.2633 29.8386 65.3122 29.8558 65.3549 29.8807C65.3549 29.8807 65.3549 29.8807 65.3549 29.8807C65.4288 29.9238 65.4838 29.9899 65.5217 30.0641C65.5705 30.1598 65.5927 30.2717 65.5923 30.3747C65.6 30.3783 65.6074 30.3836 65.6138 30.3908C65.6268 30.4055 65.6315 30.424 65.6296 30.4419L65.6307 30.442C65.6301 30.4482 65.6288 30.4539 65.627 30.4591C65.6093 30.5656 65.5658 30.6774 65.4958 30.7669C65.4224 30.8607 65.3181 30.9319 65.1839 30.9419C64.9596 30.9592 64.7924 30.7889 64.7249 30.6092L64.7248 30.6089L64.7248 30.6089C64.6462 30.3947 64.679 30.1299 64.8323 29.9514L64.8323 29.9513ZM65.5355 30.3725C65.5381 30.1979 65.4715 30.0185 65.3241 29.931C65.2845 29.9076 65.2427 29.8941 65.2005 29.8896C65.2005 29.8896 65.2005 29.8896 65.2005 29.8896C65.0937 29.8782 64.9852 29.9247 64.9081 30.0144M65.5355 30.3725C65.514 30.3804 65.4947 30.3984 65.4903 30.4279C65.4903 30.4283 65.4902 30.4286 65.4902 30.429C65.5005 30.3261 65.4826 30.2052 65.433 30.1079C65.3836 30.0113 65.3057 29.9421 65.1957 29.9289L65.1956 29.9289C65.0971 29.917 65.014 29.9595 64.9499 30.0322C64.8851 30.1057 64.8431 30.2072 64.8309 30.3012L64.8309 30.3013C64.8181 30.3987 64.8337 30.5123 64.879 30.6069C64.9242 30.701 64.9965 30.7721 65.0957 30.7958L65.0958 30.7958C65.2014 30.8212 65.2899 30.7826 65.3588 30.7094C65.4288 30.6351 65.4754 30.5279 65.4902 30.429M65.5305 30.4341L65.4901 30.4303C65.4881 30.4508 65.495 30.4705 65.5096 30.4847C65.5125 30.4876 65.5156 30.4901 65.5189 30.4923C65.4996 30.5694 65.4653 30.6457 65.4171 30.7073C65.3567 30.7846 65.2762 30.8371 65.1764 30.8445L65.1763 30.8445C65.1449 30.847 65.1145 30.8443 65.0855 30.8373C65.0855 30.8373 65.0855 30.8373 65.0855 30.8373C64.9639 30.808 64.8658 30.7025 64.8181 30.5755C64.7858 30.4874 64.7757 30.3899 64.7877 30.2958C64.7877 30.2958 64.7877 30.2958 64.7877 30.2958M65.5886 30.4419C65.5886 30.4419 65.5886 30.4418 65.5886 30.4418L65.5395 30.4349L65.5886 30.4419ZM65.5308 30.4341C65.5308 30.4341 65.5308 30.4341 65.5308 30.4341L65.5395 30.4349L65.5308 30.4341ZM65.5305 30.434C65.5305 30.434 65.5305 30.4341 65.5305 30.4341Z" fill="white"/>
<path d="M66.5261 31.1083C66.5659 30.9059 66.4641 30.7162 66.2988 30.6845C66.1335 30.6529 65.9672 30.7914 65.9275 30.9938C65.8877 31.1962 65.9895 31.386 66.1548 31.4176C66.3201 31.4493 66.4864 31.3108 66.5261 31.1083Z" fill="white"/>
<path fill-rule="evenodd" clip-rule="evenodd" d="M65.9757 31.0036C65.9392 31.1899 66.0348 31.3454 66.1638 31.3701C66.2928 31.3948 66.4403 31.2858 66.4769 31.0995C66.5135 30.9132 66.4179 30.7576 66.2889 30.7329C66.1599 30.7082 66.0123 30.8173 65.9757 31.0036ZM66.1449 31.466C65.9433 31.4274 65.8353 31.2035 65.8783 30.9849C65.9212 30.7663 66.1061 30.5984 66.3077 30.637C66.5094 30.6756 66.6173 30.8995 66.5744 31.1181C66.5315 31.3367 66.3466 31.5046 66.1449 31.466Z" fill="white"/>
<path fill-rule="evenodd" clip-rule="evenodd" d="M66.0668 30.6655C66.1553 30.6096 66.2661 30.5877 66.3784 30.6361C66.4914 30.6845 66.5566 30.7797 66.5851 30.8833C66.6134 30.9856 66.6071 31.0992 66.5758 31.1951C66.5755 31.196 66.5752 31.1968 66.5749 31.1976C66.5745 31.1989 66.574 31.2001 66.5735 31.2013C66.5373 31.2928 66.4713 31.3812 66.3857 31.4364C66.298 31.493 66.1883 31.515 66.0743 31.4661C65.9626 31.4183 65.8962 31.323 65.8666 31.2193C65.8372 31.1161 65.8428 31.0009 65.8778 30.9043C65.9115 30.81 65.9794 30.7207 66.0668 30.6655ZM66.4407 31.1516C66.4632 31.0813 66.4687 30.9979 66.4502 30.9253C66.4317 30.853 66.3908 30.7949 66.3222 30.7655L66.3219 30.7654C66.2577 30.7373 66.1947 30.749 66.1389 30.7857C66.0819 30.8233 66.0352 30.8858 66.0118 30.9506L66.0118 30.9508L66.0118 30.9508C65.9877 31.0165 65.9818 31.0968 65.999 31.1688C66.0161 31.2405 66.0548 31.2997 66.1162 31.332C66.1835 31.3672 66.248 31.3572 66.3055 31.3208C66.3646 31.2834 66.414 31.2187 66.4407 31.1516Z" fill="white"/>
<path d="M63.5042 31.9632C63.643 31.8689 63.6594 31.6549 63.541 31.485C63.4226 31.3151 63.2141 31.2538 63.0754 31.348C62.9367 31.4422 62.9202 31.6563 63.0386 31.8261C63.157 31.996 63.3655 32.0574 63.5042 31.9632Z" fill="white"/>
<path fill-rule="evenodd" clip-rule="evenodd" d="M63.1021 31.3881C62.9938 31.4617 62.9692 31.642 63.0781 31.7982C63.187 31.9545 63.3664 31.9963 63.4748 31.9227C63.5831 31.8491 63.6077 31.6688 63.4988 31.5126C63.3899 31.3563 63.2104 31.3145 63.1021 31.3881ZM62.9964 31.8537C62.8685 31.6702 62.8768 31.4224 63.0459 31.3075C63.2151 31.1927 63.4525 31.2736 63.5805 31.4571C63.7084 31.6406 63.7 31.8884 63.5309 32.0033C63.3618 32.1181 63.1243 32.0372 62.9964 31.8537Z" fill="white"/>
<path fill-rule="evenodd" clip-rule="evenodd" d="M63.2771 31.2382C63.3795 31.2542 63.4782 31.3093 63.5477 31.3828C63.5477 31.3828 63.5477 31.3828 63.5477 31.3828L63.5169 31.4111C63.517 31.4112 63.5172 31.4113 63.5173 31.4115L63.481 31.4448L63.5172 31.4113C63.5778 31.4747 63.6238 31.5602 63.6411 31.6497C63.6585 31.7396 63.6475 31.8369 63.5886 31.9188L63.5886 31.9189C63.5812 31.9291 63.5735 31.9385 63.5654 31.9472L63.596 31.9749C63.5959 31.975 63.5959 31.975 63.5959 31.975C63.5959 31.975 63.5959 31.975 63.5958 31.9751L63.5654 31.9473C63.4962 32.0223 63.404 32.0433 63.3157 32.0309C63.2415 32.0205 63.1689 31.9868 63.1097 31.9421C63.101 31.9461 63.0912 31.9487 63.0805 31.9489C63.0628 31.9492 63.0459 31.9427 63.0328 31.9307C63.0317 31.9296 63.0305 31.9285 63.0295 31.9274L63.0648 31.8931L63.0296 31.9276C63.0296 31.9275 63.0295 31.9275 63.0295 31.9274C63.0291 31.9271 63.0288 31.9268 63.0285 31.9264C63.0282 31.9261 63.0279 31.9258 63.0276 31.9254M63.0249 31.9224C62.9578 31.847 62.9069 31.7467 62.8915 31.6429C62.8758 31.5369 62.897 31.4244 62.9799 31.3346L62.9802 31.3343L62.9802 31.3343C63.0631 31.2458 63.1733 31.2219 63.2771 31.2382M63.0964 31.8656L63.0983 31.8638L63.0981 31.864L63.0964 31.8656ZM63.1019 31.8609L63.0964 31.8656L63.102 31.8609C63.102 31.8609 63.1019 31.8609 63.1019 31.8609ZM63.1327 31.8323C63.1852 31.8842 63.2589 31.9243 63.3297 31.9342C63.3985 31.9438 63.462 31.9254 63.5076 31.8624C63.5474 31.807 63.5572 31.7382 63.5436 31.668C63.5299 31.5973 63.493 31.5286 63.4449 31.4783L63.4447 31.4781L63.4447 31.4781C63.3953 31.426 63.3235 31.3864 63.2534 31.376C63.1851 31.3659 63.1211 31.3833 63.0748 31.4412C63.0306 31.4969 63.02 31.5655 63.0337 31.6368C63.0474 31.7082 63.0852 31.7789 63.1327 31.8323ZM63.0328 31.9307C63.1031 31.9996 63.199 32.0538 63.2991 32.0705C63.4024 32.0877 63.5117 32.0647 63.5959 31.975C63.6786 31.8875 63.7006 31.7742 63.6857 31.6676C63.6708 31.5615 63.619 31.458 63.5477 31.3828C63.5477 31.3828 63.5477 31.3828 63.5477 31.3828" fill="white"/>
<path d="M66.0305 28.7851L61.7949 29.0941C61.5787 29.1099 61.4107 28.8877 61.6168 28.8206V28.8206L65.9605 27.4065C66.1015 27.3606 66.2467 27.4639 66.2467 27.6099V28.5374C66.2467 28.6133 66.2059 28.6835 66.1394 28.722L66.0305 28.7851Z" fill="#606060"/>
</g>
<path d="M69.0273 33.2302V29.3949H70.8137C71.0941 29.3949 71.3285 29.4333 71.5167 29.51C71.7088 29.583 71.8548 29.6908 71.9547 29.8333C72.0545 29.9721 72.1045 30.1419 72.1045 30.3428C72.1045 30.5583 72.0469 30.7391 71.9316 30.8852C71.8202 31.0313 71.6588 31.1336 71.4476 31.192L71.4418 31.077C71.6147 31.1171 71.7664 31.1847 71.897 31.2797C72.0315 31.371 72.1352 31.4842 72.2082 31.6194C72.2812 31.7509 72.3177 31.9006 72.3177 32.0687C72.3177 32.2622 72.2812 32.4321 72.2082 32.5782C72.139 32.7243 72.0392 32.8467 71.9086 32.9453C71.7818 33.0403 71.63 33.1115 71.4533 33.159C71.2804 33.2064 71.0884 33.2302 70.8771 33.2302H69.0273ZM69.9609 32.4467H70.8367C70.9981 32.4467 71.1229 32.4102 71.2113 32.3371C71.3035 32.2641 71.3496 32.16 71.3496 32.0248C71.3496 31.9408 71.3265 31.8696 71.2804 31.8111C71.2382 31.7527 71.1767 31.7089 71.0961 31.6797C71.0154 31.6504 70.9193 31.6358 70.8079 31.6358H69.9609V32.4467ZM69.9609 30.929H70.6812C70.781 30.929 70.8656 30.9144 70.9347 30.8852C71.0039 30.8523 71.0557 30.8085 71.0903 30.7537C71.1287 30.6953 71.1479 30.6277 71.1479 30.551C71.1479 30.4341 71.1057 30.3428 71.0211 30.277C70.9366 30.2113 70.8099 30.1784 70.6408 30.1784H69.9609V30.929Z" fill="black"/>
<path d="M73.961 33.285C73.7381 33.285 73.5461 33.2393 73.3847 33.148C73.2234 33.053 73.0985 32.9197 73.0102 32.748C72.9256 32.5727 72.8834 32.3627 72.8834 32.118V30.3209H73.8111V31.9865C73.8111 32.1654 73.8553 32.3061 73.9437 32.4083C74.0359 32.507 74.1626 32.5563 74.324 32.5563C74.4047 32.5563 74.4777 32.5453 74.543 32.5234C74.6083 32.4978 74.664 32.4631 74.7101 32.4193C74.76 32.3718 74.7984 32.317 74.8253 32.2549C74.8522 32.1928 74.8657 32.1253 74.8657 32.0522V30.3209H75.7934V33.2302H74.9233L74.8887 32.633L75.0558 32.5672C75.0136 32.7024 74.9367 32.8247 74.8253 32.9343C74.7178 33.0439 74.5891 33.1297 74.4392 33.1918C74.2894 33.2539 74.13 33.285 73.961 33.285Z" fill="black"/>
<path d="M77.3424 33.2302L76.1266 29.3949H77.1292L77.74 31.4112C77.7746 31.5281 77.8034 31.6486 77.8265 31.7728C77.8495 31.8933 77.8687 32.0066 77.8841 32.1125C77.8995 32.2148 77.9091 32.2951 77.9129 32.3536L77.7804 32.359C77.8073 32.2202 77.8284 32.0979 77.8438 31.9919C77.8591 31.886 77.8783 31.7874 77.9014 31.6961C77.9244 31.6011 77.9532 31.5062 77.9878 31.4112L78.5929 29.8935H79.3823L79.9758 31.4112C80.0219 31.5317 80.0584 31.6468 80.0853 31.7564C80.1161 31.8623 80.1391 31.9627 80.1545 32.0577C80.1737 32.149 80.1891 32.2403 80.2006 32.3316L80.0796 32.3536C80.0873 32.2842 80.093 32.2221 80.0969 32.1673C80.1045 32.1125 80.1103 32.0595 80.1141 32.0084C80.118 31.9536 80.1237 31.8988 80.1314 31.844C80.1391 31.7856 80.1506 31.7217 80.166 31.6523C80.1814 31.5792 80.2025 31.497 80.2294 31.4057L80.8287 29.3949H81.8141L80.5982 33.2302H79.8491L78.8867 31.0277L78.9962 31.0386L78.1146 33.2302H77.3424Z" fill="black"/>
<path d="M83.6849 33.2302V31.4441C83.6849 31.2943 83.6407 31.1847 83.5523 31.1153C83.4678 31.0423 83.3487 31.0057 83.1951 31.0057C83.0452 31.0057 82.9108 31.0331 82.7917 31.0879C82.6764 31.1391 82.565 31.2249 82.4575 31.3454L81.9043 30.8359C82.0887 30.6569 82.3 30.5163 82.5381 30.414C82.7763 30.3117 83.0356 30.2606 83.3161 30.2606C83.5735 30.2606 83.7963 30.2971 83.9845 30.3702C84.1727 30.4432 84.3187 30.5546 84.4224 30.7044C84.5262 30.8542 84.578 31.0441 84.578 31.2742V33.2302H83.6849ZM82.8896 33.285C82.6976 33.285 82.5228 33.2485 82.3653 33.1754C82.2116 33.1023 82.0887 33.0019 81.9965 32.8741C81.9081 32.7426 81.8639 32.5892 81.8639 32.4138C81.8639 32.2641 81.8927 32.1326 81.9504 32.0193C82.008 31.9061 82.0925 31.813 82.2039 31.7399C82.3192 31.6632 82.4613 31.6066 82.6303 31.5701C82.8032 31.5299 83.003 31.5098 83.2296 31.5098H84.1574L84.1055 32.0632H83.2527C83.172 32.0632 83.1009 32.0705 83.0395 32.0851C82.978 32.096 82.9261 32.1161 82.8839 32.1454C82.8416 32.1709 82.809 32.202 82.7859 32.2385C82.7667 32.275 82.7571 32.3189 82.7571 32.37C82.7571 32.4248 82.7725 32.4723 82.8032 32.5124C82.8339 32.5526 82.8743 32.5837 82.9242 32.6056C82.978 32.6275 83.0395 32.6385 83.1086 32.6385C83.2085 32.6385 83.3026 32.6239 83.391 32.5946C83.4832 32.5618 83.5638 32.5161 83.633 32.4577C83.706 32.3992 83.7636 32.3316 83.8059 32.2549L83.9672 32.6494C83.8865 32.7736 83.7886 32.8832 83.6733 32.9782C83.5619 33.0731 83.439 33.148 83.3045 33.2028C83.1739 33.2576 83.0356 33.285 82.8896 33.285Z" fill="black"/>
<path d="M85.2603 33.2302V29.1758H86.1881V33.2302H85.2603Z" fill="black"/>
<path d="M86.9528 33.2302V29.1758H87.8806V33.2302H86.9528Z" fill="black"/>
<path d="M90.0469 33.285C89.7089 33.285 89.4131 33.2211 89.1595 33.0932C88.9098 32.9654 88.7158 32.79 88.5775 32.5672C88.4431 32.3408 88.3758 32.0833 88.3758 31.7947C88.3758 31.5682 88.4142 31.3619 88.4911 31.1756C88.5679 30.9857 88.6755 30.8231 88.8138 30.688C88.9559 30.5528 89.1211 30.4487 89.3093 30.3757C89.5014 30.299 89.7108 30.2606 89.9374 30.2606C90.1526 30.2606 90.3485 30.2971 90.5252 30.3702C90.7019 30.4432 90.8556 30.5455 90.9862 30.677C91.1168 30.8085 91.2167 30.9637 91.2858 31.1427C91.355 31.3217 91.3877 31.5171 91.3838 31.729L91.378 31.97H88.9463L88.808 31.4715H90.6232L90.5252 31.5701V31.4605C90.5175 31.3692 90.4868 31.2906 90.433 31.2249C90.3831 31.1555 90.3158 31.1007 90.2313 31.0605C90.1507 31.0204 90.0585 31.0003 89.9547 31.0003C89.8011 31.0003 89.6705 31.0295 89.5629 31.0879C89.4592 31.1427 89.3804 31.2231 89.3266 31.329C89.2728 31.4349 89.246 31.5664 89.246 31.7235C89.246 31.8805 89.2805 32.0193 89.3497 32.1399C89.4227 32.2604 89.5264 32.3536 89.6608 32.4193C89.7991 32.4851 89.9624 32.5179 90.1507 32.5179C90.2774 32.5179 90.3927 32.4997 90.4964 32.4631C90.6001 32.4266 90.7115 32.3645 90.8306 32.2769L91.2628 32.8576C91.1437 32.9526 91.0169 33.0329 90.8825 33.0987C90.748 33.1608 90.6097 33.2064 90.4676 33.2357C90.3293 33.2685 90.1891 33.285 90.0469 33.285Z" fill="black"/>
<path d="M92.167 33.2302V29.5867H93.0947V33.2302H92.167ZM91.6253 31.0934V30.3209H93.6825V31.0934H91.6253Z" fill="black"/>
<path opacity="0.3" d="M105.55 58.8271L105.185 58.4717L101.863 63.4534L101.892 76.8585L103.225 76.9202L104.425 72.7345C104.839 72.2275 105.215 71.6902 105.55 71.1276V58.8271Z" fill="black" fill-opacity="0.7"/>
<path d="M105.495 20.6411V24.9072H59.4766V20.6411C59.4766 20.2982 59.5443 19.9586 59.6758 19.6417C59.8069 19.3248 59.9997 19.0369 60.2422 18.7944C60.485 18.5518 60.7734 18.3594 61.0904 18.2282C61.4075 18.0969 61.7475 18.0293 62.0908 18.0293H70.806C71.301 18.0262 71.7866 18.1635 72.2065 18.4253C72.6264 18.6871 72.9633 19.0626 73.1778 19.5083C73.3928 19.9539 73.7297 20.3294 74.1496 20.5912C74.5695 20.853 75.0551 20.9903 75.5501 20.9872H89.0093C89.5043 20.9903 89.9903 20.853 90.4102 20.5912C90.8301 20.3294 91.167 19.9539 91.3815 19.5083C91.5961 19.0626 91.9334 18.6871 92.3533 18.4253C92.7732 18.1635 93.2588 18.0262 93.7538 18.0293H102.939C103.622 18.0442 104.272 18.326 104.75 18.8141C105.228 19.3024 105.496 19.9582 105.495 20.6411Z" fill="black"/>
<path d="M105.501 20.6411V90.8367C105.501 91.5295 105.226 92.1937 104.735 92.6837C104.245 93.1734 103.58 93.4487 102.887 93.4487H62.0865C61.7432 93.4487 61.4036 93.381 61.0861 93.2496C60.7691 93.1186 60.4811 92.9259 60.2383 92.6837C59.9954 92.4411 59.803 92.153 59.6715 91.8362C59.5404 91.5194 59.4727 91.1797 59.4727 90.8367V20.6411C59.4727 20.2982 59.5404 19.9586 59.6715 19.6417C59.803 19.3248 59.9954 19.0369 60.2383 18.7944C60.4811 18.5518 60.7691 18.3594 61.0861 18.2282C61.4036 18.0969 61.7432 18.0293 62.0865 18.0293H70.8114C71.3063 18.0262 71.792 18.1635 72.2119 18.4253C72.6318 18.6871 72.9686 19.0626 73.1836 19.5083C73.397 19.9551 73.7334 20.3319 74.1537 20.5947C74.5736 20.8574 75.0601 20.9952 75.5554 20.9919H89.0147C89.5104 20.9952 89.9969 20.8574 90.4168 20.5947C90.8371 20.3319 91.1735 19.9551 91.3869 19.5083C91.6015 19.0626 91.9387 18.6871 92.3586 18.4253C92.7785 18.1635 93.2642 18.0262 93.7591 18.0293H102.944C103.627 18.0442 104.278 18.326 104.756 18.8141C105.234 19.3024 105.501 19.9582 105.501 20.6411Z" stroke="black" stroke-linecap="round" stroke-linejoin="round"/>
<path d="M61.5586 68.2694V36.165H103.227V84.5469" fill="white"/>
<path d="M61.5586 68.2694V36.165H103.227V84.5469" stroke="black" stroke-miterlimit="10"/>
<path d="M85.8382 55.2099C83.9739 60.3814 82.318 64.0739 83.466 67.1787C84.614 70.2831 84.9702 71.9613 83.0864 73.8906C81.2031 75.8198 83.0864 79.0097 83.0864 79.0097C83.0864 79.0097 79.4146 79.0383 78.8785 75.6255C78.3424 72.2124 77.455 68.3495 74.7084 67.5958C71.9615 66.8422 65.5281 66.785 62.4399 67.5958C62.4399 67.5958 61.5525 65.6521 63.7823 63.6189C65.2054 62.3058 65.0489 58.4046 65.0207 55.1958C64.9921 51.9866 66.6192 42.3976 74.3289 44.5352C82.0381 46.6732 85.8382 55.2099 85.8382 55.2099Z" fill="black"/>
<path d="M61.5586 68.2685C61.5586 68.2685 63.404 65.6662 72.3895 67.1784C81.375 68.6905 85.9294 70.6197 86.4655 71.2879C87.0016 71.9561 92.2063 77.6633 92.2063 77.6633C92.2063 77.6633 91.7839 83.048 90.5266 84.5601H61.5586V68.2685Z" fill="#AAE738" stroke="black" stroke-linecap="round" stroke-linejoin="round"/>
<path d="M85.2344 78.4229C85.2344 78.4229 87.6066 82.3619 87.6683 84.5471" stroke="black" stroke-linecap="round" stroke-linejoin="round"/>
<path d="M69.9256 59.125C69.9256 59.125 71.126 66.368 68.6211 66.709C68.6211 66.709 70.0962 70.6102 76.2117 69.7808C76.2117 69.7808 75.1396 65.4153 77.9482 63.993C80.7565 62.5712 69.9256 59.125 69.9256 59.125Z" fill="white" stroke="black" stroke-linecap="round" stroke-linejoin="round"/>
<path d="M70.1592 61.2349C66.1836 55.8454 70.0499 46.8775 74.2772 45.5455C82.1526 43.0661 84.4962 48.6407 84.6197 51.6363C84.7241 54.1769 82.9021 57.2201 83.0163 58.7463C83.3006 62.5762 79.2682 66.392 77.0524 66.3637C75.6721 66.3637 74.3293 65.596 72.9203 64.3825" fill="white"/>
<path d="M70.1592 61.2349C66.1836 55.8454 70.0499 46.8775 74.2772 45.5455C82.1526 43.0661 84.4962 48.6407 84.6197 51.6363C84.7241 54.1769 82.9021 57.2201 83.0163 58.7463C83.3006 62.5762 79.2682 66.392 77.0524 66.3637C75.6721 66.3637 74.3293 65.596 72.9203 64.3825" stroke="black" stroke-linecap="round" stroke-linejoin="round"/>
<path d="M73.1797 54.0579C73.4935 53.5489 73.9441 53.1378 74.4797 52.871C75.0158 52.6046 75.6156 52.4938 76.2114 52.5506" stroke="black" stroke-linecap="round" stroke-linejoin="round"/>
<path d="M81.1875 53.3049C81.1875 53.3049 82.9615 53.1106 83.4694 54.7646" stroke="black" stroke-linecap="round" stroke-linejoin="round"/>
<path d="M76.2225 55.7127C76.1608 56.1866 75.8954 56.5659 75.6296 56.528C75.3637 56.4901 75.1931 56.054 75.2548 55.5797C75.3165 55.1057 75.582 54.7313 75.8526 54.7648C76.1229 54.7978 76.2842 55.229 76.2225 55.7127Z" fill="black"/>
<path d="M81.856 56.3053C81.7894 56.7793 81.5236 57.1537 81.2582 57.1206C80.9924 57.0876 80.8262 56.6467 80.8879 56.1727C80.9496 55.6988 81.2154 55.3195 81.4812 55.3526C81.7467 55.3856 81.9177 55.8173 81.856 56.3053Z" fill="black"/>
<path d="M78.8711 57.4238C79.032 57.8869 79.3196 58.296 79.7016 58.6039C80.2329 58.9263 78.8711 60.0781 78.8711 60.0781" stroke="black" stroke-linecap="round" stroke-linejoin="round"/>
<path d="M79.3492 61.4807C79.3492 61.4807 77.048 61.2393 75.7148 60.0068" stroke="black" stroke-linecap="round" stroke-linejoin="round"/>
<path d="M75.9297 60.1729C75.9297 60.1729 76.2237 61.9268 77.4335 62.358C78.6432 62.7896 79.0179 61.4101 79.0179 61.4101" stroke="black" stroke-linecap="round" stroke-linejoin="round"/>
<path d="M69.8588 54.7652C70.2053 54.8837 70.5207 55.078 70.7825 55.3339C71.0443 55.5894 71.246 55.9005 71.3722 56.2439C71.3722 56.2439 79.8265 55.2674 82.3217 49.8972C82.3217 49.8972 84.0772 51.0724 83.9299 56.6373C83.9299 56.6373 86.6769 56.3007 86.4397 51.9304C86.2025 47.5601 79.9402 41.0284 74.3229 44.5504C74.3229 44.5504 70.6369 43.0193 67.7237 48.271C64.811 53.5232 66.3672 59.8417 69.9015 60.7613C69.9108 60.7613 68.7059 57.4244 69.8588 54.7652Z" fill="black"/>
<path d="M70.731 55.6654C70.731 55.6654 69.1942 53.7031 68.4253 54.3524C67.6569 55.0021 67.3629 57.8034 68.4253 58.7513C69.4882 59.6992 70.2566 60.5524 70.4325 59.6662" fill="white"/>
<path d="M70.731 55.6654C70.731 55.6654 69.1942 53.7031 68.4253 54.3524C67.6569 55.0021 67.3629 57.8034 68.4253 58.7513C69.4882 59.6992 70.2566 60.5524 70.4325 59.6662" stroke="black" stroke-linecap="round" stroke-linejoin="round"/>
<path d="M75.1592 52.9161C75.1592 52.9161 68.7973 57.9599 68.1712 59.7372C66.5106 64.4251 67.7348 65.9799 67.7348 65.9799C67.7348 65.9799 64.1004 65.8284 65.2533 58.9171C65.5756 56.9124 66.3383 55.0038 67.4867 53.3284C68.6351 51.6535 70.1409 50.253 71.8952 49.2285L75.1592 52.9161Z" fill="black"/>
<path d="M90.7805 76.0952L93.7977 79.0102C93.7977 79.0102 94.2721 77.1144 95.2208 77.2232C95.2583 76.5506 95.2583 75.8768 95.2208 75.2041C95.2208 75.2041 96.4402 74.4219 99.2109 75.2041C100.131 75.4778 100.973 75.967 101.667 76.6304C102.361 77.2938 102.887 78.1131 103.201 79.0199C103.433 79.6788 102.427 80.6884 102.427 80.6884C102.427 80.6884 103.448 83.1294 103.125 84.5469H88.418" fill="#AAE738"/>
<path d="M90.7805 76.0952L93.7977 79.0102C93.7977 79.0102 94.2721 77.1144 95.2208 77.2232C95.2583 76.5506 95.2583 75.8768 95.2208 75.2041C95.2208 75.2041 96.4402 74.4219 99.2109 75.2041C100.131 75.4778 100.973 75.967 101.667 76.6304C102.361 77.2938 102.887 78.1131 103.201 79.0199C103.433 79.6788 102.427 80.6884 102.427 80.6884C102.427 80.6884 103.448 83.1294 103.125 84.5469H88.418" stroke="black" stroke-linecap="round" stroke-linejoin="round"/>
<path d="M97.3281 76.6822C97.7694 74.649 98.6568 71.8427 98.0873 69.7285L103.192 69.4678C101.451 73.7103 101.176 79.0241 101.176 79.0241C101.176 79.0241 99.1074 78.6731 98.1441 77.5781" fill="white"/>
<path d="M97.3281 76.6822C97.7694 74.649 98.6568 71.8427 98.0873 69.7285L103.192 69.4678C101.451 73.7103 101.176 79.0241 101.176 79.0241C101.176 79.0241 99.1074 78.6731 98.1441 77.5781" stroke="black" stroke-linecap="round" stroke-linejoin="round"/>
<path d="M98.3941 70.4686C97.6495 70.1321 97.3219 69.0468 97.1796 68.4922C97.0464 67.9763 96.9779 67.446 96.9759 66.9136C96.971 66.4372 96.9299 65.9617 96.8524 65.4917C96.8048 65.1742 96.7431 64.861 96.6814 64.5721C96.5547 63.9732 96.3962 63.3815 96.207 62.7992C96.207 62.7992 96.7717 61.9601 97.2889 62.6714C97.4288 62.875 97.5377 63.0986 97.6116 63.3348C97.7536 63.7471 97.8532 64.2069 97.9528 64.5624C97.9851 64.7699 98.0758 64.9638 98.2138 65.1218C98.2759 65.1681 98.3449 65.2048 98.4179 65.231L98.4937 65.2592C98.649 65.3023 98.8132 65.3023 98.9681 65.2592C99.0399 65.2378 99.1073 65.204 99.1674 65.1597C99.1879 65.154 99.2057 65.1423 99.2198 65.1266C99.2642 65.0875 99.3057 65.0448 99.3432 64.9985C99.555 64.7486 99.7321 64.4713 99.8696 64.1739C100.083 63.7281 100.267 63.2687 100.42 62.7992C100.477 62.6239 100.538 62.4437 100.586 62.2732C100.738 61.7659 100.856 61.2967 100.928 60.9554C100.999 60.614 101.065 60.2965 101.151 59.9599C101.236 59.6234 101.321 59.3151 101.416 59.012C101.701 58.1588 102.047 57.5616 102.455 57.8743C102.863 58.1871 102.735 58.4809 102.55 59.2442C102.488 59.5098 102.412 59.8318 102.337 60.2207C102.21 60.9006 102.126 61.5873 102.085 62.2777V62.5481L102.36 62.6618C102.36 62.7283 102.436 62.619 102.56 62.3869C102.874 61.7699 103.156 61.1371 103.404 60.4907C103.518 60.1969 103.637 59.8842 103.741 59.5428C103.845 59.2015 103.936 58.9645 104.021 58.6755C104.448 57.2533 105.122 57.9598 105.188 58.4575C105.156 58.9834 105.033 59.5001 104.823 59.9837C104.714 60.3013 104.6 60.6281 104.5 60.9316C104.449 61.0896 104.402 61.2476 104.358 61.4056C104.182 62.0077 103.992 62.6331 103.883 63.0692C103.883 63.1264 103.845 63.1833 103.831 63.2353L104.116 63.5339L104.249 63.3678C104.633 62.8705 104.979 62.3446 105.283 61.7945C105.491 61.4152 105.639 61.1021 105.757 60.8462C105.985 60.3722 106.127 60.1828 106.455 60.2348C106.782 60.2868 106.801 60.8558 106.625 61.4958C106.486 61.9948 106.28 62.4731 106.013 62.9177C105.966 62.9951 105.913 63.0696 105.857 63.1405C105.592 63.527 105.37 63.9421 105.197 64.3778L105.084 64.643L105.183 64.994C105.278 64.9037 105.373 64.8139 105.453 64.7284C105.781 64.3919 106.042 64.0836 106.26 63.8136C106.457 63.5472 106.668 63.2909 106.891 63.0458C107.067 62.875 107.214 62.804 107.365 62.8798C107.636 63.0031 107.555 63.444 107.332 63.9272C107.2 64.215 107.041 64.4894 106.858 64.7474C106.727 64.9352 106.575 65.1081 106.407 65.264C106.105 65.5768 105.837 65.9197 105.606 66.2877C105.506 66.4348 105.406 66.5863 105.311 66.7383C104.96 67.2832 104.647 67.8047 104.543 67.9848L104.5 68.0513C104.32 68.5253 104.158 68.8948 104.026 69.2269C103.695 70.01 103.211 70.7189 102.602 71.3125C102.299 71.6156 101.734 71.6535 101.103 71.5539" fill="white"/>
<path d="M98.3941 70.4686C97.6495 70.1321 97.3219 69.0468 97.1796 68.4922C97.0464 67.9763 96.9779 67.446 96.9759 66.9136C96.971 66.4372 96.9299 65.9617 96.8524 65.4917C96.8048 65.1742 96.7431 64.861 96.6814 64.5721C96.5547 63.9732 96.3962 63.3815 96.207 62.7992C96.207 62.7992 96.7717 61.9601 97.2889 62.6714C97.4288 62.875 97.5377 63.0986 97.6116 63.3348C97.7536 63.7471 97.8532 64.2069 97.9528 64.5624C97.9851 64.7699 98.0758 64.9638 98.2138 65.1218C98.2759 65.1681 98.3449 65.2048 98.4179 65.231L98.4937 65.2592C98.649 65.3023 98.8132 65.3023 98.9681 65.2592C99.0399 65.2378 99.1073 65.204 99.1674 65.1597C99.1879 65.154 99.2057 65.1423 99.2198 65.1266C99.2642 65.0875 99.3057 65.0448 99.3432 64.9985C99.555 64.7486 99.7321 64.4713 99.8696 64.1739C100.083 63.7281 100.267 63.2687 100.42 62.7992C100.477 62.6239 100.538 62.4437 100.586 62.2732C100.738 61.7659 100.856 61.2967 100.928 60.9554C100.999 60.614 101.065 60.2965 101.151 59.9599C101.236 59.6234 101.321 59.3151 101.416 59.012C101.701 58.1588 102.047 57.5616 102.455 57.8743C102.863 58.1871 102.735 58.4809 102.55 59.2442C102.488 59.5098 102.412 59.8318 102.337 60.2207C102.21 60.9006 102.126 61.5873 102.085 62.2777V62.5481L102.36 62.6618C102.36 62.7283 102.436 62.619 102.56 62.3869C102.874 61.7699 103.156 61.1371 103.404 60.4907C103.518 60.1969 103.637 59.8842 103.741 59.5428C103.845 59.2015 103.936 58.9645 104.021 58.6755C104.448 57.2533 105.122 57.9598 105.188 58.4575C105.156 58.9834 105.033 59.5001 104.823 59.9837C104.714 60.3013 104.6 60.6281 104.5 60.9316C104.449 61.0896 104.402 61.2476 104.358 61.4056C104.182 62.0077 103.992 62.6331 103.883 63.0692C103.883 63.1264 103.845 63.1833 103.831 63.2353L104.116 63.5339L104.249 63.3678C104.633 62.8705 104.979 62.3446 105.283 61.7945C105.491 61.4152 105.639 61.1021 105.757 60.8462C105.985 60.3722 106.127 60.1828 106.455 60.2348C106.782 60.2868 106.801 60.8558 106.625 61.4958C106.486 61.9948 106.28 62.4731 106.013 62.9177C105.966 62.9951 105.913 63.0696 105.857 63.1405C105.592 63.527 105.37 63.9421 105.197 64.3778L105.084 64.643L105.183 64.994C105.278 64.9037 105.373 64.8139 105.453 64.7284C105.781 64.3919 106.042 64.0836 106.26 63.8136C106.457 63.5472 106.668 63.2909 106.891 63.0458C107.067 62.875 107.214 62.804 107.365 62.8798C107.636 63.0031 107.555 63.444 107.332 63.9272C107.2 64.215 107.041 64.4894 106.858 64.7474C106.727 64.9352 106.575 65.1081 106.407 65.264C106.105 65.5768 105.837 65.9197 105.606 66.2877C105.506 66.4348 105.406 66.5863 105.311 66.7383C104.96 67.2832 104.647 67.8047 104.543 67.9848L104.5 68.0513C104.32 68.5253 104.158 68.8948 104.026 69.2269C103.695 70.01 103.211 70.7189 102.602 71.3125C102.299 71.6156 101.734 71.6535 101.103 71.5539" stroke="black" stroke-linecap="round" stroke-linejoin="round"/>
<path d="M99.2305 65.1309C99.7298 65.313 100.155 65.6548 100.441 66.1029C100.727 66.5511 100.856 67.0807 100.81 67.6098" stroke="black" stroke-linecap="round" stroke-linejoin="round"/>
<path d="M96.7114 75.626C96.6021 75.7158 98.5616 79.2805 101.864 79.0101" stroke="black" stroke-linecap="round" stroke-linejoin="round"/>
<path d="M93.799 79.0098C93.799 79.0098 92.9592 81.6358 93.799 83.1999V79.0098Z" fill="#AAE738"/>
<path d="M93.799 79.0098C93.799 79.0098 92.9592 81.6358 93.799 83.1999" stroke="black" stroke-linecap="round" stroke-linejoin="round"/>
<path d="M86.4627 73.8721C86.4627 73.8721 87.4114 77.7967 86.0977 79.9915" stroke="black" stroke-linecap="round" stroke-linejoin="round"/>
<path d="M87.6697 77.3223C87.6697 77.3223 87.8549 79.4647 86.4648 80.7588" stroke="black" stroke-linecap="round" stroke-linejoin="round"/>
<path d="M95.2109 77.2236C95.2109 77.2236 97.2891 81.2244 100.259 81.1059" stroke="black" stroke-linecap="round" stroke-linejoin="round"/>
<path d="M68.4922 68.7998C68.4922 68.7998 73.1701 72.7719 76.8799 70.8616" stroke="black" stroke-linecap="round" stroke-linejoin="round"/>
<path d="M63.7408 74.2471C63.7408 74.2471 63.6271 79.2763 61.5586 80.7598" stroke="black" stroke-linecap="round" stroke-linejoin="round"/>
<path d="M64.742 79.0381C64.742 79.0381 63.3185 81.5408 61.5586 81.484" stroke="black" stroke-linecap="round" stroke-linejoin="round"/>
<path d="M113.281 98.1906C102.597 97.1061 93.1664 103.416 92.2641 112.285C91.8014 116.865 93.7005 121.225 97.1134 124.526C96.0848 126.152 94.6541 127.486 92.9587 128.4C95.5306 128.709 98.1376 128.265 100.461 127.121C103.364 128.888 106.631 129.976 110.016 130.302C120.699 131.386 130.13 125.077 131.026 116.207C131.923 107.338 123.964 99.2747 113.281 98.1906Z" fill="white" stroke="black" stroke-miterlimit="10"/>
<path d="M51.3588 165.829C51.5771 158.568 74.4252 166.943 81.6935 168.863C88.9614 170.783 89.0042 185.771 84.1226 186.899C84.1226 186.899 84.2126 188.496 77.7413 190.217C76.0145 190.691 71.9961 190.217 71.9961 190.217C69.9373 192.748 57.4789 192.8 53.0477 191.435C50.6093 190.686 44.9067 185.387 49.575 173.622C50.5945 171.14 51.1972 168.507 51.3588 165.829Z" fill="#BFBFBF"/>
<path opacity="0.3" d="M84.116 186.908C84.116 186.908 84.206 188.506 77.7351 190.226C76.0083 190.7 71.9899 190.226 71.9899 190.226C69.9307 192.757 57.4724 192.809 53.0413 191.444C51.8078 191.065 49.7204 189.548 48.6055 186.576C49.6445 188.425 51.2433 189.932 53.696 190.226C60.8125 191.07 63.9245 191.07 63.9245 191.07C63.9245 191.07 60.2288 188.633 60.9501 187.6C61.6709 186.567 68.7113 189.273 71.3352 188.79C73.9588 188.306 76.4919 189.032 75.3391 184.363C74.1863 179.694 61.3437 172.702 58.203 173.702C56.2776 174.286 54.2043 174.137 52.3819 173.285C52.3819 173.285 55.6696 165.308 75.1539 168.801C78.6306 169.383 82.0399 170.312 85.3306 171.574C88.756 176.48 87.9731 186.017 84.116 186.908Z" fill="black" fill-opacity="0.7"/>
<path d="M51.3588 165.829C51.5771 158.568 74.4252 166.943 81.6935 168.863C88.9614 170.783 89.0042 185.771 84.1226 186.899C84.1226 186.899 84.2126 188.496 77.7413 190.217C76.0145 190.691 71.9961 190.217 71.9961 190.217C69.9373 192.748 57.4789 192.8 53.0477 191.435C50.6093 190.686 44.9067 185.387 49.575 173.622C50.5945 171.14 51.1972 168.507 51.3588 165.829Z" stroke="black" stroke-miterlimit="10"/>
<path d="M75.4049 185.32C75.4049 185.32 76.0931 187.311 75.4049 187.591C74.7172 187.871 72.81 189.487 68.5117 188.434" stroke="black" stroke-linecap="round" stroke-linejoin="round"/>
<path d="M72.7664 188.634C72.7664 188.634 72.7377 188.999 71.9883 190.217" stroke="black" stroke-linecap="round" stroke-linejoin="round"/>
<path d="M75.6719 186.425C75.6719 186.425 79.4196 187.434 81.194 187.373" stroke="black" stroke-linecap="round" stroke-linejoin="round"/>
<path d="M60.1211 173.276C60.1211 173.276 57.1656 173.343 56.8003 175.215C56.435 177.087 55.8514 181.605 56.8003 182.539" stroke="black" stroke-linecap="round" stroke-linejoin="round"/>
<path d="M59.048 172.309C59.048 172.309 53.7916 173.342 52.4062 179.997" stroke="black" stroke-linecap="round" stroke-linejoin="round"/>
<path d="M50.172 175.783C50.172 175.783 48.9859 181.87 50.7887 184.401C52.5915 186.932 56.2825 183.699 56.2825 183.699" stroke="black" stroke-linecap="round" stroke-linejoin="round"/>
<path d="M75.3365 109.005C75.3365 109.005 75.6354 104.303 69.3211 104.578C63.0063 104.853 61.455 109.863 62.0576 114.636C62.6598 119.409 65.051 125.373 63.0063 128.103C60.9616 130.833 62.4606 133.279 65.1841 132.738C65.1841 132.738 63.139 132.738 64.7759 130.899C66.4128 129.06 68.7277 129.615 69.6813 121.443C70.6349 113.271 74.1934 112.318 74.1934 112.318L75.3365 109.005Z" fill="black"/>
<path opacity="0.2" d="M74.201 109.423C74.201 109.423 70.8801 104.426 65.8984 106.304" stroke="white" stroke-linecap="round" stroke-linejoin="round"/>
<path opacity="0.2" d="M73.3397 111.12C73.3397 111.12 70.0898 108.887 66.9632 110.968C63.8371 113.049 66.7737 119.623 66.8543 123.766C66.935 127.909 63.6141 128.506 63.3672 130.512" stroke="white" stroke-linecap="round" stroke-linejoin="round"/>
<path d="M97.0273 150.036C97.5602 149.158 98.3254 148.444 99.2382 147.974C100.576 147.4 101.074 148.386 101.9 149.007C101.9 149.007 102.654 148.884 103.389 150.946C103.389 150.946 104.21 151.524 104.291 151.856C104.372 152.188 105.102 154.871 104.737 155.467C104.372 156.065 100.942 156.624 100.942 156.624L97.0273 150.036Z" fill="white" stroke="black" stroke-linecap="round" stroke-linejoin="round"/>
<path d="M101.902 149.789C102.181 150.38 102.302 151.034 102.254 151.685" stroke="black" stroke-linecap="round" stroke-linejoin="round"/>
<path d="M99.8474 149.007C99.7232 149.179 99.6562 149.386 99.6562 149.599C99.6562 149.812 99.7232 150.019 99.8474 150.192" stroke="black" stroke-linecap="round" stroke-linejoin="round"/>
<path d="M103.543 151.854C103.627 152.36 103.647 152.875 103.604 153.386" stroke="black" stroke-linecap="round" stroke-linejoin="round"/>
<path d="M93.6797 151.855C93.6797 150.434 97.0293 149.215 97.2761 147.523C97.4988 146.006 99.2402 147.561 98.0966 150.035" fill="white"/>
<path d="M93.6797 151.855C93.6797 150.434 97.0293 149.215 97.2761 147.523C97.4988 146.006 99.2402 147.561 98.0966 150.035" stroke="black" stroke-linecap="round" stroke-linejoin="round"/>
<path d="M81.1992 133.909C81.1992 133.909 85.6068 135.275 87.5757 137.616C89.5445 139.958 91.684 148.291 91.684 148.291C91.684 148.291 92.5283 149.044 92.5283 149.509C92.5283 149.973 85.6161 154.761 83.8655 154.95C82.1149 155.14 81.4554 148.386 81.4554 148.386" fill="#AAE738"/>
<path d="M81.1992 133.909C81.1992 133.909 85.6068 135.275 87.5757 137.616C89.5445 139.958 91.684 148.291 91.684 148.291C91.684 148.291 92.5283 149.044 92.5283 149.509C92.5283 149.973 85.6161 154.761 83.8655 154.95C82.1149 155.14 81.4554 148.386 81.4554 148.386" stroke="black" stroke-linecap="round" stroke-linejoin="round"/>
<path d="M68.5117 173.798C68.5117 173.798 90.6814 150.098 98.5519 150.098C103.666 150.098 105.293 153.795 106.798 156.734C108.301 159.673 128.654 182.145 128.654 182.145L123.649 184.577C123.649 184.577 113.757 179.311 106.295 174.807C99.6527 170.807 98.965 166.55 98.0304 165.844C97.0958 165.138 90.7338 180.571 83.8309 185.383C83.8309 185.383 70.9691 190.004 68.5117 173.798Z" fill="white"/>
<path opacity="0.4" d="M128.275 181.718C128.149 181.996 128.008 182.267 127.852 182.529L123.649 184.572C123.649 184.572 113.757 179.306 106.295 174.802C99.6527 170.802 98.965 166.545 98.0304 165.839H97.9969C96.9534 165.493 90.6434 180.642 83.8309 185.401C83.8309 185.401 70.9691 190.013 68.5117 173.817C68.5117 173.817 86.2931 154.804 95.6581 150.832C96.0046 152.017 96.6783 153.936 97.6508 154.989C99.1166 156.577 103.818 158.828 104.843 159.672L102.869 160.047C102.869 160.047 114.085 174.679 116.85 176.547C118.852 177.809 121.004 178.817 123.255 179.547C123.255 179.547 123.73 178.599 125.718 178.898C126.89 180.187 127.795 181.187 128.275 181.718Z" fill="#AAE738"/>
<path d="M68.5117 173.798C68.5117 173.798 90.6814 150.098 98.5519 150.098C103.666 150.098 105.293 153.795 106.798 156.734C108.301 159.673 128.654 182.145 128.654 182.145L123.649 184.577C123.649 184.577 113.757 179.311 106.295 174.807C99.6527 170.807 98.965 166.55 98.0304 165.844C97.0958 165.138 90.7338 180.571 83.8309 185.383C83.8309 185.383 70.9691 190.004 68.5117 173.798Z" stroke="black" stroke-linecap="round" stroke-linejoin="round"/>
<path d="M98.0312 165.829C98.0312 165.829 95.7824 164.616 94.7812 165.829" stroke="black" stroke-linecap="round" stroke-linejoin="round"/>
<path d="M121.631 185.381C121.631 185.381 118.002 183.234 119.734 181.623C121.466 180.011 124.302 181.21 124.302 181.21C124.302 181.21 124.17 178.67 127.258 178.399C130.347 178.129 130.484 179.073 130.484 179.073C130.484 179.073 131.433 182.613 132.771 184.13C134.109 185.647 138.682 187.661 139.489 188.737C140.295 189.813 140.438 191.69 140.438 191.69C140.438 191.69 135.793 193.027 127.405 191.69C125.878 191.449 123.804 192.283 121.238 191.69C121.228 191.69 120.687 187.633 121.631 185.381Z" fill="#AAE738" stroke="black" stroke-linecap="round" stroke-linejoin="round"/>
<path d="M124.316 181.211C126.095 181.751 127.305 181.618 127.708 182.633C128.185 183.804 128.914 184.856 129.843 185.714C130.772 186.573 131.878 187.217 133.084 187.6" stroke="black" stroke-linecap="round" stroke-linejoin="round"/>
<path d="M126.969 183.7C128.461 182.946 130.107 182.548 131.779 182.538" stroke="black" stroke-width="2" stroke-linecap="round" stroke-linejoin="round"/>
<path d="M128.688 185.738C128.688 185.738 131.06 184.126 133.09 184.397" stroke="black" stroke-width="2" stroke-linecap="round" stroke-linejoin="round"/>
<path d="M130.586 187.121C131.867 186.301 133.337 185.821 134.856 185.728" stroke="black" stroke-width="2" stroke-linecap="round" stroke-linejoin="round"/>
<path d="M86.1318 142.783C85.6438 144.939 84.7934 146.997 83.6172 148.869C80.7888 153.689 77.6542 158.323 74.2332 162.743L75.8225 168.73C75.8225 168.73 53.5247 170.431 48.306 177.627C48.306 177.627 46.2898 177.627 49.0983 173.797L51.7314 161.056C51.7314 161.056 53.0028 130.819 70.5706 131.781C77.1367 132.141 81.2974 133.464 83.6838 135.412" fill="#AAE738"/>
<path opacity="0.3" d="M83.6194 148.87C80.7905 153.689 77.6564 158.323 74.2354 162.743L75.8247 168.73C75.8247 168.73 65.4584 169.522 57.1988 172.309C56.0554 169.437 59.0348 170.309 59.0348 170.309L57.8061 168.792L59.8649 168.73C58.0717 167.152 59.0348 163.758 59.0348 163.758L61.9241 166.36C57.9531 161.563 57.8203 150.187 57.8203 150.187C57.8203 150.187 66.1797 140.802 68.879 143.172C71.5784 145.542 69.5575 150.927 72.7695 151.031C75.9812 151.135 85.5168 144.248 85.8254 144.025C85.2926 145.724 84.5516 147.351 83.6194 148.87Z" fill="black" fill-opacity="0.7"/>
<path d="M86.1318 142.783C85.6438 144.939 84.7934 146.997 83.6172 148.869C80.7888 153.689 77.6542 158.323 74.2332 162.743L75.8225 168.73C75.8225 168.73 53.5247 170.431 48.306 177.627C48.306 177.627 46.2898 177.627 49.0983 173.797L51.7314 161.056C51.7314 161.056 53.0028 130.819 70.5706 131.781C77.1367 132.141 81.2974 133.464 83.6838 135.412" stroke="black" stroke-linecap="round" stroke-linejoin="round"/>
<path d="M83.3099 130.914C82.2301 131.1 81.2269 131.594 80.4209 132.336C79.7167 133.019 79.1991 133.871 78.9168 134.81C78.5876 135.899 78.4735 137.04 78.58 138.171C71.1886 138.783 69.3242 132.824 69.3242 132.824C75.3397 129.312 71.383 123.742 71.383 123.742C77.6361 123.198 83.3099 130.914 83.3099 130.914Z" fill="white" stroke="black" stroke-linecap="round" stroke-linejoin="round"/>
<path d="M58.3555 175.182C58.3555 175.182 81.1942 150.088 89.0647 150.088C94.1791 150.088 95.8063 153.785 97.3104 156.724C98.8142 159.663 119.167 182.135 119.167 182.135L113.213 185.515C113.213 185.515 108.165 178.097 100.128 175.272C92.8221 172.708 89.4774 166.541 88.5428 165.835C87.6082 165.128 80.5633 181.946 73.6556 186.766C73.6556 186.766 60.8131 191.379 58.3555 175.182Z" fill="white"/>
<path opacity="0.4" d="M89.1224 166.488C88.951 166.252 88.7553 166.034 88.5391 165.839H88.5056C87.4621 165.493 80.4878 182.021 73.6705 186.785C73.6705 186.785 67.5933 188.966 62.9961 185.065C63.2192 185.135 68.5707 186.88 72.2756 185.065C72.2756 185.065 77.6651 181.235 81.6693 173.689C83.643 169.977 85.4977 165.702 86.8454 165.322C88.1309 164.967 89.0276 166.337 89.1224 166.488Z" fill="#AAE738"/>
<path d="M58.3555 175.182C58.3555 175.182 81.1942 150.088 89.0647 150.088C94.1791 150.088 95.8063 153.785 97.3104 156.724C98.8142 159.663 119.167 182.135 119.167 182.135L113.213 185.515C113.213 185.515 108.165 178.097 100.128 175.272C92.8221 172.708 89.4774 166.541 88.5428 165.835C87.6082 165.128 80.5633 181.946 73.6556 186.766C73.6556 186.766 60.8131 191.379 58.3555 175.182Z" stroke="black" stroke-linecap="round" stroke-linejoin="round"/>
<path d="M88.5386 165.829C88.5386 165.829 86.2898 164.616 85.2891 165.829" stroke="black" stroke-linecap="round" stroke-linejoin="round"/>
<path d="M112.143 185.381C112.143 185.381 108.514 183.234 110.246 181.623C111.977 180.011 114.815 181.21 114.815 181.21C114.815 181.21 114.681 178.67 117.77 178.399C120.859 178.129 120.996 179.073 120.996 179.073C120.996 179.073 121.945 182.613 123.283 184.13C124.621 185.647 129.194 187.661 130.001 188.737C130.807 189.813 130.949 191.69 130.949 191.69C130.949 191.69 126.305 193.027 117.917 191.69C116.389 191.449 114.316 192.283 111.75 191.69C111.74 191.69 111.199 187.633 112.143 185.381Z" fill="#AAE738" stroke="black" stroke-linecap="round" stroke-linejoin="round"/>
<path d="M114.828 181.211C116.607 181.751 117.817 181.618 118.22 182.633C118.697 183.804 119.426 184.856 120.355 185.714C121.284 186.573 122.39 187.217 123.595 187.6" stroke="black" stroke-linecap="round" stroke-linejoin="round"/>
<path d="M117.48 183.7C118.973 182.946 120.619 182.548 122.291 182.538" stroke="black" stroke-width="2" stroke-linecap="round" stroke-linejoin="round"/>
<path d="M119.203 185.738C119.203 185.738 121.575 184.126 123.606 184.397" stroke="black" stroke-width="2" stroke-linecap="round" stroke-linejoin="round"/>
<path d="M121.098 187.121C122.379 186.301 123.849 185.821 125.367 185.728" stroke="black" stroke-width="2" stroke-linecap="round" stroke-linejoin="round"/>
<path d="M102.698 133.54L96.9004 142.678L91.5961 144.849L90.9414 145.119V141.086L95.2873 133.838C95.3934 133.66 95.5394 133.508 95.7141 133.396C95.8883 133.283 96.0868 133.212 96.2929 133.189L101.701 132.568C101.783 132.561 101.865 132.581 101.934 132.625L102.593 133.099C102.663 133.143 102.712 133.213 102.731 133.293C102.751 133.377 102.74 133.465 102.698 133.54Z" fill="#757575"/>
<path opacity="0.3" d="M102.697 133.54L96.8993 142.678L91.5954 144.85L91.0117 143.077L96.0595 134.829C96.1676 134.651 96.3132 134.499 96.4859 134.384C96.6589 134.268 96.8549 134.192 97.0607 134.161L102.754 133.298C102.766 133.383 102.745 133.469 102.697 133.54Z" fill="black" fill-opacity="0.7"/>
<path d="M102.698 133.54L96.9004 142.678L91.5961 144.849L90.9414 145.119V141.086L95.2873 133.838C95.3934 133.66 95.5394 133.508 95.7141 133.396C95.8883 133.283 96.0868 133.212 96.2929 133.189L101.701 132.568C101.783 132.561 101.865 132.581 101.934 132.625L102.593 133.099C102.663 133.143 102.712 133.213 102.731 133.293C102.751 133.377 102.74 133.465 102.698 133.54Z" stroke="black" stroke-linecap="round" stroke-linejoin="round"/>
<path d="M66.3055 142.304L68.7201 156.932C74.2188 152.035 80.296 151.528 86.3163 145.92C86.9238 145.124 87.426 144.252 87.8108 143.327C88.4324 141.55 88.2852 138.881 90.9514 137.232C91.3689 136.976 92.982 134.748 93.1103 135.122C93.8598 137.279 91.0559 138.815 91.1273 139.336C91.2362 140.208 91.4165 141.066 91.7013 141.294C92.3273 141.797 95.3304 138.673 97.5841 138.796C99.8377 138.919 100.464 140.341 99.2113 140.844C99.2113 140.844 100.022 141.626 99.2113 142.228C98.3194 142.882 97.9685 143.176 97.9685 143.176C97.9753 143.61 97.8547 144.038 97.6212 144.404C97.3876 144.771 97.0512 145.06 96.6543 145.238C95.639 147.911 89.9507 148.783 89.9507 148.783C89.9507 148.783 77.2219 161.416 69.5506 165.819C66.742 167.435 66.2628 168.019 62.9087 162.79C59.877 158.05 58.3398 149.518 58.3398 149.518" fill="white"/>
<path d="M66.3055 142.304L68.7201 156.932C74.2188 152.035 80.296 151.528 86.3163 145.92C86.9238 145.124 87.426 144.252 87.8108 143.327C88.4324 141.55 88.2852 138.881 90.9514 137.232C91.3689 136.976 92.982 134.748 93.1103 135.122C93.8598 137.279 91.0559 138.815 91.1273 139.336C91.2362 140.208 91.4165 141.066 91.7013 141.294C92.3273 141.797 95.3304 138.673 97.5841 138.796C99.8377 138.919 100.464 140.341 99.2113 140.844C99.2113 140.844 100.022 141.626 99.2113 142.228C98.3194 142.882 97.9685 143.176 97.9685 143.176C97.9753 143.61 97.8547 144.038 97.6212 144.404C97.3876 144.771 97.0512 145.06 96.6543 145.238C95.639 147.911 89.9507 148.783 89.9507 148.783C89.9507 148.783 77.2219 161.416 69.5506 165.819C66.742 167.435 66.2628 168.019 62.9087 162.79C59.877 158.05 58.3398 149.518 58.3398 149.518" stroke="black" stroke-linecap="round" stroke-linejoin="round"/>
<path d="M97.6437 139.684C97.7054 139.991 96.695 140.631 96.9084 141.105C97.1217 141.579 97.4872 141.793 96.9084 142.665C96.3295 143.537 97.2831 144.044 96.2109 145.106" stroke="black" stroke-linecap="round" stroke-linejoin="round"/>
<path d="M99.2099 140.854C98.5996 140.812 97.9881 140.916 97.4258 141.157" stroke="black" stroke-linecap="round" stroke-linejoin="round"/>
<path d="M64.6775 134.806C64.6775 134.806 67.7944 135.28 68.7197 137.806C69.6446 140.333 67.8847 149.699 68.7197 150.363C69.5547 151.026 68.0933 153.136 68.0933 153.136C68.0933 153.136 63.9232 152.87 60.5027 157.573C60.5027 157.573 58.8611 157.496 58.771 156.748C58.4581 154.938 57.921 153.173 57.1722 151.495C56.3277 149.808 57.1722 145.4 57.1722 145.4" fill="#AAE738"/>
<path d="M64.6775 134.806C64.6775 134.806 67.7944 135.28 68.7197 137.806C69.6446 140.333 67.8847 149.699 68.7197 150.363C69.5547 151.026 68.0933 153.136 68.0933 153.136C68.0933 153.136 63.9232 152.87 60.5027 157.573C60.5027 157.573 58.8611 157.496 58.771 156.748C58.4581 154.938 57.921 153.173 57.1722 151.495C56.3277 149.808 57.1722 145.4 57.1722 145.4" stroke="black" stroke-linecap="round" stroke-linejoin="round"/>
<path d="M80.4176 132.341C79.7137 133.024 79.1958 133.876 78.9138 134.815C77.1253 133.64 76.9688 130.492 76.9688 130.492L80.4176 132.341Z" fill="black"/>
<path d="M87.0852 111.119C87.0852 111.119 91.6159 113.219 90.8806 118.39C90.1452 123.562 87.199 127.307 83.8639 127.51C80.5285 127.714 87.0852 111.119 87.0852 111.119Z" fill="black"/>
<path d="M72.0322 127.169C67.4067 119.888 68.4454 109.512 77.1796 108.654C86.4785 107.74 90.1741 115.149 89.0875 120.457C88.2714 124.42 90.6957 125.885 85.558 133.023C83.7125 135.583 76.5439 132.829 76.226 130.061" fill="white"/>
<path d="M72.0322 127.169C67.4067 119.888 68.4454 109.512 77.1796 108.654C86.4785 107.74 90.1741 115.149 89.0875 120.457C88.2714 124.42 90.6957 125.885 85.558 133.023C83.7125 135.583 76.5439 132.829 76.226 130.061" stroke="black" stroke-linecap="round" stroke-linejoin="round"/>
<path d="M83.3092 119.481C82.6465 119.299 81.9495 119.281 81.2782 119.429C80.607 119.577 79.9818 119.886 79.457 120.329" stroke="black" stroke-linecap="round" stroke-linejoin="round"/>
<path d="M86.8477 119.576C86.8477 119.576 88.347 118.969 89.1392 120.144" stroke="black" stroke-linecap="round" stroke-linejoin="round"/>
<path d="M81.8205 123.064C81.7305 123.538 81.4647 123.918 81.2227 123.875C80.9807 123.833 80.8572 123.401 80.9476 122.927C81.0375 122.453 81.3034 122.074 81.5454 122.117C81.7874 122.159 81.906 122.576 81.8205 123.064Z" fill="black"/>
<path d="M87.7487 123.168C87.6632 123.642 87.3929 124.021 87.1557 123.974C86.9185 123.926 86.7903 123.5 86.8806 123.026C86.9706 122.552 87.2316 122.172 87.4736 122.215C87.7156 122.258 87.8386 122.661 87.7487 123.168Z" fill="black"/>
<path d="M85.8242 123.643C85.9283 124.766 87.2993 125.477 87.309 125.956C87.3187 126.435 86.474 127.212 85.8242 127.52" stroke="black" stroke-linecap="round" stroke-linejoin="round"/>
<path d="M85.5568 129.108C83.9848 129.495 82.3278 129.339 80.8555 128.667" stroke="black" stroke-linecap="round" stroke-linejoin="round"/>
<path d="M81.2461 128.828C81.2461 128.828 81.5547 130.9 83.3005 130.914C84.6288 130.914 85.1983 129.198 85.1983 129.198" stroke="black" stroke-linecap="round" stroke-linejoin="round"/>
<path d="M83.3089 107.526C78.8113 106.105 76.667 107.526 76.667 107.526C66.8606 109.465 67.2685 115.793 68.2886 122.33C69.3087 128.866 72.6627 128.113 72.6627 128.113C72.6627 128.113 73.8442 127.534 72.9903 123.012C72.9903 122.96 73.052 122.918 73.0802 122.87C73.2795 123.183 73.6401 123.306 74.2472 123.093C75.9506 122.505 76.961 120.912 77.4971 119.751C85.1922 117.514 88.8831 114.76 89.2723 113.755C89.856 112.267 87.8016 108.949 83.3089 107.526Z" fill="black"/>
<path d="M75.3362 122.988C75.3362 122.988 74.3161 120.4 72.964 120.329C71.6119 120.258 70.4401 123.529 72.1621 125.572C73.8845 127.615 75.3124 127.103 75.3124 127.103" fill="white"/>
<path d="M75.3362 122.988C75.3362 122.988 74.3161 120.4 72.964 120.329C71.6119 120.258 70.4401 123.529 72.1621 125.572C73.8845 127.615 75.3124 127.103 75.3124 127.103" stroke="black" stroke-linecap="round" stroke-linejoin="round"/>
<path d="M87.0845 111.119C87.0845 111.119 89.2526 111.323 89.1384 114.513C89.0247 117.703 79.6927 120.874 74.1992 119.419V118.623C74.1992 118.623 76.9744 119.604 81.1493 118.623C85.3242 117.641 88.3841 116.205 87.7629 113.295C87.1414 110.384 87.0845 111.119 87.0845 111.119Z" fill="black"/>
<path opacity="0.2" d="M87.5062 112.152C87.5062 112.152 81.0018 117.931 72.2773 116.708" stroke="white" stroke-linecap="round" stroke-linejoin="round"/>
<path opacity="0.2" d="M84.5632 110.427C84.5632 110.427 79.1928 114.797 70.8047 112.152" stroke="white" stroke-linecap="round" stroke-linejoin="round"/>
<path opacity="0.2" d="M89.1406 114.514C89.1406 114.514 90.2697 115.988 90.2031 118.699" stroke="white" stroke-linecap="round" stroke-linejoin="round"/>
<path d="M68.7205 150.362C68.7205 150.362 65.1479 149.319 62.5195 151.158" stroke="black" stroke-linecap="round" stroke-linejoin="round"/>
<path d="M56.2812 159.743C56.2812 159.743 60.2759 167.512 65.6226 167.612" stroke="black" stroke-linecap="round" stroke-linejoin="round"/>
<path d="M53.6953 168.038C53.6953 168.038 59.0563 169.043 61.936 168.73" stroke="black" stroke-linecap="round" stroke-linejoin="round"/>
<path d="M74.1992 139.214C74.1992 139.214 77.9659 140.133 79.2942 138.218C80.6229 136.303 79.4555 135.09 79.4555 135.09" stroke="black" stroke-linecap="round" stroke-linejoin="round"/>
<path d="M95.6055 114.864H96.3799C96.4102 115.014 96.4727 115.15 96.5671 115.27C96.7736 115.536 97.0879 115.67 97.5094 115.67C97.8494 115.67 98.1011 115.61 98.2645 115.489C98.4283 115.365 98.5097 115.199 98.5097 114.993C98.5097 114.83 98.4347 114.698 98.2838 114.599C98.1378 114.501 97.9269 114.414 97.6514 114.341C97.1137 114.204 96.7522 114.09 96.5671 114C96.0552 113.763 95.7991 113.406 95.7991 112.929C95.7991 112.564 95.954 112.248 96.2638 111.981C96.5736 111.711 96.9781 111.575 97.4771 111.575C98.1398 111.575 98.6324 111.796 98.9551 112.239C99.093 112.428 99.1918 112.648 99.2519 112.897H98.4775C98.4476 112.777 98.3936 112.669 98.3161 112.575C98.1354 112.36 97.8559 112.252 97.4771 112.252C97.1847 112.252 96.9608 112.312 96.8059 112.433C96.651 112.553 96.5736 112.708 96.5736 112.897C96.5736 113.181 96.86 113.4 97.4319 113.555C97.4795 113.568 97.5699 113.594 97.703 113.632C97.8365 113.666 97.9313 113.695 97.987 113.716C98.0475 113.733 98.1378 113.763 98.258 113.806C98.3831 113.845 98.4754 113.882 98.5355 113.916C98.5961 113.95 98.6735 113.995 98.7679 114.051C98.8627 114.103 98.9337 114.159 98.9809 114.219C99.0325 114.275 99.0841 114.339 99.1358 114.412C99.1918 114.485 99.2306 114.569 99.2519 114.664C99.2737 114.754 99.2842 114.853 99.2842 114.961C99.2842 115.347 99.1229 115.676 98.8002 115.947C98.4819 116.214 98.0515 116.347 97.5094 116.347C96.7865 116.347 96.2553 116.1 95.9153 115.605C95.7604 115.395 95.6571 115.148 95.6055 114.864ZM99.9268 117.443V112.929H100.604V113.348H100.637C100.714 113.258 100.802 113.179 100.901 113.11C101.134 112.947 101.39 112.865 101.669 112.865C102.113 112.865 102.481 113.024 102.773 113.342C103.07 113.656 103.218 114.066 103.218 114.574C103.218 115.081 103.07 115.494 102.773 115.812C102.481 116.126 102.113 116.282 101.669 116.282C101.385 116.282 101.129 116.203 100.901 116.044C100.798 115.971 100.71 115.889 100.637 115.799H100.604V117.443H99.9268ZM100.856 113.768C100.688 113.957 100.604 114.225 100.604 114.574C100.604 114.922 100.688 115.193 100.856 115.386C101.028 115.575 101.256 115.67 101.54 115.67C101.842 115.67 102.078 115.575 102.25 115.386C102.422 115.197 102.508 114.926 102.508 114.574C102.508 114.221 102.422 113.95 102.25 113.761C102.078 113.572 101.842 113.477 101.54 113.477C101.256 113.477 101.028 113.574 100.856 113.768ZM103.797 116.218V111.704H104.474V115.605H105.217V116.218H103.797ZM105.72 112.33C105.643 112.252 105.604 112.158 105.604 112.046C105.604 111.934 105.643 111.84 105.72 111.762C105.797 111.68 105.892 111.64 106.004 111.64C106.116 111.64 106.21 111.68 106.288 111.762C106.37 111.84 106.411 111.934 106.411 112.046C106.411 112.158 106.37 112.252 106.288 112.33C106.21 112.407 106.116 112.446 106.004 112.446C105.892 112.446 105.797 112.407 105.72 112.33ZM105.668 116.218V112.929H106.346V116.218H105.668ZM106.86 113.542V112.929H107.247V112.22H107.925V112.929H108.925V113.542H107.925V115.605H108.957V116.218H107.247V113.542H106.86ZM111.592 115.812C111.3 115.494 111.153 115.081 111.153 114.574C111.153 114.066 111.3 113.656 111.592 113.342C111.889 113.024 112.259 112.865 112.702 112.865C112.982 112.865 113.238 112.947 113.47 113.11C113.57 113.179 113.658 113.258 113.735 113.348H113.767V112.929H114.445V116.218H113.767V115.767H113.735C113.67 115.857 113.582 115.943 113.47 116.024C113.238 116.197 112.982 116.282 112.702 116.282C112.259 116.282 111.889 116.126 111.592 115.812ZM112.121 113.761C111.95 113.95 111.863 114.221 111.863 114.574C111.863 114.926 111.95 115.197 112.121 115.386C112.294 115.575 112.53 115.67 112.831 115.67C113.115 115.67 113.341 115.575 113.509 115.386C113.681 115.193 113.767 114.922 113.767 114.574C113.767 114.225 113.681 113.957 113.509 113.768C113.341 113.574 113.115 113.477 112.831 113.477C112.53 113.477 112.294 113.572 112.121 113.761ZM117.026 116.218V111.704H117.704V113.348H117.736C117.813 113.258 117.901 113.179 118.001 113.11C118.233 112.947 118.489 112.865 118.769 112.865C119.212 112.865 119.579 113.024 119.872 113.342C120.169 113.656 120.318 114.066 120.318 114.574C120.318 115.081 120.169 115.494 119.872 115.812C119.579 116.126 119.212 116.282 118.769 116.282C118.485 116.282 118.228 116.203 118.001 116.044C117.897 115.971 117.809 115.889 117.736 115.799H117.704V116.218H117.026ZM117.955 113.768C117.788 113.957 117.704 114.225 117.704 114.574C117.704 114.922 117.788 115.193 117.955 115.386C118.127 115.575 118.356 115.67 118.64 115.67C118.94 115.67 119.177 115.575 119.349 115.386C119.521 115.197 119.608 114.926 119.608 114.574C119.608 114.221 119.521 113.95 119.349 113.761C119.177 113.572 118.94 113.477 118.64 113.477C118.356 113.477 118.127 113.574 117.955 113.768ZM120.947 112.33C120.87 112.252 120.831 112.158 120.831 112.046C120.831 111.934 120.87 111.84 120.947 111.762C121.025 111.68 121.119 111.64 121.231 111.64C121.343 111.64 121.438 111.68 121.515 111.762C121.597 111.84 121.638 111.934 121.638 112.046C121.638 112.158 121.597 112.252 121.515 112.33C121.438 112.407 121.343 112.446 121.231 112.446C121.119 112.446 121.025 112.407 120.947 112.33ZM120.896 116.218V112.929H121.573V116.218H120.896ZM122.345 116.218V111.704H123.023V115.605H123.765V116.218H122.345ZM124.217 116.218V111.704H124.895V115.605H125.637V116.218H124.217Z" fill="black"/>
</svg>
