<svg width="116" height="30" viewBox="0 0 116 30" fill="none" xmlns="http://www.w3.org/2000/svg">
<path d="M24.2929 5.31971V5.32765L24.2941 5.3355L24.4376 6.23242C24.5448 7.05414 24.5982 7.87507 24.5804 8.71332L24.5804 8.71332V8.71545C24.5804 10.5582 24.3657 12.383 23.9363 14.172L23.9362 14.1723C23.3641 16.5861 22.3628 18.8928 20.986 20.967C19.3954 23.326 17.0892 25.6329 13.7431 27.5296L13.3792 27.7353L13.0152 27.5296L13.0146 27.5292C9.66922 25.6687 7.3631 23.3442 5.77247 20.9672L5.77234 20.967C4.37787 18.8931 3.39443 16.6046 2.82216 14.1724L2.82206 14.172C2.3927 12.383 2.17801 10.5582 2.17801 8.71545C2.17801 7.89184 2.21383 7.05214 2.32085 6.23145L2.44585 5.33857C2.46647 5.25254 2.46603 5.16584 2.44453 5.07985C2.4439 5.07733 2.44326 5.07477 2.44262 5.07217C2.42654 5.00752 2.40374 4.91584 2.33555 4.84315C2.29251 4.78103 2.23168 4.72104 2.16942 4.67953C2.11239 4.64151 2.03858 4.61866 1.99112 4.60397C1.98152 4.601 1.97299 4.59836 1.9659 4.596L1.96599 4.59572L1.95853 4.59385C1.87074 4.5719 1.78221 4.5719 1.69442 4.59385C1.60894 4.61522 1.52661 4.6568 1.46557 4.69749C1.40068 4.74075 1.33736 4.80408 1.2941 4.86896L1.29345 4.86853L1.28786 4.87971C1.24699 4.96145 1.22677 5.04237 1.2093 5.11226C1.20901 5.11344 1.20872 5.11461 1.20842 5.11578L1.20806 5.11569L1.20669 5.12424L1.06296 6.02258L1.06289 6.02257L1.06244 6.02623C0.954137 6.91073 0.9 7.81314 0.9 8.71545C0.9 10.6639 1.13455 12.5942 1.58546 14.488L1.58549 14.4881C1.89221 15.7691 2.30723 17.0323 2.83068 18.2417C3.35416 19.4511 3.98594 20.6063 4.72596 21.7074C6.42309 24.235 8.87804 26.7076 12.414 28.6561C12.4142 28.6562 12.4144 28.6563 12.4146 28.6564L13.0783 29.0331L13.0778 29.0339L13.0905 29.039C13.1912 29.0793 13.2936 29.1001 13.3972 29.1001C13.5007 29.1001 13.6031 29.0793 13.7038 29.039L13.7041 29.0399L13.716 29.0331L14.3802 28.6562C14.3804 28.6561 14.3805 28.656 14.3807 28.6559C17.8982 26.6896 20.371 24.2173 22.0682 21.7076L22.0683 21.7074C23.5483 19.5054 24.6133 17.0507 25.2089 14.4877C25.6599 12.5933 25.8763 10.6632 25.8763 8.71545C25.8763 7.81309 25.8222 6.91077 25.7139 6.0085L25.714 6.00849L25.7134 6.00462L25.5696 5.10627L25.57 5.10621L25.5679 5.09782L25.567 5.09426C25.5496 5.02438 25.5293 4.94347 25.4885 4.86174L25.4892 4.8614L25.4822 4.851C25.439 4.78611 25.3757 4.72278 25.3108 4.67953L25.3108 4.67953C25.2497 4.63884 25.1674 4.59725 25.0819 4.57588C24.9941 4.55394 24.9056 4.55394 24.8178 4.57588L24.8143 4.57677C24.7444 4.59424 24.6635 4.61446 24.5817 4.65532L24.5814 4.65463L24.571 4.66156C24.5061 4.70482 24.4428 4.76815 24.3995 4.83303C24.3588 4.89407 24.3172 4.9764 24.2959 5.06188L24.2929 5.07382V5.08614V5.31971Z" fill="black" stroke="black" stroke-width="0.2"/>
<path d="M5.39059 4.80718L5.39063 4.80735L5.39636 4.80555L13.4155 2.28167L21.5963 4.85944L21.5963 4.85961L21.6021 4.86108C21.686 4.88205 21.7684 4.88204 21.8375 4.88203L21.842 4.88203C21.9311 4.88203 22.0182 4.85962 22.1023 4.81757C22.1811 4.77819 22.2481 4.73456 22.313 4.64992C22.3757 4.58518 22.4229 4.49639 22.4268 4.39959C22.4451 4.31965 22.4451 4.24157 22.445 4.1756V4.17116C22.445 4.08201 22.4226 3.99493 22.3806 3.91083C22.3411 3.83178 22.2993 3.76838 22.2361 3.70517C22.1718 3.64091 22.0824 3.59164 21.9846 3.5865L13.6088 0.932082C13.6086 0.932002 13.6083 0.931921 13.6081 0.931841C13.4803 0.889393 13.3508 0.889386 13.223 0.931822C13.2227 0.931908 13.2224 0.931995 13.2222 0.932082L5.0335 3.51797C4.96825 3.5348 4.91043 3.5658 4.86077 3.59242C4.84596 3.60036 4.83188 3.6079 4.81854 3.61457L4.80403 3.62183L4.79255 3.63331C4.79052 3.63534 4.78844 3.63742 4.78631 3.63953C4.73869 3.68702 4.67071 3.7548 4.64352 3.8482C4.6044 3.92943 4.58359 4.0134 4.58359 4.09929L4.58359 4.10376C4.58358 4.17286 4.58357 4.25525 4.60455 4.33915C4.62592 4.42462 4.6675 4.50696 4.70819 4.568C4.75659 4.64059 4.8428 4.70307 4.92103 4.74302C4.99066 4.78763 5.07488 4.80747 5.16695 4.80991C5.19889 4.82058 5.23323 4.82364 5.26303 4.82364C5.30341 4.82364 5.3475 4.81795 5.39059 4.80718Z" fill="black" stroke="black" stroke-width="0.2"/>
<path d="M19.8298 14.5475L13.3816 27.0011L2.43758 4.89909L2.43832 4.89872L2.43117 4.88799C2.4123 4.85969 2.38908 4.82718 2.36708 4.79639L2.36645 4.7955C2.34371 4.76367 2.32229 4.73365 2.3054 4.70832L2.29991 4.70008L2.2929 4.69308C2.2266 4.62678 2.14184 4.58399 2.05917 4.56167C1.96826 4.51936 1.87858 4.5196 1.79663 4.53816C1.71178 4.54013 1.62885 4.56237 1.54863 4.60248L1.54828 4.60178L1.53788 4.60872C1.48435 4.64441 1.39666 4.70786 1.34844 4.78019C1.30775 4.84123 1.26617 4.92357 1.2448 5.00904C1.24418 5.01154 1.24354 5.01407 1.24289 5.01664C1.22628 5.08279 1.20312 5.17505 1.22622 5.27065C1.24443 5.36146 1.26444 5.44348 1.3062 5.52705C1.30623 5.5271 1.30625 5.52714 1.30627 5.52719L12.8212 28.7368C12.8674 28.849 12.9545 28.9331 13.0322 28.9913L13.0318 28.9917L13.0407 28.997C13.252 29.1238 13.5072 29.1238 13.7185 28.997C13.8225 28.9347 13.9061 28.851 13.9684 28.7471L13.9686 28.7472L13.9715 28.7417L20.9894 15.1904L20.9964 15.1834L21.0089 15.1709L21.0164 15.1549L25.5075 5.50794C25.5492 5.42424 25.5713 5.33759 25.5713 5.2489L25.5713 5.24292C25.5714 5.17664 25.5714 5.08841 25.5297 4.99869C25.5082 4.91883 25.4675 4.83701 25.405 4.77177C25.3558 4.70296 25.2728 4.64302 25.2214 4.60872L25.2214 4.60872C25.1458 4.55835 25.0525 4.53802 24.9503 4.53802L24.9458 4.53802C24.8767 4.53801 24.7944 4.538 24.7104 4.55898C24.6245 4.58045 24.5354 4.62401 24.4664 4.69308C24.4643 4.69512 24.4622 4.6972 24.4601 4.69932C24.4123 4.74698 24.344 4.81511 24.317 4.90906L19.8298 14.5475Z" fill="black" stroke="black" stroke-width="0.2"/>
<path d="M6.88702 15.9287L6.89896 15.9317H6.91127H19.7396C19.8239 15.9317 19.906 15.9112 19.9745 15.894L19.9795 15.8928C20.081 15.8674 20.1512 15.796 20.1945 15.7338C20.2528 15.674 20.2972 15.608 20.3203 15.5203C20.3801 15.3572 20.3801 15.192 20.3202 15.029C20.3066 14.9789 20.2821 14.9378 20.2598 14.9056C20.2491 14.8902 20.238 14.8755 20.2284 14.8629L20.2262 14.8599C20.2157 14.8459 20.2073 14.8347 20.2001 14.824L20.1946 14.8158L20.1876 14.8088C20.1267 14.7478 20.0659 14.7073 20.0129 14.672L20.0107 14.6705L19.9963 14.6609L19.9795 14.6567L19.9745 14.6555C19.906 14.6383 19.8239 14.6178 19.7396 14.6178H6.91127C6.82699 14.6178 6.74492 14.6383 6.67638 14.6555C6.67472 14.6559 6.67306 14.6563 6.67142 14.6567C6.56996 14.6821 6.49969 14.7535 6.45644 14.8157C6.39815 14.8755 6.3537 14.9415 6.3306 15.0292C6.27079 15.1922 6.27079 15.3573 6.3306 15.5203C6.35459 15.6114 6.40161 15.6791 6.46326 15.7407C6.52419 15.8017 6.58505 15.8422 6.63807 15.8776L6.6402 15.879L6.65461 15.8886L6.67142 15.8928C6.71325 15.9033 6.75428 15.9084 6.78885 15.9127L6.79107 15.913C6.82791 15.9176 6.85789 15.9215 6.88702 15.9287Z" fill="black" stroke="black" stroke-width="0.2"/>
<mask id="path-5-outside-1_1_9657" maskUnits="userSpaceOnUse" x="31.6582" y="8.83032" width="84" height="12" fill="black">
<rect fill="white" x="31.6582" y="8.83032" width="84" height="12"/>
<path fill-rule="evenodd" clip-rule="evenodd" d="M90.8876 9.83032H80.8621V10.9982H85.3179V20.1972H86.4498V10.9982H90.8876V9.83032ZM96.9964 9.84829V20.2152H98.1283V9.84829H96.9964ZM114.658 9.83032H113.203L109.483 14.4478H106.249V9.84829H105.099V20.2152H106.231V15.6157H109.465L113.203 20.2152H114.676L110.472 15.0228L114.658 9.83032ZM58.3149 10.9982V9.83035H49.1698V20.2152H58.3149V19.0474H50.2837V15.6157H56.7338V14.4299H50.2837V10.9982H58.3149ZM34.3291 10.9982H42.6658V9.88425H34.3291C34.2213 9.88425 34.1135 9.90221 34.0057 9.92018C33.8979 9.93815 33.7901 9.97408 33.6823 10.01C33.5745 10.0459 33.4847 10.0998 33.3949 10.1537L33.3948 10.1538L33.3948 10.1538C33.305 10.2256 33.2152 10.2975 33.1433 10.3694C33.0535 10.4412 32.9816 10.5311 32.9277 10.6209C32.8738 10.7107 32.8199 10.8185 32.784 10.9263C32.748 11.0341 32.7121 11.1419 32.6941 11.2497C32.6762 11.3575 32.6582 11.4653 32.6582 11.5731V18.5263C32.6582 18.6341 32.6762 18.7419 32.6941 18.8497C32.7121 18.9575 32.748 19.0653 32.784 19.1731L32.784 19.1731C32.8738 19.3708 32.9816 19.5504 33.1433 19.7121C33.1882 19.7481 33.2286 19.784 33.2691 19.8199C33.3095 19.8559 33.3499 19.8918 33.3948 19.9277C33.4847 19.9816 33.5745 20.0355 33.6823 20.0715C33.7901 20.1074 33.8979 20.1433 34.0057 20.1613L34.0057 20.1613C34.1135 20.1793 34.2213 20.1972 34.3291 20.1972H42.6658V19.0294H34.3291C34.2573 19.0294 34.1854 19.0114 34.1135 18.9935L34.1135 18.9935L34.1135 18.9934C34.0596 18.9575 34.0057 18.9216 33.9518 18.8677C33.8979 18.8138 33.862 18.7599 33.844 18.688C33.826 18.6162 33.8081 18.5443 33.8081 18.4724V11.5552C33.8081 11.4833 33.826 11.4114 33.844 11.3396C33.862 11.2677 33.8979 11.2138 33.9518 11.1599C33.9877 11.106 34.0416 11.0521 34.1135 11.0341L34.1135 11.0341C34.1854 11.0162 34.2573 10.9982 34.3291 10.9982ZM74.8616 11.59V14.6264C74.8616 14.7342 74.8437 14.842 74.8257 14.9498C74.8077 15.0576 74.7718 15.1654 74.7359 15.2732C74.6999 15.381 74.646 15.4888 74.5921 15.5786C74.573 15.6026 74.5551 15.6266 74.5374 15.6502C74.4889 15.7151 74.4424 15.7775 74.3765 15.8302C74.3047 15.902 74.2148 15.9739 74.125 16.0458C74.0352 16.0997 73.9453 16.1536 73.8375 16.1895L73.5141 16.2973L73.5141 16.2973C73.4063 16.3153 73.2985 16.3332 73.1907 16.3332H71.6635L74.8077 20.1961H73.2985L70.1723 16.3332H66.507C66.3274 16.3332 66.1477 16.3153 65.968 16.2793V20.1961H64.8361V9.84719H73.2087C73.3165 9.84719 73.4243 9.86515 73.5321 9.88311L73.5321 9.88312C73.6399 9.90109 73.7477 9.93702 73.8555 9.97295L73.8555 9.97296C73.9633 10.0089 74.0531 10.0628 74.143 10.1347C74.3226 10.2604 74.4664 10.4221 74.5921 10.6018C74.646 10.6916 74.6999 10.7994 74.7359 10.9072C74.7718 11.015 74.8077 11.1228 74.8257 11.2306C74.8437 11.3564 74.8616 11.4822 74.8616 11.59ZM66.4891 15.1834H73.1907C73.2626 15.1834 73.3345 15.1654 73.4063 15.1474C73.4782 15.1294 73.5321 15.0935 73.568 15.0217C73.6219 14.9678 73.6579 14.9139 73.6758 14.842L73.6759 14.8419C73.6938 14.7701 73.7118 14.6982 73.7118 14.6264V11.59C73.7118 11.4462 73.6579 11.3025 73.568 11.1947C73.4782 11.0869 73.3345 11.015 73.1907 11.015H66.4891C66.4172 11.015 66.3453 11.033 66.2735 11.051C66.2016 11.0689 66.1477 11.1228 66.1118 11.1767C66.0579 11.2306 66.0219 11.2845 66.004 11.3564C65.986 11.4283 65.968 11.5001 65.968 11.572V14.6084C65.968 14.7521 66.0219 14.8959 66.1477 15.0037C66.2196 15.1115 66.3633 15.1834 66.4891 15.1834Z"/>
</mask>
<path fill-rule="evenodd" clip-rule="evenodd" d="M90.8876 9.83032H80.8621V10.9982H85.3179V20.1972H86.4498V10.9982H90.8876V9.83032ZM96.9964 9.84829V20.2152H98.1283V9.84829H96.9964ZM114.658 9.83032H113.203L109.483 14.4478H106.249V9.84829H105.099V20.2152H106.231V15.6157H109.465L113.203 20.2152H114.676L110.472 15.0228L114.658 9.83032ZM58.3149 10.9982V9.83035H49.1698V20.2152H58.3149V19.0474H50.2837V15.6157H56.7338V14.4299H50.2837V10.9982H58.3149ZM34.3291 10.9982H42.6658V9.88425H34.3291C34.2213 9.88425 34.1135 9.90221 34.0057 9.92018C33.8979 9.93815 33.7901 9.97408 33.6823 10.01C33.5745 10.0459 33.4847 10.0998 33.3949 10.1537L33.3948 10.1538L33.3948 10.1538C33.305 10.2256 33.2152 10.2975 33.1433 10.3694C33.0535 10.4412 32.9816 10.5311 32.9277 10.6209C32.8738 10.7107 32.8199 10.8185 32.784 10.9263C32.748 11.0341 32.7121 11.1419 32.6941 11.2497C32.6762 11.3575 32.6582 11.4653 32.6582 11.5731V18.5263C32.6582 18.6341 32.6762 18.7419 32.6941 18.8497C32.7121 18.9575 32.748 19.0653 32.784 19.1731L32.784 19.1731C32.8738 19.3708 32.9816 19.5504 33.1433 19.7121C33.1882 19.7481 33.2286 19.784 33.2691 19.8199C33.3095 19.8559 33.3499 19.8918 33.3948 19.9277C33.4847 19.9816 33.5745 20.0355 33.6823 20.0715C33.7901 20.1074 33.8979 20.1433 34.0057 20.1613L34.0057 20.1613C34.1135 20.1793 34.2213 20.1972 34.3291 20.1972H42.6658V19.0294H34.3291C34.2573 19.0294 34.1854 19.0114 34.1135 18.9935L34.1135 18.9935L34.1135 18.9934C34.0596 18.9575 34.0057 18.9216 33.9518 18.8677C33.8979 18.8138 33.862 18.7599 33.844 18.688C33.826 18.6162 33.8081 18.5443 33.8081 18.4724V11.5552C33.8081 11.4833 33.826 11.4114 33.844 11.3396C33.862 11.2677 33.8979 11.2138 33.9518 11.1599C33.9877 11.106 34.0416 11.0521 34.1135 11.0341L34.1135 11.0341C34.1854 11.0162 34.2573 10.9982 34.3291 10.9982ZM74.8616 11.59V14.6264C74.8616 14.7342 74.8437 14.842 74.8257 14.9498C74.8077 15.0576 74.7718 15.1654 74.7359 15.2732C74.6999 15.381 74.646 15.4888 74.5921 15.5786C74.573 15.6026 74.5551 15.6266 74.5374 15.6502C74.4889 15.7151 74.4424 15.7775 74.3765 15.8302C74.3047 15.902 74.2148 15.9739 74.125 16.0458C74.0352 16.0997 73.9453 16.1536 73.8375 16.1895L73.5141 16.2973L73.5141 16.2973C73.4063 16.3153 73.2985 16.3332 73.1907 16.3332H71.6635L74.8077 20.1961H73.2985L70.1723 16.3332H66.507C66.3274 16.3332 66.1477 16.3153 65.968 16.2793V20.1961H64.8361V9.84719H73.2087C73.3165 9.84719 73.4243 9.86515 73.5321 9.88311L73.5321 9.88312C73.6399 9.90109 73.7477 9.93702 73.8555 9.97295L73.8555 9.97296C73.9633 10.0089 74.0531 10.0628 74.143 10.1347C74.3226 10.2604 74.4664 10.4221 74.5921 10.6018C74.646 10.6916 74.6999 10.7994 74.7359 10.9072C74.7718 11.015 74.8077 11.1228 74.8257 11.2306C74.8437 11.3564 74.8616 11.4822 74.8616 11.59ZM66.4891 15.1834H73.1907C73.2626 15.1834 73.3345 15.1654 73.4063 15.1474C73.4782 15.1294 73.5321 15.0935 73.568 15.0217C73.6219 14.9678 73.6579 14.9139 73.6758 14.842L73.6759 14.8419C73.6938 14.7701 73.7118 14.6982 73.7118 14.6264V11.59C73.7118 11.4462 73.6579 11.3025 73.568 11.1947C73.4782 11.0869 73.3345 11.015 73.1907 11.015H66.4891C66.4172 11.015 66.3453 11.033 66.2735 11.051C66.2016 11.0689 66.1477 11.1228 66.1118 11.1767C66.0579 11.2306 66.0219 11.2845 66.004 11.3564C65.986 11.4283 65.968 11.5001 65.968 11.572V14.6084C65.968 14.7521 66.0219 14.8959 66.1477 15.0037C66.2196 15.1115 66.3633 15.1834 66.4891 15.1834Z" fill="black"/>
<path d="M80.8621 9.83032V9.63032H80.6621V9.83032H80.8621ZM90.8876 9.83032H91.0876V9.63032H90.8876V9.83032ZM80.8621 10.9982H80.6621V11.1982H80.8621V10.9982ZM85.3179 10.9982H85.5179V10.7982H85.3179V10.9982ZM85.3179 20.1972H85.1179V20.3972H85.3179V20.1972ZM86.4498 20.1972V20.3972H86.6498V20.1972H86.4498ZM86.4498 10.9982V10.7982H86.2498V10.9982H86.4498ZM90.8876 10.9982V11.1982H91.0876V10.9982H90.8876ZM96.9964 20.2152H96.7964V20.4152H96.9964V20.2152ZM96.9964 9.84829V9.64829H96.7964V9.84829H96.9964ZM98.1283 20.2152V20.4152H98.3283V20.2152H98.1283ZM98.1283 9.84829H98.3283V9.64829H98.1283V9.84829ZM113.203 9.83032V9.63032H113.107L113.047 9.70487L113.203 9.83032ZM114.658 9.83032L114.814 9.95585L115.076 9.63032H114.658V9.83032ZM109.483 14.4478V14.6478H109.579L109.639 14.5733L109.483 14.4478ZM106.249 14.4478H106.049V14.6478H106.249V14.4478ZM106.249 9.84829H106.449V9.64829H106.249V9.84829ZM105.099 9.84829V9.64829H104.899V9.84829H105.099ZM105.099 20.2152H104.899V20.4152H105.099V20.2152ZM106.231 20.2152V20.4152H106.431V20.2152H106.231ZM106.231 15.6157V15.4157H106.031V15.6157H106.231ZM109.465 15.6157L109.621 15.4895L109.561 15.4157H109.465V15.6157ZM113.203 20.2152L113.047 20.3413L113.107 20.4152H113.203V20.2152ZM114.676 20.2152V20.4152H115.095L114.831 20.0893L114.676 20.2152ZM110.472 15.0228L110.316 14.8972L110.214 15.023L110.316 15.1486L110.472 15.0228ZM58.3149 9.83035H58.5149V9.63035H58.3149V9.83035ZM58.3149 10.9982V11.1982H58.5149V10.9982H58.3149ZM49.1698 9.83035V9.63035H48.9698V9.83035H49.1698ZM49.1698 20.2152H48.9698V20.4152H49.1698V20.2152ZM58.3149 20.2152V20.4152H58.5149V20.2152H58.3149ZM58.3149 19.0474H58.5149V18.8474H58.3149V19.0474ZM50.2837 19.0474H50.0837V19.2474H50.2837V19.0474ZM50.2837 15.6157V15.4157H50.0837V15.6157H50.2837ZM56.7338 15.6157V15.8157H56.9338V15.6157H56.7338ZM56.7338 14.4299H56.9338V14.2299H56.7338V14.4299ZM50.2837 14.4299H50.0837V14.6299H50.2837V14.4299ZM50.2837 10.9982V10.7982H50.0837V10.9982H50.2837ZM42.6658 10.9982V11.1982H42.8658V10.9982H42.6658ZM42.6658 9.88425H42.8658V9.68425H42.6658V9.88425ZM34.0057 9.92018L34.0386 10.1175H34.0386L34.0057 9.92018ZM33.6823 10.01L33.6191 9.82028L33.6191 9.82028L33.6823 10.01ZM33.3949 10.1537L33.292 9.98224L33.2915 9.98251L33.3949 10.1537ZM33.3948 10.1538L33.2915 9.98253L33.2801 9.98938L33.2698 9.99767L33.3948 10.1538ZM33.3948 10.1538L33.5197 10.31L33.5199 10.3099L33.3948 10.1538ZM33.1433 10.3694L33.2682 10.5255L33.2769 10.5186L33.2847 10.5108L33.1433 10.3694ZM32.9277 10.6209L33.0992 10.7238L33.0992 10.7238L32.9277 10.6209ZM32.784 10.9263L32.9737 10.9896H32.9737L32.784 10.9263ZM32.6941 11.2497L32.8914 11.2826L32.8914 11.2826L32.6941 11.2497ZM32.6941 18.8497L32.8914 18.8168H32.8914L32.6941 18.8497ZM32.784 19.1731L32.5942 19.2364L32.5949 19.2384L32.784 19.1731ZM32.784 19.1731L32.5949 19.2385L32.598 19.2473L32.6019 19.2559L32.784 19.1731ZM33.1433 19.7121L33.0019 19.8536L33.0097 19.8614L33.0184 19.8683L33.1433 19.7121ZM33.2691 19.8199L33.1362 19.9694H33.1362L33.2691 19.8199ZM33.3948 19.9277L33.2699 20.0839L33.2804 20.0923L33.2919 20.0992L33.3948 19.9277ZM33.6823 20.0715L33.7456 19.8817H33.7456L33.6823 20.0715ZM34.0057 20.1613L34.0486 19.9657L34.0386 19.964L34.0057 20.1613ZM34.0057 20.1613L33.9629 20.3569L33.9729 20.3586L34.0057 20.1613ZM42.6658 20.1972V20.3972H42.8658V20.1972H42.6658ZM42.6658 19.0294H42.8658V18.8294H42.6658V19.0294ZM34.1135 18.9935L34.1621 18.7992L34.1528 18.7973L34.1135 18.9935ZM34.1135 18.9935L33.9973 19.1562L34.0322 19.1812L34.0743 19.1896L34.1135 18.9935ZM34.1135 18.9934L34.2298 18.8306L34.2244 18.827L34.1135 18.9934ZM33.9518 18.8677L33.8104 19.0091H33.8104L33.9518 18.8677ZM33.844 18.688L34.038 18.6395L34.038 18.6395L33.844 18.688ZM33.9518 11.1599L34.0932 11.3013L34.1072 11.2873L34.1182 11.2708L33.9518 11.1599ZM34.1135 11.0341L34.162 11.2282H34.162L34.1135 11.0341ZM74.7359 15.2732L74.5461 15.2099L74.7359 15.2732ZM74.5921 15.5786L74.7483 15.7036L74.7567 15.6931L74.7636 15.6815L74.5921 15.5786ZM74.5374 15.6502L74.3772 15.5305L74.3772 15.5306L74.5374 15.6502ZM74.3765 15.8302L74.2516 15.674L74.243 15.6809L74.2351 15.6887L74.3765 15.8302ZM74.125 16.0458L74.2279 16.2173L74.2394 16.2103L74.2499 16.2019L74.125 16.0458ZM73.8375 16.1895L73.9008 16.3792V16.3792L73.8375 16.1895ZM73.5141 16.2973L73.545 16.4949L73.5615 16.4923L73.5774 16.487L73.5141 16.2973ZM73.5141 16.2973L73.4832 16.0997L73.4812 16.1L73.5141 16.2973ZM71.6635 16.3332V16.1332H71.2429L71.5084 16.4595L71.6635 16.3332ZM74.8077 20.1961V20.3961H75.2284L74.9629 20.0699L74.8077 20.1961ZM73.2985 20.1961L73.1431 20.3219L73.2031 20.3961H73.2985V20.1961ZM70.1723 16.3332L70.3278 16.2074L70.2677 16.1332H70.1723V16.3332ZM65.968 16.2793L66.0073 16.0832L65.768 16.0354V16.2793H65.968ZM65.968 20.1961V20.3961H66.168V20.1961H65.968ZM64.8361 20.1961H64.6361V20.3961H64.8361V20.1961ZM64.8361 9.84719V9.64719H64.6361V9.84719H64.8361ZM73.5321 9.88311L73.5697 9.68662L73.5649 9.68584L73.5321 9.88311ZM73.5321 9.88312L73.4945 10.0796L73.4992 10.0804L73.5321 9.88312ZM73.8555 9.97295L73.7922 10.1627L73.7926 10.1628L73.8555 9.97295ZM73.8555 9.97296L73.9188 9.78322L73.9184 9.78311L73.8555 9.97296ZM74.143 10.1347L74.0178 10.2912L74.0283 10.2985L74.143 10.1347ZM74.5921 10.6018L74.7641 10.4986L74.756 10.4871L74.5921 10.6018ZM74.8257 11.2306L75.0238 11.2023L75.023 11.1978L74.8257 11.2306ZM73.4063 15.1474L73.4548 15.3414V15.3414L73.4063 15.1474ZM73.568 15.0217L73.4266 14.8802L73.4037 14.9032L73.3891 14.9322L73.568 15.0217ZM73.6758 14.842L73.4824 14.7912L73.4818 14.7935L73.6758 14.842ZM73.6759 14.8419L73.8693 14.8926L73.8699 14.8904L73.6759 14.8419ZM73.568 11.1947L73.7217 11.0667V11.0667L73.568 11.1947ZM66.1118 11.1767L66.2532 11.3182L66.2672 11.3042L66.2782 11.2877L66.1118 11.1767ZM66.004 11.3564L66.198 11.4049V11.4049L66.004 11.3564ZM66.1477 15.0037L66.3141 14.8927L66.2988 14.8698L66.2779 14.8518L66.1477 15.0037ZM80.8621 10.0303H90.8876V9.63032H80.8621V10.0303ZM81.0621 10.9982V9.83032H80.6621V10.9982H81.0621ZM85.3179 10.7982H80.8621V11.1982H85.3179V10.7982ZM85.5179 20.1972V10.9982H85.1179V20.1972H85.5179ZM86.4498 19.9972H85.3179V20.3972H86.4498V19.9972ZM86.2498 10.9982V20.1972H86.6498V10.9982H86.2498ZM90.8876 10.7982H86.4498V11.1982H90.8876V10.7982ZM90.6876 9.83032V10.9982H91.0876V9.83032H90.6876ZM97.1964 20.2152V9.84829H96.7964V20.2152H97.1964ZM98.1283 20.0152H96.9964V20.4152H98.1283V20.0152ZM97.9283 9.84829V20.2152H98.3283V9.84829H97.9283ZM96.9964 10.0483H98.1283V9.64829H96.9964V10.0483ZM113.203 10.0303H114.658V9.63032H113.203V10.0303ZM109.639 14.5733L113.358 9.95578L113.047 9.70487L109.328 14.3224L109.639 14.5733ZM106.249 14.6478H109.483V14.2478H106.249V14.6478ZM106.049 9.84829V14.4478H106.449V9.84829H106.049ZM105.099 10.0483H106.249V9.64829H105.099V10.0483ZM105.299 20.2152V9.84829H104.899V20.2152H105.299ZM106.231 20.0152H105.099V20.4152H106.231V20.0152ZM106.031 15.6157V20.2152H106.431V15.6157H106.031ZM109.465 15.4157H106.231V15.8157H109.465V15.4157ZM113.358 20.0891L109.621 15.4895L109.31 15.7418L113.047 20.3413L113.358 20.0891ZM114.676 20.0152H113.203V20.4152H114.676V20.0152ZM110.316 15.1486L114.52 20.341L114.831 20.0893L110.627 14.8969L110.316 15.1486ZM114.502 9.70479L110.316 14.8972L110.627 15.1483L114.814 9.95585L114.502 9.70479ZM58.1149 9.83035V10.9982H58.5149V9.83035H58.1149ZM49.1698 10.0303H58.3149V9.63035H49.1698V10.0303ZM49.3698 20.2152V9.83035H48.9698V20.2152H49.3698ZM58.3149 20.0152H49.1698V20.4152H58.3149V20.0152ZM58.1149 19.0474V20.2152H58.5149V19.0474H58.1149ZM50.2837 19.2474H58.3149V18.8474H50.2837V19.2474ZM50.0837 15.6157V19.0474H50.4837V15.6157H50.0837ZM56.7338 15.4157H50.2837V15.8157H56.7338V15.4157ZM56.5338 14.4299V15.6157H56.9338V14.4299H56.5338ZM50.2837 14.6299H56.7338V14.2299H50.2837V14.6299ZM50.0837 10.9982V14.4299H50.4837V10.9982H50.0837ZM58.3149 10.7982H50.2837V11.1982H58.3149V10.7982ZM42.6658 10.7982H34.3291V11.1982H42.6658V10.7982ZM42.4658 9.88425V10.9982H42.8658V9.88425H42.4658ZM34.3291 10.0842H42.6658V9.68425H34.3291V10.0842ZM34.0386 10.1175C34.1493 10.099 34.2407 10.0842 34.3291 10.0842V9.68425C34.202 9.68425 34.0777 9.70542 33.9728 9.7229L34.0386 10.1175ZM33.7456 10.1998C33.8563 10.1628 33.949 10.1324 34.0386 10.1175L33.9728 9.7229C33.8468 9.7439 33.7239 9.78533 33.6191 9.82028L33.7456 10.1998ZM33.4978 10.3252C33.5897 10.2701 33.6616 10.2277 33.7456 10.1998L33.6191 9.82028C33.4874 9.86416 33.3797 9.9296 33.292 9.98224L33.4978 10.3252ZM33.4982 10.325L33.4982 10.325L33.2915 9.98251L33.2915 9.98253L33.4982 10.325ZM33.5199 10.3099L33.5199 10.3098L33.2698 9.99767L33.2698 9.9977L33.5199 10.3099ZM33.2847 10.5108C33.3472 10.4483 33.4277 10.3836 33.5197 10.31L33.2699 9.99761C33.1823 10.0677 33.0831 10.1467 33.0019 10.2279L33.2847 10.5108ZM33.0992 10.7238C33.1436 10.6499 33.2007 10.5796 33.2682 10.5255L33.0184 10.2132C32.9063 10.3028 32.8196 10.4123 32.7562 10.518L33.0992 10.7238ZM32.9737 10.9896C33.0038 10.8992 33.0506 10.8048 33.0992 10.7238L32.7562 10.518C32.697 10.6166 32.636 10.7379 32.5942 10.8631L32.9737 10.9896ZM32.8914 11.2826C32.9063 11.193 32.9368 11.1003 32.9737 10.9896L32.5942 10.8631C32.5593 10.9679 32.5179 11.0908 32.4969 11.2169L32.8914 11.2826ZM32.8582 11.5731C32.8582 11.4847 32.873 11.3933 32.8914 11.2826L32.4969 11.2169C32.4794 11.3217 32.4582 11.446 32.4582 11.5731H32.8582ZM32.8582 18.5263V11.5731H32.4582V18.5263H32.8582ZM32.8914 18.8168C32.873 18.7061 32.8582 18.6148 32.8582 18.5263H32.4582C32.4582 18.6535 32.4794 18.7777 32.4969 18.8826L32.8914 18.8168ZM32.9737 19.1099C32.9368 18.9991 32.9063 18.9064 32.8914 18.8168L32.4969 18.8826C32.5179 19.0086 32.5593 19.1315 32.5942 19.2363L32.9737 19.1099ZM32.973 19.1078L32.973 19.1078L32.5949 19.2384L32.5949 19.2385L32.973 19.1078ZM33.2847 19.5707C33.1452 19.4312 33.0495 19.2741 32.966 19.0904L32.6019 19.2559C32.6981 19.4674 32.818 19.6697 33.0019 19.8536L33.2847 19.5707ZM33.4019 19.6705C33.362 19.6349 33.3178 19.5956 33.2682 19.556L33.0184 19.8683C33.0586 19.9005 33.0953 19.9331 33.1362 19.9694L33.4019 19.6705ZM33.5198 19.7716C33.4795 19.7394 33.4428 19.7068 33.4019 19.6705L33.1362 19.9694C33.1762 20.0049 33.2203 20.0442 33.2699 20.0839L33.5198 19.7716ZM33.7456 19.8817C33.6616 19.8538 33.5897 19.8114 33.4977 19.7562L33.2919 20.0992C33.3797 20.1519 33.4874 20.2173 33.6191 20.2612L33.7456 19.8817ZM34.0386 19.964C33.949 19.9491 33.8563 19.9187 33.7456 19.8817L33.6191 20.2612C33.7239 20.2962 33.8468 20.3376 33.9728 20.3586L34.0386 19.964ZM34.0486 19.9659L34.0485 19.9659L33.9629 20.3567L33.9629 20.3567L34.0486 19.9659ZM34.3291 19.9972C34.2407 19.9972 34.1494 19.9825 34.0386 19.964L33.9729 20.3586C34.0777 20.3761 34.202 20.3972 34.3291 20.3972V19.9972ZM42.6658 19.9972H34.3291V20.3972H42.6658V19.9972ZM42.4658 19.0294V20.1972H42.8658V19.0294H42.4658ZM34.3291 19.2294H42.6658V18.8294H34.3291V19.2294ZM34.065 19.1875C34.1322 19.2043 34.2283 19.2294 34.3291 19.2294V18.8294C34.2862 18.8294 34.2386 18.8186 34.162 18.7994L34.065 19.1875ZM34.0743 19.1896L34.0743 19.1896L34.1528 18.7973L34.1527 18.7973L34.0743 19.1896ZM33.9972 19.1562L33.9973 19.1562L34.2298 18.8307L34.2297 18.8307L33.9972 19.1562ZM33.8104 19.0091C33.88 19.0787 33.9494 19.1244 34.0026 19.1599L34.2244 18.827C34.1698 18.7906 34.1314 18.7645 34.0932 18.7263L33.8104 19.0091ZM33.65 18.7365C33.679 18.8527 33.7385 18.9372 33.8104 19.0091L34.0932 18.7263C34.0574 18.6904 34.0449 18.6671 34.038 18.6395L33.65 18.7365ZM33.6081 18.4724C33.6081 18.5732 33.6332 18.6693 33.65 18.7365L34.038 18.6395C34.0189 18.563 34.0081 18.5154 34.0081 18.4724H33.6081ZM33.6081 11.5552V18.4724H34.0081V11.5552H33.6081ZM33.65 11.2911C33.6332 11.3582 33.6081 11.4544 33.6081 11.5552H34.0081C34.0081 11.5122 34.0189 11.4646 34.038 11.3881L33.65 11.2911ZM33.8104 11.0185C33.7385 11.0904 33.679 11.1749 33.65 11.2911L34.038 11.3881C34.0449 11.3605 34.0574 11.3372 34.0932 11.3013L33.8104 11.0185ZM34.065 10.8401C33.9248 10.8751 33.8348 10.9749 33.7854 11.049L34.1182 11.2708C34.1281 11.256 34.1382 11.2447 34.1472 11.2372C34.1559 11.23 34.1608 11.2285 34.162 11.2282L34.065 10.8401ZM34.065 10.8401L34.065 10.8401L34.162 11.2282L34.162 11.2282L34.065 10.8401ZM34.3291 10.7982C34.2283 10.7982 34.1322 10.8233 34.065 10.8401L34.162 11.2282C34.2386 11.209 34.2862 11.1982 34.3291 11.1982V10.7982ZM75.0616 14.6264V11.59H74.6616V14.6264H75.0616ZM75.023 14.9827C75.0405 14.8778 75.0616 14.7536 75.0616 14.6264H74.6616C74.6616 14.7148 74.6469 14.8062 74.6284 14.9169L75.023 14.9827ZM74.9256 15.3364C74.9606 15.2316 75.002 15.1087 75.023 14.9827L74.6284 14.9169C74.6135 15.0065 74.5831 15.0992 74.5461 15.2099L74.9256 15.3364ZM74.7636 15.6815C74.8228 15.5829 74.8839 15.4616 74.9256 15.3364L74.5461 15.2099C74.516 15.3003 74.4693 15.3947 74.4206 15.4757L74.7636 15.6815ZM74.6977 15.7699C74.7156 15.7458 74.7316 15.7245 74.7483 15.7036L74.436 15.4537C74.4144 15.4807 74.3945 15.5073 74.3772 15.5305L74.6977 15.7699ZM74.5015 15.9863C74.5903 15.9153 74.6511 15.8322 74.6977 15.7699L74.3772 15.5306C74.3268 15.598 74.2945 15.6397 74.2516 15.674L74.5015 15.9863ZM74.2499 16.2019C74.3375 16.1319 74.4367 16.0528 74.518 15.9716L74.2351 15.6887C74.1726 15.7512 74.0921 15.8159 74.0001 15.8896L74.2499 16.2019ZM73.9008 16.3792C74.0324 16.3353 74.1402 16.2699 74.2279 16.2173L74.0221 15.8743C73.9302 15.9294 73.8582 15.9718 73.7743 15.9998L73.9008 16.3792ZM73.5774 16.487L73.9008 16.3792L73.7743 15.9998L73.4509 16.1076L73.5774 16.487ZM73.545 16.4949L73.545 16.4949L73.4833 16.0997L73.4832 16.0997L73.545 16.4949ZM73.1907 16.5332C73.3179 16.5332 73.4421 16.5121 73.547 16.4946L73.4812 16.1C73.3705 16.1185 73.2791 16.1332 73.1907 16.1332V16.5332ZM71.6635 16.5332H73.1907V16.1332H71.6635V16.5332ZM74.9629 20.0699L71.8187 16.207L71.5084 16.4595L74.6526 20.3224L74.9629 20.0699ZM73.2985 20.3961H74.8077V19.9961H73.2985V20.3961ZM70.0168 16.4591L73.1431 20.3219L73.454 20.0703L70.3278 16.2074L70.0168 16.4591ZM66.507 16.5332H70.1723V16.1332H66.507V16.5332ZM65.9288 16.4755C66.1211 16.5139 66.3139 16.5332 66.507 16.5332V16.1332C66.3408 16.1332 66.1743 16.1166 66.0073 16.0832L65.9288 16.4755ZM66.168 20.1961V16.2793H65.768V20.1961H66.168ZM64.8361 20.3961H65.968V19.9961H64.8361V20.3961ZM64.6361 9.84719V20.1961H65.0361V9.84719H64.6361ZM73.2087 9.64719H64.8361V10.0472H73.2087V9.64719ZM73.5649 9.68584C73.4601 9.66836 73.3359 9.64719 73.2087 9.64719V10.0472C73.2971 10.0472 73.3885 10.0619 73.4992 10.0804L73.5649 9.68584ZM73.5697 9.68669L73.5697 9.68668L73.4945 10.0795L73.4945 10.0796L73.5697 9.68669ZM73.9187 9.78321C73.8139 9.74827 73.691 9.70684 73.565 9.68584L73.4992 10.0804C73.5888 10.0953 73.6815 10.1258 73.7922 10.1627L73.9187 9.78321ZM73.9184 9.78311L73.9184 9.7831L73.7926 10.1628L73.7926 10.1628L73.9184 9.78311ZM74.2679 9.97848C74.1643 9.89562 74.054 9.8283 73.9188 9.78322L73.7923 10.1627C73.8726 10.1895 73.9419 10.23 74.018 10.2908L74.2679 9.97848ZM74.756 10.4871C74.6218 10.2954 74.4624 10.1142 74.2577 9.97081L74.0283 10.2985C74.1828 10.4067 74.311 10.5489 74.4283 10.7165L74.756 10.4871ZM74.9256 10.844C74.8839 10.7188 74.8228 10.5976 74.7636 10.4989L74.4206 10.7047C74.4693 10.7857 74.516 10.8801 74.5461 10.9705L74.9256 10.844ZM75.023 11.1978C75.002 11.0717 74.9606 10.9488 74.9256 10.844L74.5461 10.9705C74.5831 11.0812 74.6135 11.1739 74.6284 11.2635L75.023 11.1978ZM75.0616 11.59C75.0616 11.4651 75.0411 11.324 75.0237 11.2024L74.6277 11.2589C74.6463 11.3888 74.6616 11.4993 74.6616 11.59H75.0616ZM73.1907 14.9834H66.4891V15.3834H73.1907V14.9834ZM73.3578 14.9534C73.2813 14.9725 73.2337 14.9834 73.1907 14.9834V15.3834C73.2915 15.3834 73.3877 15.3582 73.4548 15.3414L73.3578 14.9534ZM73.3891 14.9322C73.3862 14.9382 73.3839 14.9413 73.3828 14.9426C73.3817 14.9439 73.3811 14.9444 73.3807 14.9447C73.38 14.9452 73.3747 14.9492 73.3578 14.9534L73.4548 15.3414C73.5737 15.3117 73.6807 15.2434 73.7469 15.1111L73.3891 14.9322ZM73.4818 14.7935C73.4749 14.821 73.4625 14.8444 73.4266 14.8802L73.7094 15.1631C73.7814 15.0911 73.8408 15.0067 73.8699 14.8905L73.4818 14.7935ZM73.4824 14.7912L73.4824 14.7912L73.8693 14.8927L73.8693 14.8926L73.4824 14.7912ZM73.5118 14.6264C73.5118 14.6693 73.501 14.7169 73.4818 14.7934L73.8699 14.8904C73.8867 14.8232 73.9118 14.7271 73.9118 14.6264H73.5118ZM73.5118 11.59V14.6264H73.9118V11.59H73.5118ZM73.4144 11.3227C73.475 11.3955 73.5118 11.4942 73.5118 11.59H73.9118C73.9118 11.3983 73.8407 11.2095 73.7217 11.0667L73.4144 11.3227ZM73.1907 11.215C73.2717 11.215 73.3603 11.2578 73.4144 11.3227L73.7217 11.0667C73.5961 10.916 73.3972 10.815 73.1907 10.815V11.215ZM66.4891 11.215H73.1907V10.815H66.4891V11.215ZM66.322 11.245C66.3985 11.2259 66.4461 11.215 66.4891 11.215V10.815C66.3883 10.815 66.2921 10.8401 66.225 10.8569L66.322 11.245ZM66.2782 11.2877C66.288 11.2729 66.2982 11.2615 66.3072 11.254C66.3158 11.2468 66.3208 11.2453 66.322 11.245L66.225 10.8569C66.0848 10.892 65.9947 10.9917 65.9454 11.0658L66.2782 11.2877ZM66.198 11.4049C66.2049 11.3774 66.2173 11.354 66.2532 11.3182L65.9704 11.0353C65.8984 11.1072 65.839 11.1917 65.8099 11.3079L66.198 11.4049ZM66.168 11.572C66.168 11.5291 66.1789 11.4815 66.198 11.4049L65.8099 11.3079C65.7931 11.3751 65.768 11.4712 65.768 11.572H66.168ZM66.168 14.6084V11.572H65.768V14.6084H66.168ZM66.2779 14.8518C66.2012 14.7862 66.168 14.7004 66.168 14.6084H65.768C65.768 14.8039 65.8426 15.0056 66.0175 15.1555L66.2779 14.8518ZM66.4891 14.9834C66.4262 14.9834 66.3467 14.9417 66.3141 14.8927L65.9813 15.1146C66.0924 15.2813 66.3004 15.3834 66.4891 15.3834V14.9834Z" fill="black" mask="url(#path-5-outside-1_1_9657)"/>
</svg>
