<svg width="280" height="205" viewBox="0 0 280 205" fill="none" xmlns="http://www.w3.org/2000/svg">
<g clip-path="url(#clip0_2037_57410)">
<path d="M64.294 20.5H238.44C244.199 20.5 248.867 25.1664 248.867 30.9223V174.278C248.867 180.034 244.199 184.7 238.44 184.7H64.294C58.5352 184.7 53.8672 180.034 53.8672 174.278V30.9223C53.8672 25.1664 58.5352 20.5 64.294 20.5Z" fill="#F6F7F2" stroke="#AFB3BB"/>
<g filter="url(#filter0_d_2037_57410)">
<path d="M222.745 41.1621H22.8293C19.0576 41.1621 16 44.2184 16 47.9886V169.882C16 173.652 19.0576 176.709 22.8293 176.709H222.745C226.517 176.709 229.574 173.652 229.574 169.882V47.9886C229.574 44.2184 226.517 41.1621 222.745 41.1621Z" fill="white"/>
<path d="M222.746 41.8447H22.8299C19.4354 41.8447 16.6836 44.5954 16.6836 47.9885V169.882C16.6836 173.275 19.4354 176.026 22.8299 176.026H222.746C226.14 176.026 228.892 173.275 228.892 169.882V47.9885C228.892 44.5954 226.14 41.8447 222.746 41.8447Z" stroke="black" stroke-width="2"/>
</g>
<path d="M187.329 105.646C185.66 111.062 179.905 114.282 174.615 112.655C169.324 111.028 166.38 105.134 168.049 99.7166C169.719 94.3 175.371 91.4125 180.662 93.0394C186.98 94.9826 188.999 100.229 187.329 105.646Z" fill="#CEB103"/>
<path d="M187.329 105.646C185.66 111.062 179.905 114.282 174.615 112.655C169.324 111.028 166.38 105.134 168.049 99.7166C169.719 94.3 175.371 91.4125 180.662 93.0394C186.98 94.9826 188.999 100.229 187.329 105.646Z" stroke="black" stroke-width="0.300546"/>
<path d="M173.566 112.299C178.89 113.935 184.561 110.87 186.232 105.454C187.903 100.037 184.941 94.3201 179.617 92.6841C174.293 91.048 168.622 94.1126 166.951 99.529C165.28 104.945 168.242 110.663 173.566 112.299Z" fill="#FEDA03" stroke="black" stroke-width="0.300546"/>
<path fill-rule="evenodd" clip-rule="evenodd" d="M178.599 103.683L178.285 97.0705L173.397 100.873L175.12 104.013L178.599 103.683ZM173.713 107.137L173.046 101.567L174.768 104.707L178.25 104.029L173.713 107.137Z" fill="black"/>
<path d="M178.287 97.0707L178.344 97.0679L178.339 96.9581L178.252 97.0257L178.287 97.0707ZM178.601 103.683L178.606 103.74L178.661 103.735L178.658 103.681L178.601 103.683ZM173.399 100.873L173.364 100.828L173.326 100.858L173.349 100.9L173.399 100.873ZM175.122 104.013L175.072 104.041L175.09 104.074L175.127 104.07L175.122 104.013ZM173.048 101.567L173.098 101.539L172.991 101.574L173.048 101.567ZM173.715 107.138L173.658 107.144L173.669 107.238L173.747 107.184L173.715 107.138ZM174.77 104.707L174.721 104.735L174.74 104.771L174.782 104.763L174.77 104.707ZM178.251 104.029L178.284 104.076L178.241 103.973L178.251 104.029ZM178.23 97.0734L178.544 103.686L178.658 103.681L178.344 97.0679L178.23 97.0734ZM173.434 100.918L178.322 97.1157L178.252 97.0257L173.364 100.828L173.434 100.918ZM173.349 100.9L175.072 104.041L175.172 103.986L173.449 100.845L173.349 100.9ZM175.127 104.07L178.606 103.74L178.596 103.626L175.116 103.956L175.127 104.07ZM172.991 101.574L173.658 107.144L173.771 107.131L173.104 101.56L172.991 101.574ZM174.821 104.68L173.098 101.539L172.998 101.594L174.721 104.735L174.821 104.68ZM178.241 103.973L174.76 104.651L174.782 104.763L178.263 104.085L178.241 103.973ZM173.747 107.184L178.284 104.076L178.219 103.982L173.683 107.09L173.747 107.184Z" fill="black"/>
<path d="M161.386 119.903C159.916 125.009 155.245 128.636 151.241 127.486C142.576 125.886 145.208 120.785 146.678 115.679C148.148 110.573 149.102 105.561 156.727 108.429C160.731 109.579 162.856 114.797 161.386 119.903Z" fill="#CEB103"/>
<path d="M161.386 119.903C159.916 125.009 155.245 128.636 151.241 127.486C142.576 125.886 145.208 120.785 146.678 115.679C148.148 110.573 149.102 105.561 156.727 108.429C160.731 109.579 162.856 114.797 161.386 119.903Z" stroke="black" stroke-width="0.300546"/>
<path d="M148.298 126.728C152.267 127.867 156.713 124.526 158.228 119.263C159.743 114.001 157.753 108.81 153.784 107.671C149.815 106.531 145.37 109.873 143.855 115.135C142.34 120.397 144.329 125.588 148.298 126.728Z" fill="#FEDA03" stroke="black" stroke-width="0.300546"/>
<path d="M156.404 118.795C155.795 120.909 154.649 122.649 153.291 123.754C151.932 124.86 150.366 125.327 148.912 124.91C147.459 124.492 146.381 123.265 145.817 121.608C145.254 119.951 145.208 117.868 145.817 115.755C146.425 113.641 147.572 111.901 148.93 110.796C150.288 109.69 151.854 109.223 153.308 109.64C154.762 110.058 155.84 111.285 156.403 112.942C156.966 114.599 157.012 116.682 156.404 118.795Z" stroke="black" stroke-width="0.300546"/>
<path d="M174.486 124.165C179.489 126.73 181.5 133.346 179.002 138.208C176.504 143.069 170.109 144.987 165.106 142.423C160.104 139.859 157.934 133.551 160.432 128.69C163.35 123.102 169.483 121.601 174.486 124.165Z" fill="#CEB103"/>
<path d="M174.486 124.165C179.489 126.73 181.5 133.346 179.002 138.208C176.504 143.069 170.109 144.987 165.106 142.423C160.104 139.859 157.934 133.551 160.432 128.69C163.35 123.102 169.483 121.601 174.486 124.165Z" stroke="black" stroke-width="0.300546"/>
<path fill-rule="evenodd" clip-rule="evenodd" d="M150.721 115.022C150.8 114.835 150.911 114.477 150.725 114.326C150.604 114.229 150.39 114.137 150.227 114.067C150.138 114.029 150.065 113.997 150.031 113.975L150.732 112.935L151.771 113.636L152.126 112.246L152.82 112.597L152.117 113.985L152.811 114.337L153.166 112.947L153.86 113.299L153.157 114.687C153.566 114.938 154.476 115.784 154.19 116.779C153.832 118.025 153.318 118.327 152.79 118.512C153.081 118.825 153.427 119.257 153.129 120.253C152.83 121.249 152.313 121.579 152.078 121.64C152.055 121.646 152.026 121.654 151.994 121.663C151.707 121.744 151.108 121.915 150.687 121.633C150.635 121.742 150.548 121.904 150.452 122.085C150.284 122.4 150.085 122.771 149.985 123.021L149.291 122.669L149.994 121.281L149.648 120.931L148.945 122.319L148.599 121.97L148.954 120.58L147.916 119.531L148.617 118.491L148.961 119.188L150.721 115.022ZM151.764 115.027L151.058 117.111C151.176 117.265 151.766 117.463 152.1 117.465C152.516 117.467 152.737 117.214 152.8 116.424C152.86 115.688 152.14 115.205 151.764 115.027ZM150.001 119.889L150.707 117.805C150.856 117.896 151.523 118.332 151.747 118.507C152.026 118.724 152.259 119.252 152.087 119.9C151.95 120.418 150.993 120.351 150.694 120.241L150.001 119.889Z" fill="black"/>
<path d="M150.032 113.975L149.985 113.943L149.952 113.991L150.001 114.022L150.032 113.975ZM150.733 112.935L150.765 112.887L150.717 112.855L150.686 112.902L150.733 112.935ZM151.773 113.636L151.741 113.683L151.808 113.728L151.828 113.65L151.773 113.636ZM152.128 112.246L152.153 112.195L152.09 112.162L152.072 112.231L152.128 112.246ZM152.821 112.597L152.872 112.623L152.898 112.572L152.847 112.546L152.821 112.597ZM152.119 113.985L152.068 113.959L152.042 114.01L152.093 114.036L152.119 113.985ZM152.812 114.337L152.787 114.388L152.85 114.42L152.868 114.351L152.812 114.337ZM153.167 112.947L153.193 112.896L153.129 112.864L153.112 112.933L153.167 112.947ZM153.861 113.298L153.912 113.324L153.937 113.273L153.887 113.247L153.861 113.298ZM153.158 114.687L153.107 114.661L153.084 114.707L153.128 114.735L153.158 114.687ZM152.791 118.512L152.772 118.458L152.69 118.487L152.749 118.551L152.791 118.512ZM150.689 121.632L150.72 121.585L150.665 121.548L150.637 121.608L150.689 121.632ZM149.986 123.021L149.96 123.071L150.016 123.1L150.039 123.042L149.986 123.021ZM149.292 122.669L149.241 122.643L149.215 122.694L149.266 122.72L149.292 122.669ZM149.995 121.281L150.046 121.307L150.064 121.27L150.035 121.241L149.995 121.281ZM149.649 120.931L149.689 120.891L149.634 120.835L149.598 120.906L149.649 120.931ZM148.946 122.319L148.905 122.359L148.961 122.416L148.997 122.345L148.946 122.319ZM148.6 121.97L148.545 121.955L148.537 121.987L148.559 122.01L148.6 121.97ZM148.955 120.58L149.01 120.594L149.018 120.563L148.996 120.54L148.955 120.58ZM147.917 119.531L147.87 119.499L147.844 119.538L147.876 119.571L147.917 119.531ZM148.618 118.491L148.669 118.465L148.625 118.377L148.571 118.458L148.618 118.491ZM148.962 119.188L148.911 119.213L148.966 119.325L149.015 119.21L148.962 119.188ZM151.059 117.111L151.005 117.093L150.996 117.122L151.014 117.146L151.059 117.111ZM151.766 115.027L151.79 114.976L151.732 114.948L151.711 115.009L151.766 115.027ZM150.708 117.805L150.738 117.756L150.677 117.719L150.654 117.787L150.708 117.805ZM150.002 119.889L149.948 119.871L149.932 119.918L149.976 119.94L150.002 119.889ZM150.696 120.241L150.67 120.292L150.673 120.293L150.676 120.294L150.696 120.241ZM150.69 114.37C150.76 114.427 150.781 114.528 150.767 114.654C150.754 114.778 150.708 114.908 150.67 115L150.775 115.044C150.815 114.949 150.865 114.807 150.881 114.667C150.895 114.529 150.879 114.376 150.761 114.282L150.69 114.37ZM150.206 114.119C150.371 114.19 150.577 114.279 150.69 114.37L150.761 114.282C150.633 114.178 150.41 114.083 150.251 114.014L150.206 114.119ZM150.001 114.022C150.04 114.048 150.12 114.082 150.206 114.119L150.251 114.014C150.159 113.975 150.092 113.945 150.063 113.927L150.001 114.022ZM150.686 112.902L149.985 113.943L150.079 114.006L150.78 112.966L150.686 112.902ZM151.804 113.588L150.765 112.887L150.701 112.982L151.741 113.683L151.804 113.588ZM152.072 112.231L151.717 113.621L151.828 113.65L152.183 112.26L152.072 112.231ZM152.847 112.546L152.153 112.195L152.102 112.297L152.796 112.648L152.847 112.546ZM152.169 114.011L152.872 112.623L152.77 112.571L152.068 113.959L152.169 114.011ZM152.838 114.286L152.144 113.934L152.093 114.036L152.787 114.388L152.838 114.286ZM153.112 112.933L152.757 114.323L152.868 114.351L153.223 112.961L153.112 112.933ZM153.887 113.247L153.193 112.896L153.142 112.998L153.835 113.349L153.887 113.247ZM153.209 114.712L153.912 113.324L153.81 113.272L153.107 114.661L153.209 114.712ZM154.245 116.795C154.395 116.276 154.231 115.798 153.983 115.422C153.735 115.047 153.399 114.767 153.188 114.638L153.128 114.735C153.327 114.857 153.65 115.126 153.888 115.485C154.125 115.844 154.273 116.287 154.136 116.764L154.245 116.795ZM152.81 118.565C153.078 118.472 153.348 118.346 153.597 118.083C153.844 117.819 154.065 117.423 154.245 116.795L154.136 116.764C153.959 117.381 153.744 117.759 153.513 118.004C153.283 118.249 153.032 118.367 152.772 118.458L152.81 118.565ZM153.184 120.269C153.336 119.763 153.326 119.394 153.236 119.109C153.146 118.825 152.979 118.631 152.833 118.473L152.749 118.551C152.894 118.706 153.045 118.885 153.127 119.144C153.208 119.402 153.222 119.747 153.075 120.237L153.184 120.269ZM152.094 121.695C152.353 121.627 152.882 121.279 153.184 120.269L153.075 120.237C152.781 121.219 152.276 121.53 152.065 121.584L152.094 121.695ZM152.011 121.718C152.044 121.708 152.071 121.701 152.094 121.695L152.065 121.584C152.041 121.591 152.012 121.599 151.98 121.608L152.011 121.718ZM150.657 121.68C150.882 121.831 151.152 121.859 151.396 121.841C151.641 121.823 151.868 121.758 152.011 121.718L151.98 121.608C151.836 121.649 151.619 121.71 151.388 121.727C151.156 121.744 150.916 121.716 150.72 121.585L150.657 121.68ZM150.503 122.112C150.6 121.931 150.687 121.768 150.74 121.657L150.637 121.608C150.586 121.715 150.5 121.876 150.402 122.058L150.503 122.112ZM150.039 123.042C150.138 122.795 150.334 122.428 150.503 122.112L150.402 122.058C150.235 122.371 150.035 122.746 149.933 122.999L150.039 123.042ZM149.266 122.72L149.96 123.071L150.012 122.97L149.318 122.618L149.266 122.72ZM149.944 121.255L149.241 122.643L149.343 122.695L150.046 121.307L149.944 121.255ZM149.608 120.971L149.954 121.321L150.035 121.241L149.689 120.891L149.608 120.971ZM148.997 122.345L149.7 120.957L149.598 120.906L148.895 122.294L148.997 122.345ZM148.559 122.01L148.905 122.359L148.987 122.279L148.641 121.93L148.559 122.01ZM148.9 120.565L148.545 121.955L148.655 121.984L149.01 120.594L148.9 120.565ZM147.876 119.571L148.914 120.62L148.996 120.54L147.958 119.491L147.876 119.571ZM148.571 118.458L147.87 119.499L147.965 119.562L148.665 118.522L148.571 118.458ZM149.013 119.163L148.669 118.465L148.567 118.516L148.911 119.213L149.013 119.163ZM150.67 115L148.91 119.166L149.015 119.21L150.775 115.044L150.67 115ZM151.113 117.129L151.819 115.045L151.711 115.009L151.005 117.093L151.113 117.129ZM152.101 117.408C151.943 117.407 151.719 117.359 151.517 117.291C151.418 117.257 151.325 117.219 151.252 117.181C151.175 117.141 151.126 117.104 151.104 117.077L151.014 117.146C151.052 117.195 151.12 117.241 151.199 117.282C151.279 117.324 151.377 117.364 151.481 117.399C151.688 117.469 151.925 117.521 152.101 117.522L152.101 117.408ZM152.745 116.419C152.713 116.812 152.643 117.06 152.537 117.208C152.436 117.351 152.296 117.409 152.101 117.408L152.101 117.522C152.323 117.523 152.501 117.455 152.63 117.274C152.755 117.099 152.827 116.826 152.859 116.429L152.745 116.419ZM151.741 115.079C151.925 115.166 152.192 115.327 152.405 115.555C152.618 115.783 152.773 116.073 152.745 116.419L152.859 116.429C152.89 116.039 152.715 115.719 152.488 115.477C152.263 115.235 151.982 115.066 151.79 114.976L151.741 115.079ZM150.654 117.787L149.948 119.871L150.056 119.907L150.762 117.823L150.654 117.787ZM151.783 118.461C151.557 118.285 150.887 117.848 150.738 117.756L150.678 117.854C150.827 117.945 151.492 118.379 151.713 118.552L151.783 118.461ZM152.143 119.915C152.32 119.248 152.082 118.695 151.783 118.461L151.713 118.552C151.972 118.753 152.2 119.257 152.033 119.885L152.143 119.915ZM150.676 120.294C150.835 120.353 151.158 120.397 151.459 120.362C151.756 120.328 152.065 120.211 152.143 119.915L152.033 119.885C151.975 120.107 151.737 120.215 151.446 120.249C151.16 120.282 150.855 120.239 150.715 120.187L150.676 120.294ZM149.976 119.94L150.67 120.292L150.721 120.19L150.028 119.838L149.976 119.94Z" fill="black"/>
<path d="M179.349 137.354C181.852 132.484 179.862 126.476 174.905 123.935C169.947 121.394 163.9 123.283 161.398 128.154C158.896 133.024 160.886 139.032 165.843 141.573C170.8 144.114 176.847 142.225 179.349 137.354Z" fill="#FEDA03" stroke="black" stroke-width="0.300546"/>
<path d="M168.725 130.771L168.712 133.207L167.323 132.851L167.343 129.024L171.164 129.74L171.157 131.131L168.725 130.771Z" fill="black"/>
<path d="M167.657 135.289L167.664 133.897L168.705 134.25L168.7 135.294L167.657 135.289Z" fill="black"/>
<path d="M169.743 135.647L169.75 134.255L172.183 134.616L172.195 132.18L173.236 132.534L173.565 136.362L169.743 135.647Z" fill="black"/>
<path d="M172.2 131.136L172.207 129.745L173.248 130.098L173.241 131.49L172.2 131.136Z" fill="black"/>
<path d="M169.754 133.212L169.761 131.82L171.151 132.175L171.143 133.567L169.754 133.212Z" fill="black"/>
<path d="M168.725 130.771L168.712 133.207L167.323 132.851L167.343 129.024L171.164 129.74L171.157 131.131L168.725 130.771Z" stroke="black" stroke-width="0.300546"/>
<path d="M167.657 135.289L167.664 133.897L168.705 134.25L168.7 135.294L167.657 135.289Z" stroke="black" stroke-width="0.300546"/>
<path d="M169.743 135.647L169.75 134.255L172.183 134.616L172.195 132.18L173.236 132.534L173.565 136.362L169.743 135.647Z" stroke="black" stroke-width="0.300546"/>
<path d="M172.2 131.136L172.207 129.745L173.248 130.098L173.241 131.49L172.2 131.136Z" stroke="black" stroke-width="0.300546"/>
<path d="M169.754 133.212L169.761 131.82L171.151 132.175L171.143 133.567L169.754 133.212Z" stroke="black" stroke-width="0.300546"/>
<path d="M173.937 125.95C177.756 127.908 179.295 132.52 177.378 136.25C175.462 139.981 170.813 141.422 166.994 139.464C163.175 137.507 161.636 132.895 163.552 129.164C165.469 125.433 170.118 123.993 173.937 125.95Z" stroke="black" stroke-width="0.300546"/>
<path d="M183.966 104.824C182.701 108.926 178.426 111.25 174.418 110.018C170.411 108.785 168.184 104.462 169.449 100.359C170.714 96.2569 174.989 93.9333 178.996 95.1658C183.004 96.398 185.23 100.722 183.966 104.824Z" stroke="black" stroke-width="0.300546"/>
<path d="M144.705 135.519L149.226 135.542M146.804 133.094L146.781 137.617" stroke="black" stroke-linecap="round"/>
<path d="M184.785 118.675L187.219 118.688M185.836 117.289L185.823 119.724" stroke="black" stroke-linecap="round"/>
<path d="M157.055 100.442L159.489 100.454M158.105 99.0554L158.093 101.491" stroke="black" stroke-width="0.5" stroke-linecap="round"/>
<g style="mix-blend-mode:multiply">
<path d="M67.2639 134.531L78.2411 128.196C80.454 126.918 82.9644 126.244 85.5196 126.244C88.0756 126.244 90.586 126.918 92.7989 128.196L131.507 150.534C131.962 150.808 132.338 151.194 132.6 151.656C132.861 152.118 132.998 152.639 132.998 153.17C132.998 153.7 132.861 154.222 132.6 154.683C132.338 155.145 131.962 155.531 131.507 155.805L120.524 162.14C118.311 163.416 115.802 164.087 113.248 164.087C110.694 164.087 108.185 163.416 105.972 162.14L67.2639 139.802C66.8096 139.528 66.4333 139.142 66.1714 138.68C65.9102 138.219 65.7734 137.696 65.7734 137.167C65.7734 136.636 65.9102 136.114 66.1714 135.652C66.4333 135.191 66.8096 134.804 67.2639 134.531Z" fill="#E6E7EB"/>
</g>
<path d="M125.247 122.059C125.247 122.059 127.499 122.471 127.499 125.509V132.379H124.656L125.247 122.059Z" fill="#8BBE2B"/>
<path d="M124.505 153.661L124.507 153.66C124.895 153.445 125.193 153.257 125.396 153.017C125.595 152.781 125.706 152.488 125.706 152.054V109.216C125.705 108.076 125.405 106.955 124.836 105.967C124.267 104.977 123.449 104.155 122.463 103.58L85.362 82.1777C83.0873 80.9921 80.5074 80.5208 77.9599 80.8256C76.6371 80.964 75.346 81.3212 74.1406 81.8824L74.9357 83.5241C75.9502 83.0433 77.0427 82.7483 78.1616 82.653C80.3297 82.3758 82.531 82.7642 84.4727 83.7666L84.475 83.7679L121.558 105.171C122.274 105.58 122.869 106.167 123.287 106.877C123.705 107.586 123.93 108.392 123.94 109.216V151.587C123.939 151.696 123.908 151.804 123.851 151.899C123.796 151.994 123.716 152.072 123.62 152.125C123.528 152.182 123.421 152.211 123.312 152.211C123.203 152.211 123.097 152.182 123.004 152.125C123.004 152.125 123.004 152.125 123.003 152.124L114.926 147.475L114.188 147.051L113.013 146.369L92.8615 134.732L88.173 132.032L124.505 153.661ZM124.505 153.661C124.142 153.876 123.728 153.989 123.306 153.989C122.884 153.989 122.47 153.876 122.107 153.661L114.981 149.565M124.505 153.661L114.981 149.565ZM114.981 149.565L113.067 148.458L84.4997 131.974L84.4974 131.974C82.5573 130.964 80.3559 130.57 78.1863 130.841C77.0883 130.953 76.0159 131.241 75.0099 131.695L74.2333 130.095C75.4163 129.544 76.6842 129.197 77.9839 129.07C79.3236 128.926 81.3735 129.383 83.3438 130.021C85.3118 130.658 87.187 131.472 88.173 132.032L114.981 149.565Z" fill="#BDF651"/>
<path d="M124.505 153.661L124.507 153.66C124.895 153.445 125.193 153.257 125.396 153.017C125.595 152.781 125.706 152.488 125.706 152.054V109.216C125.705 108.076 125.405 106.955 124.836 105.967C124.267 104.977 123.449 104.155 122.463 103.58L85.362 82.1777C83.0873 80.9921 80.5074 80.5208 77.9599 80.8256C76.6371 80.964 75.346 81.3212 74.1406 81.8824L74.9357 83.5241C75.9502 83.0433 77.0427 82.7483 78.1616 82.653C80.3297 82.3758 82.531 82.7642 84.4727 83.7666L84.475 83.7679L121.558 105.171C122.274 105.58 122.869 106.167 123.287 106.877C123.705 107.586 123.93 108.392 123.94 109.216V151.587C123.939 151.696 123.908 151.804 123.851 151.899C123.796 151.994 123.716 152.072 123.62 152.125C123.528 152.182 123.421 152.211 123.312 152.211C123.203 152.211 123.097 152.182 123.004 152.125C123.004 152.125 123.004 152.125 123.003 152.124L114.926 147.475L114.188 147.051L113.013 146.369L92.8615 134.732L88.173 132.032M124.505 153.661L88.173 132.032M124.505 153.661C124.142 153.876 123.728 153.989 123.306 153.989C122.884 153.989 122.47 153.876 122.107 153.661L114.981 149.565M124.505 153.661L114.981 149.565M88.173 132.032C87.187 131.472 85.3118 130.658 83.3438 130.021C81.3735 129.383 79.3236 128.926 77.9839 129.07C76.6842 129.197 75.4163 129.544 74.2333 130.095L75.0099 131.695C76.0159 131.241 77.0883 130.953 78.1863 130.841C80.3559 130.57 82.5573 130.964 84.4974 131.974L84.4997 131.974L113.067 148.458L114.981 149.565M88.173 132.032L114.981 149.565" stroke="black" stroke-width="0.159266"/>
<path d="M121.52 105.225L84.4294 83.8216C82.4985 82.8249 80.3103 82.4367 78.1538 82.7084C77.0257 82.8162 75.9247 83.1179 74.8986 83.6002C73.9938 83.9618 73.2621 84.6578 72.8557 85.5437C72.542 86.5278 73.1825 87.5857 74.5602 88.3852L111.675 109.794C112.67 110.371 113.498 111.199 114.073 112.196C114.648 113.192 114.953 114.321 114.954 115.472V145.75L113.859 145.036L113.041 148.517L122.061 153.721L122.307 153.856C122.466 153.946 122.647 153.993 122.83 153.993C123.013 153.992 123.192 153.942 123.351 153.85C123.509 153.759 123.64 153.626 123.731 153.467C123.822 153.309 123.87 153.129 123.87 152.946V109.223C123.862 108.409 123.641 107.612 123.228 106.91C122.816 106.209 122.227 105.628 121.52 105.225Z" fill="#4C7302"/>
<path d="M122.569 153.714C122.503 153.717 122.439 153.7 122.384 153.665L113.555 148.578L114.041 146.518L115.37 147.385V115.865C115.368 114.597 115.035 113.352 114.402 112.253C113.769 111.155 112.859 110.241 111.764 109.603L74.6745 88.2063C73.5974 87.5913 73.0619 86.7979 73.2651 86.1521C73.6198 85.4316 74.2294 84.8683 74.9758 84.5714C75.9293 84.1223 76.953 83.8433 78.0031 83.7473C78.4118 83.7035 78.8221 83.6809 79.2332 83.6796C80.8457 83.6477 82.4397 84.0243 83.8668 84.7744L120.956 106.177C121.558 106.529 122.057 107.03 122.405 107.633C122.753 108.236 122.936 108.92 122.938 109.616V153.339C122.938 153.389 122.928 153.439 122.91 153.485C122.89 153.531 122.862 153.574 122.827 153.609C122.757 153.674 122.665 153.711 122.569 153.714Z" fill="#7AAF15"/>
<path d="M80.682 85.9241L80.685 85.9253L120.514 107.788V151.594L119.369 152.253L117.431 151.134L117.409 151.1L117.319 150.966L116.967 150.443L115.63 148.456C114.479 146.744 112.833 144.297 110.857 141.358C106.905 135.48 101.629 127.633 96.3369 119.757C91.0449 111.882 85.7367 103.978 81.7189 97.9859C77.6995 91.9917 74.9743 87.9148 74.8445 87.6896C74.7865 87.588 74.7711 87.4888 74.7873 87.3906C74.8051 87.2909 74.8553 87.1882 74.9364 87.083C75.0987 86.8716 75.3715 86.6624 75.6859 86.4613C75.951 86.2918 76.2399 86.1309 76.5096 85.981C76.559 85.9536 76.6077 85.9264 76.6556 85.8997C76.9616 85.7289 77.2336 85.5713 77.3858 85.4351C77.4468 85.3807 77.5411 85.3421 77.6678 85.3204C77.7937 85.2989 77.9452 85.295 78.1136 85.3051C78.4513 85.3252 78.85 85.4006 79.2324 85.4929C79.6149 85.5851 79.9796 85.6936 80.2485 85.7791C80.3829 85.8219 80.4934 85.8588 80.5699 85.8851C80.6086 85.8983 80.6387 85.9087 80.6588 85.9159L80.682 85.9241Z" fill="#E5E5E5" stroke="black" stroke-width="0.159266"/>
<path d="M115.487 154.57L116.718 153.874L77.9539 131.493C77.8998 131.466 77.8527 131.429 77.8141 131.381C77.7762 131.335 77.7484 131.28 77.7329 131.222C77.7283 131.145 77.7484 131.069 77.7886 131.002C77.8295 130.937 77.889 130.885 77.9601 130.853C78.1494 130.754 78.3627 130.71 78.5759 130.724C78.7413 130.728 78.9043 130.772 79.0495 130.853L117.813 153.229L119.043 152.534L80.2796 130.158C79.8176 129.907 79.3037 129.766 78.7783 129.746C78.0822 129.692 77.3845 129.838 76.7663 130.164C76.5314 130.25 76.3298 130.408 76.1915 130.616C76.0532 130.825 75.9852 131.071 75.9975 131.32C76.0439 131.509 76.1312 131.684 76.2533 131.834C76.3761 131.984 76.5299 132.105 76.7053 132.188L115.487 154.57Z" fill="#6D9047"/>
<path d="M78.3885 86.6172L118.939 108.699V152.498L117.795 153.157L115.44 151.792L77.4219 87.2594L78.3885 86.6172Z" fill="#E5E5E5" stroke="black" stroke-width="0.159266"/>
<path d="M76.0508 86.9961L116.63 110.033V153.833L115.484 154.498L76.0508 131.734V86.9961Z" fill="#C2C2C2" stroke="black" stroke-width="0.159266"/>
<path d="M75.182 129.273C75.7275 128.979 76.3147 128.771 76.9236 128.657C77.1206 128.965 77.3053 129.273 77.4714 129.593C77.0889 129.667 76.7219 129.803 76.3819 129.992C76.1084 130.105 75.8766 130.302 75.7205 130.553C75.5637 130.805 75.4895 131.099 75.508 131.394C75.5668 131.621 75.6742 131.832 75.8225 132.013C75.9716 132.194 76.1586 132.34 76.3696 132.44L115.133 154.803L113.902 155.504L75.1395 133.135C74.8072 132.978 74.5144 132.75 74.2826 132.466C74.05 132.181 73.8847 131.849 73.7981 131.493C73.6807 130.656 74.1791 129.857 75.182 129.273Z" fill="#7B9A5B"/>
<path d="M73.8594 131.021V87.0205L77.2351 89.7976L77.239 89.8012L77.2444 89.8039L115.059 110.943V154.742L113.916 155.402L73.8594 131.021Z" fill="#C2C2C2" stroke="black" stroke-width="0.159266"/>
<path d="M81.8937 85.4437L120.562 107.752L119.456 108.382L80.7224 86.0312L80.7209 86.0302C80.1437 85.7227 79.5031 85.5519 78.8495 85.531C77.9879 85.4587 77.1225 85.6357 76.3584 86.0411C76.074 86.1597 75.8337 86.3639 75.6707 86.6254C75.5077 86.8877 75.4304 87.1946 75.4497 87.503L75.4505 87.5089L75.4521 87.5147C75.5131 87.7494 75.6251 87.9681 75.7797 88.1554C75.9334 88.3422 76.1258 88.4935 76.3437 88.599L115.012 110.907L113.906 111.531L75.1855 89.1802L75.1832 89.1792C74.878 89.0164 74.6122 88.7894 74.4028 88.5142C74.1942 88.2392 74.0474 87.9224 73.9716 87.5855C73.8372 86.8105 74.3108 86.033 75.3014 85.4556C76.4596 84.8481 77.7646 84.5779 79.0689 84.6759L79.0712 84.6759C80.0579 84.7156 81.0222 84.9779 81.893 85.4433L81.8937 85.4437Z" fill="white" stroke="black" stroke-width="0.159266"/>
<path d="M80.2483 86.3358L118.917 108.662L117.811 109.287L79.0777 86.9294L79.0762 86.9288C78.9224 86.8441 78.7517 86.7952 78.5763 86.7859C78.3522 86.772 78.1289 86.821 77.9311 86.9272C77.85 86.9623 77.782 87.0211 77.7349 87.0957C77.6877 87.1713 77.6645 87.2595 77.6684 87.3484L77.6692 87.3547L77.6707 87.3608C77.6877 87.4284 77.7194 87.4916 77.7627 87.5462C77.8059 87.6003 77.86 87.6446 77.9218 87.6764L116.591 110.003L115.485 110.628L76.7335 88.2641L76.7296 88.262C76.5635 88.1812 76.4175 88.0653 76.3008 87.9225C76.1857 87.7813 76.1022 87.6171 76.0559 87.4408C76.045 87.2056 76.1099 86.973 76.2397 86.7765C76.3711 86.5783 76.5619 86.4273 76.7852 86.3454L76.7922 86.3423C77.4018 86.0265 78.0872 85.8862 78.7718 85.9369L78.7733 85.9371C79.2887 85.9573 79.7925 86.0935 80.2476 86.3353C80.2476 86.3355 80.2483 86.3357 80.2483 86.3358Z" fill="white" stroke="black" stroke-width="0.159266"/>
<path d="M103.697 102.495L100.375 101.535L100.633 100.483L103.162 101.369L103.697 102.495Z" fill="#C2C2C2"/>
<path d="M102.904 90.8837C105.238 94.9733 105.032 98.3955 103.131 100.078C102.832 100.343 102.599 100.564 102.4 100.751C102.374 100.776 102.349 100.799 102.324 100.823C102.109 101.026 101.932 101.189 101.748 101.331C101.387 101.612 100.994 101.816 100.211 102.081C99.1902 101.821 98.0095 100.99 96.8869 99.8784C95.7595 98.7624 94.6971 97.3699 93.9191 96.0082C93.0251 94.4411 92.4147 92.6864 92.162 91.0699C91.9101 89.4607 92.0152 87.9971 92.5375 86.9918C92.8304 86.8317 93.0552 86.7104 93.2515 86.6046C93.586 86.4241 93.8372 86.2885 94.2003 86.0814C95.843 85.5139 97.4331 85.6946 98.9043 86.5241C100.379 87.3555 101.737 88.8404 102.904 90.8837Z" fill="#E3B84C" stroke="black" stroke-width="0.159266"/>
<path d="M101.023 91.9073C102.188 93.9478 102.734 96.0826 102.679 97.8814C102.623 99.6817 101.966 101.135 100.736 101.837C99.507 102.538 97.9208 102.364 96.3422 101.496C94.7644 100.629 93.2044 99.0723 92.0392 97.031C90.8741 94.9905 90.3278 92.8557 90.3827 91.0569C90.4383 89.2569 91.0958 87.8032 92.3251 87.1018C93.5552 86.4005 95.1415 86.5745 96.72 87.4425C98.2978 88.3099 99.8578 89.866 101.023 91.9073Z" fill="#FFE572" stroke="black" stroke-width="0.159266"/>
<path d="M100.245 101.242C102.394 100.017 102.414 96.0075 100.29 92.2871C98.1664 88.5669 94.7034 86.5446 92.5546 87.7701C90.4058 88.9957 90.3857 93.0054 92.509 96.725C94.6331 100.445 98.0961 102.468 100.245 101.242Z" fill="#E3B84C"/>
<path d="M100.24 92.3167C101.21 94.0158 101.688 95.7783 101.681 97.2527C101.674 98.7287 101.18 99.9026 100.221 100.449C99.2621 100.996 98.0003 100.824 96.7247 100.08C95.4513 99.3357 94.1764 98.0274 93.2067 96.3282C92.237 94.6291 91.758 92.8666 91.7657 91.3922C91.7734 89.9161 92.2672 88.7422 93.2253 88.1954C94.1842 87.6486 95.4467 87.8209 96.7216 88.5656C97.9949 89.3092 99.2698 90.6175 100.24 92.3167Z" fill="#FAD764" stroke="black" stroke-width="0.159266"/>
<path fill-rule="evenodd" clip-rule="evenodd" d="M98.5827 92.5966C98.2404 91.883 97.494 91.6698 96.6395 91.6366L96.2663 90.6426L95.6242 90.6696L95.1876 90.8936L95.1111 90.6905L94.4698 90.7175L93.8702 90.9492C93.8803 90.9631 93.915 91.0025 93.9614 91.0573C94.1492 91.2744 94.5424 91.7285 94.4358 91.7331L94.4351 91.73L93.5496 91.7663L92.9492 91.9957C92.9492 91.9957 94.2635 92.3842 94.2581 92.3927C94.5185 92.3819 94.6568 92.5209 94.7271 92.6422L95.1528 93.7744C95.1706 93.7737 95.1946 93.7737 95.2224 93.776L95.2038 93.7767C95.1876 93.7775 95.1714 93.7783 95.1544 93.7791L95.7501 95.3647C95.7524 95.3724 95.754 95.3786 95.7548 95.3832C95.7578 95.3948 95.7594 95.4002 95.7571 95.4018C95.7555 95.4033 95.7509 95.4025 95.7424 95.3994C95.7215 95.3933 95.6767 95.3794 95.5886 95.3832C95.2842 95.5014 94.5185 95.8126 94.5185 95.8126L95.2618 96.3224L96.097 96.2876C96.1983 96.2838 96.2732 96.2807 96.3543 96.2784L96.4965 96.273L96.9663 97.4755L97.5767 97.2508L97.2027 96.256L97.2954 96.2537C97.4299 96.2513 97.5458 96.249 97.6818 96.2428L98.1152 97.4454L98.7311 97.2021L98.354 96.1988C99.4118 96.0953 100.071 95.808 99.8058 94.8488C99.5926 94.0772 99.0795 93.7497 98.415 93.637C98.7202 93.4423 98.8346 93.1179 98.5827 92.5966ZM95.4774 91.6644C95.6474 91.6544 95.3638 91.062 95.1876 90.8936L95.4774 91.6644ZM98.4869 94.6518C98.7388 95.3655 97.6153 95.4002 97.1015 95.4157C97.0551 95.4172 97.0134 95.4188 96.9787 95.4203L96.4919 94.0417C96.5344 94.0401 96.5854 94.0363 96.6441 94.0324C97.1633 93.9969 98.2288 93.9227 98.4869 94.6518ZM96.1504 93.5953C96.5807 93.5829 97.5211 93.5566 97.2916 92.9117C97.0559 92.2521 96.1658 92.3162 95.7308 92.3471C95.6821 92.3502 95.6389 92.3533 95.6033 92.3549L96.0468 93.5983C96.0762 93.5968 96.1109 93.596 96.1504 93.5953Z" fill="#E3B84C"/>
<path fill-rule="evenodd" clip-rule="evenodd" d="M98.0384 92.8821C97.6945 92.1715 96.945 91.9599 96.0866 91.9259L95.7119 90.9365L95.0675 90.9628L95.4322 91.9267C95.263 91.9336 95.0907 91.9437 94.9199 91.9537L94.5529 90.9844L93.9085 91.0107L94.2832 91.9993C94.1441 92.0078 94.0081 92.0163 93.8745 92.0217L93.8729 92.0186L92.9844 92.0549L93.2278 92.6982C93.2278 92.6982 93.7006 92.6697 93.696 92.6782C93.9572 92.6681 94.0955 92.8056 94.1665 92.9269L94.5938 94.0545C94.6124 94.0537 94.6356 94.0529 94.6641 94.056H94.6448C94.6294 94.0568 94.6124 94.0576 94.5954 94.0583L95.1942 95.6378C95.212 95.715 95.2096 95.8394 95.0273 95.8471C95.0381 95.8533 94.5591 95.8664 94.5591 95.8664L94.7028 96.5909L95.5419 96.5561C95.6338 96.5522 95.7258 96.5499 95.8162 96.5468C95.8788 96.5445 95.9421 96.543 96.0039 96.5406L96.3833 97.5416L97.0277 97.5153L96.6522 96.5252C96.8307 96.5213 97.0022 96.5152 97.1691 96.5082L97.5423 97.4937L98.1867 97.4675L97.8081 96.4688C98.8705 96.3661 99.5319 96.0796 99.2661 95.1249C99.0521 94.3565 98.5367 94.0305 97.8692 93.9178C98.1759 93.7247 98.291 93.4018 98.0384 92.8821ZM97.9665 94.9489C98.2192 95.6617 97.0949 95.6965 96.5811 95.7127C96.5348 95.7142 96.493 95.715 96.4583 95.7173L95.9715 94.3387C96.014 94.3372 96.065 94.3333 96.1237 94.3294C96.6437 94.2931 97.7084 94.2198 97.9665 94.9489ZM95.623 93.8915C96.0542 93.8792 96.9945 93.8529 96.7642 93.208C96.5286 92.5484 95.6385 92.6125 95.2042 92.6434C95.1548 92.6473 95.1115 92.6504 95.076 92.6519L95.5195 93.8946C95.5488 93.8938 95.5844 93.8923 95.623 93.8915Z" fill="#FFE572"/>
<path d="M96.0888 91.926L96.03 91.9453L96.0447 91.9847L96.0872 91.9862L96.0888 91.926ZM98.0405 92.8821L97.9833 92.9068L97.9996 92.94L98.0374 92.9424L98.0405 92.8821ZM95.714 90.9366L95.7727 90.9165L95.7565 90.874L95.7102 90.8763L95.714 90.9366ZM95.0696 90.9628L95.0658 90.9026L94.9815 90.9065L95.0109 90.9829L95.0696 90.9628ZM95.4343 91.9267L95.4382 91.987L95.5224 91.9831L95.493 91.9066L95.4343 91.9267ZM94.922 91.9538L94.8633 91.9738L94.8795 92.0171L94.9274 92.014L94.922 91.9538ZM94.555 90.9845L94.6138 90.9644L94.5975 90.9219L94.5512 90.9242L94.555 90.9845ZM93.9106 91.0107L93.9068 90.9505L93.8225 90.9536L93.8519 91.03L93.9106 91.0107ZM94.2854 91.9993L94.29 92.0596L94.3719 92.0549L94.3441 91.98L94.2854 91.9993ZM93.8766 92.0217L93.8187 92.0426L93.8349 92.0835L93.8805 92.082L93.8766 92.0217ZM93.8751 92.0186L93.9338 91.9978L93.9168 91.9569L93.872 91.9584L93.8751 92.0186ZM92.9865 92.0549L92.9827 91.9947L92.8984 91.9978L92.927 92.0742L92.9865 92.0549ZM93.2299 92.6983L93.1712 92.7176L93.1874 92.7609L93.2353 92.7585L93.2299 92.6983ZM93.6981 92.6782L93.6433 92.6489L93.5892 92.7431L93.702 92.7385L93.6981 92.6782ZM94.1687 92.9269L94.229 92.9068L94.2236 92.8983L94.1687 92.9269ZM94.596 94.0545L94.5373 94.0738L94.5535 94.1163L94.5998 94.1148L94.596 94.0545ZM94.6663 94.0561L94.6702 94.1163V93.9958L94.6663 94.0561ZM94.5975 94.0584L94.5937 93.9982L94.5102 94.0028L94.5388 94.0785L94.5975 94.0584ZM95.1963 95.6378L95.2582 95.6255L95.2551 95.6178L95.1963 95.6378ZM95.0294 95.8471L95.0256 95.7869L94.8247 95.7954L94.997 95.8981L95.0294 95.8471ZM94.5612 95.8665L94.5581 95.8062L94.4855 95.8078L94.4994 95.8765L94.5612 95.8665ZM94.7049 96.5909L94.6439 96.601L94.6539 96.6535L94.7088 96.6512L94.7049 96.5909ZM96.0061 96.5407L96.0648 96.5214L96.0494 96.4789L96.003 96.4805L96.0061 96.5407ZM96.3855 97.5417L96.3267 97.561L96.343 97.6035L96.3893 97.6019L96.3855 97.5417ZM97.0299 97.5154L97.0337 97.5757L97.1172 97.5718L97.0886 97.4953L97.0299 97.5154ZM96.6543 96.5253L96.652 96.465L96.5663 96.4666L96.5956 96.5446L96.6543 96.5253ZM97.1713 96.5083L97.23 96.489L97.2138 96.4465L97.1674 96.448L97.1713 96.5083ZM97.5445 97.4938L97.4857 97.5139L97.5012 97.5563L97.5483 97.554L97.5445 97.4938ZM98.1889 97.4675L98.1927 97.5278L98.2769 97.5239L98.2476 97.4474L98.1889 97.4675ZM97.8103 96.4689L97.8033 96.4086L97.7245 96.4164L97.7515 96.4882L97.8103 96.4689ZM97.8713 93.9178L97.8365 93.8669L97.7044 93.9503L97.862 93.9773L97.8713 93.9178ZM98.0405 92.8821L98.0969 92.8574L98.0815 92.8242L98.0436 92.8219L98.0405 92.8821ZM97.9687 94.9489L97.947 94.8918L97.8891 94.9111L97.9092 94.9674L97.9687 94.9489ZM96.4604 95.7174L96.4017 95.7352L96.4171 95.7792L96.465 95.7776L96.4604 95.7174ZM95.9736 94.3388L95.9698 94.2785L95.8879 94.2824L95.9141 94.3573L95.9736 94.3388ZM97.9687 94.9489L97.9895 95.0061L98.0482 94.9868L98.0281 94.9304L97.9687 94.9489ZM96.7664 93.208L96.7455 93.1509L96.6868 93.1702L96.7069 93.2266L96.7664 93.208ZM96.7664 93.208L96.7873 93.2652L96.846 93.2467L96.8259 93.1895L96.7664 93.208ZM95.0781 92.652L95.0743 92.5917L94.9923 92.5956L95.0186 92.6705L95.0781 92.652ZM95.5216 93.8947L95.4629 93.9132L95.4784 93.9572L95.5255 93.9549L95.5216 93.8947ZM96.0872 91.9862C96.9402 92.0202 97.6557 92.2303 97.9833 92.9068L98.0969 92.8574C97.7369 92.1136 96.9534 91.8997 96.0903 91.8657L96.0872 91.9862ZM95.6553 90.9559L96.03 91.9453L96.1475 91.9059L95.7727 90.9165L95.6553 90.9559ZM95.0735 91.0231L95.7179 90.9968L95.7102 90.8763L95.0658 90.9026L95.0735 91.0231ZM95.493 91.9066L95.1283 90.9435L95.0109 90.9829L95.3756 91.946L95.493 91.9066ZM94.9274 92.014C95.0982 92.004 95.2697 91.9939 95.4382 91.987L95.4304 91.8665C95.2605 91.8734 95.0882 91.8835 94.9166 91.8935L94.9274 92.014ZM94.4955 91.0038L94.8633 91.9738L94.9808 91.9345L94.6138 90.9644L94.4955 91.0038ZM93.9145 91.071L94.5589 91.0447L94.5512 90.9242L93.9068 90.9505L93.9145 91.071ZM94.3441 91.98L93.9693 90.9906L93.8519 91.03L94.2259 92.0194L94.3441 91.98ZM93.8805 92.082C94.0149 92.0766 94.1517 92.0681 94.29 92.0596L94.28 91.9399C94.1416 91.9476 94.0057 91.9561 93.8728 91.9615L93.8805 92.082ZM93.8171 92.0395L93.8187 92.0426L93.9353 92.0009L93.9338 91.9978L93.8171 92.0395ZM92.9904 92.1152L93.8789 92.0789L93.872 91.9584L92.9827 91.9947L92.9904 92.1152ZM93.2886 92.6782L93.0452 92.0349L92.927 92.0742L93.1712 92.7176L93.2886 92.6782ZM93.753 92.7083C93.76 92.6968 93.7638 92.6798 93.7576 92.6612C93.7522 92.645 93.7414 92.635 93.736 92.6303C93.7252 92.6226 93.7144 92.6203 93.7128 92.6195C93.7059 92.618 93.6997 92.6172 93.6981 92.6172C93.692 92.6164 93.685 92.6164 93.6788 92.6164C93.6649 92.6164 93.6456 92.6172 93.624 92.618C93.5792 92.6195 93.5204 92.6218 93.4617 92.6249C93.4022 92.628 93.3435 92.6311 93.2994 92.6334C93.277 92.635 93.2585 92.6357 93.2454 92.6365C93.2392 92.6373 93.2338 92.6373 93.2307 92.6373C93.2284 92.6373 93.2276 92.6381 93.2268 92.6381C93.226 92.6381 93.226 92.6381 93.2253 92.6381C93.2253 92.6381 93.2253 92.6381 93.2299 92.6983C93.2353 92.7585 93.2353 92.7585 93.2353 92.7585C93.2361 92.7585 93.2361 92.7585 93.2369 92.7578C93.2376 92.7578 93.2384 92.7578 93.2407 92.7578C93.2438 92.7578 93.2492 92.7578 93.2554 92.757C93.2685 92.7562 93.2863 92.7555 93.3087 92.7539C93.3528 92.7516 93.4115 92.7485 93.4702 92.7454C93.5289 92.7423 93.5876 92.74 93.6301 92.7385C93.6518 92.7377 93.6688 92.7369 93.6804 92.7369C93.6835 92.7369 93.685 92.7369 93.6873 92.7377C93.6881 92.7377 93.6881 92.7377 93.6889 92.7377C93.6889 92.7377 93.6889 92.7377 93.6881 92.7369C93.6873 92.7369 93.685 92.7369 93.6819 92.7361C93.6811 92.7354 93.6711 92.7331 93.6603 92.7253C93.6541 92.7215 93.6441 92.7114 93.6386 92.6952C93.6325 92.6774 93.6363 92.6605 93.6433 92.6489L93.753 92.7083ZM94.2236 92.8983C94.1447 92.7632 93.9863 92.6064 93.6943 92.618L93.702 92.7385C93.9323 92.7292 94.0513 92.8481 94.1146 92.9563L94.2236 92.8983ZM94.6547 94.0345L94.2282 92.9076L94.11 92.947L94.5373 94.0738L94.6547 94.0345ZM94.6702 93.9958C94.6385 93.9927 94.6122 93.9935 94.5929 93.9943L94.5998 94.1148C94.6161 94.114 94.6369 94.114 94.6617 94.1156L94.6702 93.9958ZM94.6508 94.1171L94.6702 94.1163L94.6624 93.9951L94.6431 93.9958L94.6508 94.1171ZM94.6022 94.1186C94.6192 94.1179 94.6354 94.1171 94.6508 94.1171L94.6431 93.9958C94.6277 93.9966 94.6107 93.9974 94.5937 93.9982L94.6022 94.1186ZM95.2551 95.6178L94.657 94.0391L94.5388 94.0785L95.1368 95.6572L95.2551 95.6178ZM95.0333 95.9074C95.1407 95.9028 95.211 95.8618 95.2442 95.7954C95.2744 95.7359 95.2674 95.6687 95.2574 95.6255L95.1345 95.6494C95.143 95.6834 95.143 95.7174 95.1314 95.7413C95.1222 95.7583 95.1005 95.7838 95.0256 95.7869L95.0333 95.9074ZM94.5612 95.8665C94.5635 95.9267 94.5635 95.9267 94.5635 95.9267H94.5643C94.5651 95.9267 94.5674 95.9267 94.5689 95.9259C94.5728 95.9259 94.5782 95.9259 94.5844 95.9259C94.5975 95.9252 94.6161 95.9252 94.6385 95.9244C94.6833 95.9228 94.7436 95.9213 94.8023 95.919C94.8618 95.9174 94.9213 95.9151 94.9653 95.9128C94.9869 95.912 95.0055 95.9105 95.0186 95.9097C95.0248 95.9089 95.0318 95.9089 95.0372 95.9082C95.0387 95.9074 95.0449 95.9066 95.0519 95.9043C95.0542 95.9035 95.058 95.902 95.0627 95.8989C95.0658 95.8973 95.0758 95.8912 95.0835 95.8796C95.0928 95.8641 95.0967 95.8425 95.0858 95.8217C95.0781 95.8062 95.0658 95.7985 95.0619 95.7962L94.997 95.8981C94.9931 95.8958 94.9808 95.8881 94.973 95.8726C94.963 95.8518 94.9661 95.8302 94.9761 95.8155C94.9831 95.8039 94.9931 95.7977 94.9962 95.7954C95.0009 95.7931 95.0039 95.7915 95.0063 95.7915C95.0094 95.79 95.0124 95.7892 95.0132 95.7892C95.014 95.7884 95.0148 95.7884 95.0148 95.7884C95.0148 95.7884 95.014 95.7884 95.0124 95.7892C95.0109 95.7892 95.0086 95.7892 95.0063 95.7892C94.9954 95.7908 94.9784 95.7915 94.9568 95.7923C94.9135 95.7946 94.8548 95.7969 94.7961 95.7985C94.7366 95.8008 94.6771 95.8023 94.6323 95.8039C94.6099 95.8047 94.5913 95.8047 94.5782 95.8054C94.572 95.8054 94.5666 95.8054 94.5635 95.8054C94.5612 95.8054 94.5604 95.8054 94.5597 95.8054C94.5589 95.8062 94.5589 95.8062 94.5581 95.8062C94.5581 95.8062 94.5581 95.8062 94.5612 95.8665ZM94.7667 96.5801L94.6223 95.8556L94.4994 95.8765L94.6439 96.601L94.7667 96.5801ZM95.5402 96.4959L94.7018 96.5307L94.7088 96.6512L95.5479 96.6164L95.5402 96.4959ZM95.8152 96.4866C95.7248 96.4897 95.6329 96.4921 95.5402 96.4959L95.5479 96.6164C95.6398 96.6125 95.731 96.6102 95.8214 96.6071L95.8152 96.4866ZM96.003 96.4805C95.9404 96.4828 95.8778 96.4843 95.8152 96.4866L95.8214 96.6071C95.8848 96.6056 95.9474 96.6033 96.0099 96.601L96.003 96.4805ZM96.4442 97.5216L96.0648 96.5214L95.9474 96.5608L96.3267 97.561L96.4442 97.5216ZM97.026 97.4552L96.3816 97.4814L96.3893 97.6019L97.0337 97.5757L97.026 97.4552ZM96.5956 96.5446L96.9711 97.5347L97.0886 97.4953L96.7131 96.5052L96.5956 96.5446ZM97.1674 96.448C97.0005 96.455 96.8297 96.4612 96.652 96.465L96.6567 96.5855C96.8359 96.5816 97.0075 96.5755 97.1751 96.5685L97.1674 96.448ZM97.6032 97.4745L97.23 96.489L97.1125 96.5284L97.4857 97.5139L97.6032 97.4745ZM98.185 97.4073L97.5406 97.4335L97.5483 97.554L98.1927 97.5278L98.185 97.4073ZM97.7515 96.4882L98.1301 97.4868L98.2476 97.4474L97.8698 96.4488L97.7515 96.4882ZM99.2072 95.1397C99.2721 95.3722 99.2791 95.5583 99.2412 95.7081C99.2034 95.8572 99.1207 95.9746 98.9978 96.0688C98.7483 96.2611 98.3333 96.3569 97.8033 96.4086L97.818 96.5284C98.3496 96.4774 98.797 96.3793 99.0767 96.1638C99.2188 96.0541 99.3185 95.9151 99.3625 95.7382C99.4074 95.5629 99.3973 95.3559 99.3285 95.1103L99.2072 95.1397ZM97.862 93.9773C98.1881 94.0321 98.4724 94.1387 98.7004 94.3218C98.9275 94.504 99.1037 94.7659 99.2072 95.1397L99.3285 95.1103C99.2188 94.7157 99.0303 94.4307 98.7792 94.2291C98.5296 94.0291 98.2221 93.9163 97.8813 93.8584L97.862 93.9773ZM97.9841 92.9068C98.107 93.1594 98.1363 93.3563 98.1039 93.5093C98.0722 93.6606 97.9787 93.7773 97.8365 93.8669L97.9068 93.9688C98.0706 93.8653 98.1881 93.724 98.2267 93.5355C98.2661 93.3486 98.2267 93.1246 98.0969 92.8574L97.9841 92.9068ZM96.5864 95.773C96.8413 95.7653 97.2601 95.7529 97.5839 95.6494C97.7461 95.5985 97.8929 95.5212 97.9818 95.403C98.0737 95.2802 98.0961 95.1235 98.0281 94.9304L97.9092 94.9674C97.9671 95.1304 97.9439 95.2455 97.8798 95.3312C97.8126 95.42 97.6944 95.4865 97.5429 95.5351C97.2393 95.6317 96.839 95.6448 96.5802 95.6525L96.5864 95.773ZM96.465 95.7776C96.499 95.7753 96.54 95.7745 96.5864 95.773L96.5802 95.6525C96.5338 95.6541 96.4921 95.6548 96.4565 95.6572L96.465 95.7776ZM95.9141 94.3573L96.4017 95.7352L96.5199 95.6989L96.0331 94.3202L95.9141 94.3573ZM96.1197 94.2692C96.0617 94.2731 96.0107 94.277 95.9698 94.2785L95.9775 94.399C96.0215 94.3975 96.0733 94.3936 96.1313 94.3897L96.1197 94.2692ZM98.0281 94.9304C97.8883 94.5357 97.5298 94.3627 97.1566 94.2932C96.7834 94.2229 96.3785 94.2515 96.1197 94.2692L96.1313 94.3897C96.3924 94.3712 96.7803 94.3449 97.1342 94.4114C97.4881 94.4778 97.7909 94.633 97.9092 94.9674L98.0281 94.9304ZM97.9895 95.0061L97.9478 94.8918H97.947L97.9895 95.0061ZM96.7069 93.2266C96.7602 93.3749 96.7432 93.4776 96.693 93.5517C96.6404 93.6297 96.5462 93.6877 96.4218 93.7302C96.1722 93.8151 95.84 93.8252 95.6221 93.8313L95.6283 93.9518C95.8415 93.9456 96.1946 93.9364 96.4658 93.8437C96.6018 93.7973 96.7254 93.7278 96.7988 93.6189C96.8738 93.5069 96.8877 93.3641 96.8259 93.1895L96.7069 93.2266ZM95.2118 92.7037C95.4305 92.6883 95.7527 92.6651 96.0494 92.7261C96.3437 92.7863 96.5995 92.9254 96.7069 93.2266L96.8259 93.1895C96.6976 92.8311 96.3909 92.6728 96.0733 92.6079C95.7565 92.5431 95.4166 92.5678 95.2002 92.5832L95.2118 92.7037ZM95.082 92.7122C95.1191 92.7107 95.1631 92.7076 95.2118 92.7037L95.2002 92.5832C95.1508 92.5871 95.109 92.5902 95.0743 92.5917L95.082 92.7122ZM95.5811 93.8761L95.1376 92.6334L95.0186 92.6705L95.4629 93.9132L95.5811 93.8761ZM95.6221 93.8313C95.5834 93.8321 95.5479 93.8336 95.5178 93.8344L95.5255 93.9549C95.5548 93.9541 95.5889 93.9526 95.6283 93.9518L95.6221 93.8313Z" fill="black"/>
<path d="M100.542 102.494L89.4609 96.0977L90.4639 97.5612L99.9019 103.011L100.542 102.494Z" fill="#C2C2C2"/>
<path d="M103.676 102.5L102.673 103.306L87.8203 94.7694L88.0537 93.5391L89.7033 94.4798C89.7435 94.4999 89.7821 94.5223 89.82 94.5477C91.6659 95.6545 91.6659 96.8293 93.3943 97.7831C96.0654 99.259 100.618 100.907 103.018 102.168C102.992 102.138 102.958 102.114 102.92 102.1L103.153 102.236C103.203 102.267 103.27 102.297 103.319 102.334C103.373 102.358 103.424 102.387 103.473 102.42L103.676 102.5Z" fill="white"/>
<path d="M113.021 157.78V115.428C113.019 114.614 112.804 113.814 112.396 113.109C111.987 112.404 111.401 111.819 110.694 111.412L73.6111 90.0026C72.9265 89.6221 72.3192 89.1174 71.8201 88.5144C71.3936 88.0336 71.0976 87.4514 70.9609 86.8235C70.8241 86.1957 70.8512 85.5432 71.0389 84.9287M113.021 157.78C113.023 157.88 112.998 157.979 112.949 158.066C112.899 158.153 112.825 158.224 112.737 158.272M113.021 157.78H113.082ZM113.021 157.78L113.082 157.778V157.78M112.737 158.272C112.651 158.323 112.554 158.35 112.454 158.35C112.355 158.35 112.257 158.323 112.172 158.272M112.737 158.272L112.767 158.326C112.767 158.326 112.767 158.326 112.767 158.326M112.737 158.272L112.769 158.325C112.768 158.325 112.768 158.326 112.767 158.326M112.172 158.272L93.6231 147.567C93.6208 147.589 93.6184 147.612 93.6161 147.634M112.172 158.272L112.14 158.325L93.6161 147.634M112.172 158.272L112.141 158.326L112.14 158.325C112.235 158.381 112.344 158.411 112.454 158.411C112.565 158.411 112.673 158.382 112.767 158.326M93.6161 147.634L93.5574 147.6C93.4855 148.267 93.4021 148.933 93.3125 149.6M93.6161 147.634C93.5458 148.278 93.4655 148.923 93.3789 149.567ZM93.3125 149.6L111.211 159.963ZM93.3125 149.6L93.3735 149.608C93.3751 149.594 93.3774 149.581 93.3789 149.567M93.3125 149.6L93.3434 149.546L93.3789 149.567M111.211 159.963C111.587 160.177 112.01 160.291 112.442 160.295ZM111.211 159.963L111.242 159.911C111.608 160.118 112.021 160.23 112.442 160.234M111.211 159.963L111.242 159.911L93.3789 149.567M112.442 160.295C112.874 160.294 113.299 160.18 113.673 159.963C113.748 159.92 113.82 159.88 113.889 159.843C114.537 159.486 114.903 159.283 114.903 157.811V115.471C114.907 114.327 114.611 113.201 114.046 112.205C113.481 111.209 112.665 110.379 111.679 109.795L74.5893 88.3913C73.2109 87.5918 72.5711 86.5462 72.8848 85.5499C73.2773 84.6699 73.9897 83.9729 74.8767 83.5991L74.8489 83.5442M112.442 160.295L112.443 160.234C112.442 160.234 112.442 160.234 112.442 160.234M112.442 160.295V160.234ZM74.8489 83.5442C74.8675 83.5361 74.8868 83.5283 74.9053 83.5206L74.0538 81.8535M74.8489 83.5442L74.0252 81.9324ZM74.8489 83.5442C73.9495 83.9245 73.2271 84.6319 72.8284 85.5248L72.8261 85.5314C72.4992 86.5705 73.1722 87.6406 74.5584 88.4445L111.648 109.848L111.679 109.795L111.649 109.848C112.624 110.426 113.432 111.249 113.992 112.235C114.552 113.222 114.845 114.337 114.842 115.471V157.811C114.842 158.622 114.729 159.032 114.532 159.293C114.433 159.424 114.31 159.521 114.162 159.615C114.069 159.673 113.97 159.727 113.861 159.787C113.793 159.826 113.719 159.866 113.642 159.91C113.277 160.121 112.863 160.233 112.442 160.234M74.0538 81.8535C73.3716 82.1387 72.7527 82.5579 72.235 83.086C71.7173 83.6142 71.3109 84.2408 71.0389 84.9287M74.0538 81.8535L73.999 81.8815L74.0252 81.9324M74.0538 81.8535L74.0778 81.9102C74.06 81.9175 74.0422 81.925 74.0252 81.9324M71.0389 84.9287L71.0961 84.9512C71.0969 84.9505 71.0969 84.9498 71.0969 84.949M71.0389 84.9287L71.0976 84.9467C71.0976 84.9474 71.0976 84.9482 71.0969 84.949M71.0969 84.949C70.913 85.5527 70.8867 86.1937 71.0211 86.8104C71.1556 87.428 71.4469 88.0007 71.8664 88.4735L71.868 88.4751C72.3617 89.0723 72.9636 89.5721 73.6405 89.9493H73.642L110.725 111.359M71.0969 84.949C71.3657 84.2696 71.7675 83.6508 72.279 83.1291C72.7774 82.6204 73.3708 82.214 74.0252 81.9324M110.725 111.359C111.441 111.771 112.035 112.364 112.449 113.078C112.862 113.792 113.081 114.603 113.082 115.428V157.78M112.767 158.326C112.865 158.272 112.947 158.193 113.002 158.097C113.057 158.001 113.085 157.891 113.082 157.78" fill="#BDF651"/>
<path d="M113.021 157.78V115.428C113.019 114.614 112.804 113.814 112.396 113.109C111.987 112.404 111.401 111.819 110.694 111.412M113.021 157.78C113.023 157.88 112.998 157.979 112.949 158.066C112.899 158.153 112.825 158.224 112.737 158.272M113.021 157.78H113.082M113.021 157.78L113.082 157.778V157.78M110.694 111.412L73.6111 90.0026C72.9265 89.6221 72.3192 89.1174 71.8201 88.5144C71.3936 88.0336 71.0976 87.4514 70.9609 86.8235C70.8241 86.1957 70.8512 85.5432 71.0389 84.9287M110.694 111.412L110.725 111.359M71.0389 84.9287C71.3109 84.2408 71.7173 83.6142 72.235 83.086C72.7527 82.5579 73.3716 82.1387 74.0538 81.8535M71.0389 84.9287L71.0961 84.9512C71.0969 84.9505 71.0969 84.9498 71.0969 84.949M71.0389 84.9287L71.0976 84.9467C71.0976 84.9474 71.0976 84.9482 71.0969 84.949M112.737 158.272C112.651 158.323 112.554 158.35 112.454 158.35C112.355 158.35 112.257 158.323 112.172 158.272M112.737 158.272L112.767 158.326C112.767 158.326 112.767 158.326 112.767 158.326M112.737 158.272L112.769 158.325C112.768 158.325 112.768 158.326 112.767 158.326M113.082 157.78V115.428C113.081 114.603 112.862 113.792 112.449 113.078C112.035 112.364 111.441 111.771 110.725 111.359M113.082 157.78C113.085 157.891 113.057 158.001 113.002 158.097C112.947 158.193 112.865 158.272 112.767 158.326M112.172 158.272L93.6231 147.567C93.6208 147.589 93.6184 147.612 93.6161 147.634M112.172 158.272L112.14 158.325M112.172 158.272L112.141 158.326L112.14 158.325M112.767 158.326C112.673 158.382 112.565 158.411 112.454 158.411C112.344 158.411 112.235 158.381 112.14 158.325M93.6161 147.634L112.14 158.325M93.6161 147.634L93.5574 147.6C93.4855 148.267 93.4021 148.933 93.3125 149.6M93.6161 147.634C93.5458 148.278 93.4655 148.923 93.3789 149.567M93.3125 149.6L111.211 159.963M93.3125 149.6L93.3735 149.608C93.3751 149.594 93.3774 149.581 93.3789 149.567M93.3125 149.6L93.3434 149.546L93.3789 149.567M93.3789 149.567L111.242 159.911M111.211 159.963C111.587 160.177 112.01 160.291 112.442 160.295M111.211 159.963L111.242 159.911M112.442 160.295C112.874 160.294 113.299 160.18 113.673 159.963C113.748 159.92 113.82 159.88 113.889 159.843C114.537 159.486 114.903 159.283 114.903 157.811V115.471C114.907 114.327 114.611 113.201 114.046 112.205C113.481 111.209 112.665 110.379 111.679 109.795M112.442 160.295L112.443 160.234C112.442 160.234 112.442 160.234 112.442 160.234M112.442 160.295V160.234M111.242 159.911C111.608 160.118 112.021 160.23 112.442 160.234M112.442 160.234C112.863 160.233 113.277 160.121 113.642 159.91C113.719 159.866 113.793 159.826 113.861 159.787C113.97 159.727 114.069 159.673 114.162 159.615C114.31 159.521 114.433 159.424 114.532 159.293C114.729 159.032 114.842 158.622 114.842 157.811V115.471C114.845 114.337 114.552 113.222 113.992 112.235C113.432 111.249 112.624 110.426 111.649 109.848L111.679 109.795M111.679 109.795L74.5893 88.3913C73.2109 87.5918 72.5711 86.5462 72.8848 85.5499C73.2773 84.6699 73.9897 83.9729 74.8767 83.5991L74.8489 83.5442M111.679 109.795L111.648 109.848L74.5584 88.4445C73.1722 87.6406 72.4992 86.5705 72.8261 85.5314L72.8284 85.5248C73.2271 84.6319 73.9495 83.9245 74.8489 83.5442M74.8489 83.5442C74.8675 83.5361 74.8868 83.5283 74.9053 83.5206L74.0538 81.8535M74.8489 83.5442L74.0252 81.9324M74.0538 81.8535L73.999 81.8815L74.0252 81.9324M74.0538 81.8535L74.0778 81.9102C74.06 81.9175 74.0422 81.925 74.0252 81.9324M74.0252 81.9324C73.3708 82.214 72.7774 82.6204 72.279 83.1291C71.7675 83.6508 71.3657 84.2696 71.0969 84.949M71.0969 84.949C70.913 85.5527 70.8867 86.1937 71.0211 86.8104C71.1556 87.428 71.4469 88.0007 71.8664 88.4735L71.868 88.4751C72.3617 89.0723 72.9636 89.5721 73.6405 89.9493H73.642L110.725 111.359" stroke="black" stroke-width="0.159266"/>
<path d="M110.69 111.456L73.6071 90.0457C73.2973 89.8649 73.0037 89.6593 72.7271 89.431C72.5919 89.3265 72.4628 89.2096 72.3392 89.0989C72.3013 89.0693 72.2666 89.0364 72.2349 89.0005C72.0873 88.8529 71.9459 88.6992 71.8161 88.5454C71.2675 87.8972 70.9384 87.092 70.875 86.2451V134.439C70.943 135.891 71.915 137.293 73.6133 138.277L111.232 159.964C112.512 160.659 113.017 159.767 113.017 158.851V115.472C113.015 114.657 112.8 113.857 112.392 113.153C111.983 112.448 111.397 111.862 110.69 111.456Z" fill="#BDF651"/>
<path d="M111.75 160.045C111.736 160.069 111.724 160.085 111.715 160.095L111.686 160.093C111.522 160.078 111.362 160.025 111.222 159.936L111.22 159.934L73.3197 138.021C71.8609 137.179 70.9994 136.002 70.9453 134.789V89.333L71.0666 89.461L71.0689 89.4638C71.3208 89.6967 71.4645 89.8279 71.6206 89.9467C71.9266 90.1939 72.2519 90.4155 72.5942 90.6102L109.922 112.222C110.515 112.564 111.007 113.057 111.35 113.65C111.692 114.243 111.873 114.916 111.872 115.6V159.458L111.873 159.462C111.883 159.663 111.84 159.865 111.75 160.045Z" fill="#BDF651" stroke="black" stroke-width="0.159266"/>
<g style="mix-blend-mode:multiply">
<path d="M123.846 129.961L119.674 132.347C117.213 133.756 114.419 134.765 111.952 133.337L94.5023 123.245L93.4808 122.66C93.13 122.439 92.7058 122.371 92.4532 122.826C92.4462 122.862 92.4354 122.897 92.4222 122.931C92.3875 123 92.3589 123.072 92.3365 123.146C92.2785 123.332 92.2453 123.524 92.2384 123.718V132.563C92.2337 133.313 92.4477 134.048 92.8534 134.678C93.198 135.243 93.6755 135.716 94.2442 136.056L111.964 146.278C112.974 146.85 113.293 147.151 114.18 146.998C114.429 146.953 114.676 146.891 114.918 146.813C116.499 146.327 121.84 141.61 123.267 142.569C123.437 142.683 123.636 142.746 123.84 142.754C124.547 142.696 125.217 142.414 125.753 141.948V128.854L123.846 129.961Z" fill="#D4B798"/>
</g>
<path d="M91.4023 122.046V122.033C91.4023 122.016 91.4031 122 91.4031 121.984H91.4394V121.787H91.4217C91.4255 121.761 91.4294 121.735 91.4348 121.709L91.451 121.711C91.4634 121.641 91.4788 121.571 91.4982 121.502L91.5206 121.424H91.5105C91.5237 121.375 91.5391 121.327 91.5577 121.279C91.5824 121.259 91.5986 121.237 91.6079 121.212C91.6148 121.191 91.6171 121.173 91.6179 121.158C91.7338 120.962 91.8791 120.884 92.0321 120.872C92.1936 120.859 92.3728 120.92 92.5459 121.022L93.5612 121.636L93.5619 121.637L111.036 131.724L111.039 131.725C112.399 132.426 113.908 132.792 115.439 132.792C116.97 132.792 118.478 132.426 119.839 131.725L119.841 131.724L126.523 127.886C126.722 127.77 126.915 127.644 127.101 127.507V127.508L127.105 127.505C127.163 127.455 127.218 127.409 127.272 127.365C127.437 127.227 127.58 127.109 127.709 126.972C127.882 126.789 128.033 126.572 128.191 126.231C128.3 125.997 128.377 125.784 128.431 125.605V137.821V137.826C128.443 137.961 128.443 138.096 128.431 138.23C128.313 138.76 128.078 139.257 127.743 139.684C127.407 140.112 126.979 140.459 126.49 140.699L126.487 140.702L119.793 144.57C118.449 145.262 116.957 145.622 115.445 145.622C113.932 145.622 112.441 145.262 111.097 144.57L93.3835 134.311C92.7816 133.964 92.2816 133.464 91.9339 132.862C91.5862 132.261 91.4031 131.578 91.4023 130.884V122.372V122.37V122.369V122.368V122.366V122.365V122.363V122.362V122.36V122.358V122.358V122.356V122.355V122.353V122.352V122.35V122.348V122.348V122.346V122.345V122.343V122.341V122.34V122.338V122.337V122.336V122.335V122.333V122.331V122.33V122.328V122.327V122.326V122.324V122.323V122.321V122.32V122.318V122.317V122.315V122.314V122.313V122.311V122.31V122.308V122.307V122.305V122.304V122.303V122.301V122.3V122.298V122.297V122.295V122.294V122.293V122.291V122.29V122.288V122.287V122.285V122.284V122.283V122.281V122.28V122.278V122.277V122.275V122.274V122.273V122.271V122.27V122.268V122.267V122.265V122.263V122.262V122.261V122.26V122.258V122.257V122.255V122.253V122.252V122.251V122.25V122.248V122.246V122.245V122.243V122.242V122.24V122.24V122.238V122.236V122.235V122.233V122.232V122.23V122.229V122.228V122.226V122.225V122.223V122.222V122.22V122.219V122.218V122.216V122.215V122.213V122.212V122.21V122.209V122.208V122.206V122.205V122.203V122.202V122.2V122.199V122.197V122.196V122.195V122.193V122.192V122.19V122.189V122.187V122.186V122.185V122.183V122.182V122.18V122.179V122.177V122.176V122.175V122.173V122.172V122.17V122.168V122.167V122.165V122.165V122.163V122.162V122.16V122.158V122.157V122.155V122.155V122.153V122.151V122.15V122.148V122.147V122.145V122.144V122.143V122.141V122.14V122.138V122.137V122.135V122.134V122.133V122.131V122.13V122.128V122.127V122.125V122.124V122.122V122.121V122.12V122.118V122.117V122.115V122.114V122.112V122.111V122.11V122.108V122.107V122.105V122.104V122.102V122.101V122.1V122.098V122.097V122.095V122.094V122.092V122.09V122.09V122.088V122.087V122.085V122.084V122.082V122.08V122.08V122.078V122.077V122.075V122.073V122.072V122.07V122.069V122.068V122.067V122.065V122.063V122.062V122.06V122.059V122.058V122.056V122.055V122.053V122.052V122.05V122.049V122.047V122.046Z" fill="#BDF651" stroke="black" stroke-width="0.159266"/>
<path fill-rule="evenodd" clip-rule="evenodd" d="M128.511 125.293C128.508 125.18 128.506 125.079 128.508 125.035C128.521 124.289 128.251 123.566 127.751 123.012L127.744 123.017C127.377 122.589 126.938 122.228 126.446 121.954L125.498 121.285V123.024L125.756 123.196C126.095 123.386 126.399 123.632 126.657 123.922L126.65 123.928C126.799 124.083 126.911 124.27 126.976 124.474C127.043 124.679 127.061 124.896 127.031 125.109C126.936 125.431 126.773 125.728 126.554 125.981C126.334 126.235 126.062 126.439 125.758 126.579L119.064 130.442C117.929 131 116.682 131.29 115.418 131.29C114.153 131.29 112.906 131 111.772 130.442L94.3043 120.324C94.0046 120.149 93.6638 120.057 93.3169 120.057C92.9692 120.057 92.6284 120.149 92.3286 120.324C91.9941 120.512 91.6309 120.975 91.4609 121.319C91.7121 120.878 91.9732 121.001 92.3881 121.197L92.3935 121.2L93.3694 121.824L110.963 131.914C112.314 132.611 113.897 133.01 115.418 133.01C116.939 133.01 118.581 132.611 119.932 131.914L126.554 128.157C126.718 128.061 127.187 127.714 127.447 127.521C127.5 127.482 127.544 127.45 127.575 127.426C128.285 126.93 128.413 126.327 128.508 125.754C128.519 125.686 128.515 125.474 128.511 125.293Z" fill="#C7FF5C"/>
<mask id="mask0_2037_57410" style="mask-type:luminance" maskUnits="userSpaceOnUse" x="91" y="120" width="38" height="14">
<path fill-rule="evenodd" clip-rule="evenodd" d="M128.511 125.293C128.508 125.18 128.506 125.079 128.508 125.035C128.521 124.289 128.251 123.566 127.751 123.012L127.744 123.017C127.377 122.589 126.938 122.228 126.446 121.954L125.498 121.285V123.024L125.756 123.196C126.095 123.386 126.399 123.632 126.657 123.922L126.65 123.928C126.799 124.083 126.911 124.27 126.976 124.474C127.043 124.679 127.061 124.896 127.031 125.109C126.936 125.431 126.773 125.728 126.554 125.981C126.334 126.235 126.062 126.439 125.758 126.579L119.064 130.442C117.929 131 116.682 131.29 115.418 131.29C114.153 131.29 112.906 131 111.772 130.442L94.3043 120.324C94.0046 120.149 93.6638 120.057 93.3169 120.057C92.9692 120.057 92.6284 120.149 92.3286 120.324C91.9941 120.512 91.6309 120.975 91.4609 121.319C91.7121 120.878 91.9732 121.001 92.3881 121.197L92.3935 121.2L93.3694 121.824L110.963 131.914C112.314 132.611 113.897 133.01 115.418 133.01C116.939 133.01 118.581 132.611 119.932 131.914L126.554 128.157C126.718 128.061 127.187 127.714 127.447 127.521C127.5 127.482 127.544 127.45 127.575 127.426C128.285 126.93 128.413 126.327 128.508 125.754C128.519 125.686 128.515 125.474 128.511 125.293Z" fill="black"/>
</mask>
<g mask="url(#mask0_2037_57410)">
<path d="M128.509 125.035L128.633 125.041V125.037L128.509 125.035ZM127.752 123.011L127.844 122.929L127.765 122.84L127.674 122.916L127.752 123.011ZM127.746 123.017L127.652 123.097L127.731 123.189L127.824 123.112L127.746 123.017ZM126.447 121.953L126.376 122.053L126.381 122.057L126.386 122.06L126.447 121.953ZM125.499 121.285L125.569 121.185L125.375 121.048V121.285H125.499ZM125.499 123.024H125.375V123.089L125.43 123.125L125.499 123.024ZM125.757 123.196L125.689 123.298L125.697 123.303L125.757 123.196ZM126.658 123.922L126.737 124.016L126.835 123.935L126.75 123.84L126.658 123.922ZM126.651 123.927L126.573 123.833L126.471 123.917L126.563 124.013L126.651 123.927ZM127.032 125.108L127.151 125.144L127.153 125.134L127.154 125.126L127.032 125.108ZM125.759 126.579L125.707 126.467L125.703 126.469L125.697 126.472L125.759 126.579ZM119.065 130.441L119.119 130.552L119.126 130.547L119.065 130.441ZM111.773 130.441L111.711 130.548L111.719 130.551L111.773 130.441ZM94.3055 120.323L94.2429 120.429L94.2436 120.43L94.3055 120.323ZM92.3297 120.323L92.3908 120.431L92.3923 120.429L92.3297 120.323ZM91.462 121.319L91.3516 121.265L91.5687 121.38L91.462 121.319ZM92.3947 121.199L92.4611 121.095L92.4542 121.091L92.4472 121.088L92.3947 121.199ZM93.3705 121.823L93.3041 121.928L93.3087 121.931L93.3705 121.823ZM110.964 131.914L110.902 132.021L110.908 132.024L110.964 131.914ZM119.933 131.914L119.99 132.024L119.994 132.021L119.933 131.914ZM126.555 128.157L126.615 128.264L126.617 128.263L126.555 128.157ZM127.576 127.426L127.506 127.325L127.504 127.327L127.576 127.426ZM128.386 125.029C128.384 125.078 128.386 125.185 128.389 125.296L128.635 125.29C128.633 125.173 128.63 125.079 128.633 125.041L128.386 125.029ZM127.661 123.093C128.14 123.624 128.399 124.317 128.386 125.032L128.633 125.037C128.646 124.259 128.364 123.506 127.844 122.929L127.661 123.093ZM127.824 123.112L127.831 123.105L127.674 122.916L127.667 122.922L127.824 123.112ZM126.386 122.06C126.866 122.328 127.295 122.679 127.652 123.097L127.839 122.937C127.463 122.498 127.012 122.128 126.506 121.846L126.386 122.06ZM125.428 121.386L126.376 122.053L126.517 121.853L125.569 121.185L125.428 121.386ZM125.621 123.024V121.285H125.375V123.024H125.621ZM125.825 123.093L125.567 122.921L125.43 123.125L125.689 123.298L125.825 123.093ZM126.75 123.84C126.484 123.539 126.169 123.285 125.818 123.088L125.697 123.303C126.024 123.486 126.318 123.723 126.566 124.003L126.75 123.84ZM126.729 124.022L126.737 124.016L126.58 123.827L126.573 123.833L126.729 124.022ZM127.095 124.436C127.023 124.214 126.902 124.011 126.74 123.842L126.563 124.013C126.699 124.154 126.8 124.325 126.861 124.512L127.095 124.436ZM127.154 125.126C127.187 124.894 127.167 124.659 127.095 124.436L126.861 124.512C126.921 124.699 126.938 124.896 126.911 125.091L127.154 125.126ZM126.648 126.061C126.879 125.795 127.05 125.482 127.151 125.144L126.915 125.073C126.825 125.378 126.67 125.66 126.461 125.901L126.648 126.061ZM125.81 126.69C126.131 126.542 126.417 126.328 126.648 126.061L126.461 125.901C126.254 126.141 125.996 126.334 125.707 126.467L125.81 126.69ZM119.126 130.547L125.821 126.685L125.697 126.472L119.003 130.335L119.126 130.547ZM115.419 131.414C116.702 131.414 117.968 131.118 119.119 130.551L119.01 130.331C117.893 130.881 116.664 131.167 115.419 131.167V131.414ZM111.719 130.551C112.869 131.118 114.136 131.414 115.419 131.414V131.167C114.174 131.167 112.944 130.881 111.828 130.331L111.719 130.551ZM94.2436 120.43L111.712 130.547L111.835 130.335L94.3665 120.217L94.2436 120.43ZM93.318 120.179C93.6425 120.179 93.9624 120.266 94.2429 120.429L94.3673 120.217C94.0489 120.031 93.6865 119.933 93.318 119.933V120.179ZM92.3923 120.429C92.6728 120.266 92.9927 120.179 93.318 120.179V119.933C92.9487 119.933 92.5863 120.031 92.2679 120.217L92.3923 120.429ZM91.5725 121.374C91.6521 121.212 91.7796 121.018 91.928 120.842C92.0779 120.665 92.2409 120.515 92.39 120.431L92.2695 120.216C92.084 120.32 91.8986 120.496 91.7402 120.683C91.5803 120.873 91.4412 121.083 91.3516 121.265L91.5725 121.374ZM92.4418 121.086C92.339 121.037 92.2401 120.99 92.1474 120.956C92.0547 120.921 91.9596 120.897 91.8638 120.896C91.7657 120.896 91.6707 120.924 91.5826 120.986C91.4968 121.048 91.4226 121.139 91.3547 121.258L91.5687 121.38C91.6266 121.279 91.6792 121.22 91.7263 121.186C91.7703 121.154 91.8144 121.142 91.8638 121.142C91.9171 121.142 91.9813 121.157 92.0616 121.187C92.1428 121.216 92.2316 121.259 92.3367 121.308L92.4418 121.086ZM92.4472 121.088L92.4418 121.086L92.3367 121.308L92.3421 121.31L92.4472 121.088ZM93.4362 121.72L92.4611 121.095L92.3282 121.303L93.3041 121.928L93.4362 121.72ZM111.025 131.807L93.4316 121.717L93.3087 121.931L110.902 132.021L111.025 131.807ZM115.419 132.886C113.919 132.886 112.356 132.492 111.02 131.805L110.908 132.024C112.276 132.729 113.878 133.133 115.419 133.133V132.886ZM119.878 131.805C118.542 132.492 116.92 132.886 115.419 132.886V133.133C116.959 133.133 118.62 132.729 119.99 132.024L119.878 131.805ZM126.494 128.05L119.873 131.807L119.994 132.021L126.615 128.264L126.494 128.05ZM127.375 127.422C127.11 127.617 126.649 127.96 126.492 128.051L126.617 128.263C126.788 128.163 127.266 127.809 127.521 127.62L127.375 127.422ZM127.504 127.327C127.472 127.35 127.428 127.383 127.375 127.422L127.521 127.62C127.575 127.58 127.619 127.548 127.65 127.526L127.504 127.327ZM128.388 125.734C128.293 126.298 128.172 126.858 127.506 127.325L127.647 127.527C128.398 127 128.534 126.353 128.631 125.775L128.388 125.734ZM128.389 125.296C128.391 125.386 128.393 125.483 128.393 125.565C128.394 125.653 128.391 125.712 128.388 125.734L128.631 125.775C128.639 125.728 128.64 125.646 128.64 125.565C128.64 125.48 128.637 125.38 128.635 125.29L128.389 125.296Z" fill="black"/>
</g>
<path d="M99.3274 131.284C99.3274 132.871 98.2511 133.541 96.8665 132.779C96.141 132.315 95.5352 131.689 95.0963 130.948C94.6582 130.207 94.4002 129.375 94.3438 128.516C94.3438 126.923 95.4208 126.253 96.8047 127.022C97.5325 127.483 98.1398 128.109 98.5787 128.85C99.0168 129.59 99.2741 130.425 99.3274 131.284Z" fill="#1E2510"/>
<path d="M97.5474 132.951C97.1309 133.205 96.5414 133.189 95.8614 132.812C95.1436 132.356 94.544 131.737 94.1121 131.005C93.6794 130.273 93.4268 129.449 93.375 128.6C93.375 127.82 93.64 127.282 94.0565 127.026C94.4729 126.772 95.0633 126.787 95.7432 127.161C96.4595 127.618 97.0583 128.237 97.4902 128.969C97.9221 129.701 98.1755 130.524 98.2296 131.372C98.2289 132.156 97.9646 132.695 97.5474 132.951Z" fill="white" stroke="black" stroke-width="0.159266"/>
<path d="M89.8164 94.4922C89.9145 94.5416 90.0498 94.6274 90.2344 94.7447L89.8164 94.5107V94.4922Z" fill="#3C6D19"/>
<path d="M102.344 103.305C102.012 103.114 101.649 103.09 101.212 102.881C100.775 102.672 99.846 102.094 99.846 102.094C97.3843 101.017 94.3083 99.8054 92.2777 98.6863C90.5052 97.7085 90.5361 96.4905 88.5859 95.3652C89.3184 95.7831 99.0463 101.208 101.968 102.893C102.516 103.213 102.344 103.305 102.344 103.305Z" fill="black"/>
<path d="M102.448 103.183C100.208 101.891 95.2242 100.138 92.3754 98.5633C90.6029 97.5855 90.6338 96.3683 88.6836 95.2422C89.2986 95.599 96.3809 99.4924 100.171 101.676C100.963 102.126 101.724 102.63 102.448 103.183Z" fill="#C2C2C2"/>
<path d="M96.5232 128.639C96.4065 128.762 96.0496 128.608 95.7173 128.294C95.3851 127.981 95.2128 127.63 95.3294 127.507C95.4461 127.384 95.8031 127.544 96.1353 127.858C96.4676 128.171 96.6399 128.522 96.5232 128.639Z" fill="#D2D2D2"/>
<path d="M74.3181 81.8652L73.8398 82.0767L74.5151 83.6239C74.8327 83.4653 74.9818 83.4269 75.1549 83.35L74.3181 81.8652Z" fill="#BDF651"/>
<path d="M53 115.922L53.0008 115.925C53.0417 116.404 53.1785 116.753 53.4412 117.067C53.7024 117.38 54.0864 117.657 54.6149 117.995L54.6164 117.996L63.9757 123.389L65.9916 130.114L66.0086 130.168L66.0518 130.132L70.1663 126.72L83.5534 134.468C83.9761 134.76 84.7086 135.137 85.5399 135.324C86.3721 135.511 87.307 135.508 88.126 135.032C89.751 134.088 90.2261 132.841 90.2586 132.325V132.323C90.2115 127.172 90.1458 116.179 90.2586 113.4C90.3722 110.606 88.7334 109.301 87.8881 108.997C81.808 105.488 61.5402 94.0326 58.6466 92.4547L58.6397 92.4524C57.0124 91.9411 55.7321 92.284 54.7941 92.9219C53.8576 93.5584 53.2635 94.4875 53.0031 95.1509L53 95.1579V95.1648V115.922Z" fill="#FBBB38" stroke="black" stroke-width="0.0972841"/>
<mask id="mask1_2037_57410" style="mask-type:alpha" maskUnits="userSpaceOnUse" x="52" y="92" width="39" height="44">
<path d="M53.0391 95.1643V115.921C53.1202 116.866 53.5792 117.286 54.6362 117.963L64.0093 123.364L66.0291 130.103L70.1636 126.674L83.567 134.392C84.4045 134.971 86.4846 135.895 88.1002 134.955C89.7166 134.016 90.1833 132.78 90.2142 132.278C90.1671 127.128 90.2142 116.136 90.2142 113.354C90.2142 110.767 88.8976 109.582 87.8653 108.986C81.7891 105.48 61.5237 94.0652 58.63 92.4873C55.3972 91.4732 53.556 93.8497 53.0391 95.1643Z" fill="#FBBB38" stroke="black" stroke-width="0.0972841"/>
</mask>
<g mask="url(#mask1_2037_57410)">
<path d="M90.6985 109.547L84.7305 112.219V136.485L90.4211 134.383L90.6985 109.547Z" fill="#CC8E0E" stroke="black" stroke-width="0.159266"/>
<path d="M55.1756 95.1644C53.1644 94.2631 52.7402 95.5405 52.7796 96.2913L50.1719 106.435L50.7831 124.843C51.4089 126.628 52.6992 130.272 52.8499 130.573C53.0006 130.873 60.711 134.298 64.5481 135.973L84.7439 137.266V112.182C77.9004 108.019 57.1861 96.0665 55.1756 95.1644Z" fill="#FFCC63" stroke="black" stroke-width="0.159266"/>
</g>
<path d="M55.2613 109.642L55.1523 105.358L57.0214 106.406C57.4665 106.656 57.8296 107.003 58.1116 107.446C58.396 107.888 58.5443 108.32 58.5551 108.744C58.5691 109.296 58.3303 109.584 57.8397 109.61L58.6525 111.544L57.5839 110.945L56.8839 109.286L56.2163 108.911L56.2487 110.196L55.2613 109.642ZM56.19 107.871L57.0446 108.35C57.1976 108.436 57.3197 108.46 57.4093 108.422C57.4997 108.384 57.5437 108.302 57.5399 108.176C57.5368 108.049 57.4881 107.915 57.3931 107.774C57.298 107.631 57.1744 107.518 57.0214 107.432L56.1669 106.953L56.19 107.871ZM59.2266 111.866L59.1177 107.583L62.002 109.2L62.0283 110.24L60.1322 109.177L60.1484 109.819L61.6705 110.673L61.6945 111.591L60.1716 110.738L60.1886 111.38L62.0847 112.443L62.1109 113.483L59.2266 111.866ZM62.4926 111.587C62.4764 110.963 62.6588 110.539 63.0397 110.318C63.4237 110.096 63.9159 110.153 64.5178 110.491C65.1197 110.828 65.6219 111.329 66.0253 111.993C66.4317 112.656 66.6426 113.299 66.6588 113.923C66.6728 114.482 66.5368 114.874 66.2516 115.1C65.9658 115.326 65.5949 115.373 65.139 115.242L65.1692 116.435L64.1546 115.867L64.1245 114.673C63.6617 114.289 63.2777 113.819 62.9725 113.261C62.6665 112.703 62.5066 112.145 62.4926 111.587ZM63.8 111.445C63.613 111.561 63.5249 111.804 63.5342 112.17C63.5435 112.537 63.647 112.887 63.8448 113.219C64.0434 113.552 64.2968 113.805 64.6066 113.979C64.9165 114.152 65.1645 114.181 65.3515 114.064C65.5377 113.948 65.6266 113.706 65.6173 113.339C65.608 112.971 65.5037 112.622 65.3059 112.289C65.1081 111.957 64.8539 111.705 64.5448 111.531C64.235 111.357 63.9862 111.329 63.8 111.445ZM67.2128 114.656L67.1479 112.086L68.1354 112.64L68.2003 115.18C68.2065 115.437 68.2745 115.674 68.4027 115.89C68.531 116.107 68.7018 116.275 68.9158 116.395C69.1291 116.515 69.2967 116.537 69.4172 116.459C69.5386 116.382 69.5957 116.215 69.5888 115.958L69.5247 113.419L70.5121 113.973L70.5778 116.543C70.5917 117.098 70.4518 117.458 70.1575 117.622C69.8639 117.788 69.4582 117.725 68.9421 117.436C68.4259 117.146 68.0118 116.749 67.7012 116.245C67.3898 115.74 67.2267 115.211 67.2128 114.656ZM71.3273 118.653L71.2183 114.369L74.1027 115.986L74.129 117.026L72.2328 115.963L72.2491 116.606L73.7712 117.459L73.7944 118.377L72.2722 117.524L72.2885 118.166L74.1846 119.23L74.2116 120.27L71.3273 118.653ZM74.5593 119.108L75.5738 119.677C75.6086 119.797 75.6588 119.912 75.7245 120.021C75.879 120.276 76.0907 120.479 76.3612 120.631C76.5505 120.737 76.6903 120.781 76.7807 120.764C76.8719 120.747 76.9159 120.685 76.9129 120.579C76.9121 120.533 76.9005 120.487 76.8781 120.438C76.8588 120.387 76.8263 120.333 76.7792 120.274C76.7351 120.218 76.6919 120.167 76.6486 120.123C76.6053 120.075 76.5427 120.015 76.4601 119.945C76.3805 119.872 76.3148 119.813 76.2607 119.766C76.2066 119.72 76.1278 119.654 76.0235 119.567C75.9238 119.483 75.8466 119.417 75.7925 119.371C75.4518 119.075 75.1775 118.776 74.9696 118.475C74.7656 118.175 74.659 117.85 74.6497 117.5C74.6405 117.128 74.771 116.89 75.0422 116.784C75.3165 116.677 75.6913 116.757 76.1649 117.022C76.7699 117.361 77.2281 117.839 77.5379 118.456C77.6747 118.725 77.7713 119.001 77.8277 119.282L76.8132 118.713C76.79 118.636 76.7529 118.555 76.7011 118.469C76.5845 118.283 76.4137 118.127 76.1896 118.001C76.015 117.904 75.8875 117.862 75.8072 117.877C75.7268 117.888 75.6874 117.937 75.6897 118.023C75.6928 118.137 75.7539 118.261 75.8729 118.397C75.9957 118.53 76.1734 118.692 76.4068 118.883C76.5427 118.996 76.6401 119.078 76.6973 119.131C76.7583 119.181 76.8534 119.266 76.9832 119.387C77.1153 119.506 77.2165 119.604 77.2853 119.683C77.3541 119.762 77.4352 119.865 77.5302 119.99C77.6276 120.112 77.701 120.228 77.7489 120.336C77.8014 120.442 77.8462 120.561 77.8849 120.696C77.9266 120.832 77.9498 120.967 77.9529 121.102C77.9629 121.493 77.8308 121.747 77.5565 121.863C77.2822 121.978 76.892 121.894 76.3867 121.611C75.7523 121.255 75.2586 120.733 74.9039 120.043C74.7525 119.745 74.6374 119.434 74.5593 119.108ZM78.1576 119.286L78.1306 118.246L81.4693 120.118L81.4955 121.158L80.3203 120.499L80.403 123.743L79.4147 123.188L79.3321 119.945L78.1576 119.286Z" fill="#191919"/>
<path d="M24.1968 48.7189C24.9484 48.7189 25.5576 48.1218 25.5576 47.3853C25.5576 46.6488 24.9484 46.0518 24.1968 46.0518C23.4452 46.0518 22.8359 46.6488 22.8359 47.3853C22.8359 48.1218 23.4452 48.7189 24.1968 48.7189Z" fill="black"/>
<path d="M29.1851 48.7189C29.9366 48.7189 30.5459 48.1218 30.5459 47.3853C30.5459 46.6488 29.9366 46.0518 29.1851 46.0518C28.4335 46.0518 27.8242 46.6488 27.8242 47.3853C27.8242 48.1218 28.4335 48.7189 29.1851 48.7189Z" fill="black"/>
<path d="M33.728 48.7189C34.4796 48.7189 35.0889 48.1218 35.0889 47.3853C35.0889 46.6488 34.4796 46.0518 33.728 46.0518C32.9765 46.0518 32.3672 46.6488 32.3672 47.3853C32.3672 48.1218 32.9765 48.7189 33.728 48.7189Z" fill="black"/>
<g filter="url(#filter1_d_2037_57410)">
<path d="M254.768 32.9697H124.582C119.176 32.9697 114.793 37.3508 114.793 42.7552V54.9213C114.793 60.3256 119.176 64.7067 124.582 64.7067H254.768C260.175 64.7067 264.557 60.3256 264.557 54.9213V42.7552C264.557 37.3508 260.175 32.9697 254.768 32.9697Z" fill="url(#paint0_linear_2037_57410)"/>
<path d="M140.488 53.9258C139.689 53.9258 138.952 53.7944 138.274 53.5317C137.607 53.2588 137.026 52.8798 136.531 52.3947C136.046 51.8995 135.667 51.3183 135.394 50.6513C135.131 49.9742 135 49.2364 135 48.438C135 47.6497 135.136 46.922 135.409 46.255C135.692 45.588 136.086 45.0069 136.592 44.5116C137.097 44.0164 137.688 43.6324 138.365 43.3595C139.053 43.0866 139.796 42.9502 140.594 42.9502C141.099 42.9502 141.594 43.0159 142.08 43.1473C142.565 43.2787 143.014 43.4757 143.429 43.7385C143.853 43.9912 144.217 44.2994 144.52 44.6632L142.929 46.4672C142.615 46.1236 142.261 45.8558 141.867 45.6638C141.483 45.4718 141.054 45.3757 140.579 45.3757C140.175 45.3757 139.79 45.4465 139.427 45.588C139.073 45.7295 138.765 45.9367 138.502 46.2095C138.239 46.4824 138.032 46.8058 137.88 47.1797C137.729 47.5537 137.653 47.9782 137.653 48.4532C137.653 48.9181 137.724 49.3425 137.865 49.7266C138.017 50.1005 138.229 50.4239 138.502 50.6968C138.785 50.9596 139.118 51.1617 139.502 51.3032C139.897 51.4447 140.331 51.5154 140.806 51.5154C141.119 51.5154 141.418 51.475 141.701 51.3941C141.994 51.3032 142.267 51.1768 142.519 51.0151C142.772 50.8534 142.989 50.6715 143.171 50.4694L144.429 52.4705C144.187 52.7433 143.853 52.991 143.429 53.2133C143.014 53.4356 142.55 53.6125 142.034 53.7439C141.529 53.8652 141.013 53.9258 140.488 53.9258Z" fill="black"/>
<path d="M145.757 53.7742V43.1624H150.563C151.25 43.1624 151.866 43.309 152.412 43.6021C152.958 43.8951 153.387 44.2994 153.701 44.8148C154.024 45.3202 154.186 45.9013 154.186 46.5582C154.186 47.2252 154.024 47.8215 153.701 48.347C153.387 48.8726 152.958 49.292 152.412 49.6053C151.866 49.9085 151.25 50.0601 150.563 50.0601H148.228V53.7742H145.757ZM151.654 53.7742L148.956 48.9686L151.609 48.5896L154.61 53.7894L151.654 53.7742ZM148.228 48.0438H150.335C150.598 48.0438 150.825 47.9883 151.017 47.8771C151.22 47.7558 151.371 47.5941 151.472 47.392C151.583 47.1899 151.639 46.9574 151.639 46.6946C151.639 46.4218 151.573 46.1843 151.442 45.9821C151.321 45.78 151.144 45.6234 150.911 45.5122C150.689 45.3909 150.421 45.3303 150.108 45.3303H148.228V48.0438Z" fill="black"/>
<path d="M156.01 53.7742V43.1624H163.408V45.3757H158.542V51.5609H163.575V53.7742H156.01ZM157.238 49.4385V47.3162H162.741V49.4385H157.238Z" fill="black"/>
<path d="M164.041 53.7742L168.24 43.1624H170.438L174.607 53.7742H172L169.983 48.3925C169.913 48.1803 169.832 47.9529 169.741 47.7103C169.66 47.4678 169.579 47.2151 169.498 46.9524C169.417 46.6896 169.342 46.4369 169.271 46.1944C169.2 45.9518 169.139 45.7244 169.089 45.5122L169.529 45.497C169.468 45.7497 169.402 45.9973 169.332 46.2398C169.261 46.4824 169.185 46.725 169.104 46.9675C169.023 47.2101 168.937 47.4526 168.846 47.6952C168.766 47.9276 168.68 48.1702 168.589 48.4228L166.588 53.7742H164.041ZM166.042 51.7428L166.86 49.7721H171.712L172.53 51.7428H166.042Z" fill="black"/>
<path d="M177.058 53.7742V45.4515H173.935V43.1624H182.879V45.4515H179.65V53.7742H177.058Z" fill="black"/>
<path d="M184.267 53.7742V43.1624H191.664V45.3757H186.798V51.5609H191.831V53.7742H184.267ZM185.494 49.4385V47.3162H190.997V49.4385H185.494Z" fill="black"/>
<path d="M198.036 53.7742V43.1624H202.736C203.473 43.1624 204.09 43.2685 204.585 43.4808C205.091 43.6829 205.475 43.9811 205.737 44.3752C206 44.7593 206.131 45.2292 206.131 45.7851C206.131 46.3813 205.98 46.8816 205.677 47.2859C205.384 47.6901 204.959 47.9731 204.403 48.1348L204.388 47.8165C204.843 47.9276 205.242 48.1146 205.586 48.3774C205.939 48.63 206.212 48.9433 206.404 49.3173C206.596 49.6811 206.692 50.0955 206.692 50.5604C206.692 51.096 206.596 51.5659 206.404 51.9702C206.222 52.3745 205.96 52.713 205.616 52.9859C205.283 53.2487 204.883 53.4457 204.418 53.5771C203.964 53.7085 203.458 53.7742 202.902 53.7742H198.036ZM200.492 51.6064H202.796C203.221 51.6064 203.549 51.5053 203.782 51.3032C204.024 51.1011 204.146 50.813 204.146 50.4391C204.146 50.2066 204.085 50.0096 203.964 49.8479C203.852 49.6861 203.691 49.5649 203.479 49.484C203.266 49.4032 203.014 49.3627 202.721 49.3627H200.492V51.6064ZM200.492 47.4071H202.387C202.65 47.4071 202.872 47.3667 203.054 47.2859C203.236 47.1949 203.372 47.0736 203.463 46.922C203.564 46.7603 203.615 46.5734 203.615 46.3611C203.615 46.0377 203.504 45.7851 203.281 45.6031C203.059 45.4212 202.726 45.3303 202.281 45.3303H200.492V47.4071Z" fill="black"/>
<path d="M212.732 53.8652C211.853 53.8652 211.069 53.6883 210.382 53.3346C209.705 52.9707 209.169 52.4755 208.775 51.8489C208.381 51.2122 208.184 50.4947 208.184 49.6963V43.1473H210.791V49.5598C210.791 49.9439 210.877 50.2875 211.049 50.5907C211.221 50.8939 211.453 51.1364 211.747 51.3183C212.05 51.4901 212.378 51.5761 212.732 51.5761C213.106 51.5761 213.444 51.4901 213.748 51.3183C214.051 51.1364 214.288 50.8939 214.46 50.5907C214.642 50.2875 214.733 49.9439 214.733 49.5598V43.1473H217.25V49.6963C217.25 50.4947 217.052 51.2122 216.658 51.8489C216.274 52.4755 215.744 52.9707 215.067 53.3346C214.389 53.6883 213.611 53.8652 212.732 53.8652Z" fill="black"/>
<path d="M221.705 53.7742V45.4515H218.582V43.1624H227.526V45.4515H224.297V53.7742H221.705Z" fill="black"/>
<path d="M228.716 53.7742V51.5912H230.505V45.3454H228.716V43.1624H234.886V45.3454H233.097V51.5912H234.886V53.7742H228.716Z" fill="black"/>
<path d="M236.901 53.7742V43.1624H241.494C242.161 43.1624 242.758 43.314 243.283 43.6172C243.809 43.9204 244.223 44.3348 244.526 44.8603C244.829 45.3757 244.981 45.967 244.981 46.634C244.981 47.3111 244.829 47.9226 244.526 48.4683C244.223 49.0141 243.809 49.4436 243.283 49.7569C242.758 50.0702 242.161 50.2268 241.494 50.2268H239.493V53.7742H236.901ZM239.463 47.9377H241.146C241.368 47.9377 241.565 47.8872 241.737 47.7861C241.919 47.675 242.065 47.5234 242.177 47.3313C242.288 47.1393 242.343 46.922 242.343 46.6795C242.343 46.4268 242.288 46.2095 242.177 46.0276C242.065 45.8457 241.919 45.7042 241.737 45.6031C241.565 45.5021 241.368 45.4515 241.146 45.4515H239.463V47.9377Z" fill="black"/>
<path d="M254.771 33.5449H124.585C119.496 33.5449 115.371 37.6683 115.371 42.7548V54.9208C115.371 60.0073 119.496 64.1307 124.585 64.1307H254.771C259.859 64.1307 263.984 60.0073 263.984 54.9208V42.7548C263.984 37.6683 259.859 33.5449 254.771 33.5449Z" stroke="#1B1C17" stroke-width="1.68642"/>
</g>
<path d="M232.483 80.5044C246.545 80.5044 257.943 69.1105 257.943 55.0554C257.943 41.0003 246.545 29.6064 232.483 29.6064C218.422 29.6064 207.023 41.0003 207.023 55.0554C207.023 69.1105 218.422 80.5044 232.483 80.5044Z" fill="#FCCA3E" fill-opacity="0.3"/>
<path d="M232.48 75.8471C243.968 75.8471 253.281 66.5383 253.281 55.0554C253.281 43.5724 243.968 34.2637 232.48 34.2637C220.992 34.2637 211.68 43.5724 211.68 55.0554C211.68 66.5383 220.992 75.8471 232.48 75.8471Z" fill="#FCCA3E" fill-opacity="0.3"/>
<path d="M232.648 71.8556C241.839 71.8556 249.289 64.4086 249.289 55.2222C249.289 46.0359 241.839 38.5889 232.648 38.5889C223.458 38.5889 216.008 46.0359 216.008 55.2222C216.008 64.4086 223.458 71.8556 232.648 71.8556Z" fill="#FCCA3E" fill-opacity="0.3"/>
<path d="M244.27 83.4809L243.834 82.6183L243.221 83.2834L238.953 87.9076C237.69 89.2767 235.628 88.2568 235.511 86.2055L234.194 63.1927C234.077 61.1489 235.997 59.8993 237.409 61.0998L254.74 75.8324C256.327 77.1814 255.643 80.122 253.715 80.2345L248.958 80.5121C248.581 80.5341 248.295 80.9158 248.321 81.3657C248.329 81.4955 248.363 81.6219 248.419 81.7344L253.797 92.4296C254.448 93.7242 253.988 95.3815 252.827 95.9247L252.612 96.025C251.678 96.4623 250.603 96.0185 250.078 94.9784L244.27 83.4809Z" fill="white"/>
<path fill-rule="evenodd" clip-rule="evenodd" d="M235.775 61.7673C235.459 61.973 235.154 62.44 235.194 63.1353L236.51 86.148C236.55 86.8459 236.908 87.2752 237.247 87.4425C237.553 87.5942 237.901 87.5744 238.219 87.2292L244.077 80.8798L245.163 83.0296L250.971 94.5272C251.303 95.1853 251.841 95.2821 252.189 95.119L252.404 95.0186C252.949 94.7634 253.358 93.7804 252.905 92.8784L247.526 82.182C247.408 81.9465 247.339 81.6869 247.324 81.4224C247.276 80.5914 247.817 79.5766 248.9 79.5134C248.9 79.5134 248.9 79.5134 248.9 79.5134L253.658 79.2359C254.04 79.2135 254.424 78.9083 254.572 78.27C254.72 77.6383 254.545 76.9779 254.094 76.594C254.094 76.594 254.094 76.594 254.094 76.594L236.763 61.8615C236.763 61.8614 236.763 61.8615 236.763 61.8615C236.408 61.5599 236.061 61.5806 235.775 61.7673ZM243.592 84.3558L239.689 88.5854C238.745 89.6092 237.429 89.764 236.36 89.2352C235.322 88.722 234.591 87.6157 234.513 86.2623L233.197 63.2495C233.12 61.9009 233.716 60.7212 234.683 60.0912C235.68 59.4424 237 59.4386 238.058 60.3373L255.389 75.0701C256.524 76.0353 256.801 77.5196 256.52 78.7236C256.242 79.921 255.319 81.1423 253.774 81.2325L249.415 81.4868L254.691 91.98C255.539 93.6671 255.028 95.9988 253.251 96.8301L253.037 96.9303C253.037 96.9304 253.037 96.9302 253.037 96.9303C251.518 97.6415 249.904 96.8508 249.186 95.4289L243.592 84.3558Z" fill="black"/>
<path d="M241.9 84.7968L241.514 83.9107L240.864 84.5397L236.34 88.9126C235 90.2073 233 89.0713 233 87.0167V63.9663C233 61.9191 234.987 60.7812 236.329 62.0603L252.791 77.7589C254.298 79.1963 253.446 82.093 251.516 82.0952L246.75 82.1006C246.372 82.101 246.066 82.4658 246.066 82.9164C246.066 83.0465 246.092 83.1746 246.142 83.2902L250.901 94.2751C251.477 95.6048 250.923 97.233 249.732 97.7091L249.512 97.7969C248.555 98.1802 247.507 97.6757 247.042 96.6073L241.9 84.7968Z" fill="white"/>
<path fill-rule="evenodd" clip-rule="evenodd" d="M234.658 62.6335C234.331 62.8208 234 63.2697 234 63.9661V87.0165C234 87.7155 234.333 88.1646 234.661 88.3508C234.959 88.5198 235.307 88.5199 235.644 88.1935L241.855 82.189L242.817 84.3974L247.959 96.2079C248.253 96.884 248.784 97.0113 249.141 96.8684L249.361 96.7804C249.92 96.5568 250.384 95.5987 249.983 94.6723L245.224 83.6861C245.12 83.4442 245.066 83.1811 245.066 82.9162C245.066 82.0838 245.664 81.1016 246.749 81.1004C246.749 81.1004 246.749 81.1004 246.749 81.1004L251.514 81.095C251.898 81.0946 252.298 80.8118 252.483 80.183C252.666 79.5608 252.529 78.8914 252.1 78.4823C252.1 78.4823 252.1 78.4824 252.1 78.4823L235.639 62.784C235.639 62.7839 235.639 62.784 235.639 62.784C235.302 62.4626 234.955 62.4635 234.658 62.6335ZM241.173 85.6317L237.035 89.6314C236.033 90.5997 234.711 90.6791 233.674 90.09C232.667 89.5183 232 88.3721 232 87.0165V63.9661C232 62.6152 232.663 61.4716 233.665 60.8979C234.697 60.307 236.015 60.3786 237.019 61.3363L253.481 77.035C254.559 78.0634 254.75 79.5611 254.402 80.7472C254.055 81.9266 253.064 83.0933 251.517 83.095L247.15 83.1L251.818 93.8774C252.569 95.6102 251.925 97.9089 250.104 98.6374L249.884 98.7251C249.884 98.7252 249.884 98.7251 249.884 98.7251C248.326 99.3483 246.761 98.4668 246.125 97.0062L241.173 85.6317Z" fill="black"/>
</g>
<defs>
<filter id="filter0_d_2037_57410" x="-14.3164" y="14.8447" width="274.207" height="196.182" filterUnits="userSpaceOnUse" color-interpolation-filters="sRGB">
<feFlood flood-opacity="0" result="BackgroundImageFix"/>
<feColorMatrix in="SourceAlpha" type="matrix" values="0 0 0 0 0 0 0 0 0 0 0 0 0 0 0 0 0 0 127 0" result="hardAlpha"/>
<feOffset dy="4"/>
<feGaussianBlur stdDeviation="15"/>
<feComposite in2="hardAlpha" operator="out"/>
<feColorMatrix type="matrix" values="0 0 0 0 0 0 0 0 0 0 0 0 0 0 0 0 0 0 0.08 0"/>
<feBlend mode="normal" in2="BackgroundImageFix" result="effect1_dropShadow_2037_57410"/>
<feBlend mode="normal" in="SourceGraphic" in2="effect1_dropShadow_2037_57410" result="shape"/>
</filter>
<filter id="filter1_d_2037_57410" x="114.527" y="32.7021" width="155.36" height="37.3307" filterUnits="userSpaceOnUse" color-interpolation-filters="sRGB">
<feFlood flood-opacity="0" result="BackgroundImageFix"/>
<feColorMatrix in="SourceAlpha" type="matrix" values="0 0 0 0 0 0 0 0 0 0 0 0 0 0 0 0 0 0 127 0" result="hardAlpha"/>
<feOffset dx="5.05926" dy="5.05926"/>
<feComposite in2="hardAlpha" operator="out"/>
<feColorMatrix type="matrix" values="0 0 0 0 0 0 0 0 0 0 0 0 0 0 0 0 0 0 1 0"/>
<feBlend mode="normal" in2="BackgroundImageFix" result="effect1_dropShadow_2037_57410"/>
<feBlend mode="normal" in="SourceGraphic" in2="effect1_dropShadow_2037_57410" result="shape"/>
</filter>
<linearGradient id="paint0_linear_2037_57410" x1="135.524" y1="37.3461" x2="141.383" y2="73.9039" gradientUnits="userSpaceOnUse">
<stop stop-color="#ABE839"/>
<stop offset="1" stop-color="#E0FD79"/>
</linearGradient>
<clipPath id="clip0_2037_57410">
<rect width="280" height="204.793" fill="white"/>
</clipPath>
</defs>
</svg>
