<svg width="280" height="222" viewBox="0 0 280 222" fill="none" xmlns="http://www.w3.org/2000/svg">
<path d="M220.427 12H39.1047C32.8423 12 27.7656 16.5056 27.7656 22.0635V157.937C27.7656 163.494 32.8423 168 39.1047 168H220.427C226.689 168 231.766 163.494 231.766 157.937V22.0635C231.766 16.5056 226.689 12 220.427 12Z" fill="#F6F7F2"/>
<path d="M94.2462 59.3555L133.118 79.7196L92.6484 59.8137L94.2462 59.3555Z" fill="#CDF160"/>
<path d="M75.8982 79.5801L115.577 100.059L75.6289 80.7112L75.8982 79.5801Z" fill="#CDF160"/>
<path d="M82.668 72.6396L123.654 94.4857L83.185 74.5798L82.668 72.6396Z" fill="#CDF160"/>
<path d="M81.3594 69.8506L112.547 86.424L82.8243 71.9303L81.3594 69.8506Z" fill="#CDF160"/>
<path d="M82.758 69.2852L98.2225 77.196L82.4492 69.5071L82.758 69.2852Z" fill="#CDF160"/>
<path d="M77.1604 73.7061L92.6249 81.6169L76.8516 73.928L77.1604 73.7061Z" fill="#CDF160"/>
<path d="M91.5144 60.7197L123.517 77.2931L90.8789 61.1815L91.5144 60.7197Z" fill="#CDF160"/>
<path d="M53.8594 57.1572C54.2507 57.2217 82.2822 61.7069 94.2459 59.3551L83.047 66.3316L56.7929 58.0808C55.6906 57.7049 54.696 57.3899 53.8594 57.1608V57.1572Z" fill="#94CB2E"/>
<path d="M94.2459 59.3551C82.2822 61.7069 54.2507 57.2217 53.8594 57.1572L94.2459 59.3551Z" fill="#AAE738"/>
<path d="M83.1834 74.5793L78.1567 71.5939L53.8594 57.1611C53.8594 57.1611 53.8594 57.1611 53.863 57.1611C54.3621 57.3974 75.6361 67.4381 83.1834 74.5793Z" fill="#AAE738"/>
<path d="M78.1602 71.5939L78.0992 71.6906L77.5104 73.8383L53.8594 57.1611L78.1602 71.5939Z" fill="#80AE29"/>
<path d="M56.793 58.0811L83.0507 66.3284L83.0902 68.7159C81.0508 67.8246 65.4749 61.0378 56.793 58.0811Z" fill="#AAE738"/>
<path d="M53.8633 57.1611C54.3265 57.3437 73.2631 64.8536 83.1227 70.8172L83.1838 74.5793C75.6364 67.4381 54.3624 57.3974 53.8633 57.1611Z" fill="#AAE738"/>
<path d="M83.1224 70.8172C73.2627 64.8536 54.3261 57.3437 53.863 57.1611H53.8594L56.7929 58.0811C65.4712 61.0378 81.0506 67.8247 83.0901 68.716L83.126 70.8172H83.1224Z" fill="#80AE29"/>
<path d="M75.6253 80.7075C75.5284 80.5393 69.3239 69.6467 53.8594 57.1611L77.5104 73.8383L75.6253 80.7111V80.7075Z" fill="#94CB2E"/>
<path d="M75.625 80.7072L53.8555 57.1572C69.3272 69.6463 75.5316 80.5389 75.625 80.7072Z" fill="#AAE738"/>
<path d="M141.089 76.2188L171.766 93.2969L139.875 76.6268L141.089 76.2188Z" fill="#FFE3A3"/>
<path d="M131.172 93.3359L164.751 112.068L131.793 95.6018L131.172 93.3359Z" fill="#FFE3A3"/>
<path d="M135.582 87.3008L169.236 106.24L136.674 89.8101L135.582 87.3008Z" fill="#FFE3A3"/>
<path d="M134.059 84.2119L166.194 102.231L134.306 85.5614L134.059 84.2119Z" fill="#FFE3A3"/>
<path d="M139.121 77.3574L161.781 89.7678L138.227 77.6581L139.121 77.3574Z" fill="#FFE3A3"/>
<path d="M134.758 80.4141L157.145 92.7958L133.875 80.7076L134.758 80.4141Z" fill="#FFE3A3"/>
<path d="M131.922 91.3672L155.828 104.884L131.527 92.5198L131.922 91.3672Z" fill="#FFE3A3"/>
<path d="M141.089 76.219L134.084 79.8952L115.539 74.916C126.591 77.6078 141.089 76.219 141.089 76.219Z" fill="#FFBF00"/>
<path d="M113.809 74.4502L141.093 76.2185C141.093 76.2185 126.598 77.611 115.543 74.9155L113.809 74.4502Z" fill="#FFB000"/>
<path d="M135.77 86.7535L136.671 89.8104L133.156 85.4756L135.77 86.7535Z" fill="#974F00"/>
<path d="M133.156 85.475L136.672 89.8098L132.273 86.8388H132.27L132.392 84.5371L133.156 85.475Z" fill="#CB7600"/>
<path d="M113.809 74.4502L134.12 81.1368C134.12 81.1368 129.431 82.5221 113.809 74.4502Z" fill="#E88D00"/>
<path d="M113.809 74.4502C113.923 74.5433 128.494 86.5097 131.794 95.5983L113.809 74.4502Z" fill="#FFB000"/>
<path d="M132.393 84.5378L121.398 78.5742C122.838 79.3009 134.813 85.3038 134.992 84.1261L135.768 86.7571L133.154 85.4828L132.389 84.5414L132.393 84.5378Z" fill="#B06100"/>
<path d="M121.403 78.5703L113.809 74.4502C129.431 82.5221 134.12 81.1368 134.12 81.1368L135 84.1222C134.821 85.2999 122.846 79.2969 121.406 78.5703H121.403Z" fill="#CB7600"/>
<path d="M131.417 85.3535L113.809 74.4502L121.403 78.5703L132.393 84.5374L132.271 86.8391L131.794 95.6018L131.417 85.3535Z" fill="#FFD35B"/>
<path d="M131.794 95.6022C128.494 86.5137 113.923 74.5472 113.809 74.4541L131.417 85.3575L131.794 95.6057V95.6022Z" fill="#FFBF00"/>
<path d="M134.12 81.1368L113.809 74.4502C114.376 74.6184 114.954 74.7724 115.543 74.9155L134.088 79.8947L141.093 76.2185L134.12 81.1368Z" fill="#FFD35B"/>
<path d="M7.10083 87.3097C6.85586 88.8892 7.05823 90.474 7.69729 92.0694C5.47655 78.3078 28.5734 87.5445 34.8469 90.0844C53.0656 97.4535 107.636 119.795 107.636 119.795L115.673 119.47L36.7801 86.6747C36.7801 86.6747 11.3293 75.1382 7.10083 87.3097Z" fill="#BDD3DD"/>
<path d="M7.22938 86.6366C7.17612 86.8608 7.13352 87.0849 7.10156 87.309C11.3354 75.1428 36.7861 86.674 36.7861 86.674L115.679 119.464L125.542 119.069L125.552 119.058L72.4672 96.0227C72.4672 96.0227 37.1536 80.6656 20.8095 79.1182C17.7526 79.5771 8.45425 81.402 7.22938 86.6366Z" fill="#D7E8EF"/>
<path d="M34.8463 90.0786C28.5728 87.5387 5.47599 78.302 7.69674 92.0636C9.50209 96.5833 14.833 101.162 23.5402 105.836C26.3894 107.367 29.5101 108.851 33.0783 110.398L33.0942 110.366C33.0942 110.366 11.5258 100.057 12.053 93.0455C12.5803 86.0393 38.8671 95.6334 38.8671 95.6334L106.177 120.387C106.145 120.462 106.113 120.531 106.086 120.601C106.608 119.816 107.63 119.784 107.63 119.784C107.63 119.784 53.0597 97.4424 34.841 90.0733L34.8463 90.0786Z" fill="#9EB7C7"/>
<path d="M21.7773 78.9906C21.7773 78.9906 27.1242 78.5958 34.2977 79.3535L35.7303 75.106C32.5243 74.8178 29.3183 74.8872 26.6875 75.6503C24.9567 76.4934 23.3058 77.5926 21.7773 78.9853V78.9906Z" fill="#5C801A"/>
<path d="M28.2918 132.729C28.2918 132.729 28.0096 132.799 27.9883 132.964C28.1267 133.444 28.7658 133.45 29.0534 133.423C31.4872 133.22 38.4743 132.073 39.2092 131.956C39.3583 131.443 39.55 130.947 39.7897 130.478L28.2972 132.729H28.2918Z" fill="#D7E8EF"/>
<path d="M29.0475 133.423C28.7599 133.45 28.1262 133.445 27.9824 132.965C27.9664 133.066 28.0463 133.205 28.3339 133.381C29.2446 133.946 32.0032 135.238 32.0032 135.238L38.8625 135.2H38.8998C38.8518 134.715 38.8465 134.224 38.8838 133.722C38.9317 133.114 39.0382 132.527 39.2033 131.956C38.4684 132.073 31.4813 133.221 29.0475 133.423Z" fill="#9EB7C7"/>
<path d="M35.7294 75.1055L34.2969 79.353C34.7016 79.3956 35.1064 79.4383 35.5164 79.4917L36.9543 75.2335C36.5443 75.1855 36.1342 75.1428 35.7241 75.1108L35.7294 75.1055Z" fill="#EDF4F6"/>
<path d="M36.9613 75.2334L35.5234 79.4916C38.1702 79.8117 41.0354 80.292 43.9378 81.007L43.4478 76.3486C41.4667 75.9057 39.2353 75.4949 36.9613 75.2334Z" fill="#5C801A"/>
<path d="M40.1392 131.588C39.8889 132.26 39.7238 132.975 39.6705 133.722C39.564 135.142 39.8463 136.465 40.4321 137.586C42.2747 140.056 42.5676 137.532 42.6102 136.791C42.5144 135.809 42.5996 134.699 42.999 133.514H42.9884C42.9884 133.514 42.2588 135.126 40.9913 134.859C39.8942 134.629 40.07 132.239 40.1445 131.588H40.1392Z" fill="#A0B8C2"/>
<path d="M40.4336 137.58C41.2431 139.128 42.6277 140.27 44.3479 140.707C43.7408 140.216 42.8035 138.759 42.6117 136.785C42.5691 137.527 42.2762 140.051 40.4336 137.58Z" fill="#ADC5CD"/>
<path d="M42.9904 133.503H43.001C43.0649 133.317 43.1395 133.125 43.2194 132.927C43.3206 132.676 43.4377 132.426 43.5709 132.175C44.9768 129.501 47.3999 128.504 49.0988 128.135C48.7633 127.943 46.0579 126.454 43.8318 127.324C42.1756 128.21 40.8229 129.736 40.1412 131.582C40.072 132.233 39.8909 134.624 40.988 134.853C42.2608 135.12 42.9851 133.503 42.9851 133.503H42.9904Z" fill="#8CAAB8"/>
<path d="M43.2408 135.393C43.1342 134.16 43.2035 133.114 43.2195 132.933C43.1342 133.13 43.065 133.322 43.0011 133.509C42.6017 134.694 42.5112 135.803 42.6123 136.785C42.8041 138.76 43.7414 140.216 44.3485 140.707C44.5934 140.771 44.8437 140.819 45.1047 140.846C44.3698 140.152 43.1662 137.932 43.2408 135.387V135.393Z" fill="#9DD600"/>
<path d="M43.2416 135.392C43.167 137.943 44.3653 140.163 45.1055 140.851C45.5316 140.905 45.9736 140.915 46.4263 140.878C50.511 140.558 53.5945 136.705 53.3175 132.602C53.2004 130.867 52.4974 129.384 51.4323 128.312C51.8157 128.952 55.3945 135.371 48.1624 139.282C44.4132 141.31 43.4546 137.954 43.2416 135.387V135.392Z" fill="#DFFF67"/>
<path d="M39.9062 138.343C40.6518 139.901 42.1696 141.374 44.1081 142.655C44.9389 142.922 46.0359 143.098 47.2289 143.066C46.2969 142.623 45.333 142.126 44.3371 141.572C42.4306 141.161 40.8648 139.976 39.9062 138.338V138.343Z" fill="#537C84"/>
<path d="M44.1862 132.01C43.5418 133.135 43.2702 134.293 43.2383 135.393C43.4513 137.954 44.4099 141.31 48.1591 139.288C55.3965 135.377 51.8124 128.957 51.429 128.317C51.413 128.301 51.397 128.28 51.3757 128.264C51.0242 128.264 46.2685 128.37 44.1809 132.01H44.1862ZM47.7756 136.625C46.4123 136.108 45.3845 134.256 45.7466 133.429C46.13 132.559 47.9354 131.668 49.32 131.988C49.32 131.988 50.7739 131.551 51.1893 133.504C51.6047 135.457 50.2147 136.583 49.3893 136.871C48.5904 137.148 48.0419 136.86 47.7756 136.625Z" fill="#9DD600"/>
<path d="M53.8021 130.755C52.8435 127.5 49.8665 125.409 46.5061 125.692C46.3943 125.702 46.2771 125.713 46.1653 125.729C43.4652 126.086 41.0421 127.938 39.7799 130.473C39.5456 130.942 39.3486 131.438 39.1995 131.951C39.0344 132.516 38.9279 133.109 38.8799 133.717C38.8427 134.219 38.848 134.715 38.8959 135.19C39.0077 136.337 39.3592 137.404 39.8971 138.327C39.8971 138.327 39.8971 138.333 39.9024 138.338C40.8664 139.971 42.4267 141.161 44.3333 141.572C44.9883 141.716 45.686 141.764 46.4156 141.705C47.747 141.604 48.9825 141.161 50.0529 140.478C52.6571 138.818 54.3187 135.718 54.1003 132.474C54.0577 131.871 53.9565 131.294 53.7968 130.75L53.8021 130.755ZM43.8327 127.324C44.6635 126.881 45.5688 126.599 46.5061 126.519C48.1996 126.375 49.7866 126.908 51.0062 127.917C51.1393 128.023 51.2618 128.141 51.3843 128.258C51.3949 128.258 51.4056 128.258 51.4056 128.258C51.4056 128.258 51.4162 128.274 51.4376 128.312C52.5027 129.384 53.2056 130.867 53.3228 132.602C53.5944 136.705 50.5162 140.558 46.4315 140.878C45.9789 140.915 45.5369 140.905 45.1108 140.851C44.8499 140.819 44.5996 140.771 44.3546 140.712C42.6398 140.28 41.2498 139.133 40.4403 137.586C39.8545 136.465 39.5723 135.142 39.6788 133.722C39.7373 132.981 39.8971 132.266 40.1474 131.588C40.8344 129.742 42.1818 128.21 43.838 127.33L43.8327 127.324Z" fill="#D7E8EF"/>
<path d="M43.8295 127.324C46.0556 126.454 48.761 127.943 49.0965 128.135C49.5865 128.028 50.0178 127.975 50.3427 127.943V127.932C50.3427 127.932 48.3083 126.411 46.4976 126.518C45.5603 126.598 44.655 126.881 43.8242 127.324H43.8295Z" fill="#7A99A6"/>
<path d="M46.4182 141.704C45.6886 141.763 44.9963 141.71 44.3359 141.571C45.3318 142.126 46.2957 142.622 47.2277 143.065C48.8573 143.028 50.6733 142.606 52.2444 141.496C51.5307 141.197 50.8011 140.861 50.0556 140.482C48.9798 141.171 47.7443 141.608 46.4182 141.71V141.704Z" fill="#6B8E9A"/>
<path d="M47.7781 136.625C48.2734 136.811 48.8113 136.827 49.3438 136.55C51.4847 135.445 50.771 133.284 50.771 133.284C50.59 132.793 50.3024 132.457 49.9509 132.238C50.2119 132.825 50.8616 134.666 49.1468 135.392C47.0911 136.256 45.6639 134.357 45.7491 133.428C45.3869 134.261 46.4148 136.107 47.7781 136.625Z" fill="#8CAAB8"/>
<path d="M49.5546 132.724C48.9262 131.278 46.0664 133.471 46.0664 133.471C46.0664 133.471 47.6108 133.812 48.2765 134.004C48.9422 134.197 50.1617 134.117 49.5546 132.724Z" fill="#E5EEEF"/>
<path d="M66.4755 145.146C67.4661 144.367 68.0413 143.562 68.3342 143.06C67.3383 143.391 61.0382 145.194 52.251 141.491C50.68 142.606 48.864 143.028 47.2344 143.06C56.9375 147.676 63.211 146.635 64.4092 146.368C64.6169 146.278 64.8193 146.182 65.011 146.086C65.5809 145.792 66.0655 145.472 66.4809 145.141L66.4755 145.146Z" fill="#A0BBC7"/>
<path d="M43.4492 76.3486L43.9392 81.007C44.2853 81.0924 44.6262 81.1831 44.9723 81.2738L44.4824 76.5888C44.1469 76.5087 43.8007 76.434 43.4492 76.3486Z" fill="#EDF4F6"/>
<path d="M46.5063 125.691C49.8667 125.403 52.8437 127.495 53.8023 130.755C54.5692 130.931 55.3041 131.112 55.9964 131.299C55.0751 127.303 51.0863 125.969 49.6005 125.606C47.5075 125.419 46.3093 125.648 46.1602 125.68V125.734C46.2773 125.718 46.3945 125.707 46.5063 125.696V125.691Z" fill="#A0BBC7"/>
<path d="M44.4805 76.584L44.9704 81.269C47.4255 81.9147 49.9019 82.7364 52.3037 83.7716C52.6445 83.9157 52.9907 83.5689 52.8416 83.2327L50.9936 79.0226C50.7966 78.5797 50.4238 78.2435 49.9658 78.0994C48.9539 77.7793 46.9675 77.1816 44.4805 76.5893V76.584Z" fill="#5C801A"/>
<path d="M46.5039 126.518C48.3146 126.412 50.3489 127.932 50.3489 127.932V127.943C50.7058 127.911 50.9454 127.916 51.004 127.916C49.7844 126.908 48.2028 126.374 46.5039 126.518Z" fill="#5F838F"/>
<path d="M49.3232 131.983C47.9385 131.668 46.1332 132.554 45.7497 133.424C45.6645 134.352 47.0918 136.252 49.1474 135.387C50.8622 134.662 50.2125 132.821 49.9516 132.234C49.7598 132.116 49.5468 132.031 49.3178 131.978L49.3232 131.983ZM46.0746 133.472C46.0746 133.472 48.9344 131.279 49.5628 132.725C50.1699 134.117 48.9504 134.197 48.2847 134.005C47.619 133.813 46.0746 133.472 46.0746 133.472Z" fill="#C2D6DB"/>
<path d="M49.3203 131.982C49.544 132.035 49.757 132.115 49.9541 132.238C50.3056 132.457 50.5985 132.793 50.7742 133.284C50.7742 133.284 51.4825 135.445 49.347 136.55C48.8144 136.827 48.2765 136.811 47.7812 136.624C48.0475 136.859 48.5961 137.147 49.3949 136.87C50.2204 136.582 51.605 135.456 51.1949 133.503C50.7849 131.55 49.3257 131.982 49.3257 131.982H49.3203Z" fill="#5C801A"/>
<path d="M49.1015 128.135C47.4027 128.503 44.9795 129.501 43.5736 132.174C43.4405 132.425 43.3233 132.676 43.2221 132.927C43.2061 133.108 43.1422 134.154 43.2434 135.386C43.2754 134.287 43.5416 133.129 44.1914 132.003C46.279 128.364 51.0347 128.263 51.3862 128.258C51.2637 128.135 51.1359 128.023 51.008 127.916C50.9495 127.916 50.7151 127.916 50.353 127.943C50.0281 127.969 49.5968 128.023 49.1068 128.135H49.1015Z" fill="#9DD600"/>
<path d="M54.1099 132.478C54.3283 135.717 52.6667 138.818 50.0625 140.482C50.8081 140.861 51.5377 141.198 52.2513 141.496C53.5294 140.589 54.6478 139.223 55.3721 137.233C56.2561 134.794 56.3573 132.847 56.0005 131.299C55.3082 131.112 54.5732 130.931 53.8064 130.755C53.9714 131.299 54.0726 131.875 54.1099 132.478Z" fill="#8CAAB8"/>
<path d="M52.6836 126.412C52.9925 126.513 55.341 127.394 56.7363 130.82C56.7363 130.82 64.5116 131.898 68.6123 137.031C68.6123 137.031 67.5046 132.922 61.8595 130.206C56.2517 127.506 54.457 126.967 52.6836 126.412Z" fill="#E5EEEF"/>
<path d="M68.9935 141.396C69.116 140.921 69.2172 140.35 69.2491 139.709C69.2598 139.523 69.2651 139.336 69.2598 139.138C68.8231 138.055 66.5597 134.123 55.9992 131.3C56.356 132.847 56.2548 134.79 55.3708 137.233C54.6518 139.224 53.5335 140.59 52.25 141.497C61.0371 145.195 67.3372 143.391 68.3331 143.066C68.5142 142.756 68.5887 142.564 68.5887 142.564C68.7006 142.313 68.855 141.913 68.9882 141.401L68.9935 141.396Z" fill="#ACC5CF"/>
<path d="M62.1149 128.471L73.5542 126.769L75.5193 126.476L75.5619 126.353C73.8577 125.739 72.2015 125.147 70.5932 124.565L70.5452 124.704L56.619 127.228L56.5977 127.287C57.6681 127.692 58.8078 128.178 60.0167 128.776L62.1096 128.466L62.1149 128.471Z" fill="#D7E8EF"/>
<path d="M62.1125 128.472L60.0195 128.781C61.1698 129.352 62.3841 130.014 63.6569 130.793C66.2451 132.378 67.7043 134.123 68.4765 135.787H70.0901C69.7386 132.81 63.0285 128.984 62.1071 128.472H62.1125Z" fill="#7E9DAB"/>
<path d="M64.405 146.374C63.2068 146.64 56.9333 147.681 47.2301 143.065C46.0319 143.097 44.9402 142.916 44.1094 142.654C48.5349 145.578 55.1705 147.526 59.9422 147.329C61.7689 147.249 63.2387 146.88 64.405 146.379V146.374Z" fill="#6B8E9A"/>
<path d="M73.5525 126.77L62.1133 128.472C63.0346 128.984 69.7448 132.805 70.0963 135.777L97.2991 135.67L73.5738 126.86L73.5632 126.775L73.5525 126.77Z" fill="#9EB7C7"/>
<path d="M65.0039 146.091L65.0518 146.181C65.0518 146.181 65.5418 146.256 66.2767 146.336C66.7986 146.032 67.2353 145.701 67.6134 145.365C67.2566 145.301 66.8732 145.231 66.4738 145.151C66.0584 145.477 65.5737 145.802 65.0039 146.096V146.091Z" fill="#9DD600"/>
<path d="M68.3352 143.06C68.0423 143.561 67.4618 144.372 66.4766 145.146C66.8813 145.232 67.2594 145.301 67.6162 145.36C68.9849 144.132 69.4908 142.772 69.6506 141.726C69.4429 141.608 69.2245 141.496 68.9955 141.39C68.8624 141.907 68.708 142.302 68.5961 142.553C68.5961 142.553 68.5216 142.745 68.3405 143.054L68.3352 143.06Z" fill="#9DD600"/>
<path d="M67.6141 145.366C67.2359 145.702 66.7939 146.027 66.2773 146.337C68.3809 146.556 72.5135 146.78 73.1207 145.27C73.1207 145.27 71.6934 146.038 67.6141 145.366Z" fill="#9DD600"/>
<path d="M52.6836 126.412C54.457 126.967 56.2517 127.506 61.8595 130.206C67.5046 132.922 68.6123 137.03 68.6123 137.03C64.5116 131.897 56.7364 130.819 56.7364 130.819C55.3411 127.393 52.9925 126.513 52.6836 126.412ZM69.262 139.133C69.2461 138.124 69.0384 136.977 68.4845 135.782C67.7123 134.122 66.2531 132.372 63.6649 130.787C62.3921 130.008 61.1779 129.346 60.0275 128.776C58.8187 128.178 57.679 127.687 56.6085 127.287C53.7168 126.198 51.3522 125.755 49.6055 125.601C51.0913 125.963 55.0801 127.292 56.0014 131.294C66.5673 134.112 68.8307 138.044 69.262 139.133Z" fill="#C2D6DB"/>
<path d="M69.6511 140.029C69.4701 139.885 69.3369 139.773 69.2517 139.709C69.2198 140.349 69.1186 140.926 68.9961 141.395C69.2251 141.502 69.4434 141.614 69.6511 141.731C69.7843 140.862 69.6831 140.211 69.6511 140.029Z" fill="#9DD600"/>
<path d="M69.6476 141.727C69.4879 142.772 68.9873 144.138 67.6133 145.36C71.698 146.033 73.1199 145.264 73.1199 145.264C73.1199 145.264 72.2572 143.173 69.6476 141.727Z" fill="#9DD600"/>
<path d="M69.3977 86.1405C68.929 85.9057 68.3911 86.2845 68.4497 86.8021L68.6414 88.4937C68.6681 88.7284 68.8172 88.9259 69.0302 89.0219L69.4403 89.2034C69.9089 89.4061 70.4202 89.0219 70.3509 88.515L70.1326 86.8342C70.1006 86.6154 69.9675 86.4286 69.7704 86.3272L69.387 86.1351L69.3977 86.1405Z" fill="#9DD600"/>
<path d="M73.1207 145.269C73.7757 143.636 70.8414 141.011 69.6484 140.029C69.6804 140.205 69.7816 140.862 69.6484 141.731C72.258 143.183 73.1207 145.269 73.1207 145.269Z" fill="#9DD600"/>
<path d="M75.5237 126.475L73.5586 126.769L73.5692 126.854L97.2945 135.664L101.97 135.648C91.4364 132.158 84.2789 129.495 84.2789 129.495L84.0446 129.41C81.0836 128.343 78.261 127.324 75.5663 126.353L75.5237 126.475Z" fill="#7E9DAB"/>
<path d="M73.5966 88.0886C73.1333 87.8592 72.6061 88.2327 72.6646 88.745L72.8564 90.4151C72.883 90.6446 73.0321 90.842 73.2398 90.9381L73.6445 91.1142C74.1079 91.3169 74.6138 90.9381 74.5445 90.4365L74.3315 88.777C74.3049 88.5635 74.1718 88.3768 73.9747 88.2754L73.5966 88.0886Z" fill="#9DD600"/>
<path d="M77.793 90.0417C77.3403 89.8176 76.8131 90.1858 76.8717 90.6874L77.0581 92.3362C77.0847 92.5657 77.2285 92.7631 77.4415 92.8538L77.8409 93.0299C78.2989 93.2273 78.7942 92.8538 78.7303 92.3576L78.5173 90.7194C78.4906 90.506 78.3575 90.3192 78.1658 90.2231L77.7877 90.0364L77.793 90.0417Z" fill="#9DD600"/>
<path d="M81.9894 91.9886C81.5421 91.7645 81.0202 92.1273 81.0787 92.6289L81.2651 94.2564C81.2918 94.4805 81.4356 94.678 81.6433 94.7687L82.0373 94.9394C82.4847 95.1369 82.98 94.7633 82.9161 94.2778L82.7084 92.6609C82.6817 92.4528 82.5486 92.2714 82.3622 92.1754L81.9894 91.9939V91.9886Z" fill="#9DD600"/>
<path d="M86.1851 93.9368C85.7431 93.718 85.2318 94.0755 85.2851 94.5665L85.4662 96.1726C85.4928 96.3967 85.6312 96.5888 85.8389 96.6742L86.2277 96.8449C86.6697 97.037 87.1597 96.6742 87.0958 96.1886L86.8881 94.5931C86.8614 94.385 86.7336 94.2036 86.5472 94.1129L86.1798 93.9315L86.1851 93.9368Z" fill="#9DD600"/>
<path d="M90.3776 95.8895C89.9409 95.6708 89.435 96.0229 89.4882 96.5139L89.6693 98.104C89.6959 98.3228 89.8344 98.5095 90.0368 98.6002L90.4202 98.7657C90.8622 98.9578 91.3415 98.5949 91.2776 98.12L91.0753 96.5405C91.0486 96.3378 90.9208 96.1563 90.7397 96.0656L90.3776 95.8895Z" fill="#9DD600"/>
<path d="M94.5727 97.8368C94.1413 97.6233 93.646 97.9702 93.6993 98.4504L93.8803 100.019C93.9016 100.238 94.0401 100.419 94.2425 100.51L94.6206 100.676C95.0573 100.862 95.5312 100.505 95.4673 100.041L95.265 98.4878C95.2383 98.285 95.1159 98.1089 94.9348 98.0182L94.578 97.8421L94.5727 97.8368Z" fill="#9DD600"/>
<path d="M98.7691 99.7851C98.343 99.5717 97.8531 99.9185 97.9063 100.388L98.0821 101.936C98.1034 102.149 98.2418 102.33 98.4389 102.421L98.8117 102.587C99.2377 102.773 99.7064 102.421 99.6478 101.957L99.4507 100.42C99.4241 100.223 99.3016 100.047 99.1206 99.9559L98.7691 99.7798V99.7851Z" fill="#9DD600"/>
<path d="M102.965 101.738C102.545 101.53 102.06 101.872 102.113 102.336L102.284 103.862C102.31 104.07 102.444 104.257 102.635 104.337L103.003 104.497C103.423 104.678 103.887 104.331 103.828 103.878L103.631 102.362C103.605 102.165 103.482 101.994 103.306 101.909L102.96 101.738H102.965Z" fill="#9DD600"/>
<path d="M107.866 122.57C107.866 122.57 105.342 122.57 106.087 120.606C105.885 120.911 105.762 121.327 105.8 121.892C105.938 123.931 107.339 123.499 108.148 123.44C108.958 123.381 123.518 122.607 124.024 122.581C124.098 122.25 124.194 121.924 124.301 121.604L107.866 122.57Z" fill="#BDD3DD"/>
<path d="M115.673 119.465L107.637 119.79C107.637 119.79 106.609 119.822 106.092 120.607C105.342 122.576 107.871 122.57 107.871 122.57L124.306 121.604C124.615 120.687 125.03 119.833 125.547 119.064L115.684 119.459L115.673 119.465Z" fill="#EDF4F6"/>
<path d="M107.162 103.686C106.747 103.483 106.267 103.814 106.32 104.278L106.491 105.783C106.512 105.991 106.645 106.172 106.837 106.253L107.199 106.413C107.615 106.594 108.073 106.253 108.014 105.804L107.822 104.31C107.796 104.118 107.678 103.947 107.503 103.862L107.162 103.691V103.686Z" fill="#9DD600"/>
<path d="M111.353 105.633C110.948 105.43 110.474 105.761 110.528 106.215L110.693 107.698C110.714 107.901 110.847 108.082 111.033 108.163L111.396 108.317C111.806 108.499 112.253 108.157 112.194 107.714L112.003 106.242C111.976 106.049 111.859 105.884 111.689 105.799L111.353 105.633Z" fill="#9DD600"/>
<path d="M114.734 108.157L114.899 109.619C114.92 109.822 115.048 109.998 115.234 110.078L115.591 110.233C115.996 110.409 116.438 110.078 116.379 109.641L116.193 108.189C116.166 108.002 116.049 107.837 115.884 107.752L115.554 107.586C115.149 107.389 114.686 107.714 114.734 108.163V108.157Z" fill="#9DD600"/>
<path d="M119.789 112.144C120.188 112.32 120.625 111.989 120.566 111.557L120.38 110.126C120.358 109.94 120.241 109.78 120.076 109.694L119.746 109.534C119.346 109.337 118.888 109.657 118.942 110.1L119.107 111.541C119.128 111.738 119.256 111.909 119.437 111.989L119.789 112.138V112.144Z" fill="#9DD600"/>
<path d="M123.942 111.482C123.547 111.284 123.1 111.604 123.148 112.036L123.308 113.456C123.329 113.653 123.457 113.824 123.633 113.899L123.979 114.048C124.373 114.219 124.799 113.899 124.746 113.472L124.565 112.058C124.543 111.876 124.426 111.716 124.261 111.631L123.936 111.471L123.942 111.482Z" fill="#9DD600"/>
<path d="M125.039 121.951C124.783 122.725 124.623 123.552 124.57 124.411C124.469 126.044 124.772 127.57 125.385 128.867C127.297 131.716 127.584 128.845 127.627 127.976C127.52 126.839 127.595 125.558 128.005 124.192H127.994C127.994 124.192 127.254 126.044 125.944 125.729C124.804 125.457 124.975 122.688 125.044 121.951H125.039Z" fill="#A0B8C2"/>
<path d="M127.629 127.98C127.586 128.85 127.299 131.721 125.387 128.872C126.233 130.659 127.677 131.988 129.45 132.505C128.822 131.934 127.847 130.259 127.629 127.986V127.98Z" fill="#ADC5CD"/>
<path d="M129.452 132.5C129.707 132.575 129.968 132.634 130.234 132.671C129.468 131.87 128.211 129.304 128.269 126.369C128.152 124.944 128.216 123.733 128.227 123.53C128.141 123.754 128.067 123.979 128.003 124.197C127.598 125.563 127.518 126.844 127.625 127.981C127.843 130.254 128.812 131.929 129.446 132.5H129.452Z" fill="#9DD600"/>
<path d="M128.138 113.434C127.755 113.242 127.307 113.552 127.355 113.984L127.515 115.382C127.536 115.574 127.659 115.745 127.84 115.819L128.181 115.969C128.569 116.134 128.99 115.819 128.937 115.398L128.756 114.005C128.734 113.824 128.623 113.669 128.457 113.589L128.138 113.434Z" fill="#9DD600"/>
<path d="M130.391 135.552C129.987 135.29 129.598 135.018 129.225 134.741C127.207 133.247 125.63 131.539 124.853 129.73C124.853 129.73 124.853 129.73 124.853 129.72C124.054 128.209 123.644 126.369 123.766 124.4C123.804 123.775 123.894 123.167 124.033 122.58C123.527 122.607 108.956 123.386 108.157 123.439C107.358 123.492 105.942 123.93 105.809 121.892C105.793 124.223 107.236 125.648 110.74 127.43C113.696 128.935 130.365 135.611 130.365 135.611L130.402 135.552H130.391Z" fill="#7E9DAB"/>
<path d="M124.849 129.73C125.632 131.534 127.208 133.242 129.221 134.741C130.079 135.05 131.213 135.264 132.443 135.243C131.474 134.725 130.473 134.143 129.44 133.498C127.469 133.012 125.85 131.63 124.844 129.736L124.849 129.73Z" fill="#537C84"/>
<path d="M119.106 111.54L118.941 110.099C118.893 109.657 119.351 109.336 119.745 109.534L120.075 109.694C120.24 109.779 120.357 109.939 120.379 110.126L120.565 111.556C120.624 111.988 120.187 112.314 119.788 112.143L119.436 111.994C119.255 111.914 119.127 111.743 119.106 111.545V111.54ZM114.904 109.619L114.739 108.157C114.691 107.709 115.154 107.383 115.559 107.581L115.889 107.746C116.06 107.832 116.177 107.997 116.198 108.184L116.385 109.635C116.443 110.073 116.001 110.409 115.596 110.227L115.24 110.073C115.053 109.993 114.925 109.817 114.904 109.614V109.619ZM110.532 106.215C110.479 105.761 110.953 105.43 111.357 105.633L111.693 105.799C111.863 105.884 111.98 106.049 112.007 106.241L112.199 107.714C112.252 108.157 111.805 108.493 111.4 108.317L111.038 108.162C110.846 108.082 110.718 107.901 110.697 107.698L110.532 106.215ZM128.937 115.398C128.99 115.814 128.569 116.134 128.181 115.969L127.84 115.82C127.664 115.74 127.542 115.574 127.515 115.382L127.355 113.984C127.307 113.552 127.749 113.242 128.138 113.434L128.458 113.589C128.623 113.669 128.729 113.829 128.756 114.005L128.937 115.398ZM134.758 115.142C134.806 115.147 134.854 115.153 134.907 115.158L58.8528 79.0384C58.8528 79.0384 49.7462 74.8763 43.7975 73.6063C38.1951 72.8166 32.06 73.0247 26.6866 75.65C29.3121 74.8869 32.5234 74.8229 35.7293 75.1057C36.1394 75.1377 36.5495 75.1804 36.9595 75.2284C39.2335 75.4899 41.4649 75.9061 43.446 76.3437C43.7975 76.4237 44.1437 76.5038 44.4792 76.5838C46.9662 77.1761 48.9526 77.7737 49.9645 78.0939C50.4225 78.238 50.7953 78.5741 50.9923 79.017L52.8403 83.2272C52.9894 83.5687 52.6432 83.9155 52.3024 83.7661C49.9059 82.7309 47.4295 81.9145 44.9691 81.2635C44.623 81.1728 44.2768 81.0821 43.936 80.9967C41.0282 80.287 38.1684 79.8014 35.5216 79.4813C35.1116 79.4332 34.7015 79.3852 34.3021 79.3425C27.1339 78.5848 21.7817 78.9797 21.7817 78.9797C21.7817 78.9797 21.4196 79.017 20.8125 79.1077C37.1619 80.6552 72.4756 96.0123 72.4756 96.0123L125.555 119.048C126.935 116.988 128.974 115.564 131.211 115.249V115.19C131.355 115.158 132.596 114.902 134.758 115.137V115.142ZM123.153 112.036C123.105 111.604 123.553 111.284 123.947 111.481L124.272 111.642C124.437 111.722 124.549 111.882 124.575 112.068L124.756 113.482C124.815 113.909 124.384 114.23 123.989 114.059L123.643 113.909C123.462 113.835 123.34 113.664 123.318 113.466L123.159 112.047L123.153 112.036ZM68.4548 86.8023C68.3962 86.2847 68.9341 85.9058 69.4027 86.1406L69.7862 86.3327C69.9832 86.4288 70.1163 86.6209 70.1483 86.8397L70.3666 88.5205C70.4305 89.0274 69.9193 89.4116 69.456 89.2089L69.0459 89.0274C68.8329 88.9314 68.6838 88.7339 68.6571 88.4992L68.4654 86.8076L68.4548 86.8023ZM72.6619 88.7446C72.6034 88.2324 73.1359 87.8588 73.5939 88.0883L73.972 88.275C74.1637 88.3711 74.2969 88.5579 74.3288 88.7766L74.5419 90.4361C74.6058 90.9377 74.0998 91.3166 73.6418 91.1138L73.2371 90.9377C73.0241 90.8417 72.8803 90.6442 72.8537 90.4148L72.6619 88.7446ZM76.8691 90.6869C76.8105 90.1853 77.3378 89.8172 77.7904 90.0413L78.1686 90.228C78.3603 90.3241 78.4934 90.5055 78.52 90.7243L78.7331 92.3624C78.797 92.8587 78.2964 93.2322 77.8437 93.0348L77.4443 92.8587C77.2366 92.768 77.0875 92.5706 77.0608 92.3411L76.8744 90.6923L76.8691 90.6869ZM81.0763 92.6293C81.0177 92.133 81.5396 91.7648 81.987 91.9889L82.3597 92.1704C82.5461 92.2664 82.6793 92.4478 82.7059 92.6559L82.9136 94.2728C82.9775 94.7637 82.4822 95.1319 82.0349 94.9344L81.6408 94.7637C81.4331 94.673 81.2893 94.4809 81.2627 94.2514L81.0763 92.6239V92.6293ZM85.2835 94.5716C85.2249 94.0807 85.7361 93.7231 86.1835 93.9419L86.5509 94.1233C86.7373 94.2194 86.8652 94.3955 86.8918 94.6036L87.0995 96.1991C87.1634 96.6846 86.6734 97.0475 86.2314 96.8554L85.8427 96.6846C85.6403 96.5939 85.4965 96.4018 85.4699 96.1831L85.2888 94.5769L85.2835 94.5716ZM89.4906 96.5139C89.4374 96.0283 89.938 95.6708 90.38 95.8896L90.7421 96.0657C90.9285 96.1564 91.051 96.3325 91.0777 96.5406L91.28 98.12C91.3439 98.5949 90.8646 98.9578 90.4226 98.7657L90.0392 98.6003C89.8368 98.5096 89.6983 98.3228 89.6717 98.104L89.4906 96.5139ZM93.6978 98.4562C93.6446 97.976 94.1398 97.6238 94.5712 97.8426L94.928 98.0186C95.1091 98.1094 95.2369 98.2854 95.2582 98.4882L95.4606 100.041C95.5192 100.511 95.0452 100.868 94.6138 100.676L94.2357 100.511C94.0386 100.425 93.9002 100.238 93.8736 100.02L93.6925 98.4509L93.6978 98.4562ZM97.905 100.399C97.8517 99.9236 98.3417 99.5821 98.7677 99.7955L99.1192 99.9716C99.3003 100.062 99.4228 100.233 99.4494 100.436L99.6464 101.973C99.705 102.437 99.2364 102.789 98.8103 102.602L98.4375 102.437C98.2405 102.352 98.102 102.165 98.0807 101.951L97.905 100.404V100.399ZM102.112 102.341C102.059 101.871 102.544 101.535 102.964 101.743L103.31 101.914C103.486 102.005 103.609 102.175 103.635 102.368L103.832 103.883C103.891 104.342 103.428 104.689 103.007 104.502L102.639 104.342C102.442 104.256 102.309 104.075 102.288 103.867L102.117 102.341H102.112ZM106.319 104.283C106.266 103.824 106.745 103.488 107.161 103.691L107.502 103.862C107.677 103.947 107.8 104.118 107.821 104.31L108.013 105.804C108.071 106.252 107.619 106.599 107.198 106.412L106.836 106.252C106.644 106.167 106.511 105.991 106.49 105.783L106.319 104.278V104.283Z" fill="#EDF4F6"/>
<path d="M136.654 118.274C137.762 119.517 138.502 121.236 138.635 123.231C138.949 127.964 135.802 132.377 131.595 132.708C131.126 132.745 130.674 132.729 130.232 132.665C129.965 132.628 129.704 132.569 129.449 132.495C127.675 131.982 126.237 130.648 125.385 128.861C124.773 127.569 124.469 126.038 124.571 124.405C124.624 123.546 124.784 122.724 125.039 121.945C125.732 119.827 127.105 118.082 128.804 117.079C129.656 116.577 130.588 116.257 131.558 116.172C133.304 116.017 134.945 116.641 136.207 117.821C136.34 117.943 136.473 118.077 136.601 118.215C136.612 118.215 136.622 118.215 136.622 118.215C136.622 118.215 136.633 118.237 136.654 118.274ZM139.12 121.113C138.103 117.351 135.019 114.918 131.558 115.222C131.44 115.233 131.323 115.243 131.206 115.265C128.969 115.579 126.93 117.004 125.55 119.064L125.577 119.075H125.54C125.029 119.843 124.608 120.697 124.299 121.614C124.192 121.935 124.102 122.26 124.022 122.591C123.884 123.178 123.793 123.786 123.756 124.411C123.633 126.38 124.043 128.215 124.842 129.731C124.842 129.731 124.842 129.736 124.842 129.741C125.849 131.636 127.468 133.018 129.438 133.503C130.12 133.674 130.839 133.733 131.59 133.674C132.958 133.567 134.231 133.071 135.328 132.292C138.002 130.403 139.69 126.844 139.439 123.103C139.392 122.41 139.28 121.748 139.115 121.118L139.12 121.113Z" fill="#D7E8EF"/>
<path d="M128.809 117.079C127.111 118.082 125.737 119.832 125.044 121.945C124.98 122.681 124.81 125.451 125.944 125.723C127.254 126.038 127.995 124.181 127.995 124.181H128.005C128.069 123.967 128.144 123.743 128.229 123.519C128.33 123.231 128.453 122.948 128.586 122.66C130.013 119.587 132.511 118.461 134.257 118.05C133.927 117.836 131.11 116.081 128.815 117.073L128.809 117.079Z" fill="#8CAAB8"/>
<path d="M131.566 116.172C130.597 116.257 129.665 116.572 128.812 117.079C131.113 116.087 133.925 117.842 134.255 118.056C134.761 117.938 135.203 117.88 135.539 117.848V117.832C135.539 117.832 133.424 116.06 131.566 116.172Z" fill="#7A99A6"/>
<path d="M131.597 133.664C130.846 133.722 130.127 133.664 129.445 133.493C130.478 134.139 131.48 134.72 132.449 135.238C134.132 135.206 135.996 134.736 137.609 133.466C136.869 133.114 136.113 132.719 135.341 132.276C134.238 133.055 132.971 133.552 131.602 133.658L131.597 133.664Z" fill="#6B8E9A"/>
<path d="M135.164 122.788C135.436 123.471 136.118 125.595 134.355 126.411C132.246 127.388 130.755 125.189 130.835 124.122C130.467 125.077 131.538 127.217 132.949 127.82C133.46 128.039 134.014 128.06 134.563 127.745C136.762 126.491 136.011 123.994 136.011 123.994C135.819 123.428 135.521 123.039 135.159 122.788H135.164Z" fill="#8CAAB8"/>
<path d="M131.168 124.176C131.168 124.176 132.76 124.581 133.447 124.811C134.134 125.035 135.391 124.955 134.757 123.343C134.097 121.673 131.168 124.176 131.168 124.176Z" fill="#E5EEEF"/>
<path d="M131.56 115.217C135.022 114.913 138.105 117.351 139.122 121.108C139.916 121.316 140.672 121.529 141.386 121.748C140.4 117.143 136.294 115.574 134.755 115.142C132.593 114.907 131.352 115.163 131.203 115.195V115.254C131.326 115.238 131.443 115.222 131.56 115.211V115.217Z" fill="#A0BBC7"/>
<path d="M131.171 124.176C131.171 124.176 134.1 121.668 134.76 123.344C135.399 124.95 134.137 125.035 133.45 124.811C132.763 124.581 131.171 124.176 131.171 124.176ZM134.355 126.412C136.118 125.595 135.436 123.472 135.165 122.789C134.962 122.65 134.744 122.548 134.51 122.49C133.082 122.111 131.224 123.119 130.835 124.123C130.755 125.19 132.241 127.388 134.355 126.412Z" fill="#C2D6DB"/>
<path d="M133.373 130.889C140.807 126.439 137.047 119 136.653 118.275C136.637 118.253 136.616 118.237 136.6 118.216C136.238 118.216 131.338 118.296 129.214 122.474C128.559 123.765 128.287 125.099 128.266 126.364C128.505 129.32 129.522 133.189 133.373 130.889ZM132.952 127.821C131.541 127.218 130.465 125.073 130.838 124.123C131.227 123.12 133.08 122.116 134.512 122.49C134.512 122.49 136.009 121.994 136.451 124.251C136.893 126.508 135.476 127.794 134.624 128.12C133.804 128.429 133.229 128.093 132.957 127.826L132.952 127.821Z" fill="#9DD600"/>
<path d="M131.562 116.171C133.426 116.059 135.535 117.831 135.535 117.831V117.847C135.908 117.815 136.153 117.82 136.212 117.82C134.95 116.641 133.309 116.022 131.562 116.171Z" fill="#5F838F"/>
<path d="M136.015 123.994C136.015 123.994 136.766 126.491 134.567 127.745C134.018 128.06 133.464 128.039 132.953 127.82C133.225 128.092 133.8 128.428 134.62 128.114C135.472 127.788 136.889 126.502 136.447 124.245C136.005 121.988 134.508 122.479 134.508 122.479C134.737 122.543 134.961 122.644 135.163 122.783C135.525 123.034 135.829 123.429 136.015 123.989V123.994Z" fill="#5C801A"/>
<path d="M134.255 118.055C132.508 118.466 130.016 119.598 128.583 122.666C128.45 122.954 128.327 123.242 128.226 123.525C128.216 123.728 128.152 124.939 128.269 126.364C128.29 125.099 128.562 123.765 129.217 122.474C131.342 118.296 136.246 118.216 136.603 118.216C136.475 118.077 136.348 117.943 136.209 117.821C136.151 117.821 135.906 117.815 135.533 117.847C135.197 117.874 134.755 117.933 134.249 118.055H134.255Z" fill="#9DD600"/>
<path d="M138.636 123.232C138.503 121.236 137.763 119.518 136.655 118.274C137.044 119 140.809 126.439 133.375 130.889C129.524 133.194 128.513 129.32 128.268 126.364C128.209 129.299 129.466 131.865 130.233 132.666C130.669 132.73 131.127 132.746 131.596 132.708C135.803 132.378 138.956 127.959 138.636 123.232Z" fill="#CAFF04"/>
<path d="M137.978 115.756C138.281 115.836 138.595 115.927 138.92 116.023L61.4816 79.2413C61.4816 79.2413 53.4187 74.9618 43.8008 73.6064C49.7494 74.8764 58.8561 79.0385 58.8561 79.0385L134.905 115.158C135.789 115.26 136.817 115.441 137.983 115.75L137.978 115.756Z" fill="#D7E8EF"/>
<path d="M140.789 128.584C141.679 125.777 141.769 123.536 141.386 121.754C140.667 121.535 139.916 121.321 139.122 121.113C139.293 121.738 139.405 122.405 139.447 123.098C139.698 126.834 138.009 130.393 135.336 132.287C136.108 132.73 136.864 133.125 137.605 133.477C138.915 132.442 140.06 130.873 140.784 128.584H140.789Z" fill="#8CAAB8"/>
<path d="M145.585 140.248C147.465 140.173 148.972 139.762 150.17 139.191C148.919 139.49 142.47 140.622 132.452 135.243C131.217 135.264 130.083 135.051 129.23 134.741C129.603 135.019 129.997 135.291 130.397 135.552C134.918 138.503 141.069 140.424 145.585 140.248Z" fill="#6B8E9A"/>
<path d="M152.11 139.159C152.642 138.807 153.1 138.439 153.484 138.049C153.111 137.98 152.722 137.894 152.307 137.793C151.881 138.166 151.38 138.535 150.789 138.871L150.848 138.972C150.848 138.972 151.354 139.063 152.115 139.159H152.11Z" fill="#9DD600"/>
<path d="M137.607 133.471C146.708 137.804 153.189 135.771 154.201 135.403C154.388 135.05 154.462 134.826 154.462 134.826C154.579 134.538 154.734 134.085 154.867 133.492C154.989 132.948 155.085 132.286 155.117 131.55C155.123 131.336 155.128 131.118 155.117 130.894C154.665 129.645 152.3 125.093 141.377 121.753C141.755 123.535 141.67 125.776 140.781 128.583C140.057 130.872 138.917 132.436 137.602 133.476L137.607 133.471Z" fill="#ACC5CF"/>
<path d="M154.204 135.403C153.192 135.772 146.706 137.805 137.61 133.472C136.001 134.736 134.132 135.211 132.449 135.243C142.467 140.622 148.921 139.491 150.167 139.192C150.38 139.091 150.588 138.984 150.78 138.872C151.371 138.536 151.871 138.167 152.297 137.794C153.309 136.903 153.895 135.98 154.193 135.403H154.204Z" fill="#A0BBC7"/>
<path d="M154.417 128.375C154.225 127.729 152.809 123.466 147.419 120.542C141.646 117.404 139.782 116.764 137.961 116.107C138.387 116.278 140.72 117.361 142.147 121.209C142.147 121.209 150.172 122.511 154.443 128.46C154.443 128.46 154.438 128.434 154.422 128.375H154.417Z" fill="#E5EEEF"/>
<path d="M154.204 135.402C153.901 135.979 153.315 136.902 152.309 137.793C152.724 137.894 153.118 137.98 153.486 138.049C154.886 136.651 155.392 135.088 155.552 133.882C155.339 133.743 155.11 133.615 154.87 133.492C154.737 134.084 154.583 134.538 154.465 134.826C154.465 134.826 154.391 135.05 154.204 135.402Z" fill="#9DD600"/>
<path d="M159.156 137.985C159.103 138.017 157.617 138.844 153.479 138.049C153.096 138.434 152.638 138.807 152.105 139.159C152.84 139.25 153.82 139.346 154.811 139.362C156.744 139.394 158.746 139.133 159.151 137.991L159.156 137.985Z" fill="#9DD600"/>
<path d="M154.734 128.284C154.1 126.011 152.561 123.487 149.281 121.236C148.929 120.995 148.578 120.761 148.237 120.536C147.028 119.747 145.867 119.069 144.77 118.487C142.581 117.324 140.627 116.545 138.922 116.028C138.598 115.926 138.283 115.841 137.98 115.761L137.895 116.086C137.895 116.086 137.9 116.086 137.921 116.097C137.926 116.097 137.932 116.097 137.942 116.102L137.964 116.113C139.785 116.764 141.649 117.41 147.422 120.547C152.811 123.471 154.228 127.735 154.42 128.38L154.739 128.29L154.734 128.284Z" fill="#C2D6DB"/>
<path d="M154.436 128.455C150.17 122.511 142.139 121.203 142.139 121.203C140.712 117.356 138.38 116.273 137.953 116.102L137.932 116.091C137.932 116.091 137.922 116.091 137.911 116.086C137.895 116.081 137.884 116.075 137.884 116.075L137.969 115.75C136.803 115.44 135.775 115.259 134.891 115.158C134.843 115.152 134.79 115.147 134.742 115.142C136.281 115.574 140.387 117.143 141.372 121.748C152.29 125.083 154.654 129.64 155.112 130.888C155.096 130.083 154.985 129.207 154.724 128.284L154.404 128.375C154.42 128.428 154.425 128.46 154.425 128.46L154.436 128.455Z" fill="#C2D6DB"/>
<path d="M155.549 133.876C155.677 132.873 155.57 132.126 155.533 131.918C155.346 131.747 155.208 131.619 155.117 131.55C155.086 132.286 154.99 132.948 154.867 133.492C155.107 133.615 155.331 133.743 155.549 133.882V133.876Z" fill="#9DD600"/>
<path d="M159.161 137.985C159.161 137.985 158.256 135.573 155.551 133.882C155.391 135.088 154.885 136.651 153.484 138.049C157.622 138.85 159.108 138.017 159.161 137.985Z" fill="#9DD600"/>
<path d="M149.281 121.235C152.556 123.487 154.096 126.011 154.735 128.284C154.996 129.207 155.102 130.083 155.123 130.888C155.129 131.112 155.123 131.331 155.123 131.545C155.209 131.619 155.352 131.747 155.539 131.913C155.741 132.1 155.997 132.34 156.274 132.617L158.574 132.334L156.705 130.296C156.812 125.179 151.055 121.545 150.442 121.177L149.287 121.23L149.281 121.235Z" fill="#7E9DAB"/>
<path d="M159.162 137.986C159.284 137.65 159.279 137.271 159.188 136.876C159.039 136.204 158.635 135.473 158.129 134.768C157.554 133.968 156.856 133.21 156.27 132.623C155.993 132.346 155.738 132.106 155.535 131.919C155.572 132.127 155.679 132.879 155.551 133.877C158.257 135.569 159.162 137.981 159.162 137.981V137.986Z" fill="#9DD600"/>
<path d="M134.018 145.264C191.369 154.175 159.085 141.043 154.814 139.362C153.824 139.346 152.844 139.25 152.109 139.16C151.347 139.064 150.841 138.973 150.841 138.973L150.783 138.872C150.586 138.984 150.383 139.09 150.17 139.192C148.972 139.763 147.465 140.174 145.585 140.248C141.069 140.424 134.918 138.503 130.397 135.553L130.359 135.611C130.359 135.611 113.69 128.936 110.735 127.431C107.225 125.649 105.787 124.219 105.803 121.892C105.766 121.327 105.888 120.91 106.091 120.606C106.117 120.537 106.144 120.468 106.181 120.393L38.8666 95.639C38.8666 95.639 12.5797 86.0395 12.0525 93.0457C11.5253 100.057 33.0884 110.366 33.0884 110.366L33.0724 110.398C41.8861 114.214 53.4585 118.397 70.5961 124.566C72.2044 125.142 73.8553 125.74 75.5648 126.353C78.2596 127.324 81.0821 128.338 84.0431 129.411L84.2774 129.496C84.2774 129.496 91.4296 132.159 101.969 135.649C110.969 138.631 122.435 142.217 134.018 145.259V145.264Z" fill="#8CAAB8"/>
<path d="M139.232 146.555C140.26 146.79 163.181 151.988 179.051 150.451C191.316 149.261 159.235 136.865 159.235 136.865L159.187 136.876C159.277 137.271 159.277 137.65 159.16 137.986C158.755 139.133 156.753 139.389 154.82 139.357C159.091 141.038 191.369 154.17 134.023 145.259C135.76 145.718 137.496 146.161 139.226 146.587L139.237 146.555H139.232Z" fill="#9EB7C7"/>
<path d="M189.836 145.515C183.089 143.525 163.076 133.658 160.051 132.153L158.57 132.335L156.27 132.618C156.861 133.205 157.558 133.968 158.128 134.763L158.139 134.752C158.139 134.752 192.052 151.23 193.085 148.226C193.426 146.806 191.935 145.029 189.464 143.114C184.181 139.021 174.403 134.304 168.327 131.129L167.682 131.209C169.812 132.383 197.921 147.895 189.831 145.51L189.836 145.515Z" fill="#D7E8EF"/>
<path d="M169.168 131.033C170.569 131.838 188.441 141.966 190.731 137.559L192.829 128.119L169.168 131.033Z" fill="#D7E8EF"/>
<path d="M185.516 106.85L173.79 110.718C173.513 110.798 173.422 110.942 173.507 111.006C173.561 111.049 173.672 111.06 173.832 111.017C174.258 110.91 183.306 108.28 184.505 107.933L185.506 106.85H185.516Z" fill="#EDF4F6"/>
<path d="M173.512 111.012L175.093 112.245C175.195 112.325 175.322 112.357 175.445 112.341L181.021 111.684L184.509 107.928C183.311 108.275 174.263 110.911 173.837 111.012C173.671 111.055 173.56 111.044 173.512 111.007V111.012Z" fill="#D7E8EF"/>
<path d="M167.688 131.214L160.051 132.153C163.081 133.652 183.089 143.519 189.837 145.514C197.926 147.9 169.818 132.388 167.688 131.214Z" fill="#EDF4F6"/>
<path d="M190.727 137.558C188.437 141.966 170.565 131.838 169.164 131.032L168.328 131.139C174.405 134.314 184.182 139.036 189.465 143.124L189.497 143.081L190.722 137.558H190.727Z" fill="#BDD3DD"/>
<path d="M188.531 104.379C187.791 105.281 179.664 115.211 178.316 116.855L195.789 116.065L197.355 110.441L194.655 110.654C194.655 110.654 191.231 108.584 190.267 107.57C190.134 107.431 190.049 107.314 190.022 107.223C189.814 106.471 190.517 106.519 190.517 106.519H190.661L194.943 106.652L190.262 103.942C190.049 103.824 189.266 103.483 188.536 104.379H188.531Z" fill="#D7E8EF"/>
<path d="M179.052 150.451C163.182 151.987 140.261 146.79 139.233 146.555L139.223 146.587C153.506 150.12 167.432 152.569 176.581 151.785C176.581 151.785 192.393 151.16 193.09 148.236C192.052 151.24 158.144 134.763 158.144 134.763L158.134 134.773C158.64 135.472 159.044 136.203 159.193 136.881L159.241 136.87C159.241 136.87 191.317 149.266 179.058 150.456L179.052 150.451Z" fill="#BDD3DD"/>
<path d="M181.022 111.684L176.16 116.919V116.956L178.312 116.86C179.659 115.216 187.791 105.286 188.526 104.384C189.261 103.488 190.039 103.829 190.252 103.952L189.618 103.584C189.213 103.349 188.696 103.424 188.377 103.771L185.506 106.855L184.505 107.938L181.017 111.695L181.022 111.684Z" fill="#EDF4F6"/>
<path d="M194.939 106.657L190.657 106.529C190.071 106.551 190.098 106.983 190.098 106.983C190.151 107.5 190.684 107.479 190.684 107.479H196.35L194.933 106.657H194.939Z" fill="#EDF4F6"/>
<path d="M197.354 110.446L197.439 110.136C194.153 109.56 190.559 107.73 190.266 107.575C191.23 108.584 194.654 110.659 194.654 110.659L197.354 110.446Z" fill="#BDD3DD"/>
<path d="M199.114 110.313C198.576 110.308 198.012 110.244 197.437 110.143L197.352 110.452L199.114 110.313Z" fill="#BDD3DD"/>
<path d="M190.019 107.229C190.045 107.32 190.131 107.437 190.264 107.576C190.557 107.73 194.151 109.561 197.437 110.137L197.927 108.387L196.351 107.474H190.685C190.685 107.474 190.147 107.496 190.099 106.978C190.099 106.978 190.072 106.546 190.658 106.525L190.514 106.519C190.514 106.519 189.811 106.471 190.019 107.224V107.229Z" fill="#D7E8EF"/>
<path d="M209.583 107.463C209.583 107.463 209.86 107.479 209.844 107.277C209.838 107.159 209.721 107.117 209.625 107.095L194.938 106.652L196.354 107.469L209.583 107.458V107.463Z" fill="#EDF4F6"/>
<path d="M209.845 107.282C209.861 107.479 209.584 107.469 209.584 107.469L196.355 107.479L197.932 108.392L197.442 110.142C198.017 110.244 198.582 110.308 199.119 110.313L213.184 109.208C212.849 109.176 211.416 108.456 210.378 107.837C210.378 107.837 210.09 107.682 210.058 107.575C210.042 107.538 210.037 107.506 210.037 107.474C209.978 107.117 210.404 107.122 210.404 107.122L209.632 107.101C209.728 107.117 209.845 107.165 209.85 107.282H209.845Z" fill="#D7E8EF"/>
<path d="M210.053 107.576C210.09 107.682 210.372 107.837 210.372 107.837C211.411 108.451 212.843 109.176 213.179 109.208H213.189H213.232C213.195 109.171 212.598 108.654 211.373 107.837C210.425 107.202 210.122 107.362 210.031 107.485C210.031 107.517 210.042 107.549 210.053 107.586V107.576Z" fill="#BDD3DD"/>
<path d="M210.396 107.122C210.396 107.122 209.97 107.122 210.029 107.474C210.12 107.356 210.423 107.196 211.371 107.826C212.596 108.642 213.192 109.165 213.23 109.197C213.288 109.181 213.235 109.091 213.038 108.915C210.892 106.999 210.396 107.122 210.396 107.122Z" fill="#EDF4F6"/>
<path d="M260.307 113.162L195.783 116.07L178.31 116.86L176.158 116.956L144.828 118.37L144.77 118.487C145.867 119.069 147.028 119.747 148.236 120.537C151.751 120.35 258.305 114.651 259.359 114.614C260.435 114.571 262.464 114.405 262.507 113.744C262.538 113.253 261.079 113.173 260.318 113.167C260.312 113.167 260.307 113.167 260.307 113.167V113.162Z" fill="#EDF4F6"/>
<path d="M259.361 114.608C258.307 114.651 151.748 120.345 148.238 120.531C148.584 120.756 148.931 120.99 149.282 121.231L150.438 121.177L264.266 115.9C263.584 115.745 262.732 115.259 262.876 114.107C262.876 114.107 262.876 114.107 262.876 114.102C262.998 113.157 263.834 113.008 264.111 112.986L260.325 113.157C261.086 113.168 262.546 113.242 262.514 113.733C262.471 114.395 260.442 114.56 259.366 114.603L259.361 114.608Z" fill="#BDD3DD"/>
<path d="M192.823 128.119L272.6 118.295C272.6 118.295 272.595 118.29 272.573 118.274C271.988 118.53 267.088 116.63 264.266 115.899L150.438 121.177C151.05 121.545 156.807 125.179 156.7 130.296L158.57 132.334L160.05 132.153L167.687 131.214L168.331 131.134L169.167 131.027L192.829 128.114L192.823 128.119Z" fill="#9EB7C7"/>
<path d="M264.265 115.905C267.088 116.636 271.987 118.536 272.573 118.28C272.344 118.109 270.565 116.796 267.035 114.79C263.371 112.704 262.902 114.011 262.875 114.102V114.107C262.732 115.265 263.584 115.745 264.265 115.9V115.905Z" fill="#D7E8EF"/>
<path d="M264.111 112.991C263.839 113.013 262.997 113.162 262.875 114.106C262.902 114.016 263.37 112.708 267.034 114.795C270.565 116.801 272.344 118.108 272.573 118.285C272.727 118.221 272.583 118.002 272.019 117.57C266.113 113.061 264.377 112.981 264.137 112.997H264.121H264.111V112.991Z" fill="#EDF4F6"/>
<g filter="url(#filter0_d_2040_57610)">
<path d="M245.366 143.036H99.9647C94.1313 143.036 89.4023 147.771 89.4023 153.612V174.515C89.4023 180.356 94.1313 185.091 99.9647 185.091H245.366C251.2 185.091 255.929 180.356 255.929 174.515V153.612C255.929 147.771 251.2 143.036 245.366 143.036Z" fill="url(#paint0_linear_2040_57610)"/>
<path d="M140.243 164.064C140.243 157.544 134.965 152.259 128.454 152.259C121.942 152.259 116.664 157.544 116.664 164.064C116.664 170.583 121.942 175.868 128.454 175.868C134.965 175.868 140.243 170.583 140.243 164.064Z" fill="white"/>
<path d="M134.504 160.811C134.432 166.438 131 170.293 125.878 170.536C123.766 170.637 122.235 169.922 120.902 169.034C122.464 169.296 124.401 168.641 125.436 167.712C123.905 167.555 122.999 166.739 122.575 165.424C123.018 165.504 123.484 165.484 123.904 165.389C122.523 164.904 121.537 164.01 121.485 162.134C121.873 162.318 122.277 162.492 122.813 162.527C121.779 161.91 121.015 159.656 121.89 158.166C123.425 159.929 125.269 161.368 128.299 161.564C127.538 158.153 131.847 156.304 133.65 158.596C134.413 158.441 135.034 158.137 135.631 157.808C135.384 158.6 134.911 159.153 134.335 159.596C134.968 159.506 135.529 159.344 136.007 159.096C135.711 159.742 135.062 160.323 134.504 160.811Z" fill="#191919"/>
<path d="M169.716 164.064C169.716 157.544 164.437 152.259 157.926 152.259C151.415 152.259 146.137 157.544 146.137 164.064C146.137 170.583 151.415 175.868 157.926 175.868C164.437 175.868 169.716 170.583 169.716 164.064Z" fill="white"/>
<path d="M150.769 163.207C150.769 163.207 157.613 160.292 159.986 159.265C160.896 158.855 163.981 157.541 163.981 157.541C163.981 157.541 165.406 156.966 165.287 158.362C165.247 158.937 164.931 160.949 164.614 163.125C164.14 166.205 163.625 169.572 163.625 169.572C163.625 169.572 163.547 170.516 162.874 170.681C162.201 170.845 161.094 170.106 160.896 169.941C160.738 169.818 157.929 167.971 156.9 167.067C156.623 166.821 156.307 166.328 156.94 165.754C158.364 164.398 160.065 162.715 161.094 161.647C161.568 161.154 162.043 160.005 160.065 161.4C157.256 163.412 154.487 165.301 154.487 165.301C154.487 165.301 153.854 165.712 152.668 165.343C151.481 164.973 150.096 164.48 150.096 164.48C150.096 164.48 149.147 163.865 150.769 163.207Z" fill="#191919"/>
<path d="M199.188 164.064C199.188 157.544 193.91 152.259 187.399 152.259C180.888 152.259 175.609 157.544 175.609 164.064C175.609 170.583 180.888 175.868 187.399 175.868C193.91 175.868 199.188 170.583 199.188 164.064Z" fill="white"/>
<path d="M185.856 166.051L181.455 161.636L185.019 158.067L187.046 159.784L188.178 158.651L185.847 156.317H183.778L179.664 160.436V162.508L185.095 167.955H186.937L189.404 165.485L188.161 164.25L185.856 166.052V166.051Z" fill="#191919"/>
<path d="M195.134 165.62L189.846 160.317H188.005L185.598 162.736L186.907 164.047L189.154 162.161L193.411 166.423L189.821 170.018L187.836 168.377L186.679 169.536L188.95 171.811H191.02L195.133 167.692L195.134 165.62Z" fill="#191919"/>
<path d="M228.665 164.064C228.665 157.544 223.387 152.259 216.875 152.259C210.364 152.259 205.086 157.544 205.086 164.064C205.086 170.583 210.364 175.868 216.875 175.868C223.387 175.868 228.665 170.583 228.665 164.064Z" fill="white"/>
<path d="M218.545 156.87L224.06 161.515V169.931L222.577 171.257H211.058L209.691 169.931V158.21L211.058 156.87H218.545ZM222.088 164.863H211.641V169.472H222.088V164.863ZM218.441 159.268H211.641V163.264H221.208V161.571L218.44 159.268H218.441Z" fill="#191919"/>
<path d="M218.605 166.377H220.601V167.976H218.605V166.377Z" fill="#191919"/>
<path fill-rule="evenodd" clip-rule="evenodd" d="M99.9634 141.972H245.365C251.789 141.972 256.993 147.185 256.993 153.612V174.515C256.993 180.941 251.789 186.155 245.365 186.155H99.9634C93.5397 186.155 88.3359 180.941 88.3359 174.515V153.612C88.3359 147.185 93.5397 141.972 99.9634 141.972ZM99.9634 143.658H245.365C250.856 143.658 255.306 148.115 255.306 153.612V174.515C255.306 180.012 250.856 184.469 245.365 184.469H99.9634C94.4731 184.469 90.0224 180.012 90.0224 174.515V153.612C90.0224 148.115 94.4731 143.658 99.9634 143.658Z" fill="#1B1C17"/>
</g>
<path d="M231.691 195.33C247.347 195.33 260.038 182.633 260.038 166.97C260.038 151.307 247.347 138.609 231.691 138.609C216.035 138.609 203.344 151.307 203.344 166.97C203.344 182.633 216.035 195.33 231.691 195.33Z" fill="#FCCA3E" fill-opacity="0.3"/>
<path d="M231.691 190.14C244.481 190.14 254.85 179.767 254.85 166.97C254.85 154.173 244.481 143.8 231.691 143.8C218.9 143.8 208.531 154.173 208.531 166.97C208.531 179.767 218.9 190.14 231.691 190.14Z" fill="#FCCA3E" fill-opacity="0.3"/>
<path d="M231.875 185.692C242.108 185.692 250.403 177.393 250.403 167.155C250.403 156.918 242.108 148.619 231.875 148.619C221.643 148.619 213.348 156.918 213.348 167.155C213.348 177.393 221.643 185.692 231.875 185.692Z" fill="#FCCA3E" fill-opacity="0.3"/>
<path d="M241.035 192.96L240.599 192.098L239.986 192.763L235.719 197.387C234.456 198.756 232.394 197.736 232.277 195.685L230.96 172.672C230.843 170.628 232.762 169.379 234.175 170.579L251.506 185.312C253.093 186.661 252.408 189.602 250.481 189.714L245.723 189.992C245.346 190.014 245.061 190.395 245.087 190.845C245.094 190.975 245.128 191.101 245.185 191.214L250.563 201.909C251.214 203.204 250.754 204.861 249.592 205.404L249.378 205.504C248.444 205.942 247.369 205.498 246.843 204.458L241.035 192.96Z" fill="white"/>
<path fill-rule="evenodd" clip-rule="evenodd" d="M232.54 171.247C232.224 171.452 231.919 171.92 231.959 172.615L233.276 195.628C233.316 196.325 233.674 196.755 234.012 196.922C234.319 197.074 234.666 197.054 234.985 196.709L240.842 190.359L241.929 192.509L247.737 204.007C248.069 204.665 248.606 204.762 248.955 204.598L249.17 204.498C249.715 204.243 250.124 203.26 249.67 202.358L244.291 191.662C244.173 191.426 244.104 191.166 244.089 190.902C244.042 190.071 244.582 189.056 245.666 188.993C245.666 188.993 245.666 188.993 245.666 188.993L250.423 188.715C250.806 188.693 251.189 188.388 251.338 187.749C251.485 187.118 251.311 186.457 250.859 186.073C250.859 186.073 250.859 186.073 250.859 186.073L233.528 171.341C233.528 171.341 233.528 171.341 233.528 171.341C233.173 171.039 232.827 171.06 232.54 171.247ZM240.358 193.835L236.455 198.065C235.51 199.089 234.195 199.244 233.126 198.715C232.088 198.201 231.356 197.095 231.279 195.742L229.962 172.729C229.885 171.38 230.481 170.201 231.449 169.571C232.446 168.922 233.766 168.918 234.823 169.817L252.155 184.55C253.29 185.515 253.566 186.999 253.286 188.203C253.007 189.4 252.084 190.622 250.54 190.712L246.18 190.966L251.457 201.459C252.305 203.147 251.794 205.478 250.017 206.31L249.803 206.41C249.803 206.41 249.803 206.41 249.803 206.41C248.283 207.121 246.67 206.33 245.951 204.908L240.358 193.835Z" fill="black"/>
<path d="M238.666 194.276L238.28 193.39L237.63 194.019L233.105 198.392C231.766 199.687 229.766 198.551 229.766 196.496V173.446C229.766 171.399 231.753 170.261 233.095 171.54L249.556 187.238C251.063 188.676 250.212 191.573 248.281 191.575L243.516 191.58C243.138 191.581 242.831 191.945 242.831 192.396C242.831 192.526 242.858 192.654 242.908 192.77L247.667 203.755C248.242 205.084 247.688 206.713 246.498 207.189L246.278 207.276C245.321 207.66 244.272 207.155 243.807 206.087L238.666 194.276Z" fill="white"/>
<path fill-rule="evenodd" clip-rule="evenodd" d="M231.424 172.113C231.097 172.3 230.766 172.749 230.766 173.446V196.496C230.766 197.195 231.099 197.644 231.427 197.83C231.725 197.999 232.072 197.999 232.41 197.673L238.621 191.669L239.582 193.877L244.724 205.687C245.018 206.363 245.55 206.491 245.906 206.348L246.127 206.26C246.686 206.036 247.15 205.078 246.749 204.152L241.99 193.166C241.885 192.924 241.831 192.661 241.831 192.396C241.831 191.563 242.429 190.581 243.515 190.58C243.515 190.58 243.515 190.58 243.515 190.58L248.28 190.575C248.663 190.574 249.064 190.291 249.248 189.662C249.431 189.04 249.295 188.371 248.866 187.962C248.866 187.962 248.866 187.962 248.866 187.962L232.405 172.263C232.405 172.263 232.405 172.264 232.405 172.263C232.068 171.942 231.721 171.943 231.424 172.113ZM237.938 195.111L233.8 199.111C232.799 200.079 231.477 200.159 230.439 199.57C229.433 198.998 228.766 197.852 228.766 196.496V173.446C228.766 172.095 229.428 170.951 230.43 170.377C231.462 169.786 232.78 169.858 233.785 170.816L250.246 186.514C251.325 187.543 251.516 189.041 251.167 190.227C250.82 191.406 249.83 192.573 248.282 192.575L243.915 192.579L248.584 203.357C249.334 205.09 248.691 207.388 246.869 208.117L246.65 208.205C246.65 208.205 246.65 208.205 246.65 208.205C245.092 208.828 243.526 207.946 242.89 206.486L237.938 195.111Z" fill="black"/>
<defs>
<filter id="filter0_d_2040_57610" x="88.3359" y="141.972" width="173.716" height="49.2429" filterUnits="userSpaceOnUse" color-interpolation-filters="sRGB">
<feFlood flood-opacity="0" result="BackgroundImageFix"/>
<feColorMatrix in="SourceAlpha" type="matrix" values="0 0 0 0 0 0 0 0 0 0 0 0 0 0 0 0 0 0 127 0" result="hardAlpha"/>
<feOffset dx="5.05926" dy="5.05926"/>
<feComposite in2="hardAlpha" operator="out"/>
<feColorMatrix type="matrix" values="0 0 0 0 0 0 0 0 0 0 0 0 0 0 0 0 0 0 1 0"/>
<feBlend mode="normal" in2="BackgroundImageFix" result="effect1_dropShadow_2040_57610"/>
<feBlend mode="normal" in="SourceGraphic" in2="effect1_dropShadow_2040_57610" result="shape"/>
</filter>
<linearGradient id="paint0_linear_2040_57610" x1="112.453" y1="148.835" x2="121.609" y2="196.773" gradientUnits="userSpaceOnUse">
<stop stop-color="#ABE839"/>
<stop offset="1" stop-color="#E0FD79"/>
</linearGradient>
</defs>
</svg>
