<svg width="280" height="206" viewBox="0 0 280 206" fill="none" xmlns="http://www.w3.org/2000/svg">
<g clip-path="url(#clip0_48_15168)">
<path d="M68.293 21.7644H242.439C248.198 21.7644 252.866 26.4308 252.866 32.1867V175.542C252.866 181.298 248.198 185.964 242.439 185.964H68.293C62.5343 185.964 57.8662 181.298 57.8662 175.542V32.1867C57.8662 26.4308 62.5343 21.7644 68.293 21.7644Z" fill="#F6F7F2" stroke="#AFB3BB"/>
<g filter="url(#filter0_d_48_15168)">
<path d="M226.745 42.4265H26.8293C23.0576 42.4265 20 45.4828 20 49.253V171.147C20 174.917 23.0576 177.973 26.8293 177.973H226.745C230.517 177.973 233.574 174.917 233.574 171.147V49.253C233.574 45.4828 230.517 42.4265 226.745 42.4265Z" fill="white"/>
<path d="M226.745 43.1091H26.829C23.4344 43.1091 20.6826 45.8598 20.6826 49.2529V171.147C20.6826 174.54 23.4344 177.29 26.829 177.29H226.745C230.139 177.29 232.891 174.54 232.891 171.147V49.2529C232.891 45.8598 230.139 43.1091 226.745 43.1091Z" stroke="black" stroke-width="2"/>
</g>
<path d="M191.325 106.911C189.656 112.328 183.901 115.547 178.611 113.92C173.321 112.294 170.376 106.399 172.045 100.982C173.715 95.5652 179.367 92.6777 184.658 94.3045C190.976 96.2478 192.995 101.494 191.325 106.911Z" fill="#CEB103"/>
<path d="M191.325 106.911C189.656 112.328 183.901 115.547 178.611 113.92C173.321 112.294 170.376 106.399 172.045 100.982C173.715 95.5652 179.367 92.6777 184.658 94.3045C190.976 96.2478 192.995 101.494 191.325 106.911Z" stroke="black" stroke-width="0.300546"/>
<path d="M177.566 113.564C182.89 115.2 188.561 112.135 190.232 106.719C191.903 101.302 188.941 95.5853 183.617 93.9492C178.293 92.3131 172.622 95.3777 170.951 100.794C169.28 106.211 172.242 111.928 177.566 113.564Z" fill="#FEDA03" stroke="black" stroke-width="0.300546"/>
<path fill-rule="evenodd" clip-rule="evenodd" d="M182.599 104.948L182.285 98.3356L177.397 102.138L179.12 105.278L182.599 104.948ZM177.713 108.402L177.046 102.832L178.768 105.972L182.25 105.294L177.713 108.402Z" fill="black"/>
<path d="M182.285 98.3358L182.342 98.3331L182.337 98.2233L182.25 98.2908L182.285 98.3358ZM182.599 104.948L182.604 105.005L182.659 105L182.656 104.946L182.599 104.948ZM177.397 102.138L177.362 102.093L177.324 102.123L177.347 102.166L177.397 102.138ZM179.12 105.278L179.07 105.306L179.088 105.339L179.125 105.335L179.12 105.278ZM177.046 102.832L177.096 102.805L176.989 102.839L177.046 102.832ZM177.713 108.403L177.656 108.409L177.667 108.503L177.745 108.45L177.713 108.403ZM178.768 105.972L178.719 106L178.739 106.036L178.78 106.028L178.768 105.972ZM182.25 105.294L182.282 105.341L182.239 105.238L182.25 105.294ZM182.228 98.3386L182.542 104.951L182.656 104.946L182.342 98.3331L182.228 98.3386ZM177.432 102.183L182.32 98.3808L182.25 98.2908L177.362 102.093L177.432 102.183ZM177.347 102.166L179.07 105.306L179.17 105.251L177.447 102.111L177.347 102.166ZM179.125 105.335L182.604 105.005L182.594 104.891L179.114 105.222L179.125 105.335ZM176.989 102.839L177.656 108.409L177.769 108.396L177.102 102.826L176.989 102.839ZM178.819 105.945L177.096 102.805L176.996 102.86L178.719 106L178.819 105.945ZM182.239 105.238L178.758 105.916L178.78 106.028L182.261 105.35L182.239 105.238ZM177.745 108.45L182.282 105.341L182.217 105.247L177.681 108.355L177.745 108.45Z" fill="black"/>
<path d="M165.386 121.168C163.916 126.273 159.245 129.901 155.241 128.751C146.576 127.15 149.208 122.049 150.678 116.944C152.148 111.838 153.102 106.826 160.727 109.694C164.731 110.844 166.856 116.062 165.386 121.168Z" fill="#CEB103"/>
<path d="M165.386 121.168C163.916 126.273 159.245 129.901 155.241 128.751C146.576 127.15 149.208 122.049 150.678 116.944C152.148 111.838 153.102 106.826 160.727 109.694C164.731 110.844 166.856 116.062 165.386 121.168Z" stroke="black" stroke-width="0.300546"/>
<path d="M152.295 127.993C156.264 129.133 160.71 125.791 162.225 120.529C163.74 115.266 161.75 110.076 157.781 108.936C153.812 107.796 149.367 111.138 147.852 116.401C146.337 121.663 148.326 126.853 152.295 127.993Z" fill="#FEDA03" stroke="black" stroke-width="0.300546"/>
<path d="M160.401 120.061C159.792 122.174 158.646 123.914 157.288 125.02C155.929 126.125 154.363 126.593 152.909 126.175C151.456 125.758 150.378 124.531 149.814 122.873C149.251 121.216 149.205 119.134 149.814 117.02C150.423 114.906 151.569 113.166 152.927 112.061C154.286 110.956 155.851 110.488 157.305 110.905C158.759 111.323 159.837 112.55 160.4 114.207C160.964 115.865 161.009 117.947 160.401 120.061Z" stroke="black" stroke-width="0.300546"/>
<path d="M178.485 125.43C183.488 127.995 185.499 134.611 183.001 139.473C180.503 144.334 174.108 146.252 169.105 143.688C164.103 141.124 161.933 134.817 164.431 129.955C167.349 124.367 173.482 122.866 178.485 125.43Z" fill="#CEB103"/>
<path d="M178.485 125.43C183.488 127.995 185.499 134.611 183.001 139.473C180.503 144.334 174.108 146.252 169.105 143.688C164.103 141.124 161.933 134.817 164.431 129.955C167.349 124.367 173.482 122.866 178.485 125.43Z" stroke="black" stroke-width="0.300546"/>
<path fill-rule="evenodd" clip-rule="evenodd" d="M154.719 116.287C154.798 116.1 154.909 115.742 154.723 115.591C154.602 115.494 154.388 115.402 154.225 115.332C154.136 115.294 154.063 115.262 154.029 115.24L154.73 114.2L155.769 114.901L156.124 113.511L156.818 113.863L156.115 115.251L156.809 115.602L157.164 114.212L157.858 114.564L157.155 115.952C157.564 116.203 158.474 117.049 158.188 118.045C157.83 119.29 157.316 119.593 156.788 119.777C157.079 120.09 157.425 120.523 157.127 121.518C156.829 122.514 156.311 122.844 156.076 122.905C156.053 122.911 156.024 122.919 155.992 122.928C155.705 123.01 155.106 123.18 154.685 122.898C154.633 123.007 154.547 123.169 154.45 123.35C154.282 123.665 154.083 124.036 153.983 124.286L153.289 123.934L153.992 122.546L153.646 122.197L152.943 123.585L152.597 123.235L152.952 121.845L151.914 120.796L152.615 119.756L152.959 120.453L154.719 116.287ZM155.762 116.293L155.056 118.377C155.174 118.531 155.764 118.728 156.098 118.73C156.515 118.732 156.735 118.479 156.799 117.69C156.858 116.953 156.138 116.47 155.762 116.293ZM153.999 121.155L154.705 119.071C154.854 119.161 155.521 119.597 155.745 119.772C156.024 119.989 156.257 120.517 156.085 121.165C155.948 121.683 154.991 121.616 154.692 121.506L153.999 121.155Z" fill="black"/>
<path d="M154.03 115.24L153.983 115.208L153.95 115.256L153.999 115.288L154.03 115.24ZM154.731 114.2L154.763 114.153L154.715 114.12L154.684 114.168L154.731 114.2ZM155.771 114.901L155.739 114.948L155.806 114.994L155.826 114.915L155.771 114.901ZM156.126 113.511L156.151 113.46L156.088 113.428L156.07 113.497L156.126 113.511ZM156.819 113.863L156.87 113.888L156.896 113.837L156.845 113.811L156.819 113.863ZM156.117 115.251L156.066 115.225L156.04 115.276L156.091 115.302L156.117 115.251ZM156.81 115.602L156.785 115.653L156.848 115.685L156.866 115.616L156.81 115.602ZM157.165 114.212L157.191 114.161L157.127 114.129L157.11 114.198L157.165 114.212ZM157.859 114.564L157.91 114.59L157.935 114.538L157.885 114.513L157.859 114.564ZM157.156 115.952L157.105 115.926L157.082 115.973L157.127 116L157.156 115.952ZM156.789 119.777L156.77 119.723L156.688 119.752L156.747 119.816L156.789 119.777ZM154.687 122.898L154.718 122.85L154.663 122.813L154.635 122.873L154.687 122.898ZM153.984 124.286L153.958 124.337L154.014 124.365L154.037 124.307L153.984 124.286ZM153.29 123.934L153.239 123.909L153.213 123.96L153.264 123.985L153.29 123.934ZM153.993 122.546L154.044 122.572L154.062 122.535L154.033 122.506L153.993 122.546ZM153.647 122.197L153.687 122.157L153.632 122.1L153.596 122.171L153.647 122.197ZM152.944 123.585L152.903 123.625L152.959 123.681L152.995 123.61L152.944 123.585ZM152.598 123.235L152.543 123.221L152.535 123.252L152.557 123.275L152.598 123.235ZM152.953 121.845L153.008 121.859L153.016 121.828L152.994 121.805L152.953 121.845ZM151.915 120.796L151.868 120.764L151.842 120.803L151.874 120.836L151.915 120.796ZM152.616 119.756L152.667 119.731L152.623 119.642L152.569 119.724L152.616 119.756ZM152.96 120.454L152.909 120.479L152.964 120.591L153.013 120.476L152.96 120.454ZM155.057 118.377L155.003 118.358L154.994 118.387L155.012 118.411L155.057 118.377ZM155.764 116.293L155.788 116.241L155.73 116.214L155.709 116.274L155.764 116.293ZM154.706 119.071L154.736 119.022L154.675 118.985L154.652 119.052L154.706 119.071ZM154 121.155L153.946 121.136L153.93 121.183L153.974 121.205L154 121.155ZM154.694 121.506L154.668 121.557L154.671 121.558L154.674 121.56L154.694 121.506ZM154.688 115.636C154.758 115.692 154.779 115.793 154.765 115.92C154.752 116.043 154.706 116.174 154.668 116.265L154.773 116.31C154.813 116.214 154.863 116.072 154.879 115.932C154.893 115.795 154.877 115.641 154.759 115.547L154.688 115.636ZM154.204 115.385C154.369 115.456 154.575 115.544 154.688 115.636L154.759 115.547C154.631 115.444 154.409 115.348 154.249 115.28L154.204 115.385ZM153.999 115.288C154.039 115.313 154.118 115.347 154.204 115.385L154.249 115.28C154.157 115.24 154.09 115.211 154.061 115.192L153.999 115.288ZM154.684 114.168L153.983 115.208L154.077 115.272L154.778 114.232L154.684 114.168ZM155.802 114.854L154.763 114.153L154.699 114.247L155.739 114.948L155.802 114.854ZM156.07 113.497L155.715 114.887L155.826 114.915L156.181 113.525L156.07 113.497ZM156.845 113.811L156.151 113.46L156.1 113.562L156.794 113.913L156.845 113.811ZM156.167 115.276L156.87 113.888L156.768 113.837L156.066 115.225L156.167 115.276ZM156.836 115.551L156.142 115.2L156.091 115.302L156.785 115.653L156.836 115.551ZM157.11 114.198L156.755 115.588L156.866 115.616L157.221 114.226L157.11 114.198ZM157.885 114.513L157.191 114.161L157.14 114.263L157.833 114.615L157.885 114.513ZM157.207 115.978L157.91 114.59L157.808 114.538L157.105 115.926L157.207 115.978ZM158.244 118.061C158.393 117.541 158.229 117.063 157.981 116.688C157.733 116.312 157.397 116.033 157.186 115.903L157.127 116C157.325 116.123 157.648 116.391 157.886 116.751C158.123 117.109 158.271 117.553 158.134 118.029L158.244 118.061ZM156.808 119.831C157.076 119.737 157.346 119.612 157.595 119.348C157.842 119.084 158.063 118.688 158.244 118.061L158.134 118.029C157.957 118.646 157.742 119.024 157.511 119.27C157.281 119.515 157.03 119.633 156.77 119.723L156.808 119.831ZM157.183 121.535C157.334 121.029 157.324 120.66 157.234 120.375C157.144 120.09 156.978 119.896 156.831 119.738L156.747 119.816C156.892 119.971 157.043 120.15 157.125 120.409C157.206 120.667 157.22 121.012 157.073 121.502L157.183 121.535ZM156.092 122.96C156.351 122.893 156.88 122.544 157.183 121.535L157.073 121.502C156.779 122.485 156.274 122.795 156.063 122.85L156.092 122.96ZM156.009 122.983C156.042 122.974 156.069 122.966 156.092 122.96L156.063 122.85C156.039 122.856 156.01 122.864 155.978 122.873L156.009 122.983ZM154.655 122.945C154.88 123.096 155.15 123.124 155.394 123.107C155.639 123.088 155.866 123.024 156.009 122.983L155.978 122.873C155.834 122.914 155.617 122.975 155.386 122.993C155.154 123.01 154.914 122.981 154.718 122.85L154.655 122.945ZM154.501 123.377C154.598 123.197 154.685 123.033 154.738 122.922L154.635 122.873C154.584 122.981 154.498 123.142 154.4 123.324L154.501 123.377ZM154.037 124.307C154.136 124.061 154.332 123.693 154.501 123.377L154.4 123.324C154.233 123.637 154.033 124.011 153.931 124.265L154.037 124.307ZM153.264 123.985L153.958 124.337L154.01 124.235L153.316 123.884L153.264 123.985ZM153.942 122.521L153.239 123.909L153.341 123.96L154.044 122.572L153.942 122.521ZM153.606 122.237L153.952 122.586L154.033 122.506L153.687 122.157L153.606 122.237ZM152.995 123.61L153.698 122.222L153.596 122.171L152.893 123.559L152.995 123.61ZM152.557 123.275L152.903 123.625L152.985 123.545L152.639 123.195L152.557 123.275ZM152.898 121.831L152.543 123.221L152.653 123.249L153.008 121.859L152.898 121.831ZM151.874 120.836L152.912 121.885L152.994 121.805L151.956 120.756L151.874 120.836ZM152.569 119.724L151.868 120.764L151.963 120.828L152.663 119.788L152.569 119.724ZM153.011 120.428L152.667 119.731L152.565 119.781L152.909 120.479L153.011 120.428ZM154.668 116.265L152.908 120.431L153.013 120.476L154.773 116.31L154.668 116.265ZM155.111 118.395L155.817 116.311L155.709 116.274L155.003 118.358L155.111 118.395ZM156.099 118.673C155.941 118.672 155.717 118.624 155.516 118.556C155.416 118.522 155.323 118.484 155.25 118.446C155.173 118.407 155.124 118.37 155.102 118.342L155.012 118.411C155.05 118.461 155.118 118.507 155.197 118.547C155.277 118.589 155.375 118.629 155.479 118.664C155.686 118.734 155.923 118.786 156.099 118.787L156.099 118.673ZM156.743 117.685C156.711 118.077 156.641 118.325 156.535 118.473C156.434 118.617 156.294 118.674 156.099 118.673L156.099 118.787C156.321 118.788 156.499 118.72 156.628 118.54C156.753 118.365 156.825 118.091 156.857 117.694L156.743 117.685ZM155.739 116.344C155.923 116.431 156.19 116.592 156.403 116.821C156.616 117.048 156.771 117.338 156.743 117.685L156.857 117.694C156.888 117.305 156.713 116.985 156.486 116.743C156.261 116.501 155.98 116.332 155.788 116.241L155.739 116.344ZM154.652 119.052L153.946 121.136L154.054 121.173L154.76 119.089L154.652 119.052ZM155.781 119.727C155.555 119.551 154.885 119.113 154.736 119.022L154.676 119.12C154.825 119.21 155.49 119.645 155.711 119.817L155.781 119.727ZM156.141 121.18C156.318 120.513 156.08 119.96 155.781 119.727L155.711 119.817C155.97 120.018 156.198 120.522 156.031 121.151L156.141 121.18ZM154.674 121.56C154.833 121.618 155.156 121.663 155.457 121.628C155.754 121.593 156.063 121.477 156.141 121.18L156.031 121.151C155.973 121.372 155.735 121.481 155.444 121.515C155.158 121.548 154.853 121.504 154.713 121.453L154.674 121.56ZM153.974 121.205L154.668 121.557L154.719 121.455L154.026 121.104L153.974 121.205Z" fill="black"/>
<path d="M183.349 138.62C185.852 133.749 183.862 127.741 178.905 125.2C173.947 122.66 167.9 124.549 165.398 129.419C162.896 134.29 164.886 140.298 169.843 142.839C174.8 145.379 180.847 143.491 183.349 138.62Z" fill="#FEDA03" stroke="black" stroke-width="0.300546"/>
<path d="M172.723 132.036L172.71 134.471L171.321 134.116L171.341 130.289L175.162 131.005L175.155 132.396L172.723 132.036Z" fill="black"/>
<path d="M171.657 136.554L171.664 135.162L172.705 135.515L172.7 136.559L171.657 136.554Z" fill="black"/>
<path d="M173.742 136.912L173.749 135.521L176.182 135.881L176.194 133.446L177.235 133.799L177.564 137.628L173.742 136.912Z" fill="black"/>
<path d="M176.199 132.402L176.206 131.01L177.247 131.363L177.24 132.755L176.199 132.402Z" fill="black"/>
<path d="M173.754 134.477L173.761 133.085L175.151 133.44L175.143 134.832L173.754 134.477Z" fill="black"/>
<path d="M172.723 132.036L172.71 134.471L171.321 134.116L171.341 130.289L175.162 131.005L175.155 132.396L172.723 132.036Z" stroke="black" stroke-width="0.300546"/>
<path d="M171.657 136.554L171.664 135.162L172.705 135.515L172.7 136.559L171.657 136.554Z" stroke="black" stroke-width="0.300546"/>
<path d="M173.742 136.912L173.749 135.521L176.182 135.881L176.194 133.446L177.235 133.799L177.564 137.628L173.742 136.912Z" stroke="black" stroke-width="0.300546"/>
<path d="M176.199 132.402L176.206 131.01L177.247 131.363L177.24 132.755L176.199 132.402Z" stroke="black" stroke-width="0.300546"/>
<path d="M173.754 134.477L173.761 133.085L175.151 133.44L175.143 134.832L173.754 134.477Z" stroke="black" stroke-width="0.300546"/>
<path d="M177.936 127.215C181.755 129.173 183.294 133.784 181.377 137.515C179.461 141.246 174.812 142.687 170.993 140.729C167.174 138.772 165.635 134.16 167.551 130.429C169.468 126.698 174.117 125.258 177.936 127.215Z" stroke="black" stroke-width="0.300546"/>
<path d="M187.964 106.089C186.699 110.191 182.424 112.515 178.416 111.283C174.409 110.05 172.182 105.727 173.447 101.624C174.712 97.5218 178.987 95.1982 182.994 96.4307C187.002 97.6629 189.228 101.986 187.964 106.089Z" stroke="black" stroke-width="0.300546"/>
<path d="M148.703 136.784L153.224 136.807M150.802 134.36L150.779 138.883" stroke="black" stroke-linecap="round"/>
<path d="M188.782 119.941L191.217 119.953M189.833 118.554L189.82 120.99" stroke="black" stroke-linecap="round"/>
<path d="M161.054 101.707L163.488 101.719M162.104 100.32L162.092 102.756" stroke="black" stroke-width="0.5" stroke-linecap="round"/>
<g style="mix-blend-mode:multiply">
<path d="M71.2659 135.796L82.2431 129.461C84.456 128.183 86.9664 127.509 89.5216 127.509C92.0775 127.509 94.5879 128.183 96.8008 129.461L135.509 151.799C135.964 152.073 136.34 152.459 136.601 152.921C136.863 153.383 137 153.904 137 154.434C137 154.965 136.863 155.486 136.601 155.948C136.34 156.41 135.964 156.796 135.509 157.07L124.526 163.404C122.313 164.68 119.804 165.352 117.25 165.352C114.696 165.352 112.187 164.68 109.974 163.404L71.2659 141.067C70.8115 140.793 70.4352 140.407 70.1733 139.945C69.9122 139.483 69.7754 138.961 69.7754 138.432C69.7754 137.901 69.9122 137.379 70.1733 136.917C70.4352 136.456 70.8115 136.069 71.2659 135.796Z" fill="#E6E7EB"/>
</g>
<path d="M129.245 123.323C129.245 123.323 131.497 123.735 131.497 126.773V133.643H128.654L129.245 123.323Z" fill="#8BBE2B"/>
<path d="M128.504 154.926L128.506 154.925C128.894 154.709 129.192 154.522 129.395 154.282C129.594 154.045 129.705 153.753 129.705 153.318V110.48C129.704 109.34 129.404 108.22 128.835 107.231C128.266 106.242 127.448 105.419 126.462 104.845L89.361 83.4423C87.0863 82.2568 84.5064 81.7855 81.9589 82.0902C80.6361 82.2286 79.345 82.5858 78.1396 83.147L78.9347 84.7887C79.9492 84.3079 81.0418 84.0129 82.1606 83.9176C84.3287 83.6404 86.53 84.0288 88.4717 85.0312L88.474 85.0326L125.557 106.436C126.273 106.844 126.868 107.432 127.286 108.142C127.704 108.851 127.929 109.657 127.939 110.48V152.851C127.938 152.961 127.907 153.069 127.85 153.164C127.795 153.258 127.715 153.336 127.619 153.39C127.527 153.447 127.42 153.476 127.311 153.476C127.202 153.476 127.096 153.447 127.003 153.39C127.003 153.39 127.003 153.39 127.002 153.389L118.925 148.74L118.187 148.316L117.012 147.633L96.8605 135.996L92.172 133.297L128.504 154.926ZM128.504 154.926C128.141 155.14 127.727 155.254 127.305 155.254C126.883 155.254 126.469 155.14 126.106 154.926L118.98 150.829M128.504 154.926L118.98 150.829L128.504 154.926ZM118.98 150.829L117.066 149.722L88.4987 133.239L88.4964 133.238C86.5563 132.229 84.3549 131.834 82.1853 132.106C81.0874 132.217 80.0149 132.505 79.0089 132.96L78.2324 131.36C79.4153 130.809 80.6833 130.462 81.9829 130.334C83.3227 130.191 85.3725 130.648 87.3428 131.286C89.3108 131.923 91.1861 132.736 92.172 133.297L118.98 150.829Z" fill="#BDF651"/>
<path d="M128.504 154.926L128.506 154.925C128.894 154.709 129.192 154.522 129.395 154.282C129.594 154.045 129.705 153.753 129.705 153.318V110.48C129.704 109.34 129.404 108.22 128.835 107.231C128.266 106.242 127.448 105.419 126.462 104.845L89.361 83.4423C87.0863 82.2568 84.5064 81.7855 81.9589 82.0902C80.6361 82.2286 79.345 82.5858 78.1396 83.147L78.9347 84.7887C79.9492 84.3079 81.0418 84.0129 82.1606 83.9176C84.3287 83.6404 86.53 84.0288 88.4717 85.0312L88.474 85.0326L125.557 106.436C126.273 106.844 126.868 107.432 127.286 108.142C127.704 108.851 127.929 109.657 127.939 110.48V152.851C127.938 152.961 127.907 153.069 127.85 153.164C127.795 153.258 127.715 153.336 127.619 153.39C127.527 153.447 127.42 153.476 127.311 153.476C127.202 153.476 127.096 153.447 127.003 153.39C127.003 153.39 127.003 153.39 127.002 153.389L118.925 148.74L118.187 148.316L117.012 147.633L96.8605 135.996L92.172 133.297M128.504 154.926L92.172 133.297M128.504 154.926C128.141 155.14 127.727 155.254 127.305 155.254C126.883 155.254 126.469 155.14 126.106 154.926L118.98 150.829M128.504 154.926L118.98 150.829M92.172 133.297C91.1861 132.736 89.3108 131.923 87.3428 131.286C85.3725 130.648 83.3227 130.191 81.9829 130.334C80.6833 130.462 79.4153 130.809 78.2324 131.36L79.0089 132.96C80.0149 132.505 81.0874 132.217 82.1853 132.106C84.3549 131.834 86.5563 132.229 88.4964 133.238L88.4987 133.239L117.066 149.722L118.98 150.829M92.172 133.297L118.98 150.829" stroke="black" stroke-width="0.159266"/>
<path d="M125.519 106.49L88.4284 85.086C86.4975 84.0893 84.3094 83.7011 82.1529 83.9728C81.0248 84.0806 79.9237 84.3823 78.8976 84.8646C77.9928 85.2262 77.2611 85.9222 76.8547 86.8081C76.541 87.7922 77.1815 88.8501 78.5592 89.6496L115.674 111.059C116.669 111.636 117.497 112.464 118.072 113.46C118.647 114.456 118.952 115.586 118.953 116.736V147.015L117.858 146.301L117.04 149.782L126.06 154.985L126.306 155.12C126.465 155.211 126.646 155.258 126.829 155.257C127.012 155.256 127.191 155.207 127.35 155.115C127.508 155.023 127.639 154.891 127.73 154.732C127.821 154.573 127.869 154.393 127.869 154.21V110.487C127.861 109.673 127.64 108.876 127.227 108.175C126.815 107.474 126.226 106.892 125.519 106.49Z" fill="#4C7302"/>
<path d="M126.57 154.979C126.504 154.981 126.44 154.964 126.385 154.93L117.556 149.843L118.042 147.783L119.371 148.65V117.13C119.369 115.862 119.035 114.617 118.403 113.518C117.77 112.42 116.86 111.506 115.765 110.868L78.6754 89.471C77.5983 88.8559 77.0629 88.0625 77.2661 87.4168C77.6207 86.6962 78.2304 86.133 78.9768 85.8361C79.9302 85.387 80.954 85.108 82.0041 85.0119C82.4128 84.9681 82.8231 84.9456 83.2341 84.9443C84.8467 84.9124 86.4407 85.289 87.8678 86.0391L124.957 107.442C125.559 107.793 126.058 108.295 126.406 108.898C126.754 109.501 126.937 110.185 126.939 110.88V154.604C126.939 154.654 126.929 154.703 126.91 154.75C126.891 154.796 126.863 154.838 126.828 154.874C126.757 154.939 126.666 154.976 126.57 154.979Z" fill="#7AAF15"/>
<path d="M84.6829 87.1888L84.686 87.1899L124.515 109.053V152.858L123.37 153.518L121.432 152.399L121.41 152.365L121.32 152.231L120.968 151.707L119.631 149.721C118.48 148.009 116.834 145.562 114.858 142.623C110.906 136.745 105.63 128.898 100.338 121.022C95.0459 113.147 89.7377 105.242 85.7199 99.2505C81.7005 93.2564 78.9753 89.1794 78.8455 88.9543C78.7875 88.8526 78.7721 88.7535 78.7883 88.6552C78.8061 88.5555 78.8563 88.4529 78.9374 88.3477C79.0997 88.1363 79.3724 87.927 79.6869 87.7259C79.9519 87.5565 80.2409 87.3956 80.5106 87.2457C80.56 87.2183 80.6087 87.1911 80.6566 87.1644C80.9626 86.9936 81.2345 86.836 81.3868 86.6998C81.4478 86.6453 81.5421 86.6067 81.6688 86.5851C81.7947 86.5635 81.9462 86.5597 82.1146 86.5697C82.4523 86.5899 82.851 86.6653 83.2334 86.7576C83.6159 86.8497 83.9806 86.9582 84.2495 87.0438C84.3839 87.0866 84.4944 87.1235 84.5709 87.1498C84.6095 87.163 84.6397 87.1734 84.6598 87.1806L84.6829 87.1888Z" fill="#E5E5E5" stroke="black" stroke-width="0.159266"/>
<path d="M119.486 155.834L120.717 155.139L81.9529 132.757C81.8988 132.731 81.8517 132.693 81.8131 132.646C81.7752 132.6 81.7474 132.545 81.732 132.487C81.7273 132.41 81.7474 132.333 81.7876 132.267C81.8285 132.201 81.888 132.149 81.9591 132.118C82.1484 132.019 82.3617 131.974 82.5749 131.989C82.7403 131.993 82.9033 132.037 83.0486 132.118L121.812 154.493L123.042 153.798L84.2786 131.423C83.8166 131.172 83.3028 131.03 82.7774 131.011C82.0812 130.957 81.3835 131.102 80.7653 131.429C80.5305 131.515 80.3288 131.673 80.1905 131.881C80.0522 132.089 79.9842 132.336 79.9965 132.585C80.0429 132.774 80.1302 132.949 80.2523 133.099C80.3751 133.249 80.5289 133.37 80.7043 133.452L119.486 155.834Z" fill="#6D9047"/>
<path d="M82.3904 87.8823L122.941 109.964V153.763L121.797 154.422L119.442 153.058L81.4238 88.5245L82.3904 87.8823Z" fill="#E5E5E5" stroke="black" stroke-width="0.159266"/>
<path d="M80.0498 88.2607L120.629 111.298V155.097L119.483 155.763L80.0498 132.999V88.2607Z" fill="#C2C2C2" stroke="black" stroke-width="0.159266"/>
<path d="M79.18 130.537C79.7255 130.243 80.3128 130.035 80.9216 129.922C81.1186 130.23 81.3033 130.537 81.4694 130.857C81.087 130.932 80.7199 131.067 80.38 131.256C80.1065 131.37 79.8747 131.566 79.7186 131.818C79.5617 132.07 79.4876 132.363 79.5061 132.659C79.5648 132.886 79.6722 133.097 79.8206 133.278C79.9697 133.458 80.1567 133.604 80.3676 133.705L119.131 156.067L117.901 156.769L79.1375 134.4C78.8053 134.243 78.5125 134.015 78.2807 133.73C78.0481 133.446 77.8827 133.114 77.7962 132.757C77.6787 131.921 78.1771 131.121 79.18 130.537Z" fill="#7B9A5B"/>
<path d="M77.8594 132.286V88.2852L81.2351 91.0623L81.239 91.0658L81.2444 91.0685L119.059 112.208V156.007L117.916 156.667L77.8594 132.286Z" fill="#C2C2C2" stroke="black" stroke-width="0.159266"/>
<path d="M85.8937 86.7084L124.562 109.017L123.456 109.647L84.7224 87.2958L84.7209 87.2948C84.1437 86.9873 83.5031 86.8166 82.8495 86.7957C81.9879 86.7234 81.1225 86.9004 80.3584 87.3057C80.074 87.4243 79.8337 87.6285 79.6707 87.8901C79.5077 88.1524 79.4304 88.4592 79.4497 88.7676L79.4505 88.7735L79.4521 88.7793C79.5131 89.0141 79.6251 89.2327 79.7797 89.4201C79.9334 89.6068 80.1258 89.7581 80.3437 89.8636L119.012 112.172L117.906 112.796L79.1855 90.4448L79.1832 90.4439C78.878 90.281 78.6122 90.0541 78.4028 89.7788C78.1942 89.5039 78.0474 89.1871 77.9716 88.8502C77.8372 88.0751 78.3108 87.2977 79.3014 86.7203C80.4596 86.1127 81.7646 85.8426 83.0689 85.9405L83.0712 85.9406C84.0579 85.9803 85.0222 86.2426 85.893 86.7079L85.8937 86.7084Z" fill="white" stroke="black" stroke-width="0.159266"/>
<path d="M84.2493 87.6005L122.918 109.927L121.812 110.552L83.0787 88.194L83.0772 88.1935C82.9234 88.1087 82.7527 88.0599 82.5773 88.0506C82.3532 88.0367 82.1299 88.0856 81.9321 88.1918C81.851 88.227 81.783 88.2858 81.7358 88.3604C81.6887 88.4359 81.6655 88.5241 81.6694 88.6131L81.6701 88.6193L81.6717 88.6254C81.6887 88.6931 81.7204 88.7563 81.7636 88.8108C81.8069 88.8649 81.861 88.9093 81.9228 88.941L120.592 111.268L119.486 111.892L80.7345 89.5287L80.7306 89.5267C80.5645 89.4458 80.4184 89.33 80.3018 89.1872C80.1866 89.046 80.1032 88.8817 80.0568 88.7055C80.046 88.4702 80.1109 88.2376 80.2407 88.0412C80.3721 87.8429 80.5629 87.6919 80.7862 87.61L80.7932 87.607C81.4028 87.2911 82.0882 87.1508 82.7727 87.2015L82.7743 87.2017C83.2896 87.2219 83.7934 87.3581 84.2485 87.5999C84.2485 87.6002 84.2493 87.6003 84.2493 87.6005Z" fill="white" stroke="black" stroke-width="0.159266"/>
<path d="M107.698 103.759L104.376 102.799L104.634 101.748L107.163 102.633L107.698 103.759Z" fill="#C2C2C2"/>
<path d="M106.904 92.1481C109.238 96.2377 109.032 99.66 107.131 101.343C106.832 101.608 106.599 101.828 106.4 102.016C106.374 102.04 106.349 102.063 106.324 102.087C106.109 102.291 105.932 102.454 105.748 102.596C105.387 102.877 104.994 103.081 104.211 103.346C103.19 103.085 102.01 102.254 100.887 101.143C99.7595 100.027 98.6971 98.6343 97.9191 97.2726C97.0251 95.7055 96.4147 93.9508 96.162 92.3343C95.9101 90.7251 96.0152 89.2615 96.5375 88.2562C96.8304 88.0961 97.0552 87.9748 97.2515 87.869C97.586 87.6885 97.8372 87.5529 98.2003 87.3458C99.843 86.7783 101.433 86.959 102.904 87.7885C104.379 88.6199 105.737 90.1048 106.904 92.1481Z" fill="#E3B84C" stroke="black" stroke-width="0.159266"/>
<path d="M105.021 93.1722C106.186 95.2127 106.733 97.3475 106.677 99.1462C106.621 100.947 105.964 102.4 104.734 103.101C103.505 103.803 101.919 103.629 100.34 102.761C98.7625 101.893 97.2025 100.337 96.0373 98.2959C94.8721 96.2554 94.3258 94.1206 94.3807 92.3218C94.4363 90.5218 95.0939 89.0681 96.3232 88.3667C97.5533 87.6654 99.1395 87.8394 100.718 88.7074C102.296 89.5748 103.856 91.1309 105.021 93.1722Z" fill="#FFE572" stroke="black" stroke-width="0.159266"/>
<path d="M104.246 102.508C106.395 101.282 106.415 97.2726 104.291 93.5522C102.167 89.832 98.7044 87.8097 96.5556 89.0353C94.4068 90.2608 94.3867 94.2705 96.51 97.9901C98.634 101.711 102.097 103.733 104.246 102.508Z" fill="#E3B84C"/>
<path d="M104.24 93.5816C105.21 95.2807 105.688 97.0432 105.681 98.5176C105.674 99.9936 105.18 101.168 104.221 101.714C103.262 102.261 102 102.089 100.725 101.344C99.4513 100.601 98.1764 99.2923 97.2067 97.5931C96.237 95.894 95.758 94.1315 95.7657 92.6571C95.7734 91.181 96.2672 90.0071 97.2253 89.4603C98.1842 88.9135 99.4467 89.0858 100.722 89.8304C101.995 90.5741 103.27 91.8824 104.24 93.5816Z" fill="#FAD764" stroke="black" stroke-width="0.159266"/>
<path fill-rule="evenodd" clip-rule="evenodd" d="M102.582 93.8613C102.239 93.1476 101.493 92.9344 100.638 92.9012L100.265 91.9072L99.6232 91.9343L99.1867 92.1582L99.1102 91.9551L98.4688 91.9821L97.8693 92.2138C97.8793 92.2278 97.9141 92.2671 97.9604 92.322C98.1482 92.539 98.5415 92.9931 98.4348 92.9978L98.4341 92.9947L97.5486 93.031L96.9482 93.2604C96.9482 93.2604 98.2625 93.6489 98.2571 93.6574C98.5175 93.6465 98.6558 93.7856 98.7261 93.9068L99.1519 95.0391C99.1696 95.0383 99.1936 95.0383 99.2214 95.0406L99.2029 95.0414C99.1866 95.0422 99.1704 95.0429 99.1534 95.0437L99.7491 96.6293C99.7515 96.6371 99.753 96.6432 99.7538 96.6479C99.7569 96.6595 99.7584 96.6649 99.7561 96.6664C99.7546 96.668 99.7499 96.6672 99.7414 96.6641C99.7206 96.6579 99.6757 96.644 99.5877 96.6479C99.2832 96.766 98.5175 97.0773 98.5175 97.0773L99.2608 97.587L100.096 97.5523C100.197 97.5484 100.272 97.5453 100.353 97.543L100.496 97.5376L100.965 98.7402L101.576 98.5154L101.202 97.5206L101.294 97.5183C101.429 97.516 101.545 97.5137 101.681 97.5075L102.114 98.71L102.73 98.4667L102.353 97.4635C103.411 97.36 104.07 97.0727 103.805 96.1134C103.592 95.3418 103.079 95.0144 102.414 94.9016C102.719 94.707 102.834 94.3826 102.582 93.8613ZM99.4764 92.929C99.6464 92.919 99.3628 92.3266 99.1867 92.1582L99.4764 92.929ZM102.486 95.9165C102.738 96.6301 101.614 96.6649 101.101 96.6803C101.054 96.6819 101.012 96.6834 100.978 96.6849L100.491 95.3063C100.533 95.3048 100.584 95.3009 100.643 95.297C101.162 95.2615 102.228 95.1874 102.486 95.9165ZM100.149 94.8599C100.58 94.8475 101.52 94.8213 101.291 94.1764C101.055 93.5168 100.165 93.5809 99.7298 93.6118C99.6811 93.6149 99.6379 93.618 99.6023 93.6195L100.046 94.863C100.075 94.8614 100.11 94.8607 100.149 94.8599Z" fill="#E3B84C"/>
<path fill-rule="evenodd" clip-rule="evenodd" d="M102.038 94.1469C101.695 93.4364 100.945 93.2248 100.087 93.1908L99.7119 92.2014L99.0675 92.2277L99.4322 93.1916C99.263 93.1985 99.0907 93.2086 98.9199 93.2186L98.5529 92.2493L97.9085 92.2756L98.2832 93.2642C98.1441 93.2727 98.0081 93.2812 97.8745 93.2866L97.8729 93.2835L96.9844 93.3198L97.2278 93.9631C97.2278 93.9631 97.7006 93.9346 97.696 93.943C97.9572 93.933 98.0955 94.0705 98.1665 94.1917L98.5938 95.3194C98.6124 95.3186 98.6356 95.3178 98.6641 95.3209H98.6448C98.6294 95.3217 98.6124 95.3225 98.5954 95.3232L99.1942 96.9027C99.212 96.9799 99.2096 97.1043 99.0273 97.112C99.0381 97.1182 98.5591 97.1313 98.5591 97.1313L98.7028 97.8557L99.5419 97.821C99.6338 97.8171 99.7258 97.8148 99.8162 97.8117C99.8788 97.8094 99.9421 97.8079 100.004 97.8055L100.383 98.8065L101.028 98.7802L100.652 97.7901C100.831 97.7862 101.002 97.7801 101.169 97.7731L101.542 98.7586L102.187 98.7324L101.808 97.7337C102.871 97.631 103.532 97.3445 103.266 96.3898C103.052 95.6214 102.537 95.2954 101.869 95.1827C102.176 94.9896 102.291 94.6667 102.038 94.1469ZM101.967 96.2137C102.219 96.9266 101.095 96.9614 100.581 96.9776C100.535 96.9791 100.493 96.9799 100.458 96.9822L99.9715 95.6036C100.014 95.602 100.065 95.5982 100.124 95.5943C100.644 95.558 101.708 95.4847 101.967 96.2137ZM99.623 95.1564C100.054 95.144 100.994 95.1178 100.764 94.4729C100.529 93.8133 99.6385 93.8774 99.2042 93.9083C99.1548 93.9122 99.1115 93.9152 99.076 93.9168L99.5195 95.1595C99.5488 95.1587 99.5844 95.1572 99.623 95.1564Z" fill="#FFE572"/>
<path d="M100.087 93.1908L100.028 93.2102L100.043 93.2495L100.085 93.2511L100.087 93.1908ZM102.039 94.147L101.981 94.1717L101.998 94.2049L102.035 94.2073L102.039 94.147ZM99.7121 92.2015L99.7708 92.1814L99.7546 92.1389L99.7082 92.1412L99.7121 92.2015ZM99.0677 92.2277L99.0638 92.1675L98.9796 92.1714L99.0089 92.2478L99.0677 92.2277ZM99.4324 93.1916L99.4362 93.2519L99.5204 93.248L99.4911 93.1715L99.4324 93.1916ZM98.9201 93.2187L98.8614 93.2387L98.8776 93.282L98.9255 93.2789L98.9201 93.2187ZM98.5531 92.2494L98.6118 92.2293L98.5956 92.1868L98.5492 92.1891L98.5531 92.2494ZM97.9087 92.2756L97.9048 92.2154L97.8206 92.2185L97.8499 92.2949L97.9087 92.2756ZM98.2834 93.2642L98.288 93.3245L98.37 93.3198L98.3421 93.2449L98.2834 93.2642ZM97.8747 93.2866L97.8167 93.3075L97.833 93.3484L97.8785 93.3469L97.8747 93.2866ZM97.8731 93.2835L97.9319 93.2627L97.9148 93.2217L97.87 93.2233L97.8731 93.2835ZM96.9846 93.3198L96.9807 93.2596L96.8965 93.2627L96.9251 93.3391L96.9846 93.3198ZM97.228 93.9632L97.1692 93.9825L97.1855 94.0258L97.2334 94.0234L97.228 93.9632ZM97.6962 93.9431L97.6413 93.9138L97.5872 94.008L97.7 94.0034L97.6962 93.9431ZM98.1667 94.1918L98.227 94.1717L98.2216 94.1632L98.1667 94.1918ZM98.594 95.3194L98.5353 95.3387L98.5515 95.3812L98.5979 95.3797L98.594 95.3194ZM98.6643 95.321L98.6682 95.3812V95.2607L98.6643 95.321ZM98.5956 95.3233L98.5917 95.263L98.5083 95.2677L98.5368 95.3434L98.5956 95.3233ZM99.1944 96.9027L99.2562 96.8904L99.2531 96.8827L99.1944 96.9027ZM99.0275 97.112L99.0236 97.0518L98.8227 97.0603L98.995 97.163L99.0275 97.112ZM98.5593 97.1313L98.5562 97.0711L98.4835 97.0726L98.4974 97.1414L98.5593 97.1313ZM98.703 97.8558L98.6419 97.8658L98.652 97.9184L98.7068 97.916L98.703 97.8558ZM100.004 97.8056L100.063 97.7863L100.047 97.7438L100.001 97.7454L100.004 97.8056ZM100.384 98.8066L100.325 98.8259L100.341 98.8683L100.387 98.8668L100.384 98.8066ZM101.028 98.7803L101.032 98.8405L101.115 98.8367L101.087 98.7602L101.028 98.7803ZM100.652 97.7902L100.65 97.7299L100.564 97.7315L100.594 97.8095L100.652 97.7902ZM101.169 97.7732L101.228 97.7539L101.212 97.7114L101.165 97.7129L101.169 97.7732ZM101.543 98.7587L101.484 98.7788L101.499 98.8212L101.546 98.8189L101.543 98.7587ZM102.187 98.7324L102.191 98.7927L102.275 98.7888L102.246 98.7123L102.187 98.7324ZM101.808 97.7338L101.801 97.6735L101.723 97.6813L101.75 97.7531L101.808 97.7338ZM101.869 95.1827L101.835 95.1317L101.702 95.2152L101.86 95.2422L101.869 95.1827ZM102.039 94.147L102.095 94.1223L102.08 94.0891L102.042 94.0868L102.039 94.147ZM101.967 96.2138L101.945 96.1566L101.887 96.176L101.907 96.2323L101.967 96.2138ZM100.458 96.9823L100.4 97L100.415 97.0441L100.463 97.0425L100.458 96.9823ZM99.9717 95.6037L99.9678 95.5434L99.8859 95.5473L99.9122 95.6222L99.9717 95.6037ZM101.967 96.2138L101.988 96.271L102.046 96.2516L102.026 96.1953L101.967 96.2138ZM100.764 94.4729L100.744 94.4158L100.685 94.4351L100.705 94.4915L100.764 94.4729ZM100.764 94.4729L100.785 94.5301L100.844 94.5116L100.824 94.4544L100.764 94.4729ZM99.0762 93.9169L99.0723 93.8566L98.9904 93.8605L99.0167 93.9354L99.0762 93.9169ZM99.5197 95.1595L99.461 95.1781L99.4764 95.2221L99.5235 95.2198L99.5197 95.1595ZM100.085 93.2511C100.938 93.2851 101.654 93.4951 101.981 94.1717L102.095 94.1223C101.735 93.3785 100.951 93.1646 100.088 93.1306L100.085 93.2511ZM99.6533 92.2208L100.028 93.2102L100.146 93.1708L99.7708 92.1814L99.6533 92.2208ZM99.0715 92.288L99.7159 92.2617L99.7082 92.1412L99.0638 92.1675L99.0715 92.288ZM99.4911 93.1715L99.1264 92.2084L99.0089 92.2478L99.3736 93.2109L99.4911 93.1715ZM98.9255 93.2789C99.0963 93.2689 99.2678 93.2588 99.4362 93.2519L99.4285 93.1314C99.2585 93.1383 99.0862 93.1484 98.9147 93.1584L98.9255 93.2789ZM98.4936 92.2687L98.8614 93.2387L98.9788 93.1993L98.6118 92.2293L98.4936 92.2687ZM97.9125 92.3359L98.5569 92.3096L98.5492 92.1891L97.9048 92.2154L97.9125 92.3359ZM98.3421 93.2449L97.9674 92.2555L97.8499 92.2949L98.2239 93.2843L98.3421 93.2449ZM97.8785 93.3469C98.013 93.3415 98.1497 93.333 98.288 93.3245L98.278 93.2047C98.1397 93.2125 98.0037 93.221 97.8708 93.2264L97.8785 93.3469ZM97.8152 93.3044L97.8167 93.3075L97.9334 93.2658L97.9319 93.2627L97.8152 93.3044ZM96.9884 93.3801L97.877 93.3438L97.87 93.2233L96.9807 93.2596L96.9884 93.3801ZM97.2867 93.9431L97.0433 93.2997L96.9251 93.3391L97.1692 93.9825L97.2867 93.9431ZM97.7511 93.9732C97.758 93.9616 97.7619 93.9447 97.7557 93.9261C97.7503 93.9099 97.7395 93.8999 97.7341 93.8952C97.7232 93.8875 97.7124 93.8852 97.7109 93.8844C97.7039 93.8829 97.6977 93.8821 97.6962 93.8821C97.69 93.8813 97.6831 93.8813 97.6769 93.8813C97.663 93.8813 97.6436 93.8821 97.622 93.8829C97.5772 93.8844 97.5185 93.8867 97.4598 93.8898C97.4003 93.8929 97.3415 93.896 97.2975 93.8983C97.2751 93.8999 97.2565 93.9006 97.2434 93.9014C97.2372 93.9022 97.2318 93.9022 97.2287 93.9022C97.2264 93.9022 97.2256 93.9029 97.2249 93.9029C97.2241 93.9029 97.2241 93.9029 97.2233 93.9029C97.2233 93.9029 97.2233 93.9029 97.228 93.9632C97.2334 94.0234 97.2334 94.0234 97.2334 94.0234C97.2341 94.0234 97.2341 94.0234 97.2349 94.0227C97.2357 94.0227 97.2365 94.0227 97.2388 94.0227C97.2419 94.0227 97.2473 94.0227 97.2535 94.0219C97.2666 94.0211 97.2844 94.0203 97.3068 94.0188C97.3508 94.0165 97.4095 94.0134 97.4683 94.0103C97.527 94.0072 97.5857 94.0049 97.6282 94.0034C97.6498 94.0026 97.6668 94.0018 97.6784 94.0018C97.6815 94.0018 97.6831 94.0018 97.6854 94.0026C97.6861 94.0026 97.6861 94.0026 97.6869 94.0026C97.6869 94.0026 97.6869 94.0026 97.6861 94.0018C97.6854 94.0018 97.683 94.0018 97.68 94.001C97.6792 94.0003 97.6691 93.9979 97.6583 93.9902C97.6521 93.9864 97.6421 93.9763 97.6367 93.9601C97.6305 93.9423 97.6344 93.9253 97.6413 93.9138L97.7511 93.9732ZM98.2216 94.1632C98.1428 94.0281 97.9844 93.8713 97.6923 93.8829L97.7 94.0034C97.9303 93.9941 98.0493 94.113 98.1127 94.2212L98.2216 94.1632ZM98.6527 95.2993L98.2262 94.1725L98.108 94.2119L98.5353 95.3387L98.6527 95.2993ZM98.6682 95.2607C98.6365 95.2576 98.6102 95.2584 98.5909 95.2592L98.5979 95.3797C98.6141 95.3789 98.635 95.3789 98.6597 95.3804L98.6682 95.2607ZM98.6489 95.382L98.6682 95.3812L98.6605 95.26L98.6412 95.2607L98.6489 95.382ZM98.6002 95.3835C98.6172 95.3828 98.6334 95.382 98.6489 95.382L98.6412 95.2607C98.6257 95.2615 98.6087 95.2623 98.5917 95.263L98.6002 95.3835ZM99.2531 96.8827L98.6551 95.304L98.5368 95.3434L99.1349 96.922L99.2531 96.8827ZM99.0314 97.1723C99.1388 97.1676 99.2091 97.1267 99.2423 97.0603C99.2724 97.0008 99.2655 96.9336 99.2554 96.8904L99.1326 96.9143C99.1411 96.9483 99.1411 96.9823 99.1295 97.0062C99.1202 97.0232 99.0986 97.0487 99.0236 97.0518L99.0314 97.1723ZM98.5593 97.1313C98.5616 97.1916 98.5616 97.1916 98.5616 97.1916H98.5624C98.5631 97.1916 98.5654 97.1916 98.567 97.1908C98.5708 97.1908 98.5762 97.1908 98.5824 97.1908C98.5956 97.19 98.6141 97.19 98.6365 97.1893C98.6813 97.1877 98.7416 97.1862 98.8003 97.1839C98.8598 97.1823 98.9193 97.18 98.9634 97.1777C98.985 97.1769 99.0035 97.1754 99.0167 97.1746C99.0229 97.1738 99.0298 97.1738 99.0352 97.1731C99.0368 97.1723 99.0429 97.1715 99.0499 97.1692C99.0522 97.1684 99.0561 97.1669 99.0607 97.1638C99.0638 97.1622 99.0739 97.1561 99.0816 97.1445C99.0909 97.129 99.0947 97.1074 99.0839 97.0866C99.0762 97.0711 99.0638 97.0634 99.0599 97.0611L98.995 97.163C98.9912 97.1607 98.9788 97.153 98.9711 97.1375C98.961 97.1167 98.9641 97.095 98.9742 97.0804C98.9811 97.0688 98.9912 97.0626 98.9943 97.0603C98.9989 97.058 99.002 97.0564 99.0043 97.0564C99.0074 97.0549 99.0105 97.0541 99.0113 97.0541C99.012 97.0533 99.0128 97.0533 99.0128 97.0533C99.0128 97.0533 99.012 97.0533 99.0105 97.0541C99.0089 97.0541 99.0066 97.0541 99.0043 97.0541C98.9935 97.0557 98.9765 97.0564 98.9549 97.0572C98.9116 97.0595 98.8529 97.0618 98.7941 97.0634C98.7346 97.0657 98.6752 97.0672 98.6303 97.0688C98.6079 97.0696 98.5894 97.0696 98.5763 97.0703C98.5701 97.0703 98.5647 97.0703 98.5616 97.0703C98.5593 97.0703 98.5585 97.0703 98.5577 97.0703C98.5569 97.0711 98.5569 97.0711 98.5562 97.0711C98.5562 97.0711 98.5562 97.0711 98.5593 97.1313ZM98.7648 97.845L98.6203 97.1205L98.4974 97.1414L98.6419 97.8658L98.7648 97.845ZM99.5382 97.7608L98.6999 97.7956L98.7068 97.916L99.5459 97.8813L99.5382 97.7608ZM99.8133 97.7515C99.7229 97.7546 99.6309 97.7569 99.5382 97.7608L99.5459 97.8813C99.6379 97.8774 99.7291 97.8751 99.8195 97.872L99.8133 97.7515ZM100.001 97.7454C99.9385 97.7477 99.8759 97.7492 99.8133 97.7515L99.8195 97.872C99.8828 97.8705 99.9454 97.8682 100.008 97.8658L100.001 97.7454ZM100.442 98.7865L100.063 97.7863L99.9454 97.8257L100.325 98.8259L100.442 98.7865ZM101.024 98.7201L100.38 98.7463L100.387 98.8668L101.032 98.8405L101.024 98.7201ZM100.594 97.8095L100.969 98.7996L101.087 98.7602L100.711 97.7701L100.594 97.8095ZM101.165 97.7129C100.999 97.7199 100.828 97.7261 100.65 97.7299L100.655 97.8504C100.834 97.8465 101.006 97.8404 101.173 97.8334L101.165 97.7129ZM101.601 98.7394L101.228 97.7539L101.111 97.7932L101.484 98.7788L101.601 98.7394ZM102.183 98.6722L101.539 98.6984L101.546 98.8189L102.191 98.7927L102.183 98.6722ZM101.75 97.7531L102.128 98.7517L102.246 98.7123L101.868 97.7137L101.75 97.7531ZM103.205 96.4046C103.27 96.637 103.277 96.8232 103.239 96.973C103.201 97.1221 103.119 97.2395 102.996 97.3337C102.746 97.526 102.331 97.6218 101.801 97.6735L101.816 97.7932C102.348 97.7423 102.795 97.6442 103.075 97.4287C103.217 97.319 103.317 97.18 103.361 97.0031C103.405 96.8278 103.395 96.6208 103.327 96.3752L103.205 96.4046ZM101.86 95.2422C102.186 95.297 102.47 95.4036 102.698 95.5867C102.926 95.7689 103.102 96.0308 103.205 96.4046L103.327 96.3752C103.217 95.9806 103.028 95.6956 102.777 95.494C102.528 95.2939 102.22 95.1812 101.879 95.1233L101.86 95.2422ZM101.982 94.1717C102.105 94.4243 102.134 94.6212 102.102 94.7742C102.07 94.9255 101.977 95.0422 101.835 95.1317L101.905 95.2337C102.069 95.1302 102.186 94.9889 102.225 94.8004C102.264 94.6135 102.225 94.3895 102.095 94.1223L101.982 94.1717ZM100.584 97.0379C100.839 97.0302 101.258 97.0178 101.582 96.9143C101.744 96.8633 101.891 96.7861 101.98 96.6679C102.072 96.5451 102.094 96.3884 102.026 96.1953L101.907 96.2323C101.965 96.3953 101.942 96.5104 101.878 96.5961C101.811 96.6849 101.692 96.7514 101.541 96.8C101.237 96.8966 100.837 96.9097 100.578 96.9174L100.584 97.0379ZM100.463 97.0425C100.497 97.0402 100.538 97.0394 100.584 97.0379L100.578 96.9174C100.532 96.919 100.49 96.9197 100.455 96.922L100.463 97.0425ZM99.9122 95.6222L100.4 97L100.518 96.9638L100.031 95.5851L99.9122 95.6222ZM100.118 95.5341C100.06 95.538 100.009 95.5419 99.9678 95.5434L99.9755 95.6639C100.02 95.6624 100.071 95.6585 100.129 95.6546L100.118 95.5341ZM102.026 96.1953C101.886 95.8006 101.528 95.6276 101.155 95.5581C100.781 95.4878 100.377 95.5164 100.118 95.5341L100.129 95.6546C100.39 95.6361 100.778 95.6098 101.132 95.6763C101.486 95.7427 101.789 95.8979 101.907 96.2323L102.026 96.1953ZM101.988 96.271L101.946 96.1566H101.945L101.988 96.271ZM100.705 94.4915C100.758 94.6398 100.741 94.7425 100.691 94.8166C100.638 94.8946 100.544 94.9526 100.42 94.995C100.17 95.08 99.838 95.09 99.6201 95.0962L99.6263 95.2167C99.8396 95.2105 100.193 95.2013 100.464 95.1086C100.6 95.0622 100.723 94.9927 100.797 94.8838C100.872 94.7718 100.886 94.629 100.824 94.4544L100.705 94.4915ZM99.2098 93.9686C99.4285 93.9531 99.7507 93.93 100.047 93.991C100.342 94.0512 100.598 94.1903 100.705 94.4915L100.824 94.4544C100.696 94.096 100.389 93.9377 100.071 93.8728C99.7546 93.808 99.4146 93.8327 99.1983 93.8481L99.2098 93.9686ZM99.08 93.9771C99.1171 93.9755 99.1612 93.9725 99.2098 93.9686L99.1983 93.8481C99.1488 93.852 99.1071 93.8551 99.0723 93.8566L99.08 93.9771ZM99.5792 95.141L99.1357 93.8983L99.0167 93.9354L99.461 95.1781L99.5792 95.141ZM99.6201 95.0962C99.5815 95.097 99.5459 95.0985 99.5158 95.0993L99.5235 95.2198C99.5529 95.219 99.5869 95.2175 99.6263 95.2167L99.6201 95.0962Z" fill="black"/>
<path d="M104.543 103.759L93.4619 97.3623L94.4648 98.8259L103.903 104.276L104.543 103.759Z" fill="#C2C2C2"/>
<path d="M107.676 103.764L106.673 104.571L91.8203 96.0338L92.0537 94.8035L93.7033 95.7442C93.7435 95.7643 93.7821 95.7867 93.82 95.8121C95.6659 96.9189 95.6659 98.0937 97.3943 99.0475C100.065 100.523 104.618 102.172 107.018 103.432C106.992 103.402 106.958 103.379 106.92 103.365L107.153 103.5C107.203 103.531 107.27 103.562 107.319 103.598C107.373 103.622 107.424 103.651 107.473 103.685L107.676 103.764Z" fill="white"/>
<path d="M117.021 159.044V116.693C117.019 115.879 116.804 115.078 116.396 114.373C115.987 113.669 115.401 113.083 114.694 112.676L77.6111 91.267C76.9265 90.8865 76.3192 90.3818 75.8201 89.7788C75.3936 89.298 75.0976 88.7158 74.9609 88.088C74.8241 87.4601 74.8512 86.8076 75.0389 86.1931M117.021 159.044C117.023 159.144 116.998 159.243 116.949 159.331C116.899 159.417 116.825 159.489 116.737 159.537M117.021 159.044H117.082H117.021ZM117.021 159.044L117.082 159.042V159.044M116.737 159.537C116.651 159.587 116.554 159.614 116.454 159.614C116.355 159.614 116.257 159.587 116.172 159.537M116.737 159.537L116.767 159.591C116.767 159.59 116.767 159.59 116.767 159.59M116.737 159.537L116.769 159.589C116.768 159.589 116.768 159.59 116.767 159.59M116.172 159.537L97.6231 148.831C97.6208 148.854 97.6184 148.876 97.6161 148.899M116.172 159.537L116.14 159.589L97.6161 148.899M116.172 159.537L116.141 159.59L116.14 159.589C116.235 159.646 116.344 159.676 116.454 159.676C116.565 159.676 116.673 159.646 116.767 159.59M97.6161 148.899L97.5574 148.865C97.4855 149.531 97.4021 150.198 97.3125 150.864M97.6161 148.899C97.5458 149.543 97.4655 150.188 97.3789 150.832L97.6161 148.899ZM97.3125 150.864L115.211 161.227L97.3125 150.864ZM97.3125 150.864L97.3735 150.873C97.3751 150.859 97.3774 150.846 97.3789 150.832M97.3125 150.864L97.3434 150.811L97.3789 150.832M115.211 161.227C115.587 161.441 116.01 161.556 116.442 161.56L115.211 161.227ZM115.211 161.227L115.242 161.175C115.608 161.383 116.021 161.495 116.442 161.499M115.211 161.227L115.242 161.175L97.3789 150.832M116.442 161.56C116.874 161.559 117.299 161.444 117.673 161.227C117.748 161.184 117.82 161.145 117.889 161.107C118.537 160.75 118.903 160.548 118.903 159.075V116.736C118.907 115.591 118.611 114.465 118.046 113.47C117.481 112.473 116.665 111.643 115.679 111.059L78.5893 89.6557C77.2109 88.8562 76.5711 87.8106 76.8848 86.8143C77.2773 85.9343 77.9897 85.2373 78.8767 84.8635L78.8489 84.8086M116.442 161.56L116.443 161.499C116.442 161.499 116.442 161.499 116.442 161.499M116.442 161.56V161.499V161.56ZM78.8489 84.8086C78.8675 84.8005 78.8868 84.7927 78.9053 84.785L78.0538 83.1179M78.8489 84.8086L78.0252 83.1969L78.8489 84.8086ZM78.8489 84.8086C77.9495 85.1889 77.2271 85.8963 76.8284 86.7892L76.8261 86.7958C76.4992 87.8349 77.1722 88.905 78.5584 89.7089L115.648 111.112L115.679 111.059L115.649 111.112C116.624 111.691 117.432 112.513 117.992 113.5C118.552 114.486 118.845 115.601 118.842 116.736V159.075C118.842 159.887 118.729 160.296 118.532 160.557C118.433 160.688 118.31 160.786 118.162 160.879C118.069 160.937 117.97 160.992 117.861 161.051C117.793 161.09 117.719 161.13 117.642 161.174C117.277 161.385 116.863 161.498 116.442 161.499M78.0538 83.1179C77.3716 83.4031 76.7527 83.8223 76.235 84.3504C75.7173 84.8786 75.3109 85.5052 75.0389 86.1931M78.0538 83.1179L77.999 83.1459L78.0252 83.1969M78.0538 83.1179L78.0778 83.1746C78.06 83.1819 78.0422 83.1894 78.0252 83.1969M75.0389 86.1931L75.0961 86.2156C75.0969 86.2149 75.0969 86.2142 75.0969 86.2134M75.0389 86.1931L75.0976 86.2111C75.0976 86.2119 75.0976 86.2126 75.0969 86.2134M75.0969 86.2134C74.913 86.8171 74.8867 87.4581 75.0211 88.0748C75.1556 88.6924 75.4469 89.2651 75.8664 89.7379L75.868 89.7395C76.3617 90.3367 76.9636 90.8365 77.6405 91.2137H77.642L114.725 112.623M75.0969 86.2134C75.3657 85.534 75.7675 84.9152 76.279 84.3935C76.7774 83.8848 77.3708 83.4784 78.0252 83.1969M114.725 112.623C115.441 113.036 116.035 113.629 116.449 114.342C116.862 115.057 117.081 115.868 117.082 116.693V159.044M116.767 159.59C116.865 159.537 116.947 159.457 117.002 159.361C117.057 159.265 117.085 159.155 117.082 159.044" fill="#BDF651"/>
<path d="M117.021 159.044V116.693C117.019 115.879 116.804 115.078 116.396 114.373C115.987 113.669 115.401 113.083 114.694 112.676M117.021 159.044C117.023 159.144 116.998 159.243 116.949 159.331C116.899 159.417 116.825 159.489 116.737 159.537M117.021 159.044H117.082M117.021 159.044L117.082 159.042V159.044M114.694 112.676L77.6111 91.267C76.9265 90.8865 76.3192 90.3818 75.8201 89.7788C75.3936 89.298 75.0976 88.7158 74.9609 88.088C74.8241 87.4601 74.8512 86.8076 75.0389 86.1931M114.694 112.676L114.725 112.623M75.0389 86.1931C75.3109 85.5052 75.7173 84.8786 76.235 84.3504C76.7527 83.8223 77.3716 83.4031 78.0538 83.1179M75.0389 86.1931L75.0961 86.2156C75.0969 86.2149 75.0969 86.2142 75.0969 86.2134M75.0389 86.1931L75.0976 86.2111C75.0976 86.2119 75.0976 86.2126 75.0969 86.2134M116.737 159.537C116.651 159.587 116.554 159.614 116.454 159.614C116.355 159.614 116.257 159.587 116.172 159.537M116.737 159.537L116.767 159.591C116.767 159.59 116.767 159.59 116.767 159.59M116.737 159.537L116.769 159.589C116.768 159.589 116.768 159.59 116.767 159.59M117.082 159.044V116.693C117.081 115.868 116.862 115.057 116.449 114.342C116.035 113.629 115.441 113.036 114.725 112.623M117.082 159.044C117.085 159.155 117.057 159.265 117.002 159.361C116.947 159.457 116.865 159.537 116.767 159.59M116.172 159.537L97.6231 148.831C97.6208 148.854 97.6184 148.876 97.6161 148.899M116.172 159.537L116.14 159.589M116.172 159.537L116.141 159.59L116.14 159.589M116.767 159.59C116.673 159.646 116.565 159.676 116.454 159.676C116.344 159.676 116.235 159.646 116.14 159.589M97.6161 148.899L116.14 159.589M97.6161 148.899L97.5574 148.865C97.4855 149.531 97.4021 150.198 97.3125 150.864M97.6161 148.899C97.5458 149.543 97.4655 150.188 97.3789 150.832M97.3125 150.864L115.211 161.227M97.3125 150.864L97.3735 150.873C97.3751 150.859 97.3774 150.846 97.3789 150.832M97.3125 150.864L97.3434 150.811L97.3789 150.832M97.3789 150.832L115.242 161.175M115.211 161.227C115.587 161.441 116.01 161.556 116.442 161.56M115.211 161.227L115.242 161.175M116.442 161.56C116.874 161.559 117.299 161.444 117.673 161.227C117.748 161.184 117.82 161.145 117.889 161.107C118.537 160.75 118.903 160.548 118.903 159.075V116.736C118.907 115.591 118.611 114.465 118.046 113.47C117.481 112.473 116.665 111.643 115.679 111.059M116.442 161.56L116.443 161.499C116.442 161.499 116.442 161.499 116.442 161.499M116.442 161.56V161.499M115.242 161.175C115.608 161.383 116.021 161.495 116.442 161.499M116.442 161.499C116.863 161.498 117.277 161.385 117.642 161.174C117.719 161.13 117.793 161.09 117.861 161.051C117.97 160.992 118.069 160.937 118.162 160.879C118.31 160.786 118.433 160.688 118.532 160.557C118.729 160.296 118.842 159.887 118.842 159.075V116.736C118.845 115.601 118.552 114.486 117.992 113.5C117.432 112.513 116.624 111.691 115.649 111.112L115.679 111.059M115.679 111.059L78.5893 89.6557C77.2109 88.8562 76.5711 87.8106 76.8848 86.8143C77.2773 85.9343 77.9897 85.2373 78.8767 84.8635L78.8489 84.8086M115.679 111.059L115.648 111.112L78.5584 89.7089C77.1722 88.905 76.4992 87.8349 76.8261 86.7958L76.8284 86.7892C77.2271 85.8963 77.9495 85.1889 78.8489 84.8086M78.8489 84.8086C78.8675 84.8005 78.8868 84.7927 78.9053 84.785L78.0538 83.1179M78.8489 84.8086L78.0252 83.1969M78.0538 83.1179L77.999 83.1459L78.0252 83.1969M78.0538 83.1179L78.0778 83.1746C78.06 83.1819 78.0422 83.1894 78.0252 83.1969M78.0252 83.1969C77.3708 83.4784 76.7774 83.8848 76.279 84.3935C75.7675 84.9152 75.3657 85.534 75.0969 86.2134M75.0969 86.2134C74.913 86.8171 74.8867 87.4581 75.0211 88.0748C75.1556 88.6924 75.4469 89.2651 75.8664 89.7379L75.868 89.7395C76.3617 90.3367 76.9636 90.8365 77.6405 91.2137H77.642L114.725 112.623" stroke="black" stroke-width="0.159266"/>
<path d="M114.69 112.72L77.6071 91.3102C77.2973 91.1293 77.0037 90.9237 76.7271 90.6954C76.5919 90.5909 76.4628 90.474 76.3392 90.3633C76.3013 90.3338 76.2666 90.3009 76.2349 90.2649C76.0873 90.1173 75.9459 89.9636 75.8161 89.8098C75.2675 89.1616 74.9384 88.3564 74.875 87.5095V135.704C74.943 137.156 75.915 138.558 77.6133 139.541L115.232 161.228C116.512 161.923 117.017 161.031 117.017 160.115V116.736C117.015 115.922 116.8 115.122 116.392 114.417C115.983 113.712 115.397 113.127 114.69 112.72Z" fill="#BDF651"/>
<path d="M115.748 161.309C115.734 161.334 115.722 161.349 115.713 161.359L115.684 161.357C115.52 161.342 115.36 161.289 115.22 161.2L115.218 161.199L77.3178 139.286C75.859 138.443 74.9974 137.267 74.9434 136.053V90.5974L75.0647 90.7254L75.067 90.7282C75.3189 90.9611 75.4626 91.0923 75.6187 91.2111C75.9246 91.4583 76.2499 91.6799 76.5922 91.8746L113.92 113.486C114.513 113.828 115.005 114.321 115.348 114.914C115.691 115.508 115.871 116.18 115.87 116.865V160.723L115.871 160.726C115.881 160.928 115.838 161.129 115.748 161.309Z" fill="#BDF651" stroke="black" stroke-width="0.159266"/>
<g style="mix-blend-mode:multiply">
<path d="M127.847 131.226L123.675 133.612C121.214 135.021 118.42 136.03 115.953 134.602L98.5032 124.51L97.4818 123.925C97.131 123.704 96.7068 123.637 96.4541 124.092C96.4472 124.127 96.4364 124.163 96.4232 124.197C96.3884 124.265 96.3599 124.337 96.3375 124.411C96.2795 124.597 96.2463 124.789 96.2393 124.984V133.828C96.2347 134.578 96.4487 135.313 96.8544 135.943C97.199 136.509 97.6765 136.981 98.2452 137.321L115.965 147.543C116.975 148.115 117.294 148.416 118.181 148.263C118.43 148.218 118.677 148.156 118.919 148.078C120.5 147.592 125.841 142.875 127.268 143.834C127.438 143.948 127.637 144.011 127.84 144.019C128.548 143.961 129.218 143.679 129.754 143.213V130.119L127.847 131.226Z" fill="#D4B798"/>
</g>
<path d="M95.4004 123.311V123.298C95.4004 123.281 95.4012 123.265 95.4012 123.249H95.4375V123.052H95.4197C95.4236 123.026 95.4274 123 95.4328 122.974L95.4491 122.976C95.4614 122.906 95.4769 122.837 95.4962 122.767L95.5186 122.689H95.5086C95.5217 122.64 95.5372 122.592 95.5557 122.545C95.5804 122.525 95.5967 122.502 95.6059 122.477C95.6129 122.457 95.6152 122.438 95.616 122.423C95.7319 122.227 95.8771 122.149 96.0301 122.137C96.1916 122.124 96.3709 122.185 96.5439 122.287L97.5592 122.901L97.56 122.902L115.035 132.989L115.037 132.991C116.398 133.691 117.907 134.057 119.437 134.057C120.968 134.057 122.476 133.691 123.837 132.991L123.839 132.989L130.521 129.151C130.72 129.035 130.914 128.909 131.099 128.772V128.773L131.103 128.77C131.161 128.72 131.216 128.674 131.27 128.63C131.435 128.492 131.578 128.374 131.707 128.238C131.88 128.055 132.031 127.838 132.189 127.496C132.298 127.262 132.375 127.049 132.429 126.87V139.086V139.091C132.441 139.226 132.441 139.361 132.43 139.495C132.311 140.025 132.076 140.522 131.741 140.949C131.405 141.377 130.977 141.724 130.488 141.964L130.485 141.967L123.791 145.835C122.447 146.527 120.955 146.887 119.443 146.887C117.93 146.887 116.439 146.527 115.095 145.835L97.3815 135.576C96.7796 135.229 96.2797 134.729 95.932 134.127C95.5843 133.526 95.4012 132.843 95.4004 132.149V123.637V123.635V123.634V123.633V123.631V123.63V123.628V123.627V123.625V123.624V123.623V123.621V123.62V123.618V123.617V123.615V123.614V123.613V123.611V123.61V123.608V123.607V123.605V123.604V123.602V123.601V123.6V123.598V123.597V123.595V123.593V123.592V123.591V123.59V123.588V123.587V123.585V123.583V123.582V123.58V123.58V123.578V123.576V123.575V123.573V123.572V123.57V123.57V123.568V123.566V123.565V123.563V123.562V123.56V123.559V123.558V123.556V123.555V123.553V123.552V123.55V123.549V123.548V123.546V123.545V123.543V123.542V123.54V123.539V123.538V123.536V123.535V123.533V123.532V123.53V123.529V123.527V123.526V123.525V123.523V123.522V123.52V123.519V123.517V123.516V123.515V123.513V123.512V123.51V123.509V123.507V123.505V123.505V123.503V123.502V123.5V123.498V123.497V123.495V123.495V123.493V123.492V123.49V123.488V123.487V123.485V123.484V123.483V123.481V123.48V123.478V123.477V123.475V123.474V123.473V123.471V123.47V123.468V123.467V123.465V123.464V123.462V123.461V123.46V123.458V123.457V123.455V123.454V123.452V123.451V123.45V123.448V123.447V123.445V123.444V123.442V123.441V123.44V123.438V123.437V123.435V123.434V123.432V123.431V123.43V123.428V123.427V123.425V123.424V123.422V123.42V123.42V123.418V123.417V123.415V123.414V123.412V123.41V123.409V123.408V123.407V123.405V123.403V123.402V123.4V123.399V123.398V123.397V123.395V123.393V123.392V123.39V123.389V123.387V123.386V123.385V123.383V123.382V123.38V123.379V123.377V123.376V123.375V123.373V123.372V123.37V123.369V123.367V123.366V123.365V123.363V123.362V123.36V123.359V123.357V123.356V123.355V123.353V123.352V123.35V123.349V123.347V123.346V123.345V123.343V123.342V123.34V123.339V123.337V123.336V123.334V123.333V123.332V123.33V123.329V123.327V123.325V123.324V123.323V123.322V123.32V123.319V123.317V123.315V123.314V123.312V123.311Z" fill="#BDF651" stroke="black" stroke-width="0.159266"/>
<path fill-rule="evenodd" clip-rule="evenodd" d="M132.51 126.558C132.507 126.444 132.505 126.344 132.507 126.3C132.52 125.553 132.25 124.831 131.75 124.276L131.743 124.281C131.376 123.854 130.937 123.493 130.445 123.218L129.497 122.55V124.288L129.755 124.461C130.094 124.651 130.398 124.896 130.656 125.187L130.649 125.192C130.798 125.347 130.91 125.534 130.975 125.739C131.042 125.944 131.06 126.161 131.03 126.373C130.935 126.695 130.772 126.992 130.553 127.246C130.333 127.499 130.061 127.703 129.757 127.843L123.063 131.706C121.928 132.264 120.681 132.555 119.417 132.555C118.152 132.555 116.905 132.264 115.771 131.706L98.3034 121.588C98.0036 121.413 97.6628 121.321 97.3159 121.321C96.9682 121.321 96.6275 121.413 96.3277 121.588C95.9931 121.777 95.6299 122.239 95.46 122.584C95.7111 122.143 95.9722 122.266 96.3872 122.462L96.3926 122.464L97.3684 123.088L114.962 133.179C116.313 133.875 117.896 134.275 119.417 134.275C120.938 134.275 122.58 133.875 123.931 133.179L130.553 129.421C130.717 129.326 131.186 128.978 131.446 128.786C131.499 128.746 131.543 128.714 131.574 128.691C132.284 128.194 132.412 127.591 132.507 127.019C132.518 126.951 132.514 126.738 132.51 126.558Z" fill="#C7FF5C"/>
<mask id="mask0_48_15168" style="mask-type:luminance" maskUnits="userSpaceOnUse" x="95" y="121" width="38" height="14">
<path fill-rule="evenodd" clip-rule="evenodd" d="M132.51 126.558C132.507 126.444 132.505 126.344 132.507 126.3C132.52 125.553 132.25 124.831 131.75 124.276L131.743 124.281C131.376 123.854 130.937 123.493 130.445 123.218L129.497 122.55V124.288L129.755 124.461C130.094 124.651 130.398 124.896 130.656 125.187L130.649 125.192C130.798 125.347 130.91 125.534 130.975 125.739C131.042 125.944 131.06 126.161 131.03 126.373C130.935 126.695 130.772 126.992 130.553 127.246C130.333 127.499 130.061 127.703 129.757 127.843L123.063 131.706C121.928 132.264 120.681 132.555 119.417 132.555C118.152 132.555 116.905 132.264 115.771 131.706L98.3034 121.588C98.0036 121.413 97.6628 121.321 97.3159 121.321C96.9682 121.321 96.6275 121.413 96.3277 121.588C95.9931 121.777 95.6299 122.239 95.46 122.584C95.7111 122.143 95.9722 122.266 96.3872 122.462L96.3926 122.464L97.3684 123.088L114.962 133.179C116.313 133.875 117.896 134.275 119.417 134.275C120.938 134.275 122.58 133.875 123.931 133.179L130.553 129.421C130.717 129.326 131.186 128.978 131.446 128.786C131.499 128.746 131.543 128.714 131.574 128.691C132.284 128.194 132.412 127.591 132.507 127.019C132.518 126.951 132.514 126.738 132.51 126.558Z" fill="black"/>
</mask>
<g mask="url(#mask0_48_15168)">
<path d="M132.507 126.3L132.631 126.306V126.302L132.507 126.3ZM131.751 124.276L131.842 124.193L131.763 124.105L131.672 124.181L131.751 124.276ZM131.744 124.281L131.65 124.362L131.729 124.454L131.822 124.376L131.744 124.281ZM130.445 123.218L130.374 123.318L130.379 123.322L130.384 123.325L130.445 123.218ZM129.497 122.55L129.567 122.449L129.373 122.313V122.55H129.497ZM129.497 124.288H129.373V124.354L129.428 124.39L129.497 124.288ZM129.756 124.461L129.687 124.563L129.695 124.568L129.756 124.461ZM130.656 125.187L130.735 125.281L130.833 125.2L130.748 125.105L130.656 125.187ZM130.65 125.192L130.571 125.098L130.469 125.182L130.561 125.278L130.65 125.192ZM131.03 126.373L131.149 126.409L131.151 126.399L131.153 126.391L131.03 126.373ZM129.757 127.844L129.705 127.732L129.701 127.734L129.695 127.737L129.757 127.844ZM123.063 131.706L123.117 131.816L123.124 131.812L123.063 131.706ZM115.771 131.706L115.709 131.813L115.717 131.816L115.771 131.706ZM98.3035 121.588L98.2409 121.694L98.2417 121.695L98.3035 121.588ZM96.3278 121.588L96.3888 121.696L96.3904 121.694L96.3278 121.588ZM95.4601 122.584L95.3496 122.53L95.5667 122.645L95.4601 122.584ZM96.3927 122.464L96.4592 122.36L96.4522 122.356L96.4452 122.353L96.3927 122.464ZM97.3686 123.088L97.3021 123.192L97.3068 123.196L97.3686 123.088ZM114.962 133.179L114.9 133.285L114.906 133.289L114.962 133.179ZM123.931 133.179L123.988 133.289L123.992 133.286L123.931 133.179ZM130.553 129.421L130.613 129.529L130.615 129.528L130.553 129.421ZM131.574 128.691L131.504 128.59L131.502 128.592L131.574 128.691ZM132.384 126.293C132.382 126.343 132.384 126.45 132.387 126.561L132.633 126.555C132.631 126.438 132.628 126.344 132.631 126.306L132.384 126.293ZM131.659 124.358C132.138 124.889 132.397 125.582 132.384 126.297L132.631 126.302C132.644 125.524 132.362 124.771 131.842 124.193L131.659 124.358ZM131.822 124.376L131.829 124.37L131.672 124.181L131.665 124.187L131.822 124.376ZM130.384 123.325C130.864 123.593 131.293 123.944 131.65 124.362L131.837 124.202C131.461 123.762 131.01 123.393 130.504 123.111L130.384 123.325ZM129.426 122.651L130.374 123.318L130.515 123.118L129.567 122.449L129.426 122.651ZM129.62 124.288V122.55H129.373V124.288H129.62ZM129.824 124.358L129.565 124.186L129.428 124.39L129.688 124.563L129.824 124.358ZM130.748 125.105C130.482 124.804 130.167 124.55 129.816 124.353L129.695 124.568C130.022 124.751 130.316 124.987 130.564 125.268L130.748 125.105ZM130.728 125.287L130.735 125.281L130.578 125.092L130.571 125.098L130.728 125.287ZM131.093 125.701C131.021 125.479 130.9 125.275 130.738 125.107L130.561 125.278C130.697 125.419 130.798 125.59 130.859 125.777L131.093 125.701ZM131.153 126.391C131.185 126.159 131.165 125.923 131.093 125.701L130.859 125.777C130.919 125.964 130.936 126.161 130.909 126.356L131.153 126.391ZM130.646 127.326C130.877 127.06 131.048 126.747 131.149 126.409L130.913 126.338C130.823 126.643 130.668 126.925 130.459 127.165L130.646 127.326ZM129.808 127.955C130.13 127.807 130.415 127.593 130.646 127.326L130.459 127.165C130.252 127.406 129.994 127.599 129.705 127.732L129.808 127.955ZM123.124 131.812L129.819 127.95L129.695 127.737L123.001 131.599L123.124 131.812ZM119.417 132.678C120.7 132.678 121.966 132.383 123.117 131.816L123.008 131.596C121.891 132.145 120.662 132.432 119.417 132.432V132.678ZM115.717 131.816C116.868 132.383 118.134 132.678 119.417 132.678V132.432C118.172 132.432 116.942 132.145 115.826 131.596L115.717 131.816ZM98.2417 121.695L115.71 131.812L115.833 131.599L98.3645 121.482L98.2417 121.695ZM97.316 121.444C97.6406 121.444 97.9604 121.53 98.2409 121.694L98.3653 121.482C98.047 121.296 97.6846 121.198 97.316 121.198V121.444ZM96.3904 121.694C96.6709 121.53 96.9907 121.444 97.316 121.444V121.198C96.9467 121.198 96.5843 121.296 96.266 121.482L96.3904 121.694ZM95.5706 122.639C95.6502 122.477 95.7777 122.283 95.926 122.107C96.0759 121.93 96.2389 121.78 96.3881 121.696L96.2675 121.481C96.0821 121.585 95.8966 121.761 95.7383 121.948C95.5783 122.137 95.4392 122.348 95.3496 122.53L95.5706 122.639ZM96.4398 122.351C96.3371 122.302 96.2382 122.255 96.1455 122.221C96.0527 122.186 95.9577 122.161 95.8619 122.161C95.7638 122.161 95.6687 122.188 95.5806 122.251C95.4949 122.313 95.4207 122.404 95.3527 122.523L95.5667 122.645C95.6247 122.544 95.6772 122.485 95.7244 122.451C95.7684 122.419 95.8124 122.407 95.8619 122.407C95.9152 122.407 95.9793 122.422 96.0597 122.452C96.1408 122.481 96.2297 122.524 96.3348 122.573L96.4398 122.351ZM96.4452 122.353L96.4398 122.351L96.3348 122.573L96.3402 122.575L96.4452 122.353ZM97.4343 122.985L96.4592 122.36L96.3262 122.568L97.3021 123.192L97.4343 122.985ZM115.023 133.072L97.4296 122.982L97.3068 123.196L114.9 133.285L115.023 133.072ZM119.417 134.151C117.917 134.151 116.354 133.757 115.018 133.07L114.906 133.289C116.274 133.994 117.876 134.398 119.417 134.398V134.151ZM123.876 133.07C122.54 133.757 120.918 134.151 119.417 134.151V134.398C120.957 134.398 122.618 133.994 123.988 133.289L123.876 133.07ZM130.492 129.315L123.871 133.072L123.992 133.286L130.613 129.529L130.492 129.315ZM131.373 128.687C131.108 128.882 130.647 129.224 130.49 129.316L130.615 129.528C130.786 129.428 131.264 129.074 131.52 128.885L131.373 128.687ZM131.502 128.592C131.47 128.615 131.426 128.648 131.373 128.687L131.52 128.885C131.573 128.845 131.617 128.813 131.648 128.79L131.502 128.592ZM132.386 126.999C132.291 127.563 132.17 128.123 131.504 128.59L131.645 128.792C132.396 128.264 132.532 127.618 132.629 127.04L132.386 126.999ZM132.387 126.561C132.389 126.651 132.391 126.748 132.391 126.83C132.392 126.917 132.39 126.977 132.386 126.999L132.629 127.04C132.637 126.992 132.638 126.911 132.638 126.829C132.638 126.744 132.635 126.645 132.633 126.555L132.387 126.561Z" fill="black"/>
</g>
<path d="M103.329 132.549C103.329 134.135 102.253 134.806 100.868 134.043C100.143 133.58 99.5371 132.953 99.0983 132.213C98.6602 131.472 98.4021 130.64 98.3457 129.781C98.3457 128.188 99.4228 127.518 100.807 128.286C101.534 128.747 102.142 129.374 102.581 130.114C103.019 130.855 103.276 131.689 103.329 132.549Z" fill="#1E2510"/>
<path d="M101.547 134.215C101.131 134.469 100.541 134.453 99.8614 134.076C99.1436 133.621 98.544 133.001 98.1121 132.269C97.6794 131.537 97.4268 130.713 97.375 129.865C97.375 129.085 97.64 128.546 98.0565 128.291C98.4729 128.036 99.0633 128.051 99.7432 128.425C100.459 128.882 101.058 129.502 101.49 130.233C101.922 130.965 102.176 131.789 102.23 132.637C102.229 133.42 101.965 133.96 101.547 134.215Z" fill="white" stroke="black" stroke-width="0.159266"/>
<path d="M93.8184 95.7566C93.9165 95.806 94.0517 95.8918 94.2364 96.0092L93.8184 95.7751V95.7566Z" fill="#3C6D19"/>
<path d="M106.345 104.57C106.013 104.379 105.65 104.355 105.213 104.146C104.776 103.936 103.847 103.359 103.847 103.359C101.385 102.282 98.3093 101.07 96.2787 99.9512C94.5062 98.9734 94.5371 97.7554 92.5869 96.6301C93.3194 97.048 103.047 102.473 105.969 104.158C106.517 104.478 106.345 104.57 106.345 104.57Z" fill="black"/>
<path d="M106.448 104.448C104.208 103.156 99.2242 101.403 96.3754 99.8284C94.6029 98.8506 94.6338 97.6334 92.6836 96.5073C93.2986 96.8641 100.381 100.758 104.171 102.941C104.963 103.391 105.724 103.895 106.448 104.448Z" fill="#C2C2C2"/>
<path d="M100.523 129.903C100.407 130.027 100.05 129.872 99.7173 129.559C99.3851 129.245 99.2128 128.895 99.3294 128.772C99.4461 128.649 99.8031 128.809 100.135 129.123C100.468 129.436 100.64 129.787 100.523 129.903Z" fill="#D2D2D2"/>
<path d="M78.3181 83.1301L77.8398 83.3416L78.5151 84.8888C78.8327 84.7302 78.9818 84.6918 79.1549 84.6149L78.3181 83.1301Z" fill="#BDF651"/>
<path d="M57 117.186L57.0008 117.189C57.0417 117.668 57.1785 118.017 57.4412 118.331C57.7024 118.644 58.0864 118.921 58.6149 119.26L58.6164 119.26L67.9757 124.654L69.9916 131.379L70.0086 131.433L70.0518 131.396L74.1663 127.985L87.5534 135.732C87.9761 136.024 88.7086 136.402 89.5399 136.589C90.3721 136.776 91.307 136.773 92.126 136.297C93.751 135.352 94.2261 134.105 94.2586 133.59V133.587C94.2115 128.437 94.1458 117.443 94.2586 114.664C94.3722 111.87 92.7334 110.565 91.8881 110.261C85.808 106.752 65.5402 95.297 62.6466 93.7191L62.6397 93.7168C61.0124 93.2055 59.7321 93.5484 58.7941 94.1864C57.8576 94.8228 57.2635 95.7519 57.0031 96.4153L57 96.4223V96.4292V117.186Z" fill="#FBBB38" stroke="black" stroke-width="0.0972841"/>
<mask id="mask1_48_15168" style="mask-type:alpha" maskUnits="userSpaceOnUse" x="56" y="93" width="39" height="44">
<path d="M57.0381 96.4294V117.186C57.1192 118.131 57.5782 118.551 58.6352 119.228L68.0084 124.629L70.0281 131.368L74.1626 127.939L87.566 135.657C88.4036 136.236 90.4836 137.16 92.0992 136.221C93.7156 135.281 94.1823 134.045 94.2132 133.544C94.1661 128.394 94.2132 117.401 94.2132 114.619C94.2132 112.032 92.8966 110.847 91.8643 110.251C85.7881 106.745 65.5227 95.3303 62.6291 93.7524C59.3962 92.7384 57.555 95.1149 57.0381 96.4294Z" fill="#FBBB38" stroke="black" stroke-width="0.0972841"/>
</mask>
<g mask="url(#mask1_48_15168)">
<path d="M94.6985 110.812L88.7305 113.484V137.75L94.4211 135.648L94.6985 110.812Z" fill="#CC8E0E" stroke="black" stroke-width="0.159266"/>
<path d="M59.1747 96.4293C57.1634 95.528 56.7392 96.8054 56.7786 97.5562L54.1709 107.7L54.7821 126.108C55.4079 127.893 56.6983 131.537 56.8489 131.837C56.9996 132.138 64.71 135.563 68.5471 137.238L88.7429 138.531V113.447C81.8995 109.283 61.1851 97.3314 59.1747 96.4293Z" fill="#FFCC63" stroke="black" stroke-width="0.159266"/>
</g>
<path d="M59.2623 110.907L59.1533 106.624L61.0224 107.672C61.4674 107.921 61.8306 108.268 62.1126 108.711C62.397 109.153 62.5453 109.585 62.5561 110.009C62.57 110.561 62.3313 110.849 61.8406 110.875L62.6535 112.809L61.5849 112.21L60.8849 110.551L60.2173 110.176L60.2497 111.461L59.2623 110.907ZM60.191 109.136L61.0456 109.615C61.1986 109.701 61.3206 109.725 61.4103 109.687C61.5007 109.65 61.5447 109.567 61.5408 109.441C61.5378 109.314 61.4891 109.18 61.394 109.039C61.299 108.897 61.1754 108.783 61.0224 108.697L60.1678 108.218L60.191 109.136ZM63.2276 113.131L63.1186 108.848L66.003 110.465L66.0293 111.506L64.1331 110.442L64.1494 111.085L65.6715 111.938L65.6955 112.856L64.1725 112.003L64.1895 112.646L66.0857 113.708L66.1119 114.749L63.2276 113.131ZM66.4936 112.852C66.4774 112.228 66.6597 111.804 67.0407 111.584C67.4247 111.361 67.9169 111.418 68.5188 111.756C69.1207 112.093 69.6229 112.594 70.0262 113.258C70.4327 113.921 70.6436 114.564 70.6598 115.188C70.6737 115.747 70.5377 116.14 70.2526 116.365C69.9667 116.591 69.5959 116.639 69.14 116.507L69.1701 117.7L68.1556 117.132L68.1255 115.938C67.6627 115.554 67.2786 115.084 66.9734 114.526C66.6675 113.969 66.5075 113.41 66.4936 112.852ZM67.801 112.71C67.614 112.826 67.5259 113.069 67.5352 113.436C67.5444 113.802 67.648 114.152 67.8458 114.484C68.0444 114.817 68.2978 115.07 68.6076 115.244C68.9175 115.417 69.1655 115.446 69.3525 115.329C69.5387 115.213 69.6275 114.971 69.6183 114.604C69.609 114.237 69.5047 113.887 69.3069 113.555C69.1091 113.222 68.8549 112.97 68.5458 112.796C68.236 112.622 67.9872 112.594 67.801 112.71ZM71.2138 115.921L71.1489 113.351L72.1364 113.905L72.2013 116.445C72.2075 116.702 72.2755 116.939 72.4037 117.155C72.532 117.372 72.7027 117.541 72.9168 117.66C73.13 117.78 73.2977 117.802 73.4182 117.724C73.5395 117.647 73.5967 117.48 73.5898 117.223L73.5256 114.684L74.5131 115.238L74.5788 117.808C74.5927 118.363 74.4528 118.723 74.1584 118.888C73.8648 119.053 73.4592 118.99 72.943 118.701C72.4269 118.411 72.0128 118.014 71.7021 117.51C71.3908 117.005 71.2277 116.476 71.2138 115.921ZM75.3282 119.918L75.2193 115.634L78.1037 117.251L78.1299 118.291L76.2338 117.229L76.25 117.871L77.7722 118.725L77.7954 119.642L76.2732 118.789L76.2894 119.431L78.1856 120.495L78.2126 121.535L75.3282 119.918ZM78.5603 120.373L79.5748 120.942C79.6096 121.062 79.6598 121.177 79.7255 121.286C79.88 121.541 80.0917 121.744 80.3622 121.897C80.5515 122.002 80.6913 122.046 80.7817 122.029C80.8729 122.012 80.9169 121.95 80.9138 121.844C80.9131 121.799 80.9015 121.752 80.8791 121.704C80.8597 121.653 80.8273 121.598 80.7802 121.539C80.7361 121.483 80.6929 121.432 80.6496 121.388C80.6063 121.34 80.5437 121.28 80.4611 121.21C80.3815 121.137 80.3158 121.078 80.2617 121.032C80.2076 120.985 80.1288 120.919 80.0245 120.832C79.9248 120.748 79.8476 120.683 79.7935 120.636C79.4527 120.34 79.1784 120.041 78.9706 119.74C78.7666 119.441 78.66 119.115 78.6507 118.765C78.6414 118.393 78.772 118.155 79.0432 118.05C79.3175 117.942 79.6922 118.022 80.1659 118.287C80.7709 118.627 81.2291 119.105 81.5389 119.721C81.6757 119.99 81.7723 120.266 81.8287 120.547L80.8142 119.978C80.791 119.901 80.7539 119.82 80.7021 119.734C80.5854 119.548 80.4147 119.392 80.1906 119.266C80.016 119.169 79.8885 119.127 79.8081 119.142C79.7278 119.153 79.6884 119.202 79.6907 119.288C79.6938 119.402 79.7548 119.526 79.8738 119.662C79.9967 119.795 80.1744 119.957 80.4077 120.148C80.5437 120.261 80.6411 120.343 80.6983 120.396C80.7593 120.446 80.8543 120.531 80.9841 120.652C81.1163 120.771 81.2175 120.869 81.2863 120.948C81.355 121.027 81.4361 121.13 81.5312 121.255C81.6285 121.378 81.7019 121.493 81.7499 121.601C81.8024 121.707 81.8472 121.826 81.8858 121.961C81.9276 122.097 81.9508 122.232 81.9538 122.367C81.9639 122.759 81.8318 123.012 81.5575 123.128C81.2832 123.243 80.893 123.159 80.3876 122.876C79.7533 122.52 79.2596 121.998 78.9049 121.308C78.7535 121.01 78.6383 120.699 78.5603 120.373ZM82.1586 120.551L82.1316 119.511L85.4702 121.383L85.4965 122.423L84.3213 121.764L84.4039 125.008L83.4157 124.453L83.333 121.21L82.1586 120.551Z" fill="#191919"/>
<path d="M28.1978 49.9835C28.9493 49.9835 29.5586 49.3865 29.5586 48.65C29.5586 47.9135 28.9493 47.3164 28.1978 47.3164C27.4462 47.3164 26.8369 47.9135 26.8369 48.65C26.8369 49.3865 27.4462 49.9835 28.1978 49.9835Z" fill="black"/>
<path d="M33.186 49.9835C33.9376 49.9835 34.5469 49.3865 34.5469 48.65C34.5469 47.9135 33.9376 47.3164 33.186 47.3164C32.4345 47.3164 31.8252 47.9135 31.8252 48.65C31.8252 49.3865 32.4345 49.9835 33.186 49.9835Z" fill="black"/>
<path d="M37.7271 49.9835C38.4786 49.9835 39.0879 49.3865 39.0879 48.65C39.0879 47.9135 38.4786 47.3164 37.7271 47.3164C36.9755 47.3164 36.3662 47.9135 36.3662 48.65C36.3662 49.3865 36.9755 49.9835 37.7271 49.9835Z" fill="black"/>
<g filter="url(#filter1_d_48_15168)">
<path d="M258.767 34.2349H128.581C123.175 34.2349 118.792 38.616 118.792 44.0203V56.1864C118.792 61.5907 123.175 65.9718 128.581 65.9718H258.767C264.174 65.9718 268.556 61.5907 268.556 56.1864V44.0203C268.556 38.616 264.174 34.2349 258.767 34.2349Z" fill="url(#paint0_linear_48_15168)"/>
<path d="M144.488 55.1912C143.689 55.1912 142.952 55.0598 142.274 54.797C141.607 54.5242 141.026 54.1452 140.531 53.6601C140.046 53.1648 139.667 52.5837 139.394 51.9167C139.131 51.2396 139 50.5018 139 49.7034C139 48.9151 139.136 48.1874 139.409 47.5204C139.692 46.8534 140.086 46.2722 140.592 45.777C141.097 45.2818 141.688 44.8978 142.365 44.6249C143.053 44.352 143.796 44.2156 144.594 44.2156C145.099 44.2156 145.594 44.2813 146.08 44.4127C146.565 44.544 147.014 44.7411 147.429 45.0039C147.853 45.2565 148.217 45.5648 148.52 45.9286L146.929 47.7326C146.615 47.389 146.261 47.1212 145.867 46.9292C145.483 46.7371 145.054 46.6411 144.579 46.6411C144.175 46.6411 143.79 46.7119 143.427 46.8534C143.073 46.9949 142.765 47.202 142.502 47.4749C142.239 47.7478 142.032 48.0712 141.88 48.4451C141.729 48.8191 141.653 49.2435 141.653 49.7185C141.653 50.1834 141.724 50.6079 141.865 50.992C142.017 51.3659 142.229 51.6893 142.502 51.9622C142.785 52.2249 143.118 52.4271 143.502 52.5686C143.897 52.7101 144.331 52.7808 144.806 52.7808C145.119 52.7808 145.418 52.7404 145.701 52.6595C145.994 52.5686 146.267 52.4422 146.519 52.2805C146.772 52.1188 146.989 51.9369 147.171 51.7348L148.429 53.7359C148.187 54.0087 147.853 54.2563 147.429 54.4787C147.014 54.701 146.55 54.8779 146.034 55.0093C145.529 55.1305 145.013 55.1912 144.488 55.1912Z" fill="black"/>
<path d="M149.757 55.0396V44.4278H154.563C155.25 44.4278 155.866 44.5744 156.412 44.8674C156.958 45.1605 157.387 45.5648 157.701 46.0802C158.024 46.5855 158.186 47.1667 158.186 47.8236C158.186 48.4906 158.024 49.0869 157.701 49.6124C157.387 50.138 156.958 50.5574 156.412 50.8707C155.866 51.1739 155.25 51.3255 154.563 51.3255H152.228V55.0396H149.757ZM155.654 55.0396L152.956 50.234L155.609 49.855L158.61 55.0547L155.654 55.0396ZM152.228 49.3092H154.335C154.598 49.3092 154.825 49.2536 155.017 49.1425C155.22 49.0212 155.371 48.8595 155.472 48.6574C155.583 48.4552 155.639 48.2228 155.639 47.96C155.639 47.6871 155.573 47.4496 155.442 47.2475C155.321 47.0454 155.144 46.8887 154.911 46.7776C154.689 46.6563 154.421 46.5956 154.108 46.5956H152.228V49.3092Z" fill="black"/>
<path d="M160.01 55.0396V44.4278H167.408V46.6411H162.542V52.8263H167.575V55.0396H160.01ZM161.238 50.7039V48.5816H166.741V50.7039H161.238Z" fill="black"/>
<path d="M168.041 55.0396L172.24 44.4278H174.438L178.607 55.0396H176L173.983 49.6579C173.913 49.4457 173.832 49.2183 173.741 48.9757C173.66 48.7332 173.579 48.4805 173.498 48.2177C173.417 47.955 173.342 47.7023 173.271 47.4597C173.2 47.2172 173.139 46.9898 173.089 46.7776L173.529 46.7624C173.468 47.0151 173.402 47.2627 173.332 47.5052C173.261 47.7478 173.185 47.9903 173.104 48.2329C173.023 48.4754 172.937 48.718 172.846 48.9606C172.766 49.193 172.68 49.4356 172.589 49.6882L170.588 55.0396H168.041ZM170.042 53.0082L170.86 51.0374H175.712L176.53 53.0082H170.042Z" fill="black"/>
<path d="M181.058 55.0396V46.7169H177.935V44.4278H186.879V46.7169H183.65V55.0396H181.058Z" fill="black"/>
<path d="M188.267 55.0396V44.4278H195.664V46.6411H190.798V52.8263H195.831V55.0396H188.267ZM189.494 50.7039V48.5816H194.997V50.7039H189.494Z" fill="black"/>
<path d="M202.036 55.0396V44.4278H206.736C207.473 44.4278 208.09 44.5339 208.585 44.7462C209.091 44.9483 209.475 45.2464 209.737 45.6406C210 46.0246 210.131 46.4946 210.131 47.0504C210.131 47.6467 209.98 48.147 209.677 48.5512C209.384 48.9555 208.959 49.2385 208.403 49.4002L208.388 49.0818C208.843 49.193 209.242 49.38 209.586 49.6427C209.939 49.8954 210.212 50.2087 210.404 50.5826C210.596 50.9465 210.692 51.3608 210.692 51.8257C210.692 52.3614 210.596 52.8313 210.404 53.2356C210.222 53.6398 209.96 53.9784 209.616 54.2513C209.283 54.5141 208.883 54.7111 208.418 54.8425C207.964 54.9739 207.458 55.0396 206.902 55.0396H202.036ZM204.492 52.8718H206.796C207.221 52.8718 207.549 52.7707 207.782 52.5686C208.024 52.3664 208.146 52.0784 208.146 51.7045C208.146 51.472 208.085 51.2749 207.964 51.1132C207.852 50.9515 207.691 50.8302 207.479 50.7494C207.266 50.6685 207.014 50.6281 206.721 50.6281H204.492V52.8718ZM204.492 48.6725H206.387C206.65 48.6725 206.872 48.6321 207.054 48.5512C207.236 48.4603 207.372 48.339 207.463 48.1874C207.564 48.0257 207.615 47.8387 207.615 47.6265C207.615 47.3031 207.504 47.0504 207.281 46.8685C207.059 46.6866 206.726 46.5956 206.281 46.5956H204.492V48.6725Z" fill="black"/>
<path d="M216.732 55.1305C215.853 55.1305 215.069 54.9537 214.382 54.6C213.705 54.2361 213.169 53.7409 212.775 53.1143C212.381 52.4776 212.184 51.76 212.184 50.9616V44.4127H214.791V50.8252C214.791 51.2092 214.877 51.5529 215.049 51.8561C215.221 52.1592 215.453 52.4018 215.747 52.5837C216.05 52.7555 216.378 52.8414 216.732 52.8414C217.106 52.8414 217.444 52.7555 217.748 52.5837C218.051 52.4018 218.288 52.1592 218.46 51.8561C218.642 51.5529 218.733 51.2092 218.733 50.8252V44.4127H221.25V50.9616C221.25 51.76 221.052 52.4776 220.658 53.1143C220.274 53.7409 219.744 54.2361 219.067 54.6C218.389 54.9537 217.611 55.1305 216.732 55.1305Z" fill="black"/>
<path d="M225.705 55.0396V46.7169H222.582V44.4278H231.526V46.7169H228.297V55.0396H225.705Z" fill="black"/>
<path d="M232.716 55.0396V52.8566H234.505V46.6108H232.716V44.4278H238.886V46.6108H237.097V52.8566H238.886V55.0396H232.716Z" fill="black"/>
<path d="M240.901 55.0396V44.4278H245.494C246.161 44.4278 246.758 44.5794 247.283 44.8826C247.809 45.1858 248.223 45.6002 248.526 46.1257C248.829 46.6411 248.981 47.2324 248.981 47.8994C248.981 48.5765 248.829 49.188 248.526 49.7337C248.223 50.2794 247.809 50.709 247.283 51.0223C246.758 51.3356 246.161 51.4922 245.494 51.4922H243.493V55.0396H240.901ZM243.463 49.2031H245.146C245.368 49.2031 245.565 49.1526 245.737 49.0515C245.919 48.9403 246.065 48.7887 246.177 48.5967C246.288 48.4047 246.343 48.1874 246.343 47.9449C246.343 47.6922 246.288 47.4749 246.177 47.293C246.065 47.1111 245.919 46.9696 245.737 46.8685C245.565 46.7675 245.368 46.7169 245.146 46.7169H243.463V49.2031Z" fill="black"/>
<path d="M258.768 34.8105H128.582C123.493 34.8105 119.368 38.9339 119.368 44.0204V56.1865C119.368 61.2729 123.493 65.3963 128.582 65.3963H258.768C263.856 65.3963 267.981 61.2729 267.981 56.1865V44.0204C267.981 38.9339 263.856 34.8105 258.768 34.8105Z" stroke="#1B1C17" stroke-width="1.68642"/>
</g>
<path d="M236.484 81.7688C250.546 81.7688 261.944 70.3749 261.944 56.3198C261.944 42.2648 250.546 30.8708 236.484 30.8708C222.423 30.8708 211.024 42.2648 211.024 56.3198C211.024 70.3749 222.423 81.7688 236.484 81.7688Z" fill="#FCCA3E" fill-opacity="0.3"/>
<path d="M236.483 77.1115C247.971 77.1115 257.284 67.8027 257.284 56.3198C257.284 44.8368 247.971 35.5281 236.483 35.5281C224.995 35.5281 215.683 44.8368 215.683 56.3198C215.683 67.8027 224.995 77.1115 236.483 77.1115Z" fill="#FCCA3E" fill-opacity="0.3"/>
<path d="M236.649 73.1195C245.84 73.1195 253.29 65.6725 253.29 56.4861C253.29 47.2998 245.84 39.8528 236.649 39.8528C227.459 39.8528 220.009 47.2998 220.009 56.4861C220.009 65.6725 227.459 73.1195 236.649 73.1195Z" fill="#FCCA3E" fill-opacity="0.3"/>
<path d="M247.177 75.9891L246.81 75.0312L246.124 75.6966L241.625 80.0663C240.339 81.3154 238.405 80.3194 238.287 78.3469L236.964 56.1386C236.842 54.1002 238.751 52.7968 240.165 53.9521L259.004 69.3366C260.279 70.3774 260.165 72.6606 258.795 73.5136L258.122 73.933C257.774 74.1501 257.377 74.2332 256.988 74.1712L251.861 73.3541C251.45 73.2888 251.086 73.6689 251.086 74.1624C251.086 74.2919 251.112 74.4195 251.161 74.5347L255.889 85.5004C256.396 86.6762 256.025 88.119 255.054 88.7553L254.604 89.049C253.561 89.7326 252.249 89.215 251.754 87.9245L247.177 75.9891Z" fill="white" stroke="black" stroke-width="2"/>
<path d="M244.569 77.0717L244.183 76.1856L243.533 76.8146L239.008 81.1876C237.669 82.4822 235.669 81.3462 235.669 79.2916V56.2412C235.669 54.194 237.656 53.0561 238.998 54.3352L255.459 70.0338C256.967 71.4712 256.115 74.3679 254.184 74.3701L249.419 74.3755C249.041 74.3759 248.735 74.7407 248.735 75.1914C248.735 75.3214 248.761 75.4495 248.811 75.5651L253.57 86.55C254.146 87.8797 253.592 89.5079 252.401 89.984L252.181 90.0718C251.224 90.4551 250.176 89.9506 249.711 88.8822L244.569 77.0717Z" fill="white" stroke="black" stroke-width="2"/>
</g>
<defs>
<filter id="filter0_d_48_15168" x="-10.3174" y="16.1091" width="274.209" height="196.181" filterUnits="userSpaceOnUse" color-interpolation-filters="sRGB">
<feFlood flood-opacity="0" result="BackgroundImageFix"/>
<feColorMatrix in="SourceAlpha" type="matrix" values="0 0 0 0 0 0 0 0 0 0 0 0 0 0 0 0 0 0 127 0" result="hardAlpha"/>
<feOffset dy="4"/>
<feGaussianBlur stdDeviation="15"/>
<feComposite in2="hardAlpha" operator="out"/>
<feColorMatrix type="matrix" values="0 0 0 0 0 0 0 0 0 0 0 0 0 0 0 0 0 0 0.08 0"/>
<feBlend mode="normal" in2="BackgroundImageFix" result="effect1_dropShadow_48_15168"/>
<feBlend mode="normal" in="SourceGraphic" in2="effect1_dropShadow_48_15168" result="shape"/>
</filter>
<filter id="filter1_d_48_15168" x="118.525" y="33.9673" width="155.358" height="37.3315" filterUnits="userSpaceOnUse" color-interpolation-filters="sRGB">
<feFlood flood-opacity="0" result="BackgroundImageFix"/>
<feColorMatrix in="SourceAlpha" type="matrix" values="0 0 0 0 0 0 0 0 0 0 0 0 0 0 0 0 0 0 127 0" result="hardAlpha"/>
<feOffset dx="5.05926" dy="5.05926"/>
<feComposite in2="hardAlpha" operator="out"/>
<feColorMatrix type="matrix" values="0 0 0 0 0 0 0 0 0 0 0 0 0 0 0 0 0 0 1 0"/>
<feBlend mode="normal" in2="BackgroundImageFix" result="effect1_dropShadow_48_15168"/>
<feBlend mode="normal" in="SourceGraphic" in2="effect1_dropShadow_48_15168" result="shape"/>
</filter>
<linearGradient id="paint0_linear_48_15168" x1="139.523" y1="38.6112" x2="145.382" y2="75.169" gradientUnits="userSpaceOnUse">
<stop stop-color="#ABE839"/>
<stop offset="1" stop-color="#E0FD79"/>
</linearGradient>
<clipPath id="clip0_48_15168">
<rect width="280" height="204.793" fill="white" transform="translate(0 0.785156)"/>
</clipPath>
</defs>
</svg>
