<svg width="280" height="222" viewBox="0 0 280 222" fill="none" xmlns="http://www.w3.org/2000/svg">
<path d="M222.661 53.4309H41.3391C35.0767 53.4309 30 57.9365 30 63.4944V199.367C30 204.925 35.0767 209.431 41.3391 209.431H222.661C228.923 209.431 234 204.925 234 199.367V63.4944C234 57.9365 228.923 53.4309 222.661 53.4309Z" fill="#F6F7F2"/>
<g clip-path="url(#clip0_48_15290)">
<path d="M96.4806 65.7183L135.352 86.0824L94.8828 66.1764L96.4806 65.7183Z" fill="#CDF160"/>
<path d="M78.1326 85.9429L117.812 106.422L77.8633 87.074L78.1326 85.9429Z" fill="#CDF160"/>
<path d="M84.9004 79.002L125.887 100.848L85.4174 80.9421L84.9004 79.002Z" fill="#CDF160"/>
<path d="M83.5938 76.2136L114.781 92.787L85.0587 78.2934L83.5938 76.2136Z" fill="#CDF160"/>
<path d="M84.9904 75.6479L100.455 83.5588L84.6816 75.8699L84.9904 75.6479Z" fill="#CDF160"/>
<path d="M79.3928 80.0688L94.8573 87.9797L79.084 80.2908L79.3928 80.0688Z" fill="#CDF160"/>
<path d="M93.7478 67.082L125.75 83.6554L93.1123 67.5438L93.7478 67.082Z" fill="#CDF160"/>
<path d="M56.0938 63.5205C56.4851 63.5849 84.5166 68.0701 96.4803 65.7184L85.2814 72.6949L59.0272 64.444C57.9249 64.0682 56.9303 63.7532 56.0938 63.5241V63.5205Z" fill="#94CB2E"/>
<path d="M96.4803 65.7184C84.5166 68.0701 56.4851 63.5849 56.0938 63.5205L96.4803 65.7184Z" fill="#AAE738"/>
<path d="M85.4178 80.9423L80.391 77.957L56.0938 63.5242C56.0938 63.5242 56.0938 63.5242 56.0973 63.5242C56.5964 63.7604 77.8705 73.8011 85.4178 80.9423Z" fill="#AAE738"/>
<path d="M80.3946 77.957L80.3336 78.0536L79.7447 80.2014L56.0938 63.5242L80.3946 77.957Z" fill="#80AE29"/>
<path d="M59.0273 64.4441L85.2851 72.6914L85.3246 75.079C83.2851 74.1877 67.7093 67.4008 59.0273 64.4441Z" fill="#AAE738"/>
<path d="M56.0977 63.5242C56.5608 63.7067 75.4974 71.2167 85.3571 77.1802L85.4181 80.9423C77.8708 73.8011 56.5967 63.7604 56.0977 63.5242Z" fill="#AAE738"/>
<path d="M85.3568 77.1802C75.4971 71.2167 56.5605 63.7067 56.0973 63.5242H56.0938L59.0272 64.4441C67.7056 67.4008 83.285 74.1877 85.3245 75.079L85.3604 77.1802H85.3568Z" fill="#80AE29"/>
<path d="M77.8597 87.0705C77.7628 86.9023 71.5583 76.0097 56.0938 63.5242L79.7447 80.2014L77.8597 87.0741V87.0705Z" fill="#94CB2E"/>
<path d="M77.8594 87.0705L56.0898 63.5205C71.5615 76.0096 77.766 86.9022 77.8594 87.0705Z" fill="#AAE738"/>
<path d="M143.322 82.5818L174 99.6599L142.108 82.9899L143.322 82.5818Z" fill="#FFE3A3"/>
<path d="M133.405 99.6992L166.984 118.431L134.026 101.965L133.405 99.6992Z" fill="#FFE3A3"/>
<path d="M137.814 93.6641L171.469 112.604L138.906 96.1733L137.814 93.6641Z" fill="#FFE3A3"/>
<path d="M136.292 90.575L168.427 108.594L136.54 91.9244L136.292 90.575Z" fill="#FFE3A3"/>
<path d="M141.355 83.72L164.015 96.1303L140.461 84.0207L141.355 83.72Z" fill="#FFE3A3"/>
<path d="M136.993 86.7771L159.38 99.1588L136.109 87.0706L136.993 86.7771Z" fill="#FFE3A3"/>
<path d="M134.156 97.7305L158.062 111.247L133.761 98.8831L134.156 97.7305Z" fill="#FFE3A3"/>
<path d="M143.322 82.5818L136.317 86.258L117.771 81.2788C128.823 83.9706 143.322 82.5818 143.322 82.5818Z" fill="#FFBF00"/>
<path d="M116.041 80.8135L143.326 82.5818C143.326 82.5818 128.831 83.9742 117.775 81.2788L116.041 80.8135Z" fill="#FFB000"/>
<path d="M138.005 93.1165L138.906 96.1735L135.391 91.8386L138.005 93.1165Z" fill="#974F00"/>
<path d="M135.391 91.8385L138.906 96.1733L134.507 93.2023H134.504L134.626 90.9006L135.391 91.8385Z" fill="#CB7600"/>
<path d="M116.041 80.8135L136.353 87.5001C136.353 87.5001 131.664 88.8854 116.041 80.8135Z" fill="#E88D00"/>
<path d="M116.041 80.8135C116.156 80.9065 130.726 92.873 134.026 101.962L116.041 80.8135Z" fill="#FFB000"/>
<path d="M134.626 90.9006L123.632 84.937C125.072 85.6637 137.046 91.6666 137.226 90.4889L138.001 93.1199L135.387 91.8456L134.623 90.9041L134.626 90.9006Z" fill="#B06100"/>
<path d="M123.635 84.9336L116.041 80.8135C131.664 88.8854 136.353 87.5001 136.353 87.5001L137.232 90.4855C137.053 91.6631 125.078 85.6602 123.639 84.9336H123.635Z" fill="#CB7600"/>
<path d="M133.649 91.7168L116.041 80.8135L123.635 84.9336L134.626 90.9007L134.504 93.2023L134.026 101.965L133.649 91.7168Z" fill="#FFD35B"/>
<path d="M134.026 101.965C130.726 92.8767 116.156 80.9102 116.041 80.8171L133.649 91.7205L134.026 101.969V101.965Z" fill="#FFBF00"/>
<path d="M136.353 87.5001L116.041 80.8135C116.608 80.9817 117.186 81.1356 117.775 81.2788L136.32 86.258L143.326 82.5818L136.353 87.5001Z" fill="#FFD35B"/>
</g>
<g clip-path="url(#clip1_48_15290)">
<path d="M9.33521 93.6727C9.09023 95.2522 9.29261 96.837 9.93167 98.4325C7.71092 84.6708 30.8078 93.9075 37.0813 96.4475C55.2999 103.817 109.871 126.159 109.871 126.159L117.907 125.833L39.0144 93.0378C39.0144 93.0378 13.5637 81.5012 9.33521 93.6727Z" fill="#BDD3DD"/>
<path d="M9.46375 93.0004C9.4105 93.2245 9.36789 93.4486 9.33594 93.6727C13.5697 81.5066 39.0205 93.0378 39.0205 93.0378L117.913 125.828L127.776 125.433L127.787 125.422L74.7016 102.386C74.7016 102.386 39.388 87.0294 23.0439 85.4819C19.987 85.9408 10.6886 87.7658 9.46375 93.0004Z" fill="#D7E8EF"/>
<path d="M37.0817 96.4422C30.8082 93.9022 7.71134 84.6655 9.93209 98.4272C11.7374 102.947 17.0683 107.525 25.7756 112.199C28.6247 113.731 31.7455 115.214 35.3136 116.762L35.3296 116.73C35.3296 116.73 13.7611 106.421 14.2884 99.409C14.8156 92.4028 41.1025 101.997 41.1025 101.997L108.412 126.751C108.38 126.826 108.348 126.895 108.321 126.964C108.843 126.18 109.866 126.148 109.866 126.148C109.866 126.148 55.295 103.806 37.0764 96.4368L37.0817 96.4422Z" fill="#9EB7C7"/>
<path d="M24.0127 85.3539C24.0127 85.3539 29.3595 84.959 36.533 85.7168L37.9656 81.4693C34.7596 81.1811 31.5537 81.2505 28.9228 82.0135C27.192 82.8566 25.5411 83.9559 24.0127 85.3486V85.3539Z" fill="#5C801A"/>
<path d="M30.5262 139.093C30.5262 139.093 30.244 139.162 30.2227 139.328C30.3611 139.808 31.0002 139.813 31.2878 139.787C33.7215 139.584 40.7086 138.437 41.4436 138.319C41.5927 137.807 41.7844 137.311 42.024 136.841L30.5315 139.093H30.5262Z" fill="#D7E8EF"/>
<path d="M31.2819 139.787C30.9943 139.813 30.3606 139.808 30.2168 139.328C30.2008 139.429 30.2807 139.568 30.5683 139.744C31.4789 140.31 34.2376 141.601 34.2376 141.601L41.0969 141.564H41.1341C41.0862 141.078 41.0809 140.587 41.1182 140.086C41.1661 139.477 41.2726 138.89 41.4377 138.319C40.7028 138.437 33.7157 139.584 31.2819 139.787Z" fill="#9EB7C7"/>
<path d="M37.9658 81.4692L36.5332 85.7167C36.9379 85.7594 37.3427 85.8021 37.7528 85.8555L39.1906 81.5973C38.7806 81.5493 38.3705 81.5066 37.9604 81.4746L37.9658 81.4692Z" fill="#EDF4F6"/>
<path d="M39.1957 81.5974L37.7578 85.8556C40.4046 86.1757 43.2697 86.656 46.1722 87.371L45.6822 82.7126C43.7011 82.2698 41.4697 81.8589 39.1957 81.5974Z" fill="#5C801A"/>
<path d="M42.3755 137.951C42.1252 138.624 41.9601 139.339 41.9069 140.086C41.8004 141.505 42.0826 142.828 42.6684 143.949C44.5111 146.419 44.804 143.896 44.8466 143.154C44.7507 142.172 44.8359 141.062 45.2353 139.877H45.2247C45.2247 139.877 44.4951 141.489 43.2276 141.222C42.1305 140.993 42.3063 138.602 42.3808 137.951H42.3755Z" fill="#A0B8C2"/>
<path d="M42.668 143.944C43.4775 145.491 44.8621 146.633 46.5822 147.07C45.9751 146.58 45.0378 145.123 44.8461 143.148C44.8035 143.89 44.5106 146.414 42.668 143.944Z" fill="#ADC5CD"/>
<path d="M45.2248 139.867H45.2354C45.2993 139.68 45.3739 139.488 45.4538 139.291C45.5549 139.04 45.6721 138.789 45.8052 138.538C47.2112 135.865 49.6343 134.867 51.3331 134.499C50.9976 134.307 48.2923 132.818 46.0662 133.688C44.4099 134.574 43.0573 136.1 42.3756 137.946C42.3064 138.597 42.1253 140.987 43.2224 141.217C44.4952 141.484 45.2194 139.867 45.2194 139.867H45.2248Z" fill="#8CAAB8"/>
<path d="M45.4742 141.756C45.3676 140.523 45.4369 139.477 45.4529 139.296C45.3676 139.493 45.2984 139.685 45.2345 139.872C44.8351 141.057 44.7446 142.167 44.8457 143.149C45.0375 145.123 45.9748 146.58 46.5819 147.071C46.8268 147.135 47.0771 147.183 47.3381 147.209C46.6032 146.516 45.3996 144.296 45.4742 141.75V141.756Z" fill="#9DD600"/>
<path d="M45.475 141.756C45.4004 144.306 46.5987 146.526 47.3389 147.214C47.765 147.268 48.207 147.279 48.6597 147.241C52.7444 146.921 55.8279 143.068 55.5509 138.965C55.4338 137.231 54.7308 135.747 53.6657 134.675C54.0491 135.315 57.6279 141.734 50.3958 145.646C46.6466 147.673 45.688 144.317 45.475 141.75V141.756Z" fill="#DFFF67"/>
<path d="M42.1406 144.707C42.8862 146.265 44.404 147.737 46.3425 149.018C47.1733 149.285 48.2703 149.461 49.4632 149.429C48.5313 148.986 47.5674 148.49 46.5715 147.935C44.6649 147.524 43.0992 146.339 42.1406 144.701V144.707Z" fill="#537C84"/>
<path d="M46.4226 138.373C45.7782 139.499 45.5066 140.657 45.4746 141.756C45.6876 144.317 46.6462 147.674 50.3954 145.651C57.6328 141.74 54.0487 135.321 53.6653 134.68C53.6493 134.664 53.6333 134.643 53.612 134.627C53.2605 134.627 48.5048 134.734 46.4172 138.373H46.4226ZM50.012 142.989C48.6486 142.471 47.6208 140.619 47.9829 139.792C48.3664 138.922 50.1717 138.031 51.5564 138.352C51.5564 138.352 53.0102 137.914 53.4256 139.867C53.841 141.82 52.4511 142.946 51.6256 143.234C50.8268 143.511 50.2782 143.223 50.012 142.989Z" fill="#9DD600"/>
<path d="M56.0355 137.119C55.0769 133.864 52.0999 131.772 48.7395 132.055C48.6277 132.065 48.5105 132.076 48.3987 132.092C45.6986 132.45 43.2755 134.301 42.0133 136.836C41.779 137.305 41.582 137.802 41.4329 138.314C41.2678 138.88 41.1613 139.472 41.1133 140.08C41.0761 140.582 41.0814 141.078 41.1293 141.553C41.2411 142.7 41.5926 143.767 42.1305 144.691C42.1305 144.691 42.1305 144.696 42.1358 144.701C43.0998 146.334 44.6601 147.524 46.5667 147.935C47.2217 148.079 47.9194 148.127 48.649 148.068C49.9804 147.967 51.2159 147.524 52.2863 146.841C54.8905 145.181 56.5521 142.081 56.3337 138.837C56.2911 138.234 56.1899 137.658 56.0302 137.113L56.0355 137.119ZM46.0661 133.688C46.8969 133.245 47.8022 132.962 48.7395 132.882C50.433 132.738 52.02 133.271 53.2396 134.28C53.3727 134.387 53.4952 134.504 53.6177 134.621C53.6283 134.621 53.639 134.621 53.639 134.621C53.639 134.621 53.6496 134.637 53.6709 134.675C54.7361 135.747 55.439 137.231 55.5562 138.965C55.8278 143.068 52.7496 146.921 48.6649 147.241C48.2123 147.279 47.7703 147.268 47.3442 147.214C47.0833 147.182 46.833 147.134 46.588 147.076C44.8732 146.644 43.4832 145.496 42.6737 143.949C42.0879 142.828 41.8057 141.505 41.9122 140.086C41.9707 139.344 42.1305 138.629 42.3808 137.951C43.0678 136.105 44.4152 134.573 46.0714 133.693L46.0661 133.688Z" fill="#D7E8EF"/>
<path d="M46.0659 133.688C48.2919 132.818 50.9973 134.307 51.3328 134.499C51.8228 134.392 52.2542 134.339 52.579 134.307V134.296C52.579 134.296 50.5447 132.775 48.734 132.882C47.7967 132.962 46.8913 133.245 46.0605 133.688H46.0659Z" fill="#7A99A6"/>
<path d="M48.6536 148.068C47.924 148.127 47.2317 148.074 46.5713 147.935C47.5672 148.49 48.5311 148.986 49.4631 149.429C51.0927 149.392 52.9087 148.97 54.4797 147.86C53.7661 147.561 53.0365 147.225 52.2909 146.846C51.2152 147.535 49.9796 147.972 48.6536 148.074V148.068Z" fill="#6B8E9A"/>
<path d="M50.0115 142.989C50.5068 143.175 51.0446 143.191 51.5772 142.914C53.7181 141.809 53.0044 139.648 53.0044 139.648C52.8234 139.157 52.5358 138.821 52.1843 138.602C52.4453 139.189 53.095 141.03 51.3802 141.756C49.3245 142.62 47.8973 140.721 47.9825 139.792C47.6203 140.625 48.6482 142.471 50.0115 142.989Z" fill="#8CAAB8"/>
<path d="M51.791 139.088C51.1625 137.642 48.3027 139.835 48.3027 139.835C48.3027 139.835 49.8471 140.176 50.5128 140.368C51.1785 140.561 52.3981 140.481 51.791 139.088Z" fill="#E5EEEF"/>
<path d="M68.7099 151.51C69.7005 150.731 70.2756 149.925 70.5685 149.424C69.5727 149.755 63.2725 151.558 54.4854 147.855C52.9144 148.97 51.0984 149.392 49.4688 149.424C59.1719 154.039 65.4454 152.999 66.6436 152.732C66.8513 152.641 67.0537 152.545 67.2454 152.449C67.8152 152.156 68.2999 151.836 68.7152 151.505L68.7099 151.51Z" fill="#A0BBC7"/>
<path d="M45.6826 82.7126L46.1726 87.371C46.5187 87.4564 46.8596 87.5471 47.2057 87.6378L46.7158 82.9528C46.3803 82.8727 46.0341 82.798 45.6826 82.7126Z" fill="#EDF4F6"/>
<path d="M48.7387 132.055C52.0992 131.767 55.0761 133.858 56.0347 137.119C56.8016 137.295 57.5365 137.476 58.2288 137.663C57.3075 133.666 53.3187 132.332 51.8329 131.969C49.7399 131.783 48.5417 132.012 48.3926 132.044V132.098C48.5097 132.081 48.6269 132.071 48.7387 132.06V132.055Z" fill="#A0BBC7"/>
<path d="M46.7158 82.9473L47.2058 87.6323C49.6608 88.278 52.1372 89.0997 54.539 90.1349C54.8799 90.279 55.226 89.9321 55.0769 89.596L53.229 85.3858C53.0319 84.9429 52.6591 84.6068 52.2011 84.4627C51.1893 84.1425 49.2028 83.5449 46.7158 82.9526V82.9473Z" fill="#5C801A"/>
<path d="M48.7393 132.882C50.5499 132.775 52.5843 134.296 52.5843 134.296V134.307C52.9411 134.275 53.1808 134.28 53.2393 134.28C52.0198 133.271 50.4381 132.738 48.7393 132.882Z" fill="#5F838F"/>
<path d="M51.5566 138.346C50.1719 138.031 48.3666 138.917 47.9831 139.787C47.8979 140.715 49.3252 142.615 51.3808 141.75C53.0956 141.025 52.4459 139.184 52.185 138.597C51.9932 138.479 51.7802 138.394 51.5512 138.341L51.5566 138.346ZM48.308 139.835C48.308 139.835 51.1678 137.642 51.7962 139.088C52.4033 140.48 51.1838 140.56 50.5181 140.368C49.8524 140.176 48.308 139.835 48.308 139.835Z" fill="#C2D6DB"/>
<path d="M51.5567 138.346C51.7803 138.399 51.9934 138.48 52.1904 138.602C52.5419 138.821 52.8348 139.157 53.0105 139.648C53.0105 139.648 53.7188 141.809 51.5833 142.914C51.0507 143.191 50.5129 143.175 50.0176 142.988C50.2839 143.223 50.8324 143.511 51.6312 143.234C52.4567 142.946 53.8413 141.82 53.4313 139.867C53.0212 137.914 51.562 138.346 51.562 138.346H51.5567Z" fill="#5C801A"/>
<path d="M51.3378 134.499C49.639 134.867 47.2159 135.865 45.8099 138.538C45.6768 138.789 45.5596 139.04 45.4584 139.291C45.4425 139.472 45.3786 140.518 45.4797 141.75C45.5117 140.651 45.778 139.493 46.4277 138.367C48.5153 134.728 53.271 134.627 53.6225 134.622C53.5 134.499 53.3722 134.387 53.2444 134.28C53.1858 134.28 52.9515 134.28 52.5893 134.307C52.2645 134.333 51.8331 134.387 51.3432 134.499H51.3378Z" fill="#9DD600"/>
<path d="M56.3443 138.842C56.5626 142.081 54.9011 145.182 52.2969 146.846C53.0425 147.225 53.772 147.562 54.4857 147.86C55.7638 146.953 56.8822 145.587 57.6064 143.597C58.4905 141.158 58.5917 139.211 58.2348 137.663C57.5425 137.476 56.8076 137.295 56.0407 137.119C56.2058 137.663 56.307 138.239 56.3443 138.842Z" fill="#8CAAB8"/>
<path d="M54.917 132.775C55.2259 132.877 57.5744 133.757 58.9697 137.183C58.9697 137.183 66.745 138.261 70.8457 143.394C70.8457 143.394 69.738 139.285 64.0929 136.569C58.4851 133.869 56.6904 133.33 54.917 132.775Z" fill="#E5EEEF"/>
<path d="M71.2288 147.759C71.3513 147.284 71.4525 146.713 71.4845 146.073C71.4951 145.886 71.5004 145.699 71.4951 145.502C71.0584 144.419 68.7951 140.486 58.2345 137.663C58.5913 139.211 58.4902 141.153 57.6061 143.597C56.8872 145.587 55.7688 146.953 54.4854 147.86C63.2725 151.558 69.5726 149.755 70.5685 149.429C70.7495 149.12 70.8241 148.927 70.8241 148.927C70.9359 148.677 71.0904 148.276 71.2235 147.764L71.2288 147.759Z" fill="#ACC5CF"/>
<path d="M64.3483 134.835L75.7876 133.133L77.7527 132.839L77.7953 132.717C76.0911 132.103 74.4349 131.511 72.8266 130.929L72.7786 131.068L58.8524 133.592L58.8311 133.65C59.9015 134.056 61.0412 134.541 62.25 135.139L64.343 134.83L64.3483 134.835Z" fill="#D7E8EF"/>
<path d="M64.3488 134.835L62.2559 135.144C63.4062 135.715 64.6204 136.377 65.8932 137.156C68.4814 138.741 69.9406 140.486 70.7128 142.151H72.3265C71.975 139.173 65.2648 135.347 64.3435 134.835H64.3488Z" fill="#7E9DAB"/>
<path d="M66.6384 152.737C65.4402 153.004 59.1667 154.045 49.4635 149.429C48.2653 149.461 47.1736 149.28 46.3428 149.018C50.7683 151.942 57.4039 153.89 62.1756 153.692C64.0023 153.612 65.4721 153.244 66.6384 152.743V152.737Z" fill="#6B8E9A"/>
<path d="M75.7879 133.133L64.3486 134.835C65.27 135.347 71.9801 139.168 72.3316 142.14L99.5345 142.033L75.8092 133.224L75.7985 133.138L75.7879 133.133Z" fill="#9EB7C7"/>
<path d="M67.2402 152.455L67.2882 152.545C67.2882 152.545 67.7781 152.62 68.513 152.7C69.0349 152.396 69.4716 152.065 69.8497 151.729C69.4929 151.665 69.1095 151.595 68.7101 151.515C68.2947 151.841 67.8101 152.166 67.2402 152.46V152.455Z" fill="#9DD600"/>
<path d="M70.5686 149.424C70.2757 149.925 69.6952 150.736 68.71 151.51C69.1147 151.595 69.4928 151.665 69.8496 151.723C71.2183 150.496 71.7242 149.135 71.884 148.09C71.6763 147.972 71.4579 147.86 71.2289 147.753C71.0958 148.271 70.9414 148.666 70.8295 148.917C70.8295 148.917 70.755 149.109 70.5739 149.418L70.5686 149.424Z" fill="#9DD600"/>
<path d="M69.8494 151.729C69.4713 152.065 69.0293 152.391 68.5127 152.7C70.6163 152.919 74.7489 153.143 75.356 151.633C75.356 151.633 73.9288 152.401 69.8494 151.729Z" fill="#9DD600"/>
<path d="M54.917 132.775C56.6904 133.33 58.4851 133.869 64.0929 136.569C69.738 139.285 70.8457 143.394 70.8457 143.394C66.745 138.261 58.9698 137.183 58.9698 137.183C57.5745 133.757 55.2259 132.877 54.917 132.775ZM71.4954 145.496C71.4795 144.488 71.2718 143.341 70.7179 142.145C69.9457 140.486 68.4865 138.736 65.8983 137.151C64.6255 136.372 63.4113 135.71 62.2609 135.139C61.052 134.541 59.9124 134.051 58.8419 133.65C55.9502 132.562 53.5856 132.119 51.8389 131.964C53.3247 132.327 57.3135 133.656 58.2348 137.658C68.8007 140.475 71.0641 144.408 71.4954 145.496Z" fill="#C2D6DB"/>
<path d="M71.8836 146.393C71.7025 146.249 71.5694 146.137 71.4841 146.073C71.4522 146.713 71.351 147.289 71.2285 147.759C71.4575 147.866 71.6759 147.978 71.8836 148.095C72.0167 147.225 71.9155 146.574 71.8836 146.393Z" fill="#9DD600"/>
<path d="M71.884 148.09C71.7242 149.135 71.2236 150.501 69.8496 151.723C73.9343 152.396 75.3562 151.627 75.3562 151.627C75.3562 151.627 74.4935 149.536 71.884 148.09Z" fill="#9DD600"/>
<path d="M71.634 92.5042C71.1653 92.2695 70.6275 92.6483 70.686 93.1659L70.8778 94.8574C70.9044 95.0922 71.0535 95.2896 71.2665 95.3857L71.6766 95.5671C72.1452 95.7699 72.6565 95.3857 72.5873 94.8788L72.3689 93.1979C72.337 92.9791 72.2038 92.7924 72.0068 92.691L71.6233 92.4989L71.634 92.5042Z" fill="#9DD600"/>
<path d="M75.356 151.633C76.0111 150 73.0767 147.375 71.8838 146.393C71.9157 146.569 72.0169 147.225 71.8838 148.095C74.4933 149.546 75.356 151.633 75.356 151.633Z" fill="#9DD600"/>
<path d="M77.7581 132.839L75.793 133.133L75.8036 133.218L99.5289 142.028L104.205 142.012C93.6708 138.522 86.5133 135.859 86.5133 135.859L86.279 135.774C83.318 134.707 80.4954 133.688 77.8007 132.717L77.7581 132.839Z" fill="#7E9DAB"/>
<path d="M75.83 94.4519C75.3667 94.2225 74.8395 94.596 74.898 95.1082L75.0898 96.7784C75.1164 97.0079 75.2655 97.2053 75.4732 97.3014L75.8779 97.4774C76.3413 97.6802 76.8472 97.3014 76.7779 96.7998L76.5649 95.1403C76.5383 94.9268 76.4052 94.7401 76.2081 94.6387L75.83 94.4519Z" fill="#9DD600"/>
<path d="M80.0264 96.4048C79.5737 96.1806 79.0465 96.5488 79.1051 97.0504L79.2915 98.6993C79.3181 98.9287 79.4619 99.1261 79.6749 99.2168L80.0743 99.3929C80.5323 99.5904 81.0276 99.2168 80.9637 98.7206L80.7507 97.0824C80.724 96.869 80.5909 96.6822 80.3992 96.5862L80.0211 96.3994L80.0264 96.4048Z" fill="#9DD600"/>
<path d="M84.2228 98.3524C83.7755 98.1283 83.2536 98.4911 83.3121 98.9927L83.4985 100.62C83.5252 100.844 83.669 101.042 83.8767 101.132L84.2707 101.303C84.7181 101.501 85.2134 101.127 85.1495 100.642L84.9418 99.0247C84.9151 98.8166 84.782 98.6352 84.5956 98.5391L84.2228 98.3577V98.3524Z" fill="#9DD600"/>
<path d="M88.4195 100.3C87.9775 100.081 87.4662 100.439 87.5195 100.93L87.7005 102.536C87.7272 102.76 87.8656 102.952 88.0733 103.037L88.4621 103.208C88.9041 103.4 89.394 103.037 89.3301 102.552L89.1224 100.956C89.0958 100.748 88.968 100.567 88.7816 100.476L88.4141 100.295L88.4195 100.3Z" fill="#9DD600"/>
<path d="M92.611 102.253C92.1743 102.034 91.6684 102.386 91.7216 102.877L91.9027 104.468C91.9293 104.686 92.0678 104.873 92.2702 104.964L92.6536 105.129C93.0956 105.321 93.5749 104.958 93.511 104.484L93.3087 102.904C93.282 102.701 93.1542 102.52 92.9731 102.429L92.611 102.253Z" fill="#9DD600"/>
<path d="M96.807 104.201C96.3757 103.987 95.8804 104.334 95.9336 104.814L96.1147 106.383C96.136 106.602 96.2745 106.783 96.4768 106.874L96.855 107.04C97.2916 107.226 97.7656 106.869 97.7017 106.405L97.4993 104.852C97.4727 104.649 97.3502 104.473 97.1692 104.382L96.8123 104.206L96.807 104.201Z" fill="#9DD600"/>
<path d="M101.004 106.148C100.578 105.935 100.088 106.282 100.142 106.751L100.317 108.299C100.339 108.512 100.477 108.694 100.674 108.784L101.047 108.95C101.473 109.137 101.942 108.784 101.883 108.32L101.686 106.783C101.659 106.586 101.537 106.41 101.356 106.319L101.004 106.143V106.148Z" fill="#9DD600"/>
<path d="M105.201 108.101C104.78 107.893 104.296 108.235 104.349 108.699L104.519 110.225C104.546 110.433 104.679 110.62 104.871 110.7L105.238 110.86C105.659 111.042 106.122 110.695 106.064 110.241L105.867 108.726C105.84 108.528 105.717 108.358 105.542 108.272L105.196 108.101H105.201Z" fill="#9DD600"/>
<path d="M110.1 128.933C110.1 128.933 107.576 128.933 108.322 126.97C108.119 127.274 107.997 127.69 108.034 128.256C108.172 130.294 109.573 129.862 110.383 129.803C111.192 129.744 125.752 128.971 126.258 128.944C126.333 128.613 126.428 128.288 126.535 127.968L110.1 128.933Z" fill="#BDD3DD"/>
<path d="M117.907 125.828L109.871 126.153C109.871 126.153 108.843 126.185 108.327 126.97C107.576 128.939 110.106 128.933 110.106 128.933L126.54 127.967C126.849 127.05 127.264 126.196 127.781 125.427L117.918 125.822L117.907 125.828Z" fill="#EDF4F6"/>
<path d="M109.397 110.049C108.982 109.846 108.503 110.177 108.556 110.641L108.726 112.146C108.748 112.354 108.881 112.536 109.072 112.616L109.435 112.776C109.85 112.957 110.308 112.616 110.249 112.168L110.058 110.673C110.031 110.481 109.914 110.311 109.738 110.225L109.397 110.054V110.049Z" fill="#9DD600"/>
<path d="M113.588 111.997C113.184 111.794 112.71 112.125 112.763 112.578L112.928 114.062C112.949 114.265 113.082 114.446 113.269 114.526L113.631 114.681C114.041 114.862 114.488 114.521 114.43 114.078L114.238 112.605C114.211 112.413 114.094 112.248 113.924 112.162L113.588 111.997Z" fill="#9DD600"/>
<path d="M116.97 114.521L117.135 115.983C117.157 116.186 117.284 116.362 117.471 116.442L117.828 116.596C118.232 116.773 118.674 116.442 118.616 116.004L118.429 114.553C118.403 114.366 118.286 114.201 118.121 114.115L117.79 113.95C117.386 113.752 116.922 114.078 116.97 114.526V114.521Z" fill="#9DD600"/>
<path d="M122.024 118.507C122.423 118.683 122.86 118.352 122.801 117.92L122.615 116.49C122.594 116.303 122.477 116.143 122.311 116.058L121.981 115.897C121.582 115.7 121.124 116.02 121.177 116.463L121.342 117.904C121.363 118.101 121.491 118.272 121.672 118.352L122.024 118.501V118.507Z" fill="#9DD600"/>
<path d="M126.178 117.845C125.784 117.648 125.336 117.968 125.384 118.4L125.544 119.819C125.565 120.017 125.693 120.188 125.869 120.262L126.215 120.412C126.609 120.582 127.035 120.262 126.982 119.835L126.801 118.421C126.78 118.24 126.663 118.08 126.497 117.994L126.173 117.834L126.178 117.845Z" fill="#9DD600"/>
<path d="M127.275 128.314C127.019 129.088 126.86 129.915 126.806 130.774C126.705 132.407 127.009 133.933 127.621 135.23C129.533 138.079 129.821 135.208 129.863 134.339C129.757 133.202 129.831 131.921 130.241 130.555H130.231C130.231 130.555 129.49 132.407 128.18 132.092C127.041 131.82 127.211 129.051 127.28 128.314H127.275Z" fill="#A0B8C2"/>
<path d="M129.863 134.344C129.821 135.214 129.533 138.085 127.621 135.235C128.468 137.023 129.911 138.351 131.684 138.869C131.056 138.298 130.081 136.622 129.863 134.349V134.344Z" fill="#ADC5CD"/>
<path d="M131.684 138.864C131.94 138.938 132.201 138.997 132.467 139.034C131.7 138.234 130.443 135.667 130.502 132.733C130.385 131.308 130.448 130.097 130.459 129.894C130.374 130.118 130.299 130.342 130.235 130.561C129.831 131.927 129.751 133.207 129.857 134.344C130.076 136.617 131.045 138.293 131.679 138.864H131.684Z" fill="#9DD600"/>
<path d="M130.374 119.798C129.991 119.606 129.544 119.915 129.591 120.348L129.751 121.746C129.773 121.938 129.895 122.108 130.076 122.183L130.417 122.333C130.806 122.498 131.226 122.183 131.173 121.762L130.992 120.369C130.971 120.187 130.859 120.033 130.694 119.953L130.374 119.798Z" fill="#9DD600"/>
<path d="M132.627 141.916C132.222 141.654 131.833 141.382 131.46 141.105C129.442 139.611 127.866 137.903 127.088 136.094C127.088 136.094 127.088 136.094 127.088 136.084C126.289 134.573 125.879 132.733 126.002 130.764C126.039 130.139 126.13 129.531 126.268 128.944C125.762 128.971 111.191 129.75 110.393 129.803C109.594 129.856 108.177 130.294 108.044 128.256C108.028 130.587 109.471 132.012 112.976 133.794C115.931 135.299 132.6 141.975 132.6 141.975L132.637 141.916H132.627Z" fill="#7E9DAB"/>
<path d="M127.083 136.094C127.866 137.898 129.443 139.605 131.456 141.105C132.313 141.414 133.447 141.628 134.678 141.606C133.708 141.089 132.707 140.507 131.674 139.861C129.704 139.376 128.085 137.994 127.078 136.1L127.083 136.094Z" fill="#537C84"/>
<path d="M121.342 117.904L121.177 116.463C121.129 116.02 121.587 115.7 121.981 115.897L122.312 116.057C122.477 116.143 122.594 116.303 122.615 116.49L122.801 117.92C122.86 118.352 122.423 118.677 122.024 118.507L121.672 118.357C121.491 118.277 121.364 118.106 121.342 117.909V117.904ZM117.14 115.983L116.975 114.521C116.927 114.072 117.391 113.747 117.795 113.944L118.126 114.11C118.296 114.195 118.413 114.361 118.435 114.547L118.621 115.999C118.68 116.436 118.238 116.772 117.833 116.591L117.476 116.436C117.29 116.356 117.162 116.18 117.14 115.977V115.983ZM112.768 112.578C112.715 112.125 113.189 111.794 113.594 111.997L113.929 112.162C114.1 112.247 114.217 112.413 114.243 112.605L114.435 114.078C114.488 114.521 114.041 114.857 113.636 114.681L113.274 114.526C113.082 114.446 112.955 114.265 112.933 114.062L112.768 112.578ZM131.173 121.762C131.226 122.178 130.806 122.498 130.417 122.333L130.076 122.183C129.9 122.103 129.778 121.938 129.751 121.746L129.592 120.348C129.544 119.915 129.986 119.606 130.374 119.798L130.694 119.953C130.859 120.033 130.966 120.193 130.992 120.369L131.173 121.762ZM136.994 121.506C137.042 121.511 137.09 121.516 137.143 121.522L61.0891 85.4019C61.0891 85.4019 51.9825 81.2398 46.0339 79.9698C40.4314 79.1801 34.2964 79.3882 28.9229 82.0135C31.5484 81.2505 34.7597 81.1864 37.9657 81.4692C38.3757 81.5013 38.7858 81.5439 39.1959 81.592C41.4699 81.8534 43.7013 82.2696 45.6824 82.7072C46.0339 82.7872 46.38 82.8673 46.7155 82.9473C49.2025 83.5396 51.189 84.1373 52.2008 84.4574C52.6588 84.6015 53.0316 84.9377 53.2287 85.3806L55.0766 89.5907C55.2257 89.9322 54.8796 90.279 54.5387 90.1296C52.1422 89.0944 49.6659 88.278 47.2055 87.627C46.8593 87.5363 46.5132 87.4456 46.1723 87.3602C43.2646 86.6505 40.4048 86.1649 37.758 85.8448C37.3479 85.7968 36.9378 85.7487 36.5384 85.706C29.3702 84.9483 24.0181 85.3432 24.0181 85.3432C24.0181 85.3432 23.6559 85.3806 23.0488 85.4713C39.3982 87.0187 74.7119 102.376 74.7119 102.376L127.792 125.411C129.171 123.352 131.211 121.927 133.447 121.612V121.554C133.591 121.522 134.832 121.265 136.994 121.5V121.506ZM125.39 118.4C125.342 117.968 125.789 117.648 126.183 117.845L126.508 118.005C126.673 118.085 126.785 118.245 126.812 118.432L126.993 119.846C127.051 120.273 126.62 120.593 126.226 120.422L125.88 120.273C125.699 120.198 125.576 120.027 125.555 119.83L125.395 118.411L125.39 118.4ZM70.6911 93.1658C70.6325 92.6482 71.1704 92.2694 71.639 92.5042L72.0225 92.6963C72.2195 92.7923 72.3527 92.9844 72.3846 93.2032L72.603 94.884C72.6669 95.391 72.1556 95.7751 71.6923 95.5724L71.2822 95.391C71.0692 95.2949 70.9201 95.0975 70.8935 94.8627L70.7017 93.1712L70.6911 93.1658ZM74.8983 95.1081C74.8397 94.5959 75.3722 94.2224 75.8302 94.4518L76.2084 94.6386C76.4001 94.7346 76.5332 94.9214 76.5652 95.1402L76.7782 96.7997C76.8421 97.3013 76.3362 97.6801 75.8782 97.4773L75.4734 97.3013C75.2604 97.2052 75.1166 97.0078 75.09 96.7783L74.8983 95.1081ZM79.1054 97.0505C79.0469 96.5489 79.5741 96.1807 80.0268 96.4048L80.4049 96.5916C80.5966 96.6876 80.7297 96.869 80.7564 97.0878L80.9694 98.726C81.0333 99.2222 80.5327 99.5957 80.08 99.3983L79.6806 99.2222C79.4729 99.1315 79.3238 98.9341 79.2972 98.7046L79.1108 97.0558L79.1054 97.0505ZM83.3126 98.9928C83.254 98.4965 83.7759 98.1283 84.2233 98.3525L84.5961 98.5339C84.7825 98.6299 84.9156 98.8114 84.9422 99.0195L85.1499 100.636C85.2138 101.127 84.7186 101.495 84.2712 101.298L83.8771 101.127C83.6694 101.036 83.5256 100.844 83.499 100.615L83.3126 98.9874V98.9928ZM87.5198 100.935C87.4612 100.444 87.9725 100.087 88.4198 100.305L88.7873 100.487C88.9737 100.583 89.1015 100.759 89.1281 100.967L89.3358 102.563C89.3997 103.048 88.9098 103.411 88.4677 103.219L88.079 103.048C87.8766 102.957 87.7328 102.765 87.7062 102.547L87.5251 100.94L87.5198 100.935ZM91.727 102.877C91.6737 102.392 92.1743 102.034 92.6163 102.253L92.9785 102.429C93.1649 102.52 93.2874 102.696 93.314 102.904L93.5163 104.484C93.5803 104.958 93.101 105.321 92.6589 105.129L92.2755 104.964C92.0731 104.873 91.9347 104.686 91.908 104.468L91.727 102.877ZM95.9342 104.82C95.8809 104.339 96.3762 103.987 96.8075 104.206L97.1643 104.382C97.3454 104.473 97.4732 104.649 97.4945 104.852L97.6969 106.405C97.7555 106.874 97.2815 107.232 96.8501 107.04L96.472 106.874C96.275 106.789 96.1365 106.602 96.1099 106.383L95.9288 104.814L95.9342 104.82ZM100.141 106.762C100.088 106.287 100.578 105.946 101.004 106.159L101.356 106.335C101.537 106.426 101.659 106.597 101.686 106.799L101.883 108.336C101.941 108.8 101.473 109.153 101.047 108.966L100.674 108.8C100.477 108.715 100.338 108.528 100.317 108.315L100.141 106.767V106.762ZM104.348 108.704C104.295 108.235 104.78 107.899 105.201 108.107L105.547 108.277C105.722 108.368 105.845 108.539 105.872 108.731L106.069 110.246C106.127 110.705 105.664 111.052 105.243 110.865L104.876 110.705C104.679 110.62 104.546 110.439 104.524 110.23L104.354 108.704H104.348ZM108.556 110.647C108.502 110.188 108.982 109.852 109.397 110.054L109.738 110.225C109.914 110.311 110.036 110.481 110.057 110.673L110.249 112.167C110.308 112.616 109.855 112.963 109.434 112.776L109.072 112.616C108.881 112.53 108.747 112.354 108.726 112.146L108.556 110.641V110.647Z" fill="#EDF4F6"/>
<path d="M138.89 124.638C139.997 125.881 140.737 127.599 140.871 129.595C141.185 134.328 138.037 138.741 133.83 139.072C133.362 139.109 132.909 139.093 132.467 139.029C132.201 138.992 131.94 138.933 131.684 138.858C129.911 138.346 128.473 137.012 127.621 135.225C127.008 133.933 126.705 132.402 126.806 130.769C126.859 129.91 127.019 129.088 127.275 128.309C127.967 126.191 129.341 124.446 131.04 123.443C131.892 122.941 132.824 122.621 133.793 122.535C135.54 122.381 137.18 123.005 138.442 124.184C138.575 124.307 138.708 124.44 138.836 124.579C138.847 124.579 138.858 124.579 138.858 124.579C138.858 124.579 138.868 124.601 138.89 124.638ZM141.355 127.477C140.338 123.715 137.255 121.281 133.793 121.586C133.676 121.596 133.559 121.607 133.442 121.628C131.205 121.943 129.165 123.368 127.786 125.428L127.812 125.438H127.775C127.264 126.207 126.843 127.06 126.534 127.978C126.428 128.298 126.337 128.624 126.257 128.955C126.119 129.542 126.028 130.15 125.991 130.774C125.869 132.743 126.279 134.579 127.077 136.094C127.077 136.094 127.077 136.1 127.077 136.105C128.084 137.999 129.703 139.381 131.673 139.867C132.355 140.038 133.074 140.096 133.825 140.038C135.194 139.931 136.466 139.435 137.563 138.656C140.237 136.767 141.925 133.208 141.675 129.467C141.627 128.773 141.515 128.112 141.35 127.482L141.355 127.477Z" fill="#D7E8EF"/>
<path d="M131.046 123.443C129.347 124.446 127.973 126.196 127.281 128.309C127.217 129.045 127.046 131.815 128.181 132.087C129.491 132.402 130.231 130.545 130.231 130.545H130.242C130.305 130.331 130.38 130.107 130.465 129.883C130.566 129.595 130.689 129.312 130.822 129.024C132.249 125.951 134.747 124.825 136.494 124.414C136.164 124.2 133.346 122.445 131.051 123.437L131.046 123.443Z" fill="#8CAAB8"/>
<path d="M133.798 122.535C132.829 122.621 131.897 122.936 131.045 123.443C133.346 122.45 136.157 124.206 136.488 124.419C136.994 124.302 137.436 124.243 137.771 124.211V124.195C137.771 124.195 135.657 122.423 133.798 122.535Z" fill="#7A99A6"/>
<path d="M133.83 140.027C133.079 140.086 132.36 140.027 131.679 139.856C132.712 140.502 133.713 141.084 134.682 141.601C136.365 141.569 138.229 141.1 139.843 139.83C139.103 139.477 138.346 139.083 137.574 138.64C136.472 139.419 135.204 139.915 133.836 140.022L133.83 140.027Z" fill="#6B8E9A"/>
<path d="M137.399 129.152C137.67 129.835 138.352 131.959 136.589 132.775C134.48 133.752 132.989 131.553 133.069 130.486C132.702 131.441 133.772 133.581 135.183 134.184C135.694 134.403 136.248 134.424 136.797 134.109C138.996 132.855 138.245 130.358 138.245 130.358C138.054 129.792 137.755 129.403 137.393 129.152H137.399Z" fill="#8CAAB8"/>
<path d="M133.404 130.54C133.404 130.54 134.997 130.945 135.684 131.175C136.371 131.399 137.627 131.319 136.994 129.707C136.333 128.037 133.404 130.54 133.404 130.54Z" fill="#E5EEEF"/>
<path d="M133.793 121.58C137.255 121.276 140.338 123.715 141.356 127.471C142.149 127.679 142.905 127.893 143.619 128.112C142.634 123.507 138.528 121.938 136.989 121.506C134.826 121.271 133.586 121.527 133.437 121.559V121.618C133.559 121.602 133.676 121.586 133.793 121.575V121.58Z" fill="#A0BBC7"/>
<path d="M133.405 130.539C133.405 130.539 136.334 128.032 136.994 129.707C137.633 131.313 136.371 131.399 135.684 131.174C134.997 130.945 133.405 130.539 133.405 130.539ZM136.59 132.775C138.352 131.959 137.671 129.835 137.399 129.152C137.197 129.013 136.978 128.912 136.744 128.853C135.317 128.474 133.458 129.483 133.069 130.486C132.99 131.553 134.475 133.752 136.59 132.775Z" fill="#C2D6DB"/>
<path d="M135.609 137.252C143.044 132.802 139.284 125.363 138.89 124.638C138.874 124.616 138.852 124.6 138.836 124.579C138.474 124.579 133.575 124.659 131.45 128.837C130.795 130.129 130.523 131.463 130.502 132.727C130.742 135.683 131.759 139.552 135.609 137.252ZM135.188 134.184C133.777 133.581 132.701 131.436 133.074 130.486C133.463 129.483 135.316 128.48 136.749 128.853C136.749 128.853 138.245 128.357 138.687 130.614C139.129 132.871 137.713 134.157 136.861 134.483C136.041 134.792 135.465 134.456 135.194 134.189L135.188 134.184Z" fill="#9DD600"/>
<path d="M133.799 122.535C135.663 122.423 137.772 124.195 137.772 124.195V124.211C138.144 124.179 138.389 124.184 138.448 124.184C137.186 123.005 135.546 122.386 133.799 122.535Z" fill="#5F838F"/>
<path d="M138.251 130.358C138.251 130.358 139.002 132.855 136.802 134.109C136.254 134.424 135.7 134.403 135.188 134.184C135.46 134.456 136.035 134.792 136.855 134.477C137.707 134.152 139.124 132.866 138.682 130.609C138.24 128.352 136.744 128.842 136.744 128.842C136.973 128.907 137.196 129.008 137.399 129.147C137.761 129.397 138.064 129.792 138.251 130.353V130.358Z" fill="#5C801A"/>
<path d="M136.488 124.419C134.741 124.83 132.249 125.961 130.816 129.029C130.683 129.317 130.561 129.606 130.46 129.888C130.449 130.091 130.385 131.302 130.502 132.727C130.523 131.463 130.795 130.129 131.45 128.837C133.575 124.659 138.48 124.579 138.837 124.579C138.709 124.44 138.581 124.307 138.443 124.184C138.384 124.184 138.139 124.179 137.766 124.211C137.431 124.238 136.989 124.296 136.483 124.419H136.488Z" fill="#9DD600"/>
<path d="M140.871 129.595C140.738 127.599 139.997 125.881 138.89 124.638C139.278 125.363 143.044 132.802 135.609 137.252C131.759 139.557 130.747 135.683 130.502 132.727C130.443 135.662 131.7 138.229 132.467 139.029C132.904 139.093 133.362 139.109 133.83 139.072C138.038 138.741 141.19 134.323 140.871 129.595Z" fill="#CAFF04"/>
<path d="M140.211 122.119C140.515 122.199 140.829 122.29 141.154 122.386L63.715 85.6046C63.715 85.6046 55.6521 81.3251 46.0342 79.9697C51.9828 81.2397 61.0895 85.4018 61.0895 85.4018L137.138 121.521C138.022 121.623 139.05 121.804 140.216 122.114L140.211 122.119Z" fill="#D7E8EF"/>
<path d="M143.023 134.947C143.912 132.14 144.003 129.899 143.619 128.117C142.9 127.898 142.149 127.685 141.356 127.477C141.526 128.101 141.638 128.768 141.681 129.462C141.931 133.197 140.243 136.756 137.569 138.65C138.342 139.093 139.098 139.488 139.838 139.84C141.148 138.805 142.293 137.236 143.017 134.947H143.023Z" fill="#8CAAB8"/>
<path d="M147.821 146.612C149.7 146.537 151.208 146.126 152.406 145.555C151.154 145.854 144.705 146.985 134.688 141.606C133.452 141.628 132.318 141.414 131.466 141.105C131.839 141.382 132.233 141.654 132.632 141.916C137.153 144.867 143.304 146.788 147.821 146.612Z" fill="#6B8E9A"/>
<path d="M154.344 145.523C154.877 145.171 155.335 144.803 155.718 144.413C155.345 144.344 154.957 144.258 154.541 144.157C154.115 144.531 153.615 144.899 153.023 145.235L153.082 145.336C153.082 145.336 153.588 145.427 154.349 145.523H154.344Z" fill="#9DD600"/>
<path d="M139.843 139.835C148.945 144.168 155.426 142.135 156.438 141.767C156.624 141.414 156.699 141.19 156.699 141.19C156.816 140.902 156.97 140.449 157.103 139.856C157.226 139.312 157.322 138.65 157.354 137.914C157.359 137.7 157.364 137.482 157.354 137.258C156.901 136.009 154.536 131.457 143.614 128.117C143.992 129.899 143.907 132.14 143.017 134.947C142.293 137.236 141.153 138.8 139.838 139.84L139.843 139.835Z" fill="#ACC5CF"/>
<path d="M156.437 141.766C155.426 142.135 148.939 144.168 139.843 139.835C138.235 141.099 136.365 141.574 134.683 141.606C144.7 146.985 151.155 145.854 152.401 145.555C152.614 145.454 152.821 145.347 153.013 145.235C153.604 144.899 154.105 144.53 154.531 144.157C155.543 143.266 156.129 142.343 156.427 141.766H156.437Z" fill="#A0BBC7"/>
<path d="M156.65 134.739C156.459 134.093 155.042 129.83 149.652 126.906C143.88 123.768 142.016 123.128 140.194 122.471C140.62 122.642 142.953 123.725 144.38 127.573C144.38 127.573 152.406 128.875 156.677 134.824C156.677 134.824 156.672 134.798 156.656 134.739H156.65Z" fill="#E5EEEF"/>
<path d="M156.438 141.767C156.134 142.343 155.549 143.266 154.542 144.157C154.957 144.258 155.351 144.344 155.719 144.413C157.12 143.015 157.625 141.452 157.785 140.246C157.572 140.107 157.343 139.979 157.104 139.856C156.97 140.449 156.816 140.902 156.699 141.19C156.699 141.19 156.624 141.414 156.438 141.767Z" fill="#9DD600"/>
<path d="M161.39 144.349C161.337 144.381 159.851 145.208 155.713 144.413C155.329 144.797 154.871 145.171 154.339 145.523C155.074 145.614 156.054 145.71 157.044 145.726C158.977 145.758 160.98 145.496 161.385 144.354L161.39 144.349Z" fill="#9DD600"/>
<path d="M156.97 134.648C156.336 132.375 154.797 129.851 151.517 127.599C151.165 127.359 150.814 127.124 150.473 126.9C149.264 126.111 148.103 125.433 147.006 124.851C144.817 123.688 142.863 122.909 141.159 122.391C140.834 122.29 140.52 122.205 140.216 122.125L140.131 122.45C140.131 122.45 140.136 122.45 140.157 122.461C140.163 122.461 140.168 122.461 140.179 122.466L140.2 122.477C142.021 123.128 143.885 123.773 149.658 126.911C155.048 129.835 156.464 134.099 156.656 134.744L156.976 134.654L156.97 134.648Z" fill="#C2D6DB"/>
<path d="M156.671 134.819C152.406 128.875 144.375 127.567 144.375 127.567C142.947 123.72 140.615 122.637 140.189 122.466L140.168 122.455C140.168 122.455 140.157 122.455 140.146 122.45C140.13 122.445 140.12 122.439 140.12 122.439L140.205 122.114C139.039 121.804 138.011 121.623 137.127 121.522C137.079 121.516 137.025 121.511 136.978 121.506C138.517 121.938 142.623 123.507 143.608 128.112C154.525 131.447 156.89 136.004 157.348 137.252C157.332 136.447 157.22 135.571 156.959 134.648L156.639 134.739C156.655 134.792 156.661 134.824 156.661 134.824L156.671 134.819Z" fill="#C2D6DB"/>
<path d="M157.785 140.24C157.913 139.237 157.806 138.49 157.769 138.282C157.583 138.111 157.444 137.983 157.354 137.914C157.322 138.65 157.226 139.312 157.104 139.856C157.343 139.979 157.567 140.107 157.785 140.246V140.24Z" fill="#9DD600"/>
<path d="M161.396 144.349C161.396 144.349 160.49 141.937 157.785 140.246C157.625 141.452 157.119 143.015 155.719 144.413C159.857 145.213 161.343 144.381 161.396 144.349Z" fill="#9DD600"/>
<path d="M151.517 127.599C154.792 129.851 156.331 132.375 156.97 134.648C157.231 135.571 157.337 136.446 157.359 137.252C157.364 137.476 157.359 137.695 157.359 137.908C157.444 137.983 157.588 138.111 157.774 138.277C157.976 138.463 158.232 138.704 158.509 138.981L160.81 138.698L158.94 136.66C159.047 131.543 153.29 127.909 152.678 127.541L151.522 127.594L151.517 127.599Z" fill="#7E9DAB"/>
<path d="M161.395 144.349C161.518 144.013 161.512 143.634 161.422 143.239C161.273 142.567 160.868 141.836 160.362 141.131C159.787 140.331 159.089 139.573 158.503 138.986C158.227 138.709 157.971 138.469 157.769 138.282C157.806 138.49 157.912 139.242 157.785 140.24C160.49 141.932 161.395 144.344 161.395 144.344V144.349Z" fill="#9DD600"/>
<path d="M136.253 151.627C193.604 160.539 161.321 147.407 157.05 145.726C156.059 145.71 155.079 145.614 154.344 145.523C153.583 145.427 153.077 145.336 153.077 145.336L153.018 145.235C152.821 145.347 152.619 145.454 152.406 145.555C151.207 146.126 149.7 146.537 147.82 146.612C143.304 146.788 137.153 144.867 132.632 141.916L132.595 141.975C132.595 141.975 115.926 135.299 112.97 133.794C109.461 132.012 108.023 130.582 108.039 128.256C108.001 127.69 108.124 127.274 108.326 126.97C108.353 126.9 108.379 126.831 108.417 126.756L41.1019 102.002C41.1019 102.002 14.8151 92.4028 14.2878 99.409C13.7606 106.421 35.3237 116.73 35.3237 116.73L35.3077 116.762C44.1215 120.577 55.6939 124.76 72.8315 130.929C74.4398 131.505 76.0907 132.103 77.8002 132.716C80.4949 133.688 83.3175 134.701 86.2785 135.774L86.5128 135.859C86.5128 135.859 93.665 138.522 104.204 142.012C113.204 144.995 124.67 148.581 136.253 151.622V151.627Z" fill="#8CAAB8"/>
<path d="M141.467 152.919C142.495 153.154 165.416 158.351 181.286 156.814C193.551 155.624 161.47 143.229 161.47 143.229L161.422 143.239C161.512 143.634 161.512 144.013 161.395 144.349C160.991 145.496 158.988 145.752 157.055 145.72C161.326 147.401 193.604 160.533 136.259 151.622C137.995 152.081 139.731 152.524 141.462 152.951L141.472 152.919H141.467Z" fill="#9EB7C7"/>
<path d="M192.071 151.878C185.323 149.888 165.31 140.021 162.285 138.517L160.805 138.698L158.504 138.981C159.095 139.568 159.793 140.331 160.363 141.126L160.373 141.115C160.373 141.115 194.286 157.593 195.319 154.589C195.66 153.169 194.169 151.393 191.698 149.477C186.415 145.384 176.637 140.667 170.561 137.492L169.917 137.572C172.047 138.746 200.155 154.258 192.065 151.873L192.071 151.878Z" fill="#D7E8EF"/>
<path d="M171.402 137.396C172.803 138.202 190.675 148.33 192.965 143.922L195.064 134.483L171.402 137.396Z" fill="#D7E8EF"/>
<path d="M187.752 113.213L176.025 117.082C175.748 117.162 175.658 117.306 175.743 117.37C175.796 117.413 175.908 117.424 176.068 117.381C176.494 117.274 185.542 114.643 186.74 114.297L187.741 113.213H187.752Z" fill="#EDF4F6"/>
<path d="M175.748 117.375L177.33 118.608C177.431 118.688 177.559 118.72 177.681 118.704L183.257 118.048L186.745 114.291C185.547 114.638 176.499 117.274 176.073 117.375C175.908 117.418 175.796 117.408 175.748 117.37V117.375Z" fill="#D7E8EF"/>
<path d="M169.922 137.578L162.285 138.517C165.315 140.016 185.323 149.883 192.071 151.878C200.16 154.263 172.052 138.752 169.922 137.578Z" fill="#EDF4F6"/>
<path d="M192.96 143.922C190.67 148.33 172.797 138.202 171.397 137.396L170.561 137.503C176.637 140.678 186.415 145.4 191.698 149.488L191.73 149.445L192.954 143.922H192.96Z" fill="#BDD3DD"/>
<path d="M190.766 110.743C190.026 111.644 181.899 121.575 180.552 123.218L198.025 122.429L199.591 116.804L196.891 117.018C196.891 117.018 193.466 114.947 192.502 113.934C192.369 113.795 192.284 113.677 192.257 113.587C192.05 112.834 192.753 112.882 192.753 112.882H192.896L197.178 113.016L192.497 110.305C192.284 110.188 191.501 109.846 190.771 110.743H190.766Z" fill="#D7E8EF"/>
<path d="M181.287 156.814C165.417 158.351 142.496 153.154 141.468 152.919L141.457 152.951C155.74 156.483 169.666 158.933 178.816 158.148C178.816 158.148 194.627 157.524 195.325 154.6C194.286 157.604 160.379 141.126 160.379 141.126L160.368 141.137C160.874 141.836 161.279 142.567 161.428 143.245L161.476 143.234C161.476 143.234 193.551 155.63 181.292 156.819L181.287 156.814Z" fill="#BDD3DD"/>
<path d="M183.257 118.048L178.395 123.282V123.32L180.546 123.224C181.893 121.58 190.026 111.65 190.76 110.748C191.495 109.852 192.273 110.193 192.486 110.316L191.852 109.948C191.447 109.713 190.931 109.788 190.611 110.134L187.741 113.219L186.74 114.302L183.251 118.058L183.257 118.048Z" fill="#EDF4F6"/>
<path d="M197.172 113.021L192.89 112.893C192.305 112.914 192.331 113.347 192.331 113.347C192.384 113.864 192.917 113.843 192.917 113.843H198.583L197.167 113.021H197.172Z" fill="#EDF4F6"/>
<path d="M199.59 116.81L199.675 116.5C196.39 115.924 192.795 114.094 192.502 113.939C193.466 114.947 196.89 117.023 196.89 117.023L199.59 116.81Z" fill="#BDD3DD"/>
<path d="M201.348 116.676C200.81 116.671 200.245 116.607 199.67 116.506L199.585 116.815L201.348 116.676Z" fill="#BDD3DD"/>
<path d="M192.252 113.592C192.279 113.683 192.364 113.8 192.497 113.939C192.79 114.094 196.385 115.924 199.671 116.5L200.161 114.75L198.584 113.838H192.918C192.918 113.838 192.38 113.859 192.332 113.341C192.332 113.341 192.305 112.909 192.891 112.888L192.748 112.882C192.748 112.882 192.045 112.834 192.252 113.587V113.592Z" fill="#D7E8EF"/>
<path d="M211.818 113.827C211.818 113.827 212.095 113.843 212.079 113.64C212.074 113.523 211.957 113.48 211.861 113.459L197.173 113.016L198.589 113.832L211.818 113.822V113.827Z" fill="#EDF4F6"/>
<path d="M212.078 113.646C212.094 113.843 211.818 113.832 211.818 113.832L198.589 113.843L200.165 114.755L199.675 116.506C200.25 116.607 200.815 116.671 201.353 116.676L215.418 115.572C215.082 115.54 213.649 114.819 212.611 114.2C212.611 114.2 212.323 114.046 212.291 113.939C212.276 113.902 212.27 113.87 212.27 113.838C212.212 113.48 212.638 113.485 212.638 113.485L211.865 113.464C211.961 113.48 212.078 113.528 212.084 113.646H212.078Z" fill="#D7E8EF"/>
<path d="M212.287 113.939C212.324 114.046 212.606 114.2 212.606 114.2C213.645 114.814 215.078 115.54 215.413 115.572H215.424H215.466C215.429 115.534 214.833 115.017 213.608 114.2C212.66 113.565 212.356 113.725 212.266 113.848C212.266 113.88 212.276 113.912 212.287 113.95V113.939Z" fill="#BDD3DD"/>
<path d="M212.633 113.485C212.633 113.485 212.207 113.485 212.265 113.838C212.356 113.72 212.659 113.56 213.607 114.19C214.832 115.006 215.429 115.529 215.466 115.561C215.525 115.545 215.471 115.454 215.274 115.278C213.128 113.363 212.633 113.485 212.633 113.485Z" fill="#EDF4F6"/>
<path d="M262.543 119.526L198.019 122.434L180.546 123.224L178.395 123.32L147.064 124.734L147.006 124.851C148.103 125.433 149.264 126.111 150.473 126.9C153.988 126.714 260.541 121.015 261.595 120.977C262.671 120.935 264.7 120.769 264.743 120.108C264.775 119.617 263.316 119.537 262.554 119.531C262.549 119.531 262.543 119.531 262.543 119.531V119.526Z" fill="#EDF4F6"/>
<path d="M261.595 120.972C260.541 121.015 153.982 126.708 150.473 126.895C150.819 127.119 151.165 127.354 151.516 127.594L152.672 127.541L266.5 122.263C265.818 122.109 264.966 121.623 265.11 120.47C265.11 120.47 265.11 120.47 265.11 120.465C265.233 119.521 266.069 119.371 266.346 119.35L262.559 119.521C263.321 119.531 264.78 119.606 264.748 120.097C264.705 120.759 262.676 120.924 261.601 120.967L261.595 120.972Z" fill="#BDD3DD"/>
<path d="M195.059 134.483L274.835 124.659C274.835 124.659 274.83 124.654 274.809 124.638C274.223 124.894 269.323 122.994 266.501 122.263L152.673 127.541C153.285 127.909 159.042 131.543 158.936 136.66L160.805 138.698L162.285 138.517L169.922 137.578L170.567 137.498L171.403 137.391L195.064 134.477L195.059 134.483Z" fill="#9EB7C7"/>
<path d="M266.501 122.268C269.323 123 274.223 124.899 274.809 124.643C274.58 124.472 272.801 123.16 269.27 121.153C265.606 119.067 265.137 120.374 265.111 120.465V120.47C264.967 121.628 265.819 122.108 266.501 122.263V122.268Z" fill="#D7E8EF"/>
<path d="M266.346 119.355C266.074 119.377 265.233 119.526 265.11 120.47C265.137 120.38 265.606 119.072 269.27 121.159C272.8 123.165 274.579 124.472 274.808 124.649C274.963 124.585 274.819 124.366 274.254 123.934C268.348 119.425 266.612 119.345 266.373 119.361H266.357H266.346V119.355Z" fill="#EDF4F6"/>
</g>
<g filter="url(#filter0_d_48_15290)">
<path d="M247.597 149.4H102.195C96.3617 149.4 91.6328 154.135 91.6328 159.976V180.879C91.6328 186.72 96.3617 191.455 102.195 191.455H247.597C253.43 191.455 258.159 186.72 258.159 180.879V159.976C258.159 154.135 253.43 149.4 247.597 149.4Z" fill="url(#paint0_linear_48_15290)"/>
<path d="M142.474 170.427C142.474 163.908 137.196 158.622 130.685 158.622C124.174 158.622 118.896 163.908 118.896 170.427C118.896 176.947 124.174 182.232 130.685 182.232C137.196 182.232 142.474 176.947 142.474 170.427Z" fill="white"/>
<path d="M136.734 167.175C136.662 172.802 133.231 176.657 128.109 176.9C125.996 177.001 124.466 176.285 123.133 175.398C124.694 175.66 126.631 175.004 127.667 174.076C126.135 173.919 125.229 173.102 124.805 171.788C125.248 171.867 125.714 171.847 126.135 171.753C124.753 171.268 123.767 170.373 123.716 168.498C124.103 168.682 124.508 168.856 125.043 168.89C124.01 168.274 123.246 166.02 124.121 164.53C125.655 166.293 127.499 167.732 130.529 167.927C129.769 164.517 134.078 162.668 135.881 164.959C136.644 164.805 137.264 164.501 137.862 164.171C137.615 164.964 137.142 165.516 136.565 165.96C137.198 165.87 137.76 165.707 138.237 165.46C137.941 166.106 137.292 166.686 136.734 167.175Z" fill="#191919"/>
<path d="M171.949 170.427C171.949 163.908 166.671 158.622 160.16 158.622C153.648 158.622 148.37 163.908 148.37 170.427C148.37 176.947 153.648 182.232 160.16 182.232C166.671 182.232 171.949 176.947 171.949 170.427Z" fill="white"/>
<path d="M153.003 169.571C153.003 169.571 159.847 166.656 162.221 165.629C163.131 165.218 166.216 163.904 166.216 163.904C166.216 163.904 167.64 163.33 167.521 164.725C167.482 165.3 167.166 167.312 166.849 169.489C166.374 172.568 165.86 175.935 165.86 175.935C165.86 175.935 165.781 176.879 165.108 177.044C164.436 177.208 163.328 176.469 163.131 176.305C162.972 176.181 160.163 174.334 159.135 173.43C158.858 173.184 158.542 172.692 159.174 172.117C160.599 170.761 162.299 169.078 163.328 168.01C163.803 167.517 164.278 166.368 162.299 167.764C159.491 169.776 156.722 171.665 156.722 171.665C156.722 171.665 156.089 172.075 154.902 171.706C153.715 171.336 152.331 170.843 152.331 170.843C152.331 170.843 151.382 170.228 153.003 169.571Z" fill="#191919"/>
<path d="M201.423 170.427C201.423 163.908 196.144 158.622 189.633 158.622C183.122 158.622 177.844 163.908 177.844 170.427C177.844 176.947 183.122 182.232 189.633 182.232C196.144 182.232 201.423 176.947 201.423 170.427Z" fill="white"/>
<path d="M188.087 172.415L183.686 168L187.251 164.431L189.278 166.148L190.41 165.015L188.078 162.681H186.009L181.896 166.8V168.872L187.327 174.319H189.168L191.635 171.849L190.393 170.614L188.087 172.416V172.415Z" fill="#191919"/>
<path d="M197.367 171.983L192.08 166.681H190.238L187.831 169.099L189.14 170.41L191.387 168.524L195.645 172.787L192.055 176.381L190.07 174.74L188.912 175.9L191.184 178.174H193.253L197.367 174.056L197.367 171.983Z" fill="#191919"/>
<path d="M230.896 170.427C230.896 163.908 225.618 158.622 219.107 158.622C212.596 158.622 207.317 163.908 207.317 170.427C207.317 176.947 212.596 182.232 219.107 182.232C225.618 182.232 230.896 176.947 230.896 170.427Z" fill="white"/>
<path d="M220.776 163.234L226.29 167.879V176.294L224.807 177.62H213.288L211.922 176.294V164.573L213.288 163.234H220.776ZM224.319 171.226H213.872V175.835H224.319V171.226ZM220.671 165.632H213.872V169.627H223.438V167.934L220.67 165.632H220.671Z" fill="#191919"/>
<path d="M220.84 172.741H222.835V174.34H220.84V172.741Z" fill="#191919"/>
<path d="M247.598 150.022H102.196C96.7056 150.022 92.2549 154.479 92.2549 159.976V180.879C92.2549 186.376 96.7056 190.832 102.196 190.832H247.598C253.088 190.832 257.539 186.376 257.539 180.879V159.976C257.539 154.479 253.088 150.022 247.598 150.022Z" stroke="#1B1C17" stroke-width="1.68642"/>
</g>
<path d="M233.926 201.694C249.582 201.694 262.273 188.997 262.273 173.334C262.273 157.671 249.582 144.973 233.926 144.973C218.271 144.973 205.579 157.671 205.579 173.334C205.579 188.997 218.271 201.694 233.926 201.694Z" fill="#FCCA3E" fill-opacity="0.3"/>
<path d="M233.925 196.504C246.716 196.504 257.084 186.13 257.084 173.334C257.084 160.537 246.716 150.164 233.925 150.164C221.134 150.164 210.766 160.537 210.766 173.334C210.766 186.13 221.134 196.504 233.925 196.504Z" fill="#FCCA3E" fill-opacity="0.3"/>
<path d="M234.112 192.055C244.344 192.055 252.639 183.756 252.639 173.519C252.639 163.281 244.344 154.982 234.112 154.982C223.879 154.982 215.584 163.281 215.584 173.519C215.584 183.756 223.879 192.055 234.112 192.055Z" fill="#FCCA3E" fill-opacity="0.3"/>
<path d="M245.617 198.413L245.22 197.314L244.48 198.078L239.33 203.397C237.942 204.831 235.856 203.688 235.728 201.424L234.229 174.65C234.097 172.311 236.157 170.815 237.683 172.141L258.948 190.61C260.323 191.805 260.2 194.425 258.723 195.403L257.835 195.993C257.442 196.252 256.996 196.352 256.557 196.277L250.85 195.31C250.407 195.235 250.013 195.671 250.013 196.237C250.013 196.387 250.041 196.532 250.094 196.665L255.4 209.753C255.947 211.102 255.548 212.758 254.498 213.488L253.829 213.954C252.703 214.738 251.289 214.144 250.755 212.663L245.617 198.413Z" fill="white" stroke="black" stroke-width="2"/>
<path d="M242.708 199.697L242.292 198.68L241.589 199.402L236.399 204.737C234.954 206.223 232.796 204.919 232.796 202.562V174.768C232.796 172.419 234.94 171.113 236.387 172.581L255.065 191.524C256.696 193.178 255.774 196.511 253.686 196.513L248.129 196.52C247.721 196.52 247.391 196.939 247.391 197.456C247.391 197.605 247.419 197.753 247.473 197.885L252.821 211.017C253.442 212.542 252.845 214.41 251.561 214.956L251.136 215.138C250.103 215.577 248.971 214.999 248.469 213.772L242.708 199.697Z" fill="white" stroke="black" stroke-width="2"/>
<defs>
<filter id="filter0_d_48_15290" x="91.4121" y="149.179" width="172.029" height="47.5563" filterUnits="userSpaceOnUse" color-interpolation-filters="sRGB">
<feFlood flood-opacity="0" result="BackgroundImageFix"/>
<feColorMatrix in="SourceAlpha" type="matrix" values="0 0 0 0 0 0 0 0 0 0 0 0 0 0 0 0 0 0 127 0" result="hardAlpha"/>
<feOffset dx="5.05926" dy="5.05926"/>
<feComposite in2="hardAlpha" operator="out"/>
<feColorMatrix type="matrix" values="0 0 0 0 0 0 0 0 0 0 0 0 0 0 0 0 0 0 1 0"/>
<feBlend mode="normal" in2="BackgroundImageFix" result="effect1_dropShadow_48_15290"/>
<feBlend mode="normal" in="SourceGraphic" in2="effect1_dropShadow_48_15290" result="shape"/>
</filter>
<linearGradient id="paint0_linear_48_15290" x1="114.683" y1="155.199" x2="123.84" y2="203.137" gradientUnits="userSpaceOnUse">
<stop stop-color="#ABE839"/>
<stop offset="1" stop-color="#E0FD79"/>
</linearGradient>
<clipPath id="clip0_48_15290">
<rect width="118" height="55" fill="white" transform="translate(56 63.4309)"/>
</clipPath>
<clipPath id="clip1_48_15290">
<rect width="266" height="79" fill="white" transform="translate(9 79.4309)"/>
</clipPath>
</defs>
</svg>
