<svg width="23" height="23" viewBox="0 0 23 23" fill="none" xmlns="http://www.w3.org/2000/svg">
<path d="M22 11.5C22 17.299 17.299 22 11.5 22C5.70101 22 1 17.299 1 11.5C1 5.70101 5.70101 1 11.5 1C17.299 1 22 5.70101 22 11.5Z" fill="#627EEA" stroke="black"/>
<path d="M11.8428 3.25V9.34812L16.997 11.6512L11.8428 3.25Z" fill="white" fill-opacity="0.602"/>
<path d="M11.8424 3.25L6.6875 11.6512L11.8424 9.34812V3.25Z" fill="white"/>
<path d="M11.8428 15.6031V19.7466L17.0004 12.6111L11.8428 15.6031Z" fill="white" fill-opacity="0.602"/>
<path d="M11.8424 19.7466V15.6024L6.6875 12.6111L11.8424 19.7466Z" fill="white"/>
<path d="M11.8428 14.644L16.997 11.6514L11.8428 9.34961V14.644Z" fill="white" fill-opacity="0.2"/>
<path d="M6.6875 11.6514L11.8424 14.644V9.34961L6.6875 11.6514Z" fill="white" fill-opacity="0.602"/>
</svg>
