<svg width="47" height="47" viewBox="0 0 47 47" fill="none" xmlns="http://www.w3.org/2000/svg">
<circle cx="23.5996" cy="23.7046" r="23" fill="#FFD102"/>
<path d="M8.39476 19.7443C10.2904 12.6432 17.0823 12.0851 17.0823 12.0851C17.0823 12.0851 17.2548 10.7781 18.0256 9.43965C19.2175 9.43414 20.6516 11.6508 20.6516 11.6508H26.5457C26.5457 11.6508 27.9799 9.43414 29.1716 9.43965C29.9425 10.778 30.1149 12.0851 30.1149 12.0851C30.1149 12.0851 36.6583 12.6438 38.8024 19.7443C39.4052 21.7409 39.9521 28.1877 39.9521 31.2836C39.9521 36.561 36.9197 39.8029 31.5086 40.0185L28.7225 40.0617C27.8702 40.0617 19.3832 40.0617 18.5083 40.0617L15.7431 40.0167L15.6886 40.0182C10.2775 39.8025 7.24509 36.5606 7.24509 31.2832C7.24509 28.1875 7.85682 21.7588 8.39476 19.7443Z" fill="url(#paint0_radial_1_10459)"/>
<path d="M18.5089 40.4319C19.4702 40.4319 27.9176 40.4319 28.7229 40.4319H28.7283L31.515 40.3881H31.5241C32.9029 40.3332 34.1567 40.0845 35.2507 39.6481C36.3388 39.2143 37.2741 38.5938 38.0311 37.8036C38.7843 37.0175 39.3618 36.0628 39.7472 34.9657C40.1316 33.8722 40.3262 32.6332 40.3262 31.283C40.3262 28.2795 39.7927 21.7308 39.1607 19.6373C38.6565 17.9673 37.8702 16.5106 36.8237 15.309C35.9847 14.3453 34.9786 13.5433 33.8336 12.9256C32.3352 12.1169 31.0039 11.8397 30.4363 11.7519C30.3407 11.2778 30.0865 10.2785 29.4965 9.25505C29.4639 9.19855 29.417 9.15153 29.3603 9.11874C29.3036 9.08594 29.2392 9.06853 29.1735 9.06824H29.1674C28.5643 9.06824 27.8806 9.48021 27.1355 10.293C26.8519 10.6049 26.5886 10.9344 26.3472 11.2794H20.8504C20.609 10.9344 20.3457 10.6049 20.0621 10.293C19.3169 9.48032 18.6332 9.06824 18.0302 9.06824H18.024C17.9584 9.06853 17.894 9.08594 17.8373 9.11874C17.7806 9.15153 17.7336 9.19855 17.7011 9.25505C17.1117 10.2785 16.8574 11.276 16.7617 11.7506C16.1805 11.8368 14.8029 12.1124 13.2731 12.9246C12.1085 13.5431 11.0973 14.346 10.2677 15.311C9.23215 16.5158 8.48046 17.9754 8.03356 19.6491C7.77679 20.6104 7.48983 22.587 7.24622 25.0721C7.01148 27.4666 6.87163 29.7885 6.87163 31.2832C6.87163 32.6334 7.06642 33.8725 7.45055 34.9659C7.8365 36.063 8.41349 37.0178 9.16666 37.8038C9.92369 38.5938 10.859 39.2143 11.9471 39.6483C13.0411 40.0845 14.295 40.3335 15.6737 40.3884C15.6913 40.3891 15.7088 40.3886 15.7263 40.3869H15.7376L18.5029 40.4319H18.5089ZM24.5944 39.6908H18.512L15.75 39.6458C15.7355 39.6456 15.7209 39.6462 15.7064 39.6476H15.7044C14.4114 39.5961 13.2411 39.365 12.2269 38.9604C11.2393 38.5668 10.3922 38.0058 9.7096 37.2934C9.02999 36.5842 8.5077 35.7189 8.15729 34.7219C7.80051 33.707 7.61969 32.5499 7.61969 31.2829C7.61969 29.8105 7.75851 27.5152 7.99111 25.1434C8.22744 22.7323 8.51327 20.749 8.75698 19.8383C9.17324 18.2792 9.86942 16.9224 10.8252 15.8055C11.5901 14.912 12.5237 14.167 13.6004 13.5913C14.3764 13.1785 15.2006 12.8618 16.0546 12.6483C16.6943 12.4897 17.1103 12.4532 17.1145 12.4529C17.1995 12.4457 17.2795 12.4099 17.3412 12.3515C17.4029 12.2931 17.4427 12.2156 17.4539 12.1318C17.4553 12.1205 17.6095 11.0148 18.2318 9.83741C18.5805 9.93324 19.0225 10.2605 19.5031 10.7832C19.8075 11.1175 20.0865 11.4737 20.3378 11.8489C20.3717 11.9011 20.4182 11.944 20.4732 11.9738C20.5281 12.0036 20.5897 12.0192 20.6524 12.0193H26.5461C26.6088 12.0192 26.6705 12.0036 26.7255 11.9738C26.7804 11.944 26.827 11.901 26.8609 11.8488C27.1121 11.474 27.3911 11.1182 27.6953 10.7842C28.1757 10.2616 28.6179 9.93425 28.9667 9.83842C29.589 11.0153 29.7431 12.1215 29.7447 12.1328C29.756 12.2164 29.7957 12.2937 29.8572 12.3519C29.9187 12.4102 29.9984 12.4459 30.0832 12.4533C30.0867 12.4533 30.4871 12.4901 31.1076 12.6488C31.9425 12.8646 32.7474 13.1813 33.5043 13.5917C34.5645 14.168 35.4955 14.9139 36.2712 15.8087C37.2419 16.9281 37.973 18.288 38.4451 19.85C38.7115 20.7324 38.9984 22.659 39.232 25.136C39.4462 27.4063 39.5792 29.7618 39.5792 31.2837C39.5792 32.5507 39.3984 33.7078 39.0416 34.7227C38.6912 35.7198 38.169 36.585 37.4893 37.2942C36.8068 38.0066 35.9599 38.5675 34.9721 38.9612C33.9588 39.3652 32.7904 39.5963 31.4991 39.6483L28.7206 39.6914L24.5944 39.6908Z" fill="#000100"/>
<path d="M16.305 37.312C16.1923 38.6574 16.2119 39.7369 16.2119 39.7369H31.0187C31.7734 38.5479 31.1166 38.3742 31.0187 37.312C31.0182 29.7669 16.6045 29.5488 16.305 37.312Z" fill="#FE7825"/>
<path d="M16.305 37.312C16.1923 38.6574 16.2119 39.7369 16.2119 39.7369H31.0187C31.7734 38.5479 31.1166 38.3742 31.0187 37.312C31.0182 29.7669 16.6045 29.5488 16.305 37.312Z" fill="url(#paint1_linear_1_10459)"/>
<path d="M8.72466 19.7834C8.72466 19.7834 9.72359 19.9915 11.3849 21.9736C12.9131 23.797 12.5161 27.0439 7.92904 26.7105C7.92904 23.7436 8.72466 19.7834 8.72466 19.7834Z" fill="#FE7825"/>
<path d="M8.72466 19.7834C8.72466 19.7834 9.72359 19.9915 11.3849 21.9736C12.9131 23.797 12.5161 27.0439 7.92904 26.7105C7.92904 23.7436 8.72466 19.7834 8.72466 19.7834Z" fill="url(#paint2_linear_1_10459)"/>
<path d="M39.5762 29.5531C39.5762 29.5531 37.181 29.7871 37.1575 27.4293C37.1412 25.7804 39.2802 25.6364 39.2802 25.6364L39.5762 29.5531Z" fill="#FE7825"/>
<path d="M39.5762 29.5531C39.5762 29.5531 37.181 29.7871 37.1575 27.4293C37.1412 25.7804 39.2802 25.6364 39.2802 25.6364L39.5762 29.5531Z" fill="url(#paint3_linear_1_10459)"/>
<path d="M13.6511 39.4707C8.7664 38.3348 7.31932 34.4595 7.66134 29.7913C7.76112 33.6926 11.9786 37.0118 13.8479 37.238C17.2111 31.595 22.5732 31.595 22.5732 31.595C18.2868 32.1641 16.5317 34.8285 16.36 37.1142C16.36 37.1142 16.2025 38.7235 16.2245 39.6865C14.8177 39.6865 13.6511 39.4707 13.6511 39.4707Z" fill="#F6A505"/>
<path d="M33.5612 39.4752C38.446 38.3392 39.8931 34.4638 39.5509 29.7957C39.4513 33.697 35.2337 37.0162 33.3644 37.2424C30.0012 31.5993 24.639 31.5993 24.639 31.5993C28.9253 32.1684 30.6805 34.8329 30.8522 37.1186C30.8522 37.1186 31.0098 38.7279 30.9876 39.6909C32.3946 39.6908 33.5612 39.4752 33.5612 39.4752Z" fill="#F6A505"/>
<path d="M26.8318 11.8945C26.8318 11.8945 24.904 16.9211 29.0537 17.5283C33.6104 18.1951 34.8398 14.4621 34.8398 14.4621C34.33 14.0202 32.3546 12.6943 29.8481 12.3575C29.4233 10.4845 28.9772 9.83203 28.9772 9.83203C28.9772 9.83203 28.2125 9.89517 26.8318 11.8945Z" fill="#FE7825"/>
<path d="M26.8318 11.8945C26.8318 11.8945 24.904 16.9211 29.0537 17.5283C33.6104 18.1951 34.8398 14.4621 34.8398 14.4621C34.33 14.0202 32.3546 12.6943 29.8481 12.3575C29.4233 10.4845 28.9772 9.83203 28.9772 9.83203C28.9772 9.83203 28.2125 9.89517 26.8318 11.8945Z" fill="url(#paint4_linear_1_10459)"/>
<g style="mix-blend-mode:overlay" opacity="0.8">
<path fill-rule="evenodd" clip-rule="evenodd" d="M23.0845 13.931C22.9957 13.8596 22.9302 13.7636 22.8964 13.6553C22.8511 13.5098 22.8661 13.3524 22.9379 13.2178C23.0097 13.0832 23.1325 12.9823 23.2794 12.9374C23.3888 12.9041 23.5057 12.9037 23.6153 12.9362C23.725 12.9687 23.8224 13.0326 23.8954 13.12C23.9684 13.2074 24.0136 13.3142 24.0253 13.427C24.037 13.5398 24.0147 13.6535 23.9612 13.7538C23.9077 13.854 23.8255 13.9363 23.7248 13.9902C23.6241 14.0442 23.5096 14.0673 23.3956 14.0568C23.2817 14.0463 23.1734 14.0025 23.0845 13.931ZM20.8201 14.2236C16.8991 14.8407 13.6081 16.755 12.3086 17.7335C11.0093 18.7115 9.97292 17.2036 13.4082 15.1683C15.719 13.9003 18.357 13.1928 20.6026 13.1101C21.6878 13.0705 22.6129 13.9414 20.8201 14.2236Z" fill="white"/>
</g>
<path d="M23.8785 26.1499C23.484 26.1499 23.1226 26.0287 22.7971 25.7876C22.2001 25.3454 21.7382 24.5139 21.4247 23.3171C21.1937 22.4356 21.1337 21.6925 21.1322 21.6611C21.1292 21.624 21.1442 21.5884 21.1742 21.5641C21.2042 21.5399 21.2432 21.5285 21.2807 21.5356C21.2957 21.5385 22.7656 21.7966 23.4495 21.1048C23.4735 21.0806 23.5065 21.0677 23.541 21.0677C23.5755 21.0677 23.6085 21.082 23.6325 21.1063C23.9565 21.4415 24.513 21.49 24.9224 21.4714C25.4474 21.4486 25.9019 21.3117 26.0669 21.2304C26.1044 21.2118 26.1494 21.2132 26.1869 21.2332C26.2244 21.2532 26.2469 21.2903 26.2499 21.3302C26.2529 21.3744 26.3098 22.4328 26.1014 23.5553C25.9769 24.22 25.7834 24.7677 25.5254 25.1828C25.1939 25.7163 24.7545 26.0329 24.2205 26.1214C24.1035 26.1399 23.9895 26.1499 23.8785 26.1499ZM21.3962 21.7938C21.4247 22.0548 21.5012 22.6282 21.6692 23.2644C21.9647 24.3912 22.4086 25.1985 22.9516 25.6007C23.3101 25.8661 23.7225 25.963 24.177 25.8874C25.9799 25.5865 26.0219 22.3073 26.0054 21.5142C25.7399 21.6069 25.3394 21.6911 24.9344 21.7096C24.507 21.7282 23.9325 21.6782 23.541 21.353C22.8856 21.9093 21.8072 21.8437 21.3962 21.7938Z" fill="#000100"/>
<path fill-rule="evenodd" clip-rule="evenodd" d="M22.7117 25.8988L22.7117 25.8988C22.0764 25.4282 21.6033 24.5593 21.2867 23.3507L21.4245 23.3152L21.2867 23.3507C21.0573 22.4753 20.994 21.7339 20.99 21.6689C20.9838 21.5863 21.0181 21.5061 21.084 21.4528C21.1429 21.4053 21.2239 21.3792 21.3074 21.3951C21.3074 21.3951 21.3074 21.3951 21.3077 21.3951C21.3131 21.3961 21.4019 21.4114 21.5427 21.4243C21.6886 21.4377 21.8882 21.4482 22.1073 21.4378C22.5536 21.4166 23.045 21.3103 23.3477 21.0041L23.3477 21.0041C23.4004 20.9509 23.4709 20.9247 23.5409 20.9247C23.615 20.9247 23.6842 20.9552 23.7341 21.0055L23.7346 21.0061L23.7352 21.0067C23.8713 21.1475 24.0621 21.2338 24.2767 21.2819C24.4908 21.3299 24.7185 21.3374 24.9158 21.3285L24.9161 21.3285C25.4249 21.3064 25.8592 21.1731 26.0033 21.102L26.0667 21.2285L26.0031 21.1021C26.0841 21.0621 26.178 21.0664 26.2541 21.107C26.3368 21.151 26.3853 21.2325 26.3917 21.3178L26.3918 21.3183L26.3918 21.3188C26.3952 21.3684 26.4528 22.44 26.2413 23.579L26.2412 23.5792C26.1147 24.2547 25.9166 24.8205 25.6465 25.255C25.2975 25.8166 24.8254 26.1624 24.2438 26.2587L24.2428 26.2589C24.1195 26.2784 23.9979 26.2892 23.8784 26.2892C23.4521 26.2892 23.0609 26.1575 22.7117 25.8988ZM25.5253 25.1809C25.7832 24.7659 25.9767 24.2181 26.1012 23.5534C26.3097 22.4309 26.2527 21.3725 26.2497 21.3283M21.669 23.2625C21.9645 24.3893 22.4085 25.1966 22.9514 25.5989C23.3099 25.8642 23.7224 25.9611 24.1768 25.8855C25.8828 25.6008 26.0121 22.6492 26.0071 21.6608C26.0068 21.6047 26.0061 21.5549 26.0052 21.5123C25.9615 21.5276 25.9141 21.5426 25.8636 21.5572C25.6077 21.631 25.2725 21.6922 24.9343 21.7077C24.5068 21.7263 23.9324 21.6763 23.5409 21.3511C22.9521 21.8508 22.022 21.8487 21.541 21.8069C21.4865 21.8022 21.4378 21.797 21.396 21.7919C21.4005 21.8326 21.4061 21.881 21.4131 21.936C21.4507 22.2335 21.5273 22.7256 21.669 23.2625ZM21.5584 21.9501C21.5968 22.2458 21.6719 22.716 21.8068 23.2267L21.8069 23.2269C22.0995 24.3431 22.5326 25.1124 23.0367 25.4858C23.3631 25.7273 23.736 25.8157 24.1533 25.7463C24.5575 25.6788 24.8678 25.4451 25.109 25.1055C25.3518 24.7636 25.5201 24.3197 25.6349 23.8502C25.8337 23.0369 25.8652 22.1749 25.8648 21.7036C25.6032 21.7757 25.2733 21.8335 24.9409 21.8487L24.9405 21.8488C24.5362 21.8663 23.9697 21.8267 23.5426 21.5302C23.1988 21.783 22.7754 21.8946 22.3934 21.939C22.0751 21.9761 21.7764 21.9676 21.5584 21.9501ZM24.9223 21.4695C24.5128 21.4881 23.9564 21.4396 23.6324 21.1044C23.6084 21.0801 23.5754 21.0659 23.5409 21.0659C23.5064 21.0659 23.4734 21.0787 23.4494 21.1029C22.7654 21.7947 21.2955 21.5366 21.2805 21.5337C21.2431 21.5266 21.2041 21.538 21.1741 21.5622C21.1441 21.5865 21.1291 21.6221 21.1321 21.6592M22.7969 25.7857C23.1224 26.0268 23.4839 26.148 23.8784 26.148C23.9894 26.148 24.1034 26.138 24.2203 26.1195C24.7543 26.031 25.1938 25.7144 25.5253 25.1809" fill="black"/>
<path d="M25.9828 21.2468C25.9828 21.2468 26.2226 25.5674 24.1283 25.9311C21.6512 26.362 21.2959 21.5646 21.2959 21.5646C21.2959 21.5646 22.7821 21.8481 23.4956 21.0965C24.1283 21.7779 25.5972 21.4458 25.9828 21.2468Z" fill="#B51F20"/>
<path d="M21.5391 22.4852C21.5391 22.4852 24.5419 22.4651 25.8577 22.1559C25.888 21.5489 25.8794 21.3914 25.8794 21.3914C25.8794 21.3914 24.0205 21.7894 23.528 21.0979C22.8852 21.8495 21.3701 21.5789 21.3701 21.5789C21.3701 21.5789 21.4987 22.3549 21.5391 22.4852Z" fill="white"/>
<path d="M36.4288 23.7937L34.7014 23.3284C34.5815 23.2955 34.4573 23.367 34.4241 23.4859C34.3909 23.6047 34.4631 23.7278 34.583 23.7607L36.3104 24.226C36.3306 24.2317 36.3509 24.2346 36.3696 24.2346C36.4693 24.2346 36.5603 24.1687 36.5877 24.07C36.6209 23.9497 36.5487 23.8266 36.4288 23.7937Z" fill="#000100"/>
<path d="M34.5929 22.6602C34.5972 22.6602 34.6016 22.6602 34.6059 22.6602L36.4359 22.5543C36.5601 22.5471 36.6554 22.4412 36.6482 22.3181C36.641 22.1949 36.5341 22.1005 36.4099 22.1076L34.5799 22.2136C34.4557 22.2207 34.3604 22.3267 34.3676 22.4498C34.3748 22.5686 34.4745 22.6602 34.5929 22.6602Z" fill="#000100"/>
<path d="M31.5472 20.0846C29.9367 19.7023 29.3619 19.8355 29.2824 20.3952C29.2088 20.9235 29.6406 21.018 30.6806 21.2413C31.5847 21.436 32.4224 21.8197 32.7185 21.3158C33.0132 20.8118 32.6362 20.3437 31.5472 20.0846Z" fill="#000100"/>
<path d="M15.46 21.0193C14.4085 21.403 14.0893 21.9112 14.4432 22.3779C14.797 22.8446 15.5828 22.365 16.458 22.0687C17.4647 21.7265 17.8821 21.5819 17.7464 21.0666C17.6019 20.5183 17.0141 20.4524 15.46 21.0193Z" fill="#000100"/>
<path d="M12.7169 24.604L11.0559 25.2668C10.9403 25.3126 10.884 25.4429 10.9302 25.5588C10.9663 25.6462 11.0501 25.6991 11.1397 25.6991C11.1671 25.6991 11.196 25.6934 11.2234 25.6834L12.8844 25.0206C13 24.9747 13.0563 24.8445 13.0101 24.7285C12.9639 24.6125 12.8324 24.5567 12.7169 24.604Z" fill="#000100"/>
<path d="M12.9441 23.6915C12.9369 23.5684 12.83 23.4739 12.7058 23.4811L10.8758 23.587C10.7516 23.5942 10.6562 23.7001 10.6635 23.8233C10.6707 23.9421 10.7704 24.0337 10.8888 24.0337C10.8931 24.0337 10.8975 24.0337 10.9018 24.0337L12.7318 23.9278C12.856 23.922 12.9513 23.8161 12.9441 23.6915Z" fill="#000100"/>
<path d="M26.6565 19.9888C26.5525 20.0275 26.4991 20.142 26.5381 20.2451C26.5395 20.2465 26.6103 20.4527 26.4644 20.6731C26.307 20.9122 25.8751 21.21 24.7052 21.2787C24.4351 21.2945 24.1924 21.2687 24.022 21.2057C23.7649 21.1112 23.7274 20.958 23.7201 20.8507L23.6941 20.3983C23.6884 20.288 23.593 20.205 23.4818 20.2107C23.4399 20.2136 23.4024 20.2279 23.3721 20.2508C23.3172 20.2895 23.2811 20.3539 23.2854 20.4255L23.31 20.8779C23.3157 20.9852 23.2955 21.1413 23.05 21.2644C22.8868 21.346 22.6484 21.399 22.3798 21.4133C21.2099 21.4763 20.7462 21.2272 20.5628 21.0081C20.3938 20.8048 20.4415 20.593 20.4415 20.5901C20.4689 20.4827 20.4025 20.3754 20.2956 20.3482C20.1873 20.321 20.0789 20.3868 20.0515 20.4927C20.0472 20.5099 19.9533 20.9008 20.2523 21.2601C20.6032 21.6824 21.3269 21.8671 22.4 21.8098C22.4535 21.807 22.5127 21.8027 22.5748 21.7955C22.7799 21.7726 23.0225 21.7225 23.2305 21.6194C23.3619 21.5536 23.4674 21.472 23.5454 21.3775C23.6335 21.4605 23.7447 21.5278 23.8805 21.5779C24.0986 21.6581 24.3456 21.681 24.5521 21.681C24.6142 21.681 24.6734 21.6796 24.7269 21.6753C25.8 21.6123 26.4976 21.3489 26.7995 20.8893C27.0566 20.4985 26.9179 20.1191 26.9122 20.1033C26.876 20.0031 26.7605 19.9502 26.6565 19.9888Z" fill="#000100"/>
<path d="M22.5742 25.2307C22.5742 25.2307 23.6994 22.9473 25.239 24.9787C24.7479 26.0553 23.2141 26.2071 22.5742 25.2307Z" fill="#F3A19C"/>
<defs>
<radialGradient id="paint0_radial_1_10459" cx="0" cy="0" r="1" gradientUnits="userSpaceOnUse" gradientTransform="translate(23.6155 20.5007) rotate(90.0494) scale(19.5609 20.8928)">
<stop stop-color="#FFEF9E"/>
<stop offset="0.452438" stop-color="#FFD921"/>
<stop offset="1" stop-color="#FAD001"/>
</radialGradient>
<linearGradient id="paint1_linear_1_10459" x1="-20.072" y1="37.2243" x2="33.3557" y2="19.1457" gradientUnits="userSpaceOnUse">
<stop offset="0.369792" stop-color="#E64500" stop-opacity="0.81"/>
<stop offset="0.572917" stop-color="#FF5C00" stop-opacity="0.79"/>
<stop offset="0.927083" stop-color="#FF9921"/>
</linearGradient>
<linearGradient id="paint2_linear_1_10459" x1="-2.2585" y1="24.5956" x2="14.255" y2="22.7524" gradientUnits="userSpaceOnUse">
<stop offset="0.369792" stop-color="#E64500" stop-opacity="0.81"/>
<stop offset="0.572917" stop-color="#FF5C00" stop-opacity="0.79"/>
<stop offset="0.927083" stop-color="#FF9921"/>
</linearGradient>
<linearGradient id="paint3_linear_1_10459" x1="31.3711" y1="28.3524" x2="40.749" y2="27.299" gradientUnits="userSpaceOnUse">
<stop offset="0.369792" stop-color="#E64500" stop-opacity="0.81"/>
<stop offset="0.572917" stop-color="#FF5C00" stop-opacity="0.79"/>
<stop offset="0.927083" stop-color="#FF9921"/>
</linearGradient>
<linearGradient id="paint4_linear_1_10459" x1="6.15713" y1="15.2155" x2="38.0999" y2="8.88764" gradientUnits="userSpaceOnUse">
<stop offset="0.369792" stop-color="#E64500" stop-opacity="0.81"/>
<stop offset="0.572917" stop-color="#FF5C00" stop-opacity="0.79"/>
<stop offset="0.927083" stop-color="#FF9921"/>
</linearGradient>
</defs>
</svg>
