<svg width="22" height="22" viewBox="0 0 22 22" fill="none" xmlns="http://www.w3.org/2000/svg">
<mask id="mask0_1_10719" style="mask-type:luminance" maskUnits="userSpaceOnUse" x="0" y="0" width="22" height="22">
<path d="M22 0H0V22H22V0Z" fill="white"/>
</mask>
<g mask="url(#mask0_1_10719)">
<path fill-rule="evenodd" clip-rule="evenodd" d="M0.7142 5.18823L0 6.005V18.9343C0 20.5278 1.3133 21.8195 2.93333 21.8195H19.0667C20.6867 21.8195 22 20.5278 22 18.9343V7.87546C22 6.28198 20.6867 4.99021 19.0667 4.99021H15.6125V4.86594L15.9795 4.65348C16.2034 4.52386 16.3408 4.2874 16.3408 4.03186V0.861551L15.6281 0.180176L0.7142 5.18823Z" fill="#CAFF04"/>
<path d="M16.1185 16.9953C15.6455 18.8036 13.4001 17.6471 12.3051 17.87C11.2442 18.0887 9.94891 19.8508 8.61955 18.5387C7.46488 17.4032 9.31405 13.9295 11.3848 13.5047C13.4555 13.0757 16.5318 15.4182 16.1185 16.9953Z" fill="black"/>
<path fill-rule="evenodd" clip-rule="evenodd" d="M14.5822 14.6282C13.6243 13.9127 12.387 13.4646 11.4194 13.6651L11.4191 13.6652C10.4536 13.8632 9.5065 14.7881 8.94031 15.832C8.65944 16.3499 8.48091 16.8823 8.44001 17.3465C8.39892 17.8129 8.49784 18.1858 8.73791 18.4219L8.73813 18.4221C9.04549 18.7254 9.33786 18.8401 9.61551 18.8537C9.89929 18.8676 10.1888 18.777 10.4888 18.6306C10.7157 18.5198 10.9358 18.3841 11.1582 18.247C11.2323 18.2014 11.3066 18.1556 11.3815 18.1105C11.672 17.9355 11.9742 17.7697 12.271 17.7085L12.2714 17.7084C12.5767 17.6463 12.9492 17.6816 13.3187 17.7301C13.4109 17.7422 13.5033 17.7552 13.5957 17.7682C13.8848 17.8088 14.1734 17.8494 14.4531 17.8624C14.8215 17.8795 15.1454 17.8464 15.4006 17.7168C15.6467 17.5919 15.8487 17.3669 15.9567 16.9538L15.9567 16.9537C16.0447 16.618 15.9512 16.2221 15.7008 15.8077C15.4517 15.3954 15.0576 14.9832 14.5822 14.6282ZM16.2805 17.0358C16.3992 16.5829 16.2632 16.0947 15.9883 15.6397C15.7121 15.1826 15.2853 14.7403 14.7844 14.3662C13.7899 13.6235 12.4538 13.1148 11.3508 13.3432C10.2455 13.5699 9.23269 14.5942 8.64529 15.6772C8.34935 16.2229 8.15267 16.7984 8.10688 17.3181C8.0613 17.8355 8.16418 18.3226 8.50128 18.6542C8.85859 19.0069 9.22664 19.164 9.59889 19.1822C9.96502 19.2001 10.3149 19.0826 10.6375 18.9252C10.8806 18.8065 11.121 18.6583 11.3466 18.5191C11.418 18.4751 11.488 18.432 11.556 18.391C11.8482 18.2151 12.1057 18.0787 12.3393 18.0305C12.5814 17.9812 12.9002 18.0069 13.2744 18.0561C13.3596 18.0672 13.4474 18.0796 13.5369 18.0922C13.8293 18.1333 14.1402 18.1771 14.4373 18.1909C14.8263 18.209 15.2209 18.1782 15.554 18.0091C15.8961 17.8354 16.1521 17.5268 16.2805 17.0358Z" fill="black"/>
<path fill-rule="evenodd" clip-rule="evenodd" d="M11.6649 13.227C12.4668 13.1603 13.262 13.414 13.9457 13.7621L13.946 13.7622C14.6617 14.1284 15.3437 14.6436 15.8349 15.29L15.8351 15.2904C16.1911 15.7617 16.5034 16.3847 16.3523 17.0414C16.3512 17.0468 16.3499 17.0522 16.3484 17.0576C16.3475 17.0612 16.3465 17.0648 16.3454 17.0684C16.2143 17.5277 15.9542 17.8434 15.6047 18.034C15.2582 18.223 14.8389 18.281 14.4006 18.2568C14.1923 18.2458 13.9801 18.2157 13.7723 18.1836C13.7333 18.1776 13.6945 18.1715 13.6559 18.1655C13.4862 18.1389 13.3198 18.1129 13.1537 18.0947C12.7462 18.05 12.3702 18.0569 12.0308 18.2122C11.7961 18.3202 11.5776 18.4569 11.3484 18.6001C11.2443 18.6652 11.1379 18.7317 11.0269 18.7975C10.6816 19.0021 10.3051 19.1895 9.87051 19.24C9.14428 19.3243 8.3643 18.8703 8.12462 18.1749M11.6649 13.227C10.8794 13.2902 10.1975 13.7122 9.66646 14.2189C9.08651 14.7697 8.6263 15.4537 8.32395 16.1889L8.32387 16.1891C8.08596 16.7698 7.89578 17.5111 8.12461 18.1748M15.8884 16.9286C15.9587 16.6372 15.8961 16.3381 15.7551 16.0469C15.6134 15.7545 15.3978 15.4815 15.1822 15.2523C14.621 14.6618 13.9021 14.1969 13.1299 13.9197C12.4874 13.6906 11.7934 13.5932 11.1715 13.8069L11.1715 13.8069C10.5275 14.028 9.98073 14.5103 9.54768 15.0486C9.11955 15.5861 8.77434 16.201 8.60247 16.8553L8.60245 16.8554C8.53451 17.1134 8.48856 17.3957 8.5047 17.6612C8.52078 17.9257 8.59766 18.1638 8.76561 18.349C9.04573 18.6574 9.35976 18.7683 9.68512 18.7619C10.0188 18.7554 10.3758 18.6246 10.7257 18.4256C10.8475 18.3558 10.9696 18.2778 11.097 18.1964L11.1157 18.1845C11.2487 18.0996 11.3872 18.0116 11.5298 17.9314C11.8145 17.7714 12.1286 17.6348 12.4799 17.609C12.7955 17.5854 13.154 17.6291 13.5046 17.6768C13.5442 17.6822 13.5838 17.6876 13.6233 17.6931C13.9403 17.7367 14.2516 17.7796 14.545 17.7857C14.8747 17.7926 15.1595 17.7518 15.3845 17.6278C15.6023 17.5078 15.7833 17.2992 15.8884 16.9286Z" fill="black"/>
<path d="M9.84213 12.4158C10.4951 12.0363 10.6333 11.0732 10.1509 10.2646C9.66857 9.45607 8.74823 9.10822 8.09531 9.4877C7.44238 9.86718 7.30413 10.8303 7.7865 11.6389C8.26887 12.4474 9.18921 12.7953 9.84213 12.4158Z" fill="black"/>
<path fill-rule="evenodd" clip-rule="evenodd" d="M8.17996 9.62911C7.63547 9.94557 7.47577 10.7926 7.93047 11.5548C8.38517 12.317 9.21307 12.59 9.75755 12.2735C10.302 11.9571 10.4617 11.1101 10.007 10.3479C9.55234 9.58569 8.72444 9.31266 8.17996 9.62911ZM7.6426 11.7221C7.13255 10.8671 7.24937 9.78795 8.01073 9.34545C8.77209 8.90295 9.78487 9.32561 10.2949 10.1806C10.805 11.0355 10.6881 12.1147 9.92678 12.5572C9.16542 12.9997 8.15264 12.577 7.6426 11.7221Z" fill="black"/>
<path fill-rule="evenodd" clip-rule="evenodd" d="M8.26383 9.16233C9.02271 8.93189 9.7611 9.37234 10.1866 9.89839L10.1841 9.90036C10.1854 9.90212 10.1867 9.9039 10.1879 9.9057C10.1978 9.91893 10.2076 9.93232 10.2172 9.94587C10.2567 10.0264 10.2377 10.1087 10.2004 10.1681C10.3863 10.4724 10.5144 10.8422 10.5337 11.2087C10.5521 11.5564 10.472 11.9105 10.241 12.1969C10.241 12.1969 10.241 12.1969 10.241 12.1969C10.1782 12.2747 10.1043 12.3475 10.0182 12.4138L10.0181 12.4139C9.64721 12.6989 9.2124 12.7173 8.82446 12.595C8.73877 12.5679 8.65478 12.5339 8.57339 12.4941C8.57337 12.4941 8.57335 12.4941 8.57333 12.4941C8.28992 12.3553 8.03816 12.1458 7.85669 11.9135L7.85637 11.9131C7.61914 11.6074 7.45028 11.2043 7.4113 10.7977L7.26882 10.8099C7.26881 10.8099 7.2688 10.8098 7.26879 10.8097C7.26879 10.8096 7.26878 10.8095 7.26877 10.8094L7.41129 10.7976C7.40935 10.7774 7.40774 10.7572 7.40645 10.737C7.37912 10.3082 7.49981 9.86618 7.85982 9.5468C7.99908 9.42154 8.14937 9.33884 8.30413 9.29095L8.26376 9.16235C8.26379 9.16234 8.26381 9.16234 8.26383 9.16233ZM8.30416 9.29094L8.26391 9.16231C8.26389 9.16231 8.26386 9.16232 8.26383 9.16233M8.30416 9.29094C8.5588 9.21213 8.82553 9.22754 9.07511 9.30257C9.3951 9.39878 9.69401 9.59374 9.92635 9.82277C9.95166 9.81345 9.98006 9.80799 10.0109 9.80886C10.0831 9.81089 10.1437 9.84692 10.1832 9.89925L10.1857 9.89729C10.1988 9.91327 10.2092 9.92953 10.2172 9.94587C10.6736 10.5846 10.9105 11.5638 10.3501 12.2796L10.3501 12.2796C9.89776 12.8571 9.11848 12.9199 8.50792 12.6255L8.50734 12.6252C7.81352 12.2873 7.33322 11.5625 7.26879 10.8097C7.20923 10.1392 7.52442 9.38619 8.26383 9.16233M9.78895 9.9509C9.4062 9.56225 8.86948 9.32261 8.36241 9.47661L8.36226 9.47666C8.21841 9.5202 8.09351 9.59258 7.98869 9.68622C7.98864 9.68627 7.98859 9.68631 7.98855 9.68635C7.70096 9.94336 7.56448 10.3605 7.60192 10.7813L7.60198 10.7818C7.63319 11.1472 7.78036 11.5053 8.00874 11.7986L8.12185 11.7131C8.12191 11.7132 8.12197 11.7133 8.12203 11.7134C8.12208 11.7134 8.12212 11.7135 8.12217 11.7136L8.00878 11.7987C8.18245 12.0217 8.40308 12.2074 8.6554 12.3303C9.07619 12.5331 9.5571 12.5174 9.89776 12.2625L9.81205 12.1549C9.81207 12.1549 9.8121 12.1548 9.81212 12.1548C9.81215 12.1548 9.81218 12.1548 9.81221 12.1548L9.89779 12.2625C9.96651 12.2111 10.0295 12.1499 10.0852 12.0789M9.81684 10.1938C9.60619 9.93841 9.29745 9.71334 8.97736 9.6171C8.66193 9.52227 8.34721 9.55387 8.08511 9.78984L8.08415 9.79071L8.08415 9.7907C7.8182 10.0264 7.71746 10.3601 7.74018 10.7165C7.76302 11.0748 7.91097 11.4413 8.12203 11.7134C8.31878 11.9652 8.61413 12.1832 8.92656 12.2818C9.23522 12.3791 9.54814 12.3576 9.81212 12.1548C10.1078 11.927 10.2191 11.591 10.1998 11.2257C10.1804 10.8585 10.0283 10.4772 9.81684 10.1938ZM9.78895 9.9509C9.75682 10.0201 9.75239 10.1095 9.81524 10.1917L9.78895 9.9509ZM9.81524 10.1917C9.81577 10.1924 9.8163 10.1931 9.81684 10.1938C9.81726 10.1943 9.81768 10.1948 9.81811 10.1953C9.8616 10.2501 9.92602 10.2832 9.99768 10.2829C10.0119 10.2829 10.0256 10.2815 10.0387 10.2791" fill="black"/>
<path d="M14.0517 10.2294C14.0813 9.28689 13.4952 8.50426 12.7426 8.48136C11.99 8.45845 11.3558 9.20394 11.3261 10.1465C11.2965 11.089 11.8826 11.8716 12.6352 11.8945C13.3879 11.9174 14.022 11.1719 14.0517 10.2294Z" fill="black"/>
<path fill-rule="evenodd" clip-rule="evenodd" d="M11.4927 10.1519C11.4647 11.0429 12.0148 11.7115 12.6398 11.7305C13.2648 11.7495 13.856 11.1156 13.884 10.2247C13.912 9.33378 13.3619 8.66513 12.7369 8.64611C12.1118 8.62709 11.5207 9.261 11.4927 10.1519ZM12.6295 12.0593C11.7492 12.0325 11.1272 11.1359 11.1585 10.1418C11.1897 9.14766 11.8669 8.29059 12.7472 8.31738C13.6275 8.34417 14.2495 9.24078 14.2182 10.2349C14.1869 11.229 13.5098 12.086 12.6295 12.0593Z" fill="black"/>
<path fill-rule="evenodd" clip-rule="evenodd" d="M11.5857 8.79323C12.0334 8.27222 12.7777 8.06601 13.4145 8.44309L13.4146 8.44317C14.1223 8.86324 14.3503 9.73171 14.2742 10.4473L14.2707 10.4469C14.2702 10.4513 14.2696 10.4557 14.2688 10.4601C14.2667 10.4744 14.2645 10.4888 14.2621 10.5032C14.2331 10.5869 14.1622 10.6336 14.092 10.65C14.0094 10.9791 13.8437 11.3156 13.6042 11.5697C13.3852 11.8021 13.0984 11.97 12.7593 11.9905L12.7704 12.1291C12.7702 12.1291 12.7701 12.1292 12.7699 12.1292L12.7592 11.9905C12.6434 11.9976 12.5214 11.9874 12.3939 11.9567C11.9356 11.8473 11.6231 11.5212 11.4408 11.1412C11.4122 11.0816 11.3866 11.0203 11.364 10.9579C11.3639 10.9578 11.3639 10.9578 11.3639 10.9578C11.2428 10.6236 11.2066 10.2556 11.2493 9.92973L11.4151 9.95076L11.2493 9.92995C11.2958 9.57164 11.4499 9.18438 11.698 8.88657C11.698 8.88656 11.698 8.88656 11.698 8.88656C11.7082 8.87422 11.7187 8.86204 11.7293 8.85001C11.9981 8.54501 12.3807 8.33469 12.85 8.3913C13.0372 8.41363 13.2021 8.47152 13.3458 8.5553C13.3458 8.5553 13.3458 8.55531 13.3458 8.55531C13.5946 8.70037 13.7799 8.92303 13.9075 9.1731C14.0718 9.49512 14.1467 9.87195 14.1452 10.2189C14.1711 10.2311 14.1961 10.2488 14.2175 10.273C14.2615 10.3227 14.2774 10.3851 14.2709 10.4454L14.2744 10.4457C14.2724 10.4665 14.2681 10.4857 14.2621 10.5032C14.2024 10.862 14.0559 11.2385 13.8202 11.5398C13.5732 11.8557 13.2219 12.0954 12.7699 12.1292C12.0145 12.1874 11.4513 11.6139 11.2242 11.0086L11.2238 11.0075L11.2238 11.0075C10.9589 10.2863 11.0695 9.39452 11.5857 8.79329L11.5857 8.79323ZM13.9538 10.2116C13.9626 9.62342 13.7384 9.01953 13.2419 8.72482C13.1087 8.64595 12.9678 8.60046 12.8259 8.58531C12.8259 8.58531 12.8259 8.58531 12.8259 8.58531C12.4661 8.5469 12.1006 8.70358 11.8411 9.00548M13.9538 10.2116C13.8815 10.2383 13.8164 10.2988 13.8019 10.3982C13.8017 10.3994 13.8015 10.4006 13.8014 10.4017C13.8362 10.0552 13.7758 9.64824 13.6086 9.32063C13.4424 8.99498 13.1801 8.76195 12.8096 8.71779L12.8093 8.71776C12.4776 8.6777 12.1977 8.82063 11.9819 9.06546C11.7637 9.3131 11.6221 9.65502 11.581 9.97158L11.581 9.97179C11.5379 10.2999 11.5903 10.6823 11.7432 11.0008C11.8953 11.3178 12.1388 11.5574 12.4729 11.6372L12.4732 11.6372C12.8289 11.7228 13.1267 11.5926 13.359 11.3461C13.5947 11.096 13.7516 10.7348 13.8014 10.4017M13.937 10.4189L13.8009 10.4062C13.7942 10.4752 13.8176 10.5415 13.8667 10.5895C13.8766 10.5991 13.8871 10.6076 13.8979 10.6149C13.8332 10.8748 13.7176 11.1315 13.5552 11.3392C13.3517 11.5994 13.0809 11.7761 12.7446 11.8012L12.7442 11.8013C12.6386 11.8094 12.5362 11.8005 12.4385 11.7769C12.4384 11.7769 12.4384 11.7769 12.4384 11.7769C12.0289 11.6781 11.6987 11.3229 11.5381 10.8953C11.4292 10.5985 11.3952 10.2701 11.4357 9.95336C11.4357 9.95335 11.4357 9.95334 11.4357 9.95334M14.1328 10.4454C14.1328 10.4452 14.1328 10.4451 14.1329 10.445L13.9674 10.4218L14.1328 10.4454ZM13.938 10.419C13.938 10.419 13.938 10.4189 13.938 10.4189L13.9673 10.4218L13.938 10.419ZM13.937 10.4188C13.937 10.4188 13.937 10.4189 13.937 10.4189L13.937 10.4188Z" fill="black"/>
<path d="M17.279 12.6914C17.4129 12.0096 17.0702 11.3706 16.5134 11.264C15.9567 11.1575 15.3968 11.6238 15.2629 12.3056C15.1291 12.9874 15.4718 13.6264 16.0286 13.7329C16.5853 13.8394 17.1452 13.3731 17.279 12.6914Z" fill="black"/>
<path fill-rule="evenodd" clip-rule="evenodd" d="M15.4266 12.3368C15.3034 12.9642 15.6254 13.4882 16.0598 13.5713C16.4942 13.6544 16.9913 13.2871 17.1145 12.6598C17.2377 12.0324 16.9156 11.5084 16.4813 11.4253C16.0469 11.3422 15.5498 11.7095 15.4266 12.3368ZM15.9964 13.8942C15.3173 13.7643 14.9538 13.0102 15.0984 12.274C15.2429 11.5379 15.8656 10.9725 16.5447 11.1024C17.2237 11.2323 17.5873 11.9864 17.4427 12.7226C17.2981 13.4587 16.6755 14.0241 15.9964 13.8942Z" fill="black"/>
<path fill-rule="evenodd" clip-rule="evenodd" d="M15.736 11.1987C16.034 11.0104 16.4072 10.9368 16.7854 11.0996C17.1661 11.2628 17.3854 11.5833 17.4817 11.9322C17.5767 12.2767 17.5557 12.6594 17.4501 12.9824C17.4492 12.9852 17.4483 12.9881 17.4473 12.9909C17.4458 12.995 17.4443 12.9991 17.4426 13.003C17.3207 13.3112 17.0983 13.6091 16.8102 13.795C16.5148 13.9855 16.1454 14.0596 15.7612 13.8949C15.385 13.734 15.1615 13.4129 15.062 13.0637C14.9629 12.7163 14.9817 12.3284 15.0994 12.0029C15.213 11.6854 15.4419 11.3845 15.736 11.1987ZM16.9953 12.8357C17.0711 12.599 17.0895 12.3182 17.0271 12.0736C16.965 11.8303 16.8272 11.6345 16.5963 11.5357L16.5952 11.5352C16.379 11.4407 16.1669 11.4799 15.979 11.6036C15.7868 11.7301 15.6297 11.9405 15.5509 12.159L15.5507 12.1598L15.5507 12.1598C15.4697 12.3809 15.4498 12.6513 15.5077 12.8939C15.5653 13.1351 15.6955 13.3346 15.9023 13.4434C16.1289 13.5618 16.3463 13.5284 16.5401 13.4056C16.7389 13.2797 16.9052 13.0619 16.9953 12.8357Z" fill="black"/>
<path d="M7.10551 15.5696C7.5727 15.2523 7.62814 14.5313 7.22934 13.9592C6.83055 13.3871 6.12853 13.1805 5.66134 13.4978C5.19416 13.8151 5.13872 14.536 5.53751 15.1081C5.93631 15.6802 6.63833 15.8868 7.10551 15.5696Z" fill="black"/>
<path fill-rule="evenodd" clip-rule="evenodd" d="M5.75558 13.6336C5.39073 13.8814 5.30803 14.4888 5.67479 15.0149C6.04155 15.5411 6.64583 15.6819 7.01067 15.4341C7.37551 15.1864 7.45822 14.579 7.09146 14.0528C6.7247 13.5267 6.12042 13.3859 5.75558 13.6336ZM5.39963 15.2018C4.9688 14.5837 4.99697 13.7491 5.5665 13.3624C6.13603 12.9756 6.93578 13.2479 7.36661 13.866C7.79745 14.484 7.76928 15.3186 7.19975 15.7054C6.63022 16.0922 5.83047 15.8198 5.39963 15.2018Z" fill="black"/>
<path fill-rule="evenodd" clip-rule="evenodd" d="M6.34297 13.1283C6.68795 13.1824 7.02021 13.368 7.25438 13.6155C7.2544 13.6155 7.25442 13.6155 7.25444 13.6155L7.1506 13.7106C7.15107 13.7111 7.15154 13.7116 7.15201 13.7121L7.02981 13.8243L7.15151 13.7115C7.35579 13.9249 7.51064 14.2128 7.56899 14.5143C7.62756 14.8169 7.59038 15.1447 7.39216 15.4206L7.3919 15.4209C7.3671 15.4552 7.34111 15.487 7.31408 15.5163L7.41686 15.6096C7.41679 15.6097 7.41672 15.6097 7.41664 15.6098C7.41657 15.6099 7.4165 15.61 7.41643 15.61L7.31401 15.5164C7.08101 15.7691 6.77054 15.8397 6.47313 15.7981C6.2232 15.7631 5.9787 15.6497 5.77917 15.499C5.75012 15.5126 5.71689 15.5213 5.68077 15.5219C5.62134 15.5228 5.56453 15.5011 5.52015 15.4606C5.51641 15.4569 5.5127 15.4533 5.50901 15.4496L5.62801 15.3341L5.50959 15.4502C5.50939 15.45 5.5092 15.4498 5.50901 15.4496C5.50789 15.4485 5.50678 15.4473 5.50569 15.4462C5.50466 15.4451 5.50365 15.444 5.50264 15.4429M5.49359 15.4328C5.26776 15.1788 5.09631 14.841 5.04449 14.4915C4.99154 14.1345 5.06308 13.7557 5.34229 13.453L5.34313 13.4521L5.34313 13.4521C5.62238 13.154 5.99348 13.0735 6.34297 13.1283M5.73453 15.2415L5.74082 15.2355L5.7402 15.236L5.73453 15.2415ZM5.75312 15.2254L5.73453 15.2415L5.7532 15.2255C5.75318 15.2255 5.75315 15.2255 5.75312 15.2254ZM5.85687 15.1294C6.03337 15.3041 6.28181 15.4391 6.52022 15.4725C6.7517 15.5049 6.96585 15.4427 7.11922 15.2306C7.25323 15.0439 7.28631 14.8124 7.24051 14.5758C7.19447 14.3379 7.07024 14.1064 6.90809 13.937L6.90759 13.9365L6.90759 13.9365C6.74098 13.761 6.49943 13.6276 6.26306 13.5927C6.03311 13.5587 5.81773 13.6173 5.66158 13.8122C5.51293 13.9996 5.47723 14.2309 5.52333 14.4708C5.56955 14.7114 5.69683 14.9495 5.85687 15.1294ZM5.52015 15.4606C5.75713 15.6925 6.08009 15.8753 6.41706 15.9315C6.76495 15.9895 7.13316 15.9119 7.41664 15.6098C7.695 15.3151 7.76933 14.9336 7.71896 14.5746C7.66885 14.2173 7.49448 13.8687 7.25438 13.6155C7.25436 13.6154 7.25435 13.6154 7.25433 13.6154" fill="black"/>
<path d="M15.6125 4.86664L1.34843 5.90732C0.620135 5.96045 0.054308 5.21234 0.748668 4.98629L15.3771 0.224091C15.8516 0.0695971 16.3408 0.417179 16.3408 0.90887V4.03255C16.3408 4.28809 16.2034 4.52456 15.9795 4.65418L15.6125 4.86664Z" fill="#9DD600"/>
</g>
</svg>
