<svg width="22" height="22" viewBox="0 0 22 22" fill="none" xmlns="http://www.w3.org/2000/svg">
<circle cx="11" cy="11" r="11" fill="black"/>
<path d="M16.4298 14.8611C15.8949 16.9335 13.355 15.6081 12.1164 15.8635C10.9163 16.1141 9.45116 18.1335 7.94747 16.6298C6.64137 15.3286 8.73305 11.3476 11.0753 10.8609C13.4176 10.3693 16.8973 13.0537 16.4298 14.8611Z" fill="#CAFF04"/>
<path d="M16.3526 14.8322C15.8321 16.7022 13.6633 15.6516 12.3283 15.7528C11.615 15.8058 11.0222 16.3167 10.4246 16.6637C9.60526 17.136 8.67991 17.3288 7.97144 16.5383C7.5184 16.0323 7.58587 15.266 7.74492 14.6539C7.94734 13.8731 8.35218 13.1454 8.84859 12.514C9.34982 11.8827 9.99564 11.2995 10.7716 11.0296C11.5331 10.7645 12.3669 10.8899 13.1139 11.1597C14.0151 11.4875 14.8537 12.0369 15.5092 12.7357C16.0104 13.2755 16.5406 14.0515 16.3526 14.8322C16.3285 14.9334 16.4827 14.9865 16.5068 14.8852C16.6659 14.2105 16.3526 13.5502 15.9574 13.0201C15.4224 12.3068 14.6754 11.7333 13.885 11.3236C13.1283 10.9332 12.2656 10.6585 11.4078 10.7308C10.5788 10.7983 9.84624 11.2513 9.26307 11.8152C8.62689 12.4273 8.12084 13.1888 7.7883 14.0081C7.52322 14.6636 7.33044 15.4588 7.5666 16.1528C7.80757 16.8613 8.6028 17.3336 9.34019 17.2468C10.2414 17.1408 10.9306 16.4564 11.7259 16.0853C12.5886 15.6853 13.5958 16.0709 14.4971 16.1191C15.4465 16.1721 16.2369 15.8588 16.5068 14.8852C16.5358 14.784 16.3815 14.7358 16.3526 14.8322Z" fill="#CAFF04"/>
<path d="M9.32977 9.6136C10.0683 9.17871 10.2247 8.07499 9.67908 7.14836C9.13345 6.22173 8.09242 5.8231 7.35386 6.25798C6.61531 6.69287 6.45892 7.79659 7.00456 8.72322C7.55019 9.64985 8.59122 10.0485 9.32977 9.6136Z" fill="#CAFF04"/>
<path d="M9.45156 6.95224C9.97207 7.65589 10.2034 8.84631 9.41301 9.46321C8.6949 10.0223 7.72135 9.55479 7.23458 8.92343C6.71407 8.24387 6.50683 7.10164 7.2153 6.46546C7.92859 5.81483 8.93587 6.31606 9.45156 6.95224C9.51422 7.03417 9.63471 6.92332 9.57205 6.84621C9.1142 6.27268 8.35271 5.8341 7.60086 6.06544C6.87793 6.28714 6.54538 7.04381 6.60804 7.7571C6.67551 8.55714 7.18156 9.32827 7.90449 9.68491C8.53585 9.99336 9.3118 9.91625 9.75519 9.34273C10.3287 8.60052 10.0829 7.54504 9.56723 6.84621C9.5094 6.75945 9.38891 6.8703 9.45156 6.95224Z" fill="#CAFF04"/>
<path d="M14.0917 7.10839C14.1251 6.02826 13.4621 5.13128 12.6108 5.10494C11.7594 5.0786 11.0422 5.93286 11.0088 7.013C10.9753 8.09313 11.6384 8.9901 12.4897 9.01645C13.3411 9.04279 14.0583 8.18852 14.0917 7.10839Z" fill="#CAFF04"/>
<path d="M13.9962 7.32834C13.8757 8.1573 13.2298 9.14048 12.2611 8.90433C11.3647 8.68745 11.0032 7.60787 11.1093 6.78855C11.2105 5.99815 11.8033 5.07761 12.7093 5.18846C13.707 5.30895 14.0829 6.47046 13.9962 7.32834C13.9865 7.42955 14.1456 7.43919 14.1552 7.33798C14.2371 6.55721 13.9865 5.65114 13.2732 5.2222C12.6467 4.84628 11.9045 5.04388 11.4466 5.58367C10.9117 6.21502 10.7912 7.16447 11.0707 7.9356C11.3117 8.58624 11.89 9.15494 12.6274 9.09711C13.519 9.02963 14.0347 8.14284 14.1504 7.3428C14.1697 7.23677 14.0106 7.22713 13.9962 7.32834Z" fill="#CAFF04"/>
<path d="M17.7422 9.92926C17.8937 9.14796 17.506 8.41563 16.8762 8.29355C16.2465 8.17148 15.6132 8.70589 15.4617 9.48719C15.3103 10.2685 15.698 11.0008 16.3278 11.1229C16.9575 11.245 17.5908 10.7106 17.7422 9.92926Z" fill="#CAFF04"/>
<path d="M17.6011 10.1577C17.3745 10.7408 16.7528 11.3047 16.0974 10.9577C15.5094 10.6444 15.4033 9.82995 15.6106 9.25642C15.813 8.68772 16.4155 8.15275 17.0468 8.43228C17.7023 8.71663 17.7938 9.55523 17.6011 10.1577C17.5673 10.2589 17.7215 10.3071 17.7553 10.2107C17.977 9.53114 17.842 8.59615 17.1095 8.27806C16.3914 7.96479 15.6877 8.54795 15.4564 9.20341C15.2154 9.87814 15.3793 10.8228 16.1022 11.136C16.8348 11.4541 17.5047 10.8613 17.7553 10.2107C17.789 10.1143 17.6396 10.0613 17.6011 10.1577Z" fill="#CAFF04"/>
<path d="M6.23397 13.2276C6.76242 12.864 6.82513 12.0378 6.37404 11.3822C5.92294 10.7265 5.12886 10.4898 4.6004 10.8534C4.07195 11.217 4.00924 12.0432 4.46034 12.6988C4.91143 13.3545 5.70552 13.5912 6.23397 13.2276Z" fill="#CAFF04"/>
<path d="M4.5635 12.9574C5.05509 13.4538 5.90815 13.7285 6.44794 13.1454C6.9829 12.5718 6.75639 11.6417 6.26479 11.1163C5.78766 10.6055 4.9105 10.3548 4.38036 10.9284C3.84057 11.5212 4.08636 12.4224 4.5635 12.9574C4.63097 13.0345 4.75146 12.9285 4.68399 12.8514C4.27915 12.3935 4.03335 11.632 4.45265 11.097C4.90568 10.5235 5.72019 10.7693 6.14912 11.2272C6.5636 11.6658 6.78048 12.4176 6.40456 12.9477C5.96116 13.5695 5.1322 13.3044 4.68399 12.8514C4.61169 12.7791 4.4912 12.8851 4.5635 12.9574Z" fill="#CAFF04"/>
</svg>
