<svg width="25" height="25" viewBox="0 0 25 25" fill="none" xmlns="http://www.w3.org/2000/svg">
<path fill-rule="evenodd" clip-rule="evenodd" d="M22.1004 12.4999C22.1004 17.8018 17.8023 22.0999 12.5004 22.0999C7.19846 22.0999 2.90039 17.8018 2.90039 12.4999C2.90039 7.19797 7.19846 2.8999 12.5004 2.8999C17.8023 2.8999 22.1004 7.19797 22.1004 12.4999ZM12.5004 8.8999C12.0577 8.8999 11.6695 9.13896 11.4602 9.50077C11.1284 10.0744 10.3943 10.2705 9.82061 9.93863C9.24694 9.60678 9.05091 8.8727 9.38276 8.29903C10.0034 7.22612 11.1664 6.4999 12.5004 6.4999C14.4886 6.4999 16.1004 8.11168 16.1004 10.0999C16.1004 11.6674 15.0986 13.0009 13.7004 13.4951V13.6999C13.7004 14.3626 13.1631 14.8999 12.5004 14.8999C11.8377 14.8999 11.3004 14.3626 11.3004 13.6999V12.4999C11.3004 11.8372 11.8377 11.2999 12.5004 11.2999C13.1631 11.2999 13.7004 10.7626 13.7004 10.0999C13.7004 9.43716 13.1631 8.8999 12.5004 8.8999ZM12.5004 18.4999C13.1631 18.4999 13.7004 17.9626 13.7004 17.2999C13.7004 16.6372 13.1631 16.0999 12.5004 16.0999C11.8376 16.0999 11.3004 16.6372 11.3004 17.2999C11.3004 17.9626 11.8376 18.4999 12.5004 18.4999Z" fill="#101010"/>
</svg>
