<svg width="20" height="21" viewBox="0 0 20 21" fill="none" xmlns="http://www.w3.org/2000/svg">
<g clip-path="url(#clip0_65_1407)">
<path d="M10 0.70459C4.47699 0.70459 0 5.18158 0 10.7046C0 16.2276 4.47699 20.7046 10 20.7046C15.523 20.7046 20 16.2276 20 10.7046C20 5.18158 15.523 0.70459 10 0.70459Z" fill="black"/>
<path d="M3.33446 9.95212C3.33446 9.95212 9.35431 7.39103 11.4421 6.48925C12.2424 6.12854 14.9566 4.97425 14.9566 4.97425C14.9566 4.97425 16.2093 4.46923 16.1049 5.69567C16.0701 6.2007 15.7918 7.96814 15.5133 9.87996C15.0958 12.5853 14.6434 15.5432 14.6434 15.5432C14.6434 15.5432 14.5739 16.3728 13.9823 16.5171C13.3907 16.6614 12.4165 16.0121 12.2424 15.8678C12.1033 15.7596 9.63267 14.1364 8.72796 13.3428C8.48438 13.1264 8.20603 12.6936 8.76282 12.1885C10.0155 10.9982 11.5117 9.51925 12.4165 8.58136C12.834 8.14849 13.2515 7.13852 11.5117 8.36496C9.04118 10.1325 6.60535 11.7917 6.60535 11.7917C6.60535 11.7917 6.04864 12.1524 5.00468 11.8278C3.9608 11.5032 2.74289 11.0703 2.74289 11.0703C2.74289 11.0703 1.90782 10.5292 3.33446 9.95212Z" fill="white"/>
</g>
<defs>
<clipPath id="clip0_65_1407">
<rect width="20" height="20" fill="white" transform="translate(0 0.70459)"/>
</clipPath>
</defs>
</svg>
