<svg width="20" height="21" viewBox="0 0 20 21" fill="none" xmlns="http://www.w3.org/2000/svg">
<path d="M18.1654 5.57639C17.5467 5.88409 16.928 5.98665 16.2062 6.08922C16.928 5.67896 17.4436 5.06357 17.6498 4.24306C17.0311 4.65332 16.3093 4.85845 15.4844 5.06357C14.8657 4.44819 13.9377 4.03793 13.0096 4.03793C11.2567 4.03793 9.70995 5.5764 9.70995 7.42255C9.70995 7.73024 9.70995 7.93537 9.81307 8.1405C7.02897 8.03793 4.45109 6.7046 2.80126 4.65332C2.49191 5.16614 2.3888 5.67896 2.3888 6.39691C2.3888 7.52511 3.00749 8.55075 3.93552 9.16614C3.41995 9.16614 2.90437 8.96101 2.3888 8.75588C2.3888 10.3969 3.52306 11.7302 5.06978 12.0379C4.76044 12.1405 4.45109 12.1405 4.14175 12.1405C3.93552 12.1405 3.72929 12.1405 3.52306 12.0379C3.93552 13.3713 5.1729 14.3969 6.71962 14.3969C5.58536 15.32 4.14175 15.8328 2.49191 15.8328C2.18257 15.8328 1.97634 15.8328 1.66699 15.8328C3.21372 16.7559 4.96667 17.3713 6.82274 17.3713C13.0096 17.3713 16.4124 12.2431 16.4124 7.8328C16.4124 7.73024 16.4124 7.52511 16.4124 7.42255C17.1342 6.90973 17.7529 6.29434 18.1654 5.57639Z" fill="#1B1B1B"/>
</svg>
