<svg width="51" height="49" viewBox="0 0 51 49" fill="none" xmlns="http://www.w3.org/2000/svg">
<g clip-path="url(#clip0_404_9751)">
<path d="M34.3824 20.8149C34.5377 13.0077 22.6788 14.0806 25.7281 0.499268C25.7281 0.499268 17.7657 3.63342 19.1634 13.2477C19.6434 16.5513 18.4858 19.0219 18.4858 19.0219C17.3139 19.2619 15.4927 16.9324 16.128 13.3324C16.128 13.3324 11.9492 16.4524 11.9492 20.4619C11.9492 24.4713 13.8833 28.7208 13.8833 28.7208C9.06912 27.6762 9.54912 21.1819 9.54912 21.1819C9.54912 21.1819 6.49966 25.2619 6.49966 32.9562C6.49966 38.9421 13.248 48.4999 24.1328 48.4999C35.0177 48.4999 43.7567 40.0574 43.7567 32.5468C43.7567 29.2572 42.6414 25.0079 40.2272 22.6926C40.2272 22.6926 40.5519 29.2572 37.3049 28.9468C37.3049 28.9468 39.9872 20.3772 37.1778 16.4524C37.1778 16.4524 35.8225 20.6877 34.3824 20.8149Z" fill="url(#paint0_linear_404_9751)"/>
<path d="M34.3978 14.9276C37.5601 9.09696 29.7248 8.29224 29.7108 4.7063C29.7108 4.7063 28.3272 8.40518 31.6308 10.9323C34.3272 12.9794 34.3978 14.9276 34.3978 14.9276Z" fill="url(#paint1_linear_404_9751)"/>
<path d="M17.765 3.77466C16.565 4.96055 18.2168 9.85945 14.4614 11.7936C14.4614 11.7936 13.1908 6.41469 17.765 3.77466Z" fill="url(#paint2_linear_404_9751)"/>
<path opacity="0.5" d="M8.97029 23.1451C7.92557 24.9381 6.49966 28.2558 6.49966 32.957C6.49966 38.2089 13.1915 47.8655 24.1328 47.8655C34.82 47.8655 43.1214 39.6348 43.1214 32.5617C43.1214 30.0064 42.4155 26.7453 40.8485 24.4298C40.7355 25.884 40.3825 27.8604 39.2955 28.8911C38.7308 29.4276 38.0249 29.6676 37.2483 29.583L36.4577 29.5123L36.6978 28.764C36.7259 28.6934 38.7731 22.0017 37.2906 18.0345C36.6978 19.4886 35.6813 21.3664 34.4389 21.4651L33.733 21.5215L33.7472 20.8158C33.8036 17.8932 32.0106 16.3404 29.9353 14.5474C26.9706 11.9779 23.6247 9.06966 24.8528 1.68604C22.7917 2.90017 18.7822 6.24609 19.7845 13.1497C20.2928 16.6086 19.0928 19.1781 19.0505 19.2911L18.9092 19.5875L18.5988 19.6439C18.0058 19.7568 17.3845 19.5168 16.8198 18.9804C16.0575 18.2322 15.3657 16.8204 15.3374 14.9003C14.1798 16.0862 12.5845 18.1332 12.5845 20.4628C12.5845 24.2887 14.448 28.4111 14.4621 28.4534L14.9845 29.6111L13.7421 29.343C10.495 28.637 9.28089 25.6158 8.97029 23.1451Z" fill="url(#paint3_linear_404_9751)"/>
<path d="M29.7085 4.7063C29.4262 6.8381 30.2732 9.90168 31.6285 10.9323C32.8709 11.8782 34.2685 13.5017 34.3815 14.9276C36.4992 10.777 33.5202 9.23813 31.812 8.63107C31.092 8.37694 29.7649 6.89457 29.7085 4.7063Z" fill="url(#paint4_radial_404_9751)"/>
<path d="M23.2011 4.09937C18.5139 11.4406 24.5987 19.1914 21.4645 23.8361C18.3305 28.4809 15.1539 24.1891 14.9421 21.2808C14.9421 21.2808 14.9703 30.6833 19.6151 34.3963C24.2598 38.1092 10.6785 37.3046 8.81496 32.7727C8.81496 32.7727 8.81496 47.8647 24.1328 47.8647C39.4506 47.8647 42.0059 33.8173 42.0059 33.8173C42.0059 33.8173 36.4295 38.5752 32.7164 34.8622C32.7164 34.8622 35.4977 29.9916 36.2036 24.9937C36.2036 24.9937 34.2836 26.208 31.333 25.742C31.333 25.742 32.9706 18.7255 29.6247 16.4242C25.3328 13.4736 21.7045 6.44293 23.2011 4.09937Z" fill="url(#paint5_linear_404_9751)"/>
<path d="M24.3725 12.7395C21.9159 15.9725 26.7018 24.2738 21.6759 27.5632C18.8946 29.3844 17.2994 27.1962 17.2994 27.1962C17.2994 27.1962 18.0476 30.5562 21.0406 33.5491C24.0335 36.5421 16.537 40.594 10.4522 35.3563C10.4522 35.3563 12.5417 47.9352 26.7018 45.8176C42.3303 43.4882 41.1726 31.8691 41.1726 31.8691C41.1726 31.8691 36.9373 38.5327 30.909 35.3421C30.909 35.3421 34.7067 30.048 34.7067 27.0126C34.7067 27.0126 32.1373 28.5374 29.2007 27.0691C29.2007 27.0691 30.5984 20.0102 28.9325 18.9513C24.9371 16.396 24.3725 12.7395 24.3725 12.7395Z" fill="url(#paint6_linear_404_9751)"/>
<path opacity="0.5" d="M34.3824 20.8149C34.5377 13.0077 22.6788 14.0806 25.7281 0.499268C25.7281 0.499268 17.7657 3.63342 19.1634 13.2477C19.6434 16.5513 18.4858 19.0219 18.4858 19.0219C17.3139 19.2619 15.4927 16.9324 16.128 13.3324C16.128 13.3324 11.9492 16.4524 11.9492 20.4619C11.9492 24.4713 13.8833 28.7208 13.8833 28.7208C9.06912 27.6762 9.54912 21.1819 9.54912 21.1819C9.54912 21.1819 6.49966 25.2619 6.49966 32.9562C6.49966 38.9421 13.248 48.4999 24.1328 48.4999C35.0177 48.4999 43.7567 40.0574 43.7567 32.5468C43.7567 29.2572 42.6414 25.0079 40.2272 22.6926C40.2272 22.6926 40.5519 29.2572 37.3049 28.9468C37.3049 28.9468 39.9872 20.3772 37.1778 16.4524C37.1778 16.4524 35.8225 20.6877 34.3824 20.8149Z" fill="url(#paint7_radial_404_9751)"/>
<path opacity="0.5" d="M34.3824 20.8149C34.5377 13.0077 22.6788 14.0806 25.7281 0.499268C25.7281 0.499268 17.7657 3.63342 19.1634 13.2477C19.6434 16.5513 18.4858 19.0219 18.4858 19.0219C17.3139 19.2619 15.4927 16.9324 16.128 13.3324C16.128 13.3324 11.9492 16.4524 11.9492 20.4619C11.9492 24.4713 13.8833 28.7208 13.8833 28.7208C9.06912 27.6762 9.54912 21.1819 9.54912 21.1819C9.54912 21.1819 6.49966 25.2619 6.49966 32.9562C6.49966 38.9421 13.248 48.4999 24.1328 48.4999C35.0177 48.4999 43.7567 40.0574 43.7567 32.5468C43.7567 29.2572 42.6414 25.0079 40.2272 22.6926C40.2272 22.6926 40.5519 29.2572 37.3049 28.9468C37.3049 28.9468 39.9872 20.3772 37.1778 16.4524C37.1778 16.4524 35.8225 20.6877 34.3824 20.8149Z" fill="url(#paint8_radial_404_9751)"/>
<path d="M7.4606 29.6809C7.78532 37.6574 14.3501 47.2151 24.6138 47.2151C34.8774 47.2151 40.0023 36.3868 40.327 30.0479C40.327 30.0479 38.407 33.7749 34.0727 34.5232C29.7385 35.2715 34.3691 27.069 31.3338 22.2124C31.3338 22.2124 28.6515 30.669 24.8396 30.9796C21.0279 31.2902 17.7949 25.389 17.7949 22.2124C17.7949 22.2124 15.4513 27.9302 16.0301 32.4762C16.9196 39.3798 7.4606 29.6809 7.4606 29.6809Z" fill="url(#paint9_radial_404_9751)"/>
<path opacity="0.5" d="M34.3824 20.8149C34.5377 13.0077 22.6788 14.0806 25.7281 0.499268C25.7281 0.499268 17.7657 3.63342 19.1634 13.2477C19.6434 16.5513 18.4858 19.0219 18.4858 19.0219C17.3139 19.2619 15.4927 16.9324 16.128 13.3324C16.128 13.3324 11.9492 16.4524 11.9492 20.4619C11.9492 24.4713 13.8833 28.7208 13.8833 28.7208C9.06912 27.6762 9.54912 21.1819 9.54912 21.1819C9.54912 21.1819 6.49966 25.2619 6.49966 32.9562C6.49966 38.9421 13.248 48.4999 24.1328 48.4999C35.0177 48.4999 43.7567 40.0574 43.7567 32.5468C43.7567 29.2572 42.6414 25.0079 40.2272 22.6926C40.2272 22.6926 40.5519 29.2572 37.3049 28.9468C37.3049 28.9468 39.9872 20.3772 37.1778 16.4524C37.1778 16.4524 35.8225 20.6877 34.3824 20.8149Z" fill="url(#paint10_radial_404_9751)"/>
<path opacity="0.5" d="M34.3978 14.9276C37.5601 9.09696 29.7248 8.29224 29.7108 4.7063C29.7108 4.7063 28.3272 8.40518 31.6308 10.9323C34.3272 12.9794 34.3978 14.9276 34.3978 14.9276Z" fill="url(#paint11_radial_404_9751)"/>
<path d="M17.765 3.77466C16.5791 4.96055 17.3414 8.70179 14.4614 11.7936C14.4614 11.7936 13.1908 6.41469 17.765 3.77466Z" fill="url(#paint12_radial_404_9751)"/>
<path opacity="0.5" d="M17.765 3.77466C16.565 4.96055 18.2168 9.85945 14.4614 11.7936C14.4614 11.7936 13.1908 6.41469 17.765 3.77466Z" fill="url(#paint13_radial_404_9751)"/>
<path opacity="0.5" d="M34.3824 20.8149C34.5377 13.0077 22.6788 14.0806 25.7281 0.499268C25.7281 0.499268 17.7657 3.63342 19.1634 13.2477C19.6434 16.5513 18.4858 19.0219 18.4858 19.0219C17.3139 19.2619 15.4927 16.9324 16.128 13.3324C16.128 13.3324 11.9492 16.4524 11.9492 20.4619C11.9492 24.4713 13.8833 28.7208 13.8833 28.7208C9.06912 27.6762 9.54912 21.1819 9.54912 21.1819C9.54912 21.1819 6.49966 25.2619 6.49966 32.9562C6.49966 38.9421 13.248 48.4999 24.1328 48.4999C35.0177 48.4999 43.7567 40.0574 43.7567 32.5468C43.7567 29.2572 42.6414 25.0079 40.2272 22.6926C40.2272 22.6926 40.5519 29.2572 37.3049 28.9468C37.3049 28.9468 39.9872 20.3772 37.1778 16.4524C37.1778 16.4524 35.8225 20.6877 34.3824 20.8149Z" fill="url(#paint14_radial_404_9751)"/>
<path opacity="0.25" d="M34.3824 20.8149C34.5377 13.0077 22.6788 14.0806 25.7281 0.499268C25.7281 0.499268 17.7657 3.63342 19.1634 13.2477C19.6434 16.5513 18.4858 19.0219 18.4858 19.0219C17.3139 19.2619 15.4927 16.9324 16.128 13.3324C16.128 13.3324 11.9492 16.4524 11.9492 20.4619C11.9492 24.4713 13.8833 28.7208 13.8833 28.7208C9.06912 27.6762 9.54912 21.1819 9.54912 21.1819C9.54912 21.1819 6.49966 25.2619 6.49966 32.9562C6.49966 38.9421 13.248 48.4999 24.1328 48.4999C35.0177 48.4999 43.7567 40.0574 43.7567 32.5468C43.7567 29.2572 42.6414 25.0079 40.2272 22.6926C40.2272 22.6926 40.5519 29.2572 37.3049 28.9468C37.3049 28.9468 39.9872 20.3772 37.1778 16.4524C37.1778 16.4524 35.8225 20.6877 34.3824 20.8149Z" fill="url(#paint15_radial_404_9751)"/>
<path opacity="0.25" d="M34.3824 20.8149C34.5377 13.0077 22.6788 14.0806 25.7281 0.499268C25.7281 0.499268 17.7657 3.63342 19.1634 13.2477C19.6434 16.5513 18.4858 19.0219 18.4858 19.0219C17.3139 19.2619 15.4927 16.9324 16.128 13.3324C16.128 13.3324 11.9492 16.4524 11.9492 20.4619C11.9492 24.4713 13.8833 28.7208 13.8833 28.7208C9.06912 27.6762 9.54912 21.1819 9.54912 21.1819C9.54912 21.1819 6.49966 25.2619 6.49966 32.9562C6.49966 38.9421 13.248 48.4999 24.1328 48.4999C35.0177 48.4999 43.7567 40.0574 43.7567 32.5468C43.7567 29.2572 42.6414 25.0079 40.2272 22.6926C40.2272 22.6926 40.5519 29.2572 37.3049 28.9468C37.3049 28.9468 39.9872 20.3772 37.1778 16.4524C37.1778 16.4524 35.8225 20.6877 34.3824 20.8149Z" fill="url(#paint16_radial_404_9751)"/>
<path opacity="0.25" d="M34.3824 20.8149C34.5377 13.0077 22.6788 14.0806 25.7281 0.499268C25.7281 0.499268 17.7657 3.63342 19.1634 13.2477C19.6434 16.5513 18.4858 19.0219 18.4858 19.0219C17.3139 19.2619 15.4927 16.9324 16.128 13.3324C16.128 13.3324 11.9492 16.4524 11.9492 20.4619C11.9492 24.4713 13.8833 28.7208 13.8833 28.7208C9.06912 27.6762 9.54912 21.1819 9.54912 21.1819C9.54912 21.1819 6.49966 25.2619 6.49966 32.9562C6.49966 38.9421 13.248 48.4999 24.1328 48.4999C35.0177 48.4999 43.7567 40.0574 43.7567 32.5468C43.7567 29.2572 42.6414 25.0079 40.2272 22.6926C40.2272 22.6926 40.5519 29.2572 37.3049 28.9468C37.3049 28.9468 39.9872 20.3772 37.1778 16.4524C37.1778 16.4524 35.8225 20.6877 34.3824 20.8149Z" fill="url(#paint17_radial_404_9751)"/>
</g>
<defs>
<linearGradient id="paint0_linear_404_9751" x1="27.5156" y1="49.8266" x2="18.861" y2="-12.8921" gradientUnits="userSpaceOnUse">
<stop stop-color="#FF0000"/>
<stop offset="0.2317" stop-color="#FF1500"/>
<stop offset="0.7367" stop-color="#FF3D00"/>
<stop offset="0.9987" stop-color="#FF4C00"/>
</linearGradient>
<linearGradient id="paint1_linear_404_9751" x1="37.6582" y1="48.4273" x2="29.0036" y2="-14.2916" gradientUnits="userSpaceOnUse">
<stop stop-color="#FF0000"/>
<stop offset="0.2317" stop-color="#FF1500"/>
<stop offset="0.7367" stop-color="#FF3D00"/>
<stop offset="0.9987" stop-color="#FF4C00"/>
</linearGradient>
<linearGradient id="paint2_linear_404_9751" x1="22.0088" y1="50.5866" x2="13.3542" y2="-12.1322" gradientUnits="userSpaceOnUse">
<stop stop-color="#FF0000"/>
<stop offset="0.2317" stop-color="#FF1500"/>
<stop offset="0.7367" stop-color="#FF3D00"/>
<stop offset="0.9987" stop-color="#FF4C00"/>
</linearGradient>
<linearGradient id="paint3_linear_404_9751" x1="27.2825" y1="39.144" x2="8.37065" y2="-14.8667" gradientUnits="userSpaceOnUse">
<stop stop-color="#FF8000"/>
<stop offset="0.6388" stop-color="#FF5B00"/>
<stop offset="0.9987" stop-color="#FF4C00"/>
</linearGradient>
<radialGradient id="paint4_radial_404_9751" cx="0" cy="0" r="1" gradientUnits="userSpaceOnUse" gradientTransform="translate(35.3811 -4.81277) scale(25.2019 25.2019)">
<stop offset="0.00134333" stop-color="#FFED1C" stop-opacity="0.6"/>
<stop offset="0.9477" stop-color="#FFED1C" stop-opacity="0.0264782"/>
<stop offset="0.9914" stop-color="#FFED1C" stop-opacity="0"/>
</radialGradient>
<linearGradient id="paint5_linear_404_9751" x1="19.9386" y1="3.10138" x2="26.7769" y2="41.4591" gradientUnits="userSpaceOnUse">
<stop stop-color="#FF8000"/>
<stop offset="0.022669" stop-color="#FE7F02" stop-opacity="0.9773"/>
<stop offset="0.6663" stop-color="#ED582A" stop-opacity="0.3337"/>
<stop offset="1" stop-color="#E74939" stop-opacity="0"/>
</linearGradient>
<linearGradient id="paint6_linear_404_9751" x1="25.2485" y1="44.5511" x2="26.7265" y2="17.6179" gradientUnits="userSpaceOnUse">
<stop stop-color="#FFBC47"/>
<stop offset="0.1869" stop-color="#FFB137" stop-opacity="0.8131"/>
<stop offset="0.7223" stop-color="#FF940F" stop-opacity="0.2777"/>
<stop offset="1" stop-color="#FF8900" stop-opacity="0"/>
</linearGradient>
<radialGradient id="paint7_radial_404_9751" cx="0" cy="0" r="1" gradientUnits="userSpaceOnUse" gradientTransform="translate(24.8814 37.2825) scale(19.495 15.826)">
<stop offset="0.00134333" stop-color="#FFBC47"/>
<stop offset="0.2941" stop-color="#FFBF4B" stop-opacity="0.7068"/>
<stop offset="0.5624" stop-color="#FEC656" stop-opacity="0.4382"/>
<stop offset="0.8201" stop-color="#FCD368" stop-opacity="0.1801"/>
<stop offset="1" stop-color="#FBE07A" stop-opacity="0"/>
</radialGradient>
<radialGradient id="paint8_radial_404_9751" cx="0" cy="0" r="1" gradientUnits="userSpaceOnUse" gradientTransform="translate(24.8814 36.4812) scale(18.8943 15.3384)">
<stop offset="0.00134333" stop-color="white"/>
<stop offset="1" stop-color="white" stop-opacity="0"/>
</radialGradient>
<radialGradient id="paint9_radial_404_9751" cx="0" cy="0" r="1" gradientUnits="userSpaceOnUse" gradientTransform="translate(16.5976 39.9662) scale(23.2102 27.0238)">
<stop offset="0.00134333" stop-color="#FFED1C" stop-opacity="0.6"/>
<stop offset="0.9477" stop-color="#FFED1C" stop-opacity="0.0264782"/>
<stop offset="0.9914" stop-color="#FFED1C" stop-opacity="0"/>
</radialGradient>
<radialGradient id="paint10_radial_404_9751" cx="0" cy="0" r="1" gradientUnits="userSpaceOnUse" gradientTransform="translate(24.8825 36.4792) rotate(92.8876) scale(7.33557 5.95469)">
<stop offset="0.00134333" stop-color="white"/>
<stop offset="1" stop-color="white" stop-opacity="0"/>
</radialGradient>
<radialGradient id="paint11_radial_404_9751" cx="0" cy="0" r="1" gradientUnits="userSpaceOnUse" gradientTransform="translate(28.9386 4.69291) scale(8.32646 8.32647)">
<stop offset="0.00134333" stop-color="#FFED1C"/>
<stop offset="0.1997" stop-color="#FFEE2B" stop-opacity="0.8013"/>
<stop offset="0.5839" stop-color="#FFF254" stop-opacity="0.4167"/>
<stop offset="1" stop-color="#FFF686" stop-opacity="0"/>
</radialGradient>
<radialGradient id="paint12_radial_404_9751" cx="0" cy="0" r="1" gradientUnits="userSpaceOnUse" gradientTransform="translate(15.2068 8.69966) rotate(-56.4116) scale(6.7446 1.53173)">
<stop offset="0.00134333" stop-color="#FFED1C" stop-opacity="0.6"/>
<stop offset="0.9477" stop-color="#FFED1C" stop-opacity="0.0264782"/>
<stop offset="0.9914" stop-color="#FFED1C" stop-opacity="0"/>
</radialGradient>
<radialGradient id="paint13_radial_404_9751" cx="0" cy="0" r="1" gradientUnits="userSpaceOnUse" gradientTransform="translate(16.5425 3.4108) rotate(95.0573) scale(6.06036 2.4385)">
<stop offset="0.00134333" stop-color="#FFED1C"/>
<stop offset="0.1997" stop-color="#FFEE2B" stop-opacity="0.8013"/>
<stop offset="0.5839" stop-color="#FFF254" stop-opacity="0.4167"/>
<stop offset="1" stop-color="#FFF686" stop-opacity="0"/>
</radialGradient>
<radialGradient id="paint14_radial_404_9751" cx="0" cy="0" r="1" gradientUnits="userSpaceOnUse" gradientTransform="translate(27.0872 3.62453) scale(25.981 25.981)">
<stop offset="0.00134333" stop-color="#FF4C00"/>
<stop offset="0.135" stop-color="#FF5B0C" stop-opacity="0.8661"/>
<stop offset="0.3941" stop-color="#FF842C" stop-opacity="0.6067"/>
<stop offset="0.7491" stop-color="#FFC45F" stop-opacity="0.2512"/>
<stop offset="1" stop-color="#FFF686" stop-opacity="0"/>
</radialGradient>
<radialGradient id="paint15_radial_404_9751" cx="0" cy="0" r="1" gradientUnits="userSpaceOnUse" gradientTransform="translate(38.9041 24.6732) scale(13.7903)">
<stop offset="0.00134333" stop-color="#FFED1C"/>
<stop offset="0.1997" stop-color="#FFEE2B" stop-opacity="0.8013"/>
<stop offset="0.5839" stop-color="#FFF254" stop-opacity="0.4167"/>
<stop offset="1" stop-color="#FFF686" stop-opacity="0"/>
</radialGradient>
<radialGradient id="paint16_radial_404_9751" cx="0" cy="0" r="1" gradientUnits="userSpaceOnUse" gradientTransform="translate(10.675 29.5881) scale(14.6987 14.6987)">
<stop offset="0.00134333" stop-color="#FFED1C"/>
<stop offset="0.1997" stop-color="#FFEE2B" stop-opacity="0.8013"/>
<stop offset="0.5839" stop-color="#FFF254" stop-opacity="0.4167"/>
<stop offset="1" stop-color="#FFF686" stop-opacity="0"/>
</radialGradient>
<radialGradient id="paint17_radial_404_9751" cx="0" cy="0" r="1" gradientUnits="userSpaceOnUse" gradientTransform="translate(24.662 26.6174) rotate(86.1102) scale(25.1777 15.3055)">
<stop stop-color="#FF4C00" stop-opacity="0"/>
<stop offset="0.9874" stop-color="#FF4C00" stop-opacity="0.9888"/>
<stop offset="0.9987" stop-color="#FF4C00"/>
</radialGradient>
<clipPath id="clip0_404_9751">
<rect width="49.7143" height="48" fill="white" transform="translate(0.842865 0.5)"/>
</clipPath>
</defs>
</svg>
