<svg width="47" height="49" viewBox="0 0 47 49" fill="none" xmlns="http://www.w3.org/2000/svg">
<g clip-path="url(#clip0_404_9718)">
<path d="M5.84201 47.2835L34.5265 33.984L14.0303 13.4883L0.730682 42.1595C0.539961 42.6173 -0.18478 44.4608 1.78601 46.2154C3.92209 48.1099 5.38428 47.4742 5.84201 47.2835Z" fill="url(#paint0_linear_404_9718)"/>
<path d="M11.1568 19.6797L9.02069 24.3205C8.33408 25.9861 20.5149 38.281 27.3936 37.2893L34.5265 33.9835C26.0712 37.8869 10.1141 21.9429 11.1568 19.6797Z" fill="url(#paint1_linear_404_9718)"/>
<path d="M6.83427 29.0383L6.3384 30.0937L4.66005 33.7046C4.64735 35.1286 11.9837 42.4523 16.5737 42.2996L22.3971 39.6041C16.0906 40.6975 6.10954 30.5769 6.83427 29.0383Z" fill="url(#paint2_linear_404_9718)"/>
<path d="M0.870972 41.8794C1.48128 43.1001 4.46925 46.0753 6.94863 46.7745L13.1026 43.9265L13.1407 43.901C9.35172 45.643 2.94347 39.1839 2.82904 37.6836L0.870972 41.8794Z" fill="url(#paint3_linear_404_9718)"/>
<path opacity="0.75" d="M5.84201 47.2835L34.5265 33.984L14.0303 13.4883L0.730682 42.1595C0.539961 42.6173 -0.18478 44.4608 1.78601 46.2154C3.92209 48.1099 5.38428 47.4742 5.84201 47.2835Z" fill="url(#paint4_radial_404_9718)"/>
<path opacity="0.75" d="M5.84201 47.2835L34.5265 33.984L14.0303 13.4883L0.730682 42.1595C0.539961 42.6173 -0.18478 44.4608 1.78601 46.2154C3.92209 48.1099 5.38428 47.4742 5.84201 47.2835Z" fill="url(#paint5_radial_404_9718)"/>
<path d="M23.834 13.5895C23.4907 14.2887 22.8169 14.3905 22.3209 14.2379L23.1347 12.6231C23.1347 12.6231 24.0502 12.8266 24.0756 12.229L24.1137 13.0682L23.834 13.5895Z" fill="url(#paint6_linear_404_9718)"/>
<path d="M26.1094 4.68968C26.1094 4.68968 26.6942 4.42269 27.063 3.65981C27.4316 2.89694 25.6136 1.46021 25.6136 1.46021L24.7616 2.94781C24.7616 2.94781 26.1984 3.88867 25.7534 4.20654C25.2956 4.5244 26.1094 4.68968 26.1094 4.68968Z" fill="url(#paint7_linear_404_9718)"/>
<path d="M40.9852 16.9204C41.2523 14.581 39.6756 13.8054 39.1035 13.869C39.1035 13.869 39.0017 13.1061 40.019 12.8645C40.6928 12.712 42.4092 14.2377 41.9643 15.9669L40.9852 16.9204Z" fill="url(#paint8_linear_404_9718)"/>
<path d="M34.7683 33.8054C33.3441 35.2294 27.5971 31.7712 21.9136 26.1005C16.2428 20.4298 12.7844 14.6701 14.2085 13.2461C15.6325 11.8221 21.3796 15.2804 27.0632 20.951C32.7339 26.6346 36.1796 32.3814 34.7683 33.8054Z" fill="url(#paint9_linear_404_9718)"/>
<path d="M34.2859 32.8641C33.2051 33.9449 28.0428 30.5373 22.7662 25.2481C17.4896 19.9589 14.0694 14.8095 15.1501 13.7288C16.2309 12.6481 21.3931 16.0555 26.6697 21.3447C31.9464 26.634 35.3665 31.7834 34.2859 32.8641Z" fill="url(#paint10_linear_404_9718)"/>
<path d="M27.051 3.65942C27.051 3.65942 26.3897 5.07074 26.3008 5.22331C25.9702 5.78275 25.0421 5.97347 23.3765 5.74461C21.7107 5.51574 21.2277 5.60475 21.1513 5.61746C21.075 5.6429 20.096 4.85459 20.096 4.85459L20.1849 4.05357C20.1849 4.05357 20.4139 3.74843 21.1768 3.85014C22.5373 4.05357 26.5424 4.72744 27.051 3.65942Z" fill="url(#paint11_linear_404_9718)"/>
<path d="M30.3558 27.2705C31.6908 25.7449 32.9369 26.9399 33.7252 25.8465L32.3774 24.4734C31.5891 25.5542 30.4447 24.5369 29.0334 26.0246L30.3558 27.2705Z" fill="url(#paint12_linear_404_9718)"/>
<path d="M15.8741 8.758C17.7177 9.85144 16.0775 11.3518 17.1201 12.2036L18.5569 10.9195C17.5144 10.0676 19.0147 8.59272 17.171 7.49927L15.8741 8.758Z" fill="url(#paint13_linear_404_9718)"/>
<path d="M35.3904 14.4165C35.4412 14.4037 35.4667 14.0986 36.2168 13.5646C36.967 13.0306 38.658 13.857 38.8742 13.9842C39.103 14.1113 38.9123 16.2092 38.9123 16.2092C38.9123 16.2092 36.8017 13.9587 35.7464 14.48C34.691 14.9886 35.3904 14.4165 35.3904 14.4165Z" fill="url(#paint14_linear_404_9718)"/>
<path d="M35.6712 19.6424C35.6712 19.6424 35.595 20.4688 35.2136 20.8502C34.5268 21.5241 33.4334 20.5068 32.0475 20.8756C32.0475 20.8756 32.6833 19.2609 32.7468 19.1337C32.7468 19.1337 33.3064 18.7904 33.8785 19.1211C34.4633 19.4388 34.972 19.5406 35.328 19.3499C35.684 19.1592 35.6712 19.6424 35.6712 19.6424Z" fill="url(#paint15_linear_404_9718)"/>
<path d="M39.3963 16.0054C39.3963 16.0054 38.0358 16.6284 37.8577 16.7174C37.6798 16.8064 37.2729 13.6405 38.252 13.3226C39.2436 13.0048 39.9176 12.8903 40.0193 12.8776C40.1211 12.8522 38.3155 13.0429 39.3963 16.0054Z" fill="#FFBF00"/>
<path d="M35.2123 20.8369C35.7718 20.2521 36.5347 19.3875 36.4966 19.1459C36.3185 17.5947 35.0598 14.1745 36.2168 13.5515C36.2168 13.5515 35.1361 14.3144 34.8054 14.5432C34.4748 14.7721 34.2332 15.3824 34.2587 16.3868C34.3224 18.1414 35.7209 20.3156 35.2123 20.8369Z" fill="#FFBF00"/>
<path d="M31.3475 8.28833C30.4193 14.8109 23.9475 21.041 23.9475 21.041L24.8249 22.376C24.8249 22.376 31.8688 15.0397 32.7715 8.49175L31.3475 8.28833Z" fill="url(#paint16_linear_404_9718)"/>
<path d="M19.408 5.56673C19.2553 5.84644 19.7004 6.31687 20.7684 7.61375C21.8364 8.91063 24.6083 12.3436 23.82 13.5896L24.6718 11.835C24.6718 11.835 24.6846 10.4364 23.8454 9.07593C22.523 6.9399 19.9928 4.63857 20.1835 4.06641L19.408 5.56673Z" fill="url(#paint17_linear_404_9718)"/>
<path d="M25.0798 25.4144C25.3677 25.4144 25.6011 25.1811 25.6011 24.8931C25.6011 24.6053 25.3677 24.3718 25.0798 24.3718C24.7918 24.3718 24.5585 24.6053 24.5585 24.8931C24.5585 25.1811 24.7918 25.4144 25.0798 25.4144Z" fill="url(#paint18_linear_404_9718)"/>
<path d="M32.3392 3.74889C32.627 3.74889 32.8604 3.51548 32.8604 3.22758C32.8604 2.93967 32.627 2.7063 32.3392 2.7063C32.0512 2.7063 31.8179 2.93967 31.8179 3.22758C31.8179 3.51548 32.0512 3.74889 32.3392 3.74889Z" fill="url(#paint19_linear_404_9718)"/>
<path d="M27.4438 11.3146C27.7318 11.3146 27.9651 11.0812 27.9651 10.7933C27.9651 10.5054 27.7318 10.272 27.4438 10.272C27.156 10.272 26.9225 10.5054 26.9225 10.7933C26.9225 11.0812 27.156 11.3146 27.4438 11.3146Z" fill="url(#paint20_linear_404_9718)"/>
<path d="M30.5345 20.8621C30.8224 20.8621 31.0558 20.6289 31.0558 20.3409C31.0558 20.053 30.8224 19.8196 30.5345 19.8196C30.2465 19.8196 30.0131 20.053 30.0131 20.3409C30.0131 20.6289 30.2465 20.8621 30.5345 20.8621Z" fill="url(#paint21_linear_404_9718)"/>
<path d="M43.9345 19.5911C44.2224 19.5911 44.4558 19.3577 44.4558 19.0699C44.4558 18.7819 44.2224 18.5486 43.9345 18.5486C43.6465 18.5486 43.4131 18.7819 43.4131 19.0699C43.4131 19.3577 43.6465 19.5911 43.9345 19.5911Z" fill="url(#paint22_linear_404_9718)"/>
<path d="M40.6173 30.5887C40.9053 30.5887 41.1385 30.3554 41.1385 30.0674C41.1385 29.7796 40.9053 29.5461 40.6173 29.5461C40.3294 29.5461 40.096 29.7796 40.096 30.0674C40.096 30.3554 40.3294 30.5887 40.6173 30.5887Z" fill="url(#paint23_linear_404_9718)"/>
<path d="M38.4422 23.8753C38.7302 23.8753 38.9637 23.642 38.9637 23.354C38.9637 23.0662 38.7302 22.8328 38.4422 22.8328C38.1544 22.8328 37.9209 23.0662 37.9209 23.354C37.9209 23.642 38.1544 23.8753 38.4422 23.8753Z" fill="url(#paint24_linear_404_9718)"/>
<path d="M41.3032 9.71128C41.5912 9.71128 41.8245 9.4779 41.8245 9.19C41.8245 8.90209 41.5912 8.6687 41.3032 8.6687C41.0153 8.6687 40.7819 8.90209 40.7819 9.19C40.7819 9.4779 41.0153 9.71128 41.3032 9.71128Z" fill="url(#paint25_linear_404_9718)"/>
<path d="M35.4548 11.4152C35.7427 11.4152 35.9761 11.1818 35.9761 10.8939C35.9761 10.606 35.7427 10.3726 35.4548 10.3726C35.1668 10.3726 34.9334 10.606 34.9334 10.8939C34.9334 11.1818 35.1668 11.4152 35.4548 11.4152Z" fill="url(#paint26_linear_404_9718)"/>
<path d="M30.9916 32.0124C36.3065 27.6514 45.3084 26.7487 45.3084 26.7487L45.6009 24.7397C45.6009 24.7397 34.946 26.0113 29.3006 30.9063C29.911 31.3258 30.4704 31.6946 30.9916 32.0124Z" fill="url(#paint27_linear_404_9718)"/>
<path d="M17.6537 19.4516C18.0097 19.9348 18.404 20.4179 18.8235 20.9265C19.9552 18.4345 19.7136 16.4764 19.7136 16.4764L18.3276 15.6118C18.4675 17.1503 17.9971 18.6252 17.6537 19.4516Z" fill="url(#paint28_linear_404_9718)"/>
</g>
<defs>
<linearGradient id="paint0_linear_404_9718" x1="-0.952587" y1="17.4938" x2="21.7398" y2="44.3859" gradientUnits="userSpaceOnUse">
<stop offset="0.2544" stop-color="#FBE07A"/>
<stop offset="1" stop-color="#FF40BF"/>
</linearGradient>
<linearGradient id="paint1_linear_404_9718" x1="11.3801" y1="19.4613" x2="30.2116" y2="38.2931" gradientUnits="userSpaceOnUse">
<stop offset="0.2544" stop-color="#9F00E8"/>
<stop offset="1" stop-color="#7000A3"/>
</linearGradient>
<linearGradient id="paint2_linear_404_9718" x1="6.16088" y1="29.7142" x2="19.2213" y2="42.7748" gradientUnits="userSpaceOnUse">
<stop offset="0.2544" stop-color="#9F00E8"/>
<stop offset="1" stop-color="#7000A3"/>
</linearGradient>
<linearGradient id="paint3_linear_404_9718" x1="2.21275" y1="38.2823" x2="10.4781" y2="46.5479" gradientUnits="userSpaceOnUse">
<stop offset="0.2544" stop-color="#9F00E8"/>
<stop offset="1" stop-color="#7000A3"/>
</linearGradient>
<radialGradient id="paint4_radial_404_9718" cx="0" cy="0" r="1" gradientUnits="userSpaceOnUse" gradientTransform="translate(11.3437 26.4918) rotate(119.598) scale(13.0272 3.9883)">
<stop stop-color="white" stop-opacity="0.5"/>
<stop offset="1" stop-color="white" stop-opacity="0"/>
</radialGradient>
<radialGradient id="paint5_radial_404_9718" cx="0" cy="0" r="1" gradientUnits="userSpaceOnUse" gradientTransform="translate(20.4984 38.1698) rotate(151.7) scale(20.6509 6.44071)">
<stop stop-color="#440063" stop-opacity="0.75"/>
<stop offset="1" stop-color="#420061" stop-opacity="0"/>
</radialGradient>
<linearGradient id="paint6_linear_404_9718" x1="23.9304" y1="13.1145" x2="27.0513" y2="12.1178" gradientUnits="userSpaceOnUse">
<stop stop-color="#BD2719"/>
<stop offset="1" stop-color="#FF4E0D"/>
</linearGradient>
<linearGradient id="paint7_linear_404_9718" x1="26.8315" y1="5.37119" x2="25.4342" y2="1.89966" gradientUnits="userSpaceOnUse">
<stop stop-color="#BD2719"/>
<stop offset="1" stop-color="#FF4E0D"/>
</linearGradient>
<linearGradient id="paint8_linear_404_9718" x1="42.3729" y1="15.9731" x2="37.1681" y2="12.6381" gradientUnits="userSpaceOnUse">
<stop stop-color="#FFCB4B"/>
<stop offset="1" stop-color="#E81CA2"/>
</linearGradient>
<linearGradient id="paint9_linear_404_9718" x1="29.0382" y1="9.17181" x2="17.4096" y2="45.835" gradientUnits="userSpaceOnUse">
<stop offset="0.2544" stop-color="#FBE07A"/>
<stop offset="1" stop-color="#E81CA2"/>
</linearGradient>
<linearGradient id="paint10_linear_404_9718" x1="32.8568" y1="17.5874" x2="15.0096" y2="30.1049" gradientUnits="userSpaceOnUse">
<stop stop-color="#FBE07A"/>
<stop offset="1" stop-color="white"/>
</linearGradient>
<linearGradient id="paint11_linear_404_9718" x1="18.4907" y1="4.86595" x2="24.2549" y2="4.77862" gradientUnits="userSpaceOnUse">
<stop stop-color="#BD2719"/>
<stop offset="1" stop-color="#FF4E0D"/>
</linearGradient>
<linearGradient id="paint12_linear_404_9718" x1="32.0585" y1="24.7438" x2="30.6724" y2="27.2308" gradientUnits="userSpaceOnUse">
<stop stop-color="#FF9214"/>
<stop offset="1" stop-color="#FF4E0D"/>
</linearGradient>
<linearGradient id="paint13_linear_404_9718" x1="15.8658" y1="5.62541" x2="17.9619" y2="11.6223" gradientUnits="userSpaceOnUse">
<stop stop-color="#80DAFE"/>
<stop offset="1" stop-color="#008EE6"/>
</linearGradient>
<linearGradient id="paint14_linear_404_9718" x1="37.2846" y1="17.2792" x2="36.8049" y2="11.2298" gradientUnits="userSpaceOnUse">
<stop stop-color="#FFCB4B"/>
<stop offset="1" stop-color="#E81CA2"/>
</linearGradient>
<linearGradient id="paint15_linear_404_9718" x1="32.2052" y1="19.8291" x2="35.5478" y2="20.3705" gradientUnits="userSpaceOnUse">
<stop stop-color="#FFCB4B"/>
<stop offset="1" stop-color="#E81CA2"/>
</linearGradient>
<linearGradient id="paint16_linear_404_9718" x1="29.9073" y1="8.52303" x2="24.9489" y2="28.9288" gradientUnits="userSpaceOnUse">
<stop offset="0.2544" stop-color="#E100FF"/>
<stop offset="1" stop-color="#7000A3"/>
</linearGradient>
<linearGradient id="paint17_linear_404_9718" x1="20.1544" y1="5.17868" x2="23.8224" y2="11.2921" gradientUnits="userSpaceOnUse">
<stop stop-color="#FF9214"/>
<stop offset="1" stop-color="#FF4E0D"/>
</linearGradient>
<linearGradient id="paint18_linear_404_9718" x1="24.0827" y1="21.959" x2="26.0622" y2="27.7813" gradientUnits="userSpaceOnUse">
<stop stop-color="#FFCB4B"/>
<stop offset="1" stop-color="#E81CA2"/>
</linearGradient>
<linearGradient id="paint19_linear_404_9718" x1="30.7488" y1="0.620374" x2="34.0091" y2="5.97687" gradientUnits="userSpaceOnUse">
<stop stop-color="#FBE07A"/>
<stop offset="1" stop-color="#E81CA2"/>
</linearGradient>
<linearGradient id="paint20_linear_404_9718" x1="27.3661" y1="10.5048" x2="28.1811" y2="13.5906" gradientUnits="userSpaceOnUse">
<stop stop-color="#80DAFE"/>
<stop offset="1" stop-color="#008EE6"/>
</linearGradient>
<linearGradient id="paint21_linear_404_9718" x1="30.1832" y1="19.3509" x2="30.6806" y2="20.7743" gradientUnits="userSpaceOnUse">
<stop stop-color="#80DAFE"/>
<stop offset="1" stop-color="#008EE6"/>
</linearGradient>
<linearGradient id="paint22_linear_404_9718" x1="44.3126" y1="17.8529" x2="43.3811" y2="20.8222" gradientUnits="userSpaceOnUse">
<stop stop-color="#FFCB4B"/>
<stop offset="1" stop-color="#E81CA2"/>
</linearGradient>
<linearGradient id="paint23_linear_404_9718" x1="40.4637" y1="26.7365" x2="40.7549" y2="33.083" gradientUnits="userSpaceOnUse">
<stop stop-color="#FFCB4B"/>
<stop offset="1" stop-color="#E81CA2"/>
</linearGradient>
<linearGradient id="paint24_linear_404_9718" x1="38.1008" y1="22.3689" x2="38.5982" y2="23.7923" gradientUnits="userSpaceOnUse">
<stop offset="0.2544" stop-color="#9F00E8"/>
<stop offset="1" stop-color="#7000A3"/>
</linearGradient>
<linearGradient id="paint25_linear_404_9718" x1="42.3153" y1="7.45281" x2="40.3941" y2="10.7715" gradientUnits="userSpaceOnUse">
<stop stop-color="#80DAFE"/>
<stop offset="1" stop-color="#008EE6"/>
</linearGradient>
<linearGradient id="paint26_linear_404_9718" x1="35.3203" y1="10.1542" x2="35.9608" y2="13.7058" gradientUnits="userSpaceOnUse">
<stop stop-color="#FF9214"/>
<stop offset="1" stop-color="#FF4E0D"/>
</linearGradient>
<linearGradient id="paint27_linear_404_9718" x1="25.6974" y1="28.1127" x2="44.2609" y2="28.4941" gradientUnits="userSpaceOnUse">
<stop stop-color="#80DAFE"/>
<stop offset="1" stop-color="#008EE6"/>
</linearGradient>
<linearGradient id="paint28_linear_404_9718" x1="15.4422" y1="26.0491" x2="19.8923" y2="14.9874" gradientUnits="userSpaceOnUse">
<stop stop-color="#FBE07A"/>
<stop offset="1" stop-color="#E81CA2"/>
</linearGradient>
<clipPath id="clip0_404_9718">
<rect width="46.4" height="48" fill="white" transform="translate(0.442841 0.5)"/>
</clipPath>
</defs>
</svg>
