<svg width="228" height="293" viewBox="0 0 228 293" fill="none" xmlns="http://www.w3.org/2000/svg">
<path d="M25.3328 249.637C23.4091 246.696 23.1287 240.037 23.2297 237.075C24.4318 235.543 27.3163 232.602 29.24 233.092C31.1637 233.581 33.0462 235.951 33.7472 237.075C31.7452 242.488 27.2565 252.578 25.3328 249.637Z" fill="#C86229" stroke="black"/>
<path d="M26.2315 223.899C26.4665 224.62 26.3366 225.791 26.2376 226.319C26.3284 225.953 27.2706 224.559 29.8376 225.432C32.5428 226.35 32.2417 230.334 31.9407 231.866C31.6417 233.399 30.1386 233.703 29.8376 235.236C29.5366 236.768 26.8315 238.912 25.6294 238.608C24.4273 238.301 22.9243 238.608 20.8212 234.317C19.1387 230.885 20.9222 229.211 22.0232 228.801C21.2212 228.291 19.6191 226.901 19.6191 225.432C19.6191 223.593 19.6191 221.755 22.0232 221.141C24.4274 220.53 25.9304 222.981 26.2315 223.899Z" fill="white" stroke="black"/>
<path d="M68.8308 267.023C63.1401 272.869 56.3009 276.448 49.8515 277.516C43.4 278.584 37.3444 277.138 33.198 272.94C29.0516 268.744 27.5878 262.581 28.5877 255.997C29.5857 249.412 33.0475 242.416 38.7382 236.57C44.4289 230.724 51.268 227.144 57.7174 226.077C64.1689 225.011 70.2246 226.457 74.3709 230.653C78.5173 234.849 79.9812 241.012 78.9812 247.597C77.9833 254.181 74.5214 261.179 68.8308 267.023Z" fill="#FEDA03" stroke="black" stroke-width="0.0932121"/>
<path d="M90.3671 240.985C88.035 226.094 72.7728 225.729 72.7728 225.729C70.2057 225.873 64.0358 225.341 64.0358 225.341L53.2508 226.092C53.2508 226.092 50.7073 221.553 48.138 221.719C46.1464 224.673 48.327 227.458 48.327 227.458C48.327 227.458 34.0884 229.5 27.7152 244.915C25.9231 249.25 23.1531 263.063 22.3888 269.663C21.086 280.913 26.8203 287.43 38.4277 287.186L44.421 286.916C46.2578 286.805 64.5468 285.702 66.4321 285.588L72.402 285.133L72.5191 285.129C84.233 283.965 88.6931 276.684 89.9959 265.434C90.7602 258.834 91.029 245.21 90.3671 240.985Z" fill="url(#paint0_linear_1_10515)"/>
<path d="M87.5194 239.571C85.3524 225.515 71.792 225.218 71.792 225.218C71.792 225.218 71.7489 222.609 70.5068 220.01C68.1056 220.144 64.6987 224.778 64.6987 224.778L52.8179 225.495C52.8179 225.495 50.4433 221.21 48.0399 221.366C46.1743 224.152 45.5223 226.803 45.5223 226.803C45.5223 226.803 32.2026 228.723 26.2268 243.27C24.5465 247.36 21.9424 260.397 21.2212 266.626C19.9919 277.243 25.3492 283.397 36.2061 283.173L41.812 282.921C43.5301 282.817 60.6374 281.785 62.4008 281.678L67.9851 281.251L68.0946 281.248C79.052 280.156 85.9196 273.264 87.1489 262.647C87.87 256.418 88.1345 243.559 87.5194 239.571Z" fill="url(#paint1_radial_1_10515)"/>
<path d="M62.312 282.425C60.3742 282.541 43.3464 283.569 41.7232 283.667L41.7122 283.668L36.1053 283.919L36.087 283.92C33.3203 283.977 30.851 283.629 28.7474 282.884C26.6553 282.144 24.9144 281.009 23.5726 279.512C22.2375 278.022 21.296 276.171 20.7746 274.011C20.2546 271.857 20.1511 269.388 20.4657 266.672C21.1654 260.629 23.7667 247.388 25.5283 243.099C26.9338 239.678 28.8582 236.652 31.2476 234.107C33.1633 232.066 35.3782 230.33 37.8302 228.948C41.0389 227.138 43.7871 226.419 44.9518 226.173C45.2549 225.208 46.0001 223.166 47.4279 221.035C47.5067 220.918 47.6123 220.817 47.7342 220.744C47.8561 220.671 47.99 220.629 48.1224 220.62L48.1348 220.619C49.3505 220.546 50.6327 221.292 51.9452 222.836C52.4442 223.429 52.8982 224.06 53.3043 224.725L64.3844 224.056C64.9514 223.333 65.559 222.638 66.2034 221.976C67.8949 220.25 69.369 219.338 70.5845 219.264L70.5969 219.264C70.7291 219.256 70.8549 219.283 70.9616 219.342C71.0682 219.402 71.1519 219.49 71.2043 219.6C72.1539 221.588 72.4342 223.564 72.5165 224.507C73.668 224.609 76.3807 224.996 79.2749 226.444C81.4785 227.547 83.3297 229.039 84.777 230.88C86.5838 233.178 87.7589 236.023 88.2698 239.336C88.5634 241.239 88.6813 245.181 88.5933 250.151C88.5086 254.94 88.2495 259.595 87.9012 262.602C87.5867 265.319 86.9053 267.835 85.8762 270.082C84.8426 272.336 83.4571 274.327 81.7558 276C80.0458 277.682 78.0158 279.044 75.7214 280.05C73.4145 281.06 70.829 281.714 68.037 281.992C68.0015 281.996 67.9662 281.997 67.9314 281.996L67.9085 281.997L62.3241 282.424L62.312 282.425ZM50.2179 281.674L62.4782 280.934L68.0563 280.507C68.0856 280.505 68.1148 280.505 68.1437 280.506L68.1478 280.505C70.7662 280.245 73.1789 279.637 75.3177 278.7C77.4001 277.788 79.2384 276.556 80.7803 275.04C82.3154 273.53 83.5698 271.726 84.5085 269.677C85.4641 267.592 86.0982 265.242 86.3934 262.692C86.7365 259.73 86.9914 255.129 87.0752 250.385C87.1606 245.563 87.0465 241.608 86.7675 239.805C86.2917 236.719 85.2045 234.074 83.5381 231.943C82.2045 230.238 80.4961 228.853 78.4599 227.826C76.992 227.089 75.4043 226.553 73.7327 226.227C72.48 225.986 71.6501 225.963 71.6418 225.963C71.472 225.958 71.3191 225.896 71.2083 225.786C71.0975 225.676 71.0355 225.525 71.0324 225.358C71.0321 225.335 70.9789 223.13 69.9989 220.836C69.2737 221.072 68.3064 221.784 67.2158 222.894C66.5244 223.604 65.879 224.354 65.285 225.14C65.2046 225.249 65.1008 225.341 64.9831 225.407C64.8654 225.474 64.7376 225.513 64.6113 225.521L52.731 226.238C52.6047 226.245 52.484 226.221 52.3801 226.168C52.2762 226.115 52.1923 226.034 52.1362 225.933C51.7171 225.21 51.2378 224.527 50.7023 223.893C49.8557 222.9 49.0407 222.295 48.3599 222.144C46.8313 224.588 46.2628 226.832 46.257 226.855C46.2148 227.025 46.1168 227.185 45.9792 227.31C45.8416 227.434 45.6726 227.516 45.5 227.541C45.4929 227.542 44.6773 227.664 43.3896 228.059C41.6564 228.595 39.96 229.33 38.3387 230.248C36.0673 231.536 34.017 233.15 32.2448 235.045C30.0274 237.415 28.2368 240.24 26.9212 243.44C26.1786 245.248 25.1515 249.159 24.1034 254.171C23.1427 258.765 22.3257 263.52 21.9711 266.582C21.6759 269.131 21.7708 271.437 22.2535 273.436C22.7275 275.399 23.5787 277.077 24.7834 278.421C25.9932 279.771 27.5698 280.797 29.4692 281.469C31.4174 282.158 33.7188 282.481 36.3097 282.428L41.9003 282.177L50.2179 281.674Z" fill="#47131A"/>
<path d="M67.0558 276.045C66.97 278.723 66.6809 280.886 66.6809 280.886L37.0106 282.677C35.7735 280.389 37.1301 279.962 37.5722 277.825C39.3202 262.727 68.2532 260.547 67.0558 276.045Z" fill="#FE7825"/>
<path d="M67.0558 276.045C66.97 278.723 66.6809 280.886 66.6809 280.886L37.0106 282.677C35.7735 280.389 37.1301 279.962 37.5722 277.825C39.3202 262.727 68.2532 260.547 67.0558 276.045Z" fill="url(#paint2_linear_1_10515)"/>
<path d="M86.5246 239.852C86.5246 239.852 84.4437 240.394 80.5982 244.598C77.0607 248.466 77.1048 254.972 86.5143 253.739C87.2119 247.75 86.5246 239.852 86.5246 239.852Z" fill="#FE7825"/>
<path d="M86.5246 239.852C86.5246 239.852 84.4437 240.394 80.5982 244.598C77.0607 248.466 77.1048 254.972 86.5143 253.739C87.2119 247.75 86.5246 239.852 86.5246 239.852Z" fill="url(#paint3_linear_1_10515)"/>
<path d="M22.7042 262.932C22.7042 262.932 27.5208 263.112 28.1229 258.35C28.5438 255.019 24.2269 254.99 24.2269 254.99L22.7042 262.932Z" fill="#FE7825"/>
<path d="M22.7042 262.932C22.7042 262.932 27.5208 263.112 28.1229 258.35C28.5438 255.019 24.2269 254.99 24.2269 254.99L22.7042 262.932Z" fill="url(#paint4_linear_1_10515)"/>
<path d="M71.7544 280.167C81.8246 277.297 85.6288 269.349 86.0252 260.028C84.9197 267.864 75.6826 275.033 71.8774 275.713C66.4346 264.803 55.6694 265.453 55.6694 265.453C64.1429 266.075 67.0484 271.206 66.8627 275.769C66.8627 275.769 66.8056 278.978 66.538 280.912C69.3623 280.741 71.7544 280.167 71.7544 280.167Z" fill="#F6A505"/>
<path d="M32.1495 282.333C22.6064 280.647 20.6003 273.049 22.3702 263.645C21.6652 271.458 29.3623 277.604 33.0627 277.831C41.1239 266.105 51.889 265.455 51.889 265.455C43.1518 267.116 39.01 272.673 38.1349 277.278C38.1349 277.278 37.4452 280.525 37.2663 282.453C34.4416 282.624 32.1495 282.333 32.1495 282.333Z" fill="#F6A505"/>
<path d="M52.7426 225.73C52.7426 225.73 55.457 235.607 46.9529 237.333C37.6149 239.229 36.0067 231.869 36.0067 231.869C37.137 230.918 41.4267 228.01 46.5563 227.028C47.8486 223.209 48.8995 221.842 48.8995 221.842C48.8995 221.842 50.4258 221.876 52.7426 225.73Z" fill="#FE7825"/>
<path d="M52.7426 225.73C52.7426 225.73 55.457 235.607 46.9529 237.333C37.6149 239.229 36.0067 231.869 36.0067 231.869C37.137 230.918 41.4267 228.01 46.5563 227.028C47.8486 223.209 48.8995 221.842 48.8995 221.842C48.8995 221.842 50.4258 221.876 52.7426 225.73Z" fill="url(#paint5_linear_1_10515)"/>
<g opacity="0.8" filter="url(#filter0_f_1_10515)">
<path fill-rule="evenodd" clip-rule="evenodd" d="M59.638 229.468C59.8342 229.313 59.9879 229.112 60.0795 228.891C60.2022 228.594 60.2046 228.281 60.0862 228.022C59.9677 227.763 59.7381 227.578 59.4479 227.508C59.2316 227.456 58.9931 227.471 58.7626 227.551C58.532 227.631 58.3198 227.772 58.1526 227.957C57.9855 228.141 57.871 228.361 57.8235 228.588C57.7761 228.815 57.7978 229.039 57.886 229.233C57.9742 229.426 58.125 229.579 58.3191 229.673C58.5133 229.767 58.7422 229.798 58.9769 229.761C59.2117 229.725 59.4417 229.623 59.638 229.468ZM63.8163 230.047C71.5825 230.736 77.8135 234.063 80.2282 235.814C82.6425 237.565 85.039 234.459 78.5424 230.913C74.1515 228.728 68.9867 227.689 64.4832 227.827C62.3068 227.894 60.2653 229.732 63.8163 230.047Z" fill="white"/>
</g>
<path d="M84.0742 252.207C84.0216 252.211 83.9701 252.207 83.9217 252.194L80.3819 251.292C80.2657 251.26 80.1753 251.183 80.13 251.078C80.0847 250.973 80.0882 250.848 80.1397 250.73C80.1912 250.612 80.2867 250.51 80.4055 250.447C80.5243 250.384 80.657 250.364 80.7751 250.392L84.315 251.294C84.421 251.321 84.507 251.385 84.5576 251.475C84.6082 251.565 84.6201 251.674 84.5911 251.784C84.5622 251.894 84.4943 251.997 84.3996 252.074C84.3049 252.151 84.1896 252.199 84.0742 252.207Z" fill="#47131A"/>
<path d="M84.8282 248.585L80.9251 248.859C80.7999 248.865 80.6854 248.825 80.606 248.749C80.5266 248.672 80.4886 248.565 80.5 248.45C80.5115 248.335 80.5715 248.22 80.6673 248.132C80.7631 248.043 80.8871 247.987 81.0129 247.975L84.916 247.701C85.0412 247.695 85.1557 247.735 85.2351 247.811C85.3145 247.888 85.3525 247.995 85.3411 248.11C85.3296 248.226 85.2696 248.34 85.1738 248.429C85.078 248.517 84.954 248.574 84.8282 248.585Z" fill="#47131A"/>
<path d="M28.3615 255.258C28.2467 255.266 28.1398 255.234 28.0599 255.167C27.9799 255.101 27.9322 255.005 27.9252 254.896C27.9181 254.788 27.9523 254.673 28.0215 254.574C28.0907 254.475 28.1905 254.397 28.303 254.354L32.0595 252.929C32.1223 252.904 32.1875 252.891 32.2514 252.89C32.3153 252.889 32.3765 252.901 32.4316 252.924C32.4866 252.948 32.5343 252.983 32.5719 253.027C32.6094 253.071 32.6362 253.123 32.6504 253.181C32.6647 253.239 32.6663 253.301 32.6551 253.363C32.6439 253.426 32.6201 253.487 32.5851 253.545C32.5501 253.602 32.5046 253.655 32.4513 253.698C32.398 253.742 32.3379 253.776 32.2746 253.799L28.5181 255.223C28.4668 255.243 28.4139 255.255 28.3615 255.258Z" fill="#47131A"/>
<path d="M32.3993 251.411L28.5045 251.664C28.4403 251.67 28.3777 251.664 28.3203 251.645C28.263 251.627 28.2122 251.597 28.1708 251.558C28.1294 251.519 28.0984 251.47 28.0794 251.416C28.0605 251.362 28.0541 251.303 28.0606 251.242C28.0671 251.181 28.0864 251.12 28.1173 251.063C28.1482 251.005 28.1902 250.952 28.2406 250.907C28.2911 250.861 28.349 250.825 28.4111 250.799C28.4732 250.773 28.5381 250.758 28.602 250.755L32.4967 250.502C32.6216 250.497 32.7353 250.538 32.8136 250.617C32.8919 250.697 32.9287 250.807 32.9159 250.926C32.9032 251.044 32.8421 251.162 32.7456 251.252C32.6491 251.343 32.5248 251.4 32.3993 251.411Z" fill="#47131A"/>
<path opacity="0.5" fill-rule="evenodd" clip-rule="evenodd" d="M73.9846 237.45C70.7126 237.716 68.1173 241.63 67.6769 246.932C67.2363 252.235 69.1339 255.733 72.2882 255.477C75.4434 255.221 78.0337 251.359 78.592 246.045C79.1502 240.736 77.2575 237.185 73.9846 237.45Z" fill="white"/>
<path fill-rule="evenodd" clip-rule="evenodd" d="M73.989 237.102C70.7332 237.368 68.1814 240.904 67.7876 245.662C67.3926 250.423 69.3183 253.542 72.4686 253.284C75.619 253.027 78.1659 249.543 78.6662 244.773C79.1664 240.006 77.2447 236.836 73.989 237.102Z" fill="#47131A"/>
<path fill-rule="evenodd" clip-rule="evenodd" d="M74.3632 241.732C74.261 242.795 73.2824 243.726 72.1776 243.816C71.0727 243.905 70.2521 243.12 70.3456 242.059C70.4381 240.996 71.418 240.057 72.5315 239.967C73.6451 239.876 74.4654 240.669 74.3632 241.732Z" fill="white"/>
<path fill-rule="evenodd" clip-rule="evenodd" d="M68.9931 258.88C69.1046 257.749 70.8304 257.151 72.9049 256.967C74.9792 256.784 77.083 257.059 76.9904 258.188C76.8977 259.317 74.7063 259.967 72.6179 260.151C70.5293 260.337 68.8815 260.012 68.9931 258.88Z" fill="#FFB43C"/>
<path opacity="0.5" fill-rule="evenodd" clip-rule="evenodd" d="M40.9904 240.099C37.7095 240.387 35.1524 244.317 34.7748 249.618C34.398 254.92 36.3454 258.404 39.5084 258.126C42.6704 257.85 45.2235 253.971 45.7191 248.658C46.2146 243.347 44.2713 239.812 40.9904 240.099Z" fill="white"/>
<path fill-rule="evenodd" clip-rule="evenodd" d="M41.0188 240.098C37.755 240.385 35.2367 243.936 34.9002 248.695C34.5635 253.455 36.5353 256.56 39.6936 256.283C42.8519 256.005 45.3641 252.505 45.8073 247.735C46.2503 242.968 44.2825 239.811 41.0188 240.098Z" fill="#47131A"/>
<path fill-rule="evenodd" clip-rule="evenodd" d="M43.3907 243.688C43.2992 244.752 42.3281 245.693 41.2203 245.791C40.1125 245.89 39.2808 245.112 39.3635 244.049C39.4453 242.986 40.418 242.039 41.5346 241.939C42.6511 241.839 43.4822 242.624 43.3907 243.688Z" fill="white"/>
<path fill-rule="evenodd" clip-rule="evenodd" d="M34.843 261.295C35.0325 260.097 37.243 259.569 39.3091 259.532C41.3761 259.495 42.9835 259.941 42.8118 261.139C42.642 262.336 40.8834 262.868 38.8023 262.905C36.7212 262.941 34.6535 262.493 34.843 261.295Z" fill="#FFB43C"/>
<path opacity="0.5" d="M62.8791 251.851L61.6807 252.167L61.6811 252.163C61.6803 252.171 61.7627 252.977 61.1509 253.646C60.5972 254.252 59.6328 254.609 58.2851 254.705C57.8624 254.735 57.5 254.678 57.2642 254.543C57.0985 254.448 56.8891 254.268 56.898 253.789C56.9048 253.743 56.9109 253.696 56.9155 253.648L57.0263 252.503C57.0335 252.429 57.0251 252.357 57.0015 252.29C56.978 252.223 56.9397 252.164 56.889 252.116C56.8383 252.067 56.7761 252.03 56.706 252.007C56.6358 251.983 56.5591 251.974 56.4802 251.98L56.4707 251.981C56.3918 251.986 56.3123 252.007 56.2366 252.04C56.161 252.074 56.0907 252.12 56.0298 252.177C55.9689 252.233 55.9186 252.299 55.8818 252.37C55.8449 252.441 55.8223 252.516 55.8151 252.59L55.7043 253.735C55.6997 253.782 55.6952 253.829 55.6943 253.875C55.6102 254.358 55.3627 254.572 55.1765 254.692C54.9115 254.863 54.5325 254.973 54.1094 255.004C52.7609 255.1 51.8537 254.878 51.4105 254.342C50.9202 253.751 51.1594 252.923 51.1618 252.915L51.1614 252.919L50.0083 252.77C49.9908 252.825 49.5962 254.124 50.4028 255.114C51.0558 255.916 52.2664 256.259 54.0011 256.135C54.9053 256.071 55.6481 255.758 56.1595 255.259C56.5808 255.692 57.2726 255.902 58.1768 255.837C59.9119 255.713 61.2063 255.19 62.0246 254.284C63.0317 253.164 62.8859 251.902 62.8791 251.851Z" fill="#F7F7F7"/>
<path d="M63.0452 250.574L61.8467 250.891L61.8471 250.887C61.8463 250.895 61.9284 251.7 61.3163 252.37C60.7624 252.976 59.7979 253.333 58.4502 253.429C58.0274 253.46 57.6651 253.402 57.4293 253.267C57.2637 253.173 57.0544 252.992 57.0634 252.514C57.0703 252.467 57.0764 252.42 57.081 252.373L57.1922 251.228C57.1994 251.153 57.191 251.081 57.1675 251.014C57.144 250.948 57.1058 250.888 57.0551 250.84C57.0044 250.791 56.9422 250.754 56.8721 250.731C56.8019 250.708 56.7252 250.699 56.6463 250.704L56.6368 250.705C56.5579 250.711 56.4784 250.731 56.4027 250.765C56.3271 250.798 56.2568 250.845 56.1959 250.901C56.135 250.958 56.0847 251.023 56.0478 251.094C56.0109 251.165 55.9882 251.24 55.981 251.314L55.8698 252.459C55.8652 252.507 55.8606 252.554 55.8597 252.6C55.7754 253.083 55.5278 253.296 55.3416 253.417C55.0765 253.588 54.6975 253.698 54.2744 253.728C52.9259 253.825 52.0188 253.603 51.5757 253.067C51.0857 252.477 51.3252 251.648 51.3276 251.64L51.3272 251.644L50.1742 251.496C50.1567 251.551 49.7616 252.85 50.5677 253.839C51.2205 254.641 52.4309 254.984 54.1656 254.86C55.0699 254.795 55.8128 254.482 56.3244 253.983C56.7455 254.416 57.4372 254.626 58.3415 254.561C60.0766 254.437 61.3711 253.914 62.1898 253.007C63.1973 251.887 63.052 250.626 63.0452 250.574Z" fill="#47131A"/>
<path d="M19.3663 272.979C18.3856 272.691 13.6581 266.042 11.4169 262.757L11.1552 262.905L9.43091 263.527L9.65358 269.003L9.49513 275.045L11.1787 280.048C12.2745 281.647 15.3542 285.466 18.8981 287.947C21.4795 281.941 19.5657 274.615 19.3663 272.979Z" fill="#C86229" stroke="black"/>
<path d="M6.93171 261.737C5.06143 263.354 4.35375 266.694 4.23351 268.162C4.55939 270.662 5.78643 276.599 8.0915 280.341C10.3948 284.084 16.6101 286.972 19.4303 287.949C18.3663 284.932 15.976 278.413 14.9295 276.484C13.6206 274.07 15.461 273.032 14.8525 271.276C14.243 269.518 12.1782 265.081 11.5418 262.639C10.9036 260.198 9.27015 259.719 6.93171 261.737Z" fill="url(#paint6_linear_1_10515)" stroke="black"/>
<path d="M80.7801 263.972C81.4296 261.096 83.7842 258.252 84.9863 257.537C86.9904 257.741 91.1182 258.334 91.5986 259.07C92.1986 259.988 92.1986 266.423 90.0955 269.488C87.9924 272.55 84.9862 271.939 83.4832 271.325C81.9821 270.713 79.877 267.955 80.7801 263.972Z" fill="#C86229" stroke="black"/>
<path d="M66.6206 278.155L64.1888 273.872L62.4515 276.606L60.3868 283.415L62.7802 289.562C64.0656 287.925 65.7973 285.151 66.8483 284.003C67.8996 282.857 67.2606 279.092 66.6206 278.155Z" fill="#C86229" stroke="#47131A"/>
<path d="M53.3928 272.684L56.9032 282.383L57.4604 284.157C57.4651 286.323 57.6977 290.934 58.5848 292.041C59.6927 293.425 61.7258 290.647 62.2329 289.951C62.6413 289.396 63.9223 284.747 64.5113 282.493C64.5755 280.108 64.6456 274.917 64.4036 273.22C64.1612 271.52 62.3673 268.876 61.5006 267.766C60.1218 266.631 56.8088 264.686 54.5679 266.008C52.3274 267.332 52.8519 271.01 53.3928 272.684Z" fill="url(#paint7_linear_1_10515)" stroke="#47131A"/>
<path d="M83.477 244.976C83.9574 240.317 86.2812 240.175 87.3822 240.685C87.4832 240.072 87.8647 238.539 88.5863 237.314C92.7925 236.395 93.9945 239.46 94.2955 240.378C94.5966 241.297 96.3986 243.748 96.3986 245.587C96.3986 247.424 96.3986 249.571 94.8976 251.715C93.3945 253.859 94.5966 254.473 93.9945 256.617C93.3945 258.763 89.7884 260.293 87.3822 259.375C84.9781 258.456 85.5801 256.924 86.1801 254.473C86.7822 252.022 86.1801 252.633 84.3781 251.715C82.574 250.796 82.875 250.796 83.477 244.976Z" fill="white" stroke="black"/>
<path d="M181.311 167.558C181.322 167.482 181.33 167.407 181.34 167.331C189.546 173.53 196.757 174.64 202.317 173.83C207.952 173.013 211.864 170.23 213.379 168.844C214.156 168.132 215.944 165.817 217.987 162.04C220.035 158.252 222.348 152.976 224.167 146.325C227.804 133.021 229.453 114.222 223.024 90.8515L223.016 90.8305C215.575 70.3522 209.488 59.1902 204.709 52.7958C202.319 49.5964 200.255 47.5911 198.515 46.21C197.212 45.1758 196.086 44.4905 195.161 43.9251C194.878 43.7548 194.614 43.5929 194.371 43.4374C185.425 25.2693 171.076 20.3189 164.194 19.1754C156.866 9.53115 147.656 10.0567 145.406 10.454C139.107 4.70064 131.349 2.27061 124.219 1.56852C117.106 0.866433 110.594 1.88176 106.724 3.05051C99.9324 0.452362 90.916 0.420817 81.0377 2.40516C71.1099 4.39792 60.2873 8.43385 49.9286 13.9896C29.2236 25.0948 10.3083 42.3107 4.16193 61.5151C0.955768 71.5378 3.19905 78.9833 7.56397 84.3015C11.8258 89.4936 18.0917 92.6362 23.1989 94.2064C23.0278 94.5217 22.7969 94.8413 22.5247 95.1797C22.3701 95.3731 22.2051 95.5707 22.034 95.7746L21.9577 95.8649C21.7598 96.1004 21.5556 96.3464 21.3536 96.6028C20.5474 97.6349 19.7721 98.8772 19.6175 100.542C19.4629 102.207 19.9309 104.248 21.5165 106.88C23.0979 109.509 25.803 112.747 30.1494 116.812C41.4153 127.942 57.6482 130.721 62.7883 131.602C62.9182 131.623 63.0399 131.644 63.1554 131.663C63.5595 133.645 64.0935 135.384 65.011 137.051C65.9574 138.77 67.3038 140.401 69.3141 142.14C73.3285 145.612 80.0171 149.545 91.5263 155.521C109.767 164.991 123.922 163.32 128.986 161.191C132.668 165.828 143.773 175.079 160.072 176.538C165.212 176.998 169.068 176.986 171.971 176.618C174.874 176.248 176.843 175.52 178.196 174.537C180.684 172.723 181.004 170.087 181.311 167.558Z" fill="#C4C4C4" stroke="black" stroke-width="0.268914"/>
<mask id="mask0_1_10515" style="mask-type:alpha" maskUnits="userSpaceOnUse" x="2" y="1" width="226" height="176">
<path d="M4.24817 61.5984C-2.10643 81.4608 13.1492 90.9727 23.4151 94.027C21.9079 97.5942 12.8069 100.367 30.1614 116.603C41.7984 128.103 58.786 130.643 63.2107 131.414C64.8354 139.587 68.4457 143.31 91.4744 155.266C109.897 164.831 124.097 162.97 128.893 160.843C132.398 165.369 143.507 174.784 159.919 176.253C180.435 178.088 180.228 172.362 180.948 166.811C197.567 179.633 210.047 171.347 213.016 168.629C215.985 165.911 235.41 137.559 222.579 90.9243C207.707 49.995 198.272 46.3879 193.979 43.6321C185.039 25.4135 170.651 20.5325 163.864 19.4331C156.453 9.59967 147.074 10.369 145.146 10.7537C132.623 -0.784512 114.188 1.00646 106.536 3.34395C79.6106 -7.07597 16.4749 23.3913 4.24817 61.5984Z" fill="#C4C4C4" stroke="black" stroke-width="0.268914"/>
</mask>
<g mask="url(#mask0_1_10515)">
<path d="M216.794 199.551C227.538 168.709 225.957 137.184 223.823 125.276L223.862 117.873L195.693 90.9958L170.819 138.317L157.31 180.415C172.66 199.645 206.047 230.392 216.794 199.551Z" fill="url(#paint8_linear_1_10515)" stroke="black" stroke-width="0.268914"/>
<path d="M176.651 180.941C187.397 150.099 185.814 118.575 183.68 106.666L183.719 99.263L155.55 72.386L130.676 119.708L117.169 161.806C132.519 181.035 165.905 211.782 176.651 180.941Z" fill="url(#paint9_linear_1_10515)" stroke="black" stroke-width="0.268914"/>
<path d="M59.2123 136.989C65.6164 110.48 94.6781 75.3017 108.408 61.0266C122.501 65.256 149.674 74.8329 152.294 75.7389C156.962 77.3554 141.051 135.265 127.865 163.7C102.313 165.842 52.8103 163.498 59.2123 136.989Z" fill="url(#paint10_linear_1_10515)" stroke="black" stroke-width="0.268914"/>
<path d="M116.333 56.7615C97.9369 68.2934 70.9865 110.967 61.9 132.087L47.0176 139.005L6.25293 125.734L18.9271 97.3228L56.0547 46.7262C63.5928 45.9568 86.2009 46.886 116.333 56.7615Z" fill="url(#paint11_linear_1_10515)" stroke="black" stroke-width="0.268914"/>
<path d="M17.5948 99.7718C29.805 80.0503 52.4502 58.956 62.246 50.8736L24.6195 48.0127L-6.10817 55.0042L-23.2441 73.1618C-14.7184 90.2495 5.38248 119.493 17.5948 99.7718Z" fill="url(#paint12_linear_1_10515)" stroke="black" stroke-width="0.268914"/>
<path d="M211.932 169.92C220.106 149.349 202.945 137.18 192.161 134.91L195.603 131.13L196.04 126.216L186.506 43.4953L203.543 36.8086L241.59 124.818C228.299 148.422 203.761 190.49 211.932 169.92Z" fill="url(#paint13_linear_1_10515)" stroke="black" stroke-width="0.268914"/>
<path d="M205.123 72.0855C213.255 104.72 199.668 127.643 191.858 135.023C197.062 130.09 188.194 112.214 173.579 104.544C166.398 100.775 158.427 97.4322 155.107 97.0013L151.61 85.1457L159.338 18.8718L171.571 15.0776C179.367 20.482 196.992 39.451 205.123 72.0855Z" fill="url(#paint14_linear_1_10515)" stroke="black" stroke-width="0.268914"/>
<path d="M155.247 97.8294C147.725 79.2471 110.932 59.885 91.8145 68.4194L113.247 24.8752L147.626 2.94437C147.626 2.94437 147.911 -6.1344 161.239 14.6298C174.564 35.396 170.323 59.3637 155.247 97.8294Z" fill="url(#paint15_linear_1_10515)" stroke="black" stroke-width="0.268914"/>
<path d="M92.6184 68.2872C76.2474 53.7871 47.6765 49.7532 39.1837 66.5424L28.1426 58.0963L58.5362 16.404L86.7505 2.10581L106.303 2.728L88.3442 -21.719L130.111 -14.6371L145.327 10.3312C120.066 20.0826 108.765 33.4224 92.6184 68.2872Z" fill="url(#paint16_linear_1_10515)" stroke="black" stroke-width="0.268914"/>
<path d="M39.405 66.637C17.2917 54.5417 5.62172 62.6599 2.55164 68.2303L1.51247 67.7468L-11.0957 49.8752L50.9369 -27.2979L106.522 2.82261C79.8171 4.2457 36.071 42.9615 39.405 66.637Z" fill="url(#paint17_linear_1_10515)" stroke="black" stroke-width="0.268914"/>
</g>
<path d="M21.7783 93.6177L25.0422 216.542" stroke="black" stroke-width="0.268914"/>
<path d="M39.4015 66.4778L25.6387 216.235" stroke="black" stroke-width="0.268914"/>
<path d="M62.0005 131.547L26.2305 216.237" stroke="black" stroke-width="0.268914"/>
<path d="M92.9283 68.0122L26.8359 216.542" stroke="black" stroke-width="0.268914"/>
<path d="M155.831 96.9221L101.369 225.121" stroke="black" stroke-width="0.268914"/>
<path d="M138.341 169.969L102.275 229.411" stroke="black" stroke-width="0.268914"/>
<path d="M192.569 134.423L103.18 228.492" stroke="black" stroke-width="0.268914"/>
<path d="M179 173.873L101.07 232.475" stroke="black" stroke-width="0.268914"/>
<path d="M101.674 224.818L92.959 238.3L93.5611 239.526L104.38 232.173L101.674 224.818Z" fill="black" stroke="black" stroke-width="0.353735"/>
<path d="M27.747 216.853C26.9945 216.43 24.4398 215.627 23.8398 215.627L26.846 225.431L27.747 216.853Z" fill="black" stroke="black" stroke-width="0.353735"/>
<defs>
<filter id="filter0_f_1_10515" x="47.7988" y="217.478" width="44.9336" height="28.8394" filterUnits="userSpaceOnUse" color-interpolation-filters="sRGB">
<feFlood flood-opacity="0" result="BackgroundImageFix"/>
<feBlend mode="normal" in="SourceGraphic" in2="BackgroundImageFix" result="shape"/>
<feGaussianBlur stdDeviation="5" result="effect1_foregroundBlur_1_10515"/>
</filter>
<linearGradient id="paint0_linear_1_10515" x1="61.5936" y1="220.908" x2="65.4992" y2="285.644" gradientUnits="userSpaceOnUse">
<stop stop-color="#FCD10A"/>
<stop offset="1" stop-color="#B56400"/>
</linearGradient>
<radialGradient id="paint1_radial_1_10515" cx="0" cy="0" r="1" gradientUnits="userSpaceOnUse" gradientTransform="translate(56.6628 242.944) rotate(96.5558) scale(39.6121 41.5482)">
<stop stop-color="#FFEF9E"/>
<stop offset="0.452438" stop-color="#FFD921"/>
<stop offset="1" stop-color="#FAD001"/>
</radialGradient>
<linearGradient id="paint2_linear_1_10515" x1="139.969" y1="271.469" x2="43.0863" y2="228.31" gradientUnits="userSpaceOnUse">
<stop offset="0.369792" stop-color="#E64500" stop-opacity="0.81"/>
<stop offset="0.572917" stop-color="#FF5C00" stop-opacity="0.79"/>
<stop offset="0.927083" stop-color="#FF9921"/>
</linearGradient>
<linearGradient id="paint3_linear_1_10515" x1="107.735" y1="248.226" x2="75.8385" y2="240.972" gradientUnits="userSpaceOnUse">
<stop offset="0.369792" stop-color="#E64500" stop-opacity="0.81"/>
<stop offset="0.572917" stop-color="#FF5C00" stop-opacity="0.79"/>
<stop offset="0.927083" stop-color="#FF9921"/>
</linearGradient>
<linearGradient id="paint4_linear_1_10515" x1="39.6752" y1="259.507" x2="21.5668" y2="255.376" gradientUnits="userSpaceOnUse">
<stop offset="0.369792" stop-color="#E64500" stop-opacity="0.81"/>
<stop offset="0.572917" stop-color="#FF5C00" stop-opacity="0.79"/>
<stop offset="0.927083" stop-color="#FF9921"/>
</linearGradient>
<linearGradient id="paint5_linear_1_10515" x1="93.6334" y1="229.896" x2="33.7613" y2="211.306" gradientUnits="userSpaceOnUse">
<stop offset="0.369792" stop-color="#E64500" stop-opacity="0.81"/>
<stop offset="0.572917" stop-color="#FF5C00" stop-opacity="0.79"/>
<stop offset="0.927083" stop-color="#FF9921"/>
</linearGradient>
<linearGradient id="paint6_linear_1_10515" x1="10.1445" y1="259.747" x2="4.04619" y2="276.597" gradientUnits="userSpaceOnUse">
<stop offset="0.05711" stop-color="#AD5B0E"/>
<stop offset="1" stop-color="#28070C"/>
</linearGradient>
<linearGradient id="paint7_linear_1_10515" x1="63.1604" y1="264.503" x2="52.4032" y2="277.249" gradientUnits="userSpaceOnUse">
<stop offset="0.05711" stop-color="#AD5B0E"/>
<stop offset="1" stop-color="#28070C"/>
</linearGradient>
<linearGradient id="paint8_linear_1_10515" x1="187.487" y1="157.621" x2="212.684" y2="169.749" gradientUnits="userSpaceOnUse">
<stop offset="0.145216" stop-color="#466B00"/>
<stop offset="0.919699" stop-color="#598900"/>
</linearGradient>
<linearGradient id="paint9_linear_1_10515" x1="147.344" y1="139.011" x2="172.542" y2="151.139" gradientUnits="userSpaceOnUse">
<stop offset="0.145216" stop-color="#466B00"/>
<stop offset="0.919699" stop-color="#598900"/>
</linearGradient>
<linearGradient id="paint10_linear_1_10515" x1="94.4265" y1="118.39" x2="122.46" y2="132.013" gradientUnits="userSpaceOnUse">
<stop offset="0.145216" stop-color="#466B00"/>
<stop offset="0.919699" stop-color="#598900"/>
</linearGradient>
<linearGradient id="paint11_linear_1_10515" x1="47.43" y1="94.6364" x2="74.6133" y2="107.807" gradientUnits="userSpaceOnUse">
<stop offset="0.145216" stop-color="#466B00"/>
<stop offset="0.919699" stop-color="#598900"/>
</linearGradient>
<linearGradient id="paint12_linear_1_10515" x1="3.59898" y1="71.293" x2="29.3237" y2="84.159" gradientUnits="userSpaceOnUse">
<stop offset="0.145216" stop-color="#466B00"/>
<stop offset="0.919699" stop-color="#598900"/>
</linearGradient>
<linearGradient id="paint13_linear_1_10515" x1="188.84" y1="108.768" x2="220.143" y2="123.961" gradientUnits="userSpaceOnUse">
<stop offset="0.145216" stop-color="#AAE738"/>
<stop offset="0.919699" stop-color="#89C31E"/>
</linearGradient>
<linearGradient id="paint14_linear_1_10515" x1="164.06" y1="75.905" x2="193.993" y2="90.6434" gradientUnits="userSpaceOnUse">
<stop offset="0.145216" stop-color="#AAE738"/>
<stop offset="0.919699" stop-color="#89C31E"/>
</linearGradient>
<linearGradient id="paint15_linear_1_10515" x1="128.218" y1="45.8916" x2="154.357" y2="58.7942" gradientUnits="userSpaceOnUse">
<stop offset="0.145216" stop-color="#AAE738"/>
<stop offset="0.919699" stop-color="#89C31E"/>
</linearGradient>
<linearGradient id="paint16_linear_1_10515" x1="73.3299" y1="30.7927" x2="106.098" y2="46.8961" gradientUnits="userSpaceOnUse">
<stop offset="0.145216" stop-color="#AAE738"/>
<stop offset="0.919699" stop-color="#89C31E"/>
</linearGradient>
<linearGradient id="paint17_linear_1_10515" x1="30.2587" y1="31.7428" x2="63.2495" y2="48.0367" gradientUnits="userSpaceOnUse">
<stop offset="0.145216" stop-color="#AAE738"/>
<stop offset="0.919699" stop-color="#89C31E"/>
</linearGradient>
</defs>
</svg>
