<svg width="154" height="31" viewBox="0 0 154 31" fill="none" xmlns="http://www.w3.org/2000/svg">
<circle cx="13.5" cy="15.5" r="13" fill="#FFD102"/>
<path d="M15.8218 23.7725C15.0027 23.7725 14.225 23.6193 13.4886 23.3129C12.7522 22.9982 12.1027 22.5593 11.5401 21.9962C10.9775 21.4414 10.5389 20.7955 10.2245 20.0585C9.91013 19.3215 9.75293 18.543 9.75293 17.7232V8.94122C9.75293 8.70107 9.7943 8.47748 9.87704 8.27046C9.96805 8.05515 10.088 7.86883 10.237 7.71149C10.3859 7.56243 10.5638 7.4465 10.7706 7.36369C10.9775 7.2726 11.1926 7.22705 11.416 7.22705C11.6394 7.22705 11.8545 7.2726 12.0613 7.36369C12.2682 7.4465 12.4461 7.56243 12.595 7.71149C12.7439 7.86883 12.8556 8.05515 12.9301 8.27046C13.0128 8.47748 13.0542 8.70107 13.0542 8.94122V12.7546C13.3107 12.4482 13.7161 12.1874 14.2705 11.9721C14.8083 11.7568 15.3254 11.6491 15.8218 11.6491C16.6327 11.6491 17.4063 11.8064 18.1426 12.1211C18.8873 12.4358 19.5368 12.8706 20.0911 13.4254C20.6455 13.9885 21.0799 14.6427 21.3943 15.388C21.7087 16.125 21.8659 16.9034 21.8659 17.7232C21.8659 18.543 21.7087 19.3215 21.3943 20.0585C21.0881 20.7872 20.6538 21.4331 20.0911 21.9962C19.5368 22.5511 18.8873 22.9858 18.1426 23.3005C17.4063 23.6152 16.6327 23.7725 15.8218 23.7725ZM15.8218 20.456C16.1941 20.456 16.5458 20.3856 16.8767 20.2448C17.216 20.104 17.5097 19.9094 17.7579 19.661C18.0144 19.4043 18.213 19.1103 18.3536 18.7791C18.4943 18.4478 18.5646 18.0959 18.5646 17.7232C18.5646 17.3506 18.4943 16.9986 18.3536 16.6674C18.213 16.3362 18.0144 16.0422 17.7579 15.7855C17.5097 15.537 17.216 15.3424 16.8767 15.2017C16.5458 15.0609 16.1941 14.9905 15.8218 14.9905C15.4495 14.9905 15.0937 15.0609 14.7545 15.2017C14.4235 15.3424 14.1339 15.537 13.8857 15.7855C13.6292 16.0422 13.4265 16.3362 13.2776 16.6674C13.1369 16.9986 13.0666 17.3506 13.0666 17.7232C13.0666 18.0959 13.1369 18.4478 13.2776 18.7791C13.4265 19.1103 13.6292 19.4043 13.8857 19.661C14.1339 19.9094 14.4235 20.104 14.7545 20.2448C15.0937 20.3856 15.4495 20.456 15.8218 20.456Z" fill="black"/>
<path fill-rule="evenodd" clip-rule="evenodd" d="M9.13778 7.60887C9.01433 7.50814 8.87427 7.42641 8.71759 7.36369C8.51074 7.2726 8.29562 7.22705 8.07223 7.22705C7.84883 7.22705 7.63371 7.2726 7.42687 7.36369C7.22002 7.4465 7.04213 7.56243 6.8932 7.71149C6.74427 7.86883 6.6243 8.05515 6.53329 8.27046C6.45055 8.47748 6.40918 8.70107 6.40918 8.94122V17.7232C6.40918 18.543 6.56638 19.3215 6.88079 20.0585C7.1952 20.7955 7.63371 21.4414 8.19634 21.9962C8.75896 22.5593 9.40846 22.9982 10.1448 23.3129C10.8212 23.5943 11.5324 23.7465 12.2785 23.7694C11.7648 23.4663 11.2936 23.1008 10.8665 22.6738C10.2153 22.031 9.7076 21.2818 9.34557 20.4331C8.97943 19.5748 8.79735 18.6686 8.79735 17.7231V8.94104C8.79735 8.5889 8.8585 8.244 8.98968 7.91576L8.99317 7.90702L8.99684 7.89834C9.03885 7.79895 9.08578 7.70235 9.13778 7.60887ZM14.3365 11.9458C14.3144 11.9543 14.2923 11.963 14.2702 11.9719C14.1792 12.0072 14.0922 12.0438 14.0092 12.0816C13.5867 12.2741 13.2683 12.4984 13.0539 12.7544V11.6762C12.8641 11.6581 12.6721 11.6491 12.4781 11.6491C11.9816 11.6491 11.4645 11.7568 10.9267 11.9721C10.4018 12.1759 10.0105 12.4206 9.75263 12.7061V17.3121C9.78562 17.0891 9.84602 16.8742 9.93385 16.6674C10.0828 16.3362 10.2855 16.0422 10.542 15.7855C10.7902 15.537 11.0798 15.3424 11.4107 15.2017C11.75 15.0609 12.1057 14.9905 12.4781 14.9905C12.8504 14.9905 13.202 15.0609 13.533 15.2017C13.7584 15.2952 13.9637 15.4125 14.149 15.5536C14.3324 15.4125 14.5342 15.2951 14.7542 15.2015C15.0934 15.0607 15.4492 14.9903 15.8215 14.9903C16.1938 14.9903 16.5455 15.0607 16.8764 15.2015C17.2157 15.3423 17.5094 15.5369 17.7576 15.7853C18.0141 16.042 18.2127 16.336 18.3533 16.6672C18.4097 16.7999 18.4547 16.9359 18.4885 17.0752C18.4269 16.4906 18.281 15.9282 18.0505 15.388C17.7361 14.6427 17.3017 13.9885 16.7474 13.4254C16.193 12.8706 15.5435 12.4358 14.7989 12.1211C14.6464 12.0559 14.4922 11.9975 14.3365 11.9458ZM14.1337 23.539C13.9151 23.4763 13.7 23.4008 13.4883 23.3127C12.7519 22.9981 12.1024 22.5592 11.5398 21.9961C10.9772 21.4412 10.5386 20.7953 10.2242 20.0583C9.9808 19.4876 9.83161 18.8922 9.77666 18.2719C9.81182 18.446 9.86422 18.6151 9.93385 18.7791C10.0828 19.1103 10.2855 19.4043 10.542 19.661C10.7902 19.9094 11.0798 20.104 11.4107 20.2448C11.75 20.3856 12.1057 20.456 12.4781 20.456C12.8504 20.456 13.202 20.3856 13.533 20.2448C13.7585 20.1512 13.9639 20.0338 14.1492 19.8927C14.3326 20.0338 14.5343 20.1511 14.7542 20.2446C15.0934 20.3854 15.4492 20.4558 15.8215 20.4558C16.1938 20.4558 16.5455 20.3854 16.8764 20.2446C17.2157 20.1038 17.5094 19.9092 17.7576 19.6608C18.0141 19.4041 18.2127 19.1101 18.3533 18.7789C18.4097 18.6461 18.4548 18.51 18.4886 18.3706C18.4271 18.9555 18.281 19.5181 18.0505 20.0585C17.7444 20.7872 17.31 21.4331 16.7474 21.9962C16.193 22.5511 15.5435 22.9858 14.7989 23.3005C14.5804 23.3938 14.3587 23.4734 14.1337 23.539Z" fill="black"/>
<path d="M34.684 24.5V7.7H41.98C43.116 7.7 44.068 7.868 44.836 8.204C45.604 8.524 46.188 8.996 46.588 9.62C47.004 10.228 47.212 10.98 47.212 11.876C47.212 12.804 46.964 13.588 46.468 14.228C45.988 14.868 45.308 15.316 44.428 15.572L44.404 15.068C45.14 15.244 45.78 15.54 46.324 15.956C46.884 16.356 47.316 16.852 47.62 17.444C47.94 18.036 48.1 18.708 48.1 19.46C48.1 20.292 47.956 21.028 47.668 21.668C47.396 22.292 46.996 22.82 46.468 23.252C45.956 23.668 45.34 23.98 44.62 24.188C43.9 24.396 43.1 24.5 42.22 24.5H34.684ZM38.14 21.38H42.076C42.844 21.38 43.444 21.204 43.876 20.852C44.308 20.484 44.524 19.972 44.524 19.316C44.524 18.9 44.42 18.548 44.212 18.26C44.004 17.972 43.708 17.756 43.324 17.612C42.94 17.468 42.484 17.396 41.956 17.396H38.14V21.38ZM38.14 14.492H41.548C41.996 14.492 42.372 14.42 42.676 14.276C42.996 14.116 43.244 13.9 43.42 13.628C43.596 13.34 43.684 13.012 43.684 12.644C43.684 12.068 43.484 11.62 43.084 11.3C42.7 10.98 42.124 10.82 41.356 10.82H38.14V14.492ZM57.5401 24.644C56.1801 24.644 54.9641 24.364 53.8921 23.804C52.8361 23.228 52.0041 22.444 51.3961 21.452C50.7881 20.444 50.4841 19.308 50.4841 18.044V7.676H54.0841V17.828C54.0841 18.5 54.2361 19.108 54.5401 19.652C54.8601 20.18 55.2841 20.604 55.8121 20.924C56.3401 21.244 56.9161 21.404 57.5401 21.404C58.1961 21.404 58.7881 21.244 59.3161 20.924C59.8601 20.604 60.2841 20.18 60.5881 19.652C60.9081 19.108 61.0681 18.5 61.0681 17.828V7.676H64.5481V18.044C64.5481 19.308 64.2441 20.444 63.6361 21.452C63.0441 22.444 62.2201 23.228 61.1641 23.804C60.1081 24.364 58.9001 24.644 57.5401 24.644ZM75.3927 24.74C74.1607 24.74 73.0247 24.532 71.9847 24.116C70.9607 23.684 70.0647 23.084 69.2967 22.316C68.5447 21.532 67.9607 20.612 67.5447 19.556C67.1447 18.5 66.9447 17.34 66.9447 16.076C66.9447 14.844 67.1607 13.708 67.5927 12.668C68.0247 11.612 68.6327 10.692 69.4167 9.908C70.2007 9.124 71.1127 8.516 72.1527 8.084C73.2087 7.652 74.3527 7.436 75.5847 7.436C76.3847 7.436 77.1687 7.548 77.9367 7.772C78.7207 7.98 79.4327 8.3 80.0727 8.732C80.7287 9.148 81.2887 9.636 81.7527 10.196L79.4967 12.716C78.9367 12.108 78.3287 11.644 77.6727 11.324C77.0167 11.004 76.3127 10.844 75.5607 10.844C74.8727 10.844 74.2247 10.972 73.6167 11.228C73.0247 11.468 72.5047 11.82 72.0567 12.284C71.6087 12.748 71.2567 13.3 71.0007 13.94C70.7447 14.58 70.6167 15.292 70.6167 16.076C70.6167 16.876 70.7367 17.604 70.9767 18.26C71.2327 18.9 71.5927 19.452 72.0567 19.916C72.5207 20.364 73.0727 20.716 73.7127 20.972C74.3687 21.212 75.0887 21.332 75.8727 21.332C76.3847 21.332 76.8727 21.26 77.3367 21.116C77.8167 20.972 78.2647 20.772 78.6807 20.516C79.0967 20.26 79.4647 19.964 79.7847 19.628L81.5367 22.436C81.1687 22.868 80.6567 23.26 80.0007 23.612C79.3447 23.964 78.6167 24.244 77.8167 24.452C77.0167 24.644 76.2087 24.74 75.3927 24.74ZM91.2921 24.74C90.0601 24.74 88.9161 24.524 87.8601 24.092C86.8201 23.66 85.9161 23.06 85.1481 22.292C84.3961 21.508 83.8041 20.588 83.3721 19.532C82.9561 18.476 82.7481 17.316 82.7481 16.052C82.7481 14.804 82.9561 13.652 83.3721 12.596C83.8041 11.54 84.3961 10.62 85.1481 9.836C85.9161 9.052 86.8201 8.444 87.8601 8.012C88.9161 7.58 90.0601 7.364 91.2921 7.364C92.5241 7.364 93.6521 7.58 94.6761 8.012C95.7161 8.444 96.6201 9.052 97.3881 9.836C98.1561 10.62 98.7481 11.54 99.1641 12.596C99.5961 13.652 99.8121 14.812 99.8121 16.076C99.8121 17.308 99.5961 18.452 99.1641 19.508C98.7481 20.564 98.1561 21.484 97.3881 22.268C96.6201 23.052 95.7161 23.66 94.6761 24.092C93.6521 24.524 92.5241 24.74 91.2921 24.74ZM91.2921 21.332C91.9961 21.332 92.6441 21.204 93.2361 20.948C93.8281 20.676 94.3401 20.308 94.7721 19.844C95.2201 19.364 95.5641 18.804 95.8041 18.164C96.0441 17.524 96.1641 16.828 96.1641 16.076C96.1641 15.308 96.0441 14.604 95.8041 13.964C95.5641 13.324 95.2201 12.764 94.7721 12.284C94.3401 11.804 93.8281 11.436 93.2361 11.18C92.6441 10.908 91.9961 10.772 91.2921 10.772C90.5881 10.772 89.9321 10.908 89.3241 11.18C88.7321 11.436 88.2121 11.804 87.7641 12.284C87.3321 12.748 86.9961 13.308 86.7561 13.964C86.5161 14.604 86.3961 15.308 86.3961 16.076C86.3961 17.084 86.6041 17.988 87.0201 18.788C87.4521 19.572 88.0361 20.196 88.7721 20.66C89.5081 21.108 90.3481 21.332 91.2921 21.332ZM101.567 24.5V21.404H104.375V10.796H101.567V7.7H110.759V10.796H107.975V21.404H110.759V24.5H101.567ZM113.982 24.5V7.7H117.198L126.51 20.276H125.862C125.75 19.46 125.654 18.652 125.574 17.852C125.494 17.036 125.438 16.172 125.406 15.26C125.39 14.348 125.382 13.332 125.382 12.212V7.7H128.886V24.5H125.622L116.142 11.852H117.006C117.118 12.908 117.206 13.78 117.27 14.468C117.334 15.156 117.382 15.732 117.414 16.196C117.446 16.644 117.47 17.044 117.486 17.396C117.502 17.748 117.51 18.116 117.51 18.5V24.5H113.982Z" fill="black"/>
<path d="M137.5 23L152.5 8" stroke="black" stroke-width="3"/>
<path d="M137.5 8H152.5V23" stroke="black" stroke-width="3"/>
</svg>
