<svg width="20" height="24" viewBox="0 0 20 24" fill="none" xmlns="http://www.w3.org/2000/svg">
<g clip-path="url(#clip0_1_9647)">
<path d="M14.6763 0H14.8439C14.9783 1.66084 14.3444 2.90182 13.5739 3.80049C12.818 4.69297 11.7828 5.55855 10.1085 5.42721C9.99681 3.79015 10.6318 2.64121 11.4012 1.74461C12.1147 0.909016 13.4229 0.165464 14.6763 0Z" fill="black"/>
<path d="M19.7449 17.2868V17.3333C19.2744 18.7584 18.6032 19.9797 17.7842 21.1131C17.0365 22.1421 16.1202 23.5268 14.4842 23.5268C13.0705 23.5268 12.1315 22.6178 10.6827 22.593C9.15007 22.5682 8.30724 23.3531 6.90597 23.5506C6.74567 23.5506 6.58538 23.5506 6.42819 23.5506C5.39921 23.4017 4.56879 22.5868 3.96382 21.8525C2.17991 19.6829 0.801391 16.8803 0.544922 13.2939C0.544922 12.9423 0.544922 12.5917 0.544922 12.2401C0.653507 9.67336 1.90069 7.58644 3.55843 6.57505C4.43332 6.03729 5.63603 5.57916 6.97526 5.78392C7.54921 5.87286 8.13557 6.06935 8.64954 6.26377C9.13663 6.45095 9.74574 6.78291 10.3228 6.76533C10.7137 6.75395 11.1025 6.55023 11.4966 6.40648C12.6507 5.98972 13.782 5.51194 15.2733 5.73635C17.0654 6.0073 18.3374 6.80359 19.1234 8.03216C17.6073 8.99702 16.4088 10.451 16.6135 12.934C16.7955 15.1895 18.1068 16.5091 19.7449 17.2868Z" fill="black"/>
</g>
<defs>
<clipPath id="clip0_1_9647">
<rect width="19.2" height="24" fill="white" transform="translate(0.544922)"/>
</clipPath>
</defs>
</svg>
