<svg width="23" height="23" viewBox="0 0 23 23" fill="none" xmlns="http://www.w3.org/2000/svg">
<circle cx="11.5" cy="11.5" r="11" fill="#FFD102"/>
<path fill-rule="evenodd" clip-rule="evenodd" d="M11.8471 18.5C15.3525 18.5 18.1941 15.6572 18.1941 12.1504C18.1941 8.64368 15.3525 5.80089 11.8471 5.80089C10.6459 5.80089 9.52265 6.13469 8.56497 6.71462L7.32476 4.93178C6.76426 4.12605 5.5 4.52282 5.5 5.50445V12.1504C5.5 15.6572 8.34168 18.5 11.8471 18.5ZM11.7679 9.1842C10.2342 9.21631 9.0169 10.4857 9.04899 12.0195C9.08108 13.5533 10.3504 14.7706 11.8841 14.7385C12.4097 14.7275 12.8981 14.5712 13.3118 14.3088L13.503 14.5717C13.8686 15.0744 14.6638 14.8063 14.6508 14.1848L14.6031 11.9032C14.571 10.3694 13.3016 9.15208 11.7679 9.1842Z" fill="black"/>
</svg>
