<svg width="47" height="47" viewBox="0 0 47 47" fill="none" xmlns="http://www.w3.org/2000/svg">
<path d="M4.7998 14.5046C4.7998 11.9641 6.8593 9.9046 9.39981 9.9046H36.9998C39.5403 9.9046 41.5998 11.9641 41.5998 14.5046V19.1046C39.0593 19.1046 36.9998 21.1641 36.9998 23.7046C36.9998 26.2451 39.0593 28.3046 41.5998 28.3046V32.9046C41.5998 35.4451 39.5403 37.5046 36.9998 37.5046H9.39981C6.8593 37.5046 4.7998 35.4451 4.7998 32.9046V28.3046C7.34031 28.3046 9.39981 26.2451 9.39981 23.7046C9.39981 21.1641 7.34031 19.1046 4.7998 19.1046V14.5046Z" fill="#FF59B9"/>
<path fill-rule="evenodd" clip-rule="evenodd" d="M26.6502 13.3546L26.6502 9.9046L28.9502 9.9046L28.9502 13.3546L26.6502 13.3546ZM26.6502 27.1546L26.6502 20.2546L28.9502 20.2546L28.9502 27.1546L26.6502 27.1546ZM26.6502 37.5046L26.6502 34.0546L28.9502 34.0546L28.9502 37.5046L26.6502 37.5046Z" fill="white"/>
</svg>
