<svg width="316" height="131" viewBox="0 0 316 131" fill="none" xmlns="http://www.w3.org/2000/svg">
<rect x="139.384" width="170.411" height="71.6135" rx="35.8067" fill="#CAFF04"/>
<path d="M184.56 57.5728C182.522 57.5728 180.594 57.209 178.777 56.4813C176.98 55.7334 175.405 54.6823 174.053 53.328C172.66 51.9333 171.58 50.2859 170.813 48.3859C170.046 46.4858 169.662 44.414 169.662 42.1703V32.5285C169.662 30.2848 170.046 28.213 170.813 26.3129C171.58 24.4129 172.66 22.7655 174.053 21.3708C175.405 20.0165 176.98 18.9755 178.777 18.2478C180.594 17.4999 182.522 17.126 184.56 17.126C187.508 17.126 190.132 17.8233 192.434 19.2181C194.17 20.2691 195.754 21.8256 197.188 23.8873C197.753 24.7161 198.036 25.6055 198.036 26.5555C198.036 27.6268 197.632 28.5465 196.824 29.3146C195.997 30.1029 194.997 30.4971 193.826 30.4971C192.555 30.4971 191.626 30.0221 191.041 29.072C190.556 28.3242 190.152 27.7481 189.829 27.3438C189.527 26.9395 189.163 26.5959 188.739 26.3129C187.73 25.6257 186.337 25.2821 184.56 25.2821C182.562 25.2821 180.987 25.848 179.837 26.98C178.464 28.2938 177.777 30.1231 177.777 32.4679V42.2309C177.777 44.5757 178.464 46.405 179.837 47.7188C180.987 48.8508 182.562 49.4168 184.56 49.4168C186.317 49.4168 187.72 49.0731 188.77 48.3859C189.193 48.1029 189.567 47.7593 189.89 47.355C190.213 46.9305 190.597 46.3544 191.041 45.6268C191.343 45.1619 191.737 44.8182 192.222 44.5959C192.726 44.3533 193.271 44.232 193.857 44.232C195.028 44.232 196.027 44.6161 196.855 45.3842C197.642 46.1725 198.036 47.0922 198.036 48.1433C198.036 48.9923 197.773 49.8412 197.248 50.6902C196.744 51.5189 196.037 52.4083 195.129 53.3584C193.413 55.1169 191.364 56.3297 188.982 56.9967C187.71 57.3808 186.236 57.5728 184.56 57.5728Z" fill="black"/>
<path d="M208.604 57.5728C208.059 57.5728 207.534 57.4718 207.029 57.2696C206.545 57.0675 206.121 56.7845 205.757 56.4207C205.394 56.0568 205.101 55.6324 204.879 55.1472C204.677 54.6621 204.576 54.1467 204.576 53.6009V21.0979C204.576 19.9862 204.97 19.0361 205.757 18.2478C206.121 17.9042 206.545 17.6313 207.029 17.4292C207.534 17.227 208.059 17.126 208.604 17.126C209.714 17.126 210.663 17.4999 211.45 18.2478C212.237 19.0361 212.631 19.9862 212.631 21.0979V53.6009C212.631 54.1467 212.52 54.6621 212.298 55.1472C212.096 55.6324 211.814 56.0568 211.45 56.4207C210.683 57.1888 209.734 57.5728 208.604 57.5728Z" fill="black"/>
<path d="M232.92 57.6031C231.809 57.6031 230.891 57.2191 230.164 56.451C229.437 55.7233 229.074 54.7834 229.074 53.6312V25.2214H221.382C220.272 25.2214 219.323 24.8273 218.536 24.0389C217.769 23.2708 217.385 22.3208 217.385 21.1889C217.385 20.6431 217.486 20.1277 217.688 19.6425C217.89 19.1574 218.173 18.7329 218.536 18.3691C219.323 17.5808 220.272 17.1866 221.382 17.1866H244.517C245.062 17.1866 245.577 17.2978 246.062 17.5201C246.566 17.7223 247 18.0053 247.364 18.3691C247.727 18.7531 248.01 19.1978 248.212 19.7032C248.434 20.1883 248.545 20.7037 248.545 21.2495C248.545 21.7953 248.434 22.3107 248.212 22.7958C248.01 23.2809 247.727 23.7054 247.364 24.0693C247 24.4331 246.566 24.7161 246.062 24.9182C245.577 25.1203 245.062 25.2214 244.517 25.2214H236.977V53.6312C236.977 54.177 236.866 54.6924 236.644 55.1776C236.442 55.6627 236.16 56.0872 235.796 56.451C235.413 56.8148 234.969 57.0978 234.464 57.2999C233.979 57.5021 233.465 57.6031 232.92 57.6031Z" fill="black"/>
<path d="M264.896 57.1787C264.351 57.1787 263.827 57.0776 263.322 56.8755C262.817 56.6531 262.383 56.36 262.02 55.9962C261.212 55.2281 260.808 54.2578 260.808 53.0855V42.9283C258.628 42.2208 256.721 41.0788 255.085 39.5021C253.47 37.9053 252.279 36.0153 251.512 33.8323C251.129 32.7408 250.886 31.3764 250.785 29.7391V21.0979C250.785 20.5723 250.896 20.067 251.119 19.5819C251.341 19.0766 251.643 18.642 252.027 18.2781C252.39 17.9143 252.814 17.6313 253.299 17.4292C253.803 17.227 254.328 17.126 254.873 17.126C256.004 17.126 256.953 17.51 257.72 18.2781C258.083 18.642 258.356 19.0665 258.537 19.5516C258.739 20.0367 258.84 20.5521 258.84 21.0979V29.8907C258.84 31.2652 259.315 32.5083 260.263 33.62C261.031 34.5296 261.959 35.1664 263.049 35.5302C263.554 35.6919 264.129 35.793 264.775 35.8334H265.048C265.835 35.8334 266.592 35.6919 267.319 35.4089C268.066 35.1057 268.712 34.6812 269.257 34.1355C269.822 33.5897 270.256 32.953 270.559 32.2253C270.882 31.4976 271.054 30.7295 271.074 29.921V21.0979C271.074 20.5521 271.175 20.0367 271.377 19.5516C271.599 19.0665 271.901 18.642 272.285 18.2781C272.648 17.9143 273.072 17.6313 273.557 17.4292C274.062 17.227 274.597 17.126 275.162 17.126C276.292 17.126 277.241 17.51 278.008 18.2781C278.372 18.642 278.644 19.0665 278.826 19.5516C279.028 20.0367 279.129 20.5521 279.129 21.0979V29.254C279.129 30.9115 278.876 32.4881 278.372 33.9839C277.887 35.4595 277.191 36.8138 276.282 38.0468C275.374 39.2596 274.294 40.3005 273.042 41.1697C271.79 42.0389 270.418 42.6857 268.924 43.1102V53.0855C268.924 54.2376 268.53 55.2079 267.743 55.9962C267.38 56.36 266.945 56.6531 266.441 56.8755C265.956 57.0776 265.442 57.1787 264.896 57.1787Z" fill="black"/>
<ellipse cx="65.3276" cy="65.5" rx="65.3276" ry="65.5" fill="#FFD527"/>
<path d="M76.9935 107.182C72.8773 107.182 68.9689 106.41 65.2685 104.866C61.5681 103.281 58.3042 101.069 55.4769 98.2323C52.6496 95.4368 50.446 92.1824 48.866 88.469C47.2861 84.7556 46.4961 80.8336 46.4961 76.7029V32.4551C46.4961 31.2452 46.704 30.1186 47.1198 29.0755C47.5771 27.9907 48.18 27.0519 48.9284 26.2592C49.6768 25.5082 50.5707 24.924 51.6102 24.5068C52.6496 24.0478 53.7306 23.8184 54.8532 23.8184C55.9758 23.8184 57.0569 24.0478 58.0963 24.5068C59.1358 24.924 60.0297 25.5082 60.7781 26.2592C61.5265 27.0519 62.0878 27.9907 62.462 29.0755C62.8778 30.1186 63.0857 31.2452 63.0857 32.4551V51.6688C64.3746 50.1251 66.4119 48.8108 69.1976 47.7259C71.9002 46.6411 74.4988 46.0987 76.9935 46.0987C81.0681 46.0987 84.9556 46.8915 88.6561 48.477C92.3981 50.0625 95.6619 52.253 98.4476 55.0484C101.233 57.8856 103.416 61.1818 104.996 64.9369C106.576 68.6503 107.366 72.5723 107.366 76.7029C107.366 80.8336 106.576 84.7556 104.996 88.469C103.458 92.1407 101.275 95.3951 98.4476 98.2323C95.6619 101.028 92.3981 103.218 88.6561 104.804C84.9556 106.389 81.0681 107.182 76.9935 107.182ZM76.9935 90.4717C78.8645 90.4717 80.6315 90.1171 82.2946 89.4078C83.9993 88.6985 85.4754 87.718 86.7227 86.4663C88.0116 85.1728 89.0095 83.6916 89.7163 82.0227C90.4231 80.3538 90.7765 78.5805 90.7765 76.7029C90.7765 74.8254 90.4231 73.0521 89.7163 71.3832C89.0095 69.7143 88.0116 68.2331 86.7227 66.9396C85.4754 65.6879 83.9993 64.7074 82.2946 63.9981C80.6315 63.2888 78.8645 62.9342 76.9935 62.9342C75.1225 62.9342 73.3346 63.2888 71.6299 63.9981C69.9668 64.7074 68.5116 65.6879 67.2642 66.9396C65.9753 68.2331 64.9567 69.7143 64.2083 71.3832C63.5014 73.0521 63.148 74.8254 63.148 76.7029C63.148 78.5805 63.5014 80.3538 64.2083 82.0227C64.9567 83.6916 65.9753 85.1728 67.2642 86.4663C68.5116 87.718 69.9668 88.6985 71.6299 89.4078C73.3346 90.1171 75.1225 90.4717 76.9935 90.4717Z" fill="black"/>
<path fill-rule="evenodd" clip-rule="evenodd" d="M43.4061 25.7422C42.7857 25.2346 42.0819 24.8228 41.2946 24.5068C40.2551 24.0478 39.1741 23.8184 38.0515 23.8184C36.9289 23.8184 35.8479 24.0478 34.8084 24.5068C33.769 24.924 32.875 25.5082 32.1266 26.2592C31.3782 27.0519 30.7754 27.9907 30.318 29.0755C29.9022 30.1186 29.6943 31.2452 29.6943 32.4551V76.7029C29.6943 80.8336 30.4843 84.7556 32.0643 88.469C33.6442 92.1824 35.8479 95.4368 38.6752 98.2323C41.5025 101.069 44.7663 103.281 48.4667 104.866C51.8654 106.284 55.4395 107.051 59.1889 107.167C56.6075 105.639 54.2395 103.798 52.0935 101.646C48.821 98.4073 46.2695 94.6325 44.4503 90.3567C42.6103 86.0322 41.6954 81.4664 41.6954 76.7021V32.4542C41.6954 30.68 42.0026 28.9422 42.6619 27.2884L42.6794 27.2443L42.6979 27.2006C42.909 26.6999 43.1448 26.2131 43.4061 25.7422ZM69.5308 47.5938C69.4198 47.6366 69.3087 47.6804 69.1974 47.7251C68.74 47.9032 68.3029 48.0874 67.8859 48.2779C65.7629 49.2476 64.1627 50.3776 63.0854 51.6679V46.235C62.1316 46.1441 61.167 46.0987 60.1917 46.0987C57.697 46.0987 55.0984 46.6411 52.3959 47.7259C49.7582 48.7531 47.7916 49.9859 46.4958 51.4245V74.6315C46.6616 73.5081 46.9652 72.4253 47.4065 71.3832C48.1549 69.7143 49.1736 68.2331 50.4625 66.9396C51.7098 65.6879 53.165 64.7074 54.8282 63.9981C56.5329 63.2888 58.3207 62.9342 60.1917 62.9342C62.0627 62.9342 63.8298 63.2888 65.4929 63.9981C66.6257 64.4695 67.6575 65.0606 68.5884 65.7715C69.5103 65.0602 70.524 64.4688 71.6297 63.9972C73.3344 63.2879 75.1222 62.9333 76.9932 62.9333C78.8642 62.9333 80.6313 63.2879 82.2944 63.9972C83.9991 64.7065 85.4751 65.687 86.7224 66.9388C88.0113 68.2322 89.0092 69.7134 89.716 71.3823C89.9992 72.0508 90.2256 72.7361 90.3953 73.4381C90.086 70.4923 89.3524 67.6586 88.1944 64.9369C86.6144 61.1818 84.4316 57.8856 81.6459 55.0484C78.8602 52.253 75.5963 50.0625 71.8543 48.477C71.0878 48.1486 70.3133 47.8542 69.5308 47.5938ZM68.5114 106.006C67.4132 105.689 66.3321 105.309 65.2682 104.865C61.5678 103.28 58.304 101.069 55.4767 98.2314C52.6494 95.4359 50.4457 92.1815 48.8658 88.4681C47.6425 85.5929 46.8927 82.5926 46.6166 79.4673C46.7933 80.3447 47.0566 81.1965 47.4065 82.0227C48.1549 83.6916 49.1736 85.1728 50.4625 86.4663C51.7098 87.718 53.165 88.6985 54.8282 89.4078C56.5329 90.1171 58.3207 90.4717 60.1917 90.4717C62.0627 90.4717 63.8298 90.1171 65.4929 89.4078C66.6262 88.9362 67.6584 88.3448 68.5895 87.6336C69.5111 88.3444 70.5245 88.9355 71.6297 89.4069C73.3344 90.1162 75.1222 90.4708 76.9932 90.4708C78.8642 90.4708 80.6313 90.1162 82.2944 89.4069C83.9991 88.6976 85.4751 87.7171 86.7224 86.4654C88.0113 85.1719 89.0092 83.6908 89.716 82.0218C89.9994 81.3529 90.2259 80.6671 90.3956 79.9647C90.0866 82.9116 89.3528 85.7464 88.1944 88.469C86.656 92.1407 84.4732 95.3951 81.6459 98.2323C78.8602 101.028 75.5963 103.218 71.8543 104.804C70.7565 105.274 69.6422 105.675 68.5114 106.006Z" fill="black"/>
</svg>
