<svg width="26" height="24" viewBox="0 0 26 24" fill="none" xmlns="http://www.w3.org/2000/svg">
<path d="M21.9648 2L13.3701 8.35892L14.9688 4.61158L21.9648 2Z" fill="#E17726" stroke="#E17726" stroke-width="0.25" stroke-linecap="round" stroke-linejoin="round"/>
<path d="M2.14102 2L10.6587 8.4185L9.13702 4.61158L2.14102 2ZM18.8702 16.7446L16.584 20.238L21.4799 21.5855L22.8824 16.8207L18.8702 16.7446ZM1.23169 16.8207L2.62502 21.5864L7.51361 20.2389L5.23569 16.7446L1.23169 16.8207Z" fill="#E27625" stroke="#E27625" stroke-width="0.25" stroke-linecap="round" stroke-linejoin="round"/>
<path d="M7.24955 10.843L5.89014 12.8954L10.7356 13.1154L10.5734 7.90138L7.24955 10.843ZM16.8562 10.843L13.4811 7.8418L13.3711 13.1154L18.2156 12.8954L16.8562 10.843ZM7.51264 20.2397L10.446 18.8225L7.92055 16.8554L7.51264 20.2397ZM13.6589 18.8225L16.5831 20.2388L16.1834 16.8563L13.6589 18.8225Z" fill="#E27625" stroke="#E27625" stroke-width="0.25" stroke-linecap="round" stroke-linejoin="round"/>
<path d="M16.5841 20.2381L13.6599 18.8228L13.8983 20.7212L13.8726 21.5278L16.5841 20.2381ZM7.51367 20.2381L10.2334 21.5269L10.2169 20.7212L10.4461 18.8228L7.51367 20.2381Z" fill="#D5BFB2" stroke="#D5BFB2" stroke-width="0.25" stroke-linecap="round" stroke-linejoin="round"/>
<path d="M10.2848 15.6004L7.85376 14.8881L9.57068 14.0998L10.2848 15.6004ZM13.8213 15.6004L14.5353 14.0989L16.2605 14.8872L13.8213 15.6004Z" fill="#233447" stroke="#233447" stroke-width="0.25" stroke-linecap="round" stroke-linejoin="round"/>
<path d="M7.5137 20.2378L7.93903 16.7453L5.23486 16.8204L7.5137 20.2378ZM16.167 16.7453L16.5841 20.2378L18.8703 16.8204L16.167 16.7453ZM18.2158 12.8953L13.3703 13.1153L13.8213 15.5994L14.5354 14.0988L16.2605 14.8872L18.2158 12.8953ZM7.8547 14.8881L9.57161 14.0998L10.2857 15.6003L10.7367 13.1162L5.8912 12.8953L7.8547 14.8881Z" fill="#CC6228" stroke="#CC6228" stroke-width="0.25" stroke-linecap="round" stroke-linejoin="round"/>
<path d="M5.89014 12.8954L7.92147 16.8554L7.85364 14.8883L5.89014 12.8954ZM16.2604 14.8883L16.1843 16.8545L18.2156 12.8945L16.2604 14.8883ZM10.7356 13.1154L10.2846 15.5996L10.8548 18.5329L10.9822 14.6674L10.7356 13.1154ZM13.3701 13.1154L13.1318 14.6591L13.251 18.5339L13.8211 15.6005L13.3701 13.1154Z" fill="#E27525" stroke="#E27525" stroke-width="0.25" stroke-linecap="round" stroke-linejoin="round"/>
<path d="M13.8213 15.6002L13.252 18.5335L13.6599 18.8214L16.1844 16.8551L16.2605 14.8879L13.8213 15.6002ZM7.85376 14.8879L7.92159 16.8551L10.4461 18.8214L10.854 18.5335L10.2848 15.6002L7.85376 14.8879Z" fill="#F5841F" stroke="#F5841F" stroke-width="0.25" stroke-linecap="round" stroke-linejoin="round"/>
<path d="M13.8726 21.5266L13.8973 20.7209L13.6773 20.5348H10.4296L10.2169 20.7209L10.2334 21.5275L7.51367 20.2378L8.46609 21.0179L10.3957 22.3489H13.7021L15.6399 21.0179L16.5841 20.2387L13.8726 21.5266Z" fill="#C0AC9D" stroke="#C0AC9D" stroke-width="0.25" stroke-linecap="round" stroke-linejoin="round"/>
<path d="M13.6598 18.822L13.2519 18.5342H10.8539L10.446 18.822L10.2168 20.7213L10.4295 20.5353H13.6763L13.8972 20.7213L13.6598 18.822Z" fill="#161616" stroke="#161616" stroke-width="0.25" stroke-linecap="round" stroke-linejoin="round"/>
<path d="M22.3306 8.77417L23.053 5.26517L21.9649 2L13.6599 8.14717L16.8563 10.8431L21.37 12.1576L22.3646 10.9962L21.931 10.6827L22.6194 10.0547L22.0923 9.64775L22.7807 9.1225L22.3306 8.77417ZM1.05298 5.26517L1.78448 8.776L1.31698 9.12342L2.01365 9.64867L1.48656 10.0557L2.17498 10.6836L1.7414 10.9971L2.73598 12.1585L7.24965 10.844L10.4461 8.149L2.14106 2L1.05298 5.26517Z" fill="#763E1A" stroke="#763E1A" stroke-width="0.25" stroke-linecap="round" stroke-linejoin="round"/>
<path d="M21.3699 12.1576L16.8563 10.8431L18.2157 12.8955L16.1844 16.8555L18.8702 16.8207H22.8834L21.3699 12.1576ZM7.24961 10.8431L2.73594 12.1576L1.23169 16.8207H5.23569L7.92152 16.8546L5.89019 12.8946L7.24961 10.8431ZM13.3702 13.1164L13.6599 8.14716L14.9689 4.61157H9.13702L10.446 8.14716L10.7357 13.1155L10.8457 14.6757L10.8549 18.5339H13.2519L13.2602 14.6757L13.3702 13.1164Z" fill="#F5841F" stroke="#F5841F" stroke-width="0.25" stroke-linecap="round" stroke-linejoin="round"/>
</svg>
