<svg width="24" height="24" viewBox="0 0 24 24" fill="none" xmlns="http://www.w3.org/2000/svg">
<path d="M5.50387 7.63448C9.09159 4.12184 14.9085 4.12184 18.4962 7.63448L18.928 8.05729C18.9705 8.0986 19.0044 8.14802 19.0275 8.20265C19.0506 8.25727 19.0625 8.31597 19.0625 8.37528C19.0625 8.43459 19.0506 8.49329 19.0275 8.54791C19.0044 8.60254 18.9705 8.65196 18.928 8.69327L17.4509 10.1395C17.4074 10.1817 17.3491 10.2053 17.2885 10.2053C17.2279 10.2053 17.1696 10.1817 17.1261 10.1395L16.5319 9.55774C14.029 7.10713 9.97104 7.10713 7.4681 9.55774L6.83178 10.1807C6.78827 10.223 6.73002 10.2466 6.66938 10.2466C6.60874 10.2466 6.55049 10.223 6.50698 10.1807L5.02992 8.73453C4.98735 8.69322 4.95351 8.64379 4.9304 8.58916C4.90729 8.53454 4.89538 8.47583 4.89538 8.41651C4.89538 8.3572 4.90729 8.29849 4.9304 8.24386C4.95351 8.18923 4.98735 8.1398 5.02992 8.09849L5.50387 7.63448ZM21.5509 10.6254L22.8655 11.9124C22.908 11.9537 22.9419 12.0032 22.965 12.0578C22.9881 12.1124 23 12.1711 23 12.2305C23 12.2898 22.9881 12.3485 22.965 12.4031C22.9419 12.4577 22.908 12.5072 22.8655 12.5485L16.9379 18.3522C16.7585 18.5278 16.4677 18.5278 16.2883 18.3522L12.0812 14.2331C12.0595 14.212 12.0304 14.2002 12 14.2002C11.9697 14.2002 11.9406 14.212 11.9188 14.2331L7.71191 18.3522C7.53252 18.5278 7.24166 18.5278 7.06226 18.3522L1.13454 12.5484C1.09197 12.5071 1.05813 12.4577 1.03502 12.403C1.01191 12.3484 1 12.2897 1 12.2304C1 12.1711 1.01191 12.1124 1.03502 12.0577C1.05813 12.0031 1.09197 11.9537 1.13454 11.9124L2.44912 10.6253C2.62846 10.4496 2.91932 10.4496 3.09872 10.6253L7.30584 14.7444C7.35068 14.7883 7.42338 14.7883 7.46821 14.7444L11.6751 10.6253C11.8545 10.4496 12.1454 10.4496 12.3247 10.6253L16.5318 14.7444C16.5767 14.7883 16.6494 14.7883 16.6943 14.7444L20.9013 10.6253C21.0806 10.4497 21.3715 10.4498 21.5509 10.6254Z" fill="#00D085"/>
</svg>
