<svg width="32" height="32" viewBox="0 0 32 32" fill="none" xmlns="http://www.w3.org/2000/svg">
<path d="M3.2002 8.00005C3.2002 6.23274 4.63288 4.80005 6.4002 4.80005H17.6002C19.3675 4.80005 20.8002 6.23274 20.8002 8.00005V14.4C20.8002 16.1674 19.3675 17.6 17.6002 17.6H14.4002L9.60019 22.4V17.6H6.4002C4.63288 17.6 3.2002 16.1674 3.2002 14.4V8.00005Z" fill="#101010"/>
<path d="M24.0002 11.2V16.8001C24.0002 19.0092 22.2093 20.8 20.0002 20.8H15.7257L12.899 23.6268C13.3467 23.865 13.8577 24 14.4002 24H17.6002L22.4002 28.8V24H25.6002C27.3675 24 28.8002 22.5674 28.8002 20.8V14.4C28.8002 12.6327 27.3675 11.2 25.6002 11.2H24.0002Z" fill="#101010"/>
</svg>
