<svg width="24" height="24" viewBox="0 0 24 24" fill="none" xmlns="http://www.w3.org/2000/svg">
<path d="M4.49987 3.88013L8.93187 8.02013L7.56787 9.48013L5.49987 7.55013V16.0001C5.49987 17.1001 6.39587 18.0001 7.49987 18.0001H12.9999V20.0001H7.49987C5.29087 20.0001 3.49987 18.2101 3.49987 16.0001V7.55013L1.43187 9.48013L0.0678711 8.02013L4.49987 3.88013ZM16.4999 6.00013H10.9999V4.00013H16.4999C18.7089 4.00013 20.4999 5.79013 20.4999 8.00013V16.4501L22.5679 14.5201L23.9319 15.9801L19.4999 20.1201L15.0679 15.9801L16.4319 14.5201L18.4999 16.4501V8.00013C18.4999 6.90013 17.6039 6.00013 16.4999 6.00013Z" fill="black"/>
</svg>
