<svg width="25" height="24" viewBox="0 0 25 24" fill="none" xmlns="http://www.w3.org/2000/svg">
<g clip-path="url(#clip0_1_10662)">
<path d="M12.5 0C5.87239 0 0.5 5.37239 0.5 12C0.5 18.6276 5.87239 24 12.5 24C19.1276 24 24.5 18.6276 24.5 12C24.5 5.37239 19.1276 0 12.5 0Z" fill="#00BBEF"/>
<path d="M4.50135 11.097C4.50135 11.097 11.7252 8.02374 14.2306 6.94161C15.1909 6.50876 18.4479 5.12361 18.4479 5.12361C18.4479 5.12361 19.9512 4.51758 19.8259 5.98931C19.7842 6.59534 19.4501 8.71627 19.116 11.0105C18.615 14.2569 18.0721 17.8064 18.0721 17.8064C18.0721 17.8064 17.9886 18.8019 17.2788 18.9751C16.5689 19.1482 15.3998 18.369 15.1909 18.1959C15.0239 18.066 12.0592 16.1182 10.9736 15.1659C10.6813 14.9061 10.3472 14.3868 11.0154 13.7808C12.5186 12.3524 14.314 10.5776 15.3998 9.45213C15.9008 8.93269 16.4019 7.72072 14.314 9.19246C11.3494 11.3135 8.42642 13.3046 8.42642 13.3046C8.42642 13.3046 7.75837 13.7374 6.50562 13.3479C5.25296 12.9583 3.79147 12.4389 3.79147 12.4389C3.79147 12.4389 2.78938 11.7896 4.50135 11.097Z" fill="white"/>
</g>
<defs>
<clipPath id="clip0_1_10662">
<rect width="24" height="24" fill="white" transform="translate(0.5)"/>
</clipPath>
</defs>
</svg>
