<svg width="18" height="26" viewBox="0 0 18 26" fill="none" xmlns="http://www.w3.org/2000/svg">
<g clip-path="url(#clip0_1_9639)">
<path fill-rule="evenodd" clip-rule="evenodd" d="M14 0C16.2091 0 18 1.79086 18 4V22C18 24.2091 16.2091 26 14 26H4C1.79086 26 0 24.2091 0 22V4C0 1.79086 1.79086 0 4 0H14ZM11.5 20H6.5C5.67157 20 5 20.6716 5 21.5C5 22.3284 5.67157 23 6.5 23H11.5C12.3284 23 13 22.3284 13 21.5C13 20.6716 12.3284 20 11.5 20ZM13 3H5C3.89543 3 3 3.89543 3 5V15C3 16.1046 3.89543 17 5 17H13C14.1046 17 15 16.1046 15 15V5C15 3.89543 14.1046 3 13 3Z" fill="black"/>
</g>
<defs>
<clipPath id="clip0_1_9639">
<rect width="18" height="26" fill="white"/>
</clipPath>
</defs>
</svg>
