<svg width="190" height="191" viewBox="0 0 190 191" fill="none" xmlns="http://www.w3.org/2000/svg">
<path d="M13.1548 147.255C9.01056 142.456 13.2457 139.802 15.8814 139.075C67.0486 129.396 170.527 110.12 175.109 110.447C179.689 110.774 179.38 114.855 178.653 116.854L165.429 137.984L98.7667 179.427L61.1411 177.109L33.6032 163.75C27.5595 158.934 15.0089 148.89 13.1548 147.255Z" fill="#ABE839"/>
<path d="M13.1548 147.255C9.01056 142.456 13.2457 139.802 15.8814 139.075C67.0486 129.396 170.527 110.12 175.109 110.447C179.689 110.774 179.38 114.855 178.653 116.854L165.429 137.984L98.7667 179.427L61.1411 177.109L33.6032 163.75C27.5595 158.934 15.0089 148.89 13.1548 147.255Z" stroke="black" stroke-width="0.318224"/>
<path d="M13.1548 147.255C9.01056 142.456 13.2457 139.802 15.8814 139.075C67.0486 129.396 170.527 110.12 175.109 110.447C179.689 110.774 179.38 114.855 178.653 116.854L165.429 137.984L98.7667 179.427L61.1411 177.109L33.6032 163.75C27.5595 158.934 15.0089 148.89 13.1548 147.255Z" stroke="#331413" stroke-width="0.318224"/>
<path d="M35.2395 162.523L14.5183 145.347C13.2914 144.165 11.6554 141.339 14.9272 139.484C18.1989 137.63 74.4552 118.263 102.175 108.811L112.672 120.399L126.577 113.31C128.167 112.038 133.147 109.547 140.345 109.766C147.544 109.984 165.293 110.402 173.881 110.583C175.653 110.902 178.489 112.737 175.653 117.536C172.818 122.335 158.659 144.528 151.933 155.026L138.301 161.802L104.492 178.609L61.1408 172.202L35.2395 162.523Z" fill="#679B07"/>
<path d="M61.1408 172.202L104.492 178.609L138.301 161.802M61.1408 172.202L35.2395 162.523L14.5183 145.347C13.2914 144.165 11.6554 141.339 14.9272 139.484C18.1989 137.63 74.4552 118.263 102.175 108.811L112.672 120.399L126.577 113.31C128.167 112.038 133.147 109.547 140.345 109.766C147.544 109.984 165.293 110.402 173.881 110.583C175.653 110.902 178.489 112.737 175.653 117.536C172.818 122.335 158.659 144.528 151.933 155.026L138.301 161.802M61.1408 172.202L98.494 154.207L138.301 161.802" stroke="black" stroke-width="0.318224"/>
<path d="M61.1408 172.202L104.492 178.609L138.301 161.802M61.1408 172.202L35.2395 162.523L14.5183 145.347C13.2914 144.165 11.6554 141.339 14.9272 139.484C18.1989 137.63 74.4552 118.263 102.175 108.811L112.672 120.399L126.577 113.31C128.167 112.038 133.147 109.547 140.345 109.766C147.544 109.984 165.293 110.402 173.881 110.583C175.653 110.902 178.489 112.737 175.653 117.536C172.818 122.335 158.659 144.528 151.933 155.026L138.301 161.802M61.1408 172.202L98.494 154.207L138.301 161.802" stroke="#331413" stroke-width="0.318224"/>
<path d="M138.3 165.114L102.992 181.064L102.583 177.247L124.395 160.888L148.661 144.529L186.831 128.17L189.285 129.806C178.561 138.394 156.703 155.898 155.068 157.207C153.431 158.516 143.207 163.023 138.3 165.114Z" fill="#8ECD1A"/>
<path d="M138.3 165.114L102.992 181.064L102.583 177.247L124.395 160.888L148.661 144.529L186.831 128.17L189.285 129.806C178.561 138.394 156.703 155.898 155.068 157.207C153.431 158.516 143.207 163.023 138.3 165.114Z" stroke="black" stroke-width="0.318224"/>
<path d="M138.3 165.114L102.992 181.064L102.583 177.247L124.395 160.888L148.661 144.529L186.831 128.17L189.285 129.806C178.561 138.394 156.703 155.898 155.068 157.207C153.431 158.516 143.207 163.023 138.3 165.114Z" stroke="#331413" stroke-width="0.318224"/>
<path d="M69.9842 23.2021L64.1221 38.3341L153.551 70.643C154.732 67.8257 157.422 61.373 158.731 58.1012C160.913 50.5761 155.823 45.6957 153.006 44.1961L119.743 27.1555C117.289 25.8378 111.863 22.9568 109.791 21.9752C107.719 20.9937 106.292 20.93 105.837 21.0209C97.4757 20.612 79.8543 19.7122 76.255 19.3851C72.6556 19.0579 70.5745 21.7934 69.9842 23.2021Z" fill="white"/>
<path d="M69.9842 23.2021L64.1221 38.3341L153.551 70.643C154.732 67.8257 157.422 61.373 158.731 58.1012C160.913 50.5761 155.823 45.6957 153.006 44.1961L119.743 27.1555C117.289 25.8378 111.863 22.9568 109.791 21.9752C107.719 20.9937 106.292 20.93 105.837 21.0209C97.4758 20.612 79.8543 19.7122 76.255 19.3851C72.6556 19.0579 70.5745 21.7934 69.9842 23.2021Z" stroke="black" stroke-width="0.318224"/>
<path d="M69.9842 23.2021L64.1221 38.3341L153.551 70.643C154.732 67.8257 157.422 61.373 158.731 58.1012C160.913 50.5761 155.823 45.6957 153.006 44.1961L119.743 27.1555C117.289 25.8378 111.863 22.9568 109.791 21.9752C107.719 20.9937 106.292 20.93 105.837 21.0209C97.4758 20.612 79.8543 19.7122 76.255 19.3851C72.6556 19.0579 70.5745 21.7934 69.9842 23.2021Z" stroke="#331413" stroke-width="0.318224"/>
<path d="M88.115 39.5612L65.3486 37.789C64.8028 37.789 63.9855 37.6527 63.9855 38.0617C63.4397 39.2886 64.9391 40.2882 65.8935 40.9244L81.4347 48.8313C92.3861 53.8299 114.725 64.0451 116.47 64.9176C118.215 65.79 123.559 67.1897 126.013 67.7803L145.507 70.5069C148.052 70.7795 153.25 71.243 153.686 70.9158C154.232 69.6071 150.642 67.5532 148.779 66.6897C134.965 59.9644 105.973 45.8594 100.52 43.242C95.067 40.6246 89.9777 39.6976 88.115 39.5612Z" fill="white"/>
<path d="M88.115 39.5612L65.3486 37.789C64.8028 37.789 63.9855 37.6527 63.9855 38.0617C63.4397 39.2886 64.9391 40.2882 65.8935 40.9244L81.4347 48.8313C92.3861 53.8299 114.725 64.0451 116.47 64.9176C118.215 65.79 123.559 67.1897 126.013 67.7803L145.507 70.5069C148.052 70.7795 153.25 71.243 153.686 70.9158C154.232 69.6071 150.642 67.5532 148.779 66.6897C134.965 59.9644 105.973 45.8594 100.52 43.242C95.067 40.6246 89.9777 39.6976 88.115 39.5612Z" stroke="black" stroke-width="0.318224"/>
<path d="M88.115 39.5612L65.3486 37.789C64.8028 37.789 63.9855 37.6527 63.9855 38.0617C63.4397 39.2886 64.9391 40.2882 65.8935 40.9244L81.4347 48.8313C92.3861 53.8299 114.725 64.0451 116.47 64.9176C118.215 65.79 123.559 67.1897 126.013 67.7803L145.507 70.5069C148.052 70.7795 153.25 71.243 153.686 70.9158C154.232 69.6071 150.642 67.5532 148.779 66.6897C134.965 59.9644 105.973 45.8594 100.52 43.242C95.067 40.6246 89.9777 39.6976 88.115 39.5612Z" stroke="#331413" stroke-width="0.318224"/>
<path d="M88.1157 40.5153L67.6669 39.2883L66.5762 39.2883C65.9216 39.8336 67.3944 41.0605 68.2127 41.6058L95.0685 54.4203C101.975 57.6012 116.117 64.1267 117.425 64.781C118.735 65.4353 123.151 66.5077 125.196 66.9622C130.785 67.7802 142.563 69.4706 144.963 69.6886C147.962 69.9613 150.552 69.9613 150.962 69.9613C151.506 68.9797 148.916 67.5529 147.553 66.9622L124.106 55.1019C118.153 52.1937 105.101 45.8592 100.521 43.787C95.9407 41.7149 90.3425 40.7425 88.1157 40.5153Z" fill="white"/>
<path d="M88.1157 40.5153L67.6669 39.2883L66.5762 39.2883C65.9216 39.8336 67.3944 41.0605 68.2127 41.6058L95.0685 54.4203C101.975 57.6012 116.117 64.1267 117.425 64.781C118.735 65.4353 123.151 66.5077 125.196 66.9622C130.785 67.7802 142.563 69.4706 144.963 69.6886C147.962 69.9613 150.552 69.9613 150.962 69.9613C151.506 68.9797 148.916 67.5529 147.553 66.9622L124.106 55.1019C118.153 52.1937 105.101 45.8592 100.521 43.787C95.9407 41.7149 90.3425 40.7425 88.1157 40.5153Z" stroke="black" stroke-width="0.318224"/>
<path d="M88.1157 40.5153L67.6669 39.2883L66.5762 39.2883C65.9216 39.8336 67.3944 41.0605 68.2127 41.6058L95.0685 54.4203C101.975 57.6012 116.117 64.1267 117.425 64.781C118.735 65.4353 123.151 66.5077 125.196 66.9622C130.785 67.7802 142.563 69.4706 144.963 69.6886C147.962 69.9613 150.552 69.9613 150.962 69.9613C151.506 68.9797 148.916 67.5529 147.553 66.9622L124.106 55.1019C118.153 52.1937 105.101 45.8592 100.521 43.787C95.9407 41.7149 90.3425 40.7425 88.1157 40.5153Z" stroke="#331413" stroke-width="0.318224"/>
<path d="M126.422 41.8791C126.831 40.5613 127.731 36.9442 128.058 33.018C128.231 30.9408 127.293 29.4843 126.094 28.5193C125.027 27.6604 123.755 27.191 122.878 27.0198C124.604 26.9289 127.422 27.4287 129.967 24.7023C131.875 22.6574 133.648 19.3856 134.601 16.5227C135.365 14.2326 134.283 11.7514 133.648 10.7971C137.283 12.7511 145.071 16.9863 147.144 18.295C149.734 19.9308 150.142 21.4305 150.006 23.0663C149.87 24.7023 149.052 27.0198 146.87 30.8368C144.69 34.6539 141.009 34.6539 138.691 34.6539C143.19 37.3804 141.281 46.6505 140.873 48.0137C140.546 49.1043 137.555 56.7385 136.101 60.4192L122.06 53.3304L126.422 41.8791Z" fill="#F5F5F5"/>
<path d="M138.691 34.6539C143.19 37.3804 141.281 46.6505 140.873 48.0137C140.546 49.1043 137.555 56.7385 136.101 60.4192L122.06 53.3304L126.422 41.8791C126.831 40.5613 127.731 36.9442 128.058 33.018C128.231 30.9408 127.293 29.4843 126.094 28.5193M138.691 34.6539C141.009 34.6539 144.69 34.6539 146.87 30.8368C149.052 27.0198 149.87 24.7023 150.006 23.0663C150.142 21.4305 149.734 19.9308 147.144 18.295C145.071 16.9863 137.283 12.7511 133.648 10.7971C134.283 11.7514 135.365 14.2326 134.601 16.5227C133.648 19.3856 131.875 22.6574 129.967 24.7023C127.422 27.4287 124.604 26.9289 122.878 27.0198C123.755 27.191 125.027 27.6604 126.094 28.5193M138.691 34.6539L126.094 28.5193" stroke="black" stroke-width="0.318224"/>
<path d="M106.381 3.70792L117.287 20.4757L115.379 21.7027L106.381 7.79759C105.745 6.29805 103.819 3.18982 101.201 2.75363C98.5836 2.31736 96.5659 4.11686 95.8847 5.07114C93.9758 8.61556 94.6578 10.7968 95.2027 12.7053C95.4366 13.5249 96.1323 14.3361 96.9745 15.0527C97.2933 14.2702 98.3651 12.4872 100.11 11.6147C100.329 11.8328 100.656 12.4326 100.792 12.7053L100.929 12.8416C100.033 13.0234 98.1569 13.8504 97.8133 15.7044C98.7284 16.3588 99.6931 16.8884 100.383 17.204L108.426 21.1574L103.519 20.7485C101.928 20.294 98.4748 19.0853 97.3841 17.8856C96.0209 16.3861 93.8396 15.1592 93.0213 12.0237C92.204 8.88819 92.204 7.11602 94.2483 4.11686C96.2934 1.11769 98.7472 0.845063 101.201 0.708749C103.164 0.599681 105.472 2.66273 106.381 3.70792Z" fill="white"/>
<path d="M129.284 11.7518L113.198 23.6119L114.289 24.2936C119.605 20.4311 130.456 12.5696 131.329 12.0244C132.42 11.3427 133.511 13.2513 133.511 14.4782C133.511 15.7051 133.511 17.8863 130.784 21.7035C128.602 24.7571 126.513 25.2479 125.74 25.1116H116.061L119.06 26.7474C120.696 26.8837 124.458 27.0746 126.422 26.7474C128.385 26.4202 130.33 24.339 131.056 23.3393C132.192 21.4762 134.519 17.4501 134.738 16.2505C135.01 14.7508 134.874 12.8424 133.783 11.2064C132.91 9.89777 130.42 11.0247 129.284 11.7518Z" fill="white"/>
<path d="M148.779 27.02L147.824 28.9286C148.37 28.7923 149.815 28.6014 151.232 28.9286C153.005 29.3376 154.913 31.5188 155.049 34.7906C155.186 38.0623 154.641 38.4713 152.868 40.2435C151.451 41.6613 148.733 41.6522 147.552 41.4704C148.597 42.0157 150.796 43.1336 151.232 43.2427C155.868 42.4247 156.958 38.0623 156.958 36.0175C156.958 33.9726 156.549 32.3367 154.641 29.3376C153.114 26.9383 150.096 26.7928 148.779 27.02Z" fill="white"/>
<path d="M127.639 30.5631C126.984 28.6001 124.457 27.4731 123.276 27.155C122.867 27.3822 121.095 26.7461 119.187 26.8824C120.55 27.8367 126.421 29.0636 125.866 34.7892C125.993 36.4251 124.367 40.6511 123.958 42.0144C123.631 43.105 120.822 49.1941 119.459 52.1024L122.049 53.3293C123.231 50.2847 125.73 43.8411 126.276 42.4234C126.957 40.6511 127.911 38.3336 128.184 35.8798C128.456 33.4259 128.456 33.017 127.639 30.5631Z" fill="white"/>
<path d="M96.9745 15.0527C96.1323 14.3361 95.4366 13.5249 95.2027 12.7053C94.6578 10.7968 93.9758 8.61556 95.8847 5.07114C96.5659 4.11686 98.5836 2.31736 101.201 2.75363C103.819 3.18982 105.745 6.29806 106.381 7.7976L115.379 21.7027L117.287 20.4757L106.381 3.70792C105.472 2.66273 103.164 0.599681 101.201 0.708749C98.7472 0.845063 96.2934 1.11769 94.2483 4.11686C92.204 7.11602 92.204 8.88819 93.0213 12.0237C93.8396 15.1592 96.0209 16.3861 97.3841 17.8856C98.4748 19.0853 101.928 20.294 103.519 20.7485L108.426 21.1574L100.383 17.204C99.6931 16.8884 98.7284 16.3588 97.8133 15.7044M96.9745 15.0527C97.2933 14.2702 98.3651 12.4872 100.11 11.6147C100.329 11.8328 100.656 12.4326 100.792 12.7053L100.929 12.8416C100.033 13.0234 98.1569 13.8504 97.8133 15.7044M96.9745 15.0527C97.2427 15.2804 97.5255 15.4986 97.8133 15.7044M113.198 23.6112L129.284 11.751C130.42 11.024 132.91 9.89705 133.783 11.2057C134.873 12.8416 135.01 14.7501 134.737 16.2498C134.519 17.4494 132.192 21.4755 131.056 23.3386C130.329 24.3383 128.384 26.4195 126.421 26.7467C124.458 27.0739 120.695 26.883 119.06 26.7467L116.06 25.1109H125.739C126.512 25.2472 128.602 24.7564 130.783 21.7027C133.51 17.8856 133.51 15.7044 133.51 14.4775C133.51 13.2506 132.42 11.342 131.329 12.0237C130.456 12.5689 119.605 20.4303 114.288 24.2929L113.198 23.6112ZM147.824 28.9279L148.778 27.0193C150.096 26.7921 153.113 26.9376 154.64 29.3368C156.548 32.336 156.958 33.9719 156.958 36.0168C156.958 38.0616 155.867 42.424 151.232 43.242C150.796 43.1329 148.597 42.015 147.551 41.4697C148.733 41.6515 151.45 41.6606 152.868 40.2428C154.64 38.4706 155.185 38.0616 155.049 34.7898C154.913 31.518 153.005 29.3368 151.232 28.9279C149.814 28.6007 148.369 28.7916 147.824 28.9279ZM123.276 27.1557C124.458 27.4738 126.984 28.6007 127.639 30.5638C128.456 33.0176 128.456 33.4266 128.184 35.8804C127.911 38.3342 126.957 40.6518 126.276 42.424C125.73 43.8418 123.231 50.2853 122.049 53.3299L119.459 52.103C120.822 49.1948 123.631 43.1056 123.958 42.015C124.367 40.6518 125.993 36.4257 125.866 34.7898C126.421 29.0642 120.55 27.8373 119.187 26.883C121.095 26.7467 122.867 27.3829 123.276 27.1557Z" stroke="black" stroke-width="0.318224"/>
<path d="M96.9745 15.0527C96.1323 14.3361 95.4366 13.5249 95.2027 12.7053C94.6578 10.7968 93.9758 8.61556 95.8847 5.07114C96.5659 4.11686 98.5836 2.31736 101.201 2.75363C103.819 3.18982 105.745 6.29806 106.381 7.7976L115.379 21.7027L117.287 20.4757L106.381 3.70792C105.472 2.66273 103.164 0.599681 101.201 0.708749C98.7472 0.845063 96.2934 1.11769 94.2483 4.11686C92.204 7.11602 92.204 8.88819 93.0213 12.0237C93.8396 15.1592 96.0209 16.3861 97.3841 17.8856C98.4748 19.0853 101.928 20.294 103.519 20.7485L108.426 21.1574L100.383 17.204C99.6931 16.8884 98.7284 16.3588 97.8133 15.7044M96.9745 15.0527C97.2933 14.2702 98.3651 12.4872 100.11 11.6147C100.329 11.8328 100.656 12.4326 100.792 12.7053L100.929 12.8416C100.033 13.0234 98.1569 13.8504 97.8133 15.7044M96.9745 15.0527C97.2427 15.2804 97.5255 15.4986 97.8133 15.7044M113.198 23.6112L129.284 11.751C130.42 11.024 132.91 9.89705 133.783 11.2057C134.873 12.8416 135.01 14.7501 134.737 16.2498C134.519 17.4494 132.192 21.4755 131.056 23.3386C130.329 24.3383 128.384 26.4195 126.421 26.7467C124.458 27.0739 120.695 26.883 119.06 26.7467L116.06 25.1109H125.739C126.512 25.2472 128.602 24.7564 130.783 21.7027C133.51 17.8856 133.51 15.7044 133.51 14.4775C133.51 13.2506 132.42 11.342 131.329 12.0237C130.456 12.5689 119.605 20.4303 114.288 24.2929L113.198 23.6112ZM147.824 28.9279L148.778 27.0193C150.096 26.7921 153.113 26.9376 154.64 29.3368C156.548 32.336 156.958 33.9719 156.958 36.0168C156.958 38.0616 155.867 42.424 151.232 43.242C150.796 43.1329 148.597 42.015 147.551 41.4697C148.733 41.6515 151.45 41.6606 152.868 40.2428C154.64 38.4706 155.185 38.0616 155.049 34.7898C154.913 31.518 153.005 29.3368 151.232 28.9279C149.814 28.6007 148.369 28.7916 147.824 28.9279ZM123.276 27.1557C124.458 27.4738 126.984 28.6007 127.639 30.5638C128.456 33.0176 128.456 33.4266 128.184 35.8804C127.911 38.3342 126.957 40.6518 126.276 42.424C125.73 43.8418 123.231 50.2853 122.049 53.3299L119.459 52.103C120.822 49.1948 123.631 43.1056 123.958 42.015C124.367 40.6518 125.993 36.4257 125.866 34.7898C126.421 29.0642 120.55 27.8373 119.187 26.883C121.095 26.7467 122.867 27.3829 123.276 27.1557Z" stroke="#331413" stroke-width="0.318224"/>
<path d="M80.0715 38.8798L77.7539 37.9256C78.89 35.0628 81.5169 28.7373 82.934 26.338C84.7067 23.3388 85.9336 22.1119 89.6143 19.9307C92.5591 18.1858 96.4763 18.3858 98.0665 18.7038L102.838 20.6124H97.1121C96.2938 20.7033 93.9222 21.1304 90.9775 22.1119C88.0327 23.0935 85.1154 27.0651 84.0247 28.9281L80.0715 38.8798Z" fill="white"/>
<path d="M95.8857 5.20721C96.4769 4.29842 98.1759 2.508 100.248 2.61707C102.839 2.75338 104.747 4.66195 105.292 5.88886C105.728 6.87039 112.199 16.9312 115.38 21.8388L113.199 23.611L105.292 19.5213C103.247 18.5216 98.8853 16.3586 97.7947 15.7042C98.1219 13.9592 100.003 13.0686 100.902 12.8414L95.8857 5.20721Z" fill="white"/>
<path d="M130.785 12.4331L114.562 24.157L116.062 25.1113H125.468C126.777 25.1113 128.104 24.3842 128.603 24.0207C129.558 23.2936 131.739 21.1578 132.829 18.4314C134.193 15.0233 133.647 13.66 132.829 12.4331C132.175 11.4515 131.193 12.0241 130.785 12.4331Z" fill="white"/>
<path d="M145.098 36.2896C144.88 37.4892 143.917 38.7888 143.462 39.2887C144.507 39.7886 146.843 40.9519 147.825 41.6062C150.551 41.8789 152.05 40.7883 153.413 39.6977C154.777 38.6071 155.186 36.2896 155.186 35.0626C155.186 33.8357 154.64 31.5182 153.277 30.0186C151.914 28.5191 149.596 28.7917 148.097 28.7917C147.334 30.6457 145.78 32.3816 145.098 33.0178C145.189 33.6085 145.316 35.0899 145.098 36.2896Z" fill="white"/>
<path d="M105.292 19.5213L113.198 23.611L115.38 21.8388C112.198 16.9312 105.728 6.87039 105.292 5.88886C104.746 4.66195 102.838 2.75338 100.248 2.61707C98.1753 2.508 96.4763 4.29842 95.8851 5.20721L100.902 12.8414M105.292 19.5213L100.902 12.8414M105.292 19.5213C103.247 18.5216 98.8847 16.3586 97.794 15.7042C98.1213 13.9592 100.002 13.0686 100.902 12.8414M77.7539 37.9251L80.0715 38.8794L84.0247 28.9277C85.1154 27.0646 88.0327 23.093 90.9775 22.1114C93.9222 21.1299 96.2938 20.7028 97.1121 20.6119H102.838L98.0665 18.7033C96.4763 18.3853 92.5591 18.1853 89.6143 19.9302C85.9336 22.1114 84.7067 23.3383 82.934 26.3375C81.5169 28.7368 78.89 35.0623 77.7539 37.9251ZM114.561 24.1563L130.784 12.4325C131.193 12.0234 132.175 11.4508 132.829 12.4325C133.647 13.6594 134.193 15.0226 132.829 18.4307C131.739 21.1572 129.558 23.2929 128.603 24.02C128.104 24.3835 126.776 25.1106 125.467 25.1106C124.159 25.1106 118.652 25.1106 116.061 25.1106L114.561 24.1563ZM143.462 39.2883C143.917 38.7885 144.88 37.4888 145.099 36.2892C145.316 35.0895 145.19 33.6081 145.099 33.0174C145.78 32.3812 147.334 30.6453 148.097 28.7913C149.597 28.7913 151.914 28.5187 153.278 30.0183C154.641 31.5178 155.186 33.8353 155.186 35.0623C155.186 36.2892 154.777 38.6067 153.414 39.6973C152.051 40.7879 150.551 41.8785 147.825 41.6058C146.843 40.9515 144.508 39.7882 143.462 39.2883Z" stroke="black" stroke-width="0.318224"/>
<path d="M105.292 19.5213L113.198 23.611L115.38 21.8388C112.198 16.9312 105.728 6.87039 105.292 5.88886C104.746 4.66195 102.838 2.75338 100.248 2.61707C98.1753 2.508 96.4763 4.29842 95.8851 5.20721L100.902 12.8414M105.292 19.5213L100.902 12.8414M105.292 19.5213C103.247 18.5216 98.8847 16.3586 97.794 15.7042C98.1213 13.9592 100.002 13.0686 100.902 12.8414M77.7539 37.9251L80.0715 38.8794L84.0247 28.9277C85.1154 27.0646 88.0327 23.093 90.9775 22.1114C93.9222 21.1299 96.2938 20.7028 97.1121 20.6119H102.838L98.0665 18.7033C96.4763 18.3853 92.5591 18.1853 89.6143 19.9302C85.9336 22.1114 84.7067 23.3383 82.934 26.3375C81.5169 28.7368 78.89 35.0623 77.7539 37.9251ZM114.561 24.1563L130.784 12.4325C131.193 12.0234 132.175 11.4508 132.829 12.4325C133.647 13.6594 134.193 15.0226 132.829 18.4307C131.739 21.1572 129.558 23.2929 128.603 24.02C128.104 24.3835 126.776 25.1106 125.467 25.1106C124.159 25.1106 118.652 25.1106 116.061 25.1106L114.561 24.1563ZM143.462 39.2883C143.917 38.7885 144.88 37.4888 145.099 36.2892C145.316 35.0895 145.19 33.6081 145.099 33.0174C145.78 32.3812 147.334 30.6453 148.097 28.7913C149.597 28.7913 151.914 28.5187 153.278 30.0183C154.641 31.5178 155.186 33.8353 155.186 35.0623C155.186 36.2892 154.777 38.6067 153.414 39.6973C152.051 40.7879 150.551 41.8785 147.825 41.6058C146.843 40.9515 144.508 39.7882 143.462 39.2883Z" stroke="#331413" stroke-width="0.318224"/>
<path d="M39.8738 174.52L2.38477 163.887L8.2467 162.114L70.1379 167.976L99.0389 181.746C87.5871 180.655 63.3214 178.391 57.8688 178.065C52.4162 177.738 43.5999 175.566 39.8738 174.52Z" fill="#8ECD1A"/>
<path d="M39.8738 174.52L2.38477 163.887L8.2467 162.114L70.1379 167.976L99.0389 181.746C87.5871 180.655 63.3214 178.391 57.8688 178.065C52.4162 177.738 43.5999 175.566 39.8738 174.52Z" stroke="black" stroke-width="0.318224"/>
<path d="M39.8738 174.52L2.38477 163.887L8.2467 162.114L70.1379 167.976L99.0389 181.746C87.5871 180.655 63.3214 178.391 57.8688 178.065C52.4162 177.738 43.5999 175.566 39.8738 174.52Z" stroke="#331413" stroke-width="0.318224"/>
<path d="M0.476223 161.023C0.585291 159.06 2.79373 158.66 3.88433 158.706C13.0636 159.479 33.1941 161.132 40.2831 161.568C47.3721 162.004 54.2332 163.568 56.7779 164.295L98.9024 177.109C100.993 178.109 104.601 180.354 102.311 181.336C100.021 182.317 97.9934 181.926 97.2668 181.608C84.5882 178.018 58.4683 170.62 55.4147 169.748C52.3612 168.876 46.236 167.748 43.5551 167.294C30.604 166.294 4.40234 164.268 3.20276 164.158C1.70313 164.022 0.339909 163.477 0.476223 161.023Z" fill="#ABE839"/>
<path d="M0.476223 161.023C0.585291 159.06 2.79373 158.66 3.88433 158.706C13.0636 159.479 33.1941 161.132 40.2831 161.568C47.3721 162.004 54.2332 163.568 56.7779 164.295L98.9024 177.109C100.993 178.109 104.601 180.354 102.311 181.336C100.021 182.317 97.9934 181.926 97.2668 181.608C84.5882 178.018 58.4683 170.62 55.4147 169.748C52.3612 168.876 46.236 167.748 43.5551 167.294C30.604 166.294 4.40234 164.268 3.20276 164.158C1.70313 164.022 0.339909 163.477 0.476223 161.023Z" stroke="black" stroke-width="0.318224"/>
<path d="M0.476223 161.023C0.585291 159.06 2.79373 158.66 3.88433 158.706C13.0636 159.479 33.1941 161.132 40.2831 161.568C47.3721 162.004 54.2332 163.568 56.7779 164.295L98.9024 177.109C100.993 178.109 104.601 180.354 102.311 181.336C100.021 182.317 97.9934 181.926 97.2668 181.608C84.5882 178.018 58.4683 170.62 55.4147 169.748C52.3612 168.876 46.236 167.748 43.5551 167.294C30.604 166.294 4.40234 164.268 3.20276 164.158C1.70313 164.022 0.339909 163.477 0.476223 161.023Z" stroke="#331413" stroke-width="0.318224"/>
<path d="M0.476223 161.023C0.585291 159.06 2.79373 158.66 3.88433 158.706C13.0636 159.479 33.1941 161.132 40.2831 161.568C47.3721 162.004 54.2332 163.568 56.7779 164.295L98.9024 177.109C100.993 178.109 104.601 180.354 102.311 181.336C100.021 182.317 97.9934 181.926 97.2668 181.608C84.5882 178.018 58.4683 170.62 55.4147 169.748C52.3612 168.876 46.236 167.748 43.5551 167.294C30.604 166.294 4.40234 164.268 3.20276 164.158C1.70313 164.022 0.339909 163.477 0.476223 161.023Z" stroke="black" stroke-opacity="0.2" stroke-width="0.318224"/>
<path d="M131.757 151.481L101.357 176.019C100.539 176.838 98.9032 177.928 99.8577 179.836C101.057 182.236 103.902 180.836 105.174 179.836C113.354 173.202 130.776 159.088 135.029 155.708C139.283 152.327 145.981 148.846 148.798 147.528C161.067 142.12 185.987 131.169 187.514 130.624C189.422 129.942 190.104 129.124 189.014 127.079C188.141 125.443 185.287 126.034 183.97 126.534C172.655 131.533 148.743 142.048 143.618 144.12C138.492 146.192 133.576 149.891 131.757 151.481Z" fill="#ABE839"/>
<path d="M131.757 151.481L101.357 176.019C100.539 176.838 98.9032 177.928 99.8577 179.836C101.057 182.236 103.902 180.836 105.174 179.836C113.354 173.202 130.776 159.088 135.029 155.708C139.283 152.327 145.981 148.846 148.798 147.528C161.067 142.12 185.987 131.169 187.514 130.624C189.422 129.942 190.104 129.124 189.014 127.079C188.141 125.443 185.287 126.034 183.97 126.534C172.655 131.533 148.743 142.048 143.618 144.12C138.492 146.192 133.575 149.891 131.757 151.481Z" stroke="black" stroke-width="0.318224"/>
<path d="M131.757 151.481L101.357 176.019C100.539 176.838 98.9032 177.928 99.8577 179.836C101.057 182.236 103.902 180.836 105.174 179.836C113.354 173.202 130.776 159.088 135.029 155.708C139.283 152.327 145.981 148.846 148.798 147.528C161.067 142.12 185.987 131.169 187.514 130.624C189.422 129.942 190.104 129.124 189.014 127.079C188.141 125.443 185.287 126.034 183.97 126.534C172.655 131.533 148.743 142.048 143.618 144.12C138.492 146.192 133.575 149.891 131.757 151.481Z" stroke="#331413" stroke-width="0.318224"/>
<path d="M131.757 151.481L101.357 176.019C100.539 176.838 98.9032 177.928 99.8577 179.836C101.057 182.236 103.902 180.836 105.174 179.836C113.354 173.202 130.776 159.088 135.029 155.708C139.283 152.327 145.981 148.846 148.798 147.528C161.067 142.12 185.987 131.169 187.514 130.624C189.422 129.942 190.104 129.124 189.014 127.079C188.141 125.443 185.287 126.034 183.97 126.534C172.655 131.533 148.743 142.048 143.618 144.12C138.492 146.192 133.575 149.891 131.757 151.481Z" stroke="black" stroke-opacity="0.2" stroke-width="0.318224"/>
<path d="M111.512 149.991C95.1027 161.254 74.9709 159.035 63.2552 143.334C58.1223 135.855 56.1422 129.613 57.8129 122.447C59.4871 115.266 64.8291 107.138 74.4105 95.9033C86.4046 87.0585 96.1351 85.0004 104.137 86.9959C112.148 88.9935 118.462 95.0619 123.601 102.548C133.84 117.466 127.928 138.722 111.512 149.991Z" fill="#FF8E2B" stroke="black" stroke-width="0.318224"/>
<path d="M109.186 145.835C92.7749 157.1 71.1737 154.104 60.9308 139.181C50.688 124.258 55.6573 103.024 72.0681 91.7599C88.479 80.4956 110.079 83.4914 120.323 98.4142C130.566 113.337 125.596 134.571 109.186 145.835Z" fill="#FEDD7B" stroke="black" stroke-width="0.318224"/>
<path d="M107.451 143.309C92.5723 153.522 72.9897 150.805 63.7039 137.277C54.4181 123.749 58.9222 104.499 73.8011 94.2854C88.6808 84.0723 108.263 86.7895 117.549 100.317C126.835 113.845 122.331 133.096 107.451 143.309Z" fill="#FEBB00" stroke="black" stroke-width="0.318224"/>
<path d="M82.0341 135.247C71.4733 127.972 70.626 123.508 76.3368 117.729C73.6523 109.813 75.5287 106.633 79.9023 104.887C82.6357 103.798 86.4115 107.969 86.4115 107.969C86.4115 107.969 88.4392 100.461 94.6186 101.382C99.3263 102.082 101.556 105.238 100.839 109.928C105.07 107.352 109.083 108.318 110.957 112.176C113.442 117.311 106.693 122.178 106.693 122.178C106.693 122.178 112.035 121.974 112.665 126.564C113.303 131.162 108.175 135.51 102.893 135.689C98.5141 144.103 94.0036 143.483 82.0341 135.247Z" fill="#FF950D"/>
<path d="M80.7086 132.534L80.7084 132.534C78.0542 130.705 75.9911 129.041 74.4834 127.475C72.9768 125.911 72.0025 124.423 71.5624 122.945C70.6862 120.002 71.9782 117.319 74.7238 114.473C73.4561 110.631 73.2416 107.816 73.9573 105.708C74.7026 103.514 76.4146 102.2 78.6749 101.298L78.6753 101.298C79.5032 100.968 80.3792 101.049 81.1839 101.308C81.9885 101.568 82.7632 102.017 83.4281 102.486C84.096 102.957 84.672 103.461 85.0799 103.846C85.1052 103.87 85.1298 103.893 85.1538 103.916C85.2025 103.787 85.2581 103.645 85.3212 103.494C85.6177 102.78 86.0819 101.833 86.7512 100.911C88.0908 99.0665 90.3058 97.2639 93.6502 97.7622L80.7086 132.534ZM80.7086 132.534C83.7073 134.597 86.2561 136.196 88.4619 137.296C90.664 138.395 92.5601 139.016 94.2471 139.086C95.9559 139.158 97.4236 138.664 98.743 137.591C99.9931 136.575 101.094 135.053 102.16 133.05C104.824 132.886 107.416 131.726 109.292 130.03C111.234 128.274 112.467 125.884 112.118 123.371C111.771 120.837 110.101 119.62 108.574 119.056C107.985 118.839 107.413 118.715 106.934 118.644C106.957 118.624 106.979 118.604 107.002 118.584C107.612 118.033 108.403 117.24 109.117 116.276C110.53 114.367 111.731 111.656 110.366 108.834L110.365 108.833C109.371 106.786 107.784 105.467 105.851 105.027C104.179 104.647 102.305 104.936 100.402 105.895M80.7086 132.534L100.402 105.895M100.402 105.895C100.544 103.875 100.121 102.119 99.1265 100.741C97.972 99.1423 96.1008 98.1268 93.6503 97.7622L100.402 105.895Z" fill="#FFE06C" stroke="black"/>
<path d="M94.7282 133.528C90.0214 136.209 87.9521 129.26 85.3052 127.461C82.7349 125.723 76.4851 126.621 76.5659 121.24C76.6273 116.574 87.544 113.357 92.5563 116.753C97.5773 120.14 98.8346 131.192 94.7282 133.528Z" fill="#975400"/>
<path d="M94.6443 133.339C90.3307 135.689 88.4165 129.898 85.8797 127.652C84.5263 126.45 82.5537 126.274 80.8702 125.8C78.5683 125.144 76.5873 123.803 76.7742 121.124C76.8948 119.409 78.4055 118.181 79.7975 117.391C81.5723 116.383 83.6075 115.835 85.6291 115.624C87.6592 115.422 89.8565 115.567 91.7143 116.5C93.5378 117.416 94.7797 119.151 95.6062 120.984C96.5994 123.198 97.0795 125.69 96.9655 128.112C96.8685 129.973 96.3936 132.304 94.6443 133.339C94.418 133.473 94.5935 133.847 94.8198 133.712C96.3256 132.812 96.9727 131.079 97.239 129.427C97.5916 127.198 97.3166 124.831 96.6676 122.673C96.043 120.611 95.0215 118.56 93.3782 117.129C91.7947 115.742 89.6808 115.21 87.6288 115.145C85.3959 115.068 83.121 115.491 81.0469 116.332C79.3892 117.005 77.6052 118.057 76.7609 119.709C75.8989 121.395 76.4426 123.672 77.8998 124.858C79.6808 126.308 82.1384 126.354 84.214 127.144C86.461 128.006 87.536 130.515 89.0369 132.237C90.614 134.054 92.576 134.938 94.8198 133.712C95.0546 133.586 94.8703 133.221 94.6443 133.339Z" fill="#754C28"/>
<path d="M91.7443 111.385C93.8358 111.96 96.116 110.298 96.8373 107.674C97.5586 105.05 96.4478 102.457 94.3563 101.882C92.2648 101.307 89.9846 102.968 89.2633 105.592C88.542 108.217 89.6528 110.81 91.7443 111.385Z" fill="#975400"/>
<path d="M96.7919 106.917C96.4313 109.102 94.677 111.62 92.1635 111.272C89.8825 110.953 89.0157 108.361 89.3045 106.364C89.6213 104.221 91.3306 101.832 93.7347 101.997C96.1735 102.146 97.0384 104.859 96.7919 106.917C96.7535 107.175 97.1672 107.198 97.1968 106.949C97.4315 105.106 96.886 102.95 95.1407 101.992C93.4639 101.07 91.5036 101.8 90.3185 103.171C88.9844 104.703 88.4758 106.982 89.1022 108.923C89.6547 110.613 91.1623 111.887 92.9854 111.681C95.3442 111.415 96.828 109.108 97.1883 106.94C97.244 106.682 96.8303 106.658 96.7919 106.917Z" fill="#754C28"/>
<path d="M104.688 115.618C106.708 113.775 107.169 110.99 105.716 109.397C104.264 107.805 101.448 108.008 99.4273 109.851C97.4066 111.694 96.9461 114.479 98.3987 116.071C99.8513 117.664 102.667 117.461 104.688 115.618Z" fill="#975400"/>
<path d="M104.12 115.834C102.402 117.076 99.4778 117.636 98.1994 115.46C97.0133 113.45 98.337 110.891 100.012 109.639C101.626 108.43 104.343 107.884 105.738 109.725C107.278 111.75 105.831 114.479 104.12 115.834C103.919 115.995 104.182 116.301 104.382 116.14C105.945 114.912 107.149 112.86 106.671 110.809C106.249 109.008 104.582 108.009 102.795 108.129C100.705 108.27 98.7686 109.724 97.8607 111.591C97.1037 113.175 97.0902 115.228 98.4948 116.465C100.189 117.966 102.708 117.339 104.365 116.139C104.592 115.988 104.329 115.682 104.12 115.834Z" fill="#754C28"/>
<path d="M106 127.22C107.686 126.118 108.333 124.123 107.445 122.764C106.557 121.405 104.47 121.197 102.784 122.299C101.098 123.401 100.451 125.396 101.34 126.755C102.228 128.113 104.315 128.322 106 127.22Z" fill="#975400"/>
<path d="M105.336 127.365C103.878 127.981 101.758 127.846 101.233 126.044C100.766 124.424 102.058 122.795 103.465 122.161C104.855 121.526 106.888 121.678 107.493 123.317C108.132 125.009 106.77 126.653 105.336 127.365C105.093 127.482 105.277 127.847 105.512 127.738C107.137 126.943 108.597 125.05 107.884 123.159C107.187 121.303 104.888 121.052 103.289 121.787C101.639 122.539 100.212 124.502 100.918 126.367C101.631 128.258 103.888 128.43 105.512 127.738C105.746 127.629 105.579 127.265 105.336 127.365Z" fill="#754C28"/>
<path d="M79.7254 112.13C81.3171 112.449 82.9283 111.106 83.324 109.132C83.7198 107.157 82.7502 105.297 81.1585 104.978C79.5667 104.659 77.9556 106.002 77.5598 107.977C77.1641 109.951 78.1337 111.811 79.7254 112.13Z" fill="#975400"/>
<path d="M77.2745 108.619C77.2393 110.387 78.2438 112.42 80.2543 112.373C82.2388 112.333 83.529 110.283 83.6167 108.464C83.7036 106.697 82.6128 104.662 80.6368 104.71C78.6088 104.775 77.4051 106.809 77.2745 108.619C77.2533 108.877 77.6583 108.909 77.6794 108.651C77.7974 107.109 78.7472 105.32 80.4579 105.139C82.2979 104.951 83.2871 106.863 83.2115 108.449C83.1454 109.975 82.1622 111.694 80.5368 111.946C78.6261 112.236 77.6465 110.263 77.6794 108.651C77.6833 108.392 77.2783 108.36 77.2745 108.619Z" fill="#754C28"/>
<g style="mix-blend-mode:overlay" opacity="0.5">
<path d="M81.1521 105.964C81.1521 105.964 80.5813 106.636 81.1836 107.888C81.7858 109.139 82.7469 108.325 82.5377 107.321C82.3843 106.62 81.875 105.5 81.1521 105.964Z" fill="white"/>
</g>
<g style="mix-blend-mode:overlay" opacity="0.5">
<path d="M106.714 124.037C106.714 124.037 105.845 123.877 105.06 125.03C104.275 126.183 105.468 126.606 106.229 125.919C106.779 125.435 107.476 124.437 106.714 124.037Z" fill="white"/>
</g>
<g style="mix-blend-mode:overlay" opacity="0.5">
<path d="M94.3846 103.098C94.3846 103.098 93.1975 104.029 93.6218 106.218C94.0464 108.389 95.9087 107.296 96.0026 105.641C96.0634 104.46 95.73 102.54 94.3846 103.098Z" fill="white"/>
</g>
<g style="mix-blend-mode:overlay" opacity="0.5">
<path d="M104.558 110.29C104.558 110.29 103.111 110.726 102.716 112.911C102.321 115.096 104.456 114.757 105.143 113.24C105.634 112.17 106.025 110.261 104.558 110.29Z" fill="white"/>
</g>
<g style="mix-blend-mode:soft-light" opacity="0.5">
<path d="M93.9534 122.57C93.2893 124.863 93.7675 128.631 92.5532 129.078C91.3476 129.517 89.6563 129.561 89.9064 130.712C90.148 131.854 92.5178 132.58 93.9639 131.635C95.7843 130.464 95.9266 127.3 95.4247 124.541C95.1223 122.846 94.2083 121.676 93.9534 122.57Z" fill="white"/>
</g>
<path d="M103.892 169.654L103.883 169.658C95.8213 174.313 85.1398 170.953 80.0351 162.112C74.9304 153.272 77.3611 142.341 85.4225 137.686L85.4302 137.682L85.4371 137.677C89.6079 134.651 94.2825 134.329 98.557 135.866C102.837 137.404 106.716 140.807 109.271 145.232C111.83 149.664 113.106 154.473 112.435 158.817C111.765 163.152 109.154 167.045 103.892 169.654Z" fill="#666666" stroke="black" stroke-width="0.37337"/>
<path d="M111.584 143.884C116.688 152.724 114.258 163.655 106.196 168.31C98.1338 172.965 87.4523 169.604 82.3475 160.764C77.2428 151.924 79.6735 140.993 87.7359 136.338C95.7973 131.683 106.48 135.043 111.584 143.884Z" fill="white" stroke="black" stroke-width="0.37337"/>
<path d="M110.011 144.792C114.568 152.683 112.397 162.439 105.204 166.592C98.0105 170.745 88.4771 167.748 83.9207 159.856C79.3644 151.965 81.5346 142.211 88.7281 138.057C95.9217 133.904 105.454 136.901 110.011 144.792Z" fill="white" stroke="black" stroke-width="0.37337"/>
<path d="M87.8783 149.419L86.54 145.013L87.4996 143.995L100.818 142.076L103.015 145.434L102.157 146.481L96.5053 147.657L98.5873 153.825L95.1661 154.706L93.2332 148.244L87.8783 149.419Z" fill="#666666"/>
<path d="M87.5804 155.294C86.6285 153.413 91.2491 151.867 93.6781 151.328C92.0425 151.915 88.0268 153.531 88.3241 154.853C88.6214 156.175 94.2736 155.44 95.761 155.294C97.2475 155.146 104.535 153.237 104.535 151.768C104.535 150.3 99.6276 150.447 97.9912 150.3C99.3303 150.153 101.71 150.153 103.346 150.3C108.581 151.71 102.652 154.412 99.033 155.587L102.535 163.828L101.71 164.694L98.1402 165.428L95.4628 156.322C93.2326 156.762 88.5323 157.174 87.5804 155.294Z" fill="#666666"/>
<path d="M87.8783 149.419L86.54 145.013L87.4996 143.995L100.818 142.076L103.015 145.434L102.157 146.481L96.5053 147.657L98.5873 153.825L95.1661 154.706L93.2332 148.244L87.8783 149.419Z" stroke="black" stroke-width="0.37337"/>
<path d="M87.5804 155.294C86.6285 153.413 91.2491 151.867 93.6781 151.328C92.0425 151.915 88.0268 153.531 88.3241 154.853C88.6214 156.175 94.2736 155.44 95.761 155.294C97.2475 155.146 104.535 153.237 104.535 151.768C104.535 150.3 99.6276 150.447 97.9912 150.3C99.3303 150.153 101.71 150.153 103.346 150.3C108.581 151.71 102.652 154.412 99.033 155.587L102.535 163.828L101.71 164.694L98.1402 165.428L95.4628 156.322C93.2326 156.762 88.5323 157.174 87.5804 155.294Z" stroke="black" stroke-width="0.37337"/>
<path d="M88.8373 148.458L87.499 144.052L101.777 141.115L103.116 145.52L97.4643 146.696L99.5462 152.864L96.1251 153.746L94.1922 147.283L88.8373 148.458Z" fill="white"/>
<path d="M88.5404 154.332C87.5885 152.453 92.2091 150.906 94.6381 150.367C93.0025 150.955 88.9867 152.57 89.284 153.892C89.5814 155.214 95.2336 154.48 96.7209 154.332C98.2083 154.186 105.495 152.277 105.495 150.808C105.495 149.339 100.588 149.486 98.952 149.339C100.29 149.192 102.67 149.192 104.306 149.339C109.541 150.749 103.612 153.452 99.993 154.626L102.67 163.732L99.1002 164.467L96.4236 155.36C94.1926 155.802 89.4922 156.213 88.5404 154.332Z" fill="white"/>
<path d="M88.8373 148.458L87.499 144.052L101.777 141.115L103.116 145.52L97.4643 146.696L99.5462 152.864L96.1251 153.746L94.1922 147.283L88.8373 148.458Z" stroke="black" stroke-width="0.37337"/>
<path d="M88.8373 148.458L87.499 144.052L101.777 141.115L103.116 145.52L97.4643 146.696L99.5462 152.864L96.1251 153.746L94.1922 147.283L88.8373 148.458Z" stroke="#331413" stroke-width="0.37337"/>
<path d="M88.8373 148.458L87.499 144.052L101.777 141.115L103.116 145.52L97.4643 146.696L99.5462 152.864L96.1251 153.746L94.1922 147.283L88.8373 148.458Z" stroke="black" stroke-opacity="0.2" stroke-width="0.37337"/>
<path d="M88.5404 154.332C87.5885 152.453 92.2091 150.906 94.6381 150.367C93.0025 150.955 88.9867 152.57 89.284 153.892C89.5814 155.214 95.2336 154.48 96.7209 154.332C98.2083 154.186 105.495 152.277 105.495 150.808C105.495 149.339 100.588 149.486 98.952 149.339C100.29 149.192 102.67 149.192 104.306 149.339C109.541 150.749 103.612 153.452 99.993 154.626L102.67 163.732L99.1002 164.467L96.4236 155.36C94.1926 155.802 89.4922 156.213 88.5404 154.332Z" stroke="black" stroke-width="0.37337"/>
<path d="M88.5404 154.332C87.5885 152.453 92.2091 150.906 94.6381 150.367C93.0025 150.955 88.9867 152.57 89.284 153.892C89.5814 155.214 95.2336 154.48 96.7209 154.332C98.2083 154.186 105.495 152.277 105.495 150.808C105.495 149.339 100.588 149.486 98.952 149.339C100.29 149.192 102.67 149.192 104.306 149.339C109.541 150.749 103.612 153.452 99.993 154.626L102.67 163.732L99.1002 164.467L96.4236 155.36C94.1926 155.802 89.4922 156.213 88.5404 154.332Z" stroke="#331413" stroke-width="0.37337"/>
<path d="M88.5404 154.332C87.5885 152.453 92.2091 150.906 94.6381 150.367C93.0025 150.955 88.9867 152.57 89.284 153.892C89.5814 155.214 95.2336 154.48 96.7209 154.332C98.2083 154.186 105.495 152.277 105.495 150.808C105.495 149.339 100.588 149.486 98.952 149.339C100.29 149.192 102.67 149.192 104.306 149.339C109.541 150.749 103.612 153.452 99.993 154.626L102.67 163.732L99.1002 164.467L96.4236 155.36C94.1926 155.802 89.4922 156.213 88.5404 154.332Z" stroke="black" stroke-opacity="0.2" stroke-width="0.37337"/>
<path d="M54.48 81.5568L54.0156 83.7606C54.0927 83.9152 54.3403 84.2477 54.7113 84.3405C55.1757 84.4565 55.5236 85.1525 55.7557 86.0804C55.9408 86.8227 56.2193 87.3177 56.3358 87.4723L59.2351 90.1401L58.8873 87.1243C58.7716 87.1243 58.3535 87.0083 57.6115 86.5444C56.6836 85.9644 56.7993 85.2684 56.568 83.9926C56.3821 82.9718 55.0986 81.9434 54.48 81.5568Z" stroke="black" stroke-width="0.27076"/>
<path d="M54.48 81.5568L54.0156 83.7606C54.0927 83.9152 54.3403 84.2477 54.7113 84.3405C55.1757 84.4565 55.5236 85.1525 55.7557 86.0804C55.9408 86.8227 56.2193 87.3177 56.3358 87.4723L59.2351 90.1401L58.8873 87.1243C58.7716 87.1243 58.3535 87.0083 57.6115 86.5444C56.6836 85.9644 56.7993 85.2684 56.568 83.9926C56.3821 82.9718 55.0986 81.9434 54.48 81.5568Z" stroke="#331413" stroke-width="0.27076"/>
<path d="M54.48 81.5568L54.0156 83.7606C54.0927 83.9152 54.3403 84.2477 54.7113 84.3405C55.1757 84.4565 55.5236 85.1525 55.7557 86.0804C55.9408 86.8227 56.2193 87.3177 56.3358 87.4723L59.2351 90.1401L58.8873 87.1243C58.7716 87.1243 58.3535 87.0083 57.6115 86.5444C56.6836 85.9644 56.7993 85.2684 56.568 83.9926C56.3821 82.9718 55.0986 81.9434 54.48 81.5568Z" stroke="black" stroke-opacity="0.2" stroke-width="0.27076"/>
<path d="M137.948 81.5572C137.391 82.1141 137.02 83.4131 136.904 83.9931C137.561 84.0704 139.062 84.2947 139.804 84.573C139.688 83.9931 139.92 83.1812 140.616 82.6012C141.312 82.0213 142.472 81.5572 143.632 81.5572C144.56 81.5572 145.255 80.552 145.488 80.0494L145.603 78.0775L143.052 78.7735C142.935 79.0441 142.658 79.7015 142.472 80.1654C142.239 80.7454 141.776 80.6294 140.151 80.5133C138.528 80.3973 138.644 80.8614 137.948 81.5572Z" stroke="black" stroke-width="0.27076"/>
<path d="M137.948 81.5572C137.391 82.1141 137.02 83.4131 136.904 83.9931C137.561 84.0704 139.062 84.2947 139.804 84.573C139.688 83.9931 139.92 83.1812 140.616 82.6012C141.312 82.0213 142.472 81.5572 143.632 81.5572C144.56 81.5572 145.255 80.552 145.488 80.0494L145.603 78.0775L143.052 78.7735C142.935 79.0441 142.658 79.7015 142.472 80.1654C142.239 80.7454 141.776 80.6294 140.151 80.5133C138.528 80.3973 138.644 80.8614 137.948 81.5572Z" stroke="#331413" stroke-width="0.27076"/>
<path d="M137.948 81.5572C137.391 82.1141 137.02 83.4131 136.904 83.9931C137.561 84.0704 139.062 84.2947 139.804 84.573C139.688 83.9931 139.92 83.1812 140.616 82.6012C141.312 82.0213 142.472 81.5572 143.632 81.5572C144.56 81.5572 145.255 80.552 145.488 80.0494L145.603 78.0775L143.052 78.7735C142.935 79.0441 142.658 79.7015 142.472 80.1654C142.239 80.7454 141.776 80.6294 140.151 80.5133C138.528 80.3973 138.644 80.8614 137.948 81.5572Z" stroke="black" stroke-opacity="0.2" stroke-width="0.27076"/>
<path d="M131.035 178.187L124.54 180.855L124.308 180.623C125.352 179.385 127.904 176.423 129.759 174.475C131.615 172.527 133.78 171.807 134.631 171.691C136.177 171.73 139.48 171.876 140.315 172.155C141.358 172.503 142.634 173.315 143.331 174.011C144.026 174.707 145.302 176.679 145.187 180.042C145.093 182.734 145.998 184.334 146.462 184.798L150.29 178.535H155.393L155.973 179.115C155.393 180.159 153.956 182.757 152.842 184.798C151.45 187.35 145.406 188.752 143.55 188.636C141.694 188.519 140.855 188.581 139.695 186.494C138.767 184.823 138.768 180.159 138.575 177.607C138.613 176.679 138.273 174.754 136.603 174.475C134.933 174.197 132.195 176.834 131.035 178.187Z" stroke="black" stroke-width="0.27076"/>
<path d="M131.035 178.187L124.54 180.855L124.308 180.623C125.352 179.385 127.904 176.423 129.759 174.475C131.615 172.527 133.78 171.807 134.631 171.691C136.177 171.73 139.48 171.876 140.315 172.155C141.358 172.503 142.634 173.315 143.331 174.011C144.026 174.707 145.302 176.679 145.187 180.042C145.093 182.734 145.998 184.334 146.462 184.798L150.29 178.535H155.393L155.973 179.115C155.393 180.159 153.956 182.757 152.842 184.798C151.45 187.35 145.406 188.752 143.55 188.636C141.694 188.519 140.855 188.581 139.695 186.494C138.767 184.823 138.768 180.159 138.575 177.607C138.613 176.679 138.273 174.754 136.603 174.475C134.933 174.197 132.195 176.834 131.035 178.187Z" stroke="#331413" stroke-width="0.27076"/>
<path d="M131.035 178.187L124.54 180.855L124.308 180.623C125.352 179.385 127.904 176.423 129.759 174.475C131.615 172.527 133.78 171.807 134.631 171.691C136.177 171.73 139.48 171.876 140.315 172.155C141.358 172.503 142.634 173.315 143.331 174.011C144.026 174.707 145.302 176.679 145.187 180.042C145.093 182.734 145.998 184.334 146.462 184.798L150.29 178.535H155.393L155.973 179.115C155.393 180.159 153.956 182.757 152.842 184.798C151.45 187.35 145.406 188.752 143.55 188.636C141.694 188.519 140.855 188.581 139.695 186.494C138.767 184.823 138.768 180.159 138.575 177.607C138.613 176.679 138.273 174.754 136.603 174.475C134.933 174.197 132.195 176.834 131.035 178.187Z" stroke="black" stroke-opacity="0.2" stroke-width="0.27076"/>
<path d="M7.13301 183.513L2.60938 184.789V185.717C3.30534 186.529 4.97564 188.362 6.08911 189.196C7.20267 190.032 9.80086 190.55 10.9608 190.704C12.198 190.627 15.0668 190.38 16.6443 190.009C18.315 190.009 18.4229 187.688 18.2678 186.529L16.8763 180.845C16.683 179.802 16.366 177.528 16.6443 176.786C16.7445 176.519 16.9032 175.662 18.2953 175.662C19.4082 175.662 22.2502 177.559 23.3717 178.294L29.6356 178.874V178.525C28.9391 178.023 26.9676 176.623 24.6474 175.046C22.3281 173.468 19.4279 173.151 18.2678 173.19C16.3957 173.335 15.1432 173.463 13.5828 174.805C13.0416 175.153 12.1207 176.414 11.6567 177.714C11.0767 179.337 11.6567 182.353 12.0047 183.746C12.283 184.859 12.43 186.993 12.4686 187.921L7.13301 183.513Z" stroke="black" stroke-width="0.27076"/>
<path d="M7.13301 183.513L2.60938 184.789V185.717C3.30534 186.529 4.97564 188.362 6.08911 189.196C7.20267 190.032 9.80086 190.55 10.9608 190.704C12.198 190.627 15.0668 190.38 16.6443 190.009C18.315 190.009 18.4229 187.688 18.2678 186.529L16.8763 180.845C16.683 179.802 16.366 177.528 16.6443 176.786C16.7445 176.519 16.9032 175.662 18.2953 175.662C19.4082 175.662 22.2502 177.559 23.3717 178.294L29.6356 178.874V178.525C28.9391 178.023 26.9676 176.623 24.6474 175.046C22.3281 173.468 19.4279 173.151 18.2678 173.19C16.3957 173.335 15.1432 173.463 13.5828 174.805C13.0416 175.153 12.1207 176.414 11.6567 177.714C11.0767 179.337 11.6567 182.353 12.0047 183.746C12.283 184.859 12.43 186.993 12.4686 187.921L7.13301 183.513Z" stroke="#331413" stroke-width="0.27076"/>
<path d="M7.13301 183.513L2.60938 184.789V185.717C3.30534 186.529 4.97564 188.362 6.08911 189.196C7.20267 190.032 9.80086 190.55 10.9608 190.704C12.198 190.627 15.0668 190.38 16.6443 190.009C18.315 190.009 18.4229 187.688 18.2678 186.529L16.8763 180.845C16.683 179.802 16.366 177.528 16.6443 176.786C16.7445 176.519 16.9032 175.662 18.2953 175.662C19.4082 175.662 22.2502 177.559 23.3717 178.294L29.6356 178.874V178.525C28.9391 178.023 26.9676 176.623 24.6474 175.046C22.3281 173.468 19.4279 173.151 18.2678 173.19C16.3957 173.335 15.1432 173.463 13.5828 174.805C13.0416 175.153 12.1207 176.414 11.6567 177.714C11.0767 179.337 11.6567 182.353 12.0047 183.746C12.283 184.859 12.43 186.993 12.4686 187.921L7.13301 183.513Z" stroke="black" stroke-opacity="0.2" stroke-width="0.27076"/>
<path d="M41.9293 112.111C36.7217 115.686 30.3456 114.978 26.6348 110.006C25.0027 107.628 24.3849 105.66 24.9101 103.405C25.4396 101.136 27.1301 98.5557 30.1879 94.9695C34.004 92.1579 37.0833 91.5161 39.6022 92.1443C42.1306 92.7748 44.132 94.6923 45.7694 97.0773C49.0054 101.793 47.1445 108.531 41.9293 112.111Z" fill="#666666" stroke="black" stroke-width="0.318224"/>
<path d="M41.1866 110.781C35.9774 114.357 29.1334 113.399 25.8939 108.679C22.6536 103.958 24.2198 97.2277 29.429 93.6518C34.6382 90.0761 41.4822 91.034 44.7226 95.7546C47.9621 100.475 46.3959 107.206 41.1866 110.781Z" fill="white" stroke="black" stroke-width="0.318224"/>
<path d="M40.6321 109.974C35.9121 113.214 29.7142 112.345 26.7797 108.07C23.8452 103.795 25.2632 97.6986 29.9832 94.4587C34.7032 91.2189 40.902 92.0878 43.8357 96.3626C46.7701 100.637 45.3522 106.734 40.6321 109.974Z" fill="#666666" stroke="black" stroke-width="0.318224"/>
<path d="M40.6333 109.974C35.9081 113.218 29.8249 112.507 27.0353 108.442C24.2456 104.377 25.7681 98.446 30.4932 95.2025C35.2192 91.9589 41.3015 92.67 44.0912 96.7346C46.8818 100.799 45.3584 106.731 40.6333 109.974Z" fill="white" stroke="black" stroke-width="0.318224"/>
<path d="M38.3644 105.542L31.2754 108.268L31.0029 107.45L31.4116 101.725L33.3205 105.542H38.3644Z" fill="#666666"/>
<path d="M34.0018 104.86L32.0938 100.77L39.5915 96.5437L39.8639 97.3617L38.7732 104.86H34.0018Z" fill="#666666"/>
<path d="M38.3644 105.542L31.2754 108.268L31.0029 107.45L31.4116 101.725L33.3205 105.542H38.3644Z" stroke="black" stroke-width="0.318224"/>
<path d="M38.3644 105.542L31.2754 108.268L31.0029 107.45L31.4116 101.725L33.3205 105.542H38.3644Z" stroke="#331413" stroke-width="0.318224"/>
<path d="M38.3644 105.542L31.2754 108.268L31.0029 107.45L31.4116 101.725L33.3205 105.542H38.3644Z" stroke="black" stroke-opacity="0.2" stroke-width="0.318224"/>
<path d="M34.0018 104.86L32.0938 100.77L39.5915 96.5437L39.8639 97.3617L38.7732 104.86H34.0018Z" stroke="black" stroke-width="0.318224"/>
<path d="M34.0018 104.86L32.0938 100.77L39.5915 96.5437L39.8639 97.3617L38.7732 104.86H34.0018Z" stroke="#331413" stroke-width="0.318224"/>
<path d="M34.0018 104.86L32.0938 100.77L39.5915 96.5437L39.8639 97.3617L38.7732 104.86H34.0018Z" stroke="black" stroke-opacity="0.2" stroke-width="0.318224"/>
<path d="M31.0029 107.45L31.1392 100.906L33.0472 104.723H38.0919L31.0029 107.45Z" fill="white"/>
<path d="M33.7302 104.042L31.8213 99.9518L39.5923 96.5437L38.5016 104.042H33.7302Z" fill="white"/>
<path d="M31.0029 107.45L31.1392 100.906L33.0472 104.723H38.0919L31.0029 107.45Z" stroke="black" stroke-width="0.318224"/>
<path d="M31.0029 107.45L31.1392 100.906L33.0472 104.723H38.0919L31.0029 107.45Z" stroke="#331413" stroke-width="0.318224"/>
<path d="M31.0029 107.45L31.1392 100.906L33.0472 104.723H38.0919L31.0029 107.45Z" stroke="black" stroke-opacity="0.2" stroke-width="0.318224"/>
<path d="M33.7302 104.042L31.8213 99.9518L39.5923 96.5437L38.5016 104.042H33.7302Z" stroke="black" stroke-width="0.318224"/>
<path d="M33.7302 104.042L31.8213 99.9518L39.5923 96.5437L38.5016 104.042H33.7302Z" stroke="#331413" stroke-width="0.318224"/>
<path d="M33.7302 104.042L31.8213 99.9518L39.5923 96.5437L38.5016 104.042H33.7302Z" stroke="black" stroke-opacity="0.2" stroke-width="0.318224"/>
<path d="M164.195 114.632C161.88 119.895 158.559 124.115 155.069 126.684C151.576 129.256 147.939 130.159 144.967 128.852C141.899 127.501 141.817 127.454 140.56 126.738C140.343 126.615 140.092 126.471 139.782 126.297C139.816 124.385 140.024 120.164 140.45 115.886C140.666 113.716 140.938 111.533 141.272 109.63C141.606 107.724 142 106.109 142.459 105.068C143.777 102.071 146.275 98.5502 148.952 95.4752C151.608 92.4261 154.426 89.8316 156.429 88.6268C158.045 89.1678 158.693 89.471 159.745 89.9637C160.249 90.1996 160.846 90.479 161.687 90.8489C164.659 92.1564 166.45 95.4476 166.915 99.7605C167.378 104.069 166.511 109.368 164.195 114.632Z" fill="#666666" stroke="black" stroke-width="0.318224"/>
<path d="M159.434 112.471C157.119 117.735 153.798 121.954 150.308 124.524C146.815 127.096 143.178 127.998 140.206 126.691C137.234 125.383 135.442 122.092 134.978 117.779C134.514 113.47 135.381 108.171 137.697 102.908C140.013 97.6441 143.334 93.4246 146.824 90.8551C150.317 88.2833 153.954 87.3807 156.926 88.6883C159.897 89.9958 161.69 93.2869 162.154 97.5999C162.618 101.909 161.75 107.207 159.434 112.471Z" fill="white" stroke="black" stroke-width="0.318224"/>
<path d="M157.577 111.654C155.539 116.286 152.666 120.021 149.675 122.316C146.68 124.614 143.596 125.45 141.111 124.357C138.626 123.263 137.158 120.425 136.829 116.664C136.5 112.908 137.312 108.267 139.349 103.634C141.388 99.0017 144.261 95.2673 147.252 92.9723C150.248 90.6739 153.332 89.8385 155.817 90.9315C158.301 92.0247 159.769 94.8631 160.099 98.6244C160.428 102.38 159.616 107.021 157.577 111.654Z" fill="#666666" stroke="black" stroke-width="0.318224"/>
<path d="M157.577 111.654C155.538 116.287 152.72 120.047 149.816 122.381C146.906 124.72 143.945 125.604 141.599 124.572C139.254 123.54 137.905 120.759 137.663 117.034C137.422 113.317 138.289 108.698 140.327 104.065C142.365 99.431 145.185 95.6717 148.089 93.3377C150.998 90.9989 153.959 90.1146 156.305 91.1467C158.651 92.1788 160 94.9592 160.241 98.6843C160.482 102.402 159.616 107.02 157.577 111.654Z" fill="white" stroke="black" stroke-width="0.318224"/>
<path fill-rule="evenodd" clip-rule="evenodd" d="M149.072 105.263L151.688 103.409L150.151 108.604L150.855 109.683L152.378 108.604L153.696 98.6824L153.015 97.6315L149.557 101.614L148.379 104.175L149.072 105.263ZM147.835 101.176L148.482 102.376L147.997 106.024L146.475 107.103L145.653 106.22L147.835 101.176ZM146.822 114.871L147.655 108.601L146.822 107.447L146.132 109.68L144.018 118.489L144.814 119.598L148.955 116.666L148.956 116.665L149.199 114.83L150.028 115.907L151.55 114.828L152.035 111.18L151.242 110.174L149.2 114.821L149.439 113.017L148.517 111.945L146.822 114.871ZM149.2 114.821L149.198 114.828L149.199 114.83L149.2 114.821ZM149.782 110.443V110.445L149.781 110.446L148.236 111.54L147.425 110.446L148.728 107.841L148.729 107.836L148.379 107.549L149.001 107.642L149.606 105.811L150.275 106.741L149.782 110.443Z" fill="#666666"/>
<mask id="mask0_197_9474" style="mask-type:luminance" maskUnits="userSpaceOnUse" x="141" y="91" width="16" height="36">
<path d="M156.484 91.2559H141.639V126.837H156.484V91.2559Z" fill="white"/>
<path fill-rule="evenodd" clip-rule="evenodd" d="M149.072 105.263L151.688 103.409L150.151 108.604L150.855 109.683L152.378 108.604L153.696 98.6824L153.015 97.6315L149.557 101.614L148.379 104.175L149.072 105.263ZM147.835 101.176L148.482 102.376L147.997 106.024L146.475 107.103L145.653 106.22L147.835 101.176ZM146.822 114.871L147.655 108.601L146.822 107.447L146.132 109.68L144.018 118.489L144.814 119.598L148.955 116.666L148.956 116.665L149.199 114.83L150.028 115.907L151.55 114.828L152.035 111.18L151.242 110.174L149.2 114.821L149.439 113.017L148.517 111.945L146.822 114.871ZM149.2 114.821L149.198 114.828L149.199 114.83L149.2 114.821ZM149.782 110.443V110.445L149.781 110.446L148.236 111.54L147.425 110.446L148.728 107.841L148.729 107.836L148.379 107.549L149.001 107.642L149.606 105.811L150.275 106.741L149.782 110.443Z" fill="black"/>
</mask>
<g mask="url(#mask0_197_9474)">
<path d="M151.689 103.41L151.808 103.613L152.054 102.781L151.65 103.068L151.689 103.41ZM149.072 105.263L148.99 105.563L149.046 105.651L149.111 105.605L149.072 105.263ZM150.151 108.605L150.032 108.401L149.942 108.708L150.071 108.906L150.151 108.605ZM150.855 109.683L150.774 109.985L150.83 110.07L150.894 110.025L150.855 109.683ZM152.378 108.605L152.417 108.946L152.494 108.892L152.519 108.708L152.378 108.605ZM153.696 98.6827L153.836 98.786L153.872 98.5263L153.777 98.3815L153.696 98.6827ZM153.015 97.6318L153.095 97.3305L153.027 97.2252L152.953 97.3107L153.015 97.6318ZM149.557 101.615L149.495 101.294L149.475 101.316L149.459 101.352L149.557 101.615ZM148.38 104.175L148.282 103.913L148.138 104.225L148.297 104.475L148.38 104.175ZM148.482 102.376L148.623 102.48L148.654 102.242L148.573 102.092L148.482 102.376ZM147.835 101.177L147.926 100.893L147.826 100.708L147.734 100.921L147.835 101.177ZM147.997 106.025L148.037 106.366L148.113 106.312L148.138 106.128L147.997 106.025ZM146.475 107.103L146.412 107.429L146.462 107.482L146.514 107.445L146.475 107.103ZM145.653 106.22L145.552 105.965L145.394 106.333L145.592 106.546L145.653 106.22ZM147.655 108.601L147.615 108.26L147.539 108.314L147.514 108.498L147.655 108.601ZM146.822 114.872L146.681 114.768L146.547 115.781L146.906 115.16L146.822 114.872ZM147.655 108.601L147.694 108.943L148.029 108.705L147.73 108.292L147.655 108.601ZM146.822 107.447L146.897 107.137L146.783 106.98L146.704 107.237L146.822 107.447ZM146.132 109.68L146.014 109.47L146.009 109.487L146.005 109.505L146.132 109.68ZM144.018 118.489L143.89 118.315L143.816 118.623L143.942 118.799L144.018 118.489ZM144.815 119.599L144.739 119.908L144.793 119.983L144.854 119.94L144.815 119.599ZM148.955 116.666L148.994 117.008L148.998 117.005L148.955 116.666ZM148.956 116.665L148.999 117.004L149.073 116.946L149.096 116.769L148.956 116.665ZM150.028 115.907L149.956 116.221L150.009 116.29L150.067 116.249L150.028 115.907ZM151.551 114.828L151.59 115.17L151.667 115.116L151.691 114.932L151.551 114.828ZM152.036 111.18L152.176 111.283L152.214 111L152.106 110.864L152.036 111.18ZM151.242 110.174L151.312 109.858L151.22 109.74L151.142 109.917L151.242 110.174ZM149.439 113.018L149.58 113.121L149.619 112.828L149.505 112.696L149.439 113.018ZM148.517 111.946L148.582 111.624L148.504 111.533L148.432 111.657L148.517 111.946ZM149.198 114.828L149.098 114.571L148.948 114.912L149.126 115.143L149.198 114.828ZM149.782 110.443L149.889 110.192L149.628 109.547L149.635 110.455L149.782 110.443ZM149.782 110.443L149.676 110.695L149.847 111.118L149.923 110.547L149.782 110.443ZM149.782 110.445L149.829 110.781L149.932 110.694L149.93 110.433L149.782 110.445ZM149.781 110.446L149.821 110.788L149.824 110.785L149.828 110.782L149.781 110.446ZM148.237 111.541L148.163 111.852L148.216 111.924L148.276 111.882L148.237 111.541ZM147.425 110.446L147.333 110.173L147.166 110.507L147.351 110.758L147.425 110.446ZM148.728 107.841L148.821 108.114L148.854 108.047L148.868 107.948L148.728 107.841ZM148.729 107.836L148.869 107.943L148.914 107.61L148.779 107.498L148.729 107.836ZM148.38 107.55L148.392 107.194L148.33 107.887L148.38 107.55ZM149.002 107.643L148.99 107.998L149.068 108.01L149.116 107.862L149.002 107.643ZM149.607 105.812L149.682 105.502L149.572 105.349L149.492 105.592L149.607 105.812ZM150.275 106.741L150.415 106.845L150.451 106.573L150.35 106.432L150.275 106.741ZM151.65 103.068L149.032 104.922L149.111 105.605L151.728 103.751L151.65 103.068ZM150.271 108.808L151.808 103.613L151.569 103.206L150.032 108.401L150.271 108.808ZM150.936 109.381L150.232 108.303L150.071 108.906L150.774 109.985L150.936 109.381ZM152.339 108.263L150.816 109.341L150.894 110.025L152.417 108.946L152.339 108.263ZM153.555 98.5794L152.238 108.501L152.519 108.708L153.836 98.786L153.555 98.5794ZM152.933 97.9329L153.615 98.9839L153.777 98.3815L153.095 97.3305L152.933 97.9329ZM149.619 101.936L153.077 97.9527L152.953 97.3107L149.495 101.294L149.619 101.936ZM148.477 104.438L149.655 101.877L149.459 101.352L148.282 103.913L148.477 104.438ZM149.154 104.964L148.462 103.876L148.297 104.475L148.99 105.563L149.154 104.964ZM148.573 102.092L147.926 100.893L147.744 101.461L148.391 102.66L148.573 102.092ZM148.138 106.128L148.623 102.48L148.342 102.273L147.857 105.921L148.138 106.128ZM146.514 107.445L148.037 106.366L147.958 105.683L146.436 106.762L146.514 107.445ZM145.592 106.546L146.412 107.429L146.537 106.777L145.716 105.895L145.592 106.546ZM147.734 100.921L145.552 105.965L145.754 106.476L147.936 101.432L147.734 100.921ZM147.514 108.498L146.681 114.768L146.963 114.975L147.795 108.705L147.514 108.498ZM146.747 107.757L147.58 108.911L147.73 108.292L146.897 107.137L146.747 107.757ZM146.25 109.889L146.939 107.657L146.704 107.237L146.014 109.47L146.25 109.889ZM144.145 118.664L146.26 109.854L146.005 109.505L143.89 118.315L144.145 118.664ZM144.89 119.289L144.093 118.18L143.942 118.799L144.739 119.908L144.89 119.289ZM148.916 116.324L144.775 119.257L144.854 119.94L148.994 117.008L148.916 116.324ZM148.913 116.327L148.912 116.327L148.998 117.005L148.999 117.004L148.913 116.327ZM149.059 114.727L148.816 116.562L149.096 116.769L149.34 114.934L149.059 114.727ZM149.128 115.145L149.956 116.221L150.1 115.592L149.271 114.516L149.128 115.145ZM150.067 116.249L151.59 115.17L151.512 114.487L149.989 115.565L150.067 116.249ZM151.691 114.932L152.176 111.283L151.895 111.077L151.41 114.725L151.691 114.932ZM152.106 110.864L151.312 109.858L151.172 110.49L151.965 111.496L152.106 110.864ZM151.142 109.917L149.1 114.565L149.301 115.079L151.342 110.431L151.142 109.917ZM149.299 112.914L149.06 114.719L149.341 114.925L149.58 113.121L149.299 112.914ZM148.451 112.267L149.373 113.339L149.505 112.696L148.582 111.624L148.451 112.267ZM146.906 115.16L148.601 112.234L148.432 111.657L146.737 114.583L146.906 115.16ZM149.1 114.565L149.098 114.571L149.298 115.085L149.301 115.079L149.1 114.565ZM149.126 115.143L149.128 115.145L149.271 114.516L149.269 114.514L149.126 115.143ZM149.06 114.719L149.059 114.727L149.34 114.934L149.341 114.925L149.06 114.719ZM149.93 110.433V110.431L149.635 110.455V110.458L149.93 110.433ZM149.828 110.782L149.829 110.781L149.736 110.11L149.735 110.11L149.828 110.782ZM148.276 111.882L149.821 110.788L149.742 110.104L148.197 111.199L148.276 111.882ZM147.351 110.758L148.163 111.852L148.31 111.229L147.499 110.134L147.351 110.758ZM148.635 107.568L147.333 110.173L147.519 110.719L148.821 108.114L148.635 107.568ZM148.589 107.729L148.588 107.734L148.868 107.948L148.869 107.943L148.589 107.729ZM148.33 107.887L148.679 108.173L148.779 107.498L148.429 107.212L148.33 107.887ZM149.014 107.287L148.392 107.194L148.368 107.905L148.99 107.998L149.014 107.287ZM149.492 105.592L148.887 107.424L149.116 107.862L149.721 106.031L149.492 105.592ZM150.35 106.432L149.682 105.502L149.531 106.121L150.199 107.051L150.35 106.432ZM149.923 110.547L150.415 106.845L150.134 106.638L149.642 110.34L149.923 110.547Z" fill="black"/>
</g>
<path fill-rule="evenodd" clip-rule="evenodd" d="M148.253 104.174L150.871 102.32L150.037 108.594L151.56 107.515L152.878 97.5931L148.738 100.525L148.254 104.174L148.253 104.174ZM146.141 102.366L147.664 101.287L147.179 104.935L145.657 106.014L146.141 102.366ZM146.004 113.782L146.836 107.512L145.315 108.585L145.314 108.591L143.996 118.51L148.137 115.577L148.621 111.928L146.004 113.782ZM149.695 111.169L151.218 110.091L150.734 113.739L149.21 114.818L149.695 111.169ZM148.965 109.354V109.356L148.964 109.357L147.418 110.451L147.91 106.752L147.911 106.747L147.913 106.745L148.183 106.554L148.315 106.461L149.456 105.652L148.965 109.354Z" fill="white"/>
</svg>
