<svg width="250" height="200" viewBox="0 0 250 200" fill="none" xmlns="http://www.w3.org/2000/svg">
<g clip-path="url(#clip0_2040_58248)">
<rect width="250" height="200" fill="white"/>
<path d="M37.5007 161.957C33.0904 156.85 37.5974 154.026 40.4022 153.252C94.8534 142.952 204.974 122.438 209.849 122.787C214.723 123.135 214.394 127.477 213.621 129.605L199.548 152.091L128.607 196.194L88.5667 193.727L59.2615 179.51C52.8298 174.385 39.4737 163.697 37.5007 161.957Z" fill="#ABE839"/>
<path d="M37.5007 161.957C33.0904 156.85 37.5974 154.026 40.4022 153.252C94.8534 142.952 204.974 122.438 209.849 122.787C214.723 123.135 214.394 127.477 213.621 129.605L199.548 152.091L128.607 196.194L88.5667 193.727L59.2615 179.51C52.8298 174.385 39.4737 163.697 37.5007 161.957Z" stroke="black" stroke-width="0.318224"/>
<path d="M37.5007 161.957C33.0904 156.85 37.5974 154.026 40.4022 153.252C94.8534 142.952 204.974 122.438 209.849 122.787C214.723 123.135 214.394 127.477 213.621 129.605L199.548 152.091L128.607 196.194L88.5667 193.727L59.2615 179.51C52.8298 174.385 39.4737 163.697 37.5007 161.957Z" stroke="#331413" stroke-width="0.318224"/>
<path d="M61.0043 178.205L38.9532 159.926C37.6476 158.669 35.9066 155.661 39.3884 153.688C42.8701 151.715 102.737 131.104 132.236 121.046L143.407 133.377L158.204 125.833C159.896 124.479 165.196 121.829 172.856 122.061C180.517 122.293 199.405 122.738 208.544 122.932C210.43 123.27 213.448 125.224 210.43 130.331C207.413 135.437 192.345 159.055 185.188 170.226L170.68 177.438L134.702 195.324L88.5681 188.506L61.0043 178.205Z" fill="#679B07"/>
<path d="M88.5681 188.506L134.702 195.324L170.68 177.438M88.5681 188.506L61.0043 178.205L38.9532 159.926C37.6476 158.669 35.9066 155.661 39.3884 153.688C42.8701 151.715 102.737 131.104 132.236 121.046L143.407 133.377L158.204 125.833C159.896 124.479 165.196 121.829 172.856 122.061C180.517 122.293 199.405 122.738 208.544 122.932C210.43 123.27 213.448 125.224 210.43 130.331C207.413 135.437 192.345 159.055 185.188 170.226L170.68 177.438M88.5681 188.506L128.319 169.356L170.68 177.438" stroke="black" stroke-width="0.318224"/>
<path d="M88.5681 188.506L134.702 195.324L170.68 177.438M88.5681 188.506L61.0043 178.205L38.9532 159.926C37.6476 158.669 35.9066 155.661 39.3884 153.688C42.8701 151.715 102.737 131.104 132.236 121.046L143.407 133.377L158.204 125.833C159.896 124.479 165.196 121.829 172.856 122.061C180.517 122.293 199.405 122.738 208.544 122.932C210.43 123.27 213.448 125.224 210.43 130.331C207.413 135.437 192.345 159.055 185.188 170.226L170.68 177.438M88.5681 188.506L128.319 169.356L170.68 177.438" stroke="#331413" stroke-width="0.318224"/>
<path d="M170.681 180.961L133.107 197.935L132.672 193.873L155.884 176.463L181.707 159.055L222.327 141.646L224.939 143.387C213.526 152.527 190.266 171.154 188.525 172.546C186.784 173.94 175.904 178.736 170.681 180.961Z" fill="#8ECD1A"/>
<path d="M170.681 180.961L133.107 197.935L132.672 193.873L155.884 176.463L181.707 159.055L222.327 141.646L224.939 143.387C213.526 152.527 190.266 171.154 188.525 172.546C186.784 173.94 175.904 178.736 170.681 180.961Z" stroke="black" stroke-width="0.318224"/>
<path d="M170.681 180.961L133.107 197.935L132.672 193.873L155.884 176.463L181.707 159.055L222.327 141.646L224.939 143.387C213.526 152.527 190.266 171.154 188.525 172.546C186.784 173.94 175.904 178.736 170.681 180.961Z" stroke="#331413" stroke-width="0.318224"/>
<path d="M97.9805 29.9413L91.7422 46.0445L186.911 80.427C188.167 77.4288 191.03 70.562 192.424 67.0802C194.745 59.0721 189.328 53.8785 186.33 52.2826L150.933 34.1484C148.321 32.7461 142.547 29.6801 140.342 28.6356C138.137 27.5911 136.619 27.5233 136.135 27.6201C127.237 27.1849 108.484 26.2274 104.654 25.8792C100.823 25.531 98.6087 28.4421 97.9805 29.9413Z" fill="white"/>
<path d="M97.9805 29.9413L91.7422 46.0445L186.911 80.427C188.167 77.4288 191.03 70.562 192.424 67.0802C194.745 59.0721 189.328 53.8785 186.33 52.2826L150.933 34.1484C148.321 32.7461 142.547 29.6801 140.342 28.6356C138.137 27.5911 136.619 27.5233 136.135 27.6201C127.237 27.1849 108.484 26.2274 104.654 25.8792C100.823 25.531 98.6087 28.4421 97.9805 29.9413Z" stroke="black" stroke-width="0.318224"/>
<path d="M97.9805 29.9413L91.7422 46.0445L186.911 80.427C188.167 77.4288 191.03 70.562 192.424 67.0802C194.745 59.0721 189.328 53.8785 186.33 52.2826L150.933 34.1484C148.321 32.7461 142.547 29.6801 140.342 28.6356C138.137 27.5911 136.619 27.5233 136.135 27.6201C127.237 27.1849 108.484 26.2274 104.654 25.8792C100.823 25.531 98.6087 28.4421 97.9805 29.9413Z" stroke="#331413" stroke-width="0.318224"/>
<path d="M117.275 47.3506L93.0471 45.4646C92.4663 45.4646 91.5965 45.3196 91.5965 45.7548C91.0157 47.0604 92.6112 48.1242 93.627 48.8013L110.166 57.2156C121.82 62.535 145.592 73.4059 147.45 74.3343C149.306 75.2628 154.994 76.7522 157.605 77.3808L178.351 80.2823C181.059 80.5725 186.59 81.0657 187.054 80.7175C187.635 79.3248 183.815 77.1391 181.832 76.2202C167.131 69.0633 136.279 54.053 130.476 51.2676C124.673 48.4821 119.257 47.4956 117.275 47.3506Z" fill="white"/>
<path d="M117.275 47.3506L93.0471 45.4646C92.4663 45.4646 91.5965 45.3196 91.5965 45.7548C91.0157 47.0604 92.6112 48.1242 93.627 48.8013L110.166 57.2156C121.82 62.535 145.592 73.4059 147.45 74.3343C149.306 75.2628 154.994 76.7522 157.605 77.3808L178.351 80.2823C181.059 80.5725 186.59 81.0657 187.054 80.7175C187.635 79.3248 183.815 77.1391 181.832 76.2202C167.131 69.0633 136.279 54.053 130.476 51.2676C124.673 48.4821 119.257 47.4956 117.275 47.3506Z" stroke="black" stroke-width="0.318224"/>
<path d="M117.275 47.3506L93.0471 45.4646C92.4663 45.4646 91.5965 45.3196 91.5965 45.7548C91.0157 47.0604 92.6112 48.1242 93.627 48.8013L110.166 57.2156C121.82 62.535 145.592 73.4059 147.45 74.3343C149.306 75.2628 154.994 76.7522 157.605 77.3808L178.351 80.2823C181.059 80.5725 186.59 81.0657 187.054 80.7175C187.635 79.3248 183.815 77.1391 181.832 76.2202C167.131 69.0633 136.279 54.053 130.476 51.2676C124.673 48.4821 119.257 47.4956 117.275 47.3506Z" stroke="#331413" stroke-width="0.318224"/>
<path d="M117.275 48.3652L95.514 47.0596L94.3533 47.0596C93.6567 47.6399 95.224 48.9455 96.0948 49.5258L124.674 63.1628C132.024 66.5478 147.074 73.4921 148.466 74.1884C149.859 74.8847 154.559 76.026 156.735 76.5096C162.683 77.38 175.217 79.179 177.771 79.411C180.962 79.7012 183.719 79.7012 184.155 79.7012C184.734 78.6566 181.978 77.1382 180.528 76.5096L155.575 63.8881C149.24 60.7933 135.351 54.0521 130.477 51.847C125.602 49.6419 119.645 48.607 117.275 48.3652Z" fill="white"/>
<path d="M117.275 48.3652L95.514 47.0596L94.3533 47.0596C93.6567 47.6399 95.224 48.9455 96.0948 49.5258L124.674 63.1628C132.024 66.5478 147.074 73.4921 148.466 74.1884C149.859 74.8847 154.559 76.026 156.735 76.5096C162.683 77.38 175.217 79.179 177.771 79.411C180.962 79.7012 183.719 79.7012 184.155 79.7012C184.734 78.6566 181.978 77.1382 180.528 76.5096L155.575 63.8881C149.24 60.7933 135.351 54.0521 130.477 51.847C125.602 49.6419 119.645 48.607 117.275 48.3652Z" stroke="black" stroke-width="0.318224"/>
<path d="M117.275 48.3652L95.514 47.0596L94.3533 47.0596C93.6567 47.6399 95.224 48.9455 96.0948 49.5258L124.674 63.1628C132.024 66.5478 147.074 73.4921 148.466 74.1884C149.859 74.8847 154.559 76.026 156.735 76.5096C162.683 77.38 175.217 79.179 177.771 79.411C180.962 79.7012 183.719 79.7012 184.155 79.7012C184.734 78.6566 181.978 77.1382 180.528 76.5096L155.575 63.8881C149.24 60.7933 135.351 54.0521 130.477 51.847C125.602 49.6419 119.645 48.607 117.275 48.3652Z" stroke="#331413" stroke-width="0.318224"/>
<path d="M158.041 49.8171C158.476 48.4147 159.433 44.5654 159.782 40.3873C159.966 38.1767 158.968 36.6268 157.692 35.5999C156.557 34.6858 155.203 34.1863 154.269 34.0041C156.106 33.9073 159.105 34.4393 161.813 31.5378C163.844 29.3617 165.73 25.8799 166.745 22.8333C167.557 20.3962 166.407 17.7558 165.73 16.7402C169.599 18.8196 177.887 23.3266 180.092 24.7193C182.849 26.4602 183.284 28.056 183.139 29.7969C182.994 31.5378 182.123 34.0041 179.802 38.0661C177.481 42.1282 173.564 42.1282 171.098 42.1282C175.885 45.0297 173.854 54.8947 173.419 56.3454C173.071 57.506 169.889 65.6302 168.341 69.5471L153.398 62.0033L158.041 49.8171Z" fill="#F5F5F5"/>
<path d="M171.098 42.1282C175.885 45.0297 173.854 54.8947 173.419 56.3454C173.071 57.506 169.889 65.6302 168.341 69.5471L153.398 62.0033L158.041 49.8171C158.476 48.4147 159.433 44.5654 159.782 40.3873C159.966 38.1767 158.968 36.6268 157.692 35.5999M171.098 42.1282C173.564 42.1282 177.481 42.1282 179.802 38.0661C182.123 34.0041 182.994 31.5378 183.139 29.7969C183.284 28.056 182.849 26.4602 180.092 24.7193C177.887 23.3266 169.599 18.8196 165.73 16.7402C166.407 17.7558 167.557 20.3962 166.745 22.8333C165.73 25.8799 163.844 29.3617 161.813 31.5378C159.105 34.4393 156.106 33.9073 154.269 34.0041C155.203 34.1863 156.557 34.6858 157.692 35.5999M171.098 42.1282L157.692 35.5999" stroke="black" stroke-width="0.318224"/>
<path d="M136.71 9.19608L148.316 27.0401L146.285 28.3458L136.71 13.5482C136.033 11.9525 133.983 8.64473 131.197 8.18055C128.412 7.71628 126.265 9.63127 125.54 10.6468C123.508 14.4187 124.234 16.7399 124.814 18.771C125.063 19.6432 125.803 20.5064 126.7 21.2689C127.039 20.4362 128.179 18.5388 130.037 17.6104C130.269 17.8424 130.617 18.4807 130.762 18.771L130.907 18.916C129.955 19.1094 127.958 19.9895 127.592 21.9625C128.566 22.6589 129.593 23.2225 130.327 23.5584L138.886 27.7655L133.664 27.3303C131.971 26.8467 128.296 25.5604 127.135 24.2837C125.685 22.6879 123.363 21.3823 122.493 18.0456C121.623 14.7088 121.623 12.8229 123.798 9.63127C125.975 6.43961 128.586 6.14949 131.197 6.00443C133.286 5.88836 135.742 8.08381 136.71 9.19608Z" fill="white"/>
<path d="M161.083 17.7559L143.965 30.3773L145.126 31.1027C150.783 26.9923 162.331 18.6263 163.26 18.0461C164.42 17.3207 165.581 19.3517 165.581 20.6574C165.581 21.963 165.581 24.2842 162.679 28.3463C160.358 31.596 158.134 32.1182 157.311 31.9732H147.011L150.203 33.714C151.944 33.8591 155.947 34.0622 158.037 33.714C160.126 33.3658 162.196 31.151 162.969 30.0872C164.178 28.1045 166.654 23.82 166.887 22.5434C167.177 20.9475 167.032 18.9165 165.871 17.1756C164.942 15.7829 162.292 16.9822 161.083 17.7559Z" fill="white"/>
<path d="M181.829 34.0043L180.813 36.0354C181.394 35.8903 182.931 35.6872 184.44 36.0354C186.327 36.4706 188.357 38.7918 188.502 42.2736C188.647 45.7553 188.067 46.1906 186.181 48.0765C184.673 49.5853 181.781 49.5756 180.523 49.3822C181.636 49.9625 183.976 51.1521 184.44 51.2681C189.373 50.3977 190.534 45.7553 190.534 43.5792C190.534 41.4031 190.098 39.6622 188.067 36.4706C186.443 33.9173 183.231 33.7625 181.829 34.0043Z" fill="white"/>
<path d="M159.334 37.7745C158.638 35.6854 155.949 34.4862 154.692 34.1476C154.257 34.3894 152.37 33.7125 150.34 33.8575C151.79 34.873 158.039 36.1787 157.448 42.2718C157.583 44.0127 155.852 48.5099 155.417 49.9607C155.069 51.1213 152.08 57.6012 150.63 60.6961L153.386 62.0018C154.643 58.7618 157.303 51.9047 157.884 50.3959C158.609 48.5099 159.624 46.0437 159.914 43.4324C160.204 40.821 160.204 40.3858 159.334 37.7745Z" fill="white"/>
<path d="M126.7 21.2689C125.803 20.5064 125.063 19.6432 124.814 18.771C124.234 16.7399 123.508 14.4187 125.54 10.6468C126.265 9.63127 128.412 7.71628 131.197 8.18055C133.983 8.64473 136.033 11.9525 136.71 13.5482L146.285 28.3458L148.316 27.0401L136.71 9.19608C135.742 8.08381 133.286 5.88836 131.197 6.00443C128.586 6.14949 125.975 6.43961 123.798 9.63127C121.623 12.8229 121.623 14.7088 122.493 18.0456C123.363 21.3823 125.685 22.6879 127.135 24.2837C128.296 25.5604 131.971 26.8467 133.664 27.3303L138.886 27.7655L130.327 23.5584C129.593 23.2225 128.566 22.6589 127.592 21.9625M126.7 21.2689C127.039 20.4362 128.179 18.5388 130.037 17.6104C130.269 17.8424 130.617 18.4807 130.762 18.771L130.907 18.916C129.955 19.1094 127.958 19.9895 127.592 21.9625M126.7 21.2689C126.985 21.5113 127.286 21.7435 127.592 21.9625M143.964 30.3768L161.082 17.7554C162.291 16.9817 164.941 15.7824 165.87 17.1751C167.031 18.916 167.176 20.947 166.886 22.5429C166.653 23.8195 164.177 28.104 162.968 30.0867C162.195 31.1505 160.125 33.3653 158.036 33.7135C155.946 34.0617 151.943 33.8586 150.202 33.7135L147.01 31.9727H157.31C158.133 32.1177 160.357 31.5955 162.678 28.3458C165.58 24.2837 165.58 21.9625 165.58 20.6569C165.58 19.3512 164.419 17.3201 163.259 18.0456C162.33 18.6258 150.782 26.9918 145.125 31.1022L143.964 30.3768ZM180.812 36.0347L181.828 34.0037C183.23 33.7619 186.441 33.9167 188.066 36.4699C190.097 39.6616 190.533 41.4024 190.533 43.5786C190.533 45.7547 189.372 50.397 184.439 51.2675C183.975 51.1514 181.635 49.9618 180.522 49.3815C181.78 49.5749 184.672 49.5846 186.18 48.0758C188.066 46.1899 188.646 45.7547 188.501 42.2729C188.356 38.7911 186.326 36.4699 184.439 36.0347C182.93 35.6865 181.393 35.8897 180.812 36.0347ZM154.689 34.1487C155.946 34.4873 158.635 35.6865 159.332 37.7756C160.202 40.3869 160.202 40.8221 159.912 43.4334C159.622 46.0448 158.606 48.511 157.881 50.397C157.3 51.9058 154.641 58.7629 153.383 62.0029L150.627 60.6972C152.078 57.6023 155.067 51.1224 155.415 49.9618C155.85 48.511 157.58 44.0137 157.445 42.2729C158.036 36.1798 151.788 34.8741 150.337 33.8586C152.368 33.7135 154.254 34.3905 154.689 34.1487Z" stroke="black" stroke-width="0.318224"/>
<path d="M126.7 21.2689C125.803 20.5064 125.063 19.6432 124.814 18.771C124.234 16.7399 123.508 14.4187 125.54 10.6468C126.265 9.63127 128.412 7.71628 131.197 8.18055C133.983 8.64473 136.033 11.9525 136.71 13.5482L146.285 28.3458L148.316 27.0401L136.71 9.19608C135.742 8.08381 133.286 5.88836 131.197 6.00443C128.586 6.14949 125.975 6.43961 123.798 9.63127C121.623 12.8229 121.623 14.7088 122.493 18.0456C123.363 21.3823 125.685 22.6879 127.135 24.2837C128.296 25.5604 131.971 26.8467 133.664 27.3303L138.886 27.7655L130.327 23.5584C129.593 23.2225 128.566 22.6589 127.592 21.9625M126.7 21.2689C127.039 20.4362 128.179 18.5388 130.037 17.6104C130.269 17.8424 130.617 18.4807 130.762 18.771L130.907 18.916C129.955 19.1094 127.958 19.9895 127.592 21.9625M126.7 21.2689C126.985 21.5113 127.286 21.7435 127.592 21.9625M143.964 30.3768L161.082 17.7554C162.291 16.9817 164.941 15.7824 165.87 17.1751C167.031 18.916 167.176 20.947 166.886 22.5429C166.653 23.8195 164.177 28.104 162.968 30.0867C162.195 31.1505 160.125 33.3653 158.036 33.7135C155.946 34.0617 151.943 33.8586 150.202 33.7135L147.01 31.9727H157.31C158.133 32.1177 160.357 31.5955 162.678 28.3458C165.58 24.2837 165.58 21.9625 165.58 20.6569C165.58 19.3512 164.419 17.3201 163.259 18.0456C162.33 18.6258 150.782 26.9918 145.125 31.1022L143.964 30.3768ZM180.812 36.0347L181.828 34.0037C183.23 33.7619 186.441 33.9167 188.066 36.4699C190.097 39.6616 190.533 41.4024 190.533 43.5786C190.533 45.7547 189.372 50.397 184.439 51.2675C183.975 51.1514 181.635 49.9618 180.522 49.3815C181.78 49.5749 184.672 49.5846 186.18 48.0758C188.066 46.1899 188.646 45.7547 188.501 42.2729C188.356 38.7911 186.326 36.4699 184.439 36.0347C182.93 35.6865 181.393 35.8897 180.812 36.0347ZM154.689 34.1487C155.946 34.4873 158.635 35.6865 159.332 37.7756C160.202 40.3869 160.202 40.8221 159.912 43.4334C159.622 46.0448 158.606 48.511 157.881 50.397C157.3 51.9058 154.641 58.7629 153.383 62.0029L150.627 60.6972C152.078 57.6023 155.067 51.1224 155.415 49.9618C155.85 48.511 157.58 44.0137 157.445 42.2729C158.036 36.1798 151.788 34.8741 150.337 33.8586C152.368 33.7135 154.254 34.3905 154.689 34.1487Z" stroke="#331413" stroke-width="0.318224"/>
<path d="M108.712 46.6257L106.246 45.6101C107.455 42.5636 110.251 35.8322 111.759 33.2789C113.645 30.0872 114.951 28.7815 118.868 26.4604C122.002 24.6034 126.17 24.8162 127.862 25.1547L132.94 27.1858H126.847C125.976 27.2825 123.452 27.737 120.318 28.7815C117.185 29.8261 114.08 34.0526 112.919 36.0352L108.712 46.6257Z" fill="white"/>
<path d="M125.543 10.7917C126.172 9.8246 127.98 7.91928 130.186 8.03534C132.942 8.18041 134.973 10.2115 135.553 11.5171C136.017 12.5617 142.903 23.2681 146.289 28.4908L143.967 30.3767L135.553 26.0245C133.377 24.9606 128.735 22.6588 127.574 21.9624C127.923 20.1055 129.924 19.1577 130.881 18.9159L125.543 10.7917Z" fill="white"/>
<path d="M162.682 18.4811L145.418 30.9574L147.014 31.9729H157.024C158.417 31.9729 159.829 31.1992 160.361 30.8123C161.377 30.0386 163.698 27.7657 164.858 24.8643C166.309 21.2375 165.729 19.7867 164.858 18.4811C164.162 17.4365 163.117 18.0458 162.682 18.4811Z" fill="white"/>
<path d="M177.913 43.8698C177.681 45.1465 176.656 46.5295 176.172 47.0614C177.284 47.5934 179.77 48.8313 180.815 49.5277C183.716 49.8178 185.311 48.6572 186.762 47.4967C188.213 46.3361 188.649 43.8698 188.649 42.5641C188.649 41.2585 188.068 38.7922 186.617 37.1964C185.166 35.6006 182.7 35.8907 181.105 35.8907C180.292 37.8637 178.638 39.711 177.913 40.3881C178.01 41.0167 178.145 42.5932 177.913 43.8698Z" fill="white"/>
<path d="M135.551 26.0245L143.965 30.3767L146.287 28.4908C142.901 23.2681 136.015 12.5617 135.551 11.5171C134.971 10.2115 132.94 8.18041 130.184 8.03534C127.978 7.91928 126.17 9.8246 125.541 10.7917L130.879 18.9159M135.551 26.0245L130.879 18.9159M135.551 26.0245C133.375 24.9607 128.733 22.6588 127.572 21.9624C127.921 20.1055 129.922 19.1577 130.879 18.9159M106.246 45.6095L108.712 46.625L112.919 36.0346C114.08 34.0519 117.185 29.8254 120.318 28.7809C123.452 27.7364 125.976 27.2818 126.847 27.1851H132.94L127.862 25.154C126.17 24.8156 122.002 24.6028 118.868 26.4597C114.951 28.7809 113.645 30.0865 111.759 33.2782C110.251 35.8315 107.455 42.5629 106.246 45.6095ZM145.416 30.957L162.68 18.4807C163.115 18.0454 164.16 17.4361 164.856 18.4807C165.726 19.7863 166.307 21.2371 164.856 24.8639C163.696 27.7654 161.375 30.0382 160.359 30.8119C159.827 31.1988 158.415 31.9725 157.022 31.9725C155.629 31.9725 149.769 31.9725 147.012 31.9725L145.416 30.957ZM176.172 47.0602C176.656 46.5283 177.681 45.1452 177.913 43.8686C178.145 42.5919 178.01 41.0155 177.913 40.3868C178.638 39.7097 180.292 37.8625 181.104 35.8895C182.7 35.8895 185.166 35.5994 186.617 37.1952C188.068 38.7909 188.648 41.2572 188.648 42.5629C188.648 43.8686 188.213 46.3348 186.762 47.4954C185.311 48.656 183.716 49.8166 180.814 49.5264C179.77 48.8301 177.284 47.5921 176.172 47.0602Z" stroke="black" stroke-width="0.318224"/>
<path d="M135.551 26.0245L143.965 30.3767L146.287 28.4908C142.901 23.2681 136.015 12.5617 135.551 11.5171C134.971 10.2115 132.94 8.18041 130.184 8.03534C127.978 7.91928 126.17 9.8246 125.541 10.7917L130.879 18.9159M135.551 26.0245L130.879 18.9159M135.551 26.0245C133.375 24.9607 128.733 22.6588 127.572 21.9624C127.921 20.1055 129.922 19.1577 130.879 18.9159M106.246 45.6095L108.712 46.625L112.919 36.0346C114.08 34.0519 117.185 29.8254 120.318 28.7809C123.452 27.7364 125.976 27.2818 126.847 27.1851H132.94L127.862 25.154C126.17 24.8156 122.002 24.6028 118.868 26.4597C114.951 28.7809 113.645 30.0865 111.759 33.2782C110.251 35.8315 107.455 42.5629 106.246 45.6095ZM145.416 30.957L162.68 18.4807C163.115 18.0454 164.16 17.4361 164.856 18.4807C165.726 19.7863 166.307 21.2371 164.856 24.8639C163.696 27.7654 161.375 30.0382 160.359 30.8119C159.827 31.1988 158.415 31.9725 157.022 31.9725C155.629 31.9725 149.769 31.9725 147.012 31.9725L145.416 30.957ZM176.172 47.0602C176.656 46.5283 177.681 45.1452 177.913 43.8686C178.145 42.5919 178.01 41.0155 177.913 40.3868C178.638 39.7097 180.292 37.8625 181.104 35.8895C182.7 35.8895 185.166 35.5994 186.617 37.1952C188.068 38.7909 188.648 41.2572 188.648 42.5629C188.648 43.8686 188.213 46.3348 186.762 47.4954C185.311 48.656 183.716 49.8166 180.814 49.5264C179.77 48.8301 177.284 47.5921 176.172 47.0602Z" stroke="#331413" stroke-width="0.318224"/>
<path d="M65.9342 190.972L26.0391 179.656L32.2772 177.77L98.1407 184.008L128.897 198.661C116.71 197.5 90.8866 195.091 85.0841 194.744C79.2816 194.396 69.8995 192.084 65.9342 190.972Z" fill="#8ECD1A"/>
<path d="M65.9342 190.972L26.0391 179.656L32.2772 177.77L98.1407 184.008L128.897 198.661C116.71 197.5 90.8866 195.091 85.0841 194.744C79.2816 194.396 69.8995 192.084 65.9342 190.972Z" stroke="black" stroke-width="0.318224"/>
<path d="M65.9342 190.972L26.0391 179.656L32.2772 177.77L98.1407 184.008L128.897 198.661C116.71 197.5 90.8866 195.091 85.0841 194.744C79.2816 194.396 69.8995 192.084 65.9342 190.972Z" stroke="#331413" stroke-width="0.318224"/>
<path d="M24.01 176.608C24.1261 174.519 26.4763 174.093 27.6369 174.141C37.4052 174.964 58.8278 176.723 66.3718 177.187C73.9158 177.652 81.2172 179.316 83.9252 180.09L128.753 193.726C130.978 194.79 134.818 197.179 132.38 198.224C129.943 199.268 127.786 198.852 127.013 198.514C113.52 194.693 85.7241 186.82 82.4745 185.892C79.225 184.964 72.7067 183.764 69.8538 183.281C56.0715 182.217 28.1881 180.06 26.9116 179.944C25.3157 179.799 23.865 179.219 24.01 176.608Z" fill="#ABE839"/>
<path d="M24.01 176.608C24.1261 174.519 26.4763 174.093 27.6369 174.141C37.4052 174.964 58.8278 176.723 66.3718 177.187C73.9158 177.652 81.2172 179.316 83.9252 180.09L128.753 193.726C130.978 194.79 134.818 197.179 132.38 198.224C129.943 199.268 127.786 198.852 127.013 198.514C113.52 194.693 85.7241 186.82 82.4745 185.892C79.225 184.964 72.7067 183.764 69.8538 183.281C56.0715 182.217 28.1881 180.06 26.9116 179.944C25.3157 179.799 23.865 179.219 24.01 176.608Z" stroke="black" stroke-width="0.318224"/>
<path d="M24.01 176.608C24.1261 174.519 26.4763 174.093 27.6369 174.141C37.4052 174.964 58.8278 176.723 66.3718 177.187C73.9158 177.652 81.2172 179.316 83.9252 180.09L128.753 193.726C130.978 194.79 134.818 197.179 132.38 198.224C129.943 199.268 127.786 198.852 127.013 198.514C113.52 194.693 85.7241 186.82 82.4745 185.892C79.225 184.964 72.7067 183.764 69.8538 183.281C56.0715 182.217 28.1881 180.06 26.9116 179.944C25.3157 179.799 23.865 179.219 24.01 176.608Z" stroke="#331413" stroke-width="0.318224"/>
<path d="M24.01 176.608C24.1261 174.519 26.4763 174.093 27.6369 174.141C37.4052 174.964 58.8278 176.723 66.3718 177.187C73.9158 177.652 81.2172 179.316 83.9252 180.09L128.753 193.726C130.978 194.79 134.818 197.179 132.38 198.224C129.943 199.268 127.786 198.852 127.013 198.514C113.52 194.693 85.7241 186.82 82.4745 185.892C79.225 184.964 72.7067 183.764 69.8538 183.281C56.0715 182.217 28.1881 180.06 26.9116 179.944C25.3157 179.799 23.865 179.219 24.01 176.608Z" stroke="black" stroke-opacity="0.2" stroke-width="0.318224"/>
<path d="M163.717 166.453L131.365 192.567C130.495 193.437 128.754 194.598 129.77 196.629C131.046 199.182 134.073 197.693 135.427 196.629C144.132 189.569 162.672 174.549 167.199 170.951C171.725 167.353 178.853 163.649 181.851 162.247C194.908 156.491 221.428 144.837 223.052 144.257C225.083 143.531 225.809 142.662 224.648 140.485C223.72 138.744 220.683 139.373 219.28 139.905C207.239 145.225 181.793 156.415 176.339 158.619C170.883 160.825 165.652 164.761 163.717 166.453Z" fill="#ABE839"/>
<path d="M163.717 166.453L131.365 192.567C130.495 193.437 128.754 194.598 129.77 196.629C131.046 199.182 134.073 197.693 135.427 196.629C144.132 189.569 162.672 174.549 167.199 170.951C171.725 167.353 178.853 163.649 181.851 162.247C194.908 156.491 221.428 144.837 223.052 144.257C225.083 143.531 225.809 142.662 224.648 140.485C223.72 138.744 220.683 139.373 219.28 139.905C207.239 145.225 181.793 156.415 176.339 158.619C170.883 160.825 165.652 164.761 163.717 166.453Z" stroke="black" stroke-width="0.318224"/>
<path d="M163.717 166.453L131.365 192.567C130.495 193.437 128.754 194.598 129.77 196.629C131.046 199.182 134.073 197.693 135.427 196.629C144.132 189.569 162.672 174.549 167.199 170.951C171.725 167.353 178.853 163.649 181.851 162.247C194.908 156.491 221.428 144.837 223.052 144.257C225.083 143.531 225.809 142.662 224.648 140.485C223.72 138.744 220.683 139.373 219.28 139.905C207.239 145.225 181.793 156.415 176.339 158.619C170.883 160.825 165.652 164.761 163.717 166.453Z" stroke="#331413" stroke-width="0.318224"/>
<path d="M163.717 166.453L131.365 192.567C130.495 193.437 128.754 194.598 129.77 196.629C131.046 199.182 134.073 197.693 135.427 196.629C144.132 189.569 162.672 174.549 167.199 170.951C171.725 167.353 178.853 163.649 181.851 162.247C194.908 156.491 221.428 144.837 223.052 144.257C225.083 143.531 225.809 142.662 224.648 140.485C223.72 138.744 220.683 139.373 219.28 139.905C207.239 145.225 181.793 156.415 176.339 158.619C170.883 160.825 165.652 164.761 163.717 166.453Z" stroke="black" stroke-opacity="0.2" stroke-width="0.318224"/>
<path d="M142.172 164.868C124.71 176.854 103.286 174.493 90.8185 157.784C85.3561 149.826 83.2489 143.182 85.0269 135.556C86.8085 127.915 92.4934 119.265 102.69 107.309C115.454 97.8969 125.809 95.7067 134.325 97.8303C142.849 99.9561 149.568 106.414 155.037 114.381C165.934 130.256 159.642 152.876 142.172 164.868Z" fill="#FF8E2B" stroke="black" stroke-width="0.318224"/>
<path d="M139.696 160.445C122.232 172.433 99.2442 169.245 88.344 153.364C77.4437 137.483 82.732 114.887 100.196 102.899C117.66 90.912 140.647 94.1001 151.548 109.981C162.448 125.861 157.16 148.458 139.696 160.445Z" fill="#FEDD7B" stroke="black" stroke-width="0.318224"/>
<path d="M137.854 157.757C122.02 168.625 101.181 165.734 91.299 151.338C81.4172 136.942 86.2104 116.455 102.044 105.587C117.879 94.718 138.718 97.6096 148.6 112.006C158.482 126.402 153.689 146.888 137.854 157.757Z" fill="#FEBB00" stroke="black" stroke-width="0.318224"/>
<path d="M109.245 147.433C97.1313 139.066 95.3372 133.147 101.85 126.553C98.7479 117.484 101.688 113.853 106.686 111.872C109.81 110.636 113.685 113.82 113.685 113.82C113.685 113.82 116.439 106.839 123.514 107.917C128.905 108.736 131.786 112.673 131.395 116.293C135.817 114.296 140.094 115.911 142.254 120.334C145.117 126.221 139.893 130.807 139.893 130.807C139.893 130.807 143.525 131.552 144.263 136.807C144.892 141.285 139.153 147.499 133.11 147.684C128.131 157.296 122.975 156.905 109.245 147.433Z" fill="black"/>
<path d="M109.753 145.811C98.4909 138.033 97.5735 133.28 103.629 127.15C100.745 118.718 102.73 115.34 107.377 113.498C110.281 112.35 114.313 116.801 114.313 116.801C114.313 116.801 116.444 108.819 123.022 109.821C128.033 110.583 130.417 113.949 129.67 118.937C134.163 116.212 138.436 117.254 140.444 121.366C143.106 126.839 135.943 131.993 135.943 131.993C135.943 131.993 141.626 131.795 142.312 136.681C143.008 141.576 137.567 146.185 131.948 146.357C127.319 155.293 122.518 154.618 109.753 145.811Z" fill="#FFE06C"/>
<path d="M124.342 147.365C119.345 150.199 117.12 142.801 114.298 140.877C111.559 139.02 104.915 139.953 104.982 134.229C105.03 129.267 116.629 125.884 121.972 129.514C127.324 133.135 128.701 144.894 124.342 147.365Z" fill="#975400"/>
<path d="M124.253 147.164C119.674 149.648 117.617 143.482 114.911 141.084C113.467 139.801 111.369 139.606 109.577 139.096C107.126 138.39 105.014 136.957 105.204 134.107C105.326 132.284 106.928 130.983 108.406 130.148C110.29 129.082 112.452 128.507 114.602 128.289C116.76 128.081 119.098 128.244 121.077 129.243C123.019 130.224 124.346 132.074 125.232 134.026C126.296 136.385 126.816 139.037 126.703 141.612C126.606 143.592 126.11 146.069 124.253 147.164C124.013 147.306 124.201 147.704 124.441 147.562C126.039 146.609 126.721 144.769 126.999 143.012C127.366 140.643 127.065 138.124 126.367 135.827C125.695 133.631 124.601 131.446 122.849 129.918C121.159 128.437 118.909 127.864 116.727 127.787C114.352 127.698 111.934 128.139 109.731 129.026C107.97 129.736 106.077 130.848 105.185 132.603C104.274 134.393 104.86 136.817 106.414 138.084C108.313 139.632 110.927 139.69 113.138 140.538C115.531 141.462 116.683 144.135 118.285 145.972C119.969 147.911 122.059 148.857 124.441 147.562C124.69 147.429 124.493 147.04 124.253 147.164Z" fill="#754C28"/>
<path d="M121.147 123.771C123.38 124.389 125.806 122.632 126.567 119.846C127.327 117.06 126.132 114.301 123.899 113.682C121.666 113.064 119.239 114.821 118.479 117.607C117.719 120.393 118.913 123.153 121.147 123.771Z" fill="#975400"/>
<path d="M126.505 119.042C126.129 121.367 124.271 124.042 121.595 123.662C119.166 123.314 118.234 120.552 118.534 118.428C118.864 116.148 120.674 113.61 123.234 113.795C125.83 113.962 126.76 116.853 126.505 119.042C126.465 119.317 126.906 119.344 126.936 119.078C127.179 117.118 126.591 114.821 124.73 113.795C122.942 112.807 120.858 113.577 119.602 115.032C118.188 116.659 117.654 119.082 118.328 121.151C118.922 122.952 120.531 124.313 122.471 124.1C124.98 123.825 126.551 121.375 126.927 119.069C126.985 118.794 126.545 118.768 126.505 119.042Z" fill="#754C28"/>
<path d="M134.92 128.298C137.065 126.343 137.545 123.379 135.993 121.678C134.441 119.977 131.445 120.183 129.301 122.139C127.156 124.094 126.676 127.058 128.228 128.759C129.78 130.46 132.776 130.253 134.92 128.298Z" fill="#975400"/>
<path d="M134.315 128.525C132.49 129.842 129.38 130.427 128.011 128.107C126.741 125.962 128.141 123.242 129.92 121.916C131.634 120.634 134.524 120.063 136.016 122.028C137.662 124.188 136.131 127.09 134.315 128.525C134.102 128.696 134.382 129.023 134.596 128.852C136.255 127.551 137.529 125.371 137.013 123.185C136.557 121.266 134.779 120.196 132.877 120.317C130.653 120.46 128.597 122.002 127.637 123.986C126.837 125.67 126.83 127.855 128.329 129.178C130.138 130.781 132.818 130.123 134.577 128.852C134.818 128.691 134.537 128.364 134.315 128.525Z" fill="#754C28"/>
<path d="M136.32 140.642C138.11 139.474 138.791 137.351 137.841 135.901C136.891 134.45 134.671 134.22 132.881 135.388C131.091 136.556 130.411 138.679 131.36 140.13C132.31 141.581 134.531 141.81 136.32 140.642Z" fill="#975400"/>
<path d="M135.619 140.792C134.069 141.443 131.812 141.291 131.246 139.371C130.743 137.645 132.113 135.916 133.608 135.246C135.085 134.575 137.25 134.743 137.9 136.491C138.586 138.294 137.143 140.04 135.619 140.792C135.36 140.916 135.558 141.305 135.807 141.19C137.534 140.35 139.082 138.34 138.315 136.324C137.567 134.345 135.119 134.071 133.42 134.847C131.666 135.642 130.154 137.726 130.912 139.714C131.678 141.73 134.081 141.921 135.807 141.19C136.056 141.076 135.877 140.687 135.619 140.792Z" fill="#754C28"/>
<path d="M108.359 124.566C110.059 124.911 111.774 123.491 112.189 121.394C112.604 119.298 111.563 117.319 109.863 116.974C108.163 116.63 106.449 118.05 106.033 120.147C105.618 122.243 106.659 124.222 108.359 124.566Z" fill="#975400"/>
<path d="M105.738 120.828C105.707 122.71 106.783 124.878 108.922 124.834C111.034 124.8 112.4 122.621 112.487 120.686C112.573 118.806 111.405 116.636 109.302 116.68C107.144 116.741 105.87 118.903 105.738 120.828C105.716 121.103 106.147 121.139 106.169 120.864C106.289 119.223 107.293 117.322 109.113 117.136C111.071 116.942 112.13 118.981 112.056 120.669C111.991 122.293 110.951 124.119 109.222 124.381C107.189 124.683 106.14 122.58 106.169 120.864C106.172 120.588 105.741 120.553 105.738 120.828Z" fill="#754C28"/>
<g style="mix-blend-mode:overlay" opacity="0.5">
<path d="M109.863 118.015C109.863 118.015 109.255 118.731 109.896 120.062C110.537 121.394 111.56 120.528 111.337 119.46C111.174 118.714 110.632 117.521 109.863 118.015Z" fill="white"/>
</g>
<g style="mix-blend-mode:overlay" opacity="0.5">
<path d="M137.067 137.247C137.067 137.247 136.142 137.078 135.307 138.304C134.471 139.531 135.741 139.981 136.55 139.25C137.136 138.736 137.877 137.673 137.067 137.247Z" fill="white"/>
</g>
<g style="mix-blend-mode:overlay" opacity="0.5">
<path d="M123.946 114.965C123.946 114.965 122.683 115.956 123.135 118.285C123.586 120.596 125.568 119.432 125.668 117.671C125.733 116.415 125.378 114.372 123.946 114.965Z" fill="white"/>
</g>
<g style="mix-blend-mode:overlay" opacity="0.5">
<path d="M134.771 122.619C134.771 122.619 133.231 123.082 132.81 125.407C132.39 127.732 134.662 127.372 135.394 125.758C135.916 124.618 136.332 122.587 134.771 122.619Z" fill="white"/>
</g>
<g style="mix-blend-mode:soft-light" opacity="0.5">
<path d="M123.486 135.686C122.779 138.127 123.288 142.137 121.996 142.613C120.713 143.08 118.913 143.126 119.18 144.351C119.437 145.567 121.959 146.339 123.497 145.334C125.435 144.087 125.586 140.721 125.052 137.785C124.73 135.981 123.758 134.736 123.486 135.686Z" fill="white"/>
</g>
<path d="M134.061 185.793L134.051 185.797C125.472 190.751 114.105 187.176 108.672 177.767C103.24 168.36 105.827 156.727 114.406 151.774L114.414 151.769L114.421 151.764C118.86 148.543 123.834 148.2 128.383 149.836C132.937 151.474 137.066 155.095 139.785 159.804C142.508 164.52 143.866 169.638 143.152 174.261C142.439 178.873 139.66 183.016 134.061 185.793Z" fill="#666666" stroke="black" stroke-width="0.37337"/>
<path d="M142.246 158.368C147.678 167.776 145.091 179.408 136.513 184.362C127.933 189.316 116.566 185.74 111.133 176.332C105.701 166.924 108.288 155.292 116.867 150.338C125.446 145.385 136.814 148.96 142.246 158.368Z" fill="white" stroke="black" stroke-width="0.37337"/>
<path d="M140.573 159.336C145.422 167.734 143.112 178.115 135.458 182.534C127.802 186.955 117.657 183.765 112.808 175.367C107.959 166.969 110.269 156.589 117.924 152.169C125.579 147.748 135.724 150.938 140.573 159.336Z" fill="white" stroke="black" stroke-width="0.37337"/>
<path d="M117.022 164.258L115.598 159.569L116.619 158.486L130.792 156.443L133.13 160.018L132.217 161.132L126.202 162.383L128.418 168.946L124.777 169.885L122.72 163.007L117.022 164.258Z" fill="#666666"/>
<path d="M116.706 170.512C115.693 168.51 120.61 166.865 123.195 166.291C121.454 166.917 117.181 168.636 117.497 170.042C117.814 171.449 123.829 170.668 125.411 170.512C126.993 170.355 134.749 168.323 134.749 166.76C134.749 165.197 129.526 165.354 127.785 165.197C129.21 165.041 131.742 165.041 133.483 165.197C139.054 166.698 132.745 169.574 128.893 170.824L132.62 179.594L131.742 180.515L127.943 181.296L125.094 171.606C122.721 172.075 117.719 172.512 116.706 170.512Z" fill="#666666"/>
<path d="M117.022 164.258L115.598 159.569L116.619 158.486L130.792 156.443L133.13 160.018L132.217 161.132L126.202 162.383L128.418 168.946L124.777 169.885L122.72 163.007L117.022 164.258Z" stroke="black" stroke-width="0.37337"/>
<path d="M116.706 170.512C115.693 168.51 120.61 166.865 123.195 166.291C121.454 166.917 117.181 168.636 117.497 170.042C117.814 171.449 123.829 170.668 125.411 170.512C126.993 170.355 134.749 168.323 134.749 166.76C134.749 165.197 129.526 165.354 127.785 165.197C129.21 165.041 131.742 165.041 133.483 165.197C139.054 166.698 132.745 169.574 128.893 170.824L132.62 179.594L131.742 180.515L127.943 181.296L125.094 171.606C122.721 172.075 117.719 172.512 116.706 170.512Z" stroke="black" stroke-width="0.37337"/>
<path d="M118.041 163.237L116.617 158.547L131.812 155.422L133.236 160.11L127.222 161.361L129.438 167.925L125.797 168.863L123.74 161.986L118.041 163.237Z" fill="white"/>
<path d="M117.725 169.488C116.712 167.488 121.629 165.842 124.214 165.269C122.474 165.894 118.2 167.613 118.517 169.02C118.833 170.427 124.848 169.645 126.431 169.488C128.014 169.332 135.768 167.301 135.768 165.737C135.768 164.175 130.546 164.331 128.805 164.175C130.229 164.019 132.761 164.019 134.503 164.175C140.074 165.675 133.764 168.551 129.913 169.801L132.761 179.491L128.963 180.274L126.115 170.582C123.74 171.052 118.738 171.49 117.725 169.488Z" fill="white"/>
<path d="M118.041 163.237L116.617 158.547L131.812 155.422L133.236 160.11L127.222 161.361L129.438 167.925L125.797 168.863L123.74 161.986L118.041 163.237Z" stroke="black" stroke-width="0.37337"/>
<path d="M118.041 163.237L116.617 158.547L131.812 155.422L133.236 160.11L127.222 161.361L129.438 167.925L125.797 168.863L123.74 161.986L118.041 163.237Z" stroke="#331413" stroke-width="0.37337"/>
<path d="M118.041 163.237L116.617 158.547L131.812 155.422L133.236 160.11L127.222 161.361L129.438 167.925L125.797 168.863L123.74 161.986L118.041 163.237Z" stroke="black" stroke-opacity="0.2" stroke-width="0.37337"/>
<path d="M117.725 169.488C116.712 167.488 121.629 165.842 124.214 165.269C122.474 165.894 118.2 167.613 118.517 169.02C118.833 170.427 124.848 169.645 126.431 169.488C128.014 169.332 135.768 167.301 135.768 165.737C135.768 164.175 130.546 164.331 128.805 164.175C130.229 164.019 132.761 164.019 134.503 164.175C140.074 165.675 133.764 168.551 129.913 169.801L132.761 179.491L128.963 180.274L126.115 170.582C123.74 171.052 118.738 171.49 117.725 169.488Z" stroke="black" stroke-width="0.37337"/>
<path d="M117.725 169.488C116.712 167.488 121.629 165.842 124.214 165.269C122.474 165.894 118.2 167.613 118.517 169.02C118.833 170.427 124.848 169.645 126.431 169.488C128.014 169.332 135.768 167.301 135.768 165.737C135.768 164.175 130.546 164.331 128.805 164.175C130.229 164.019 132.761 164.019 134.503 164.175C140.074 165.675 133.764 168.551 129.913 169.801L132.761 179.491L128.963 180.274L126.115 170.582C123.74 171.052 118.738 171.49 117.725 169.488Z" stroke="#331413" stroke-width="0.37337"/>
<path d="M117.725 169.488C116.712 167.488 121.629 165.842 124.214 165.269C122.474 165.894 118.2 167.613 118.517 169.02C118.833 170.427 124.848 169.645 126.431 169.488C128.014 169.332 135.768 167.301 135.768 165.737C135.768 164.175 130.546 164.331 128.805 164.175C130.229 164.019 132.761 164.019 134.503 164.175C140.074 165.675 133.764 168.551 129.913 169.801L132.761 179.491L128.963 180.274L126.115 170.582C123.74 171.052 118.738 171.49 117.725 169.488Z" stroke="black" stroke-opacity="0.2" stroke-width="0.37337"/>
<path d="M81.4825 92.041L80.9883 94.3863C81.0703 94.5508 81.3338 94.9047 81.7286 95.0035C82.2228 95.1269 82.593 95.8675 82.8401 96.855C83.037 97.6449 83.3334 98.1717 83.4574 98.3363L86.5428 101.175L86.1726 97.9659C86.0495 97.9659 85.6046 97.8424 84.815 97.3487C83.8275 96.7315 83.9506 95.9909 83.7045 94.6332C83.5066 93.5469 82.1408 92.4525 81.4825 92.041Z" stroke="black" stroke-width="0.27076"/>
<path d="M170.306 92.0419C169.713 92.6345 169.318 94.0169 169.195 94.6341C169.895 94.7164 171.491 94.955 172.281 95.2513C172.158 94.6341 172.405 93.7701 173.145 93.1529C173.885 92.5358 175.12 92.0419 176.355 92.0419C177.342 92.0419 178.082 90.9722 178.329 90.4373L178.453 88.3389L175.737 89.0795C175.613 89.3675 175.318 90.067 175.12 90.5608C174.873 91.1779 174.38 91.0545 172.651 90.931C170.923 90.8076 171.046 91.3014 170.306 92.0419Z" stroke="black" stroke-width="0.27076"/>
<path d="M162.948 194.873L156.036 197.712L155.789 197.465C156.901 196.149 159.616 192.997 161.591 190.923C163.566 188.85 165.87 188.084 166.775 187.961C168.421 188.002 171.935 188.158 172.824 188.454C173.934 188.824 175.292 189.689 176.033 190.429C176.773 191.17 178.131 193.268 178.008 196.848C177.909 199.712 178.871 201.415 179.366 201.909L183.439 195.243H188.87L189.487 195.861C188.87 196.972 187.34 199.736 186.155 201.909C184.673 204.624 178.241 206.116 176.267 205.993C174.292 205.869 173.398 205.935 172.164 203.714C171.176 201.936 171.178 196.972 170.972 194.256C171.013 193.268 170.651 191.22 168.874 190.923C167.096 190.627 164.183 193.433 162.948 194.873Z" stroke="black" stroke-width="0.27076"/>
<path d="M68.1261 124.556C62.5843 128.36 55.7989 127.607 51.85 122.316C50.1131 119.785 49.4557 117.691 50.0146 115.291C50.5781 112.877 52.377 110.13 55.6311 106.314C59.6922 103.322 62.9691 102.639 65.6497 103.307C68.3403 103.978 70.4702 106.019 72.2126 108.557C75.6564 113.575 73.676 120.746 68.1261 124.556Z" fill="#666666" stroke="black" stroke-width="0.318224"/>
<path d="M67.33 123.142C61.7865 126.947 54.5032 125.928 51.0558 120.905C47.6075 115.881 49.2742 108.719 54.8178 104.913C60.3614 101.108 67.6446 102.128 71.0929 107.151C74.5403 112.175 72.8736 119.337 67.33 123.142Z" fill="white" stroke="black" stroke-width="0.318224"/>
<path d="M66.7413 122.283C61.7183 125.73 55.1226 124.806 51.9998 120.257C48.8769 115.708 50.3859 109.22 55.4089 105.772C60.4318 102.324 67.0285 103.249 70.1504 107.798C73.2732 112.347 71.7642 118.835 66.7413 122.283Z" fill="#666666" stroke="black" stroke-width="0.318224"/>
<path d="M66.7468 122.282C61.7184 125.734 55.2448 124.977 52.2761 120.651C49.3073 116.326 50.9276 110.014 55.956 106.562C60.9853 103.11 67.458 103.867 70.4267 108.193C73.3964 112.518 71.7752 118.83 66.7468 122.282Z" fill="white" stroke="black" stroke-width="0.318224"/>
<path d="M64.33 117.565L56.786 120.466L56.4961 119.596L56.931 113.503L58.9624 117.565H64.33Z" fill="#666666"/>
<path d="M59.6868 116.839L57.6562 112.487L65.6352 107.989L65.9251 108.86L64.7644 116.839H59.6868Z" fill="#666666"/>
<path d="M64.33 117.565L56.786 120.466L56.4961 119.596L56.931 113.503L58.9624 117.565H64.33Z" stroke="black" stroke-width="0.318224"/>
<path d="M64.33 117.565L56.786 120.466L56.4961 119.596L56.931 113.503L58.9624 117.565H64.33Z" stroke="#331413" stroke-width="0.318224"/>
<path d="M64.33 117.565L56.786 120.466L56.4961 119.596L56.931 113.503L58.9624 117.565H64.33Z" stroke="black" stroke-opacity="0.2" stroke-width="0.318224"/>
<path d="M59.6868 116.839L57.6562 112.487L65.6352 107.989L65.9251 108.86L64.7644 116.839H59.6868Z" stroke="black" stroke-width="0.318224"/>
<path d="M59.6868 116.839L57.6562 112.487L65.6352 107.989L65.9251 108.86L64.7644 116.839H59.6868Z" stroke="#331413" stroke-width="0.318224"/>
<path d="M59.6868 116.839L57.6562 112.487L65.6352 107.989L65.9251 108.86L64.7644 116.839H59.6868Z" stroke="black" stroke-opacity="0.2" stroke-width="0.318224"/>
<path d="M56.4961 119.596L56.6411 112.633L58.6716 116.695H64.0401L56.4961 119.596Z" fill="white"/>
<path d="M59.3986 115.968L57.3672 111.616L65.637 107.989L64.4763 115.968H59.3986Z" fill="white"/>
<path d="M56.4961 119.596L56.6411 112.633L58.6716 116.695H64.0401L56.4961 119.596Z" stroke="black" stroke-width="0.318224"/>
<path d="M56.4961 119.596L56.6411 112.633L58.6716 116.695H64.0401L56.4961 119.596Z" stroke="#331413" stroke-width="0.318224"/>
<path d="M56.4961 119.596L56.6411 112.633L58.6716 116.695H64.0401L56.4961 119.596Z" stroke="black" stroke-opacity="0.2" stroke-width="0.318224"/>
<path d="M59.3986 115.968L57.3672 111.616L65.637 107.989L64.4763 115.968H59.3986Z" stroke="black" stroke-width="0.318224"/>
<path d="M59.3986 115.968L57.3672 111.616L65.637 107.989L64.4763 115.968H59.3986Z" stroke="#331413" stroke-width="0.318224"/>
<path d="M59.3986 115.968L57.3672 111.616L65.637 107.989L64.4763 115.968H59.3986Z" stroke="black" stroke-opacity="0.2" stroke-width="0.318224"/>
<path d="M198.238 127.239C195.773 132.841 192.239 137.331 188.526 140.066C184.808 142.802 180.938 143.763 177.776 142.372C174.511 140.935 174.423 140.885 173.086 140.123C172.855 139.991 172.587 139.838 172.258 139.653C172.294 137.618 172.515 133.127 172.968 128.574C173.198 126.265 173.488 123.942 173.843 121.916C174.199 119.888 174.618 118.169 175.106 117.062C176.509 113.873 179.167 110.126 182.017 106.853C184.842 103.609 187.842 100.848 189.973 99.5654C191.693 100.141 192.382 100.464 193.502 100.988C194.038 101.239 194.674 101.536 195.568 101.93C198.731 103.322 200.638 106.824 201.132 111.414C201.625 115.999 200.702 121.638 198.238 127.239Z" fill="#666666" stroke="black" stroke-width="0.318224"/>
<path d="M193.169 124.939C190.706 130.541 187.172 135.031 183.458 137.766C179.741 140.503 175.87 141.463 172.707 140.072C169.545 138.68 167.638 135.178 167.144 130.588C166.651 126.003 167.573 120.364 170.038 114.762C172.502 109.161 176.036 104.671 179.75 101.936C183.467 99.1993 187.338 98.2388 190.501 99.6303C193.663 101.022 195.57 104.524 196.064 109.114C196.558 113.699 195.634 119.338 193.169 124.939Z" fill="white" stroke="black" stroke-width="0.318224"/>
<path d="M191.195 124.069C189.026 128.999 185.969 132.973 182.786 135.416C179.598 137.862 176.316 138.751 173.672 137.587C171.027 136.424 169.465 133.404 169.114 129.401C168.764 125.404 169.629 120.465 171.797 115.535C173.966 110.605 177.024 106.631 180.207 104.189C183.395 101.743 186.677 100.854 189.321 102.017C191.965 103.18 193.527 106.201 193.878 110.204C194.228 114.2 193.364 119.14 191.195 124.069Z" fill="#666666" stroke="black" stroke-width="0.318224"/>
<path d="M191.194 124.071C189.025 129.002 186.025 133.003 182.935 135.486C179.839 137.975 176.688 138.916 174.192 137.818C171.695 136.72 170.26 133.761 170.003 129.797C169.746 125.84 170.668 120.926 172.838 115.995C175.007 111.064 178.007 107.063 181.097 104.579C184.194 102.09 187.345 101.149 189.841 102.248C192.338 103.346 193.773 106.305 194.03 110.269C194.286 114.225 193.364 119.14 191.194 124.071Z" fill="white" stroke="black" stroke-width="0.318224"/>
<path fill-rule="evenodd" clip-rule="evenodd" d="M182.144 117.27L184.929 115.297L183.293 120.825L184.042 121.973L185.663 120.825L187.065 110.267L186.34 109.148L182.66 113.387L181.407 116.112L182.144 117.27ZM180.828 112.921L181.517 114.198L181.001 118.08L179.381 119.228L178.506 118.288L180.828 112.921ZM179.75 127.495L180.636 120.822L179.75 119.594L179.016 121.97L176.766 131.345L177.614 132.525L182.02 129.404L182.021 129.404L182.28 127.451L183.162 128.597L184.782 127.449L185.298 123.566L184.454 122.496L182.281 127.442L182.535 125.522L181.553 124.381L179.75 127.495ZM182.281 127.442L182.278 127.449L182.28 127.451L182.281 127.442ZM182.9 122.782V122.785L182.899 122.785L181.255 123.95L180.392 122.785L181.779 120.013L181.779 120.007L181.407 119.703L182.069 119.802L182.713 117.853L183.424 118.843L182.9 122.782Z" fill="#666666"/>
<mask id="mask0_2040_58248" style="mask-type:luminance" maskUnits="userSpaceOnUse" x="174" y="102" width="17" height="39">
<path d="M190.033 102.362H174.234V140.227H190.033V102.362Z" fill="white"/>
<path fill-rule="evenodd" clip-rule="evenodd" d="M182.144 117.27L184.929 115.297L183.293 120.825L184.042 121.973L185.663 120.825L187.065 110.267L186.34 109.148L182.66 113.387L181.407 116.112L182.144 117.27ZM180.828 112.921L181.517 114.198L181.001 118.08L179.381 119.228L178.506 118.288L180.828 112.921ZM179.75 127.495L180.636 120.822L179.75 119.594L179.016 121.97L176.766 131.345L177.614 132.525L182.02 129.404L182.021 129.404L182.28 127.451L183.162 128.597L184.782 127.449L185.298 123.566L184.454 122.496L182.281 127.442L182.535 125.522L181.553 124.381L179.75 127.495ZM182.281 127.442L182.278 127.449L182.28 127.451L182.281 127.442ZM182.9 122.782V122.785L182.899 122.785L181.255 123.95L180.392 122.785L181.779 120.013L181.779 120.007L181.407 119.703L182.069 119.802L182.713 117.853L183.424 118.843L182.9 122.782Z" fill="black"/>
</mask>
<g mask="url(#mask0_2040_58248)">
<path d="M184.928 115.296L185.056 115.513L185.317 114.627L184.887 114.933L184.928 115.296ZM182.144 117.269L182.056 117.587L182.116 117.681L182.186 117.632L182.144 117.269ZM183.292 120.825L183.166 120.608L183.069 120.934L183.207 121.146L183.292 120.825ZM184.041 121.972L183.955 122.293L184.015 122.384L184.083 122.336L184.041 121.972ZM185.662 120.825L185.703 121.188L185.785 121.13L185.812 120.934L185.662 120.825ZM187.064 110.266L187.214 110.376L187.251 110.099L187.151 109.945L187.064 110.266ZM186.34 109.147L186.425 108.827L186.352 108.715L186.274 108.806L186.34 109.147ZM182.66 113.386L182.594 113.044L182.573 113.069L182.556 113.106L182.66 113.386ZM181.407 116.111L181.303 115.831L181.15 116.164L181.319 116.43L181.407 116.111ZM181.516 114.197L181.666 114.306L181.699 114.054L181.613 113.894L181.516 114.197ZM180.827 112.92L180.925 112.618L180.818 112.421L180.719 112.648L180.827 112.92ZM181 118.079L181.042 118.443L181.123 118.385L181.15 118.189L181 118.079ZM179.38 119.227L179.313 119.574L179.366 119.63L179.421 119.59L179.38 119.227ZM178.506 118.287L178.398 118.016L178.229 118.408L178.44 118.634L178.506 118.287ZM180.636 120.821L180.594 120.458L180.512 120.516L180.486 120.711L180.636 120.821ZM179.749 127.494L179.6 127.384L179.457 128.461L179.839 127.801L179.749 127.494ZM180.636 120.821L180.677 121.185L181.034 120.932L180.716 120.491L180.636 120.821ZM179.749 119.593L179.829 119.263L179.708 119.096L179.623 119.37L179.749 119.593ZM179.015 121.969L178.889 121.746L178.884 121.764L178.879 121.783L179.015 121.969ZM176.765 131.344L176.629 131.158L176.551 131.486L176.685 131.673L176.765 131.344ZM177.613 132.524L177.533 132.853L177.59 132.933L177.655 132.888L177.613 132.524ZM182.02 129.403L182.061 129.767L182.065 129.764L182.02 129.403ZM182.02 129.403L182.066 129.763L182.144 129.702L182.169 129.513L182.02 129.403ZM183.161 128.596L183.085 128.93L183.141 129.003L183.203 128.959L183.161 128.596ZM184.781 127.448L184.823 127.811L184.905 127.753L184.931 127.558L184.781 127.448ZM185.297 123.565L185.447 123.675L185.487 123.374L185.372 123.229L185.297 123.565ZM184.453 122.495L184.528 122.159L184.429 122.033L184.346 122.221L184.453 122.495ZM182.535 125.521L182.684 125.63L182.726 125.319L182.605 125.179L182.535 125.521ZM181.553 124.38L181.622 124.038L181.539 123.941L181.462 124.073L181.553 124.38ZM182.278 127.448L182.171 127.174L182.011 127.536L182.201 127.782L182.278 127.448ZM182.899 122.781L183.013 122.514L182.735 121.827L182.743 122.794L182.899 122.781ZM182.899 122.781L182.786 123.049L182.969 123.499L183.049 122.891L182.899 122.781ZM182.899 122.784L182.95 123.141L183.059 123.048L183.056 122.77L182.899 122.784ZM182.899 122.784L182.94 123.148L182.944 123.145L182.949 123.142L182.899 122.784ZM181.255 123.949L181.176 124.281L181.233 124.357L181.297 124.312L181.255 123.949ZM180.391 122.784L180.293 122.494L180.115 122.849L180.313 123.116L180.391 122.784ZM181.778 120.012L181.876 120.302L181.912 120.231L181.927 120.126L181.778 120.012ZM181.779 120.006L181.927 120.12L181.976 119.766L181.832 119.647L181.779 120.006ZM181.407 119.702L181.42 119.324L181.354 120.061L181.407 119.702ZM182.069 119.801L182.056 120.179L182.139 120.192L182.191 120.034L182.069 119.801ZM182.713 117.852L182.793 117.523L182.676 117.36L182.59 117.619L182.713 117.852ZM183.424 118.842L183.573 118.952L183.612 118.662L183.504 118.512L183.424 118.842ZM184.887 114.933L182.102 116.905L182.186 117.632L184.97 115.66L184.887 114.933ZM183.42 121.041L185.056 115.513L184.801 115.08L183.166 120.608L183.42 121.041ZM184.128 121.651L183.378 120.504L183.207 121.146L183.955 122.293L184.128 121.651ZM185.62 120.461L184 121.609L184.083 122.336L185.703 121.188L185.62 120.461ZM186.915 110.156L185.513 120.715L185.812 120.934L187.214 110.376L186.915 110.156ZM186.253 109.468L186.979 110.586L187.151 109.945L186.425 108.827L186.253 109.468ZM182.725 113.727L186.405 109.489L186.274 108.806L182.594 113.044L182.725 113.727ZM181.511 116.391L182.764 113.665L182.556 113.106L181.303 115.831L181.511 116.391ZM182.231 116.95L181.494 115.792L181.319 116.43L182.056 117.587L182.231 116.95ZM181.613 113.894L180.925 112.618L180.73 113.222L181.419 114.499L181.613 113.894ZM181.15 118.189L181.666 114.306L181.367 114.087L180.851 117.969L181.15 118.189ZM179.421 119.59L181.042 118.443L180.958 117.716L179.338 118.863L179.421 119.59ZM178.44 118.634L179.313 119.574L179.446 118.88L178.572 117.941L178.44 118.634ZM180.719 112.648L178.398 118.016L178.613 118.559L180.935 113.191L180.719 112.648ZM180.486 120.711L179.6 127.384L179.899 127.604L180.785 120.931L180.486 120.711ZM179.669 119.922L180.556 121.151L180.716 120.491L179.829 119.263L179.669 119.922ZM179.14 122.192L179.874 119.816L179.623 119.37L178.889 121.746L179.14 122.192ZM176.901 131.529L179.151 122.154L178.879 121.783L176.629 131.158L176.901 131.529ZM177.693 132.195L176.845 131.014L176.685 131.673L177.533 132.853L177.693 132.195ZM181.978 129.04L177.571 132.161L177.655 132.888L182.061 129.767L181.978 129.04ZM181.974 129.042L181.973 129.043L182.065 129.764L182.066 129.763L181.974 129.042ZM182.13 127.34L181.871 129.293L182.169 129.513L182.429 127.56L182.13 127.34ZM182.203 127.785L183.085 128.93L183.238 128.261L182.355 127.116L182.203 127.785ZM183.203 128.959L184.823 127.811L184.74 127.084L183.119 128.232L183.203 128.959ZM184.931 127.558L185.447 123.675L185.148 123.455L184.632 127.338L184.931 127.558ZM185.372 123.229L184.528 122.159L184.378 122.831L185.223 123.901L185.372 123.229ZM184.346 122.221L182.174 127.167L182.387 127.714L184.56 122.769L184.346 122.221ZM182.385 125.411L182.131 127.331L182.43 127.55L182.684 125.63L182.385 125.411ZM181.483 124.722L182.465 125.863L182.605 125.179L181.622 124.038L181.483 124.722ZM179.839 127.801L181.642 124.687L181.462 124.073L179.659 127.187L179.839 127.801ZM182.174 127.167L182.171 127.174L182.384 127.721L182.387 127.714L182.174 127.167ZM182.201 127.782L182.203 127.785L182.355 127.116L182.353 127.113L182.201 127.782ZM182.131 127.331L182.13 127.34L182.429 127.56L182.43 127.55L182.131 127.331ZM183.056 122.77V122.768L182.743 122.794V122.797L183.056 122.77ZM182.949 123.142L182.95 123.141L182.85 122.426L182.849 122.427L182.949 123.142ZM181.297 124.312L182.94 123.148L182.857 122.421L181.213 123.585L181.297 124.312ZM180.313 123.116L181.176 124.281L181.333 123.617L180.47 122.452L180.313 123.116ZM181.679 119.722L180.293 122.494L180.491 123.074L181.876 120.302L181.679 119.722ZM181.629 119.893L181.628 119.898L181.927 120.126L181.927 120.12L181.629 119.893ZM181.354 120.061L181.726 120.366L181.832 119.647L181.46 119.343L181.354 120.061ZM182.082 119.423L181.42 119.324L181.394 120.08L182.056 120.179L182.082 119.423ZM182.59 117.619L181.947 119.568L182.191 120.034L182.835 118.085L182.59 117.619ZM183.504 118.512L182.793 117.523L182.632 118.181L183.343 119.171L183.504 118.512ZM183.049 122.891L183.573 118.952L183.274 118.732L182.75 122.672L183.049 122.891Z" fill="black"/>
</g>
<path fill-rule="evenodd" clip-rule="evenodd" d="M181.273 116.109L184.058 114.137L183.171 120.813L184.791 119.665L186.195 109.106L181.789 112.227L181.274 116.109L181.273 116.109ZM179.025 114.185L180.645 113.037L180.129 116.92L178.509 118.068L179.025 114.185ZM178.878 126.335L179.765 119.662L178.145 120.804L178.144 120.81L176.742 131.365L181.149 128.244L181.664 124.362L178.878 126.335ZM182.807 123.554L184.428 122.406L183.912 126.289L182.291 127.436L182.807 123.554ZM182.03 121.623V121.625L182.029 121.625L180.384 122.79L180.907 118.853L180.908 118.848L180.911 118.846L181.198 118.642L181.338 118.543L182.553 117.683L182.03 121.623Z" fill="white"/>
</g>
<defs>
<clipPath id="clip0_2040_58248">
<rect width="250" height="200" fill="white"/>
</clipPath>
</defs>
</svg>
