<svg width="25" height="24" viewBox="0 0 25 24" fill="none" xmlns="http://www.w3.org/2000/svg">
<path d="M22.2981 5.84615C21.5556 6.21538 20.8132 6.33846 19.947 6.46154C20.8132 5.96923 21.4319 5.23077 21.6794 4.24615C20.9369 4.73846 20.0708 4.98462 19.0809 5.23077C18.3384 4.49231 17.2248 4 16.1112 4C14.0076 4 12.1516 5.84615 12.1516 8.06154C12.1516 8.43077 12.1516 8.67692 12.2753 8.92308C8.93437 8.8 5.84092 7.2 3.86112 4.73846C3.4899 5.35385 3.36616 5.96923 3.36616 6.83077C3.36616 8.18462 4.10859 9.41538 5.22223 10.1538C4.60354 10.1538 3.98485 9.90769 3.36616 9.66154C3.36616 11.6308 4.72728 13.2308 6.58335 13.6C6.21214 13.7231 5.84092 13.7231 5.46971 13.7231C5.22223 13.7231 4.97476 13.7231 4.72728 13.6C5.22223 15.2 6.70709 16.4308 8.56316 16.4308C7.20204 17.5385 5.46971 18.1538 3.4899 18.1538C3.11869 18.1538 2.87121 18.1538 2.5 18.1538C4.35607 19.2615 6.45961 20 8.68689 20C16.1112 20 20.1945 13.8462 20.1945 8.55385C20.1945 8.43077 20.1945 8.18462 20.1945 8.06154C21.0607 7.44615 21.8031 6.70769 22.2981 5.84615Z" fill="#2E8DFF"/>
</svg>
