<svg width="32" height="33" viewBox="0 0 32 33" fill="none" xmlns="http://www.w3.org/2000/svg">
<g clip-path="url(#clip0_48_14854)">
<circle cx="16" cy="16.7046" r="16" fill="#2E8DFF"/>
<path d="M26.465 10.5507C25.7226 10.92 24.9802 11.0431 24.114 11.1661C24.9802 10.6738 25.5989 9.93536 25.8464 8.95074C25.1039 9.44305 24.2378 9.68921 23.2479 9.93536C22.5054 9.1969 21.3918 8.70459 20.2782 8.70459C18.1746 8.70459 16.3185 10.5507 16.3185 12.7661C16.3185 13.1354 16.3185 13.3815 16.4423 13.6277C13.1014 13.5046 10.0079 11.9046 8.02811 9.44305C7.6569 10.0584 7.53316 10.6738 7.53316 11.5354C7.53316 12.8892 8.27558 14.12 9.38923 14.8584C8.77054 14.8584 8.15185 14.6123 7.53316 14.3661C7.53316 16.3354 8.89427 17.9354 10.7503 18.3046C10.3791 18.4277 10.0079 18.4277 9.6367 18.4277C9.38923 18.4277 9.14175 18.4277 8.89427 18.3046C9.38923 19.9046 10.8741 21.1354 12.7301 21.1354C11.369 22.2431 9.6367 22.8584 7.6569 22.8584C7.28568 22.8584 7.03821 22.8584 6.66699 22.8584C8.52306 23.9661 10.6266 24.7046 12.8539 24.7046C20.2782 24.7046 24.3615 18.5507 24.3615 13.2584C24.3615 13.1354 24.3615 12.8892 24.3615 12.7661C25.2277 12.1507 25.9701 11.4123 26.465 10.5507Z" fill="white"/>
</g>
<defs>
<clipPath id="clip0_48_14854">
<rect width="32" height="32" fill="white" transform="translate(0 0.70459)"/>
</clipPath>
</defs>
</svg>
