<svg width="25" height="24" viewBox="0 0 25 24" fill="none" xmlns="http://www.w3.org/2000/svg">
<path d="M22.2981 5.8464C21.5556 6.21563 20.8132 6.33871 19.947 6.46178C20.8132 5.96948 21.4319 5.23101 21.6794 4.2464C20.9369 4.73871 20.0708 4.98486 19.0809 5.23101C18.3384 4.49255 17.2248 4.00024 16.1112 4.00024C14.0076 4.00024 12.1516 5.8464 12.1516 8.06178C12.1516 8.43101 12.1516 8.67717 12.2753 8.92332C8.93437 8.80024 5.84092 7.20024 3.86112 4.73871C3.4899 5.35409 3.36616 5.96947 3.36616 6.83101C3.36616 8.18486 4.10859 9.41563 5.22223 10.1541C4.60354 10.1541 3.98485 9.90794 3.36616 9.66178C3.36616 11.631 4.72728 13.231 6.58335 13.6002C6.21214 13.7233 5.84092 13.7233 5.46971 13.7233C5.22223 13.7233 4.97476 13.7233 4.72728 13.6002C5.22223 15.2002 6.70709 16.431 8.56316 16.431C7.20204 17.5387 5.46971 18.1541 3.4899 18.1541C3.11869 18.1541 2.87121 18.1541 2.5 18.1541C4.35607 19.2618 6.45961 20.0002 8.68689 20.0002C16.1112 20.0002 20.1945 13.8464 20.1945 8.55409C20.1945 8.43101 20.1945 8.18486 20.1945 8.06178C21.0607 7.4464 21.8031 6.70794 22.2981 5.8464Z" fill="white"/>
</svg>
