<svg width="32" height="33" viewBox="0 0 32 33" fill="none" xmlns="http://www.w3.org/2000/svg">
<path d="M16 19.4046C17.7673 19.4046 19.2 17.972 19.2 16.2046C19.2 14.4373 17.7673 13.0046 16 13.0046C14.2327 13.0046 12.8 14.4373 12.8 16.2046C12.8 17.972 14.2327 19.4046 16 19.4046Z" fill="#101010"/>
<path fill-rule="evenodd" clip-rule="evenodd" d="M0.732422 16.2047C2.77122 9.7133 8.83571 5.00464 16 5.00464C23.1642 5.00464 29.2286 9.71324 31.2675 16.2046C29.2286 22.696 23.1642 27.4046 15.9999 27.4046C8.83571 27.4046 2.77126 22.696 0.732422 16.2047ZM22.4 16.2046C22.4 19.7393 19.5346 22.6046 16 22.6046C12.4654 22.6046 9.60001 19.7393 9.60001 16.2046C9.60001 12.67 12.4654 9.80464 16 9.80464C19.5346 9.80464 22.4 12.67 22.4 16.2046Z" fill="#101010"/>
</svg>
