<svg width="114" height="16" viewBox="0 0 114 16" fill="none" xmlns="http://www.w3.org/2000/svg">
<g clip-path="url(#clip0_1_9745)">
<path d="M16.0081 12.462L13.458 2.81304H15.3465L17.0833 10.4909L19.1234 2.81304H21.0669L23.0519 10.4909L24.7887 2.81304H26.6909L24.0719 12.462H21.9767L20.0607 5.30801L18.0895 12.462H16.0081ZM30.1098 12.6274C29.4206 12.6274 28.8095 12.4804 28.2765 12.1863C27.7435 11.8922 27.3254 11.4787 27.0221 10.9457C26.7189 10.4128 26.5673 9.79704 26.5673 9.09864C26.5673 8.39107 26.7143 7.7616 27.0084 7.2102C27.3116 6.65886 27.7251 6.23155 28.249 5.92827C28.7819 5.61584 29.4068 5.45962 30.1236 5.45962C30.7944 5.45962 31.3872 5.60663 31.9018 5.90069C32.4164 6.19476 32.8161 6.5991 33.101 7.1137C33.395 7.61914 33.5421 8.1843 33.5421 8.80918C33.5421 8.91028 33.5375 9.01595 33.5283 9.12622C33.5283 9.23649 33.5237 9.35136 33.5145 9.47084H28.3179C28.3546 10.0038 28.5384 10.422 28.8692 10.7252C29.2092 11.0285 29.6182 11.1801 30.096 11.1801C30.4544 11.1801 30.7531 11.1019 30.992 10.9457C31.2401 10.7803 31.4239 10.569 31.5434 10.3116H33.3353C33.2067 10.7436 32.9907 11.1387 32.6875 11.4971C32.3934 11.8463 32.0258 12.122 31.5847 12.3242C31.1528 12.5263 30.6612 12.6274 30.1098 12.6274ZM30.1236 6.89316C29.6917 6.89316 29.3104 7.01725 28.9795 7.26536C28.6487 7.50427 28.4374 7.87187 28.3455 8.3681H31.7501C31.7226 7.91782 31.5572 7.55943 31.2539 7.29289C30.9507 7.02641 30.5739 6.89316 30.1236 6.89316ZM38.6651 12.6274C38.1505 12.6274 37.7002 12.5309 37.3142 12.338C36.9283 12.145 36.6158 11.8739 36.3769 11.5247L36.184 12.462H34.6125V2.53735H36.3769V6.6037C36.5975 6.30047 36.8869 6.03394 37.2453 5.80424C37.6129 5.57449 38.0862 5.45962 38.6651 5.45962C39.3084 5.45962 39.8827 5.61584 40.3881 5.92827C40.8936 6.24071 41.2933 6.66802 41.5874 7.2102C41.8814 7.75239 42.0285 8.3681 42.0285 9.05729C42.0285 9.74653 41.8814 10.3622 41.5874 10.9044C41.2933 11.4374 40.8936 11.8601 40.3881 12.1725C39.8827 12.4758 39.3084 12.6274 38.6651 12.6274ZM38.2929 11.0836C38.8535 11.0836 39.3175 10.8952 39.6851 10.5184C40.0527 10.1417 40.2365 9.65463 40.2365 9.05729C40.2365 8.46 40.0527 7.96832 39.6851 7.5824C39.3175 7.19644 38.8535 7.00343 38.2929 7.00343C37.7232 7.00343 37.2545 7.19644 36.8869 7.5824C36.5285 7.95916 36.3493 8.44618 36.3493 9.04353C36.3493 9.64082 36.5285 10.1325 36.8869 10.5184C37.2545 10.8952 37.7232 11.0836 38.2929 11.0836ZM46.389 12.6274C45.755 12.6274 45.1806 12.5172 44.666 12.2966C44.1514 12.0669 43.7378 11.7177 43.4254 11.249C43.113 10.7803 42.9475 10.1922 42.9292 9.4846H44.666C44.6752 9.95326 44.8268 10.3484 45.1209 10.6701C45.4241 10.9825 45.8469 11.1387 46.389 11.1387C46.9036 11.1387 47.2988 10.9963 47.5745 10.7114C47.8503 10.4265 47.9879 10.0681 47.9879 9.63622C47.9879 9.13082 47.8042 8.74946 47.4366 8.49213C47.0782 8.22565 46.6142 8.0924 46.0444 8.0924H45.3276V6.64505H46.0582C46.5268 6.64505 46.9174 6.53478 47.2298 6.31424C47.5423 6.0937 47.6985 5.76745 47.6985 5.33554C47.6985 4.97716 47.5791 4.69229 47.3401 4.48093C47.1104 4.26038 46.7888 4.15011 46.3752 4.15011C45.9249 4.15011 45.5712 4.28336 45.3138 4.54985C45.0657 4.81635 44.9279 5.14257 44.9003 5.52854H43.1773C43.2141 4.63715 43.5219 3.93416 44.1008 3.41954C44.689 2.90493 45.4471 2.64763 46.3752 2.64763C47.0369 2.64763 47.5928 2.76709 48.043 3.00602C48.5025 3.23576 48.8471 3.5436 49.0768 3.92956C49.3161 4.31552 49.4352 4.74283 49.4352 5.2115C49.4352 5.75369 49.2838 6.21313 48.9805 6.58994C48.6862 6.95748 48.3188 7.2056 47.8778 7.33429C48.4199 7.44456 48.8609 7.71104 49.2012 8.13375C49.5411 8.54729 49.711 9.07111 49.711 9.70514C49.711 10.2382 49.5824 10.7252 49.3251 11.1663C49.0678 11.6074 48.6909 11.9612 48.1949 12.2277C47.7077 12.4942 47.1058 12.6274 46.389 12.6274ZM51.0302 12.462V2.81304H54.6003C55.3721 2.81304 56.011 2.94169 56.5166 3.199C57.0216 3.4563 57.3985 3.8101 57.6468 4.26038C57.8946 4.71067 58.0189 5.21609 58.0189 5.77666C58.0189 6.30963 57.8993 6.80126 57.6605 7.25155C57.4213 7.69267 57.0492 8.05106 56.5441 8.32676C56.0386 8.59324 55.3906 8.72649 54.6003 8.72649H52.7946V12.462H51.0302ZM52.7946 7.29289H54.4901C55.1058 7.29289 55.5468 7.15965 55.8135 6.89316C56.0889 6.61747 56.227 6.24532 56.227 5.77666C56.227 5.2988 56.0889 4.92662 55.8135 4.66012C55.5468 4.38444 55.1058 4.2466 54.4901 4.2466H52.7946V7.29289ZM60.8746 12.6274C60.2865 12.6274 59.8037 12.5355 59.4273 12.3517C59.0504 12.1587 58.7704 11.9061 58.5862 11.5936C58.4025 11.2811 58.3109 10.9366 58.3109 10.5598C58.3109 9.92573 58.5586 9.41107 59.0552 9.01595C59.5512 8.62082 60.2955 8.42321 61.2881 8.42321H63.0249V8.25783C63.0249 7.78913 62.8916 7.44456 62.6253 7.22402C62.3585 7.00343 62.0276 6.89316 61.6327 6.89316C61.2743 6.89316 60.962 6.98046 60.6952 7.15509C60.4289 7.32047 60.2632 7.56859 60.1992 7.89945H58.476C58.5221 7.40321 58.6873 6.9713 58.9721 6.6037C59.2664 6.23611 59.6433 5.95585 60.1028 5.76285C60.5623 5.56068 61.0768 5.45962 61.6465 5.45962C62.6205 5.45962 63.3881 5.70313 63.9482 6.19016C64.5088 6.67723 64.7893 7.36642 64.7893 8.25783V12.462H63.287L63.1213 11.3593C62.9191 11.7269 62.6343 12.0301 62.2669 12.269C61.9085 12.508 61.4442 12.6274 60.8746 12.6274ZM61.2743 11.249C61.7799 11.249 62.17 11.0836 62.4458 10.7528C62.7306 10.422 62.9101 10.013 62.9836 9.52595H61.4813C61.0123 9.52595 60.6772 9.61324 60.4749 9.78788C60.2727 9.95326 60.1716 10.16 60.1716 10.4081C60.1716 10.6746 60.2727 10.8814 60.4749 11.0285C60.6772 11.1755 60.9435 11.249 61.2743 11.249ZM66.6852 15.4945L68.2702 12.0071H67.8567L65.1966 5.62505H67.1124L69.0287 10.4357L71.0272 5.62505H72.9022L68.5598 15.4945H66.6852ZM73.6417 12.462V5.62505H75.1996L75.351 6.54859C75.5718 6.21774 75.8613 5.95585 76.2197 5.76285C76.5871 5.56068 77.0096 5.45962 77.4876 5.45962C78.5442 5.45962 79.2933 5.86856 79.7343 6.68639C79.9825 6.30963 80.3134 6.01096 80.7268 5.79043C81.1498 5.56989 81.6093 5.45962 82.1053 5.45962C82.9968 5.45962 83.6813 5.72611 84.1593 6.25908C84.6373 6.7921 84.8761 7.57319 84.8761 8.6024V12.462H83.1116V8.76783C83.1116 8.1797 82.9968 7.72941 82.767 7.41698C82.5463 7.10454 82.2017 6.94832 81.7332 6.94832C81.2552 6.94832 80.8692 7.12291 80.5754 7.47213C80.2906 7.82131 80.1482 8.30834 80.1482 8.93326V12.462H78.3838V8.76783C78.3838 8.1797 78.2689 7.72941 78.0392 7.41698C77.8094 7.10454 77.4553 6.94832 76.9778 6.94832C76.5088 6.94832 76.1276 7.12291 75.8333 7.47213C75.5485 7.82131 75.4061 8.30834 75.4061 8.93326V12.462H73.6417ZM89.4596 12.6274C88.7704 12.6274 88.1594 12.4804 87.6264 12.1863C87.0933 11.8922 86.6751 11.4787 86.3718 10.9457C86.0685 10.4128 85.917 9.79704 85.917 9.09864C85.917 8.39107 86.0642 7.7616 86.358 7.2102C86.6613 6.65886 87.0748 6.23155 87.5988 5.92827C88.1319 5.61584 88.7566 5.45962 89.4734 5.45962C90.1441 5.45962 90.737 5.60663 91.2515 5.90069C91.7661 6.19476 92.1658 6.5991 92.4506 7.1137C92.7449 7.61914 92.892 8.1843 92.892 8.80918C92.892 8.91028 92.8873 9.01595 92.8783 9.12622C92.8783 9.23649 92.8735 9.35136 92.8645 9.47084H87.6677C87.7042 10.0038 87.8884 10.422 88.2192 10.7252C88.5591 11.0285 88.9678 11.1801 89.4458 11.1801C89.8042 11.1801 90.1028 11.1019 90.342 10.9457C90.5898 10.7803 90.7735 10.569 90.8931 10.3116H92.6851C92.5564 10.7436 92.3404 11.1387 92.0371 11.4971C91.7433 11.8463 91.3754 12.122 90.9344 12.3242C90.5025 12.5263 90.0112 12.6274 89.4596 12.6274ZM89.4734 6.89316C89.0414 6.89316 88.6602 7.01725 88.3294 7.26536C87.9985 7.50427 87.7873 7.87187 87.6952 8.3681H91.1001C91.0726 7.91782 90.9069 7.55943 90.6036 7.29289C90.3003 7.02641 89.9238 6.89316 89.4734 6.89316ZM93.9624 12.462V5.62505H95.5199L95.658 6.78289C95.8692 6.37856 96.1726 6.05691 96.5675 5.818C96.9719 5.5791 97.4452 5.45962 97.9873 5.45962C98.8327 5.45962 99.4897 5.72611 99.9586 6.25908C100.427 6.7921 100.662 7.57319 100.662 8.6024V12.462H98.8972V8.76783C98.8972 8.1797 98.7776 7.72941 98.5389 7.41698C98.2996 7.10454 97.9275 6.94832 97.4219 6.94832C96.9259 6.94832 96.5172 7.12291 96.1954 7.47213C95.883 7.82131 95.7268 8.30834 95.7268 8.93326V12.462H93.9624ZM104.981 12.462C104.265 12.462 103.69 12.2874 103.258 11.9382C102.827 11.589 102.611 10.9687 102.611 10.0773V7.09994H101.439V5.62505H102.611L102.817 3.79172H104.375V5.62505H106.222V7.09994H104.375V10.0911C104.375 10.422 104.444 10.6517 104.582 10.7803C104.729 10.8998 104.977 10.9595 105.326 10.9595H106.181V12.462H104.981ZM110.149 12.6274C109.543 12.6274 109.009 12.5309 108.55 12.338C108.09 12.1358 107.723 11.8601 107.447 11.5109C107.172 11.1617 107.006 10.7574 106.951 10.2979H108.729C108.784 10.5644 108.932 10.7941 109.17 10.9871C109.419 11.1709 109.736 11.2628 110.122 11.2628C110.508 11.2628 110.788 11.1847 110.962 11.0285C111.146 10.8722 111.238 10.6931 111.238 10.4909C111.238 10.1968 111.109 9.99921 110.852 9.89815C110.595 9.78788 110.236 9.68217 109.777 9.58111C109.483 9.51679 109.184 9.43865 108.881 9.34675C108.577 9.25486 108.297 9.13998 108.04 9.00218C107.792 8.85513 107.59 8.67133 107.433 8.45079C107.277 8.22104 107.199 7.94079 107.199 7.60994C107.199 7.00343 107.438 6.49343 107.916 6.07989C108.403 5.66639 109.083 5.45962 109.956 5.45962C110.765 5.45962 111.408 5.64797 111.886 6.02478C112.373 6.40153 112.663 6.92074 112.754 7.5824H111.087C110.986 7.07696 110.604 6.82424 109.942 6.82424C109.611 6.82424 109.354 6.88856 109.17 7.01725C108.996 7.14588 108.908 7.30671 108.908 7.49967C108.908 7.70183 109.042 7.86266 109.308 7.98213C109.575 8.10161 109.928 8.21188 110.37 8.31294C110.847 8.42321 111.284 8.54729 111.679 8.68514C112.083 8.81378 112.405 9.01134 112.644 9.27783C112.883 9.53516 113.002 9.90731 113.002 10.3944C113.011 10.8171 112.901 11.1984 112.672 11.5385C112.442 11.8785 112.111 12.145 111.679 12.338C111.247 12.5309 110.737 12.6274 110.149 12.6274Z" fill="black"/>
<path d="M4.99854 13.5303C6.45288 13.5303 7.63185 12.3513 7.63185 10.897C7.63185 9.44264 6.45288 8.26367 4.99854 8.26367C3.54421 8.26367 2.36523 9.44264 2.36523 10.897C2.36523 12.3513 3.54421 13.5303 4.99854 13.5303Z" fill="black"/>
<path d="M7.90599 8.64793C9.05735 8.64793 9.9907 7.71457 9.9907 6.56322C9.9907 5.41187 9.05735 4.47852 7.90599 4.47852C6.75464 4.47852 5.82129 5.41187 5.82129 6.56322C5.82129 7.71457 6.75464 8.64793 7.90599 8.64793Z" fill="black"/>
<path d="M3.79202 5.63042C4.82217 5.63042 5.65728 4.79532 5.65728 3.76516C5.65728 2.73501 4.82217 1.8999 3.79202 1.8999C2.76186 1.8999 1.92676 2.73501 1.92676 3.76516C1.92676 4.79532 2.76186 5.63042 3.79202 5.63042Z" fill="black"/>
<path d="M2.69487 8.26376C3.30084 8.26376 3.79208 7.77252 3.79208 7.16655C3.79208 6.56057 3.30084 6.06934 2.69487 6.06934C2.08889 6.06934 1.59766 6.56057 1.59766 7.16655C1.59766 7.77252 2.08889 8.26376 2.69487 8.26376Z" fill="black"/>
</g>
<defs>
<clipPath id="clip0_1_9745">
<rect width="113.402" height="15" fill="white" transform="translate(0.298828 0.5)"/>
</clipPath>
</defs>
</svg>
